<?xml version="1.0" standalone="no"?>
<!DOCTYPE svg PUBLIC "-//W3C//DTD SVG 1.1//EN" "http://www.w3.org/Graphics/SVG/1.1/DTD/svg11.dtd" >
<svg xmlns="http://www.w3.org/2000/svg" xmlns:xlink="http://www.w3.org/1999/xlink" version="1.1">
<metadata>
Created by FontForge 20190801 at Sun Apr 30 19:17:57 2017
 By Jimmy Wärting
Digitized data copyright (c) 2010-2012 Google Corporation.
</metadata>
<defs>
<font id="Arimo-Bold" horiz-adv-x="1251" >
  <font-face 
    font-family="Arimo"
    font-weight="700"
    font-stretch="normal"
    units-per-em="2048"
    panose-1="2 11 7 4 2 2 2 2 2 4"
    ascent="1638"
    descent="-410"
    x-height="1082"
    cap-height="1409"
    bbox="-987 -771 2671 2116"
    underline-thickness="215"
    underline-position="-324"
    unicode-range="U+0020-FFFC"
  />
<missing-glyph horiz-adv-x="1536" 
d="M205 1409h1125v-1409h-1125v1409zM281 1333v-1257h973v1257h-973z" />
    <glyph glyph-name=".notdef" horiz-adv-x="1536" 
d="M205 1409h1125v-1409h-1125v1409zM281 1333v-1257h973v1257h-973z" />
    <glyph glyph-name=".null" horiz-adv-x="0" 
 />
    <glyph glyph-name="nonmarkingreturn" horiz-adv-x="569" 
 />
    <glyph glyph-name="space" unicode=" " horiz-adv-x="569" 
 />
    <glyph glyph-name="space" unicode="&#xa0;" horiz-adv-x="569" 
 />
    <glyph glyph-name="exclam" unicode="!" horiz-adv-x="682" 
d="M455 426h-230l-32 983h294zM193 0v270h288v-270h-288z" />
    <glyph glyph-name="quotedbl" unicode="&#x22;" horiz-adv-x="971" 
d="M807 898h-219l-27 511h275zM381 898h-219l-27 511h273z" />
    <glyph glyph-name="numbersign" unicode="#" horiz-adv-x="1139" 
d="M909 862l-69 -332h215v-149h-246l-82 -381h-156l80 381h-307l-80 -381h-153l79 381h-155v149h188l70 332h-207v148h238l84 385h153l-82 -385h307l84 385h156l-84 -385h164v-148h-197zM449 862l-72 -332h309l70 332h-307z" />
    <glyph glyph-name="dollar" unicode="$" horiz-adv-x="1139" 
d="M1110 412q0 -181 -121.5 -280.5t-359.5 -108.5v-175h-109v172q-215 8 -335 101.5t-158 286.5l256 47q19 -113 75.5 -165.5t161.5 -62.5v391q-3 2 -15 4.5t-16 2.5q-162 37 -244.5 87.5t-127.5 128t-45 189.5q0 166 114.5 257t333.5 99v134h109v-134q131 -5 218.5 -41.5
t141 -107t86.5 -201.5l-264 -39q-15 87 -58.5 134.5t-123.5 58.5v-352l11 -2q29 0 176.5 -48t220.5 -141.5t73 -234.5zM520 1194q-186 -14 -186 -160q0 -44 15.5 -73t45 -48t125.5 -51v332zM850 408q0 50 -18 81.5t-52.5 51.5t-150.5 53v-367q221 15 221 181z" />
    <glyph glyph-name="percent" unicode="%" horiz-adv-x="1821" 
d="M1767 432q0 -218 -90 -333t-264 -115q-176 0 -265 114t-89 334q0 224 86 336.5t272 112.5q180 0 265 -113.5t85 -335.5zM552 0h-206l920 1409h209zM408 1425q179 0 265.5 -113t86.5 -335q0 -218 -90.5 -333.5t-266.5 -115.5q-174 0 -263 114.5t-89 334.5q0 227 86 337.5
t271 110.5zM1552 432q0 159 -30.5 227t-104.5 68q-80 0 -110.5 -69t-30.5 -226q0 -160 32 -225.5t107 -65.5q73 0 105 68t32 223zM543 977q0 157 -30.5 225t-104.5 68q-80 0 -111 -67.5t-31 -225.5t32.5 -225.5t107.5 -67.5q74 0 105.5 68t31.5 225z" />
    <glyph glyph-name="ampersand" unicode="&#x26;" horiz-adv-x="1479" 
d="M90 385q0 135 81 240.5t257 187.5q-74 150 -74 279q0 156 98 240.5t279 84.5q168 0 265.5 -80t97.5 -217q0 -77 -39 -139t-110.5 -115t-242.5 -133q99 -175 244 -336q104 158 158 363l209 -70q-68 -233 -193 -420q86 -73 178 -73q65 0 117 16v-203q-55 -22 -131 -22
q-86 0 -172.5 31t-157.5 90q-170 -129 -379 -129q-231 0 -358 106.5t-127 298.5zM870 1118q0 57 -38 93t-103 36q-77 0 -117.5 -43t-40.5 -114q0 -87 54 -193q105 45 150.5 76t70 66t24.5 79zM788 246q-166 185 -272 377q-172 -81 -172 -234q0 -99 65 -159t177 -60
q65 0 117.5 24t84.5 52z" />
    <glyph glyph-name="quotesingle" unicode="'" horiz-adv-x="487" 
d="M354 898h-219l-26 511h272z" />
    <glyph glyph-name="parenleft" unicode="(" horiz-adv-x="682" 
d="M399 -425q-157 226 -227 451t-70 505q0 279 70 503.5t227 449.5h281q-158 -228 -229.5 -454t-71.5 -500q0 -273 71 -497.5t230 -457.5h-281z" />
    <glyph glyph-name="parenright" unicode=")" horiz-adv-x="682" 
d="M2 -425q160 234 230.5 457.5t70.5 497.5q0 275 -72 501.5t-229 452.5h281q158 -227 227.5 -452t69.5 -501q0 -278 -69.5 -503t-227.5 -453h-281z" />
    <glyph glyph-name="asterisk" unicode="*" horiz-adv-x="797" 
d="M492 1135l235 104l68 -197l-250 -61l186 -213l-184 -121l-146 252l-149 -252l-186 123l190 211l-250 61l68 197l239 -104l-18 274h215z" />
    <glyph glyph-name="plus" unicode="+" horiz-adv-x="1196" 
d="M711 569v-408h-226v408h-399v224h399v408h226v-408h402v-224h-402z" />
    <glyph glyph-name="comma" unicode="," horiz-adv-x="569" 
d="M432 66q0 -120 -25.5 -212t-82.5 -171h-185q59 71 96 156t37 161h-129v305h289v-239z" />
    <glyph glyph-name="hyphen" unicode="-" horiz-adv-x="682" 
d="M80 409v244h520v-244h-520z" />
    <glyph glyph-name="hyphen" unicode="&#xad;" horiz-adv-x="682" 
d="M80 409v244h520v-244h-520z" />
    <glyph glyph-name="period" unicode="." horiz-adv-x="569" 
d="M139 0v305h289v-305h-289z" />
    <glyph glyph-name="slash" unicode="/" horiz-adv-x="569" 
d="M20 -41l291 1525h238l-286 -1525h-243z" />
    <glyph glyph-name="zero" unicode="0" horiz-adv-x="1139" 
d="M1055 705q0 -357 -122.5 -541t-367.5 -184q-484 0 -484 725q0 253 53 413t159 236t280 76q250 0 366 -181t116 -544zM773 705q0 195 -19 303t-61 155t-122 47q-85 0 -128.5 -47.5t-62 -155t-18.5 -302.5q0 -193 19.5 -301.5t62 -155.5t123.5 -47q80 0 123.5 49.5
t63 158.5t19.5 296z" />
    <glyph glyph-name="one" unicode="1" horiz-adv-x="1139" 
d="M129 0v209h349v961l-338 -211v221l353 229h266v-1200h323v-209h-953z" />
    <glyph glyph-name="two" unicode="2" horiz-adv-x="1139" 
d="M71 0v195q55 121 156.5 236t255.5 240q148 120 207.5 198t59.5 153q0 184 -185 184q-90 0 -137.5 -48.5t-61.5 -145.5l-283 16q24 196 146.5 299t333.5 103q228 0 350 -104t122 -292q0 -99 -39 -179t-100 -147.5t-135.5 -126.5t-144.5 -115t-127.5 -113t-85.5 -122h654
v-231h-986z" />
    <glyph glyph-name="three" unicode="3" horiz-adv-x="1139" 
d="M1065 391q0 -198 -130 -306t-370 -108q-227 0 -361 104.5t-157 301.5l286 25q27 -203 231 -203q101 0 157 50t56 153q0 94 -68 144t-202 50h-98v227h92q121 0 182 49.5t61 141.5q0 87 -48.5 136.5t-141.5 49.5q-87 0 -140.5 -48t-61.5 -136l-281 20q22 182 151 285
t337 103q221 0 345.5 -99.5t124.5 -275.5q0 -132 -77.5 -217t-223.5 -113v-4q162 -19 249.5 -106.5t87.5 -223.5z" />
    <glyph glyph-name="four" unicode="4" horiz-adv-x="1139" 
d="M940 287v-287h-268v287h-641v211l595 911h314v-913h188v-209h-188zM672 957q0 54 3.5 117t5.5 81q-26 -56 -94 -162l-327 -497h412v461z" />
    <glyph glyph-name="five" unicode="5" horiz-adv-x="1139" 
d="M1082 469q0 -224 -139.5 -356.5t-382.5 -132.5q-212 0 -339.5 95.5t-157.5 276.5l281 23q22 -90 78 -131t141 -41q105 0 167.5 67t62.5 193q0 111 -59 177.5t-165 66.5q-117 0 -191 -91h-274l49 793h847v-209h-592l-23 -356q102 90 255 90q201 0 321.5 -125t120.5 -340z
" />
    <glyph glyph-name="six" unicode="6" horiz-adv-x="1139" 
d="M1065 461q0 -225 -126 -353t-348 -128q-249 0 -382.5 174.5t-133.5 517.5q0 377 135.5 567.5t387.5 190.5q179 0 282.5 -79t146.5 -245l-265 -37q-38 139 -170 139q-113 0 -177.5 -113t-64.5 -343q45 75 125 115t181 40q189 0 299 -120t110 -326zM783 453
q0 120 -55.5 183.5t-152.5 63.5q-93 0 -149 -59.5t-56 -157.5q0 -123 58.5 -203.5t153.5 -80.5t148 67.5t53 186.5z" />
    <glyph glyph-name="seven" unicode="7" horiz-adv-x="1139" 
d="M1049 1186q-95 -150 -179.5 -291t-147.5 -283.5t-99.5 -293t-36.5 -318.5h-293q0 176 46 340.5t133 335t316 502.5h-700v231h961v-223z" />
    <glyph glyph-name="eight" unicode="8" horiz-adv-x="1139" 
d="M1076 397q0 -198 -131 -307.5t-374 -109.5q-241 0 -373.5 109t-132.5 306q0 135 78 227.5t209 114.5v4q-114 25 -184 113t-70 203q0 173 122.5 273t346.5 100q229 0 351.5 -97.5t122.5 -277.5q0 -115 -69.5 -202t-186.5 -110v-4q136 -22 213.5 -111.5t77.5 -230.5z
M752 1040q0 100 -46 146.5t-139 46.5q-182 0 -182 -193q0 -202 184 -202q92 0 137.5 47t45.5 155zM785 420q0 221 -220 221q-102 0 -156.5 -58t-54.5 -167q0 -124 54 -181t165 -57q109 0 160.5 57t51.5 185z" />
    <glyph glyph-name="nine" unicode="9" horiz-adv-x="1139" 
d="M1063 727q0 -375 -137 -561t-389 -186q-186 0 -291.5 79.5t-149.5 251.5l264 37q39 -147 180 -147q118 0 181.5 113t65.5 335q-38 -75 -124.5 -117.5t-186.5 -42.5q-186 0 -295.5 126.5t-109.5 342.5q0 222 128.5 347t363.5 125q253 0 376.5 -175.5t123.5 -527.5z
M766 924q0 131 -57.5 208.5t-152.5 77.5q-93 0 -146.5 -67.5t-53.5 -186.5q0 -117 53 -187.5t148 -70.5q90 0 149.5 61.5t59.5 164.5z" />
    <glyph glyph-name="colon" unicode=":" horiz-adv-x="682" 
d="M197 752v282h288v-282h-288zM197 0v281h288v-281h-288z" />
    <glyph glyph-name="semicolon" unicode=";" horiz-adv-x="682" 
d="M199 752v282h288v-282h-288zM487 66q0 -120 -25.5 -212t-82.5 -171h-184q64 81 98.5 163.5t34.5 153.5h-129v281h288v-215z" />
    <glyph glyph-name="semicolon" unicode="&#x37e;" horiz-adv-x="682" 
d="M199 752v282h288v-282h-288zM487 66q0 -120 -25.5 -212t-82.5 -171h-184q64 81 98.5 163.5t34.5 153.5h-129v281h288v-215z" />
    <glyph glyph-name="less" unicode="&#x3c;" horiz-adv-x="1196" 
d="M86 516v322l1027 391v-228l-833 -325l833 -324v-227z" />
    <glyph glyph-name="equal" unicode="=" horiz-adv-x="1196" 
d="M85 842v223h1027v-223h-1027zM85 291v221h1027v-221h-1027z" />
    <glyph glyph-name="greater" unicode="&#x3e;" horiz-adv-x="1196" 
d="M86 125v227l832 324l-832 325v228l1027 -391v-322z" />
    <glyph glyph-name="question" unicode="?" 
d="M1133 1026q0 -97 -43.5 -174t-162.5 -162l-76 -55q-68 -49 -101.5 -99t-36.5 -110h-267q6 102 57.5 182t151.5 150q107 74 151 130.5t44 125.5q0 88 -57.5 139t-163.5 51q-101 0 -169.5 -59t-80.5 -156l-285 12q27 203 167 316t364 113q237 0 372.5 -107.5t135.5 -296.5z
M438 0v270h289v-270h-289z" />
    <glyph glyph-name="at" unicode="@" horiz-adv-x="1997" 
d="M1878 725q0 -182 -63.5 -332t-175.5 -234.5t-242 -84.5q-92 0 -141.5 45.5t-49.5 126.5q0 37 6 67h-6q-50 -105 -148.5 -172t-201.5 -67q-157 0 -243.5 101.5t-86.5 283.5q0 163 64.5 306t179 224.5t256.5 81.5q195 0 264 -174h6l39 152h156l-117 -506q-37 -172 -37 -240
q0 -50 23.5 -71t54.5 -21q80 0 153 69.5t115.5 186t42.5 256.5q0 175 -76.5 309.5t-220.5 207.5t-335 73q-240 0 -423 -105t-287.5 -303t-104.5 -444q0 -195 79.5 -342.5t223.5 -223t338 -75.5q294 0 589 155l62 -122q-168 -95 -328.5 -136t-329.5 -41q-236 0 -415.5 95.5
t-280 276t-100.5 413.5q0 283 126.5 512t349.5 355t499 126q243 0 421 -90.5t271.5 -255.5t93.5 -383zM1231 721q0 95 -59.5 155t-153.5 60t-168.5 -62.5t-116 -177t-41.5 -235.5q0 -114 48.5 -180t148.5 -66q66 0 128.5 42t111.5 121.5t75.5 181t26.5 161.5z" />
    <glyph glyph-name="A" unicode="A" horiz-adv-x="1479" 
d="M1133 0l-125 360h-537l-125 -360h-295l514 1409h348l512 -1409h-292zM739 1192l-6 -22q-10 -36 -24 -82t-172 -506h405l-139 405l-43 136z" />
    <glyph glyph-name="B" unicode="B" horiz-adv-x="1479" 
d="M1386 402q0 -192 -144 -297t-400 -105h-705v1409h645q258 0 390.5 -89.5t132.5 -264.5q0 -120 -66.5 -202.5t-202.5 -111.5q171 -20 260.5 -107.5t89.5 -231.5zM1008 1015q0 95 -60.5 135t-179.5 40h-336v-349h338q125 0 181.5 43.5t56.5 130.5zM1090 425q0 198 -284 198
h-374v-404h385q142 0 207.5 51.5t65.5 154.5z" />
    <glyph glyph-name="C" unicode="C" horiz-adv-x="1479" 
d="M795 212q267 0 371 268l257 -97q-83 -204 -243.5 -303.5t-384.5 -99.5q-340 0 -525.5 192.5t-185.5 538.5q0 347 179 533t519 186q248 0 404 -99.5t219 -292.5l-260 -71q-33 106 -129.5 168.5t-227.5 62.5q-200 0 -303.5 -124t-103.5 -363q0 -243 106.5 -371t307.5 -128z
" />
    <glyph glyph-name="D" unicode="D" horiz-adv-x="1479" 
d="M1393 715q0 -218 -85.5 -380.5t-242 -248.5t-358.5 -86h-570v1409h510q356 0 551 -179.5t195 -514.5zM1096 715q0 227 -118 346.5t-337 119.5h-209v-953h250q190 0 302 131t112 356z" />
    <glyph glyph-name="E" unicode="E" horiz-adv-x="1366" 
d="M137 0v1409h1108v-228h-813v-354h752v-228h-752v-371h854v-228h-1149z" />
    <glyph glyph-name="F" unicode="F" 
d="M432 1181v-436h721v-228h-721v-517h-295v1409h1039v-228h-744z" />
    <glyph glyph-name="G" unicode="G" horiz-adv-x="1593" 
d="M806 211q115 0 223 33.5t167 85.5v195h-344v218h614v-518q-112 -115 -291.5 -180t-376.5 -65q-344 0 -529 190.5t-185 540.5q0 348 186 533.5t535 185.5q496 0 631 -367l-272 -82q-44 107 -138 162t-221 55q-208 0 -316 -126t-108 -361q0 -239 111.5 -369.5t313.5 -130.5
z" />
    <glyph glyph-name="H" unicode="H" horiz-adv-x="1479" 
d="M1046 0v604h-614v-604h-295v1409h295v-561h614v561h295v-1409h-295z" />
    <glyph glyph-name="I" unicode="I" horiz-adv-x="569" 
d="M137 0v1409h295v-1409h-295z" />
    <glyph glyph-name="J" unicode="J" horiz-adv-x="1139" 
d="M524 -20q-219 0 -336.5 95t-156.5 307l293 43q18 -109 67 -161.5t135 -52.5q88 0 133.5 59t45.5 169v739h-281v231h575v-963q0 -220 -125 -343t-350 -123z" />
    <glyph glyph-name="K" unicode="K" horiz-adv-x="1479" 
d="M1112 0l-506 647l-174 -133v-514h-295v1409h295v-639l635 639h344l-602 -596l651 -813h-348z" />
    <glyph glyph-name="L" unicode="L" 
d="M137 0v1409h295v-1181h756v-228h-1051z" />
    <glyph glyph-name="M" unicode="M" horiz-adv-x="1706" 
d="M1307 0v854q0 29 0.5 58t9.5 249q-71 -269 -105 -375l-254 -786h-210l-254 786l-107 375q12 -232 12 -307v-854h-262v1409h395l252 -788l22 -76l48 -189l63 226l259 827h393v-1409h-262z" />
    <glyph glyph-name="N" unicode="N" horiz-adv-x="1479" 
d="M995 0l-614 1085q18 -158 18 -254v-831h-262v1409h337l623 -1094q-18 151 -18 275v819h262v-1409h-346z" />
    <glyph glyph-name="O" unicode="O" horiz-adv-x="1593" 
d="M1507 711q0 -220 -87 -387t-249 -255.5t-378 -88.5q-332 0 -520.5 195.5t-188.5 535.5q0 339 188 529t523 190t523.5 -192t188.5 -527zM1206 711q0 228 -108 357.5t-303 129.5q-198 0 -306 -128.5t-108 -358.5q0 -232 110.5 -365.5t301.5 -133.5q198 0 305.5 130
t107.5 369z" />
    <glyph glyph-name="P" unicode="P" horiz-adv-x="1366" 
d="M1296 963q0 -136 -62 -243t-177.5 -165.5t-274.5 -58.5h-350v-496h-295v1409h633q253 0 389.5 -116.5t136.5 -329.5zM999 958q0 222 -262 222h-305v-457h313q122 0 188 60.5t66 174.5z" />
    <glyph glyph-name="Q" unicode="Q" horiz-adv-x="1593" 
d="M1507 711q0 -282 -138.5 -469.5t-385.5 -237.5q34 -99 95.5 -143t172.5 -44q59 0 119 10l-2 -202q-126 -28 -242 -28q-163 0 -270 91t-172 302q-285 27 -442.5 217.5t-157.5 503.5q0 339 188 529t523 190t523.5 -192t188.5 -527zM1206 711q0 228 -108 357.5t-303 129.5
q-198 0 -306 -128.5t-108 -358.5q0 -232 110 -366t302 -134q198 0 305.5 130t107.5 370z" />
    <glyph glyph-name="R" unicode="R" horiz-adv-x="1479" 
d="M1105 0l-327 535h-346v-535h-295v1409h704q252 0 389 -108.5t137 -311.5q0 -148 -84 -255.5t-227 -141.5l381 -592h-332zM1070 977q0 203 -260 203h-378v-416h386q124 0 188 56t64 157z" />
    <glyph glyph-name="S" unicode="S" horiz-adv-x="1366" 
d="M1286 406q0 -207 -153.5 -316.5t-450.5 -109.5q-271 0 -425 96t-198 291l285 47q29 -112 113 -162.5t233 -50.5q309 0 309 188q0 60 -35.5 99t-100 65t-247.5 63q-158 37 -220 59.5t-112 53t-85 73.5t-54.5 101t-19.5 133q0 191 143.5 292.5t417.5 101.5q262 0 393.5 -82
t169.5 -271l-286 -39q-22 91 -89.5 137t-193.5 46q-268 0 -268 -168q0 -55 28.5 -90t84.5 -59.5t227 -61.5q203 -43 290.5 -79.5t138.5 -85t78 -116t27 -155.5z" />
    <glyph glyph-name="T" unicode="T" 
d="M773 1181v-1181h-295v1181h-455v228h1206v-228h-456z" />
    <glyph glyph-name="U" unicode="U" horiz-adv-x="1479" 
d="M723 -20q-291 0 -445.5 142t-154.5 406v881h295v-858q0 -167 79.5 -253.5t233.5 -86.5q158 0 243 90.5t85 259.5v848h295v-866q0 -268 -165.5 -415.5t-465.5 -147.5z" />
    <glyph glyph-name="V" unicode="V" horiz-adv-x="1366" 
d="M834 0h-299l-521 1409h308l290 -905q27 -88 74 -266l21 86l51 180l289 905h305z" />
    <glyph glyph-name="W" unicode="W" horiz-adv-x="1933" 
d="M1567 0h-350l-191 815q-35 144 -59 301q-24 -131 -39 -199.5t-213 -916.5h-350l-363 1409h299l204 -910l46 -220q28 139 54.5 265.5t199.5 864.5h330l178 -750q21 -84 71 -380l25 116l53 230l170 784h299z" />
    <glyph glyph-name="X" unicode="X" horiz-adv-x="1366" 
d="M1038 0l-354 561l-354 -561h-312l488 741l-447 668h312l313 -498l313 498h310l-428 -668l469 -741h-310z" />
    <glyph glyph-name="Y" unicode="Y" horiz-adv-x="1366" 
d="M831 578v-578h-294v578l-502 831h309l338 -596l342 596h309z" />
    <glyph glyph-name="Z" unicode="Z" 
d="M1192 0h-1131v209l762 969h-686v231h1014v-205l-762 -973h803v-231z" />
    <glyph glyph-name="bracketleft" unicode="[" horiz-adv-x="682" 
d="M115 -425v1909h542v-190h-276v-1528h276v-191h-542z" />
    <glyph glyph-name="backslash" unicode="\" horiz-adv-x="569" 
d="M307 -41l-286 1526h238l291 -1526h-243z" />
    <glyph glyph-name="bracketright" unicode="]" horiz-adv-x="682" 
d="M25 -425v191h278v1528h-278v190h542v-1909h-542z" />
    <glyph glyph-name="asciicircum" unicode="^" horiz-adv-x="1196" 
d="M922 514l-326 752l-324 -752h-227l391 895h322l393 -895h-229z" />
    <glyph glyph-name="underscore" unicode="_" horiz-adv-x="1139" 
d="M-20 -250v78h1177v-78h-1177z" />
    <glyph glyph-name="grave" unicode="`" horiz-adv-x="682" 
d="M406 1183l-340 276v43h258l251 -288v-31h-169z" />
    <glyph glyph-name="a" unicode="a" horiz-adv-x="1139" 
d="M393 -20q-157 0 -245 85.5t-88 240.5q0 168 109.5 256t317.5 90l233 4v55q0 106 -37 157.5t-121 51.5q-78 0 -114.5 -35.5t-45.5 -117.5l-293 14q27 158 144.5 239.5t320.5 81.5q205 0 316 -101t111 -287v-394q0 -91 20.5 -125.5t68.5 -34.5q32 0 62 6v-152
q-25 -6 -45 -11t-40 -8t-42.5 -5t-52.5 -2q-106 0 -156.5 52t-60.5 153h-6q-118 -213 -356 -213zM720 501l-144 -2q-98 -4 -139 -21.5t-62.5 -53.5t-21.5 -96q0 -77 35.5 -114.5t94.5 -37.5q66 0 120.5 36t85.5 99.5t31 134.5v55z" />
    <glyph glyph-name="b" unicode="b" 
d="M1167 545q0 -268 -107.5 -416.5t-307.5 -148.5q-115 0 -199 50t-129 144h-2q0 -35 -4.5 -96t-9.5 -78h-273q8 93 8 247v1237h281v-414l-4 -176h4q95 208 346 208q192 0 294.5 -145.5t102.5 -411.5zM874 545q0 184 -54 273t-167 89q-114 0 -173.5 -95.5t-59.5 -275.5
q0 -172 58.5 -268t172.5 -96q223 0 223 373z" />
    <glyph glyph-name="c" unicode="c" horiz-adv-x="1139" 
d="M594 -20q-246 0 -380 146.5t-134 408.5q0 268 135 417.5t383 149.5q191 0 316 -96t157 -265l-283 -14q-12 83 -60 132.5t-136 49.5q-217 0 -217 -363q0 -374 221 -374q80 0 134 50.5t67 150.5l282 -13q-15 -111 -79.5 -198t-169.5 -134.5t-236 -47.5z" />
    <glyph glyph-name="d" unicode="d" 
d="M844 0q-4 15 -9.5 75.5t-5.5 100.5h-4q-91 -196 -346 -196q-189 0 -292 147.5t-103 412.5q0 269 108.5 415.5t307.5 146.5q115 0 198.5 -48t128.5 -143h2l-2 178v395h281v-1248q0 -100 8 -236h-272zM831 547q0 175 -58.5 269.5t-172.5 94.5q-113 0 -168 -91.5t-55 -279.5
q0 -368 221 -368q111 0 172 97.5t61 277.5z" />
    <glyph glyph-name="e" unicode="e" horiz-adv-x="1139" 
d="M586 -20q-244 0 -375 144.5t-131 421.5q0 268 133 412t377 144q233 0 356 -154.5t123 -452.5v-8h-694q0 -158 58.5 -238.5t166.5 -80.5q149 0 188 129l265 -23q-115 -294 -467 -294zM586 925q-99 0 -152.5 -69t-56.5 -193h420q-8 131 -63 196.5t-148 65.5z" />
    <glyph glyph-name="f" unicode="f" horiz-adv-x="682" 
d="M473 892v-892h-280v892h-158v190h158v113q0 147 78 218t237 71q79 0 178 -16v-181q-41 9 -82 9q-72 0 -101.5 -28.5t-29.5 -100.5v-85h213v-190h-213z" />
    <glyph glyph-name="g" unicode="g" 
d="M596 -434q-198 0 -318.5 75.5t-148.5 215.5l281 33q15 -65 64.5 -102t129.5 -37q117 0 171 72t54 214v57l2 107h-2q-93 -199 -348 -199q-189 0 -293 142t-104 406q0 265 107 409t311 144q236 0 327 -195h5q0 35 4.5 95t9.5 79h266q-6 -108 -6 -250v-799q0 -231 -131 -349
t-381 -118zM831 556q0 167 -59.5 260.5t-169.5 93.5q-225 0 -225 -360q0 -353 223 -353q112 0 171.5 93.5t59.5 265.5z" />
    <glyph glyph-name="h" unicode="h" 
d="M420 866q57 124 143 180t205 56q172 0 264 -106t92 -310v-686h-280v606q0 285 -193 285q-102 0 -164.5 -87.5t-62.5 -224.5v-579h-281v1484h281v-405q0 -109 -8 -213h4z" />
    <glyph glyph-name="i" unicode="i" horiz-adv-x="569" 
d="M143 1277v207h281v-207h-281zM143 0v1082h281v-1082h-281z" />
    <glyph glyph-name="j" unicode="j" horiz-adv-x="569" 
d="M144 1277v207h281v-207h-281zM138 -425q-100 0 -170 9v198l51 -4q72 0 98.5 31.5t26.5 130.5v1142h281v-1210q0 -143 -72.5 -220t-214.5 -77z" />
    <glyph glyph-name="k" unicode="k" horiz-adv-x="1139" 
d="M834 0l-289 490l-121 -84v-406h-281v1484h281v-850l386 448h302l-380 -422l409 -660h-307z" />
    <glyph glyph-name="l" unicode="l" horiz-adv-x="569" 
d="M143 0v1484h281v-1484h-281z" />
    <glyph glyph-name="m" unicode="m" horiz-adv-x="1821" 
d="M780 0v607q0 285 -164 285q-85 0 -138.5 -87t-53.5 -225v-580h-281v840q0 87 -2.5 142.5t-5.5 99.5h268q3 -19 8 -101.5t5 -113.5h4q52 124 129.5 180t185.5 56q248 0 301 -236h6q55 126 132 181t196 55q158 0 241 -107.5t83 -308.5v-687h-279v607q0 285 -164 285
q-82 0 -134.5 -79.5t-57.5 -219.5v-593h-279z" />
    <glyph glyph-name="n" unicode="n" 
d="M844 0v607q0 285 -193 285q-102 0 -164.5 -87.5t-62.5 -224.5v-580h-281v840q0 87 -2.5 142.5t-5.5 99.5h268q3 -19 8 -101.5t5 -113.5h4q57 124 143 180t205 56q172 0 264 -106t92 -310v-687h-280z" />
    <glyph glyph-name="o" unicode="o" 
d="M1171 542q0 -263 -146 -412.5t-404 -149.5q-253 0 -397 150t-144 412q0 261 144 410.5t403 149.5q265 0 404.5 -144.5t139.5 -415.5zM877 542q0 193 -63 280t-183 87q-256 0 -256 -367q0 -181 62.5 -275.5t180.5 -94.5q259 0 259 370z" />
    <glyph glyph-name="p" unicode="p" 
d="M1167 546q0 -271 -108.5 -418.5t-306.5 -147.5q-114 0 -198.5 49.5t-129.5 142.5h-6q6 -30 6 -182v-415h-281v1258q0 153 -8 249h273q5 -18 8.5 -71t3.5 -105h4q95 199 346 199q189 0 293 -145.5t104 -413.5zM874 546q0 364 -223 364q-112 0 -171.5 -98t-59.5 -274
q0 -175 59.5 -270.5t169.5 -95.5q225 0 225 374z" />
    <glyph glyph-name="q" unicode="q" 
d="M84 540q0 268 109.5 415.5t308.5 147.5q236 0 327 -195q0 46 5.5 102.5t9.5 71.5h270q-6 -108 -6 -249v-1258h-279v450l5 155h-2q-93 -200 -353 -200q-189 0 -292 147.5t-103 412.5zM831 546q0 173 -58 268.5t-171 95.5q-225 0 -225 -370q0 -368 223 -368
q110 0 170.5 97.5t60.5 276.5z" />
    <glyph glyph-name="r" unicode="r" horiz-adv-x="797" 
d="M143 0v828q0 89 -2.5 148.5t-5.5 105.5h268q3 -18 8 -109.5t5 -121.5h4q41 114 73 160.5t76 69t110 22.5q54 0 87 -15v-235q-68 15 -120 15q-105 0 -163.5 -85t-58.5 -252v-531h-281z" />
    <glyph glyph-name="s" unicode="s" horiz-adv-x="1139" 
d="M1055 316q0 -157 -128.5 -246.5t-355.5 -89.5q-223 0 -341.5 70.5t-157.5 219.5l247 37q21 -77 72.5 -109t179.5 -32q118 0 172 30t54 94q0 52 -43.5 82.5t-147.5 51.5q-238 47 -321 87.5t-126.5 105t-43.5 158.5q0 155 119.5 241.5t338.5 86.5q193 0 310.5 -75
t146.5 -217l-249 -26q-12 66 -59 98.5t-149 32.5q-100 0 -150 -25.5t-50 -85.5q0 -47 38.5 -74.5t129.5 -45.5q127 -26 225.5 -53.5t158 -65.5t95 -97.5t35.5 -152.5z" />
    <glyph glyph-name="t" unicode="t" horiz-adv-x="682" 
d="M420 -18q-124 0 -191 67.5t-67 204.5v638h-137v190h151l88 254h176v-254h205v-190h-205v-562q0 -79 30 -116.5t93 -37.5q33 0 94 14v-174q-104 -34 -237 -34z" />
    <glyph glyph-name="u" unicode="u" 
d="M408 1082v-607q0 -285 192 -285q102 0 164.5 87.5t62.5 224.5v580h281v-840q0 -138 8 -242h-268q-12 144 -12 215h-5q-56 -123 -142.5 -179t-205.5 -56q-172 0 -264 105.5t-92 309.5v687h281z" />
    <glyph glyph-name="v" unicode="v" horiz-adv-x="1139" 
d="M731 0h-336l-387 1082h297l189 -605q15 -50 71 -250q10 41 41 144t230 711h294z" />
    <glyph glyph-name="w" unicode="w" horiz-adv-x="1593" 
d="M1313 0h-297l-172 660q-12 45 -47 222l-52 -224l-174 -658h-297l-280 1082h264l178 -827l14 74l25 117l170 636h301l166 -636q14 -52 41 -191l28 132l156 695h260z" />
    <glyph glyph-name="x" unicode="x" horiz-adv-x="1139" 
d="M819 0l-252 392l-254 -392h-299l396 559l-377 523h303l231 -354l230 354h305l-377 -520l399 -562h-305z" />
    <glyph glyph-name="y" unicode="y" horiz-adv-x="1139" 
d="M283 -425q-101 0 -177 13v200q53 -8 97 -8q60 0 99.5 19t71 63t70.5 149l-428 1071h297l170 -507q40 -109 101 -334l25 95l65 235l160 511h294l-428 -1139q-86 -208 -178.5 -288t-238.5 -80z" />
    <glyph glyph-name="z" unicode="z" horiz-adv-x="1024" 
d="M82 0v199l509 680h-468v203h778v-201l-506 -676h555v-205h-868z" />
    <glyph glyph-name="braceleft" unicode="{" horiz-adv-x="797" 
d="M557 -425q-134 0 -214.5 78.5t-80.5 220.5v328q0 114 -55 170.5t-174 58.5v195q121 5 175 61.5t54 169.5v328q0 146 78.5 222.5t216.5 76.5h197v-190h-58q-91 0 -131.5 -52t-40.5 -157v-301q0 -95 -57.5 -164t-149.5 -88v-4q95 -22 151 -90.5t56 -161.5v-301
q0 -106 40.5 -157.5t131.5 -51.5h58v-191h-197z" />
    <glyph glyph-name="bar" unicode="|" horiz-adv-x="573" 
d="M156 -455v1939h262v-1939h-262z" />
    <glyph glyph-name="braceright" unicode="}" horiz-adv-x="797" 
d="M43 -234h57q93 0 132.5 51.5t39.5 157.5v301q0 92 56.5 161t150.5 91v4q-91 19 -149 87.5t-58 164.5v301q0 105 -39.5 157t-132.5 52h-57v190h197q138 0 216.5 -76.5t78.5 -222.5v-328q0 -112 55 -169t176 -62v-195q-121 -2 -176 -60t-55 -169v-328q0 -141 -80 -220
t-215 -79h-197v191z" />
    <glyph glyph-name="asciitilde" unicode="~" horiz-adv-x="1196" 
d="M852 516q-75 0 -147.5 21t-147.5 47q-135 47 -221 47q-71 0 -130.5 -21.5t-124.5 -66.5v213q113 84 271 84q105 0 242 -47q132 -46 182 -58t95 -12q134 0 248 92v-219q-64 -44 -122.5 -62t-144.5 -18z" />
    <glyph glyph-name="Adieresis" unicode="&#xc4;" horiz-adv-x="1479" 
d="M1133 0l-125 360h-537l-125 -360h-295l514 1409h348l512 -1409h-292zM739 1192l-6 -22q-10 -36 -24 -82t-172 -506h405l-139 405l-43 136zM868 1530v219h197v-219h-197zM414 1530v219h194v-219h-194z" />
    <glyph glyph-name="Aring" unicode="&#xc5;" horiz-adv-x="1479" 
d="M1133 0l-125 360h-537l-125 -360h-295l514 1409h348l512 -1409h-292zM739 1192l-6 -22q-10 -36 -24 -82t-172 -506h405l-139 405l-43 136zM993 1552q0 -105 -73.5 -179.5t-180.5 -74.5t-180.5 74.5t-73.5 179.5t74.5 179.5t179.5 74.5t179.5 -74.5t74.5 -179.5zM866 1552
q0 51 -36.5 88t-90.5 37q-51 0 -88 -36t-37 -89q0 -56 37 -92t88 -36q53 0 90 37t37 91z" />
    <glyph glyph-name="Ccedilla" unicode="&#xc7;" horiz-adv-x="1479" 
d="M795 212q267 0 371 268l257 -97q-83 -204 -243.5 -303.5t-384.5 -99.5q-340 0 -525.5 192.5t-185.5 538.5q0 347 179 533t519 186q248 0 404 -99.5t219 -292.5l-260 -71q-33 106 -129.5 168.5t-227.5 62.5q-200 0 -303.5 -124t-103.5 -363q0 -243 106.5 -371t307.5 -128z
M989 -235q0 -94 -78 -142t-225 -48q-45 0 -101 6v118q35 -7 84 -7q137 0 137 69q0 35 -28 52t-94 17q-38 0 -52 -2l62 172h143l-33 -82q94 -5 139.5 -46t45.5 -107z" />
    <glyph glyph-name="Eacute" unicode="&#xc9;" horiz-adv-x="1366" 
d="M137 0v1409h1108v-228h-813v-354h752v-228h-752v-371h854v-228h-1149zM517 1530v31l252 254h258v-43l-340 -242h-170z" />
    <glyph glyph-name="Ntilde" unicode="&#xd1;" horiz-adv-x="1479" 
d="M995 0l-614 1085q18 -158 18 -254v-831h-262v1409h337l623 -1094q-18 151 -18 275v819h262v-1409h-346zM906 1530q-44 0 -88.5 19t-86.5 42.5t-79.5 42.5t-67.5 19q-41 0 -62.5 -23t-35.5 -100h-137q8 113 32.5 169.5t70.5 90t122 33.5q45 0 90 -19t87 -42.5t78.5 -42.5
t65.5 -19q40 0 62.5 24.5t36.5 98.5h135q-7 -157 -63.5 -225t-159.5 -68z" />
    <glyph glyph-name="Odieresis" unicode="&#xd6;" horiz-adv-x="1593" 
d="M1507 711q0 -220 -87 -387t-249 -255.5t-378 -88.5q-332 0 -520.5 195.5t-188.5 535.5q0 339 188 529t523 190t523.5 -192t188.5 -527zM1206 711q0 228 -108 357.5t-303 129.5q-198 0 -306 -128.5t-108 -358.5q0 -232 110.5 -365.5t301.5 -133.5q198 0 305.5 130
t107.5 369zM923 1530v219h197v-219h-197zM469 1530v219h194v-219h-194z" />
    <glyph glyph-name="Udieresis" unicode="&#xdc;" horiz-adv-x="1479" 
d="M723 -20q-291 0 -445.5 142t-154.5 406v881h295v-858q0 -167 79.5 -253.5t233.5 -86.5q158 0 243 90.5t85 259.5v848h295v-866q0 -268 -165.5 -415.5t-465.5 -147.5zM867 1530v219h197v-219h-197zM413 1530v219h194v-219h-194z" />
    <glyph glyph-name="aacute" unicode="&#xe1;" horiz-adv-x="1139" 
d="M385 -20q-157 0 -245 85.5t-88 240.5q0 168 109.5 256t317.5 90l233 4v55q0 106 -37 157.5t-121 51.5q-78 0 -114.5 -35.5t-45.5 -117.5l-293 14q27 158 144.5 239.5t320.5 81.5q205 0 316 -101t111 -287v-394q0 -91 20.5 -125.5t68.5 -34.5q32 0 62 6v-152
q-25 -6 -45 -11t-40 -8t-42.5 -5t-52.5 -2q-106 0 -156.5 52t-60.5 153h-6q-118 -213 -356 -213zM712 501l-144 -2q-98 -4 -139 -21.5t-62.5 -53.5t-21.5 -96q0 -77 35.5 -114.5t94.5 -37.5q66 0 120.5 36t85.5 99.5t31 134.5v55zM375 1183v31l252 288h258v-43l-340 -276
h-170z" />
    <glyph glyph-name="agrave" unicode="&#xe0;" horiz-adv-x="1139" 
d="M385 -20q-157 0 -245 85.5t-88 240.5q0 168 109.5 256t317.5 90l233 4v55q0 106 -37 157.5t-121 51.5q-78 0 -114.5 -35.5t-45.5 -117.5l-293 14q27 158 144.5 239.5t320.5 81.5q205 0 316 -101t111 -287v-394q0 -91 20.5 -125.5t68.5 -34.5q32 0 62 6v-152
q-25 -6 -45 -11t-40 -8t-42.5 -5t-52.5 -2q-106 0 -156.5 52t-60.5 153h-6q-118 -213 -356 -213zM712 501l-144 -2q-98 -4 -139 -21.5t-62.5 -53.5t-21.5 -96q0 -77 35.5 -114.5t94.5 -37.5q66 0 120.5 36t85.5 99.5t31 134.5v55zM580 1183l-340 276v43h258l251 -288v-31
h-169z" />
    <glyph glyph-name="acircumflex" unicode="&#xe2;" horiz-adv-x="1139" 
d="M385 -20q-157 0 -245 85.5t-88 240.5q0 168 109.5 256t317.5 90l233 4v55q0 106 -37 157.5t-121 51.5q-78 0 -114.5 -35.5t-45.5 -117.5l-293 14q27 158 144.5 239.5t320.5 81.5q205 0 316 -101t111 -287v-394q0 -91 20.5 -125.5t68.5 -34.5q32 0 62 6v-152
q-25 -6 -45 -11t-40 -8t-42.5 -5t-52.5 -2q-106 0 -156.5 52t-60.5 153h-6q-118 -213 -356 -213zM712 501l-144 -2q-98 -4 -139 -21.5t-62.5 -53.5t-21.5 -96q0 -77 35.5 -114.5t94.5 -37.5q66 0 120.5 36t85.5 99.5t31 134.5v55zM936 1211v-28h-159l-203 192h-4l-211 -192
h-160v28l258 318h229z" />
    <glyph glyph-name="adieresis" unicode="&#xe4;" horiz-adv-x="1139" 
d="M385 -20q-157 0 -245 85.5t-88 240.5q0 168 109.5 256t317.5 90l233 4v55q0 106 -37 157.5t-121 51.5q-78 0 -114.5 -35.5t-45.5 -117.5l-293 14q27 158 144.5 239.5t320.5 81.5q205 0 316 -101t111 -287v-394q0 -91 20.5 -125.5t68.5 -34.5q32 0 62 6v-152
q-25 -6 -45 -11t-40 -8t-42.5 -5t-52.5 -2q-106 0 -156.5 52t-60.5 153h-6q-118 -213 -356 -213zM712 501l-144 -2q-98 -4 -139 -21.5t-62.5 -53.5t-21.5 -96q0 -77 35.5 -114.5t94.5 -37.5q66 0 120.5 36t85.5 99.5t31 134.5v55zM665 1199v219h217v-219h-217zM231 1199v219
h214v-219h-214z" />
    <glyph glyph-name="atilde" unicode="&#xe3;" horiz-adv-x="1139" 
d="M385 -20q-157 0 -245 85.5t-88 240.5q0 168 109.5 256t317.5 90l233 4v55q0 106 -37 157.5t-121 51.5q-78 0 -114.5 -35.5t-45.5 -117.5l-293 14q27 158 144.5 239.5t320.5 81.5q205 0 316 -101t111 -287v-394q0 -91 20.5 -125.5t68.5 -34.5q32 0 62 6v-152
q-25 -6 -45 -11t-40 -8t-42.5 -5t-52.5 -2q-106 0 -156.5 52t-60.5 153h-6q-118 -213 -356 -213zM712 501l-144 -2q-98 -4 -139 -21.5t-62.5 -53.5t-21.5 -96q0 -77 35.5 -114.5t94.5 -37.5q66 0 120.5 36t85.5 99.5t31 134.5v55zM719 1183q-44 0 -88.5 19t-86.5 42.5
t-79.5 42.5t-67.5 19q-41 0 -62.5 -23t-35.5 -100h-137q8 113 32.5 169.5t70.5 90t122 33.5q45 0 90 -19t87 -42.5t78.5 -42.5t65.5 -19q40 0 62.5 24.5t36.5 98.5h135q-7 -157 -63.5 -225t-159.5 -68z" />
    <glyph glyph-name="aring" unicode="&#xe5;" horiz-adv-x="1139" 
d="M385 -20q-157 0 -245 85.5t-88 240.5q0 168 109.5 256t317.5 90l233 4v55q0 106 -37 157.5t-121 51.5q-78 0 -114.5 -35.5t-45.5 -117.5l-293 14q27 158 144.5 239.5t320.5 81.5q205 0 316 -101t111 -287v-394q0 -91 20.5 -125.5t68.5 -34.5q32 0 62 6v-152
q-25 -6 -45 -11t-40 -8t-42.5 -5t-52.5 -2q-106 0 -156.5 52t-60.5 153h-6q-118 -213 -356 -213zM712 501l-144 -2q-98 -4 -139 -21.5t-62.5 -53.5t-21.5 -96q0 -77 35.5 -114.5t94.5 -37.5q66 0 120.5 36t85.5 99.5t31 134.5v55zM813 1431q0 -105 -73.5 -179.5
t-180.5 -74.5t-180.5 74.5t-73.5 179.5t74.5 179.5t179.5 74.5t179.5 -74.5t74.5 -179.5zM686 1431q0 51 -36.5 88t-90.5 37q-51 0 -88 -36t-37 -89q0 -56 37 -92t88 -36q53 0 90 37t37 91z" />
    <glyph glyph-name="ccedilla" unicode="&#xe7;" horiz-adv-x="1139" 
d="M594 -20q-246 0 -380 146.5t-134 408.5q0 268 135 417.5t383 149.5q191 0 316 -96t157 -265l-283 -14q-12 83 -60 132.5t-136 49.5q-217 0 -217 -363q0 -374 221 -374q80 0 134 50.5t67 150.5l282 -13q-15 -111 -79.5 -198t-169.5 -134.5t-236 -47.5zM791 -235
q0 -94 -78 -142t-225 -48q-45 0 -101 6v118q35 -7 84 -7q137 0 137 69q0 35 -28 52t-94 17q-38 0 -52 -2l62 172h143l-33 -82q94 -5 139.5 -46t45.5 -107z" />
    <glyph glyph-name="eacute" unicode="&#xe9;" horiz-adv-x="1139" 
d="M586 -20q-244 0 -375 144.5t-131 421.5q0 268 133 412t377 144q233 0 356 -154.5t123 -452.5v-8h-694q0 -158 58.5 -238.5t166.5 -80.5q149 0 188 129l265 -23q-115 -294 -467 -294zM586 925q-99 0 -152.5 -69t-56.5 -193h420q-8 131 -63 196.5t-148 65.5zM418 1183v31
l252 288h258v-43l-340 -276h-170z" />
    <glyph glyph-name="egrave" unicode="&#xe8;" horiz-adv-x="1139" 
d="M586 -20q-244 0 -375 144.5t-131 421.5q0 268 133 412t377 144q233 0 356 -154.5t123 -452.5v-8h-694q0 -158 58.5 -238.5t166.5 -80.5q149 0 188 129l265 -23q-115 -294 -467 -294zM586 925q-99 0 -152.5 -69t-56.5 -193h420q-8 131 -63 196.5t-148 65.5zM627 1183
l-340 276v43h258l251 -288v-31h-169z" />
    <glyph glyph-name="ecircumflex" unicode="&#xea;" horiz-adv-x="1139" 
d="M586 -20q-244 0 -375 144.5t-131 421.5q0 268 133 412t377 144q233 0 356 -154.5t123 -452.5v-8h-694q0 -158 58.5 -238.5t166.5 -80.5q149 0 188 129l265 -23q-115 -294 -467 -294zM586 925q-99 0 -152.5 -69t-56.5 -193h420q-8 131 -63 196.5t-148 65.5zM960 1211v-28
h-159l-203 192h-4l-211 -192h-160v28l258 318h229z" />
    <glyph glyph-name="edieresis" unicode="&#xeb;" horiz-adv-x="1139" 
d="M586 -20q-244 0 -375 144.5t-131 421.5q0 268 133 412t377 144q233 0 356 -154.5t123 -452.5v-8h-694q0 -158 58.5 -238.5t166.5 -80.5q149 0 188 129l265 -23q-115 -294 -467 -294zM586 925q-99 0 -152.5 -69t-56.5 -193h420q-8 131 -63 196.5t-148 65.5zM694 1199v219
h217v-219h-217zM260 1199v219h214v-219h-214z" />
    <glyph glyph-name="iacute" unicode="&#xed;" horiz-adv-x="569" 
d="M145 0v1082h281v-1082h-281zM114 1183v31l252 288h258v-43l-340 -276h-170z" />
    <glyph glyph-name="igrave" unicode="&#xec;" horiz-adv-x="569" 
d="M145 0v1082h281v-1082h-281zM276 1183l-340 276v43h258l251 -288v-31h-169z" />
    <glyph glyph-name="icircumflex" unicode="&#xee;" horiz-adv-x="569" 
d="M145 0v1082h281v-1082h-281zM654 1211v-28h-159l-203 192h-4l-211 -192h-160v28l258 318h229z" />
    <glyph glyph-name="idieresis" unicode="&#xef;" horiz-adv-x="569" 
d="M145 0v1082h281v-1082h-281zM394 1199v219h217v-219h-217zM-40 1199v219h214v-219h-214z" />
    <glyph glyph-name="ntilde" unicode="&#xf1;" 
d="M844 0v607q0 285 -193 285q-102 0 -164.5 -87.5t-62.5 -224.5v-580h-281v840q0 87 -2.5 142.5t-5.5 99.5h268q3 -19 8 -101.5t5 -113.5h4q57 124 143 180t205 56q172 0 264 -106t92 -310v-687h-280zM809 1183q-44 0 -88.5 19t-86.5 42.5t-79.5 42.5t-67.5 19
q-41 0 -62.5 -23t-35.5 -100h-137q8 113 32.5 169.5t70.5 90t122 33.5q45 0 90 -19t87 -42.5t78.5 -42.5t65.5 -19q40 0 62.5 24.5t36.5 98.5h135q-7 -157 -63.5 -225t-159.5 -68z" />
    <glyph glyph-name="oacute" unicode="&#xf3;" 
d="M1171 542q0 -263 -146 -412.5t-404 -149.5q-253 0 -397 150t-144 412q0 261 144 410.5t403 149.5q265 0 404.5 -144.5t139.5 -415.5zM877 542q0 193 -63 280t-183 87q-256 0 -256 -367q0 -181 62.5 -275.5t180.5 -94.5q259 0 259 370zM465 1183v31l252 288h258v-43
l-340 -276h-170z" />
    <glyph glyph-name="ograve" unicode="&#xf2;" 
d="M1171 542q0 -263 -146 -412.5t-404 -149.5q-253 0 -397 150t-144 412q0 261 144 410.5t403 149.5q265 0 404.5 -144.5t139.5 -415.5zM877 542q0 193 -63 280t-183 87q-256 0 -256 -367q0 -181 62.5 -275.5t180.5 -94.5q259 0 259 370zM668 1183l-340 276v43h258l251 -288
v-31h-169z" />
    <glyph glyph-name="ocircumflex" unicode="&#xf4;" 
d="M1171 542q0 -263 -146 -412.5t-404 -149.5q-253 0 -397 150t-144 412q0 261 144 410.5t403 149.5q265 0 404.5 -144.5t139.5 -415.5zM877 542q0 193 -63 280t-183 87q-256 0 -256 -367q0 -181 62.5 -275.5t180.5 -94.5q259 0 259 370zM993 1211v-28h-159l-203 192h-4
l-211 -192h-160v28l258 318h229z" />
    <glyph glyph-name="odieresis" unicode="&#xf6;" 
d="M1171 542q0 -263 -146 -412.5t-404 -149.5q-253 0 -397 150t-144 412q0 261 144 410.5t403 149.5q265 0 404.5 -144.5t139.5 -415.5zM877 542q0 193 -63 280t-183 87q-256 0 -256 -367q0 -181 62.5 -275.5t180.5 -94.5q259 0 259 370zM734 1199v219h217v-219h-217z
M300 1199v219h214v-219h-214z" />
    <glyph glyph-name="otilde" unicode="&#xf5;" 
d="M1171 542q0 -263 -146 -412.5t-404 -149.5q-253 0 -397 150t-144 412q0 261 144 410.5t403 149.5q265 0 404.5 -144.5t139.5 -415.5zM877 542q0 193 -63 280t-183 87q-256 0 -256 -367q0 -181 62.5 -275.5t180.5 -94.5q259 0 259 370zM791 1183q-44 0 -88.5 19
t-86.5 42.5t-79.5 42.5t-67.5 19q-41 0 -62.5 -23t-35.5 -100h-137q8 113 32.5 169.5t70.5 90t122 33.5q45 0 90 -19t87 -42.5t78.5 -42.5t65.5 -19q40 0 62.5 24.5t36.5 98.5h135q-7 -157 -63.5 -225t-159.5 -68z" />
    <glyph glyph-name="uacute" unicode="&#xfa;" 
d="M408 1082v-607q0 -285 192 -285q102 0 164.5 87.5t62.5 224.5v580h281v-840q0 -138 8 -242h-268q-12 144 -12 215h-5q-56 -123 -142.5 -179t-205.5 -56q-172 0 -264 105.5t-92 309.5v687h281zM463 1183v31l252 288h258v-43l-340 -276h-170z" />
    <glyph glyph-name="ugrave" unicode="&#xf9;" 
d="M408 1082v-607q0 -285 192 -285q102 0 164.5 87.5t62.5 224.5v580h281v-840q0 -138 8 -242h-268q-12 144 -12 215h-5q-56 -123 -142.5 -179t-205.5 -56q-172 0 -264 105.5t-92 309.5v687h281zM623 1183l-340 276v43h258l251 -288v-31h-169z" />
    <glyph glyph-name="ucircumflex" unicode="&#xfb;" 
d="M408 1082v-607q0 -285 192 -285q102 0 164.5 87.5t62.5 224.5v580h281v-840q0 -138 8 -242h-268q-12 144 -12 215h-5q-56 -123 -142.5 -179t-205.5 -56q-172 0 -264 105.5t-92 309.5v687h281zM989 1211v-28h-159l-203 192h-4l-211 -192h-160v28l258 318h229z" />
    <glyph glyph-name="udieresis" unicode="&#xfc;" 
d="M408 1082v-607q0 -285 192 -285q102 0 164.5 87.5t62.5 224.5v580h281v-840q0 -138 8 -242h-268q-12 144 -12 215h-5q-56 -123 -142.5 -179t-205.5 -56q-172 0 -264 105.5t-92 309.5v687h281zM732 1199v219h217v-219h-217zM298 1199v219h214v-219h-214z" />
    <glyph glyph-name="dagger" unicode="&#x2020;" horiz-adv-x="1139" 
d="M669 960l-22 -1098h-155l-22 1098l-332 -27v204l332 -29l-28 376h255l-28 -376l333 29v-204z" />
    <glyph glyph-name="degree" unicode="&#xb0;" horiz-adv-x="819" 
d="M731 1110q0 -130 -93.5 -222.5t-227.5 -92.5q-132 0 -226 91t-94 224q0 86 42.5 159t116 114.5t161.5 41.5q135 0 228 -92.5t93 -222.5zM573 1110q0 70 -46.5 118t-116.5 48q-71 0 -118.5 -48.5t-47.5 -117.5t49 -118.5t117 -49.5q67 0 115 49t48 119z" />
    <glyph glyph-name="cent" unicode="&#xa2;" horiz-adv-x="1139" 
d="M588 340q88 0 147.5 54.5t73.5 154.5l283 -12q-22 -153 -134 -254.5t-290 -122.5v-191h-162v189q-215 21 -335 157t-120 371q0 232 117.5 373t337.5 166v184h162v-184q169 -19 278 -112.5t137 -244.5l-282 -14q-15 91 -71 140.5t-144 49.5q-124 0 -188 -92t-64 -256
q0 -174 66.5 -265t187.5 -91z" />
    <glyph glyph-name="sterling" unicode="&#xa3;" horiz-adv-x="1139" 
d="M1118 363q-31 -172 -136 -267.5t-256 -95.5h-694v205q102 58 139.5 130t37.5 177v92h-188v170h178v248q0 201 107 304.5t319 103.5q169 0 266 -69t141 -222l-233 -47q-21 77 -62 112t-107 35q-91 0 -131 -57.5t-40 -182.5v-225h286v-170h-286v-90q0 -103 -41 -176
t-141 -129h380q104 0 157.5 49.5t70.5 143.5z" />
    <glyph glyph-name="section" unicode="&#xa7;" horiz-adv-x="1139" 
d="M575 1427q194 0 311.5 -70.5t144.5 -203.5l-239 -25q-13 62 -70 95.5t-147 33.5q-112 0 -164.5 -29.5t-52.5 -94.5q0 -41 27 -69.5t76.5 -50t180.5 -50.5q168 -38 248.5 -79t123 -102t42.5 -148q0 -93 -55 -164.5t-142 -98.5q181 -79 181 -256q0 -167 -125.5 -255.5
t-358.5 -88.5q-223 0 -343.5 69.5t-159.5 218.5l237 37q20 -80 81.5 -117.5t184.5 -37.5q122 0 185 32.5t63 112.5q0 48 -24 78t-75.5 52.5t-236.5 66.5q-206 49 -291.5 127t-85.5 190q0 93 55 157t158 99q-90 38 -139 106t-49 152q0 149 117.5 231t341.5 82zM818 600
q0 71 -59.5 109t-232.5 71q-193 -23 -193 -153q0 -41 27 -68.5t77 -48.5t186 -52q195 10 195 142z" />
    <glyph glyph-name="bullet" unicode="&#x2022;" horiz-adv-x="717" 
d="M651 676q0 -121 -87 -208t-208 -87q-119 0 -205 86.5t-86 208.5t85.5 207.5t205.5 85.5q122 0 208.5 -85.5t86.5 -207.5z" />
    <glyph glyph-name="paragraph" unicode="&#xb6;" horiz-adv-x="1139" 
d="M940 1266v-1530h-156v1530h-195v-1530h-155v958q-169 0 -266 92.5t-97 262.5q0 169 98.5 264.5t272.5 95.5h629v-143h-131z" />
    <glyph glyph-name="germandbls" unicode="&#xdf;" 
d="M1193 312q0 -162 -100.5 -247t-286.5 -85q-146 0 -262 43v206q50 -23 117.5 -41t114.5 -18q81 0 118 34.5t37 91.5q0 52 -38 96.5t-131 105.5q-169 109 -169 262q0 54 27.5 101t84.5 97q61 54 86 94.5t25 85.5q0 65 -46.5 104t-134.5 39q-103 0 -157 -63.5t-54 -204.5
v-1013h-281v1007q0 234 127.5 355.5t367.5 121.5q206 0 325 -90t119 -245q0 -54 -16.5 -96.5t-41.5 -76.5t-54.5 -61t-54.5 -49.5t-41.5 -43t-16.5 -40.5q0 -25 20.5 -47.5t147.5 -116.5q168 -125 168 -306z" />
    <glyph glyph-name="registered" unicode="&#xae;" horiz-adv-x="1509" 
d="M1478 707q0 -193 -96.5 -361.5t-265 -265t-361.5 -96.5q-197 0 -366.5 100.5t-263 267t-93.5 355.5q0 193 97 361t265 265t361 97q194 0 362.5 -97.5t264.5 -264.5t96 -361zM1366 707q0 163 -82 303.5t-224 222.5t-305 82q-157 0 -297 -78t-225.5 -219.5t-85.5 -310.5
q0 -163 81.5 -305t222 -224t304.5 -82t306 82t223.5 224t81.5 305zM923 297l-178 313h-117v-313h-178v815h330q153 0 229 -64.5t76 -177.5q0 -94 -48 -153t-126 -84l213 -336h-201zM905 868q0 57 -37.5 87t-106.5 30h-133v-246h144q66 0 99.5 35.5t33.5 93.5z" />
    <glyph glyph-name="copyright" unicode="&#xa9;" horiz-adv-x="1509" 
d="M1478 707q0 -193 -96.5 -361.5t-265 -265t-361.5 -96.5q-197 0 -366.5 100.5t-263 267t-93.5 355.5q0 193 97 361t265 265t361 97q194 0 362.5 -97.5t264.5 -264.5t96 -361zM1366 707q0 163 -82 303.5t-224 222.5t-305 82q-157 0 -297 -78t-225.5 -219.5t-85.5 -310.5
q0 -163 81.5 -305t222 -224t304.5 -82t306 82t223.5 224t81.5 305zM544 709q0 -135 59 -209t165 -74q66 0 117 37t79 106l160 -47q-58 -125 -145 -181t-211 -56q-193 0 -298.5 111t-105.5 313q0 203 102 309t293 106q130 0 217.5 -56t135.5 -173l-156 -41q-26 61 -74.5 95
t-117.5 34q-109 0 -164.5 -70t-55.5 -204z" />
    <glyph glyph-name="trademark" unicode="&#x2122;" horiz-adv-x="2048" 
d="M1059 768h-166v641h248l139 -301q22 -49 65 -160l64 160l144 301h243v-641h-165v340q0 16 8 172l-30 -75l-46 -109l-154 -328h-131l-149 328l-77 184q7 -143 7 -172v-340zM548 1270v-502h-180v502h-243v139h674v-139h-251z" />
    <glyph glyph-name="acute" unicode="&#xb4;" horiz-adv-x="682" 
d="M87 1183v31l252 288h258v-43l-340 -276h-170z" />
    <glyph glyph-name="dieresis" unicode="&#xa8;" horiz-adv-x="682" 
d="M450 1199v219h217v-219h-217zM16 1199v219h214v-219h-214z" />
    <glyph glyph-name="notequal" unicode="&#x2260;" horiz-adv-x="1124" 
d="M461 291l-129 -254h-213l129 254h-219v221h327l166 330h-493v223h602l133 258h211l-131 -258h252v-223h-361l-166 -330h527v-221h-635z" />
    <glyph glyph-name="AE" unicode="&#xc6;" horiz-adv-x="2048" 
d="M931 0v360h-450l-172 -360h-305l700 1409h1223v-227h-701v-355h639v-221h-639v-379h742v-227h-1037zM931 1192h-61q-49 -111 -287 -610h348v610z" />
    <glyph glyph-name="Oslash" unicode="&#xd8;" horiz-adv-x="1593" 
d="M147 -73l154 218q-217 197 -217 566q0 339 188 529t523 190q198 0 354 -74l82 117h193l-142 -203q112 -94 169 -236.5t57 -322.5q0 -220 -87 -387t-248.5 -255.5t-379.5 -88.5q-212 0 -360 77l-91 -129zM1207 711q0 203 -86 327l-541 -772q91 -55 213 -55
q199 0 306.5 130.5t107.5 369.5zM381 711q0 -205 84 -332l539 768q-92 51 -209 51q-198 0 -306 -128.5t-108 -358.5z" />
    <glyph glyph-name="infinity" unicode="&#x221e;" horiz-adv-x="1460" 
d="M1389 583q0 -155 -93 -261t-230 -106q-214 0 -336 239q-131 -229 -333 -229q-145 0 -235 102.5t-90 268.5q0 159 92.5 263t232.5 104q103 0 185.5 -55.5t147.5 -183.5q127 230 324 230q152 0 243.5 -101.5t91.5 -270.5zM1042 782q-120 0 -214 -197q44 -94 93.5 -145
t119.5 -51q69 0 113.5 55t44.5 141q0 88 -43 142.5t-114 54.5zM631 595q-53 113 -98 155.5t-105 42.5q-71 0 -118.5 -55.5t-47.5 -142.5q0 -84 45 -139.5t122 -55.5q59 0 107 47.5t95 147.5z" />
    <glyph glyph-name="plusminus" unicode="&#xb1;" horiz-adv-x="1124" 
d="M674 707v-341h-224v341h-401v223h401v340h224v-340h402v-223h-402zM49 0v223h1027v-223h-1027z" />
    <glyph glyph-name="lessequal" unicode="&#x2264;" horiz-adv-x="1124" 
d="M49 631v321l1026 346v-227l-832 -280l832 -279v-227zM49 0v223h1024v-223h-1024z" />
    <glyph glyph-name="greaterequal" unicode="&#x2265;" horiz-adv-x="1124" 
d="M49 285v227l831 279l-831 280v227l1026 -346v-321zM49 0v223h1026v-223h-1026z" />
    <glyph glyph-name="yen" unicode="&#xa5;" horiz-adv-x="1139" 
d="M766 691h276v-146h-338v-162h338v-147h-338v-236h-272v236h-336v147h336l2 162h-338v146h276l-364 718h289l270 -596l274 596h289z" />
    <glyph glyph-name="mu1" unicode="&#xb5;" horiz-adv-x="1180" 
d="M789 0q-13 100 -13 144h-3q-33 -86 -78 -125t-124 -39q-52 0 -92.5 24t-63.5 66h-4q4 -43 4 -115v-381h-281v1508h281v-605q0 -150 42.5 -217t132.5 -67q89 0 133.5 76t44.5 235v578h281v-840q0 -130 8 -242h-268z" />
    <glyph glyph-name="partialdiff" unicode="&#x2202;" horiz-adv-x="1012" 
d="M945 907q0 -200 -39.5 -380t-111 -303t-172.5 -186t-229 -63q-163 0 -251.5 102t-88.5 294q0 162 59.5 311.5t155 225t216.5 75.5q76 0 137 -43t92 -119h4q1 64 1 90q0 173 -53 268t-164 95q-53 0 -112.5 -20t-96.5 -48l45 205q97 57 212 57q188 0 292 -144.5t104 -416.5
zM685 645q-15 75 -58 121.5t-98 46.5q-64 0 -118 -58.5t-87.5 -166.5t-33.5 -213q0 -97 35.5 -151t97.5 -54q94 0 167 139t95 336z" />
    <glyph glyph-name="summation" unicode="&#x2211;" horiz-adv-x="1460" 
d="M134 -455v160l606 776l-586 776v152h1137v-227h-766l528 -697l-548 -712h843v-228h-1214z" />
    <glyph glyph-name="product" unicode="&#x220f;" horiz-adv-x="1686" 
d="M1200 -455v1620h-701v-1620h-295v1864h1278v-1864h-282z" />
    <glyph glyph-name="integral" unicode="&#x222b;" horiz-adv-x="561" 
d="M26 -455q-43 0 -89 7t-66 14v217q66 -25 119 -25q155 0 155 197v1151q0 180 106 280.5t296 100.5q88 0 155 -19v-219q-50 25 -119 25q-77 0 -117 -50.5t-40 -144.5v-1153q0 -182 -105.5 -281.5t-294.5 -99.5z" />
    <glyph glyph-name="ordfeminine" unicode="&#xaa;" horiz-adv-x="758" 
d="M257 725q-97 0 -154.5 52.5t-57.5 149.5q0 206 284 211l147 2v42q0 119 -104 119q-102 0 -112 -94l-190 9q18 98 96.5 150.5t204.5 52.5q138 0 212.5 -61t74.5 -174v-237q0 -48 9 -72.5t42 -24.5l49 5v-109q-65 -18 -119 -18q-71 0 -111.5 36.5t-45.5 97.5h-3
q-72 -137 -222 -137zM328 856q61 0 104.5 48t43.5 113v27l-92 -2q-88 -3 -119 -27t-31 -74q0 -85 94 -85z" />
    <glyph glyph-name="ordmasculine" unicode="&#xba;" horiz-adv-x="748" 
d="M713 1073q0 -162 -89.5 -255t-248.5 -93q-152 0 -241 92t-89 256q0 162 88 254t246 92q160 0 247 -89t87 -257zM513 1073q0 106 -29.5 154.5t-102.5 48.5t-105.5 -49.5t-32.5 -153.5q0 -106 32 -157t99 -51q75 0 107 50.5t32 157.5z" />
    <glyph glyph-name="Ohm" unicode="&#x2126;" horiz-adv-x="1573" 
d="M787 1430q315 0 494 -161t179 -441q0 -213 -102.5 -363.5t-308.5 -247.5q110 11 171 11h268v-228h-629v309q158 78 233.5 190t75.5 275q0 202 -99.5 313t-280.5 111q-180 0 -280 -110.5t-100 -313.5q0 -166 78.5 -277.5t234.5 -187.5v-309h-636v228h270q64 0 174 -11
q-209 96 -312.5 246.5t-103.5 365.5q0 281 179.5 441t494.5 160z" />
    <glyph glyph-name="ae" unicode="&#xe6;" horiz-adv-x="1821" 
d="M1253 -20q-310 0 -434 229q-133 -229 -413 -229q-161 0 -250.5 86t-89.5 240q0 166 111 253.5t329 92.5l240 4v55q0 108 -40 158.5t-128 50.5q-85 0 -123 -37t-47 -116l-293 14q26 157 144.5 239t326.5 82q217 0 333 -107q130 107 338 107q233 0 356 -154.5t123 -452.5
v-19h-694q0 -146 59 -227t166 -81q149 0 188 129l265 -23q-115 -294 -467 -294zM496 176q69 0 127 39t90.5 104t32.5 137v45l-152 -2q-104 -4 -147 -21.5t-65.5 -53.5t-22.5 -96q0 -77 37.5 -114.5t99.5 -37.5zM1253 925q-99 0 -152.5 -69t-56.5 -193h420q-8 131 -63 196.5
t-148 65.5z" />
    <glyph glyph-name="oslash" unicode="&#xf8;" 
d="M1171 542q0 -263 -146 -412.5t-404 -149.5q-192 0 -324 89l-113 -124h-183l197 215q-118 146 -118 382q0 261 144 410.5t403 149.5q199 0 330 -83l101 114h184l-184 -206q113 -142 113 -385zM375 542q0 -92 17 -163l407 461q-60 69 -168 69q-256 0 -256 -367zM877 542
q0 94 -16 162l-407 -460q62 -72 164 -72q259 0 259 370z" />
    <glyph glyph-name="questiondown" unicode="&#xbf;" 
d="M114 56q0 97 43.5 174t162.5 162l77 55q67 49 100.5 99t36.5 110h267q-6 -102 -58 -182.5t-151 -148.5q-107 -75 -151 -131t-44 -126q0 -88 57.5 -139t163.5 -51q101 0 169.5 59t80.5 156l285 -12q-27 -203 -167 -316t-364 -113q-237 0 -372.5 107.5t-135.5 296.5z
M809 1082v-270h-289v270h289z" />
    <glyph glyph-name="exclamdown" unicode="&#xa1;" horiz-adv-x="682" 
d="M200 812v270h288v-270h-288zM194 -327l32 981h230l32 -981h-294z" />
    <glyph glyph-name="logicalnot" unicode="&#xac;" horiz-adv-x="1196" 
d="M887 141v428h-803v224h1027v-652h-224z" />
    <glyph glyph-name="radical" unicode="&#x221a;" horiz-adv-x="1124" 
d="M624 -25h-168l-270 754h-184v166h311l219 -635l412 1360h186z" />
    <glyph glyph-name="florin" unicode="&#x192;" horiz-adv-x="1139" 
d="M993 1247q-16 5 -48 11t-54 6q-65 0 -93.5 -33t-40.5 -94l-20 -107h212l-36 -190h-213l-251 -1265h-281l251 1265h-158l37 190h158l27 135q26 147 117 218t251 71q42 0 95 -8.5t87 -21.5z" />
    <glyph glyph-name="approxequal" unicode="&#x2248;" horiz-adv-x="1124" 
d="M814 756q-75 0 -147.5 20.5t-147.5 46.5q-132 47 -221 47q-67 0 -126 -19.5t-129 -68.5v213q110 84 271 84q53 0 115 -12.5t204 -60.5q121 -43 200 -43q134 0 248 92v-219q-63 -45 -123 -62.5t-144 -17.5zM814 274q-75 0 -147.5 22t-147.5 48q-129 45 -221 45
q-71 0 -130.5 -21.5t-124.5 -66.5v213q113 84 271 84q83 0 163 -23t156 -49q102 -32 137 -38.5t63 -6.5q134 0 248 92v-219q-64 -44 -122.5 -62t-144.5 -18z" />
    <glyph glyph-name="uni2206" unicode="&#x2206;" horiz-adv-x="1253" 
d="M43 0v215l397 1194h368l401 -1194v-215h-1166zM624 1208l-9 -34l-72 -254l-207 -689h580q-289 962 -292 977z" />
    <glyph glyph-name="guillemotleft" unicode="&#xab;" horiz-adv-x="1139" 
d="M807 141l-256 361v71l256 367h238v-37l-254 -366l256 -361v-35h-240zM350 141l-258 361v71l258 367h236v-37l-254 -366l256 -361v-35h-238z" />
    <glyph glyph-name="guillemotright" unicode="&#xbb;" horiz-adv-x="1139" 
d="M93 141v35l256 361l-254 366v37h238l256 -367v-71l-256 -361h-240zM552 141v35l256 361l-254 366v37h236l258 -367v-71l-258 -361h-238z" />
    <glyph glyph-name="ellipsis" unicode="&#x2026;" horiz-adv-x="2048" 
d="M1528 0v305h288v-305h-288zM880 0v305h286v-305h-286zM225 0v305h288v-305h-288z" />
    <glyph glyph-name="Agrave" unicode="&#xc0;" horiz-adv-x="1479" 
d="M1133 0l-125 360h-537l-125 -360h-295l514 1409h348l512 -1409h-292zM739 1192l-6 -22q-10 -36 -24 -82t-172 -506h405l-139 405l-43 136zM769 1530l-340 242v43h258l251 -254v-31h-169z" />
    <glyph glyph-name="Atilde" unicode="&#xc3;" horiz-adv-x="1479" 
d="M1133 0l-125 360h-537l-125 -360h-295l514 1409h348l512 -1409h-292zM739 1192l-6 -22q-10 -36 -24 -82t-172 -506h405l-139 405l-43 136zM905 1530q-44 0 -88.5 19t-86.5 42.5t-79.5 42.5t-67.5 19q-41 0 -62.5 -23t-35.5 -100h-137q8 113 32.5 169.5t70.5 90t122 33.5
q45 0 90 -19t87 -42.5t78.5 -42.5t65.5 -19q40 0 62.5 24.5t36.5 98.5h135q-7 -157 -63.5 -225t-159.5 -68z" />
    <glyph glyph-name="Otilde" unicode="&#xd5;" horiz-adv-x="1593" 
d="M1507 711q0 -220 -87 -387t-249 -255.5t-378 -88.5q-332 0 -520.5 195.5t-188.5 535.5q0 339 188 529t523 190t523.5 -192t188.5 -527zM1206 711q0 228 -108 357.5t-303 129.5q-198 0 -306 -128.5t-108 -358.5q0 -232 110.5 -365.5t301.5 -133.5q198 0 305.5 130
t107.5 369zM954 1530q-44 0 -88.5 19t-86.5 42.5t-79.5 42.5t-67.5 19q-41 0 -62.5 -23t-35.5 -100h-137q8 113 32.5 169.5t70.5 90t122 33.5q45 0 90 -19t87 -42.5t78.5 -42.5t65.5 -19q40 0 62.5 24.5t36.5 98.5h135q-7 -157 -63.5 -225t-159.5 -68z" />
    <glyph glyph-name="OE" unicode="&#x152;" horiz-adv-x="2048" 
d="M992 0q-38 -2 -91.5 -6t-107.5 -4q-334 0 -521.5 191.5t-187.5 529.5t187.5 523.5t523.5 185.5q71 0 203 -11h929v-227h-667v-355h606v-221h-606v-379h708v-227h-976zM963 1169q-71 19 -168 19q-200 0 -307 -124.5t-107 -352.5q0 -229 109.5 -359t302.5 -130
q116 0 170 20v927z" />
    <glyph glyph-name="oe" unicode="&#x153;" horiz-adv-x="1933" 
d="M1384 -20q-238 0 -369 159q-144 -159 -394 -159q-253 0 -397 150t-144 412q0 261 144 410.5t403 149.5q256 0 394 -153q134 153 367 153t356 -154.5t123 -452.5v-19h-694q0 -146 59 -227t166 -81q149 0 188 129l265 -23q-115 -294 -467 -294zM877 542q0 193 -63 280
t-183 87q-256 0 -256 -367q0 -181 62.5 -275.5t180.5 -94.5q259 0 259 370zM1384 925q-99 0 -152.5 -69t-56.5 -193h420q-8 131 -63 196.5t-148 65.5z" />
    <glyph glyph-name="endash" unicode="&#x2013;" horiz-adv-x="1139" 
d="M62 448v203h1014v-203h-1014z" />
    <glyph glyph-name="emdash" unicode="&#x2014;" horiz-adv-x="2048" 
d="M0 448v203h2048v-203h-2048z" />
    <glyph glyph-name="quotedblleft" unicode="&#x201c;" horiz-adv-x="1024" 
d="M579 831v195q0 124 27 215t84 168h182q-62 -78 -96.5 -161.5t-34.5 -155.5h127v-261h-289zM151 831v195q0 121 26 213.5t82 169.5h183q-62 -78 -96.5 -161.5t-34.5 -155.5h127v-261h-287z" />
    <glyph glyph-name="quotedblright" unicode="&#x201d;" horiz-adv-x="1024" 
d="M872 1217q0 -121 -25.5 -213.5t-83.5 -172.5h-184q133 168 133 318h-127v260h287v-192zM442 1217q0 -125 -25 -214.5t-84 -171.5h-182q131 168 131 318h-127v260h287v-192z" />
    <glyph glyph-name="quoteleft" unicode="&#x2018;" horiz-adv-x="569" 
d="M139 831v195q0 121 26 213.5t82 169.5h183q-62 -78 -96.5 -161.5t-34.5 -155.5h127v-261h-287z" />
    <glyph glyph-name="quoteright" unicode="&#x2019;" horiz-adv-x="569" 
d="M430 1214q0 -121 -24.5 -210t-84.5 -173h-182q131 168 131 318h-127v260h287v-195z" />
    <glyph glyph-name="divide" unicode="&#xf7;" horiz-adv-x="1124" 
d="M442 961v233h238v-233h-238zM49 569v224h1027v-224h-1027zM442 170v233h238v-233h-238z" />
    <glyph glyph-name="lozenge" unicode="&#x25ca;" horiz-adv-x="1012" 
d="M558 0h-104l-451 721l451 725h104l454 -723zM507 1204l-289 -481l289 -494l289 494z" />
    <glyph glyph-name="ydieresis" unicode="&#xff;" horiz-adv-x="1139" 
d="M283 -425q-101 0 -177 13v200q53 -8 97 -8q60 0 99.5 19t71 63t70.5 149l-428 1071h297l170 -507q40 -109 101 -334l25 95l65 235l160 511h294l-428 -1139q-86 -208 -178.5 -288t-238.5 -80zM691 1199v219h217v-219h-217zM257 1199v219h214v-219h-214z" />
    <glyph glyph-name="Ydieresis" unicode="&#x178;" horiz-adv-x="1366" 
d="M831 578v-578h-294v578l-502 831h309l338 -596l342 596h309zM807 1530v219h197v-219h-197zM353 1530v219h194v-219h-194z" />
    <glyph glyph-name="fraction" unicode="&#x2044;" horiz-adv-x="342" 
d="M-176 0h-201l895 1409h201z" />
    <glyph glyph-name="fraction" unicode="&#x2215;" horiz-adv-x="342" 
d="M-176 0h-201l895 1409h201z" />
    <glyph glyph-name="Euro" unicode="&#x20ac;" horiz-adv-x="1139" 
d="M658 199q72 0 115 46t53 128l277 -16q-31 -188 -145.5 -282.5t-303.5 -94.5q-226 0 -356 133t-159 397h-129l40 149h77l-2 51l2 56h-117l40 149h87q63 515 517 515q182 0 296 -94t143 -265l-280 -16q-10 74 -52 115t-116 41q-99 0 -151.5 -71t-67.5 -225h327l-29 -149
h-303l-2 -56l3 -51h340l-30 -149h-304q28 -311 230 -311z" />
    <glyph glyph-name="guilsinglleft" unicode="&#x2039;" horiz-adv-x="682" 
d="M350 141l-258 361v71l258 367h236v-37l-254 -366l256 -361v-35h-238z" />
    <glyph glyph-name="guilsinglright" unicode="&#x203a;" horiz-adv-x="682" 
d="M93 141v35l256 361l-254 366v37h238l256 -367v-71l-256 -361h-240z" />
    <glyph glyph-name="fi" unicode="&#xf001;" 
d="M825 1277v207h281v-207h-281zM825 0v1082h281v-1082h-281zM473 892v-892h-280v892h-158v190h158v113q0 147 78 218t237 71q79 0 178 -16v-181q-41 9 -82 9q-72 0 -101.5 -28.5t-29.5 -100.5v-85h213v-190h-213z" />
    <glyph glyph-name="fi" unicode="&#xfb01;" 
d="M825 1277v207h281v-207h-281zM825 0v1082h281v-1082h-281zM473 892v-892h-280v892h-158v190h158v113q0 147 78 218t237 71q79 0 178 -16v-181q-41 9 -82 9q-72 0 -101.5 -28.5t-29.5 -100.5v-85h213v-190h-213z" />
    <glyph glyph-name="fl" unicode="&#xf002;" 
d="M826 0v1484h280v-1484h-280zM473 892v-892h-280v892h-158v190h158v113q0 147 78 218t237 71q79 0 178 -16v-181q-41 9 -82 9q-72 0 -101.5 -28.5t-29.5 -100.5v-85h213v-190h-213z" />
    <glyph glyph-name="fl" unicode="&#xfb02;" 
d="M826 0v1484h280v-1484h-280zM473 892v-892h-280v892h-158v190h158v113q0 147 78 218t237 71q79 0 178 -16v-181q-41 9 -82 9q-72 0 -101.5 -28.5t-29.5 -100.5v-85h213v-190h-213z" />
    <glyph glyph-name="daggerdbl" unicode="&#x2021;" horiz-adv-x="1139" 
d="M478 980l-341 -27v204l341 -29l-16 356h215l-16 -356l341 29v-204l-341 27l-26 -310l26 -307l340 27v-204l-340 29l16 -356h-215l16 356l-342 -29v204l342 -27l26 307z" />
    <glyph glyph-name="periodcentered" unicode="&#x2219;" horiz-adv-x="569" 
d="M141 531v305h288v-305h-288z" />
    <glyph glyph-name="quotesinglbase" unicode="&#x201a;" horiz-adv-x="569" 
d="M431 66q0 -120 -25.5 -212t-82.5 -171h-185q63 76 98.5 160t35.5 157h-129v260h288v-194z" />
    <glyph glyph-name="quotedblbase" unicode="&#x201e;" horiz-adv-x="1024" 
d="M872 66q0 -120 -26 -212.5t-83 -170.5h-184q59 71 96 156t37 161h-127v260h287v-194zM442 66q0 -124 -25 -213.5t-84 -169.5h-182q62 78 96.5 161.5t34.5 155.5h-127v260h287v-194z" />
    <glyph glyph-name="perthousand" unicode="&#x2030;" horiz-adv-x="2048" 
d="M382 0h-197l812 1409h199zM331 1419q285 0 285 -358q0 -172 -73.5 -265.5t-215.5 -93.5q-141 0 -213.5 91.5t-72.5 267.5q0 182 70.5 270t219.5 88zM440 1061q0 124 -24.5 179t-84.5 55q-63 0 -89 -52t-26 -182q0 -124 25.5 -179t87.5 -55q59 0 85 53.5t26 180.5z
M1057 714q285 0 285 -358q0 -172 -73.5 -265.5t-215.5 -93.5q-141 0 -213.5 91.5t-72.5 267.5q0 182 70.5 270t219.5 88zM1166 356q0 124 -24.5 179t-84.5 55q-65 0 -90.5 -54t-25.5 -180q0 -124 25.5 -179t88.5 -55q59 0 85 53.5t26 180.5zM1722 714q285 0 285 -358
q0 -175 -73.5 -267t-215.5 -92q-141 0 -213.5 91.5t-72.5 267.5q0 182 70.5 270t219.5 88zM1831 356q0 124 -24.5 179t-84.5 55q-63 0 -89 -52t-26 -182q0 -124 25.5 -179t87.5 -55q59 0 85 53.5t26 180.5z" />
    <glyph glyph-name="Acircumflex" unicode="&#xc2;" horiz-adv-x="1479" 
d="M1133 0l-125 360h-537l-125 -360h-295l514 1409h348l512 -1409h-292zM739 1192l-6 -22q-10 -36 -24 -82t-172 -506h405l-139 405l-43 136zM1107 1559v-29h-159l-203 151h-4l-211 -151h-160v29l258 276h229z" />
    <glyph glyph-name="Ecircumflex" unicode="&#xca;" horiz-adv-x="1366" 
d="M137 0v1409h1108v-228h-813v-354h752v-228h-752v-371h854v-228h-1149zM1081 1559v-29h-159l-203 151h-4l-211 -151h-160v29l258 276h229z" />
    <glyph glyph-name="Aacute" unicode="&#xc1;" horiz-adv-x="1479" 
d="M1133 0l-125 360h-537l-125 -360h-295l514 1409h348l512 -1409h-292zM739 1192l-6 -22q-10 -36 -24 -82t-172 -506h405l-139 405l-43 136zM573 1530v31l252 254h258v-43l-340 -242h-170z" />
    <glyph glyph-name="Edieresis" unicode="&#xcb;" horiz-adv-x="1366" 
d="M137 0v1409h1108v-228h-813v-354h752v-228h-752v-371h854v-228h-1149zM840 1530v219h197v-219h-197zM386 1530v219h194v-219h-194z" />
    <glyph glyph-name="Egrave" unicode="&#xc8;" horiz-adv-x="1366" 
d="M137 0v1409h1108v-228h-813v-354h752v-228h-752v-371h854v-228h-1149zM736 1530l-340 242v43h258l251 -254v-31h-169z" />
    <glyph glyph-name="Iacute" unicode="&#xcd;" horiz-adv-x="569" 
d="M137 0v1409h295v-1409h-295zM104 1530v31l252 254h258v-43l-340 -242h-170z" />
    <glyph glyph-name="Icircumflex" unicode="&#xce;" horiz-adv-x="569" 
d="M137 0v1409h295v-1409h-295zM652 1559v-29h-159l-203 151h-4l-211 -151h-160v29l258 276h229z" />
    <glyph glyph-name="Idieresis" unicode="&#xcf;" horiz-adv-x="569" 
d="M137 0v1409h295v-1409h-295zM413 1530v219h197v-219h-197zM-41 1530v219h194v-219h-194z" />
    <glyph glyph-name="Igrave" unicode="&#xcc;" horiz-adv-x="569" 
d="M137 0v1409h295v-1409h-295zM300 1530l-340 242v43h258l251 -254v-31h-169z" />
    <glyph glyph-name="Oacute" unicode="&#xd3;" horiz-adv-x="1593" 
d="M1507 711q0 -220 -87 -387t-249 -255.5t-378 -88.5q-332 0 -520.5 195.5t-188.5 535.5q0 339 188 529t523 190t523.5 -192t188.5 -527zM1206 711q0 228 -108 357.5t-303 129.5q-198 0 -306 -128.5t-108 -358.5q0 -232 110.5 -365.5t301.5 -133.5q198 0 305.5 130
t107.5 369zM625 1530v31l252 254h258v-43l-340 -242h-170z" />
    <glyph glyph-name="Ocircumflex" unicode="&#xd4;" horiz-adv-x="1593" 
d="M1507 711q0 -220 -87 -387t-249 -255.5t-378 -88.5q-332 0 -520.5 195.5t-188.5 535.5q0 339 188 529t523 190t523.5 -192t188.5 -527zM1206 711q0 228 -108 357.5t-303 129.5q-198 0 -306 -128.5t-108 -358.5q0 -232 110.5 -365.5t301.5 -133.5q198 0 305.5 130
t107.5 369zM1163 1559v-29h-159l-203 151h-4l-211 -151h-160v29l258 276h229z" />
    <glyph glyph-name="Ograve" unicode="&#xd2;" horiz-adv-x="1593" 
d="M1507 711q0 -220 -87 -387t-249 -255.5t-378 -88.5q-332 0 -520.5 195.5t-188.5 535.5q0 339 188 529t523 190t523.5 -192t188.5 -527zM1206 711q0 228 -108 357.5t-303 129.5q-198 0 -306 -128.5t-108 -358.5q0 -232 110.5 -365.5t301.5 -133.5q198 0 305.5 130
t107.5 369zM887 1530l-340 242v43h258l251 -254v-31h-169z" />
    <glyph glyph-name="Uacute" unicode="&#xda;" horiz-adv-x="1479" 
d="M723 -20q-291 0 -445.5 142t-154.5 406v881h295v-858q0 -167 79.5 -253.5t233.5 -86.5q158 0 243 90.5t85 259.5v848h295v-866q0 -268 -165.5 -415.5t-465.5 -147.5zM592 1530v31l252 254h258v-43l-340 -242h-170z" />
    <glyph glyph-name="Ucircumflex" unicode="&#xdb;" horiz-adv-x="1479" 
d="M723 -20q-291 0 -445.5 142t-154.5 406v881h295v-858q0 -167 79.5 -253.5t233.5 -86.5q158 0 243 90.5t85 259.5v848h295v-866q0 -268 -165.5 -415.5t-465.5 -147.5zM1105 1559v-29h-159l-203 151h-4l-211 -151h-160v29l258 276h229z" />
    <glyph glyph-name="Ugrave" unicode="&#xd9;" horiz-adv-x="1479" 
d="M723 -20q-291 0 -445.5 142t-154.5 406v881h295v-858q0 -167 79.5 -253.5t233.5 -86.5q158 0 243 90.5t85 259.5v848h295v-866q0 -268 -165.5 -415.5t-465.5 -147.5zM756 1530l-340 242v43h258l251 -254v-31h-169z" />
    <glyph glyph-name="dotlessi" unicode="&#x131;" horiz-adv-x="569" 
d="M145 0v1082h281v-1082h-281z" />
    <glyph glyph-name="circumflex" unicode="&#x2c6;" horiz-adv-x="682" 
d="M737 1211v-28h-159l-203 192h-4l-211 -192h-160v28l258 318h229z" />
    <glyph glyph-name="tilde" unicode="&#x2dc;" horiz-adv-x="682" 
d="M543 1183q-44 0 -88.5 19t-86.5 42.5t-79.5 42.5t-67.5 19q-41 0 -62.5 -23t-35.5 -100h-137q8 113 32.5 169.5t70.5 90t122 33.5q45 0 90 -19t87 -42.5t78.5 -42.5t65.5 -19q40 0 62.5 24.5t36.5 98.5h135q-7 -157 -63.5 -225t-159.5 -68z" />
    <glyph glyph-name="macron" unicode="&#x2c9;" horiz-adv-x="682" 
d="M36 1371h612v-168h-612v168z" />
    <glyph glyph-name="breve" unicode="&#x2d8;" horiz-adv-x="682" 
d="M295 1183q-151 0 -246 91t-106 232h163q16 -77 68 -121.5t123 -44.5t123.5 43.5t66.5 122.5h164q-18 -148 -110.5 -235.5t-245.5 -87.5z" />
    <glyph glyph-name="dotaccent" unicode="&#x2d9;" horiz-adv-x="682" 
d="M200 1277v207h281v-207h-281z" />
    <glyph glyph-name="ring" unicode="&#x2da;" horiz-adv-x="682" 
d="M547 1390q0 -105 -73.5 -179.5t-180.5 -74.5t-180.5 74.5t-73.5 179.5t74.5 179.5t179.5 74.5t179.5 -74.5t74.5 -179.5zM420 1390q0 51 -36.5 88t-90.5 37q-51 0 -88 -36t-37 -89q0 -56 37 -92t88 -36q53 0 90 37t37 91z" />
    <glyph glyph-name="cedilla" unicode="&#xb8;" horiz-adv-x="682" 
d="M500 -235q0 -94 -78 -142t-225 -48q-45 0 -101 6v118q35 -7 84 -7q137 0 137 69q0 35 -28 52t-94 17q-38 0 -52 -2l62 172h143l-33 -82q94 -5 139.5 -46t45.5 -107z" />
    <glyph glyph-name="hungarumlaut" unicode="&#x2dd;" horiz-adv-x="682" 
d="M50 1184h-142v34l225 266h235v-43zM456 1184h-142v34l225 266h235v-43z" />
    <glyph glyph-name="ogonek" unicode="&#x2db;" horiz-adv-x="682" 
d="M313 -425q-111 0 -174 54t-63 146q0 75 43.5 142t114.5 104h153q-63 -42 -96 -99.5t-33 -110.5q0 -42 24.5 -67.5t69.5 -25.5q54 0 112 27v-137q-63 -33 -151 -33z" />
    <glyph glyph-name="caron" unicode="&#x2c7;" horiz-adv-x="682" 
d="M487 1183h-229l-258 317v29h160l211 -193h4l203 193h159v-29z" />
    <glyph glyph-name="Lslash" unicode="&#x141;" 
d="M137 0v483l-137 -65v225l137 66v700h295v-559l307 147v-223l-307 -147v-396h756v-231h-1051z" />
    <glyph glyph-name="lslash" unicode="&#x142;" horiz-adv-x="569" 
d="M424 717v-717h-281v561l-125 -69v215l125 69v708h281v-552l129 74v-213z" />
    <glyph glyph-name="Scaron" unicode="&#x160;" horiz-adv-x="1366" 
d="M1286 406q0 -207 -153.5 -316.5t-450.5 -109.5q-271 0 -425 96t-198 291l285 47q29 -112 113 -162.5t233 -50.5q309 0 309 188q0 60 -35.5 99t-100 65t-247.5 63q-158 37 -220 59.5t-112 53t-85 73.5t-54.5 101t-19.5 133q0 191 143.5 292.5t417.5 101.5q262 0 393.5 -82
t169.5 -271l-286 -39q-22 91 -89.5 137t-193.5 46q-268 0 -268 -168q0 -55 28.5 -90t84.5 -59.5t227 -61.5q203 -43 290.5 -79.5t138.5 -85t78 -116t27 -155.5zM806 1530h-229l-258 276v29h160l211 -152h4l203 152h159v-29z" />
    <glyph glyph-name="scaron" unicode="&#x161;" horiz-adv-x="1139" 
d="M1055 316q0 -157 -128.5 -246.5t-355.5 -89.5q-223 0 -341.5 70.5t-157.5 219.5l247 37q21 -77 72.5 -109t179.5 -32q118 0 172 30t54 94q0 52 -43.5 82.5t-147.5 51.5q-238 47 -321 87.5t-126.5 105t-43.5 158.5q0 155 119.5 241.5t338.5 86.5q193 0 310.5 -75
t146.5 -217l-249 -26q-12 66 -59 98.5t-149 32.5q-100 0 -150 -25.5t-50 -85.5q0 -47 38.5 -74.5t129.5 -45.5q127 -26 225.5 -53.5t158 -65.5t95 -97.5t35.5 -152.5zM692 1183h-229l-258 317v29h160l211 -193h4l203 193h159v-29z" />
    <glyph glyph-name="Zcaron" unicode="&#x17d;" 
d="M1192 0h-1131v209l762 969h-686v231h1014v-205l-762 -973h803v-231zM761 1530h-229l-258 276v29h160l211 -152h4l203 152h159v-29z" />
    <glyph glyph-name="zcaron" unicode="&#x17e;" horiz-adv-x="1024" 
d="M82 0v199l509 680h-468v203h778v-201l-506 -676h555v-205h-868zM630 1183h-229l-258 317v29h160l211 -193h4l203 193h159v-29z" />
    <glyph glyph-name="brokenbar" unicode="&#xa6;" horiz-adv-x="573" 
d="M156 676v778h262v-778h-262zM156 -455v779h262v-779h-262z" />
    <glyph glyph-name="Eth" unicode="&#xd0;" horiz-adv-x="1479" 
d="M1393 715q0 -218 -85.5 -380.5t-242 -248.5t-358.5 -86h-570v594h-129v219h129v596h510q356 0 551 -179.5t195 -514.5zM1096 715q0 225 -117 344t-338 119h-209v-365h356v-219h-356v-363h250q191 0 302.5 129.5t111.5 354.5z" />
    <glyph glyph-name="eth" unicode="&#xf0;" 
d="M856 1266q315 -320 315 -725v-4q0 -261 -144.5 -408t-403.5 -147q-251 0 -397 133t-146 364q0 232 144.5 363t402.5 131q105 0 163 -32q-64 136 -150 235l-292 -122v184l166 70q-88 71 -258 176h293q96 -48 160 -94l268 113v-188zM877 477q0 160 -63 231.5t-183 71.5
q-256 0 -256 -303q0 -148 62 -226.5t181 -78.5q125 0 192 72t67 233z" />
    <glyph glyph-name="Yacute" unicode="&#xdd;" horiz-adv-x="1366" 
d="M831 578v-578h-294v578l-502 831h309l338 -596l342 596h309zM524 1530v31l252 254h258v-43l-340 -242h-170z" />
    <glyph glyph-name="yacute" unicode="&#xfd;" horiz-adv-x="1139" 
d="M283 -425q-101 0 -177 13v200q53 -8 97 -8q60 0 99.5 19t71 63t70.5 149l-428 1071h297l170 -507q40 -109 101 -334l25 95l65 235l160 511h294l-428 -1139q-86 -208 -178.5 -288t-238.5 -80zM413 1183v31l252 288h258v-43l-340 -276h-170z" />
    <glyph glyph-name="Thorn" unicode="&#xde;" horiz-adv-x="1366" 
d="M1296 737q0 -134 -60.5 -237t-177 -160t-276.5 -57h-350v-283h-295v1409h295v-233h338q254 0 390 -113.5t136 -325.5zM999 733q0 110 -65.5 172t-196.5 62h-305v-475h313q121 0 187.5 63.5t66.5 177.5z" />
    <glyph glyph-name="thorn" unicode="&#xfe;" 
d="M143 1484h281v-462l-4 -168h4q95 199 346 199q191 0 294 -140.5t103 -392.5q0 -257 -108.5 -398.5t-306.5 -141.5q-114 0 -198.5 49.5t-129.5 142.5h-6q6 -30 6 -182v-415h-281v1909zM874 520q0 172 -55.5 255t-167.5 83q-113 0 -172 -91.5t-59 -254.5t59.5 -251.5
t169.5 -88.5q225 0 225 348z" />
    <glyph glyph-name="minus" unicode="&#x2212;" horiz-adv-x="1196" 
d="M85 569v224h1027v-224h-1027z" />
    <glyph glyph-name="multiply" unicode="&#xd7;" horiz-adv-x="1196" 
d="M86 326l356 358l-352 352l158 156l352 -350l352 352l158 -158l-352 -354l352 -350l-158 -160l-352 354l-356 -358z" />
    <glyph glyph-name="onesuperior" unicode="&#xb9;" horiz-adv-x="682" 
d="M82 694v121h184v468l-173 -108v122l180 117h175v-599h170v-121h-536z" />
    <glyph glyph-name="twosuperior" unicode="&#xb2;" horiz-adv-x="682" 
d="M53 694l-2 121q29 61 82 113.5t144 111.5q87 56 119 92.5t32 75.5q0 91 -81 91q-85 0 -95 -98l-194 5q13 99 89 159.5t200 60.5q131 0 205 -55.5t74 -154.5q0 -125 -153 -223q-103 -66 -141.5 -97t-54.5 -64h362v-138h-586z" />
    <glyph glyph-name="threesuperior" unicode="&#xb3;" horiz-adv-x="682" 
d="M638 895q0 -99 -75 -155t-213 -56q-135 0 -214 52t-92 156l189 12q10 -93 114 -93q102 0 102 96q0 93 -139 93h-56v126h51q63 0 95 23.5t32 66.5q0 39 -23 61t-66 22q-88 0 -98 -89l-186 12q11 94 87.5 149t201.5 55q128 0 199.5 -51.5t71.5 -136.5q0 -64 -36.5 -109.5
t-115.5 -61.5v-2q83 -9 127 -55t44 -115z" />
    <glyph glyph-name="onehalf" unicode="&#xbd;" horiz-adv-x="1708" 
d="M94 694v121h184v468l-173 -108v122l180 117h175v-599h170v-121h-536zM524 0h-201l895 1409h201zM1026 -1l-2 121q29 61 82 113.5t144 111.5q87 56 119 92.5t32 75.5q0 91 -81 91q-85 0 -95 -98l-194 5q13 99 89 159.5t200 60.5q131 0 205 -55.5t74 -154.5
q0 -125 -153 -223q-103 -66 -141.5 -97t-54.5 -64h362v-138h-586z" />
    <glyph glyph-name="onequarter" unicode="&#xbc;" horiz-adv-x="1708" 
d="M94 694v121h184v468l-173 -108v122l180 117h175v-599h170v-121h-536zM544 0h-201l895 1409h201zM1508 141v-140h-183v140h-344v148l316 432h211v-440h103v-140h-103zM1329 583l-11 -19q-26 -47 -54 -89l-141 -194h202v194z" />
    <glyph glyph-name="threequarters" unicode="&#xbe;" horiz-adv-x="1708" 
d="M544 0h-201l895 1409h201zM1508 141v-140h-183v140h-344v148l316 432h211v-440h103v-140h-103zM1329 583l-11 -19q-26 -47 -54 -89l-141 -194h202v194zM697 895q0 -99 -75 -155t-213 -56q-135 0 -214 52t-92 156l189 12q10 -93 114 -93q102 0 102 96q0 93 -139 93h-56
v126h51q63 0 95 23.5t32 66.5q0 39 -23 61t-66 22q-88 0 -98 -89l-186 12q11 94 87.5 149t201.5 55q128 0 199.5 -51.5t71.5 -136.5q0 -64 -36.5 -109.5t-115.5 -61.5v-2q83 -9 127 -55t44 -115z" />
    <glyph glyph-name="franc" unicode="&#x20a3;" horiz-adv-x="1139" 
d="M422 1201v-396h637v-208h-637v-190h314v-149h-314v-258h-285v258h-130v149h130v1002h955v-208h-670z" />
    <glyph glyph-name="Gbreve" unicode="&#x11e;" horiz-adv-x="1593" 
d="M806 211q115 0 223 33.5t167 85.5v195h-344v218h614v-518q-112 -115 -291.5 -180t-376.5 -65q-344 0 -529 190.5t-185 540.5q0 348 186 533.5t535 185.5q496 0 631 -367l-272 -82q-44 107 -138 162t-221 55q-208 0 -316 -126t-108 -361q0 -239 111.5 -369.5t313.5 -130.5
zM808 1520q-145 0 -243 81t-109 207h163q15 -62 68 -99t123 -37q72 0 124 36.5t66 99.5h164q-19 -133 -114.5 -210.5t-241.5 -77.5z" />
    <glyph glyph-name="gbreve" unicode="&#x11f;" 
d="M596 -434q-198 0 -318.5 75.5t-148.5 215.5l281 33q15 -65 64.5 -102t129.5 -37q117 0 171 72t54 214v57l2 107h-2q-93 -199 -348 -199q-189 0 -293 142t-104 406q0 265 107 409t311 144q236 0 327 -195h5q0 35 4.5 95t9.5 79h266q-6 -108 -6 -250v-799q0 -231 -131 -349
t-381 -118zM831 556q0 167 -59.5 260.5t-169.5 93.5q-225 0 -225 -360q0 -353 223 -353q112 0 171.5 93.5t59.5 265.5zM605 1183q-151 0 -246 91t-106 232h163q16 -77 68 -121.5t123 -44.5t123.5 43.5t66.5 122.5h164q-18 -148 -110.5 -235.5t-245.5 -87.5z" />
    <glyph glyph-name="Idotaccent" unicode="&#x130;" horiz-adv-x="569" 
d="M137 0v1409h295v-1409h-295zM146 1547v207h281v-207h-281z" />
    <glyph glyph-name="Scedilla" unicode="&#x15e;" horiz-adv-x="1366" 
d="M1286 406q0 -207 -153.5 -316.5t-450.5 -109.5q-271 0 -425 96t-198 291l285 47q29 -112 113 -162.5t233 -50.5q309 0 309 188q0 60 -35.5 99t-100 65t-247.5 63q-158 37 -220 59.5t-112 53t-85 73.5t-54.5 101t-19.5 133q0 191 143.5 292.5t417.5 101.5q262 0 393.5 -82
t169.5 -271l-286 -39q-22 91 -89.5 137t-193.5 46q-268 0 -268 -168q0 -55 28.5 -90t84.5 -59.5t227 -61.5q203 -43 290.5 -79.5t138.5 -85t78 -116t27 -155.5zM922 -235q0 -94 -78 -142t-225 -48q-45 0 -101 6v118q35 -7 84 -7q137 0 137 69q0 35 -28 52t-94 17
q-38 0 -52 -2l62 172h143l-33 -82q94 -5 139.5 -46t45.5 -107z" />
    <glyph glyph-name="scedilla" unicode="&#x15f;" horiz-adv-x="1139" 
d="M1055 316q0 -157 -128.5 -246.5t-355.5 -89.5q-223 0 -341.5 70.5t-157.5 219.5l247 37q21 -77 72.5 -109t179.5 -32q118 0 172 30t54 94q0 52 -43.5 82.5t-147.5 51.5q-238 47 -321 87.5t-126.5 105t-43.5 158.5q0 155 119.5 241.5t338.5 86.5q193 0 310.5 -75
t146.5 -217l-249 -26q-12 66 -59 98.5t-149 32.5q-100 0 -150 -25.5t-50 -85.5q0 -47 38.5 -74.5t129.5 -45.5q127 -26 225.5 -53.5t158 -65.5t95 -97.5t35.5 -152.5zM786 -235q0 -94 -78 -142t-225 -48q-45 0 -101 6v118q35 -7 84 -7q137 0 137 69q0 35 -28 52t-94 17
q-38 0 -52 -2l62 172h143l-33 -82q94 -5 139.5 -46t45.5 -107z" />
    <glyph glyph-name="Cacute" unicode="&#x106;" horiz-adv-x="1479" 
d="M795 212q267 0 371 268l257 -97q-83 -204 -243.5 -303.5t-384.5 -99.5q-340 0 -525.5 192.5t-185.5 538.5q0 347 179 533t519 186q248 0 404 -99.5t219 -292.5l-260 -71q-33 106 -129.5 168.5t-227.5 62.5q-200 0 -303.5 -124t-103.5 -363q0 -243 106.5 -371t307.5 -128z
M652 1530v31l252 254h258v-43l-340 -242h-170z" />
    <glyph glyph-name="cacute" unicode="&#x107;" horiz-adv-x="1139" 
d="M594 -20q-246 0 -380 146.5t-134 408.5q0 268 135 417.5t383 149.5q191 0 316 -96t157 -265l-283 -14q-12 83 -60 132.5t-136 49.5q-217 0 -217 -363q0 -374 221 -374q80 0 134 50.5t67 150.5l282 -13q-15 -111 -79.5 -198t-169.5 -134.5t-236 -47.5zM446 1183v31
l252 288h258v-43l-340 -276h-170z" />
    <glyph glyph-name="Ccaron" unicode="&#x10c;" horiz-adv-x="1479" 
d="M795 212q267 0 371 268l257 -97q-83 -204 -243.5 -303.5t-384.5 -99.5q-340 0 -525.5 192.5t-185.5 538.5q0 347 179 533t519 186q248 0 404 -99.5t219 -292.5l-260 -71q-33 106 -129.5 168.5t-227.5 62.5q-200 0 -303.5 -124t-103.5 -363q0 -243 106.5 -371t307.5 -128z
M900 1530h-229l-258 276v29h160l211 -152h4l203 152h159v-29z" />
    <glyph glyph-name="ccaron" unicode="&#x10d;" horiz-adv-x="1139" 
d="M594 -20q-246 0 -380 146.5t-134 408.5q0 268 135 417.5t383 149.5q191 0 316 -96t157 -265l-283 -14q-12 83 -60 132.5t-136 49.5q-217 0 -217 -363q0 -374 221 -374q80 0 134 50.5t67 150.5l282 -13q-15 -111 -79.5 -198t-169.5 -134.5t-236 -47.5zM701 1183h-229
l-258 317v29h160l211 -193h4l203 193h159v-29z" />
    <glyph glyph-name="dcroat" unicode="&#x111;" 
d="M827 1345v139h282v-139h132v-170h-132v-939q0 -100 8 -236h-272q-4 15 -9.5 75.5t-5.5 100.5h-4q-91 -196 -347 -196q-188 0 -291.5 141.5t-103.5 399.5q0 260 108 400.5t308 140.5q115 0 198.5 -48t128.5 -143h2l-2 178v126h-286v170h286zM831 529q0 167 -58 256
t-173 89q-113 0 -168 -85t-55 -267q0 -350 221 -350q113 0 173 93.5t60 263.5z" />
    <glyph glyph-name="overscore" unicode="&#xaf;" horiz-adv-x="1131" 
d="M1148 1452h-1165v94h1165v-94z" />
    <glyph glyph-name="middot" unicode="&#xb7;" horiz-adv-x="682" 
d="M141 531v305h288v-305h-288z" />
    <glyph glyph-name="Abreve" unicode="&#x102;" horiz-adv-x="1479" 
d="M1133 0l-125 360h-537l-125 -360h-295l514 1409h348l512 -1409h-292zM739 1192l-6 -22q-10 -36 -24 -82t-172 -506h405l-139 405l-43 136zM737 1520q-145 0 -243 81t-109 207h163q15 -62 68 -99t123 -37q72 0 124 36.5t66 99.5h164q-19 -133 -114.5 -210.5t-241.5 -77.5z
" />
    <glyph glyph-name="abreve" unicode="&#x103;" horiz-adv-x="1139" 
d="M393 -20q-157 0 -245 85.5t-88 240.5q0 168 109.5 256t317.5 90l233 4v55q0 106 -37 157.5t-121 51.5q-78 0 -114.5 -35.5t-45.5 -117.5l-293 14q27 158 144.5 239.5t320.5 81.5q205 0 316 -101t111 -287v-394q0 -91 20.5 -125.5t68.5 -34.5q32 0 62 6v-152
q-25 -6 -45 -11t-40 -8t-42.5 -5t-52.5 -2q-106 0 -156.5 52t-60.5 153h-6q-118 -213 -356 -213zM720 501l-144 -2q-98 -4 -139 -21.5t-62.5 -53.5t-21.5 -96q0 -77 35.5 -114.5t94.5 -37.5q66 0 120.5 36t85.5 99.5t31 134.5v55zM578 1183q-151 0 -246 91t-106 232h163
q16 -77 68 -121.5t123 -44.5t123.5 43.5t66.5 122.5h164q-18 -148 -110.5 -235.5t-245.5 -87.5z" />
    <glyph glyph-name="Aogonek" unicode="&#x104;" horiz-adv-x="1479" 
d="M1133 0l-125 360h-537l-125 -360h-295l514 1409h348l512 -1409h-292zM739 1192l-6 -22q-10 -36 -24 -82t-172 -506h405l-139 405l-43 136zM1262 -414q-111 0 -174 54t-63 146q0 75 43.5 142t114.5 104h153q-63 -42 -96 -99.5t-33 -110.5q0 -42 24.5 -67.5t69.5 -25.5
q54 0 112 27v-137q-63 -33 -151 -33z" />
    <glyph glyph-name="aogonek" unicode="&#x105;" horiz-adv-x="1139" 
d="M393 -20q-157 0 -245 85.5t-88 240.5q0 168 109.5 256t317.5 90l233 4v55q0 106 -37 157.5t-121 51.5q-78 0 -114.5 -35.5t-45.5 -117.5l-293 14q27 158 144.5 239.5t320.5 81.5q205 0 316 -101t111 -287v-394q0 -91 20.5 -125.5t68.5 -34.5q32 0 62 6v-152
q-25 -6 -45 -11t-40 -8t-42.5 -5t-52.5 -2q-106 0 -156.5 52t-60.5 153h-6q-118 -213 -356 -213zM720 501l-144 -2q-98 -4 -139 -21.5t-62.5 -53.5t-21.5 -96q0 -77 35.5 -114.5t94.5 -37.5q66 0 120.5 36t85.5 99.5t31 134.5v55zM922 -425q-111 0 -174 54t-63 146
q0 75 43.5 142t114.5 104h153q-63 -42 -96 -99.5t-33 -110.5q0 -42 24.5 -67.5t69.5 -25.5q54 0 112 27v-137q-63 -33 -151 -33z" />
    <glyph glyph-name="Dcaron" unicode="&#x10e;" horiz-adv-x="1479" 
d="M1393 715q0 -218 -85.5 -380.5t-242 -248.5t-358.5 -86h-570v1409h510q356 0 551 -179.5t195 -514.5zM1096 715q0 227 -118 346.5t-337 119.5h-209v-953h250q190 0 302 131t112 356zM818 1530h-229l-258 276v29h160l211 -152h4l203 152h159v-29z" />
    <glyph glyph-name="dcaron" unicode="&#x10f;" horiz-adv-x="1472" 
d="M844 0q-4 15 -9.5 75.5t-5.5 100.5h-4q-91 -196 -346 -196q-189 0 -292 147.5t-103 412.5q0 269 108.5 415.5t307.5 146.5q115 0 198.5 -48t128.5 -143h2l-2 178v395h281v-1248q0 -100 8 -236h-272zM831 547q0 175 -58.5 269.5t-172.5 94.5q-113 0 -168 -91.5t-55 -279.5
q0 -368 221 -368q111 0 172 97.5t61 277.5zM1473 1338q0 -73 -21.5 -132t-72.5 -119h-137q94 100 94 190h-108v207h245v-146z" />
    <glyph glyph-name="Dcroat" unicode="&#x110;" horiz-adv-x="1479" 
d="M1393 715q0 -218 -85.5 -380.5t-242 -248.5t-358.5 -86h-570v594h-129v219h129v596h510q356 0 551 -179.5t195 -514.5zM1096 715q0 225 -117 344t-338 119h-209v-365h356v-219h-356v-363h250q191 0 302.5 129.5t111.5 354.5z" />
    <glyph glyph-name="Eogonek" unicode="&#x118;" horiz-adv-x="1366" 
d="M137 0v1409h1108v-228h-813v-354h752v-228h-752v-371h854v-228h-1149zM1062 -425q-111 0 -174 54t-63 146q0 75 43.5 142t114.5 104h153q-63 -42 -96 -99.5t-33 -110.5q0 -42 24.5 -67.5t69.5 -25.5q54 0 112 27v-137q-63 -33 -151 -33z" />
    <glyph glyph-name="eogonek" unicode="&#x119;" horiz-adv-x="1139" 
d="M586 -20q-244 0 -375 144.5t-131 421.5q0 268 133 412t377 144q233 0 356 -154.5t123 -452.5v-8h-694q0 -158 58.5 -238.5t166.5 -80.5q149 0 188 129l265 -23q-115 -294 -467 -294zM586 925q-99 0 -152.5 -69t-56.5 -193h420q-8 131 -63 196.5t-148 65.5zM776 -408
q-111 0 -174 54t-63 146q0 75 43.5 142t114.5 104h153q-63 -42 -96 -99.5t-33 -110.5q0 -42 24.5 -67.5t69.5 -25.5q54 0 112 27v-137q-63 -33 -151 -33z" />
    <glyph glyph-name="Ecaron" unicode="&#x11a;" horiz-adv-x="1366" 
d="M137 0v1409h1108v-228h-813v-354h752v-228h-752v-371h854v-228h-1149zM827 1530h-229l-258 276v29h160l211 -152h4l203 152h159v-29z" />
    <glyph glyph-name="ecaron" unicode="&#x11b;" horiz-adv-x="1139" 
d="M586 -20q-244 0 -375 144.5t-131 421.5q0 268 133 412t377 144q233 0 356 -154.5t123 -452.5v-8h-694q0 -158 58.5 -238.5t166.5 -80.5q149 0 188 129l265 -23q-115 -294 -467 -294zM586 925q-99 0 -152.5 -69t-56.5 -193h420q-8 131 -63 196.5t-148 65.5zM703 1183h-229
l-258 317v29h160l211 -193h4l203 193h159v-29z" />
    <glyph glyph-name="Lacute" unicode="&#x139;" 
d="M137 0v1409h295v-1181h756v-228h-1051zM260 1530v31l252 254h258v-43l-340 -242h-170z" />
    <glyph glyph-name="lacute" unicode="&#x13a;" horiz-adv-x="569" 
d="M143 0v1484h281v-1484h-281zM106 1609v31l252 254h258v-43l-340 -242h-170z" />
    <glyph glyph-name="Lcaron" unicode="&#x13d;" 
d="M137 0v1409h295v-1181h756v-228h-1051zM984 1263q0 -73 -21.5 -132t-72.5 -119h-137q94 100 94 190h-108v207h245v-146z" />
    <glyph glyph-name="lcaron" unicode="&#x13e;" horiz-adv-x="789" 
d="M143 0v1484h281v-1484h-281zM790 1338q0 -73 -21.5 -132t-72.5 -119h-137q94 100 94 190h-108v207h245v-146z" />
    <glyph glyph-name="Ldot" unicode="&#x13f;" 
d="M137 0v1409h295v-1181h756v-228h-1051zM669 651v207h281v-207h-281z" />
    <glyph glyph-name="ldot" unicode="&#x140;" horiz-adv-x="981" 
d="M143 0v1484h281v-1484h-281zM600 651v207h281v-207h-281z" />
    <glyph glyph-name="Nacute" unicode="&#x143;" horiz-adv-x="1479" 
d="M995 0l-614 1085q18 -158 18 -254v-831h-262v1409h337l623 -1094q-18 151 -18 275v819h262v-1409h-346zM574 1530v31l252 254h258v-43l-340 -242h-170z" />
    <glyph glyph-name="nacute" unicode="&#x144;" 
d="M844 0v607q0 285 -193 285q-102 0 -164.5 -87.5t-62.5 -224.5v-580h-281v840q0 87 -2.5 142.5t-5.5 99.5h268q3 -19 8 -101.5t5 -113.5h4q57 124 143 180t205 56q172 0 264 -106t92 -310v-687h-280zM475 1183v31l252 288h258v-43l-340 -276h-170z" />
    <glyph glyph-name="Ncaron" unicode="&#x147;" horiz-adv-x="1479" 
d="M995 0l-614 1085q18 -158 18 -254v-831h-262v1409h337l623 -1094q-18 151 -18 275v819h262v-1409h-346zM852 1530h-229l-258 276v29h160l211 -152h4l203 152h159v-29z" />
    <glyph glyph-name="ncaron" unicode="&#x148;" 
d="M844 0v607q0 285 -193 285q-102 0 -164.5 -87.5t-62.5 -224.5v-580h-281v840q0 87 -2.5 142.5t-5.5 99.5h268q3 -19 8 -101.5t5 -113.5h4q57 124 143 180t205 56q172 0 264 -106t92 -310v-687h-280zM729 1183h-229l-258 317v29h160l211 -193h4l203 193h159v-29z" />
    <glyph glyph-name="Ohungarumlaut" unicode="&#x150;" horiz-adv-x="1593" 
d="M1507 711q0 -220 -87 -387t-249 -255.5t-378 -88.5q-332 0 -520.5 195.5t-188.5 535.5q0 339 188 529t523 190t523.5 -192t188.5 -527zM1206 711q0 228 -108 357.5t-303 129.5q-198 0 -306 -128.5t-108 -358.5q0 -232 110.5 -365.5t301.5 -133.5q198 0 305.5 130
t107.5 369zM611 1530h-132v34l215 252h235v-43zM1017 1530h-132v34l215 252h235v-43z" />
    <glyph glyph-name="ohungarumlaut" unicode="&#x151;" 
d="M1171 542q0 -263 -146 -412.5t-404 -149.5q-253 0 -397 150t-144 412q0 261 144 410.5t403 149.5q265 0 404.5 -144.5t139.5 -415.5zM877 542q0 193 -63 280t-183 87q-256 0 -256 -367q0 -181 62.5 -275.5t180.5 -94.5q259 0 259 370zM435 1184h-142v34l225 266h235v-43z
M841 1184h-142v34l225 266h235v-43z" />
    <glyph glyph-name="Racute" unicode="&#x154;" horiz-adv-x="1479" 
d="M1105 0l-327 535h-346v-535h-295v1409h704q252 0 389 -108.5t137 -311.5q0 -148 -84 -255.5t-227 -141.5l381 -592h-332zM1070 977q0 203 -260 203h-378v-416h386q124 0 188 56t64 157zM548 1530v31l252 254h258v-43l-340 -242h-170z" />
    <glyph glyph-name="racute" unicode="&#x155;" horiz-adv-x="797" 
d="M143 0v828q0 89 -2.5 148.5t-5.5 105.5h268q3 -18 8 -109.5t5 -121.5h4q41 114 73 160.5t76 69t110 22.5q54 0 87 -15v-235q-68 15 -120 15q-105 0 -163.5 -85t-58.5 -252v-531h-281zM269 1183v31l252 288h258v-43l-340 -276h-170z" />
    <glyph glyph-name="Rcaron" unicode="&#x158;" horiz-adv-x="1479" 
d="M1105 0l-327 535h-346v-535h-295v1409h704q252 0 389 -108.5t137 -311.5q0 -148 -84 -255.5t-227 -141.5l381 -592h-332zM1070 977q0 203 -260 203h-378v-416h386q124 0 188 56t64 157zM818 1530h-229l-258 276v29h160l211 -152h4l203 152h159v-29z" />
    <glyph glyph-name="rcaron" unicode="&#x159;" horiz-adv-x="797" 
d="M143 0v828q0 89 -2.5 148.5t-5.5 105.5h268q3 -18 8 -109.5t5 -121.5h4q41 114 73 160.5t76 69t110 22.5q54 0 87 -15v-235q-68 15 -120 15q-105 0 -163.5 -85t-58.5 -252v-531h-281zM543 1183h-229l-258 317v29h160l211 -193h4l203 193h159v-29z" />
    <glyph glyph-name="Sacute" unicode="&#x15a;" horiz-adv-x="1366" 
d="M1286 406q0 -207 -153.5 -316.5t-450.5 -109.5q-271 0 -425 96t-198 291l285 47q29 -112 113 -162.5t233 -50.5q309 0 309 188q0 60 -35.5 99t-100 65t-247.5 63q-158 37 -220 59.5t-112 53t-85 73.5t-54.5 101t-19.5 133q0 191 143.5 292.5t417.5 101.5q262 0 393.5 -82
t169.5 -271l-286 -39q-22 91 -89.5 137t-193.5 46q-268 0 -268 -168q0 -55 28.5 -90t84.5 -59.5t227 -61.5q203 -43 290.5 -79.5t138.5 -85t78 -116t27 -155.5zM555 1530v31l252 254h258v-43l-340 -242h-170z" />
    <glyph glyph-name="sacute" unicode="&#x15b;" horiz-adv-x="1139" 
d="M1055 316q0 -157 -128.5 -246.5t-355.5 -89.5q-223 0 -341.5 70.5t-157.5 219.5l247 37q21 -77 72.5 -109t179.5 -32q118 0 172 30t54 94q0 52 -43.5 82.5t-147.5 51.5q-238 47 -321 87.5t-126.5 105t-43.5 158.5q0 155 119.5 241.5t338.5 86.5q193 0 310.5 -75
t146.5 -217l-249 -26q-12 66 -59 98.5t-149 32.5q-100 0 -150 -25.5t-50 -85.5q0 -47 38.5 -74.5t129.5 -45.5q127 -26 225.5 -53.5t158 -65.5t95 -97.5t35.5 -152.5zM400 1183v31l252 288h258v-43l-340 -276h-170z" />
    <glyph glyph-name="Tcommaaccent" unicode="&#x162;" 
d="M773 1181v-1181h-295v1181h-455v228h1206v-228h-456zM850 -235q0 -94 -78 -142t-225 -48q-45 0 -101 6v118q35 -7 84 -7q137 0 137 69q0 35 -28 52t-94 17q-38 0 -52 -2l62 172h143l-33 -82q94 -5 139.5 -46t45.5 -107z" />
    <glyph glyph-name="tcommaaccent" unicode="&#x163;" horiz-adv-x="682" 
d="M420 -18q-124 0 -191 67.5t-67 204.5v638h-137v190h151l88 254h176v-254h205v-190h-205v-562q0 -79 30 -116.5t93 -37.5q33 0 94 14v-174q-104 -34 -237 -34zM638 -235q0 -94 -78 -142t-225 -48q-45 0 -101 6v118q35 -7 84 -7q137 0 137 69q0 35 -28 52t-94 17
q-38 0 -52 -2l62 172h143l-33 -82q94 -5 139.5 -46t45.5 -107z" />
    <glyph glyph-name="Tcaron" unicode="&#x164;" 
d="M773 1181v-1181h-295v1181h-455v228h1206v-228h-456zM749 1530h-229l-258 276v29h160l211 -152h4l203 152h159v-29z" />
    <glyph glyph-name="tcaron" unicode="&#x165;" horiz-adv-x="981" 
d="M420 -18q-124 0 -191 67.5t-67 204.5v638h-137v190h151l88 254h176v-254h205v-190h-205v-562q0 -79 30 -116.5t93 -37.5q33 0 94 14v-174q-104 -34 -237 -34zM981 1338q0 -73 -21.5 -132t-72.5 -119h-137q94 100 94 190h-108v207h245v-146z" />
    <glyph glyph-name="Uring" unicode="&#x16e;" horiz-adv-x="1479" 
d="M723 -20q-291 0 -445.5 142t-154.5 406v881h295v-858q0 -167 79.5 -253.5t233.5 -86.5q158 0 243 90.5t85 259.5v848h295v-866q0 -268 -165.5 -415.5t-465.5 -147.5zM994 1724q0 -105 -73.5 -179.5t-180.5 -74.5t-180.5 74.5t-73.5 179.5t74.5 179.5t179.5 74.5
t179.5 -74.5t74.5 -179.5zM867 1724q0 51 -36.5 88t-90.5 37q-51 0 -88 -36t-37 -89q0 -56 37 -92t88 -36q53 0 90 37t37 91z" />
    <glyph glyph-name="uring" unicode="&#x16f;" 
d="M408 1082v-607q0 -285 192 -285q102 0 164.5 87.5t62.5 224.5v580h281v-840q0 -138 8 -242h-268q-12 144 -12 215h-5q-56 -123 -142.5 -179t-205.5 -56q-172 0 -264 105.5t-92 309.5v687h281zM875 1390q0 -105 -73.5 -179.5t-180.5 -74.5t-180.5 74.5t-73.5 179.5
t74.5 179.5t179.5 74.5t179.5 -74.5t74.5 -179.5zM748 1390q0 51 -36.5 88t-90.5 37q-51 0 -88 -36t-37 -89q0 -56 37 -92t88 -36q53 0 90 37t37 91z" />
    <glyph glyph-name="Uhungarumlaut" unicode="&#x170;" horiz-adv-x="1479" 
d="M723 -20q-291 0 -445.5 142t-154.5 406v881h295v-858q0 -167 79.5 -253.5t233.5 -86.5q158 0 243 90.5t85 259.5v848h295v-866q0 -268 -165.5 -415.5t-465.5 -147.5zM525 1530h-132v34l215 252h235v-43zM931 1530h-132v34l215 252h235v-43z" />
    <glyph glyph-name="uhungarumlaut" unicode="&#x171;" 
d="M408 1082v-607q0 -285 192 -285q102 0 164.5 87.5t62.5 224.5v580h281v-840q0 -138 8 -242h-268q-12 144 -12 215h-5q-56 -123 -142.5 -179t-205.5 -56q-172 0 -264 105.5t-92 309.5v687h281zM399 1184h-142v34l225 266h235v-43zM805 1184h-142v34l225 266h235v-43z" />
    <glyph glyph-name="Zacute" unicode="&#x179;" 
d="M1192 0h-1131v209l762 969h-686v231h1014v-205l-762 -973h803v-231zM473 1530v31l252 254h258v-43l-340 -242h-170z" />
    <glyph glyph-name="zacute" unicode="&#x17a;" horiz-adv-x="1024" 
d="M82 0v199l509 680h-468v203h778v-201l-506 -676h555v-205h-868zM336 1183v31l252 288h258v-43l-340 -276h-170z" />
    <glyph glyph-name="Zdotaccent" unicode="&#x17b;" 
d="M1192 0h-1131v209l762 969h-686v231h1014v-205l-762 -973h803v-231zM496 1547v207h281v-207h-281z" />
    <glyph glyph-name="zdotaccent" unicode="&#x17c;" horiz-adv-x="1024" 
d="M82 0v199l509 680h-468v203h778v-201l-506 -676h555v-205h-868zM389 1277v207h281v-207h-281z" />
    <glyph glyph-name="Gamma" unicode="&#x393;" horiz-adv-x="1231" 
d="M1198 1409v-228h-766v-1180h-295v1408h1061z" />
    <glyph glyph-name="Theta" unicode="&#x398;" horiz-adv-x="1593" 
d="M502 827h587v-228h-587v228zM1507 711q0 -220 -87 -387t-249 -255.5t-378 -88.5q-332 0 -520.5 195.5t-188.5 535.5q0 339 188 529t523 190t523.5 -192t188.5 -527zM1206 711q0 228 -108 357.5t-303 129.5q-198 0 -306 -128.5t-108 -358.5q0 -232 110.5 -365.5
t301.5 -133.5q198 0 305.5 130t107.5 369z" />
    <glyph glyph-name="Phi" unicode="&#x3a6;" horiz-adv-x="1681" 
d="M1322 730q0 152 -79 237t-244 85h-19v-655h26q152 0 234 86t82 247zM702 -11v199h-54q-179 0 -312 68.5t-203 193t-70 284.5q0 251 155 389t442 138h42v158h278v-158h42q286 0 441.5 -138t155.5 -389q0 -161 -70 -285t-203 -192.5t-312 -68.5h-54v-199h-278zM360 730
q0 -160 81.5 -246.5t234.5 -86.5h26v655h-19q-165 0 -244 -85t-79 -237z" />
    <glyph glyph-name="alpha" unicode="&#x3b1;" horiz-adv-x="1259" 
d="M860 237q-62 -135 -148 -196t-211 -61q-212 0 -316.5 137.5t-104.5 418.5q0 284 113.5 425t333.5 141q131 0 225.5 -66.5t142.5 -188.5h3q25 124 75 235h265q-50 -91 -103.5 -251t-65.5 -275q32 -309 136 -556h-270q-49 120 -71 237h-4zM375 539q0 -196 42.5 -281
t138.5 -85q89 0 153 101t82 268q-22 178 -80.5 272t-146.5 94q-102 0 -145.5 -89t-43.5 -280z" />
    <glyph glyph-name="delta" unicode="&#x3b4;" horiz-adv-x="1242" 
d="M866 487q0 110 -45.5 209t-153.5 207q-141 -50 -216 -157.5t-75 -264.5q0 -145 62 -225t174 -80q124 0 189 78t65 233zM734 1294l-147 7l323 -293q131 -119 188.5 -245.5t57.5 -279.5q0 -148 -64.5 -262.5t-187.5 -177.5t-287 -63q-252 0 -391.5 132.5t-139.5 368.5
q0 382 465 542l-312 314v147h853v-190h-358z" />
    <glyph glyph-name="epsilon" unicode="&#x3b5;" horiz-adv-x="972" 
d="M526 168q138 0 270 137l143 -140q-73 -75 -132.5 -110t-134.5 -55t-175 -20q-199 0 -309.5 83t-110.5 234q0 113 78.5 181.5t209.5 79.5v2q-119 12 -187 79t-68 173q0 133 115.5 211.5t307.5 78.5q137 0 228 -38t162 -131l-162 -123q-42 57 -92.5 85t-119.5 28
q-84 0 -128 -32.5t-44 -89.5q0 -76 70.5 -112.5t257.5 -36.5v-177q-148 0 -210.5 -15t-95.5 -49.5t-33 -96.5q0 -72 42.5 -109t117.5 -37z" />
    <glyph glyph-name="sigma" unicode="&#x3c3;" horiz-adv-x="1401" 
d="M1170 458q0 -224 -143 -351t-399 -127q-263 0 -405.5 139t-142.5 405q0 265 166 411.5t473 146.5h642v-190h-195l-164 6v-4q88 -113 128 -220t40 -216zM876 492q0 216 -102 400h-74q-149 0 -237 -98t-88 -270q0 -352 246 -352q124 0 189.5 82t65.5 238z" />
    <glyph glyph-name="tau" unicode="&#x3c4;" horiz-adv-x="914" 
d="M270 892q-82 0 -156 -12t-96 -25v198q24 12 77.5 20.5t105.5 8.5h679v-190h-305v-580q0 -69 25.5 -102t89.5 -33q38 0 81 8l24 -178q-36 -10 -95.5 -19t-103.5 -9q-299 0 -299 272v641h-27z" />
    <glyph glyph-name="phi" unicode="&#x3c6;" horiz-adv-x="1465" 
d="M1386 565q0 -273 -139.5 -421.5t-401.5 -161.5v-407h-238v405q-257 11 -392 154t-135 410q0 247 108 385t341 177l21 -179q-93 -24 -144 -124.5t-51 -258.5q0 -176 64 -272t188 -105v535q0 198 87 300t273 102q191 0 305 -146.5t114 -392.5zM1111 567q0 363 -143 363
q-123 0 -123 -231v-533q128 6 197 106t69 295z" />
    <glyph glyph-name="underscoredbl" unicode="&#x2017;" horiz-adv-x="1131" 
d="M-20 -512v78h1177v-78h-1177zM-20 -250v78h1177v-78h-1177z" />
    <glyph glyph-name="exclamdbl" unicode="&#x203c;" horiz-adv-x="1237" 
d="M455 426h-230l-32 983h294zM193 0v270h288v-270h-288zM1012 426h-230l-32 983h294zM750 0v270h288v-270h-288z" />
    <glyph glyph-name="nsuperior" unicode="&#x207f;" horiz-adv-x="811" 
d="M531 519v384q0 87 -23 120.5t-83 33.5q-62 0 -98.5 -48t-36.5 -139v-351h-178v511l-4 139h166q1 -3 2 -16.5t2.5 -30.5t3.5 -64h3q35 65 84.5 94t123.5 29q110 0 163.5 -54t53.5 -175v-433h-179z" />
    <glyph glyph-name="peseta" unicode="&#x20a7;" horiz-adv-x="2240" 
d="M1427 8q-74 -24 -147 -24q-125 0 -181.5 61t-56.5 184v418h-104v113q-56 -100 -166.5 -155.5t-262.5 -55.5h-110v-549h-241v1409h314q249 0 385.5 -111t136.5 -313q0 -91 -31 -172h86l88 242h125v-242h147v-166h-147v-369q0 -69 20 -97.5t71 -28.5q36 0 74 14v-158z
M2171 241q0 -127 -97 -194t-276 -67q-174 0 -264 60t-120 190l199 26q15 -61 59.5 -85t123.5 -24q93 0 129 19.5t36 61.5q0 34 -32.5 55t-107.5 36q-123 24 -180.5 42.5t-96.5 47.5t-63 72t-24 107q0 115 89 175.5t260 60.5q149 0 237 -63.5t111 -187.5l-201 -17
q-9 48 -45.5 74t-99.5 26q-69 0 -102.5 -13.5t-33.5 -49.5q0 -27 29 -44t101 -31q177 -36 238.5 -69t96 -84.5t34.5 -123.5zM752 983q0 122 -66 177.5t-212 55.5h-75v-476h83q143 0 206.5 58t63.5 185z" />
    <glyph glyph-name="arrowleft" unicode="&#x2190;" horiz-adv-x="2048" 
d="M641 297q57 -67 119 -197h-72q-127 149 -270 222v36q143 73 270 222h72q-62 -130 -119 -197h989v-86h-989z" />
    <glyph glyph-name="arrowup" unicode="&#x2191;" horiz-adv-x="1024" 
d="M469 928q-67 -57 -197 -119v72q149 127 222 270h36q73 -143 222 -270v-72q-130 62 -197 119v-989h-86v989z" />
    <glyph glyph-name="arrowright" unicode="&#x2192;" horiz-adv-x="2048" 
d="M1407 383q-57 67 -119 197h72q127 -149 270 -222v-36q-143 -73 -270 -222h-72q62 130 119 197h-989v86h989z" />
    <glyph glyph-name="arrowdown" unicode="&#x2193;" horiz-adv-x="1024" 
d="M555 162q67 57 197 119v-72q-149 -127 -222 -270h-36q-73 143 -222 270v72q130 -62 197 -119v989h86v-989z" />
    <glyph glyph-name="arrowboth" unicode="&#x2194;" horiz-adv-x="2048" 
d="M641 297q57 -67 119 -197h-72q-127 149 -270 222v36q143 73 270 222h72q-62 -130 -119 -197h766q-57 67 -119 197h72q127 -149 270 -222v-36q-143 -73 -270 -222h-72q62 130 119 197h-766z" />
    <glyph glyph-name="arrowupdn" unicode="&#x2195;" horiz-adv-x="1024" 
d="M469 928q-67 -57 -197 -119v72q149 127 222 270h36q73 -143 222 -270v-72q-130 62 -197 119v-766q67 57 197 119v-72q-149 -127 -222 -270h-36q-73 143 -222 270v72q130 -62 197 -119v766z" />
    <glyph glyph-name="arrowupdnbse" unicode="&#x21a8;" horiz-adv-x="1024" 
d="M272 -104h480v-80h-480v80zM469 928q-67 -57 -197 -119v72q149 127 222 270h36q73 -143 222 -270v-72q-130 62 -197 119v-766q67 57 197 119v-72q-149 -127 -222 -270h-36q-73 143 -222 270v72q130 -62 197 -119v766z" />
    <glyph glyph-name="orthogonal" unicode="&#x221f;" horiz-adv-x="2005" 
d="M408 1223h94v-1129h1130v-94h-1224v1223z" />
    <glyph glyph-name="intersection" unicode="&#x2229;" horiz-adv-x="1479" 
d="M281 -2v512q0 150 58 269.5t162.5 186t234.5 66.5q131 0 236.5 -66t165 -187t59.5 -269v-512h-103v514q0 190 -98 304t-258 114q-162 0 -258 -113t-96 -307v-512h-103z" />
    <glyph glyph-name="equivalence" unicode="&#x2261;" horiz-adv-x="1195" 
d="M100 956v148h995v-148h-995zM100 244v148h995v-148h-995zM100 600v148h995v-148h-995z" />
    <glyph glyph-name="house" unicode="&#x2302;" horiz-adv-x="1237" 
d="M157 0v635l461 518l461 -518v-635h-922zM237 82h762v518l-381 426l-381 -426v-518z" />
    <glyph glyph-name="revlogicalnot" unicode="&#x2310;" horiz-adv-x="1196" 
d="M100 180v574h995v-146h-850v-428h-145z" />
    <glyph glyph-name="integraltp" unicode="&#x2320;" horiz-adv-x="1237" 
d="M693 -614h-147v1878q0 196 84 319t210 123q63 0 100.5 -31.5t37.5 -79.5q0 -40 -25.5 -66t-62.5 -26q-30 0 -43 10q-16 8 -54 50q-33 39 -49 39q-36 0 -45 -39q-6 -35 -6 -140v-2037z" />
    <glyph glyph-name="integralbt" unicode="&#x2321;" horiz-adv-x="1237" 
d="M546 1706h147v-1880q0 -195 -81.5 -317.5t-213.5 -122.5q-59 0 -98 30.5t-39 77.5q0 39 25 65.5t61 26.5q33 0 59 -16q10 -4 41 -45q31 -37 47 -37q29 0 40.5 25.5t11.5 152.5v2040z" />
    <glyph glyph-name="uni2500" unicode="&#x2500;" horiz-adv-x="1451" 
d="M-10 549v145h1471v-145h-1471z" />
    <glyph glyph-name="uni2502" unicode="&#x2502;" horiz-adv-x="1280" 
d="M472 1864h145v-2485h-145v2485z" />
    <glyph glyph-name="uni250C" unicode="&#x250c;" horiz-adv-x="1451" 
d="M653 694h808v-145h-663v-1170h-145v1315z" />
    <glyph glyph-name="uni2510" unicode="&#x2510;" horiz-adv-x="1451" 
d="M-10 549v145h808v-1315h-145v1170h-663z" />
    <glyph glyph-name="uni2514" unicode="&#x2514;" horiz-adv-x="1451" 
d="M653 1864h145v-1170h663v-145h-808v1315z" />
    <glyph glyph-name="uni2518" unicode="&#x2518;" horiz-adv-x="1451" 
d="M-10 549v145h663v1170h145v-1315h-808z" />
    <glyph glyph-name="uni251C" unicode="&#x251c;" horiz-adv-x="1451" 
d="M653 1864h145v-1170h663v-145h-663v-1170h-145v2485z" />
    <glyph glyph-name="uni2524" unicode="&#x2524;" horiz-adv-x="1451" 
d="M-10 549v145h663v1170h145v-2485h-145v1170h-663z" />
    <glyph glyph-name="uni252C" unicode="&#x252c;" horiz-adv-x="1451" 
d="M-10 549v145h1471v-145h-663v-1170h-145v1170h-663z" />
    <glyph glyph-name="uni2534" unicode="&#x2534;" horiz-adv-x="1451" 
d="M-10 549v145h663v1170h145v-1170h663v-145h-1471z" />
    <glyph glyph-name="uni253C" unicode="&#x253c;" horiz-adv-x="1451" 
d="M-10 549v145h663v1170h145v-1170h663v-145h-663v-1170h-145v1170h-663z" />
    <glyph glyph-name="uni2550" unicode="&#x2550;" horiz-adv-x="1451" 
d="M-10 729v145h1471v-145h-1471zM-10 369v145h1471v-145h-1471z" />
    <glyph glyph-name="uni2551" unicode="&#x2551;" horiz-adv-x="1451" 
d="M473 1864h145v-2485h-145v2485zM833 1864h145v-2485h-145v2485z" />
    <glyph glyph-name="uni2552" unicode="&#x2552;" horiz-adv-x="1451" 
d="M653 874h808v-145h-663v-215h663v-145h-663v-990h-145v1495z" />
    <glyph glyph-name="uni2553" unicode="&#x2553;" horiz-adv-x="1451" 
d="M1461 694v-145h-483v-1170h-145v1170h-215v-1170h-145v1315h988z" />
    <glyph glyph-name="uni2554" unicode="&#x2554;" horiz-adv-x="1451" 
d="M473 874h988v-145h-843v-1350h-145v1495zM833 514h628v-145h-483v-990h-145v1135z" />
    <glyph glyph-name="uni2555" unicode="&#x2555;" horiz-adv-x="1451" 
d="M-10 369v145h663v215h-663v145h808v-1495h-145v990h-663z" />
    <glyph glyph-name="uni2556" unicode="&#x2556;" horiz-adv-x="1451" 
d="M-10 549v145h988v-1315h-145v1170h-215v-1170h-145v1170h-483z" />
    <glyph glyph-name="uni2557" unicode="&#x2557;" horiz-adv-x="1451" 
d="M978 874v-1495h-145v1350h-843v145h988zM618 -621h-145v990h-483v145h628v-1135z" />
    <glyph glyph-name="uni2558" unicode="&#x2558;" horiz-adv-x="1451" 
d="M653 1864h145v-990h663v-145h-663v-215h663v-145h-808v1495z" />
    <glyph glyph-name="uni2559" unicode="&#x2559;" horiz-adv-x="1451" 
d="M833 1864h145v-1170h483v-145h-988v1315h145v-1170h215v1170z" />
    <glyph glyph-name="uni255A" unicode="&#x255a;" horiz-adv-x="1451" 
d="M473 1864h145v-1350h843v-145h-988v1495zM833 1864h145v-990h483v-145h-628v1135z" />
    <glyph glyph-name="uni255B" unicode="&#x255b;" horiz-adv-x="1451" 
d="M-10 369v145h663v215h-663v145h663v990h145v-1495h-808z" />
    <glyph glyph-name="uni255C" unicode="&#x255c;" horiz-adv-x="1451" 
d="M978 549h-988v145h483v1170h145v-1170h215v1170h145v-1315z" />
    <glyph glyph-name="uni255D" unicode="&#x255d;" horiz-adv-x="1451" 
d="M978 369h-988v145h843v1350h145v-1495zM473 1864h145v-1135h-628v145h483v990z" />
    <glyph glyph-name="uni255E" unicode="&#x255e;" horiz-adv-x="1451" 
d="M653 1864h145v-990h663v-145h-663v-215h663v-145h-663v-990h-145v2485z" />
    <glyph glyph-name="uni255F" unicode="&#x255f;" horiz-adv-x="1451" 
d="M833 1864h145v-1170h483v-145h-483v-1170h-145v2485zM473 1864h145v-2485h-145v2485z" />
    <glyph glyph-name="uni2560" unicode="&#x2560;" horiz-adv-x="1451" 
d="M618 -621h-145v2485h145v-2485zM833 514h628v-145h-483v-990h-145v1135zM833 1864h145v-990h483v-145h-628v1135z" />
    <glyph glyph-name="uni2561" unicode="&#x2561;" horiz-adv-x="1451" 
d="M-10 369v145h663v215h-663v145h663v990h145v-2485h-145v990h-663z" />
    <glyph glyph-name="uni2562" unicode="&#x2562;" horiz-adv-x="1451" 
d="M-10 549v145h483v1170h145v-2485h-145v1170h-483zM833 1864h145v-2485h-145v2485z" />
    <glyph glyph-name="uni2563" unicode="&#x2563;" horiz-adv-x="1451" 
d="M833 1864h145v-2485h-145v2485zM473 1864h145v-1135h-628v145h483v990zM618 -621h-145v990h-483v145h628v-1135z" />
    <glyph glyph-name="uni2564" unicode="&#x2564;" horiz-adv-x="1451" 
d="M-10 369v145h1471v-145h-663v-990h-145v990h-663zM-10 729v145h1471v-145h-1471z" />
    <glyph glyph-name="uni2565" unicode="&#x2565;" horiz-adv-x="1451" 
d="M-10 549v145h1471v-145h-483v-1170h-145v1170h-215v-1170h-145v1170h-483z" />
    <glyph glyph-name="uni2566" unicode="&#x2566;" horiz-adv-x="1451" 
d="M618 -621h-145v990h-483v145h628v-1135zM833 514h628v-145h-483v-990h-145v1135zM1461 874v-145h-1471v145h1471z" />
    <glyph glyph-name="uni2567" unicode="&#x2567;" horiz-adv-x="1451" 
d="M-10 729v145h663v990h145v-990h663v-145h-1471zM-10 369v145h1471v-145h-1471z" />
    <glyph glyph-name="uni2568" unicode="&#x2568;" horiz-adv-x="1451" 
d="M-10 549v145h483v1170h145v-1170h215v1170h145v-1170h483v-145h-1471z" />
    <glyph glyph-name="uni2569" unicode="&#x2569;" horiz-adv-x="1451" 
d="M833 1864h145v-990h483v-145h-628v1135zM473 1864h145v-1135h-628v145h483v990zM-10 369v145h1471v-145h-1471z" />
    <glyph glyph-name="uni256A" unicode="&#x256a;" horiz-adv-x="1451" 
d="M-10 369v145h663v215h-663v145h663v990h145v-990h663v-145h-663v-215h663v-145h-663v-990h-145v990h-663z" />
    <glyph glyph-name="uni256B" unicode="&#x256b;" horiz-adv-x="1451" 
d="M833 1864h145v-1170h483v-145h-483v-1170h-145v1170h-215v-1170h-145v1170h-483v145h483v1170h145v-1170h215v1170z" />
    <glyph glyph-name="uni256C" unicode="&#x256c;" horiz-adv-x="1451" 
d="M833 1864h145v-990h483v-145h-628v1135zM618 -621h-145v990h-483v145h628v-1135zM833 514h628v-145h-483v-990h-145v1135zM473 1864h145v-1135h-628v145h483v990z" />
    <glyph glyph-name="upblock" unicode="&#x2580;" horiz-adv-x="1451" 
d="M1451 621h-1451v1243h1451v-1243z" />
    <glyph glyph-name="dnblock" unicode="&#x2584;" horiz-adv-x="1451" 
d="M1451 -621h-1451v1242h1451v-1242z" />
    <glyph glyph-name="block" unicode="&#x2588;" horiz-adv-x="1451" 
d="M1451 -621h-1451v2485h1451v-2485z" />
    <glyph glyph-name="lfblock" unicode="&#x258c;" horiz-adv-x="1451" 
d="M726 -621h-726v2485h726v-2485z" />
    <glyph glyph-name="rtblock" unicode="&#x2590;" horiz-adv-x="1451" 
d="M1451 -621h-726v2485h726v-2485z" />
    <glyph glyph-name="ltshade" unicode="&#x2591;" horiz-adv-x="1451" 
d="M103 1314h104v-98h-104v98zM517 1314h104v-98h-104v98zM933 1314h103v-98h-103v98zM310 1119h104v-96h-104v96zM725 1119h104v-96h-104v96zM1140 1119h104v-96h-104v96zM933 927h103v-96h-103v96zM517 927h104v-96h-104v96zM103 927h104v-96h-104v96zM1140 732h104v-96
h-104v96zM725 732h104v-96h-104v96zM310 732h104v-96h-104v96zM103 540h104v-96h-104v96zM517 540h104v-96h-104v96zM933 540h103v-96h-103v96zM1140 345h104v-96h-104v96zM725 345h104v-96h-104v96zM310 345h104v-96h-104v96zM103 153h104v-97h-104v97zM517 153h104v-97
h-104v97zM933 153h103v-97h-103v97zM310 -42h104v-94h-104v94zM725 -42h104v-94h-104v94zM1140 -42h104v-94h-104v94zM933 -234h103v-97h-103v97zM517 -234h104v-97h-104v97zM103 -234h104v-97h-104v97zM310 -427h104v-96h-104v96zM725 -427h104v-96h-104v96zM1140 -427h104
v-96h-104v96zM310 1506h104v-98h-104v98zM725 1506h104v-98h-104v98zM1140 1506h104v-98h-104v98zM103 1699h104v-96h-104v96zM517 1699h104v-96h-104v96zM933 1699h103v-96h-103v96zM1347 1314h104v-98h-104v98zM1347 927h104v-96h-104v96zM1347 540h104v-96h-104v96z
M1347 153h104v-97h-104v97zM1347 -234h104v-97h-104v97zM1347 1699h104v-96h-104v96z" />
    <glyph glyph-name="shade" unicode="&#x2592;" horiz-adv-x="1451" 
d="M103 1314h104v-98h-104v98zM310 1314h104v-98h-104v98zM517 1314h104v-98h-104v98zM725 1314h104v-98h-104v98zM933 1314h104v-98h-104v98zM1140 1314h104v-98h-104v98zM0 1119h103v-96h-103v96zM207 1119h103v-96h-103v96zM414 1119h103v-96h-103v96zM621 1119h104v-96
h-104v96zM829 1119h104v-96h-104v96zM1037 1119h103v-96h-103v96zM103 927h104v-96h-104v96zM310 927h104v-96h-104v96zM517 927h104v-96h-104v96zM725 927h104v-96h-104v96zM933 927h104v-96h-104v96zM1140 927h104v-96h-104v96zM0 732h103v-96h-103v96zM207 732h103v-96
h-103v96zM414 732h103v-96h-103v96zM621 732h104v-96h-104v96zM829 732h104v-96h-104v96zM1037 732h103v-96h-103v96zM103 540h104v-96h-104v96zM310 540h104v-96h-104v96zM517 540h104v-96h-104v96zM725 540h104v-96h-104v96zM933 540h104v-96h-104v96zM1140 540h104v-96
h-104v96zM0 345h103v-96h-103v96zM414 345h103v-96h-103v96zM621 345h104v-96h-104v96zM829 345h104v-96h-104v96zM1037 345h103v-96h-103v96zM207 345h103v-96h-103v96zM1140 153h104v-97h-104v97zM933 153h104v-97h-104v97zM725 153h104v-97h-104v97zM517 153h104v-97
h-104v97zM310 153h104v-97h-104v97zM103 153h104v-97h-104v97zM0 -42h103v-94h-103v94zM207 -42h103v-94h-103v94zM414 -42h103v-94h-103v94zM621 -42h104v-94h-104v94zM829 -42h104v-94h-104v94zM1037 -42h103v-94h-103v94zM1140 -234h104v-97h-104v97zM933 -234h104v-97
h-104v97zM725 -234h104v-97h-104v97zM517 -234h104v-97h-104v97zM310 -234h104v-97h-104v97zM103 -234h104v-97h-104v97zM0 -427h103v-96h-103v96zM207 -427h103v-96h-103v96zM414 -427h103v-96h-103v96zM621 -427h104v-96h-104v96zM829 -427h104v-96h-104v96zM1037 -427
h103v-96h-103v96zM0 1506h103v-98h-103v98zM207 1506h103v-98h-103v98zM414 1506h103v-98h-103v98zM621 1506h104v-98h-104v98zM829 1506h104v-98h-104v98zM1037 1506h103v-98h-103v98zM103 1699h104v-96h-104v96zM310 1699h104v-96h-104v96zM517 1699h104v-96h-104v96z
M725 1699h104v-96h-104v96zM933 1699h104v-96h-104v96zM1140 1699h104v-96h-104v96zM1347 1314h104v-98h-104v98zM1244 1119h103v-96h-103v96zM1347 927h104v-96h-104v96zM1244 732h103v-96h-103v96zM1347 540h104v-96h-104v96zM1244 345h103v-96h-103v96zM1347 153h104v-97
h-104v97zM1244 -42h103v-94h-103v94zM1347 -234h104v-97h-104v97zM1244 -427h103v-96h-103v96zM1244 1506h103v-98h-103v98zM1347 1699h104v-96h-104v96z" />
    <glyph glyph-name="dkshade" unicode="&#x2593;" horiz-adv-x="1493" 
d="M1493 -621h-1493v290h106v97h-106v290h106v97h-106v291h106v96h-106v289h106v98h-106v289h106v98h-106v289h106v96h107v-96h106v96h107v-96h106v96h107v-96h107v96h107v-96h107v96h107v-96h106v96h107v-96h106v96h107v-193h-107v-98h107v-289h-107v-96h107v-291h-107v-96
h107v-291h-107v-96h107v-291h-107v-94h107v-291h-107v-96h107v-98zM106 1119v-96h107v96h-107zM319 1119v-96h107v96h-107zM532 1119v-96h107v96h-107zM746 1119v-96h107v96h-107zM960 927h-107v-98h107v98zM746 927h-107v-98h107v98zM532 927h-106v-98h106v98zM319 927
h-106v-98h106v98zM106 732v-96h107v96h-107zM319 732v-96h107v96h-107zM532 732v-96h107v96h-107zM746 732v-96h107v96h-107zM319 540h-106v-96h106v96zM426 540v-96h106v96h-106zM639 540v-96h107v96h-107zM853 540v-96h107v96h-107zM106 345v-96h107v96h-107zM532 345v-96
h107v96h-107zM426 249v96h-107v-96h107zM746 345v-96h107v96h-107zM960 56v97h-107v-97h107zM746 56v97h-107v-97h107zM532 56v97h-106v-97h106zM319 56v97h-106v-97h106zM106 -42v-94h107v94h-107zM319 -42v-94h107v94h-107zM532 -42v-94h107v94h-107zM746 -42v-94h107v94
h-107zM960 -331v97h-107v-97h107zM746 -331v97h-107v-97h107zM532 -331v97h-106v-97h106zM319 -331v97h-106v-97h106zM106 -427v-96h107v96h-107zM319 -427v-96h107v96h-107zM532 -427v-96h107v96h-107zM746 -427v-96h107v96h-107zM960 1314h-107v-98h107v98zM746 1314h-107
v-98h107v98zM532 1314h-106v-98h106v98zM319 1314h-106v-98h106v98zM853 1506h-107v-98h107v98zM639 1506h-107v-98h107v98zM426 1506h-107v-98h107v98zM213 1506h-107v-98h107v98zM960 1119v-96h107v96h-107zM1173 1119v-96h107v96h-107zM1386 927h-106v-98h106v98z
M1173 927h-106v-98h106v98zM960 732v-96h107v96h-107zM1173 732v-96h107v96h-107zM1173 540h-106v-96h106v96zM1280 540v-96h106v96h-106zM960 345v-96h107v96h-107zM1280 249v96h-107v-96h107zM1386 56v97h-106v-97h106zM1173 56v97h-106v-97h106zM960 -42v-94h107v94h-107
zM1173 -42v-94h107v94h-107zM1386 -331v97h-106v-97h106zM1173 -331v97h-106v-97h106zM960 -427v-96h107v96h-107zM1173 -427v-96h107v96h-107zM1386 1314h-106v-98h106v98zM1173 1314h-106v-98h106v98zM1280 1506h-107v-98h107v98zM1067 1506h-107v-98h107v98z" />
    <glyph glyph-name="filledbox" unicode="&#x25a0;" horiz-adv-x="1237" 
d="M123 1108h991v-991h-991v991z" />
    <glyph glyph-name="filledrect" unicode="&#x25ac;" horiz-adv-x="2048" 
d="M0 616h2048v-616h-2048v616z" />
    <glyph glyph-name="triagup" unicode="&#x25b2;" horiz-adv-x="2027" 
d="M414 0l600 1198l598 -1198h-1198z" />
    <glyph glyph-name="triagrt" unicode="&#x25ba;" horiz-adv-x="2027" 
d="M401 1196l1225 -610l-1225 -613v1223z" />
    <glyph glyph-name="triagdn" unicode="&#x25bc;" horiz-adv-x="2027" 
d="M1612 1171l-598 -1198l-600 1198h1198z" />
    <glyph glyph-name="triaglf" unicode="&#x25c4;" horiz-adv-x="2027" 
d="M1626 1196v-1223l-1225 613z" />
    <glyph glyph-name="circle" unicode="&#x25cb;" horiz-adv-x="1237" 
d="M167 612q0 122 60 227t164.5 165.5t225.5 60.5q122 0 227 -60.5t165.5 -166t60.5 -226.5t-60.5 -225.5t-165 -164.5t-227.5 -60q-122 0 -226 60t-164 164t-60 226zM253 612q0 -98 49 -182.5t132.5 -133t182.5 -48.5q98 0 182.5 48t134.5 133t50 183t-49 183.5
t-134.5 134.5t-183.5 49q-97 0 -181.5 -49t-133.5 -133.5t-49 -184.5z" />
    <glyph glyph-name="invbullet" unicode="&#x25d8;" horiz-adv-x="1237" 
d="M41 0v1155h1155v-1155h-1155zM176 577q0 -118 59 -220t160.5 -161t220.5 -59q118 0 220.5 59t161.5 161.5t59 219.5q0 118 -59 220.5t-161 161.5t-221 59q-118 0 -220.5 -59.5t-161 -161.5t-58.5 -220z" />
    <glyph glyph-name="invcircle" unicode="&#x25d9;" horiz-adv-x="1237" 
d="M41 0v1155h1155v-1155h-1155zM253 577q0 97 49 182t134 134t182 49t182 -49t134 -134t49 -182t-49 -182t-134 -134t-182 -49t-182 49t-134 134t-49 182zM176 577q0 -118 59 -220t160.5 -161t220.5 -59q118 0 220.5 59t161.5 161.5t59 219.5q0 118 -59 220.5t-161 161.5
t-221 59q-118 0 -220.5 -59.5t-161 -161.5t-58.5 -220z" />
    <glyph glyph-name="smileface" unicode="&#x263a;" horiz-adv-x="2091" 
d="M1657 584q0 -254 -180 -432t-432 -179q-253 0 -432 179t-180 432q0 250 177 431t435 181t435 -181.5t177 -430.5zM1567 584q0 217 -153 370t-369 154q-218 0 -369 -154q-153 -153 -153 -370q0 -216 153 -369t369 -154q217 0 369 154t153 369zM889 711q0 -32 -23 -55
t-55 -23t-54.5 23t-22.5 55t22.5 54.5t54.5 22.5t55 -22.5t23 -54.5zM1356 711q0 -32 -22 -55t-54 -23t-55.5 23t-23.5 55t23.5 54.5t55.5 22.5t54 -22.5t22 -54.5zM822 422q76 -137 223 -137q145 0 221 137l62 -35q-98 -186 -283 -186t-283 186z" />
    <glyph glyph-name="invsmileface" unicode="&#x263b;" horiz-adv-x="2155" 
d="M1689 584q0 -254 -180 -432t-432 -179q-253 0 -432 179t-180 432q0 250 177 431t435 181t435 -181.5t177 -430.5zM921 711q0 32 -23 54.5t-55 22.5t-54.5 -22.5t-22.5 -54.5t22.5 -55t54.5 -23t55 23t23 55zM1388 711q0 32 -22 54.5t-54 22.5t-55.5 -22.5t-23.5 -54.5
t23.5 -55t55.5 -23t54 23t22 55zM794 387q98 -186 283 -186t283 186l-62 35q-76 -137 -221 -137q-147 0 -223 137z" />
    <glyph glyph-name="sun" unicode="&#x263c;" horiz-adv-x="1877" 
d="M905 1083h66v-217q66 -6 115.5 -25.5t109.5 -64.5l186 182l45 -45l-184 -184q86 -113 92 -229h215v-62h-215q-17 -125 -92 -221l184 -188l-49 -43l-182 182q-36 -26 -73 -47t-68 -29t-84 -16v-217h-66v217q-121 17 -221 90l-188 -180l-43 45l182 184q-78 100 -94 225
h-215v62h215q12 128 92 223l-180 184l40 49l189 -182q110 77 223 90v217zM936 805q-139 0 -235.5 -99t-96.5 -235t97.5 -234t234.5 -98q139 0 235 97q99 97 99 235q0 136 -98 235t-236 99z" />
    <glyph glyph-name="female" unicode="&#x2640;" horiz-adv-x="1536" 
d="M732 578q-76 11 -129.5 49t-87.5 99t-34 136q0 126 87 208.5t201 82.5q118 0 201 -86q86 -83 86 -205q0 -109 -72 -190t-178 -94v-166h256v-70h-256v-262h-74v262h-258v70h258v166zM767 1069q-56 0 -102 -26.5t-74.5 -74t-28.5 -104.5q0 -86 61.5 -146.5t143.5 -60.5
q87 0 146 62q61 61 61 145q0 58 -28.5 105.5t-75 73.5t-103.5 26z" />
    <glyph glyph-name="male" unicode="&#x2642;" horiz-adv-x="1536" 
d="M1023 1024q-147 43 -190 86q-8 5 -8 18q0 8 6 17q6 4 14 4l33 -4q68 -17 127 -17q88 0 129 13q36 12 49 12q16 0 16 -14l-6 -27q-16 -60 -16 -158q0 -78 12 -129l4 -32q0 -9 -4 -15l-14 -6q-19 0 -37.5 32.5t-36.5 77.5t-31 95l-237 -238q84 -81 84 -190
q0 -125 -87.5 -212t-203.5 -87t-202.5 81.5t-86.5 203.5q0 120 84.5 205t206.5 85q71 0 154 -43zM628 750q-89 0 -151 -61t-62 -150q0 -95 63 -154t150 -59q89 0 150 62.5t61 150.5q0 87 -62 149t-149 62z" />
    <glyph glyph-name="spade" unicode="&#x2660;" horiz-adv-x="1088" 
d="M544 1231q25 -96 73 -180.5t199 -223.5q141 -126 176 -192t37 -137q0 -96 -65 -160t-152 -64q-157 0 -256 191q3 -159 42.5 -242t121 -130t213.5 -56l8 -37h-792l6 37q124 0 210 48.5t129.5 134.5t43.5 231v14q-90 -191 -260 -191q-89 0 -154 64t-65 156q0 89 44.5 157
t143.5 150q139 119 205 212t92 218z" />
    <glyph glyph-name="club" unicode="&#x2663;" horiz-adv-x="1344" 
d="M1094 0h-842l8 35q135 27 194.5 54t107 87t74 134.5t26.5 150.5l-2 47q-57 -120 -146 -179t-178 -59q-77 0 -141.5 38t-99.5 101t-35 140q0 115 73 194t166 80q62 0 162 -51q-38 65 -55 105q-11 37 -11 75q0 121 81 196t194 75q116 0 196 -80t80 -187q0 -86 -69 -184
q84 40 100 43q22 8 61 8q105 0 173 -78q73 -76 73 -192t-78 -198.5t-194 -82.5q-56 0 -115 24.5t-106.5 65.5t-108.5 146q5 -126 29.5 -202.5t79 -136.5t118 -86.5t177.5 -47.5z" />
    <glyph glyph-name="heart" unicode="&#x2665;" horiz-adv-x="1216" 
d="M610 -23q-22 86 -67.5 177t-221.5 327l-90 123q-75 100 -102 164.5t-27 130.5q0 107 69.5 175.5t170.5 68.5q87 0 158.5 -57t109.5 -177q34 119 105 177.5t159 58.5q97 0 168.5 -68t71.5 -166q0 -86 -44 -181t-155 -232q-140 -179 -204.5 -285.5t-100.5 -235.5z" />
    <glyph glyph-name="diamond" unicode="&#x2666;" horiz-adv-x="1045" 
d="M519 1223q72 -125 204.5 -305.5t254.5 -317.5q-68 -70 -221 -273.5t-236 -351.5q-37 71 -129.5 201.5t-166.5 226t-159 197.5q116 137 245.5 309.5t207.5 313.5z" />
    <glyph glyph-name="musicalnote" unicode="&#x266a;" horiz-adv-x="1024" 
d="M489 1153h76v-100l153 -193q109 -147 109 -317q0 -150 -94 -271h-47q57 128 57 248t-57 199t-121 90v-506q0 -123 -73.5 -198.5t-180.5 -75.5q-57 0 -86 27t-29 73q0 77 62.5 135t140.5 58q44 0 90 -19v850z" />
    <glyph glyph-name="musicalnotedbl" unicode="&#x266b;" horiz-adv-x="1536" 
d="M1263 324q0 -78 -27 -134.5t-88.5 -98.5t-134.5 -42q-57 0 -85.5 27t-28.5 74q0 81 61 136.5t139 55.5q48 0 90 -18v448l-550 -149v-394q0 -117 -68.5 -194.5t-183.5 -77.5q-57 0 -86 26.5t-29 71.5q0 76 62 136t141 57q45 0 90 -19v752l698 178v-835zM639 750l550 149
v117l-550 -152v-114z" />
    <glyph glyph-name="IJ" unicode="&#x132;" horiz-adv-x="1607" 
d="M137 0v1409h295v-1409h-295zM992 -20q-219 0 -336.5 95t-156.5 307l293 43q18 -109 67 -161.5t135 -52.5q88 0 133.5 59t45.5 169v739h-281v231h575v-963q0 -220 -125 -343t-350 -123z" />
    <glyph glyph-name="ij" unicode="&#x133;" horiz-adv-x="1139" 
d="M143 1277v207h281v-207h-281zM143 0v1082h281v-1082h-281zM713 1277v207h281v-207h-281zM707 -425q-100 0 -170 9v198l51 -4q72 0 98.5 31.5t26.5 130.5v1142h281v-1210q0 -143 -72.5 -220t-214.5 -77z" />
    <glyph glyph-name="napostrophe" unicode="&#x149;" horiz-adv-x="1451" 
d="M1044 0v607q0 285 -193 285q-102 0 -164.5 -87.5t-62.5 -224.5v-580h-281v840q0 87 -2.5 142.5t-5.5 99.5h268q3 -19 8 -101.5t5 -113.5h4q57 124 143 180t205 56q172 0 264 -106t92 -310v-687h-280zM269 1214q0 -121 -24.5 -210t-84.5 -173h-182q131 168 131 318h-127
v260h287v-195z" />
    <glyph glyph-name="minute" unicode="&#x2032;" horiz-adv-x="491" 
d="M85 890l64 519h306l-158 -519h-212z" />
    <glyph glyph-name="second" unicode="&#x2033;" horiz-adv-x="981" 
d="M85 890l64 519h306l-158 -519h-212zM574 890l64 519h306l-158 -519h-212z" />
    <glyph glyph-name="uni2105" unicode="&#x2105;" horiz-adv-x="1813" 
d="M419 525q-178 0 -271.5 116t-93.5 335q0 215 93.5 332t268.5 117q131 0 216 -69.5t109 -206.5l-188 -12q-8 63 -41 100.5t-92 37.5q-85 0 -119.5 -71.5t-34.5 -217.5q0 -151 35 -223.5t119 -72.5q60 0 94 38.5t42 105.5l188 -10q-17 -140 -105.5 -219.5t-219.5 -79.5z
M1759 432q0 -218 -90 -333t-264 -115q-176 0 -265 114t-89 334q0 224 86 336.5t272 112.5q180 0 265 -113.5t85 -335.5zM548 0h-206l920 1409h209zM1544 432q0 159 -30.5 227t-104.5 68q-80 0 -110.5 -69t-30.5 -226q0 -160 32 -225.5t107 -65.5q73 0 105 68t32 223z" />
    <glyph glyph-name="uni2113" unicode="&#x2113;" horiz-adv-x="1001" 
d="M582 195q80 0 122.5 53t65.5 160h146q-84 -428 -415 -428q-169 0 -248.5 83.5t-79.5 246.5v166l-132 -48v195l133 48l-1 390q0 180 105 274t296 94q167 0 260.5 -77.5t93.5 -219.5q0 -192 -124.5 -334t-350.5 -220v-201q0 -182 129 -182zM689 1107q0 69 -27 111t-84 42
q-117 0 -117 -148v-336q106 43 167 132.5t61 198.5z" />
    <glyph glyph-name="uni25A1" unicode="&#x25a1;" horiz-adv-x="1237" 
d="M6 1225h1225v-1225h-1225v1225zM82 1149v-1073h1073v1073h-1073z" />
    <glyph glyph-name="uni25AA" unicode="&#x25aa;" horiz-adv-x="726" 
d="M617 383h-508v508h508v-508z" />
    <glyph glyph-name="uni25AB" unicode="&#x25ab;" horiz-adv-x="726" 
d="M617 383h-508v508h508v-508zM541 459v354h-356v-354h356z" />
    <glyph glyph-name="uni25CF" unicode="&#x25cf;" horiz-adv-x="1237" 
d="M618 1018q110 0 218.5 -58t165.5 -167t57 -215q0 -183 -129 -312t-312 -129q-182 0 -311 129.5t-129 311.5q0 108 55.5 214.5t163 166t221.5 59.5z" />
    <glyph glyph-name="openbullet" unicode="&#x25e6;" horiz-adv-x="726" 
d="M611 637q0 -107 -75.5 -177.5t-172.5 -70.5q-68 0 -124 32.5t-90 89.5t-34 126q0 103 73.5 175.5t174.5 72.5q103 0 174 -74q74 -71 74 -174zM535 637q0 70 -51 121t-121 51t-121 -51t-51 -121q0 -71 49 -121.5t123 -50.5q77 0 124.5 52.5t47.5 119.5z" />
    <glyph glyph-name="Amacron" unicode="&#x100;" horiz-adv-x="1479" 
d="M1133 0l-125 360h-537l-125 -360h-295l514 1409h348l512 -1409h-292zM739 1192l-6 -22q-10 -36 -24 -82t-172 -506h405l-139 405l-43 136zM432 1705h612v-168h-612v168z" />
    <glyph glyph-name="amacron" unicode="&#x101;" horiz-adv-x="1139" 
d="M393 -20q-157 0 -245 85.5t-88 240.5q0 168 109.5 256t317.5 90l233 4v55q0 106 -37 157.5t-121 51.5q-78 0 -114.5 -35.5t-45.5 -117.5l-293 14q27 158 144.5 239.5t320.5 81.5q205 0 316 -101t111 -287v-394q0 -91 20.5 -125.5t68.5 -34.5q32 0 62 6v-152
q-25 -6 -45 -11t-40 -8t-42.5 -5t-52.5 -2q-106 0 -156.5 52t-60.5 153h-6q-118 -213 -356 -213zM720 501l-144 -2q-98 -4 -139 -21.5t-62.5 -53.5t-21.5 -96q0 -77 35.5 -114.5t94.5 -37.5q66 0 120.5 36t85.5 99.5t31 134.5v55zM279 1371h612v-168h-612v168z" />
    <glyph glyph-name="Ccircumflex" unicode="&#x108;" horiz-adv-x="1479" 
d="M795 212q267 0 371 268l257 -97q-83 -204 -243.5 -303.5t-384.5 -99.5q-340 0 -525.5 192.5t-185.5 538.5q0 347 179 533t519 186q248 0 404 -99.5t219 -292.5l-260 -71q-33 106 -129.5 168.5t-227.5 62.5q-200 0 -303.5 -124t-103.5 -363q0 -243 106.5 -371t307.5 -128z
M1170 1559v-29h-159l-203 151h-4l-211 -151h-160v29l258 276h229z" />
    <glyph glyph-name="ccircumflex" unicode="&#x109;" horiz-adv-x="1139" 
d="M594 -20q-246 0 -380 146.5t-134 408.5q0 268 135 417.5t383 149.5q191 0 316 -96t157 -265l-283 -14q-12 83 -60 132.5t-136 49.5q-217 0 -217 -363q0 -374 221 -374q80 0 134 50.5t67 150.5l282 -13q-15 -111 -79.5 -198t-169.5 -134.5t-236 -47.5zM967 1211v-28h-159
l-203 192h-4l-211 -192h-160v28l258 318h229z" />
    <glyph glyph-name="Cdotaccent" unicode="&#x10a;" horiz-adv-x="1479" 
d="M795 212q267 0 371 268l257 -97q-83 -204 -243.5 -303.5t-384.5 -99.5q-340 0 -525.5 192.5t-185.5 538.5q0 347 179 533t519 186q248 0 404 -99.5t219 -292.5l-260 -71q-33 106 -129.5 168.5t-227.5 62.5q-200 0 -303.5 -124t-103.5 -363q0 -243 106.5 -371t307.5 -128z
M646 1547v207h281v-207h-281z" />
    <glyph glyph-name="cdotaccent" unicode="&#x10b;" horiz-adv-x="1139" 
d="M594 -20q-246 0 -380 146.5t-134 408.5q0 268 135 417.5t383 149.5q191 0 316 -96t157 -265l-283 -14q-12 83 -60 132.5t-136 49.5q-217 0 -217 -363q0 -374 221 -374q80 0 134 50.5t67 150.5l282 -13q-15 -111 -79.5 -198t-169.5 -134.5t-236 -47.5zM460 1277v207h281
v-207h-281z" />
    <glyph glyph-name="Emacron" unicode="&#x112;" horiz-adv-x="1366" 
d="M137 0v1409h1108v-228h-813v-354h752v-228h-752v-371h854v-228h-1149zM386 1705h612v-168h-612v168z" />
    <glyph glyph-name="emacron" unicode="&#x113;" horiz-adv-x="1139" 
d="M586 -20q-244 0 -375 144.5t-131 421.5q0 268 133 412t377 144q233 0 356 -154.5t123 -452.5v-8h-694q0 -158 58.5 -238.5t166.5 -80.5q149 0 188 129l265 -23q-115 -294 -467 -294zM586 925q-99 0 -152.5 -69t-56.5 -193h420q-8 131 -63 196.5t-148 65.5zM281 1371h612
v-168h-612v168z" />
    <glyph glyph-name="Ebreve" unicode="&#x114;" horiz-adv-x="1366" 
d="M137 0v1409h1108v-228h-813v-354h752v-228h-752v-371h854v-228h-1149zM700 1520q-145 0 -243 81t-109 207h163q15 -62 68 -99t123 -37q72 0 124 36.5t66 99.5h164q-19 -133 -114.5 -210.5t-241.5 -77.5z" />
    <glyph glyph-name="ebreve" unicode="&#x115;" horiz-adv-x="1139" 
d="M586 -20q-244 0 -375 144.5t-131 421.5q0 268 133 412t377 144q233 0 356 -154.5t123 -452.5v-8h-694q0 -158 58.5 -238.5t166.5 -80.5q149 0 188 129l265 -23q-115 -294 -467 -294zM586 925q-99 0 -152.5 -69t-56.5 -193h420q-8 131 -63 196.5t-148 65.5zM567 1183
q-151 0 -246 91t-106 232h163q16 -77 68 -121.5t123 -44.5t123.5 43.5t66.5 122.5h164q-18 -148 -110.5 -235.5t-245.5 -87.5z" />
    <glyph glyph-name="Edotaccent" unicode="&#x116;" horiz-adv-x="1366" 
d="M137 0v1409h1108v-228h-813v-354h752v-228h-752v-371h854v-228h-1149zM565 1547v207h281v-207h-281z" />
    <glyph glyph-name="edotaccent" unicode="&#x117;" horiz-adv-x="1139" 
d="M586 -20q-244 0 -375 144.5t-131 421.5q0 268 133 412t377 144q233 0 356 -154.5t123 -452.5v-8h-694q0 -158 58.5 -238.5t166.5 -80.5q149 0 188 129l265 -23q-115 -294 -467 -294zM586 925q-99 0 -152.5 -69t-56.5 -193h420q-8 131 -63 196.5t-148 65.5zM441 1277v207
h281v-207h-281z" />
    <glyph glyph-name="Gcircumflex" unicode="&#x11c;" horiz-adv-x="1593" 
d="M806 211q115 0 223 33.5t167 85.5v195h-344v218h614v-518q-112 -115 -291.5 -180t-376.5 -65q-344 0 -529 190.5t-185 540.5q0 348 186 533.5t535 185.5q496 0 631 -367l-272 -82q-44 107 -138 162t-221 55q-208 0 -316 -126t-108 -361q0 -239 111.5 -369.5t313.5 -130.5
zM1165 1559v-29h-159l-203 151h-4l-211 -151h-160v29l258 276h229z" />
    <glyph glyph-name="gcircumflex" unicode="&#x11d;" 
d="M596 -434q-198 0 -318.5 75.5t-148.5 215.5l281 33q15 -65 64.5 -102t129.5 -37q117 0 171 72t54 214v57l2 107h-2q-93 -199 -348 -199q-189 0 -293 142t-104 406q0 265 107 409t311 144q236 0 327 -195h5q0 35 4.5 95t9.5 79h266q-6 -108 -6 -250v-799q0 -231 -131 -349
t-381 -118zM831 556q0 167 -59.5 260.5t-169.5 93.5q-225 0 -225 -360q0 -353 223 -353q112 0 171.5 93.5t59.5 265.5zM970 1211v-28h-159l-203 192h-4l-211 -192h-160v28l258 318h229z" />
    <glyph glyph-name="Gdotaccent" unicode="&#x120;" horiz-adv-x="1593" 
d="M806 211q115 0 223 33.5t167 85.5v195h-344v218h614v-518q-112 -115 -291.5 -180t-376.5 -65q-344 0 -529 190.5t-185 540.5q0 348 186 533.5t535 185.5q496 0 631 -367l-272 -82q-44 107 -138 162t-221 55q-208 0 -316 -126t-108 -361q0 -239 111.5 -369.5t313.5 -130.5
zM667 1547v207h281v-207h-281z" />
    <glyph glyph-name="gdotaccent" unicode="&#x121;" 
d="M596 -434q-198 0 -318.5 75.5t-148.5 215.5l281 33q15 -65 64.5 -102t129.5 -37q117 0 171 72t54 214v57l2 107h-2q-93 -199 -348 -199q-189 0 -293 142t-104 406q0 265 107 409t311 144q236 0 327 -195h5q0 35 4.5 95t9.5 79h266q-6 -108 -6 -250v-799q0 -231 -131 -349
t-381 -118zM831 556q0 167 -59.5 260.5t-169.5 93.5q-225 0 -225 -360q0 -353 223 -353q112 0 171.5 93.5t59.5 265.5zM485 1277v207h281v-207h-281z" />
    <glyph glyph-name="Gcommaaccent" unicode="&#x122;" horiz-adv-x="1593" 
d="M806 211q115 0 223 33.5t167 85.5v195h-344v218h614v-518q-112 -115 -291.5 -180t-376.5 -65q-344 0 -529 190.5t-185 540.5q0 348 186 533.5t535 185.5q496 0 631 -367l-272 -82q-44 107 -138 162t-221 55q-208 0 -316 -126t-108 -361q0 -239 111.5 -369.5t313.5 -130.5
zM938 -204q0 -73 -21.5 -131.5t-72.5 -119.5h-137q94 100 94 170h-108v207h245v-126z" />
    <glyph glyph-name="gcommaaccent" unicode="&#x123;" 
d="M596 -434q-198 0 -318.5 75.5t-148.5 215.5l281 33q15 -65 64.5 -102t129.5 -37q117 0 171 72t54 214v57l2 107h-2q-93 -199 -348 -199q-189 0 -293 142t-104 406q0 265 107 409t311 144q236 0 327 -195h5q0 35 4.5 95t9.5 79h266q-6 -108 -6 -250v-799q0 -231 -131 -349
t-381 -118zM831 556q0 167 -59.5 260.5t-169.5 93.5q-225 0 -225 -360q0 -353 223 -353q112 0 171.5 93.5t59.5 265.5zM496 1358q0 87 22 145.5t62 105.5h147q-94 -100 -94 -190h108v-207h-245v146z" />
    <glyph glyph-name="Hcircumflex" unicode="&#x124;" horiz-adv-x="1479" 
d="M1046 0v604h-614v-604h-295v1409h295v-561h614v561h295v-1409h-295zM1113 1559v-29h-159l-203 151h-4l-211 -151h-160v29l258 276h229z" />
    <glyph glyph-name="hcircumflex" unicode="&#x125;" 
d="M420 866q57 124 143 180t205 56q172 0 264 -106t92 -310v-686h-280v606q0 285 -193 285q-102 0 -164.5 -87.5t-62.5 -224.5v-579h-281v1484h281v-405q0 -109 -8 -213h4zM1012 1638v-29h-159l-203 151h-4l-211 -151h-160v29l258 276h229z" />
    <glyph glyph-name="Hbar" unicode="&#x126;" horiz-adv-x="1479" 
d="M1057 0v604h-625v-604h-295v1045h-123v170h123v194h295v-194h625v194h284v-194h124v-170h-124v-1045h-284zM1057 848v197h-625v-197h625z" />
    <glyph glyph-name="hbar" unicode="&#x127;" 
d="M420 826q57 124 143 180t205 56q172 0 264 -106t92 -310v-646h-280v566q0 285 -193 285q-102 0 -164.5 -87.5t-62.5 -224.5v-539h-281v1175h-133v170h133v139h281v-139h306v-170h-306v-136q0 -109 -8 -213h4z" />
    <glyph glyph-name="Itilde" unicode="&#x128;" horiz-adv-x="569" 
d="M137 0v1409h295v-1409h-295zM454 1530q-44 0 -88.5 19t-86.5 42.5t-79.5 42.5t-67.5 19q-41 0 -62.5 -23t-35.5 -100h-137q8 113 32.5 169.5t70.5 90t122 33.5q45 0 90 -19t87 -42.5t78.5 -42.5t65.5 -19q40 0 62.5 24.5t36.5 98.5h135q-7 -157 -63.5 -225t-159.5 -68z
" />
    <glyph glyph-name="itilde" unicode="&#x129;" horiz-adv-x="569" 
d="M145 0v1082h281v-1082h-281zM454 1183q-44 0 -88.5 19t-86.5 42.5t-79.5 42.5t-67.5 19q-41 0 -62.5 -23t-35.5 -100h-137q8 113 32.5 169.5t70.5 90t122 33.5q45 0 90 -19t87 -42.5t78.5 -42.5t65.5 -19q40 0 62.5 24.5t36.5 98.5h135q-7 -157 -63.5 -225t-159.5 -68z
" />
    <glyph glyph-name="Imacron" unicode="&#x12a;" horiz-adv-x="569" 
d="M137 0v1409h295v-1409h-295zM-20 1705h612v-168h-612v168z" />
    <glyph glyph-name="imacron" unicode="&#x12b;" horiz-adv-x="569" 
d="M145 0v1082h281v-1082h-281zM-20 1371h612v-168h-612v168z" />
    <glyph glyph-name="Ibreve" unicode="&#x12c;" horiz-adv-x="569" 
d="M137 0v1409h295v-1409h-295zM284 1520q-145 0 -243 81t-109 207h163q15 -62 68 -99t123 -37q72 0 124 36.5t66 99.5h164q-19 -133 -114.5 -210.5t-241.5 -77.5z" />
    <glyph glyph-name="ibreve" unicode="&#x12d;" horiz-adv-x="569" 
d="M145 0v1082h281v-1082h-281zM285 1183q-151 0 -246 91t-106 232h163q16 -77 68 -121.5t123 -44.5t123.5 43.5t66.5 122.5h164q-18 -148 -110.5 -235.5t-245.5 -87.5z" />
    <glyph glyph-name="Iogonek" unicode="&#x12e;" horiz-adv-x="569" 
d="M137 0v1409h295v-1409h-295zM325 -425q-111 0 -174 54t-63 146q0 75 43.5 142t114.5 104h153q-63 -42 -96 -99.5t-33 -110.5q0 -42 24.5 -67.5t69.5 -25.5q54 0 112 27v-137q-63 -33 -151 -33z" />
    <glyph glyph-name="iogonek" unicode="&#x12f;" horiz-adv-x="569" 
d="M143 1277v207h281v-207h-281zM143 0v1082h281v-1082h-281zM306 -425q-111 0 -174 54t-63 146q0 75 43.5 142t114.5 104h153q-63 -42 -96 -99.5t-33 -110.5q0 -42 24.5 -67.5t69.5 -25.5q54 0 112 27v-137q-63 -33 -151 -33z" />
    <glyph glyph-name="Jcircumflex" unicode="&#x134;" horiz-adv-x="1139" 
d="M524 -20q-219 0 -336.5 95t-156.5 307l293 43q18 -109 67 -161.5t135 -52.5q88 0 133.5 59t45.5 169v739h-281v231h575v-963q0 -220 -125 -343t-350 -123zM1058 1559v-29h-159l-203 151h-4l-211 -151h-160v29l258 276h229z" />
    <glyph glyph-name="jcircumflex" unicode="&#x135;" horiz-adv-x="569" 
d="M647 1211v-28h-159l-203 192h-4l-211 -192h-160v28l258 318h229zM138 -425q-100 0 -170 9v198l51 -4q72 0 98.5 31.5t26.5 130.5v1142h281v-1210q0 -143 -72.5 -220t-214.5 -77z" />
    <glyph glyph-name="Kcommaaccent" unicode="&#x136;" horiz-adv-x="1479" 
d="M1112 0l-506 647l-174 -133v-514h-295v1409h295v-639l635 639h344l-602 -596l651 -813h-348zM875 -204q0 -73 -21.5 -131.5t-72.5 -119.5h-137q94 100 94 170h-108v207h245v-126z" />
    <glyph glyph-name="kcommaaccent" unicode="&#x137;" horiz-adv-x="1139" 
d="M834 0l-289 490l-121 -84v-406h-281v1484h281v-850l386 448h302l-380 -422l409 -660h-307zM725 -204q0 -73 -21.5 -131.5t-72.5 -119.5h-137q94 100 94 170h-108v207h245v-126z" />
    <glyph glyph-name="kgreenlandic" unicode="&#x138;" horiz-adv-x="1139" 
d="M834 0l-289 490l-121 -84v-406h-281v1082h281v-448l386 448h302l-380 -422l409 -660h-307z" />
    <glyph glyph-name="Lcommaaccent" unicode="&#x13b;" 
d="M137 0v1409h295v-1181h756v-228h-1051zM757 -204q0 -73 -21.5 -131.5t-72.5 -119.5h-137q94 100 94 170h-108v207h245v-126z" />
    <glyph glyph-name="lcommaaccent" unicode="&#x13c;" horiz-adv-x="569" 
d="M143 0v1484h281v-1484h-281zM406 -204q0 -73 -21.5 -131.5t-72.5 -119.5h-137q94 100 94 170h-108v207h245v-126z" />
    <glyph glyph-name="Ncommaaccent" unicode="&#x145;" horiz-adv-x="1479" 
d="M995 0l-614 1085q18 -158 18 -254v-831h-262v1409h337l623 -1094q-18 151 -18 275v819h262v-1409h-346zM856 -204q0 -73 -21.5 -131.5t-72.5 -119.5h-137q94 100 94 170h-108v207h245v-126z" />
    <glyph glyph-name="ncommaaccent" unicode="&#x146;" 
d="M844 0v607q0 285 -193 285q-102 0 -164.5 -87.5t-62.5 -224.5v-580h-281v840q0 87 -2.5 142.5t-5.5 99.5h268q3 -19 8 -101.5t5 -113.5h4q57 124 143 180t205 56q172 0 264 -106t92 -310v-687h-280zM759 -204q0 -73 -21.5 -131.5t-72.5 -119.5h-137q94 100 94 170h-108
v207h245v-126z" />
    <glyph glyph-name="Eng" unicode="&#x14a;" horiz-adv-x="1481" 
d="M904 -20q-132 0 -221.5 39.5t-163.5 138.5l202 171q52 -68 93 -92.5t88 -24.5q63 0 100 32.5t53 100.5t16 208v295q0 186 -64 269t-209 83q-97 0 -182 -49t-134.5 -133t-49.5 -179v-839h-295v1092l-4 317h288q11 -121 11 -251h4q66 127 194 199t284 72q233 0 337 -129
t104 -411v-347q0 -300 -108.5 -431t-342.5 -131z" />
    <glyph glyph-name="eng" unicode="&#x14b;" 
d="M837 -425q-100 0 -170 9v198l51 -4q74 0 100 32.5t26 129.5v667q0 285 -193 285q-102 0 -164.5 -87.5t-62.5 -224.5v-580h-281v840q0 87 -2.5 142.5t-5.5 99.5h268q3 -19 8 -101.5t5 -113.5h4q57 124 143 180t205 56q172 0 264 -106t92 -310v-815q0 -143 -72.5 -220
t-214.5 -77z" />
    <glyph glyph-name="Omacron" unicode="&#x14c;" horiz-adv-x="1593" 
d="M1507 711q0 -220 -87 -387t-249 -255.5t-378 -88.5q-332 0 -520.5 195.5t-188.5 535.5q0 339 188 529t523 190t523.5 -192t188.5 -527zM1206 711q0 228 -108 357.5t-303 129.5q-198 0 -306 -128.5t-108 -358.5q0 -232 110.5 -365.5t301.5 -133.5q198 0 305.5 130
t107.5 369zM490 1705h612v-168h-612v168z" />
    <glyph glyph-name="omacron" unicode="&#x14d;" 
d="M1171 542q0 -263 -146 -412.5t-404 -149.5q-253 0 -397 150t-144 412q0 261 144 410.5t403 149.5q265 0 404.5 -144.5t139.5 -415.5zM877 542q0 193 -63 280t-183 87q-256 0 -256 -367q0 -181 62.5 -275.5t180.5 -94.5q259 0 259 370zM324 1371h612v-168h-612v168z" />
    <glyph glyph-name="Obreve" unicode="&#x14e;" horiz-adv-x="1593" 
d="M1507 711q0 -220 -87 -387t-249 -255.5t-378 -88.5q-332 0 -520.5 195.5t-188.5 535.5q0 339 188 529t523 190t523.5 -192t188.5 -527zM1206 711q0 228 -108 357.5t-303 129.5q-198 0 -306 -128.5t-108 -358.5q0 -232 110.5 -365.5t301.5 -133.5q198 0 305.5 130
t107.5 369zM784 1520q-145 0 -243 81t-109 207h163q15 -62 68 -99t123 -37q72 0 124 36.5t66 99.5h164q-19 -133 -114.5 -210.5t-241.5 -77.5z" />
    <glyph glyph-name="obreve" unicode="&#x14f;" 
d="M1171 542q0 -263 -146 -412.5t-404 -149.5q-253 0 -397 150t-144 412q0 261 144 410.5t403 149.5q265 0 404.5 -144.5t139.5 -415.5zM877 542q0 193 -63 280t-183 87q-256 0 -256 -367q0 -181 62.5 -275.5t180.5 -94.5q259 0 259 370zM631 1183q-151 0 -246 91t-106 232
h163q16 -77 68 -121.5t123 -44.5t123.5 43.5t66.5 122.5h164q-18 -148 -110.5 -235.5t-245.5 -87.5z" />
    <glyph glyph-name="Rcommaaccent" unicode="&#x156;" horiz-adv-x="1479" 
d="M1105 0l-327 535h-346v-535h-295v1409h704q252 0 389 -108.5t137 -311.5q0 -148 -84 -255.5t-227 -141.5l381 -592h-332zM1070 977q0 203 -260 203h-378v-416h386q124 0 188 56t64 157zM865 -204q0 -73 -21.5 -131.5t-72.5 -119.5h-137q94 100 94 170h-108v207h245v-126z
" />
    <glyph glyph-name="rcommaaccent" unicode="&#x157;" horiz-adv-x="797" 
d="M143 0v828q0 89 -2.5 148.5t-5.5 105.5h268q3 -18 8 -109.5t5 -121.5h4q41 114 73 160.5t76 69t110 22.5q54 0 87 -15v-235q-68 15 -120 15q-105 0 -163.5 -85t-58.5 -252v-531h-281zM405 -204q0 -73 -21.5 -131.5t-72.5 -119.5h-137q94 100 94 170h-108v207h245v-126z
" />
    <glyph glyph-name="Scircumflex" unicode="&#x15c;" horiz-adv-x="1366" 
d="M1286 406q0 -207 -153.5 -316.5t-450.5 -109.5q-271 0 -425 96t-198 291l285 47q29 -112 113 -162.5t233 -50.5q309 0 309 188q0 60 -35.5 99t-100 65t-247.5 63q-158 37 -220 59.5t-112 53t-85 73.5t-54.5 101t-19.5 133q0 191 143.5 292.5t417.5 101.5q262 0 393.5 -82
t169.5 -271l-286 -39q-22 91 -89.5 137t-193.5 46q-268 0 -268 -168q0 -55 28.5 -90t84.5 -59.5t227 -61.5q203 -43 290.5 -79.5t138.5 -85t78 -116t27 -155.5zM1079 1559v-29h-159l-203 151h-4l-211 -151h-160v29l258 276h229z" />
    <glyph glyph-name="scircumflex" unicode="&#x15d;" horiz-adv-x="1139" 
d="M1055 316q0 -157 -128.5 -246.5t-355.5 -89.5q-223 0 -341.5 70.5t-157.5 219.5l247 37q21 -77 72.5 -109t179.5 -32q118 0 172 30t54 94q0 52 -43.5 82.5t-147.5 51.5q-238 47 -321 87.5t-126.5 105t-43.5 158.5q0 155 119.5 241.5t338.5 86.5q193 0 310.5 -75
t146.5 -217l-249 -26q-12 66 -59 98.5t-149 32.5q-100 0 -150 -25.5t-50 -85.5q0 -47 38.5 -74.5t129.5 -45.5q127 -26 225.5 -53.5t158 -65.5t95 -97.5t35.5 -152.5zM935 1211v-28h-159l-203 192h-4l-211 -192h-160v28l258 318h229z" />
    <glyph glyph-name="Tbar" unicode="&#x166;" 
d="M773 1181v-365h228v-190h-228v-626h-295v626h-227v190h227v365h-455v228h1206v-228h-456z" />
    <glyph glyph-name="tbar" unicode="&#x167;" horiz-adv-x="682" 
d="M420 -18q-124 0 -191 67.5t-67 204.5v219h-127v190h127v229h-137v190h151l88 254h176v-254h205v-190h-205v-229h185v-190h-185v-143q0 -79 30 -116.5t93 -37.5q33 0 94 14v-174q-104 -34 -237 -34z" />
    <glyph glyph-name="Utilde" unicode="&#x168;" horiz-adv-x="1479" 
d="M723 -20q-291 0 -445.5 142t-154.5 406v881h295v-858q0 -167 79.5 -253.5t233.5 -86.5q158 0 243 90.5t85 259.5v848h295v-866q0 -268 -165.5 -415.5t-465.5 -147.5zM905 1530q-44 0 -88.5 19t-86.5 42.5t-79.5 42.5t-67.5 19q-41 0 -62.5 -23t-35.5 -100h-137
q8 113 32.5 169.5t70.5 90t122 33.5q45 0 90 -19t87 -42.5t78.5 -42.5t65.5 -19q40 0 62.5 24.5t36.5 98.5h135q-7 -157 -63.5 -225t-159.5 -68z" />
    <glyph glyph-name="utilde" unicode="&#x169;" 
d="M408 1082v-607q0 -285 192 -285q102 0 164.5 87.5t62.5 224.5v580h281v-840q0 -138 8 -242h-268q-12 144 -12 215h-5q-56 -123 -142.5 -179t-205.5 -56q-172 0 -264 105.5t-92 309.5v687h281zM786 1183q-44 0 -88.5 19t-86.5 42.5t-79.5 42.5t-67.5 19q-41 0 -62.5 -23
t-35.5 -100h-137q8 113 32.5 169.5t70.5 90t122 33.5q45 0 90 -19t87 -42.5t78.5 -42.5t65.5 -19q40 0 62.5 24.5t36.5 98.5h135q-7 -157 -63.5 -225t-159.5 -68z" />
    <glyph glyph-name="Umacron" unicode="&#x16a;" horiz-adv-x="1479" 
d="M723 -20q-291 0 -445.5 142t-154.5 406v881h295v-858q0 -167 79.5 -253.5t233.5 -86.5q158 0 243 90.5t85 259.5v848h295v-866q0 -268 -165.5 -415.5t-465.5 -147.5zM433 1700h612v-168h-612v168z" />
    <glyph glyph-name="umacron" unicode="&#x16b;" 
d="M408 1082v-607q0 -285 192 -285q102 0 164.5 87.5t62.5 224.5v580h281v-840q0 -138 8 -242h-268q-12 144 -12 215h-5q-56 -123 -142.5 -179t-205.5 -56q-172 0 -264 105.5t-92 309.5v687h281zM312 1371h612v-168h-612v168z" />
    <glyph glyph-name="Ubreve" unicode="&#x16c;" horiz-adv-x="1479" 
d="M723 -20q-291 0 -445.5 142t-154.5 406v881h295v-858q0 -167 79.5 -253.5t233.5 -86.5q158 0 243 90.5t85 259.5v848h295v-866q0 -268 -165.5 -415.5t-465.5 -147.5zM737 1520q-145 0 -243 81t-109 207h163q15 -62 68 -99t123 -37q72 0 124 36.5t66 99.5h164
q-19 -133 -114.5 -210.5t-241.5 -77.5z" />
    <glyph glyph-name="ubreve" unicode="&#x16d;" 
d="M408 1082v-607q0 -285 192 -285q102 0 164.5 87.5t62.5 224.5v580h281v-840q0 -138 8 -242h-268q-12 144 -12 215h-5q-56 -123 -142.5 -179t-205.5 -56q-172 0 -264 105.5t-92 309.5v687h281zM622 1183q-151 0 -246 91t-106 232h163q16 -77 68 -121.5t123 -44.5
t123.5 43.5t66.5 122.5h164q-18 -148 -110.5 -235.5t-245.5 -87.5z" />
    <glyph glyph-name="Uogonek" unicode="&#x172;" horiz-adv-x="1479" 
d="M723 -20q-291 0 -445.5 142t-154.5 406v881h295v-858q0 -167 79.5 -253.5t233.5 -86.5q158 0 243 90.5t85 259.5v848h295v-866q0 -268 -165.5 -415.5t-465.5 -147.5zM857 -425q-111 0 -174 54t-63 146q0 75 43.5 142t114.5 104h153q-63 -42 -96 -99.5t-33 -110.5
q0 -42 24.5 -67.5t69.5 -25.5q54 0 112 27v-137q-63 -33 -151 -33z" />
    <glyph glyph-name="uogonek" unicode="&#x173;" 
d="M408 1082v-607q0 -285 192 -285q102 0 164.5 87.5t62.5 224.5v580h281v-840q0 -138 8 -242h-268q-12 144 -12 215h-5q-56 -123 -142.5 -179t-205.5 -56q-172 0 -264 105.5t-92 309.5v687h281zM958 -425q-111 0 -174 54t-63 146q0 75 43.5 142t114.5 104h153
q-63 -42 -96 -99.5t-33 -110.5q0 -42 24.5 -67.5t69.5 -25.5q54 0 112 27v-137q-63 -33 -151 -33z" />
    <glyph glyph-name="Wcircumflex" unicode="&#x174;" horiz-adv-x="1933" 
d="M1567 0h-350l-191 815q-35 144 -59 301q-24 -131 -39 -199.5t-213 -916.5h-350l-363 1409h299l204 -910l46 -220q28 139 54.5 265.5t199.5 864.5h330l178 -750q21 -84 71 -380l25 116l53 230l170 784h299zM1337 1559v-29h-159l-203 151h-4l-211 -151h-160v29l258 276h229
z" />
    <glyph glyph-name="wcircumflex" unicode="&#x175;" horiz-adv-x="1593" 
d="M1313 0h-297l-172 660q-12 45 -47 222l-52 -224l-174 -658h-297l-280 1082h264l178 -827l14 74l25 117l170 636h301l166 -636q14 -52 41 -191l28 132l156 695h260zM1166 1211v-28h-159l-203 192h-4l-211 -192h-160v28l258 318h229z" />
    <glyph glyph-name="Ycircumflex" unicode="&#x176;" horiz-adv-x="1366" 
d="M831 578v-578h-294v578l-502 831h309l338 -596l342 596h309zM1053 1559v-29h-159l-203 151h-4l-211 -151h-160v29l258 276h229z" />
    <glyph glyph-name="ycircumflex" unicode="&#x177;" horiz-adv-x="1139" 
d="M283 -425q-101 0 -177 13v200q53 -8 97 -8q60 0 99.5 19t71 63t70.5 149l-428 1071h297l170 -507q40 -109 101 -334l25 95l65 235l160 511h294l-428 -1139q-86 -208 -178.5 -288t-238.5 -80zM949 1211v-28h-159l-203 192h-4l-211 -192h-160v28l258 318h229z" />
    <glyph glyph-name="longs" unicode="&#x17f;" horiz-adv-x="569" 
d="M142 1195q0 147 78 218t237 71q79 0 178 -16v-181q-41 9 -82 9q-72 0 -101.5 -28.5t-29.5 -100.5v-1167h-280v1195z" />
    <glyph glyph-name="Aringacute" unicode="&#x1fa;" horiz-adv-x="1479" 
d="M1133 0l-125 360h-537l-125 -360h-295l514 1409h348l512 -1409h-292zM739 1192l-6 -22q-10 -36 -24 -82t-172 -506h405l-139 405l-43 136zM993 1537q0 -105 -73.5 -179.5t-180.5 -74.5t-180.5 74.5t-73.5 179.5t74.5 179.5t179.5 74.5t179.5 -74.5t74.5 -179.5zM866 1537
q0 51 -36.5 88t-90.5 37q-51 0 -88 -36t-37 -89q0 -56 37 -92t88 -36q53 0 90 37t37 91zM586 1831v31l252 254h258v-43l-340 -242h-170z" />
    <glyph glyph-name="aringacute" unicode="&#x1fb;" horiz-adv-x="1139" 
d="M393 -20q-157 0 -245 85.5t-88 240.5q0 168 109.5 256t317.5 90l233 4v55q0 106 -37 157.5t-121 51.5q-78 0 -114.5 -35.5t-45.5 -117.5l-293 14q27 158 144.5 239.5t320.5 81.5q205 0 316 -101t111 -287v-394q0 -91 20.5 -125.5t68.5 -34.5q32 0 62 6v-152
q-25 -6 -45 -11t-40 -8t-42.5 -5t-52.5 -2q-106 0 -156.5 52t-60.5 153h-6q-118 -213 -356 -213zM720 501l-144 -2q-98 -4 -139 -21.5t-62.5 -53.5t-21.5 -96q0 -77 35.5 -114.5t94.5 -37.5q66 0 120.5 36t85.5 99.5t31 134.5v55zM823 1390q0 -105 -73.5 -179.5
t-180.5 -74.5t-180.5 74.5t-73.5 179.5t74.5 179.5t179.5 74.5t179.5 -74.5t74.5 -179.5zM696 1390q0 51 -36.5 88t-90.5 37q-51 0 -88 -36t-37 -89q0 -56 37 -92t88 -36q53 0 90 37t37 91zM442 1693v31l252 288h258v-43l-340 -276h-170z" />
    <glyph glyph-name="AEacute" unicode="&#x1fc;" horiz-adv-x="2048" 
d="M931 0v360h-450l-172 -360h-305l700 1409h1223v-227h-701v-355h639v-221h-639v-379h742v-227h-1037zM931 1192h-61q-49 -111 -287 -610h348v610zM1083 1530v31l252 254h258v-43l-340 -242h-170z" />
    <glyph glyph-name="aeacute" unicode="&#x1fd;" horiz-adv-x="1821" 
d="M1253 -20q-310 0 -434 229q-133 -229 -413 -229q-161 0 -250.5 86t-89.5 240q0 166 111 253.5t329 92.5l240 4v55q0 108 -40 158.5t-128 50.5q-85 0 -123 -37t-47 -116l-293 14q26 157 144.5 239t326.5 82q217 0 333 -107q130 107 338 107q233 0 356 -154.5t123 -452.5
v-19h-694q0 -146 59 -227t166 -81q149 0 188 129l265 -23q-115 -294 -467 -294zM496 176q69 0 127 39t90.5 104t32.5 137v45l-152 -2q-104 -4 -147 -21.5t-65.5 -53.5t-22.5 -96q0 -77 37.5 -114.5t99.5 -37.5zM1253 925q-99 0 -152.5 -69t-56.5 -193h420q-8 131 -63 196.5
t-148 65.5zM774 1183v31l252 288h258v-43l-340 -276h-170z" />
    <glyph glyph-name="Oslashacute" unicode="&#x1fe;" horiz-adv-x="1593" 
d="M147 -73l154 218q-217 197 -217 566q0 339 188 529t523 190q198 0 354 -74l82 117h193l-142 -203q112 -94 169 -236.5t57 -322.5q0 -220 -87 -387t-248.5 -255.5t-379.5 -88.5q-212 0 -360 77l-91 -129zM1207 711q0 203 -86 327l-541 -772q91 -55 213 -55
q199 0 306.5 130.5t107.5 369.5zM381 711q0 -205 84 -332l539 768q-92 51 -209 51q-198 0 -306 -128.5t-108 -358.5zM625 1530v31l252 254h258v-43l-340 -242h-170z" />
    <glyph glyph-name="oslashacute" unicode="&#x1ff;" 
d="M1171 542q0 -263 -146 -412.5t-404 -149.5q-192 0 -324 89l-113 -124h-183l197 215q-118 146 -118 382q0 261 144 410.5t403 149.5q199 0 330 -83l101 114h184l-184 -206q113 -142 113 -385zM375 542q0 -92 17 -163l407 461q-60 69 -168 69q-256 0 -256 -367zM877 542
q0 94 -16 162l-407 -460q62 -72 164 -72q259 0 259 370zM465 1183v31l252 288h258v-43l-340 -276h-170z" />
    <glyph glyph-name="anoteleia" unicode="&#x387;" horiz-adv-x="682" 
d="M197 531v305h288v-305h-288z" />
    <glyph glyph-name="Wgrave" unicode="&#x1e80;" horiz-adv-x="1933" 
d="M1567 0h-350l-191 815q-35 144 -59 301q-24 -131 -39 -199.5t-213 -916.5h-350l-363 1409h299l204 -910l46 -220q28 139 54.5 265.5t199.5 864.5h330l178 -750q21 -84 71 -380l25 116l53 230l170 784h299zM1004 1530l-340 242v43h258l251 -254v-31h-169z" />
    <glyph glyph-name="wgrave" unicode="&#x1e81;" horiz-adv-x="1593" 
d="M1313 0h-297l-172 660q-12 45 -47 222l-52 -224l-174 -658h-297l-280 1082h264l178 -827l14 74l25 117l170 636h301l166 -636q14 -52 41 -191l28 132l156 695h260zM785 1183l-340 276v43h258l251 -288v-31h-169z" />
    <glyph glyph-name="Wacute" unicode="&#x1e82;" horiz-adv-x="1933" 
d="M1567 0h-350l-191 815q-35 144 -59 301q-24 -131 -39 -199.5t-213 -916.5h-350l-363 1409h299l204 -910l46 -220q28 139 54.5 265.5t199.5 864.5h330l178 -750q21 -84 71 -380l25 116l53 230l170 784h299zM823 1530v31l252 254h258v-43l-340 -242h-170z" />
    <glyph glyph-name="wacute" unicode="&#x1e83;" horiz-adv-x="1593" 
d="M1313 0h-297l-172 660q-12 45 -47 222l-52 -224l-174 -658h-297l-280 1082h264l178 -827l14 74l25 117l170 636h301l166 -636q14 -52 41 -191l28 132l156 695h260zM637 1183v31l252 288h258v-43l-340 -276h-170z" />
    <glyph glyph-name="Wdieresis" unicode="&#x1e84;" horiz-adv-x="1933" 
d="M1567 0h-350l-191 815q-35 144 -59 301q-24 -131 -39 -199.5t-213 -916.5h-350l-363 1409h299l204 -910l46 -220q28 139 54.5 265.5t199.5 864.5h330l178 -750q21 -84 71 -380l25 116l53 230l170 784h299zM1098 1530v219h197v-219h-197zM644 1530v219h194v-219h-194z" />
    <glyph glyph-name="wdieresis" unicode="&#x1e85;" horiz-adv-x="1593" 
d="M1313 0h-297l-172 660q-12 45 -47 222l-52 -224l-174 -658h-297l-280 1082h264l178 -827l14 74l25 117l170 636h301l166 -636q14 -52 41 -191l28 132l156 695h260zM906 1199v219h217v-219h-217zM472 1199v219h214v-219h-214z" />
    <glyph glyph-name="Ygrave" unicode="&#x1ef2;" horiz-adv-x="1366" 
d="M831 578v-578h-294v578l-502 831h309l338 -596l342 596h309zM717 1530l-340 242v43h258l251 -254v-31h-169z" />
    <glyph glyph-name="ygrave" unicode="&#x1ef3;" horiz-adv-x="1139" 
d="M283 -425q-101 0 -177 13v200q53 -8 97 -8q60 0 99.5 19t71 63t70.5 149l-428 1071h297l170 -507q40 -109 101 -334l25 95l65 235l160 511h294l-428 -1139q-86 -208 -178.5 -288t-238.5 -80zM545 1183l-340 276v43h258l251 -288v-31h-169z" />
    <glyph glyph-name="quotereversed" unicode="&#x201b;" horiz-adv-x="569" 
d="M426 1409v-260h-127q0 -150 131 -318h-182q-60 83 -84.5 172.5t-24.5 210.5v195h287z" />
    <glyph glyph-name="radicalex" unicode="&#x203e;" horiz-adv-x="682" 
d="M812 1454h-942v166h942v-166z" />
    <glyph glyph-name="lira" unicode="&#x20a4;" horiz-adv-x="1139" 
d="M1118 363q-31 -172 -136 -267.5t-256 -95.5h-694v205q75 43 109 80.5t51 90.5t17 126v6h-188v149h178v112h-178v149h178v104q0 201 107 304.5t319 103.5q169 0 266 -69t141 -222l-233 -47q-21 77 -62 112t-107 35q-91 0 -131 -57.5t-40 -182.5v-81h286v-149h-286v-112
h286v-149h-286v-4q0 -100 -38.5 -168t-143.5 -127h380q104 0 157.5 49.5t70.5 143.5z" />
    <glyph glyph-name="estimated" unicode="&#x212e;" horiz-adv-x="1229" 
d="M619 -34q-158 0 -278 72.5t-186.5 204t-66.5 288.5q0 166 67 293.5t190.5 199.5t273.5 72q152 0 273.5 -71t188.5 -200t67 -294h-827v-356q50 -54 131.5 -89t166.5 -35q132 0 224.5 54t170.5 180l72 -42q-98 -155 -208 -216t-259 -61zM917 616v277q-51 53 -132 85.5
t-168 32.5q-179 0 -296 -117v-278h596z" />
    <glyph glyph-name="oneeighth" unicode="&#x215b;" horiz-adv-x="1708" 
d="M114 694v121h184v468l-173 -108v122l180 117h175v-599h170v-121h-536zM524 0h-201l895 1409h201zM1608 205q0 -102 -77.5 -157.5t-216.5 -55.5q-141 0 -217.5 56.5t-76.5 155.5q0 72 43 118.5t105 55.5v2q-60 14 -94.5 59t-34.5 103q0 86 69.5 138t203.5 52
q133 0 205 -49.5t72 -141.5q0 -59 -36.5 -104t-94.5 -56v-2q70 -11 110 -57t40 -117zM1402 524q0 83 -88 83t-88 -83q0 -87 88 -87t88 87zM1419 220q0 92 -109 92q-105 0 -105 -93q0 -100 109 -100q53 0 79 23t26 78z" />
    <glyph glyph-name="threeeighths" unicode="&#x215c;" horiz-adv-x="1708" 
d="M504 0h-201l895 1409h201zM1608 205q0 -102 -77.5 -157.5t-216.5 -55.5q-141 0 -217.5 56.5t-76.5 155.5q0 72 43 118.5t105 55.5v2q-60 14 -94.5 59t-34.5 103q0 86 69.5 138t203.5 52q133 0 205 -49.5t72 -141.5q0 -59 -36.5 -104t-94.5 -56v-2q70 -11 110 -57t40 -117
zM1402 524q0 83 -88 83t-88 -83q0 -87 88 -87t88 87zM1419 220q0 92 -109 92q-105 0 -105 -93q0 -100 109 -100q53 0 79 23t26 78zM678 895q0 -99 -75 -155t-213 -56q-135 0 -214 52t-92 156l189 12q10 -93 114 -93q102 0 102 96q0 93 -139 93h-56v126h51q63 0 95 23.5
t32 66.5q0 39 -23 61t-66 22q-88 0 -98 -89l-186 12q11 94 87.5 149t201.5 55q128 0 199.5 -51.5t71.5 -136.5q0 -64 -36.5 -109.5t-115.5 -61.5v-2q83 -9 127 -55t44 -115z" />
    <glyph glyph-name="fiveeighths" unicode="&#x215d;" horiz-adv-x="1708" 
d="M504 0h-201l895 1409h201zM1608 205q0 -102 -77.5 -157.5t-216.5 -55.5q-141 0 -217.5 56.5t-76.5 155.5q0 72 43 118.5t105 55.5v2q-60 14 -94.5 59t-34.5 103q0 86 69.5 138t203.5 52q133 0 205 -49.5t72 -141.5q0 -59 -36.5 -104t-94.5 -56v-2q70 -11 110 -57t40 -117
zM1402 524q0 83 -88 83t-88 -83q0 -87 88 -87t88 87zM1419 220q0 92 -109 92q-105 0 -105 -93q0 -100 109 -100q53 0 79 23t26 78zM690 939q0 -117 -80 -186t-221 -69q-121 0 -195.5 53.5t-90.5 149.5l190 12q16 -88 102 -88q49 0 78 32t29 92q0 53 -26 84t-78 31
q-65 0 -99 -46h-178l29 405h495v-138h-337l-10 -136q23 19 62.5 32.5t85.5 13.5q112 0 178 -66t66 -176z" />
    <glyph glyph-name="seveneighths" unicode="&#x215e;" horiz-adv-x="1708" 
d="M484 0h-201l895 1409h201zM1608 205q0 -102 -77.5 -157.5t-216.5 -55.5q-141 0 -217.5 56.5t-76.5 155.5q0 72 43 118.5t105 55.5v2q-60 14 -94.5 59t-34.5 103q0 86 69.5 138t203.5 52q133 0 205 -49.5t72 -141.5q0 -59 -36.5 -104t-94.5 -56v-2q70 -11 110 -57t40 -117
zM1402 524q0 83 -88 83t-88 -83q0 -87 88 -87t88 87zM1419 220q0 92 -109 92q-105 0 -105 -93q0 -100 109 -100q53 0 79 23t26 78zM744 1281q-152 -187 -202 -311.5t-50 -275.5h-193q0 132 56 257.5t218 319.5h-410v138h579z" />
    <glyph glyph-name="undercommaaccent" unicode="&#xf005;" horiz-adv-x="682" 
d="M544 -231q0 -99 -75 -146.5t-228 -47.5q-45 0 -101 6v118q35 -7 84 -7q137 0 137 69t-113 69q-37 0 -51 -2l38 109q50 5 112 5q91 0 144 -46t53 -127z" />
    <glyph glyph-name="tonos" unicode="&#x384;" horiz-adv-x="682" 
d="M185 1183v33l69 292h257v-37l-221 -288h-105z" />
    <glyph glyph-name="dieresistonos" unicode="&#x385;" horiz-adv-x="952" 
d="M361 1190v33l59 398h237v-37l-181 -394h-115zM110 1231v222h200v-222h-200zM642 1231v222h200v-222h-200z" />
    <glyph glyph-name="Alphatonos" unicode="&#x386;" horiz-adv-x="1479" 
d="M1133 0l-125 360h-537l-125 -360h-295l514 1409h348l512 -1409h-292zM739 1192l-6 -22q-10 -36 -24 -82t-172 -506h405l-139 405l-43 136zM36 1085v33l69 292h257v-37l-221 -288h-105z" />
    <glyph glyph-name="Epsilontonos" unicode="&#x388;" horiz-adv-x="1747" 
d="M518 0v1409h1108v-228h-813v-354h752v-228h-752v-371h854v-228h-1149zM46 1085v33l69 292h257v-37l-221 -288h-105z" />
    <glyph glyph-name="Etatonos" unicode="&#x389;" horiz-adv-x="1855" 
d="M1422 0v604h-614v-604h-295v1409h295v-561h614v561h295v-1409h-295zM36 1085v33l69 292h257v-37l-221 -288h-105z" />
    <glyph glyph-name="Iotatonos" unicode="&#x38a;" horiz-adv-x="970" 
d="M538 0v1409h295v-1409h-295zM36 1085v33l69 292h257v-37l-221 -288h-105z" />
    <glyph glyph-name="Omicrontonos" unicode="&#x38c;" horiz-adv-x="1689" 
d="M1603 711q0 -220 -87 -387t-249 -255.5t-378 -88.5q-332 0 -520.5 195.5t-188.5 535.5q0 339 188 529t523 190t523.5 -192t188.5 -527zM1302 711q0 228 -108 357.5t-303 129.5q-198 0 -306 -128.5t-108 -358.5q0 -232 110.5 -365.5t301.5 -133.5q198 0 305.5 130
t107.5 369zM-26 1085v33l69 292h257v-37l-221 -288h-105z" />
    <glyph glyph-name="Upsilontonos" unicode="&#x38e;" horiz-adv-x="1899" 
d="M1363 578v-578h-294v578l-502 831h309l338 -596l342 596h309zM128 1085v33l69 292h257v-37l-221 -288h-105z" />
    <glyph glyph-name="Omegatonos" unicode="&#x38f;" horiz-adv-x="1716" 
d="M895 1430q332 0 521 -161t189 -441q0 -214 -106 -364t-320 -247q114 11 178 11h276v-228h-671v309q181 86 262 201.5t81 263.5q0 203 -108 313.5t-304 110.5q-195 0 -304 -110t-109 -314q0 -148 81.5 -263.5t262.5 -201.5v-309h-667v228h274q67 0 177 -11
q-216 98 -319.5 248.5t-103.5 363.5q0 281 189 441t521 160zM-48 1085v33l69 292h257v-37l-221 -288h-105z" />
    <glyph glyph-name="iotadieresistonos" unicode="&#x390;" horiz-adv-x="569" 
d="M199 0q-30 32 -46 99.5t-16 136.5v846h282v-855q0 -60 21.5 -123.5t58.5 -103.5h-300zM164 1190v33l59 398h237v-37l-181 -394h-115zM-87 1231v222h200v-222h-200zM445 1231v222h200v-222h-200z" />
    <glyph glyph-name="Alpha" unicode="&#x391;" horiz-adv-x="1479" 
d="M1133 0l-125 360h-537l-125 -360h-295l514 1409h348l512 -1409h-292zM739 1192l-6 -22q-10 -36 -24 -82t-172 -506h405l-139 405l-43 136z" />
    <glyph glyph-name="Beta" unicode="&#x392;" horiz-adv-x="1479" 
d="M1386 402q0 -192 -144 -297t-400 -105h-705v1409h645q258 0 390.5 -89.5t132.5 -264.5q0 -120 -66.5 -202.5t-202.5 -111.5q171 -20 260.5 -107.5t89.5 -231.5zM1008 1015q0 95 -60.5 135t-179.5 40h-336v-349h338q125 0 181.5 43.5t56.5 130.5zM1090 425q0 198 -284 198
h-374v-404h385q142 0 207.5 51.5t65.5 154.5z" />
    <glyph glyph-name="Delta" unicode="&#x394;" horiz-adv-x="1472" 
d="M567 1409l345 -1l476 -1182v-226h-1305l1 226zM1086 244l-266 698q-57 155 -83 247q-1 -6 -6.5 -24.5t-23.5 -73.5t-47 -134.5t-269 -712.5h695z" />
    <glyph glyph-name="Epsilon" unicode="&#x395;" horiz-adv-x="1366" 
d="M137 0v1409h1108v-228h-813v-354h752v-228h-752v-371h854v-228h-1149z" />
    <glyph glyph-name="Zeta" unicode="&#x396;" 
d="M1192 0h-1131v209l762 969h-686v231h1014v-205l-762 -973h803v-231z" />
    <glyph glyph-name="Eta" unicode="&#x397;" horiz-adv-x="1479" 
d="M1046 0v604h-614v-604h-295v1409h295v-561h614v561h295v-1409h-295z" />
    <glyph glyph-name="Iota" unicode="&#x399;" horiz-adv-x="569" 
d="M137 0v1409h295v-1409h-295z" />
    <glyph glyph-name="Kappa" unicode="&#x39a;" horiz-adv-x="1479" 
d="M1112 0l-506 647l-174 -133v-514h-295v1409h295v-639l635 639h344l-602 -596l651 -813h-348z" />
    <glyph glyph-name="Lambda" unicode="&#x39b;" horiz-adv-x="1366" 
d="M1352 1h-305l-289 885q-43 149 -72 266q-26 -100 -50.5 -186t-313.5 -965h-308l521 1409h299z" />
    <glyph glyph-name="Mu" unicode="&#x39c;" horiz-adv-x="1706" 
d="M1307 0v854q0 29 0.5 58t9.5 249q-71 -269 -105 -375l-254 -786h-210l-254 786l-107 375q12 -232 12 -307v-854h-262v1409h395l252 -788l22 -76l48 -189l63 226l259 827h393v-1409h-262z" />
    <glyph glyph-name="Nu" unicode="&#x39d;" horiz-adv-x="1479" 
d="M995 0l-614 1085q18 -158 18 -254v-831h-262v1409h337l623 -1094q-18 151 -18 275v819h262v-1409h-346z" />
    <glyph glyph-name="Xi" unicode="&#x39e;" horiz-adv-x="1318" 
d="M119 1409h1081v-228h-1081v228zM1235 228v-228h-1151v228h1151zM1080 827v-228h-841v228h841z" />
    <glyph glyph-name="Omicron" unicode="&#x39f;" horiz-adv-x="1593" 
d="M1507 711q0 -220 -87 -387t-249 -255.5t-378 -88.5q-332 0 -520.5 195.5t-188.5 535.5q0 339 188 529t523 190t523.5 -192t188.5 -527zM1206 711q0 228 -108 357.5t-303 129.5q-198 0 -306 -128.5t-108 -358.5q0 -232 110.5 -365.5t301.5 -133.5q198 0 305.5 130
t107.5 369z" />
    <glyph glyph-name="Pi" unicode="&#x3a0;" horiz-adv-x="1479" 
d="M1056 0v1165h-625v-1165h-294v1409h1204v-1409h-285z" />
    <glyph glyph-name="Rho" unicode="&#x3a1;" horiz-adv-x="1366" 
d="M1296 963q0 -136 -62 -243t-177.5 -165.5t-274.5 -58.5h-350v-496h-295v1409h633q253 0 389.5 -116.5t136.5 -329.5zM999 958q0 222 -262 222h-305v-457h313q122 0 188 60.5t66 174.5z" />
    <glyph glyph-name="Sigma" unicode="&#x3a3;" horiz-adv-x="1229" 
d="M90 0v234l448 507l-431 435v233h999v-228h-697l371 -373v-134l-394 -446h781v-228h-1077z" />
    <glyph glyph-name="Tau" unicode="&#x3a4;" 
d="M773 1181v-1181h-295v1181h-455v228h1206v-228h-456z" />
    <glyph glyph-name="Upsilon" unicode="&#x3a5;" horiz-adv-x="1366" 
d="M831 578v-578h-294v578l-502 831h309l338 -596l342 596h309z" />
    <glyph glyph-name="Chi" unicode="&#x3a7;" horiz-adv-x="1366" 
d="M1038 0l-354 561l-354 -561h-312l488 741l-447 668h312l313 -498l313 498h310l-428 -668l469 -741h-310z" />
    <glyph glyph-name="Psi" unicode="&#x3a8;" horiz-adv-x="1657" 
d="M968 427v-427h-279v427h-40q-280 0 -416.5 128.5t-136.5 390.5v463h279v-467q0 -157 70.5 -225.5t234.5 -68.5h9v761h279v-761h9q163 0 234 68t71 226v467h279v-463q0 -262 -136 -390.5t-417 -128.5h-40z" />
    <glyph glyph-name="Omega" unicode="&#x3a9;" horiz-adv-x="1642" 
d="M821 1430q332 0 521 -161t189 -441q0 -214 -106 -364t-320 -247q114 11 178 11h276v-228h-671v309q181 86 262 201.5t81 263.5q0 203 -108 313.5t-304 110.5q-195 0 -304 -110t-109 -314q0 -148 81.5 -263.5t262.5 -201.5v-309h-667v228h274q67 0 177 -11
q-216 98 -319.5 248.5t-103.5 363.5q0 281 189 441t521 160z" />
    <glyph glyph-name="Iotadieresis" unicode="&#x3aa;" horiz-adv-x="569" 
d="M137 0v1409h295v-1409h-295zM413 1530v219h197v-219h-197zM-41 1530v219h194v-219h-194z" />
    <glyph glyph-name="Upsilondieresis" unicode="&#x3ab;" horiz-adv-x="1366" 
d="M831 578v-578h-294v578l-502 831h309l338 -596l342 596h309zM807 1530v219h197v-219h-197zM353 1530v219h194v-219h-194z" />
    <glyph glyph-name="alphatonos" unicode="&#x3ac;" horiz-adv-x="1259" 
d="M860 237q-62 -135 -148 -196t-211 -61q-212 0 -316.5 137.5t-104.5 418.5q0 284 113.5 425t333.5 141q131 0 225.5 -66.5t142.5 -188.5h3q25 124 75 235h265q-50 -91 -103.5 -251t-65.5 -275q32 -309 136 -556h-270q-49 120 -71 237h-4zM375 539q0 -196 42.5 -281
t138.5 -85q89 0 153 101t82 268q-22 178 -80.5 272t-146.5 94q-102 0 -145.5 -89t-43.5 -280zM519 1183v33l69 292h257v-37l-221 -288h-105z" />
    <glyph glyph-name="epsilontonos" unicode="&#x3ad;" horiz-adv-x="924" 
d="M526 168q138 0 270 137l143 -140q-73 -75 -132.5 -110t-134.5 -55t-175 -20q-199 0 -309.5 83t-110.5 234q0 113 78.5 181.5t209.5 79.5v2q-119 12 -187 79t-68 173q0 133 115.5 211.5t307.5 78.5q137 0 228 -38t162 -131l-162 -123q-42 57 -92.5 85t-119.5 28
q-84 0 -128 -32.5t-44 -89.5q0 -76 70.5 -112.5t257.5 -36.5v-177q-148 0 -210.5 -15t-95.5 -49.5t-33 -96.5q0 -72 42.5 -109t117.5 -37zM423 1183v33l69 292h257v-37l-221 -288h-105z" />
    <glyph glyph-name="etatonos" unicode="&#x3ae;" 
d="M845 -424v1053q0 149 -40.5 206t-145.5 57q-111 0 -172.5 -83.5t-61.5 -227.5v-581h-282v851q0 123 -36 231h269q17 -39 27.5 -91.5t10.5 -93.5h3q64 112 148 158.5t207 46.5q186 0 269 -90.5t83 -290.5v-1145h-279zM568 1183v33l69 292h257v-37l-221 -288h-105z" />
    <glyph glyph-name="iotatonos" unicode="&#x3af;" horiz-adv-x="569" 
d="M199 0q-30 32 -46 99.5t-16 136.5v846h282v-855q0 -60 21.5 -123.5t58.5 -103.5h-300zM176 1183v33l69 292h257v-37l-221 -288h-105z" />
    <glyph glyph-name="upsilondieresistonos" unicode="&#x3b0;" horiz-adv-x="1192" 
d="M1108 571q0 -292 -129.5 -441.5t-384.5 -149.5q-240 0 -353.5 110.5t-113.5 342.5v649h281v-622q0 -136 47.5 -204.5t155.5 -68.5q116 0 166 95t50 321q0 112 -37.5 252t-86.5 227h286q52 -104 85.5 -244t33.5 -267zM489 1190v33l59 398h237v-37l-181 -394h-115z
M238 1231v222h200v-222h-200zM770 1231v222h200v-222h-200z" />
    <glyph glyph-name="beta" unicode="&#x3b2;" horiz-adv-x="1250" 
d="M1181 405q0 -199 -118.5 -312t-334.5 -113q-170 0 -303 94h-9q8 -91 8 -202v-297h-282v1452q0 237 124.5 347t371.5 110q213 0 328.5 -90.5t115.5 -258.5q0 -253 -223 -340q150 -29 236 -132.5t86 -257.5zM424 255q47 -36 115 -59.5t133 -23.5q113 0 174 66t61 181
q0 127 -86.5 192t-244.5 65v198q127 22 183.5 79t56.5 156q0 80 -46.5 126t-132.5 46q-113 0 -163 -69t-50 -221v-736z" />
    <glyph glyph-name="gamma" unicode="&#x3b3;" horiz-adv-x="1139" 
d="M8 1082h298l212 -640q14 -42 33 -127.5t21 -126.5q6 46 25.5 125.5t37.5 133.5l201 635h295l-395 -1028q-93 -243 -123 -478h-290q33 221 101 435z" />
    <glyph glyph-name="zeta" unicode="&#x3b6;" horiz-adv-x="943" 
d="M324 422q0 -56 20 -90.5t55.5 -56t84 -36t104.5 -30.5q144 -40 200.5 -76t89.5 -92t33 -143q0 -67 -29.5 -155t-64.5 -144l-183 74q55 92 55 155q0 40 -20.5 67t-63 47t-166.5 52q-159 35 -227.5 75t-107 105t-38.5 165q0 194 143 440.5t408 515.5v4l-127 -4h-315v189
h701v-190q-268 -264 -410 -488t-142 -384z" />
    <glyph glyph-name="eta" unicode="&#x3b7;" 
d="M845 -424v1053q0 149 -40.5 206t-145.5 57q-111 0 -172.5 -83.5t-61.5 -227.5v-581h-282v851q0 123 -36 231h269q17 -39 27.5 -91.5t10.5 -93.5h3q64 112 148 158.5t207 46.5q186 0 269 -90.5t83 -290.5v-1145h-279z" />
    <glyph glyph-name="theta" unicode="&#x3b8;" horiz-adv-x="1107" 
d="M1017 733q0 -381 -120 -567t-348 -186q-224 0 -341.5 190.5t-117.5 562.5q0 750 465 750q239 0 350.5 -184.5t111.5 -565.5zM550 162q186 0 193 482h-377q3 -233 50.5 -357.5t133.5 -124.5zM557 1300q-185 0 -192 -466h378q-7 466 -186 466z" />
    <glyph glyph-name="iota" unicode="&#x3b9;" horiz-adv-x="569" 
d="M199 0q-30 32 -46 99.5t-16 136.5v846h282v-855q0 -60 21.5 -123.5t58.5 -103.5h-300z" />
    <glyph glyph-name="kappa" unicode="&#x3ba;" horiz-adv-x="1142" 
d="M842 0l-291 455l-127 -106v-349h-281v1082h281v-494l397 494h291l-380 -462l409 -620h-299z" />
    <glyph glyph-name="lambda" unicode="&#x3bb;" horiz-adv-x="1139" 
d="M1108 0h-294q-154 523 -181 617.5t-33 141.5q-15 -58 -51.5 -166t-60.5 -164l-182 -429h-297l474 1006q-45 127 -78.5 198t-65 99.5t-76.5 28.5q-48 0 -93 -19l-48 194q85 30 187 30q148 0 232 -79.5t159 -295.5z" />
    <glyph glyph-name="mu" unicode="&#x3bc;" horiz-adv-x="1253" 
d="M849 0q-1 12 -3.5 34t-4.5 48.5t-3.5 53.5t-1.5 48h-3q-78 -204 -246 -204q-52 0 -95.5 24t-66.5 66h-4q4 -43 4 -115v-371h-281v1498h281v-605q0 -284 184 -284q97 0 158 83.5t61 227.5v578h281v-840q0 -130 8 -242h-268z" />
    <glyph glyph-name="nu" unicode="&#x3bd;" horiz-adv-x="1139" 
d="M1047 846q0 -179 -107 -407t-283 -439h-267l-390 1082h297l261 -843q111 158 159.5 299t48.5 299q0 135 -49 245h280q50 -98 50 -236z" />
    <glyph glyph-name="xi" unicode="&#x3be;" horiz-adv-x="912" 
d="M324 420q0 -55 22.5 -91t66 -60.5t175.5 -59.5q144 -40 200.5 -76t89.5 -92t33 -143q0 -67 -29.5 -155t-64.5 -144l-183 74q55 92 55 155q0 40 -20.5 67t-63 47t-166.5 52q-159 35 -227.5 75t-107 105t-38.5 165q0 118 55 217.5t159.5 165.5t248.5 88v2
q-154 12 -239 76.5t-85 163.5q0 90 71 153t202 88v8l-254 -8h-76v191h654v-185q-361 -37 -361 -211q0 -79 72 -123t246 -58v-191q-178 -21 -264 -55t-128.5 -91.5t-42.5 -149.5z" />
    <glyph glyph-name="omicron" unicode="&#x3bf;" 
d="M1171 542q0 -263 -146 -412.5t-404 -149.5q-253 0 -397 150t-144 412q0 261 144 410.5t403 149.5q265 0 404.5 -144.5t139.5 -415.5zM877 542q0 193 -63 280t-183 87q-256 0 -256 -367q0 -181 62.5 -275.5t180.5 -94.5q259 0 259 370z" />
    <glyph glyph-name="rho" unicode="&#x3c1;" horiz-adv-x="1267" 
d="M1187 516q0 -241 -125.5 -388.5t-334.5 -147.5q-188 0 -311 137h-4q4 -60 4 -117v-425h-295v1006q0 244 138 383t375 139q157 0 284 -73t198 -206.5t71 -307.5zM893 526q0 177 -70 280t-187 103q-220 0 -220 -337v-272q115 -126 261 -126q103 0 159.5 93t56.5 259z" />
    <glyph glyph-name="sigma1" unicode="&#x3c2;" horiz-adv-x="1065" 
d="M340 445q0 -58 22 -95t60.5 -62.5t91.5 -44t115 -39.5l82 -24q153 -44 213 -115.5t60 -184.5q0 -61 -30 -138.5t-76 -142.5l-178 74q55 92 55 154q0 38 -23.5 64.5t-69 46t-190.5 54.5q-114 30 -165.5 53.5t-92.5 55.5t-71 77t-47 106.5t-17 143.5q0 179 72.5 344.5
t193 248t276.5 82.5q225 0 351 -141l-139 -149q-95 100 -202 100q-81 0 -146 -59t-105 -175t-40 -234z" />
    <glyph glyph-name="upsilon" unicode="&#x3c5;" horiz-adv-x="1192" 
d="M1108 571q0 -292 -129.5 -441.5t-384.5 -149.5q-240 0 -353.5 110.5t-113.5 342.5v649h281v-622q0 -136 47.5 -204.5t155.5 -68.5q116 0 166 95t50 321q0 112 -37.5 252t-86.5 227h286q52 -104 85.5 -244t33.5 -267z" />
    <glyph glyph-name="chi" unicode="&#x3c7;" horiz-adv-x="1179" 
d="M233 1104q74 0 126 -32.5t100.5 -107.5t146.5 -300l14 -46q26 74 59 139l155 325h297l-375 -690l413 -816h-300l-195 432q-47 102 -72 190q-9 -29 -35 -92.5t-40 -92.5l-214 -437h-300l452 829l-119 243q-53 108 -85 159t-59 71.5t-64 20.5q-41 0 -81 -16l-40 191
q85 30 216 30z" />
    <glyph glyph-name="psi" unicode="&#x3c8;" horiz-adv-x="1543" 
d="M901 176q95 1 144.5 30t72 91.5t22.5 176.5v608h275v-624q0 -255 -123 -365.5t-389 -112.5v-405h-259v405q-266 2 -390.5 115.5t-124.5 362.5v624h275v-607q0 -155 52 -224.5t188 -73.5v1163h257v-1164z" />
    <glyph glyph-name="omega" unicode="&#x3c9;" horiz-adv-x="1730" 
d="M995 474q0 -142 47 -220t132 -78q97 0 143 81.5t46 261.5q0 162 -66.5 267t-187.5 128l23 189q249 -37 383 -189t134 -397q0 -257 -114 -397t-321 -140q-276 0 -347 238h-4q-71 -238 -347 -238q-207 0 -321 140t-114 397q0 246 134 397.5t382 188.5l23 -187
q-118 -23 -186 -125.5t-68 -269.5q0 -181 46.5 -262.5t141.5 -81.5q86 0 134.5 78t48.5 219v187h258v-187z" />
    <glyph glyph-name="iotadieresis" unicode="&#x3ca;" horiz-adv-x="569" 
d="M199 0q-30 32 -46 99.5t-16 136.5v846h282v-855q0 -60 21.5 -123.5t58.5 -103.5h-300zM395 1199v219h217v-219h-217zM-39 1199v219h214v-219h-214z" />
    <glyph glyph-name="upsilondieresis" unicode="&#x3cb;" horiz-adv-x="1192" 
d="M1108 571q0 -292 -129.5 -441.5t-384.5 -149.5q-240 0 -353.5 110.5t-113.5 342.5v649h281v-622q0 -136 47.5 -204.5t155.5 -68.5q116 0 166 95t50 321q0 112 -37.5 252t-86.5 227h286q52 -104 85.5 -244t33.5 -267zM692 1199v219h217v-219h-217zM258 1199v219h214v-219
h-214z" />
    <glyph glyph-name="omicrontonos" unicode="&#x3cc;" 
d="M1171 542q0 -263 -146 -412.5t-404 -149.5q-253 0 -397 150t-144 412q0 261 144 410.5t403 149.5q265 0 404.5 -144.5t139.5 -415.5zM877 542q0 193 -63 280t-183 87q-256 0 -256 -367q0 -181 62.5 -275.5t180.5 -94.5q259 0 259 370zM527 1183v33l69 292h257v-37
l-221 -288h-105z" />
    <glyph glyph-name="upsilontonos" unicode="&#x3cd;" horiz-adv-x="1192" 
d="M1108 571q0 -292 -129.5 -441.5t-384.5 -149.5q-240 0 -353.5 110.5t-113.5 342.5v649h281v-622q0 -136 47.5 -204.5t155.5 -68.5q116 0 166 95t50 321q0 112 -37.5 252t-86.5 227h286q52 -104 85.5 -244t33.5 -267zM465 1183v33l69 292h257v-37l-221 -288h-105z" />
    <glyph glyph-name="omegatonos" unicode="&#x3ce;" horiz-adv-x="1730" 
d="M995 474q0 -142 47 -220t132 -78q97 0 143 81.5t46 261.5q0 162 -66.5 267t-187.5 128l23 189q249 -37 383 -189t134 -397q0 -257 -114 -397t-321 -140q-276 0 -347 238h-4q-71 -238 -347 -238q-207 0 -321 140t-114 397q0 246 134 397.5t382 188.5l23 -187
q-118 -23 -186 -125.5t-68 -269.5q0 -181 46.5 -262.5t141.5 -81.5q86 0 134.5 78t48.5 219v187h258v-187zM788 1183v33l69 292h257v-37l-221 -288h-105z" />
    <glyph glyph-name="uni0401" unicode="&#x401;" horiz-adv-x="1370" 
d="M137 0v1409h1108v-228h-813v-354h752v-228h-752v-371h854v-228h-1149zM846 1530v219h197v-219h-197zM392 1530v219h194v-219h-194z" />
    <glyph glyph-name="uni0402" unicode="&#x402;" horiz-adv-x="1813" 
d="M773 1181v-336q122 51 248.5 77t234.5 26q232 0 342 -107.5t110 -340.5v-54q0 -247 -107.5 -356.5t-333.5 -109.5q-137 0 -231 41.5t-164 136.5l202 171q52 -68 93 -92.5t88 -24.5q91 0 130 51t39 198v9q0 145 -59.5 201t-203.5 56q-95 0 -200 -19t-188 -47v-661h-295
v1181h-455v228h1206v-228h-456z" />
    <glyph glyph-name="uni0403" unicode="&#x403;" horiz-adv-x="1161" 
d="M456 1530v31l252 254h258v-43l-340 -242h-170zM1121 1409v-228h-689v-1180h-295v1408h984z" />
    <glyph glyph-name="uni0404" unicode="&#x404;" horiz-adv-x="1457" 
d="M787 212q260 0 364 268l252 -97q-164 -403 -619 -403q-335 0 -517.5 192.5t-182.5 538.5q0 349 177 534t510 185q486 0 614 -392l-255 -71q-33 106 -127 168.5t-223 62.5q-180 0 -281.5 -96.5t-111.5 -272.5h546v-228h-547q13 -188 117 -288.5t284 -100.5z" />
    <glyph glyph-name="uni0405" unicode="&#x405;" horiz-adv-x="1366" 
d="M1286 406q0 -207 -153.5 -316.5t-450.5 -109.5q-271 0 -425 96t-198 291l285 47q29 -112 113 -162.5t233 -50.5q309 0 309 188q0 60 -35.5 99t-100 65t-247.5 63q-158 37 -220 59.5t-112 53t-85 73.5t-54.5 101t-19.5 133q0 191 143.5 292.5t417.5 101.5q262 0 393.5 -82
t169.5 -271l-286 -39q-22 91 -89.5 137t-193.5 46q-268 0 -268 -168q0 -55 28.5 -90t84.5 -59.5t227 -61.5q203 -43 290.5 -79.5t138.5 -85t78 -116t27 -155.5z" />
    <glyph glyph-name="uni0406" unicode="&#x406;" horiz-adv-x="569" 
d="M137 0v1409h295v-1409h-295z" />
    <glyph glyph-name="uni0407" unicode="&#x407;" horiz-adv-x="565" 
d="M137 0v1409h295v-1409h-295zM411 1530v219h197v-219h-197zM-43 1530v219h194v-219h-194z" />
    <glyph glyph-name="uni0408" unicode="&#x408;" horiz-adv-x="1139" 
d="M524 -20q-219 0 -336.5 95t-156.5 307l293 43q18 -109 67 -161.5t135 -52.5q88 0 133.5 59t45.5 169v739h-281v231h575v-963q0 -220 -125 -343t-350 -123z" />
    <glyph glyph-name="uni0409" unicode="&#x409;" horiz-adv-x="2240" 
d="M2168 431q0 -128 -61.5 -225.5t-180 -151.5t-279.5 -54h-691v1165h-347l-49 -348q-54 -376 -105 -536.5t-129 -228.5t-219 -68q-69 0 -99 17v247q14 -7 43 -7q57 0 94 70t69.5 227.5t66.5 397.5l67 473h903v-561h428q235 0 362 -109.5t127 -307.5zM1870 427
q0 93 -69.5 143.5t-207.5 50.5h-342v-391h348q271 0 271 197z" />
    <glyph glyph-name="uni040A" unicode="&#x40a;" horiz-adv-x="2176" 
d="M2102 431q0 -128 -61.5 -225.5t-180 -151.5t-279.5 -54h-602v604h-547v-604h-295v1409h295v-561h547v561h295v-561h339q235 0 362 -109.5t127 -307.5zM1804 427q0 93 -69.5 143.5t-207.5 50.5h-253v-391h259q271 0 271 197z" />
    <glyph glyph-name="uni040B" unicode="&#x40b;" horiz-adv-x="1792" 
d="M773 1181v-319q219 83 414 83q235 0 353.5 -113t118.5 -352v-480h-284v449q0 151 -68 214t-215 63q-152 0 -319 -53v-673h-295v1181h-455v228h1206v-228h-456z" />
    <glyph glyph-name="uni040C" unicode="&#x40c;" horiz-adv-x="1250" 
d="M137 1409h295v-599q52 0 111.5 61.5t154.5 213.5l206 324h300l-265 -405q-124 -189 -171 -224l485 -780h-321l-374 640q-20 -13 -59 -24t-68 -11v-605h-294v1409zM515 1530v31l252 254h258v-43l-340 -242h-170z" />
    <glyph glyph-name="uni040E" unicode="&#x40e;" horiz-adv-x="1274" 
d="M333 -20q-71 0 -141 17.5t-112 42.5l82 246q89 -42 160 -42q47 0 80.5 18t63 57.5t83.5 157.5l-556 932h307l388 -680l298 680h299l-525 -1091q-69 -144 -126.5 -210.5t-129 -97t-171.5 -30.5zM627 1514q-200 0 -299.5 82t-107.5 258h224q10 -199 183 -199t183 199h224
q-8 -177 -107.5 -258.5t-299.5 -81.5z" />
    <glyph glyph-name="uni040F" unicode="&#x40f;" horiz-adv-x="1472" 
d="M611 -408v408h-474v1409h295v-1165h617v1165h285v-1409h-473v-408h-250z" />
    <glyph glyph-name="uni0410" unicode="&#x410;" horiz-adv-x="1479" 
d="M1133 0l-125 360h-537l-125 -360h-295l514 1409h348l512 -1409h-292zM739 1192l-6 -22q-10 -36 -24 -82t-172 -506h405l-139 405l-43 136z" />
    <glyph glyph-name="uni0411" unicode="&#x411;" horiz-adv-x="1472" 
d="M1399 431q0 -128 -61.5 -225.5t-180 -151.5t-279.5 -54h-741v1409h1061v-227h-766v-334h478q235 0 362 -109.5t127 -307.5zM1101 427q0 93 -69.5 143.5t-207.5 50.5h-392v-391h398q271 0 271 197z" />
    <glyph glyph-name="uni0412" unicode="&#x412;" horiz-adv-x="1479" 
d="M1386 402q0 -192 -144 -297t-400 -105h-705v1409h645q258 0 390.5 -89.5t132.5 -264.5q0 -120 -66.5 -202.5t-202.5 -111.5q171 -20 260.5 -107.5t89.5 -231.5zM1008 1015q0 95 -60.5 135t-179.5 40h-336v-349h338q125 0 181.5 43.5t56.5 130.5zM1090 425q0 198 -284 198
h-374v-404h385q142 0 207.5 51.5t65.5 154.5z" />
    <glyph glyph-name="uni0413" unicode="&#x413;" horiz-adv-x="1161" 
d="M1121 1409v-228h-689v-1180h-295v1408h984z" />
    <glyph glyph-name="uni0414" unicode="&#x414;" horiz-adv-x="1459" 
d="M1237 244h185v-652h-250v408h-904v-408h-250v652h156q72 131 128 323.5t85 396.5l61 445h789v-1165zM952 244v921h-262l-31 -234q-29 -204 -76.5 -390.5t-99.5 -296.5h469z" />
    <glyph glyph-name="uni0415" unicode="&#x415;" horiz-adv-x="1366" 
d="M137 0v1409h1108v-228h-813v-354h752v-228h-752v-371h854v-228h-1149z" />
    <glyph glyph-name="uni0416" unicode="&#x416;" horiz-adv-x="1851" 
d="M786 0v612q-32 0 -70.5 8t-56.5 20l-349 -640h-316l455 780q-45 34 -160 222l-251 407h300l198 -324q110 -178 156 -226.5t93 -48.5v599h284v-599q47 0 93 47.5t157 227.5l198 324h300l-251 -407q-115 -188 -160 -222l455 -780h-316l-349 640q-56 -28 -127 -28v-612h-283
z" />
    <glyph glyph-name="uni0417" unicode="&#x417;" horiz-adv-x="1283" 
d="M638 -20q-236 0 -379.5 94.5t-212.5 293.5l264 93q92 -253 328 -253q129 0 196 53.5t67 150.5q0 101 -79.5 145.5t-248.5 44.5h-59v227h59q151 0 223 48t72 148q0 91 -61.5 139t-169.5 48q-212 0 -288 -247l-268 61q69 205 207.5 304t353.5 99q231 0 371 -99.5
t140 -267.5q0 -129 -71 -215t-209 -121q151 -22 233.5 -108t82.5 -218q0 -192 -149 -306t-402 -114z" />
    <glyph glyph-name="uni0418" unicode="&#x418;" horiz-adv-x="1472" 
d="M136 0v1409h262v-819q0 -107 -8 -275l613 1094h332v-1409h-262v831q0 78 8 254l-609 -1085h-336z" />
    <glyph glyph-name="uni0419" unicode="&#x419;" horiz-adv-x="1472" 
d="M136 0v1409h262v-819q0 -107 -8 -275l613 1094h332v-1409h-262v831q0 78 8 254l-609 -1085h-336zM742 1514q-200 0 -299.5 82t-107.5 258h224q10 -199 183 -199t183 199h224q-8 -177 -107.5 -258.5t-299.5 -81.5z" />
    <glyph glyph-name="uni041A" unicode="&#x41a;" horiz-adv-x="1250" 
d="M137 1409h295v-599q52 0 111.5 61.5t154.5 213.5l206 324h300l-265 -405q-124 -189 -171 -224l485 -780h-321l-374 640q-20 -13 -59 -24t-68 -11v-605h-294v1409z" />
    <glyph glyph-name="uni041B" unicode="&#x41b;" horiz-adv-x="1437" 
d="M1016 1165h-407l-49 -348q-54 -376 -105 -536.5t-129 -228.5t-219 -68q-69 0 -99 17v247q14 -7 43 -7q57 0 94 70t69.5 227.5t66.5 397.5l67 473h952v-1409h-284v1165z" />
    <glyph glyph-name="uni041C" unicode="&#x41c;" horiz-adv-x="1706" 
d="M1307 0v854q0 29 0.5 58t9.5 249q-71 -269 -105 -375l-254 -786h-210l-254 786l-107 375q12 -232 12 -307v-854h-262v1409h395l252 -788l22 -76l48 -189l63 226l259 827h393v-1409h-262z" />
    <glyph glyph-name="uni041D" unicode="&#x41d;" horiz-adv-x="1479" 
d="M1046 0v604h-614v-604h-295v1409h295v-561h614v561h295v-1409h-295z" />
    <glyph glyph-name="uni041E" unicode="&#x41e;" horiz-adv-x="1593" 
d="M1507 711q0 -220 -87 -387t-249 -255.5t-378 -88.5q-332 0 -520.5 195.5t-188.5 535.5q0 339 188 529t523 190t523.5 -192t188.5 -527zM1206 711q0 228 -108 357.5t-303 129.5q-198 0 -306 -128.5t-108 -358.5q0 -232 110.5 -365.5t301.5 -133.5q198 0 305.5 130
t107.5 369z" />
    <glyph glyph-name="uni041F" unicode="&#x41f;" horiz-adv-x="1472" 
d="M1050 0v1165h-619v-1165h-294v1409h1198v-1409h-285z" />
    <glyph glyph-name="uni0420" unicode="&#x420;" horiz-adv-x="1366" 
d="M1296 963q0 -136 -62 -243t-177.5 -165.5t-274.5 -58.5h-350v-496h-295v1409h633q253 0 389.5 -116.5t136.5 -329.5zM999 958q0 222 -262 222h-305v-457h313q122 0 188 60.5t66 174.5z" />
    <glyph glyph-name="uni0421" unicode="&#x421;" horiz-adv-x="1479" 
d="M795 212q267 0 371 268l257 -97q-83 -204 -243.5 -303.5t-384.5 -99.5q-340 0 -525.5 192.5t-185.5 538.5q0 347 179 533t519 186q248 0 404 -99.5t219 -292.5l-260 -71q-33 106 -129.5 168.5t-227.5 62.5q-200 0 -303.5 -124t-103.5 -363q0 -243 106.5 -371t307.5 -128z
" />
    <glyph glyph-name="uni0422" unicode="&#x422;" 
d="M773 1181v-1181h-295v1181h-455v228h1206v-228h-456z" />
    <glyph glyph-name="uni0423" unicode="&#x423;" horiz-adv-x="1274" 
d="M341 -20q-71 0 -141 17.5t-112 42.5l82 246q89 -42 160 -42q47 0 80.5 18t63 57.5t83.5 157.5l-556 932h307l388 -680l298 680h299l-525 -1091q-69 -144 -126.5 -210.5t-129 -97t-171.5 -30.5z" />
    <glyph glyph-name="uni0424" unicode="&#x424;" horiz-adv-x="1748" 
d="M1380 730q0 152 -79 237t-244 85h-44v-655h51q152 0 234 86t82 247zM735 -11v199h-79q-179 0 -312 68.5t-203 193t-70 284.5q0 251 155 389t442 138h67v158h278v-158h67q286 0 441.5 -138t155.5 -389q0 -161 -70 -285t-203 -192.5t-312 -68.5h-79v-199h-278zM368 730
q0 -160 81.5 -246.5t234.5 -86.5h51v655h-44q-165 0 -244 -85t-79 -237z" />
    <glyph glyph-name="uni0425" unicode="&#x425;" horiz-adv-x="1366" 
d="M1038 0l-354 561l-354 -561h-312l488 741l-447 668h312l313 -498l313 498h310l-428 -668l469 -741h-310z" />
    <glyph glyph-name="uni0426" unicode="&#x426;" horiz-adv-x="1496" 
d="M1231 -408v408h-1094v1409h295v-1165h569v1165h285v-1165h195v-652h-250z" />
    <glyph glyph-name="uni0427" unicode="&#x427;" horiz-adv-x="1439" 
d="M1006 0v547q-231 -83 -435 -83q-240 0 -350.5 113t-110.5 352v480h284v-449q0 -158 63.5 -217.5t213.5 -59.5q158 0 335 53v673h295v-1409h-295z" />
    <glyph glyph-name="uni0428" unicode="&#x428;" horiz-adv-x="2058" 
d="M137 0v1409h285v-1165h464v1165h285v-1165h465v1165h285v-1409h-1784z" />
    <glyph glyph-name="uni0429" unicode="&#x429;" horiz-adv-x="2087" 
d="M137 0v1409h285v-1165h443v1165h285v-1165h442v1165h285v-1165h195v-652h-250v408h-1685z" />
    <glyph glyph-name="uni042A" unicode="&#x42a;" horiz-adv-x="1781" 
d="M1219 848q235 0 362 -109.5t127 -307.5q0 -128 -61.5 -225.5t-180 -151.5t-279.5 -54h-709v1181h-456v228h751v-561h446zM1410 427q0 93 -69.5 143.5t-207.5 50.5h-360v-391h366q271 0 271 197z" />
    <glyph glyph-name="uni042B" unicode="&#x42b;" horiz-adv-x="2005" 
d="M1359 431q0 -128 -61.5 -225.5t-180 -151.5t-279.5 -54h-701v1409h295v-561h438q235 0 362 -109.5t127 -307.5zM1061 427q0 93 -69.5 143.5t-207.5 50.5h-352v-391h358q271 0 271 197zM1573 0v1409h295v-1409h-295z" />
    <glyph glyph-name="uni042C" unicode="&#x42c;" horiz-adv-x="1472" 
d="M1399 431q0 -128 -61.5 -225.5t-180 -151.5t-279.5 -54h-741v1409h295v-561h478q235 0 362 -109.5t127 -307.5zM1101 427q0 93 -69.5 143.5t-207.5 50.5h-392v-391h398q271 0 271 197z" />
    <glyph glyph-name="uni042D" unicode="&#x42d;" horiz-adv-x="1457" 
d="M670 212q180 0 284 100.5t117 288.5h-547v228h546q-10 176 -111 272.5t-282 96.5q-129 0 -223 -62.5t-127 -168.5l-255 71q128 392 614 392q333 0 510 -184.5t177 -534.5q0 -345 -182 -538t-518 -193q-455 0 -619 403l252 97q104 -268 364 -268z" />
    <glyph glyph-name="uni042E" unicode="&#x42e;" horiz-adv-x="2112" 
d="M2026 711q0 -221 -80 -387t-230 -255t-352 -89q-282 0 -453 165t-199 459h-280v-604h-295v1409h295v-561h283q35 280 205.5 431t445.5 151q310 0 485 -191.5t175 -527.5zM1725 711q0 233 -93 360t-266 127q-176 0 -268.5 -128t-92.5 -359q0 -237 95 -368t265 -131
q174 0 267 128t93 371z" />
    <glyph glyph-name="uni042F" unicode="&#x42f;" horiz-adv-x="1472" 
d="M35 0l381 592q-143 34 -227 141.5t-84 255.5q0 203 137.5 311.5t388.5 108.5h704v-1409h-295v535h-346l-327 -535h-332zM402 977q0 -100 63.5 -156.5t188.5 -56.5h386v416h-378q-260 0 -260 -203z" />
    <glyph glyph-name="uni0430" unicode="&#x430;" horiz-adv-x="1139" 
d="M393 -20q-157 0 -245 85.5t-88 240.5q0 168 109.5 256t317.5 90l233 4v55q0 106 -37 157.5t-121 51.5q-78 0 -114.5 -35.5t-45.5 -117.5l-293 14q27 158 144.5 239.5t320.5 81.5q205 0 316 -101t111 -287v-394q0 -91 20.5 -125.5t68.5 -34.5q32 0 62 6v-152
q-25 -6 -45 -11t-40 -8t-42.5 -5t-52.5 -2q-106 0 -156.5 52t-60.5 153h-6q-118 -213 -356 -213zM720 501l-144 -2q-98 -4 -139 -21.5t-62.5 -53.5t-21.5 -96q0 -77 35.5 -114.5t94.5 -37.5q66 0 120.5 36t85.5 99.5t31 134.5v55z" />
    <glyph glyph-name="uni0431" unicode="&#x431;" horiz-adv-x="1265" 
d="M890 501q0 172 -56 252.5t-183 80.5q-134 0 -197.5 -80.5t-63.5 -252.5q0 -167 60 -248t184 -81q138 0 197 80t59 249zM697 1027q251 0 369 -130.5t118 -392.5q0 -265 -141 -394.5t-409 -129.5q-277 0 -408.5 161.5t-131.5 494.5q0 170 25.5 299t81 221.5t143.5 155
t221.5 100.5t561.5 90v-235q-213 -22 -412.5 -54t-287 -83.5t-125.5 -147.5t-43 -269q103 314 438 314z" />
    <glyph glyph-name="uni0432" unicode="&#x432;" horiz-adv-x="1259" 
d="M679 1082q470 0 470 -271q0 -94 -64 -155.5t-179 -82.5v-7q134 -16 203.5 -81t69.5 -173q0 -157 -119.5 -234.5t-338.5 -77.5h-578v1082h536zM425 175h227q132 0 186 33.5t54 113.5q0 85 -57 119t-194 34h-216v-300zM425 907v-260h208q122 0 172.5 29t50.5 102
q0 67 -48 98t-162 31h-221z" />
    <glyph glyph-name="uni0433" unicode="&#x433;" horiz-adv-x="853" 
d="M798 1082v-190h-373v-892h-282v1082h655z" />
    <glyph glyph-name="uni0434" unicode="&#x434;" horiz-adv-x="1300" 
d="M834 892h-236q-67 -513 -168 -702h404v702zM259 0v-408h-245v598h125q72 112 124 324.5t99 567.5h754v-892h146v-598h-245v408h-758z" />
    <glyph glyph-name="uni0435" unicode="&#x435;" horiz-adv-x="1139" 
d="M586 -20q-244 0 -375 144.5t-131 421.5q0 268 133 412t377 144q233 0 356 -154.5t123 -452.5v-8h-694q0 -158 58.5 -238.5t166.5 -80.5q149 0 188 129l265 -23q-115 -294 -467 -294zM586 925q-99 0 -152.5 -69t-56.5 -193h420q-8 131 -63 196.5t-148 65.5z" />
    <glyph glyph-name="uni0436" unicode="&#x436;" horiz-adv-x="1452" 
d="M600 457q-66 0 -97 11l-223 -468h-297l318 571q-35 29 -92 130l-216 381h274l136 -257q43 -83 74.5 -129.5t56.5 -66t66 -21.5v474h252v-474q40 2 65 21t55.5 63.5t76.5 132.5l136 257h274l-216 -381q-52 -97 -92 -130l318 -571h-297l-223 468q-26 -11 -97 -11v-457h-252
v457z" />
    <glyph glyph-name="uni0437" unicode="&#x437;" horiz-adv-x="1018" 
d="M493 -20q-179 0 -289 80t-151 228l241 44q17 -74 70.5 -119t126.5 -45q80 0 124.5 39.5t44.5 103.5q0 84 -67 122t-228 38v177q150 0 216.5 35.5t66.5 112.5q0 60 -39 93.5t-111 33.5q-82 0 -129.5 -39t-54.5 -105l-237 22q25 147 140.5 224t297.5 77q180 0 290.5 -77.5
t110.5 -203.5q0 -98 -62.5 -163t-185.5 -91v-2q128 -14 204.5 -85.5t76.5 -175.5q0 -151 -120.5 -237.5t-335.5 -86.5z" />
    <glyph glyph-name="uni0438" unicode="&#x438;" horiz-adv-x="1259" 
d="M404 1082v-486q0 -46 -7 -147t-13 -140l448 773h285v-1082h-260v550q0 50 7 123t13 100l-435 -773h-300v1082h262z" />
    <glyph glyph-name="uni0439" unicode="&#x439;" horiz-adv-x="1259" 
d="M404 1082v-486q0 -46 -7 -147t-13 -140l448 773h285v-1082h-260v550q0 50 7 123t13 100l-435 -773h-300v1082h262zM638 1184q-200 0 -299.5 82t-107.5 258h224q10 -199 183 -199t183 199h224q-8 -177 -107.5 -258.5t-299.5 -81.5z" />
    <glyph glyph-name="uni043A" unicode="&#x43a;" horiz-adv-x="1025" 
d="M142 1082h282v-464q42 2 62 15.5t43 44t51.5 81t161.5 323.5h274l-206 -381q-44 -82 -102 -130l318 -571h-287l-233 458q-31 -11 -82 -11v-447h-282v1082z" />
    <glyph glyph-name="uni043B" unicode="&#x43b;" horiz-adv-x="1301" 
d="M876 0v892h-310q-53 -392 -84.5 -542t-67.5 -226.5t-91 -110t-148 -33.5q-36 0 -83.5 4t-70.5 9v191q25 -9 68 -9q56 0 85.5 52t59 204t97.5 651h827v-1082h-282z" />
    <glyph glyph-name="uni043C" unicode="&#x43c;" horiz-adv-x="1515" 
d="M870 0h-213l-284 885q16 -155 16 -257v-628h-246v1082h372l180 -561q57 -184 68 -286q16 118 68 286l175 561h366v-1082h-246v628q0 103 18 259z" />
    <glyph glyph-name="uni043D" unicode="&#x43d;" horiz-adv-x="1237" 
d="M425 1082v-428h387v428h282v-1082h-282v463h-387v-463h-282v1082h282z" />
    <glyph glyph-name="uni043E" unicode="&#x43e;" 
d="M1171 542q0 -263 -146 -412.5t-404 -149.5q-253 0 -397 150t-144 412q0 261 144 410.5t403 149.5q265 0 404.5 -144.5t139.5 -415.5zM877 542q0 193 -63 280t-183 87q-256 0 -256 -367q0 -181 62.5 -275.5t180.5 -94.5q259 0 259 370z" />
    <glyph glyph-name="uni043F" unicode="&#x43f;" horiz-adv-x="1237" 
d="M1094 1082v-1082h-282v892h-387v-892h-282v1082h951z" />
    <glyph glyph-name="uni0440" unicode="&#x440;" 
d="M1167 546q0 -271 -108.5 -418.5t-306.5 -147.5q-114 0 -198.5 49.5t-129.5 142.5h-6q6 -30 6 -182v-415h-281v1258q0 153 -8 249h273q5 -18 8.5 -71t3.5 -105h4q95 199 346 199q189 0 293 -145.5t104 -413.5zM874 546q0 364 -223 364q-112 0 -171.5 -98t-59.5 -274
q0 -175 59.5 -270.5t169.5 -95.5q225 0 225 374z" />
    <glyph glyph-name="uni0441" unicode="&#x441;" horiz-adv-x="1139" 
d="M594 -20q-246 0 -380 146.5t-134 408.5q0 268 135 417.5t383 149.5q191 0 316 -96t157 -265l-283 -14q-12 83 -60 132.5t-136 49.5q-217 0 -217 -363q0 -374 221 -374q80 0 134 50.5t67 150.5l282 -13q-15 -111 -79.5 -198t-169.5 -134.5t-236 -47.5z" />
    <glyph glyph-name="uni0442" unicode="&#x442;" horiz-adv-x="1003" 
d="M58 1082h888v-190h-303v-892h-282v892h-303v190z" />
    <glyph glyph-name="uni0443" unicode="&#x443;" horiz-adv-x="1139" 
d="M283 -425q-101 0 -177 13v200q53 -8 97 -8q60 0 99.5 19t71 63t70.5 149l-428 1071h297l170 -507q40 -109 101 -334l25 95l65 235l160 511h294l-428 -1139q-86 -208 -178.5 -288t-238.5 -80z" />
    <glyph glyph-name="uni0444" unicode="&#x444;" horiz-adv-x="1792" 
d="M1709 546q0 -271 -100.5 -418.5t-280.5 -147.5q-103 0 -181.5 48.5t-120.5 143.5h-6q6 -30 6 -182v-415h-261v601h-2q-84 -196 -318 -196q-174 0 -268.5 148t-94.5 412q0 269 100 415.5t282 146.5q107 0 184 -49t117 -142h2l-2 178v395h261v-578q87 199 318 199
q173 0 269 -144.5t96 -414.5zM769 547q0 173 -50.5 268.5t-149.5 95.5q-97 0 -145.5 -89.5t-48.5 -281.5q0 -368 192 -368q97 0 149.5 99.5t52.5 275.5zM1416 546q0 364 -194 364q-96 0 -148 -97t-52 -275q0 -174 51.5 -270t147.5 -96q195 0 195 374z" />
    <glyph glyph-name="uni0445" unicode="&#x445;" horiz-adv-x="1139" 
d="M819 0l-252 392l-254 -392h-299l396 559l-377 523h303l231 -354l230 354h305l-377 -520l399 -562h-305z" />
    <glyph glyph-name="uni0446" unicode="&#x446;" horiz-adv-x="1259" 
d="M143 0v1082h282v-892h387v892h282v-892h146v-598h-245v408h-852z" />
    <glyph glyph-name="uni0447" unicode="&#x447;" horiz-adv-x="1189" 
d="M363 1082v-386q0 -156 158 -156q46 0 88.5 6.5t156.5 38.5v497h281v-1082h-281v415l-85 -30q-153 -56 -292 -56q-146 0 -226 82.5t-80 232.5v438h280z" />
    <glyph glyph-name="uni0448" unicode="&#x448;" horiz-adv-x="1707" 
d="M1560 0h-1417v1082h262v-892h316v892h262v-892h315v892h262v-1082z" />
    <glyph glyph-name="uni0449" unicode="&#x449;" horiz-adv-x="1728" 
d="M143 0v1082h262v-892h317v892h262v-892h316v892h262v-892h146v-598h-245v408h-1320z" />
    <glyph glyph-name="uni044A" unicode="&#x44a;" horiz-adv-x="1493" 
d="M941 647q235 0 351 -77t116 -241q0 -161 -120 -245t-346 -84h-531v892h-373v190h655v-435h248zM693 175h188q127 0 183.5 35.5t56.5 118.5q0 78 -54 112t-185 34h-189v-300z" />
    <glyph glyph-name="uni044B" unicode="&#x44b;" horiz-adv-x="1749" 
d="M697 647q235 0 356 -77t121 -241q0 -159 -123.5 -244t-352.5 -85h-555v1082h282v-435h272zM425 175h212q130 0 190 36.5t60 117.5q0 76 -58 111t-191 35h-213v-300zM1325 0v1082h281v-1082h-281z" />
    <glyph glyph-name="uni044C" unicode="&#x44c;" horiz-adv-x="1259" 
d="M697 647q235 0 356 -77t121 -241q0 -159 -123.5 -244t-352.5 -85h-555v1082h282v-435h272zM425 175h212q130 0 190 36.5t60 117.5q0 76 -58 111t-191 35h-213v-300z" />
    <glyph glyph-name="uni044D" unicode="&#x44d;" horiz-adv-x="1131" 
d="M52 360l282 13q13 -100 67 -150.5t134 -50.5q105 0 157.5 65t59.5 216h-309v190h309q-7 141 -59 203.5t-154 62.5q-88 0 -136 -49.5t-60 -132.5l-283 14q31 169 157 265t316 96q248 0 383 -149.5t135 -417.5q0 -262 -134 -408.5t-380 -146.5q-132 0 -237 48t-169 134.5
t-79 197.5z" />
    <glyph glyph-name="uni044E" unicode="&#x44e;" horiz-adv-x="1749" 
d="M1669 542q0 -265 -140.5 -413.5t-389.5 -148.5q-225 0 -361 128t-157 355h-196v-463h-282v1082h282v-428h200q31 217 166.5 332.5t353.5 115.5q255 0 389.5 -143.5t134.5 -416.5zM1375 542q0 193 -58 280t-168 87q-236 0 -236 -367q0 -182 58 -276t166 -94q238 0 238 370
z" />
    <glyph glyph-name="uni044F" unicode="&#x44f;" horiz-adv-x="1195" 
d="M578 435l-272 -435h-307l322 471q-114 27 -173.5 105t-59.5 196q0 154 121.5 232t355.5 78h487v-1082h-282v435h-192zM772 907h-192q-205 0 -205 -151q0 -149 189 -149h208v300z" />
    <glyph glyph-name="uni0451" unicode="&#x451;" horiz-adv-x="1139" 
d="M586 -20q-244 0 -375 144.5t-131 421.5q0 268 133 412t377 144q233 0 356 -154.5t123 -452.5v-8h-694q0 -158 58.5 -238.5t166.5 -80.5q149 0 188 129l265 -23q-115 -294 -467 -294zM586 925q-99 0 -152.5 -69t-56.5 -193h420q-8 131 -63 196.5t-148 65.5zM694 1199v219
h217v-219h-217zM260 1199v219h214v-219h-214z" />
    <glyph glyph-name="uni0452" unicode="&#x452;" 
d="M837 -425q-100 0 -170 9v198l51 -4q74 0 100 32.5t26 129.5v626q0 285 -193 285q-102 0 -164.5 -87.5t-62.5 -224.5v-539h-281v1175h-133v170h133v139h281v-139h310v-170h-310v-136q0 -109 -8 -213h4q57 124 143 180t205 56q172 0 264 -106t92 -310v-774
q0 -143 -72.5 -220t-214.5 -77z" />
    <glyph glyph-name="uni0453" unicode="&#x453;" horiz-adv-x="853" 
d="M798 1082v-190h-373v-892h-282v1082h655zM303 1183v31l252 288h258v-43l-340 -276h-170z" />
    <glyph glyph-name="uni0454" unicode="&#x454;" horiz-adv-x="1131" 
d="M594 -20q-246 0 -380 146.5t-134 408.5q0 268 135 417.5t383 149.5q191 0 316 -96t157 -265l-283 -14q-12 83 -60 132.5t-136 49.5q-203 0 -213 -266h309v-190h-309q10 -281 217 -281q80 0 134 50.5t67 150.5l282 -13q-15 -111 -79.5 -198t-169.5 -134.5t-236 -47.5z" />
    <glyph glyph-name="uni0455" unicode="&#x455;" horiz-adv-x="1139" 
d="M1055 316q0 -157 -128.5 -246.5t-355.5 -89.5q-223 0 -341.5 70.5t-157.5 219.5l247 37q21 -77 72.5 -109t179.5 -32q118 0 172 30t54 94q0 52 -43.5 82.5t-147.5 51.5q-238 47 -321 87.5t-126.5 105t-43.5 158.5q0 155 119.5 241.5t338.5 86.5q193 0 310.5 -75
t146.5 -217l-249 -26q-12 66 -59 98.5t-149 32.5q-100 0 -150 -25.5t-50 -85.5q0 -47 38.5 -74.5t129.5 -45.5q127 -26 225.5 -53.5t158 -65.5t95 -97.5t35.5 -152.5z" />
    <glyph glyph-name="uni0456" unicode="&#x456;" horiz-adv-x="569" 
d="M143 1277v207h281v-207h-281zM143 0v1082h281v-1082h-281z" />
    <glyph glyph-name="uni0457" unicode="&#x457;" horiz-adv-x="576" 
d="M145 0v1082h281v-1082h-281zM396 1199v219h217v-219h-217zM-38 1199v219h214v-219h-214z" />
    <glyph glyph-name="uni0458" unicode="&#x458;" horiz-adv-x="569" 
d="M144 1277v207h281v-207h-281zM138 -425q-100 0 -170 9v198l51 -4q72 0 98.5 31.5t26.5 130.5v1142h281v-1210q0 -143 -72.5 -220t-214.5 -77z" />
    <glyph glyph-name="uni0459" unicode="&#x459;" horiz-adv-x="1984" 
d="M868 0v892h-302q-53 -392 -84.5 -542t-67.5 -226.5t-91 -110t-148 -33.5q-36 0 -83.5 4t-70.5 9v191q25 -9 68 -9q56 0 85.5 52t59 204t97.5 651h819v-435h272q235 0 356 -77t121 -241q0 -159 -123.5 -244t-352.5 -85h-555zM1150 175h212q130 0 190 36.5t60 117.5
q0 76 -58 111t-191 35h-213v-300z" />
    <glyph glyph-name="uni045A" unicode="&#x45a;" horiz-adv-x="1856" 
d="M1294 647q235 0 356 -77t121 -241q0 -159 -123.5 -244t-352.5 -85h-519v463h-351v-463h-282v1082h282v-428h351v428h282v-435h236zM1058 175h176q130 0 190 36.5t60 117.5q0 76 -58 111t-191 35h-177v-300z" />
    <glyph glyph-name="uni045B" unicode="&#x45b;" 
d="M844 0v566q0 285 -193 285q-102 0 -164.5 -87.5t-62.5 -224.5v-539h-281v1175h-133v170h133v139h281v-139h310v-170h-310v-136q0 -109 -8 -213h4q57 124 143 180t205 56q172 0 264 -106t92 -310v-646h-280z" />
    <glyph glyph-name="uni045C" unicode="&#x45c;" horiz-adv-x="1025" 
d="M142 1082h282v-464q42 2 62 15.5t43 44t51.5 81t161.5 323.5h274l-206 -381q-44 -82 -102 -130l318 -571h-287l-233 458q-31 -11 -82 -11v-447h-282v1082zM406 1183v31l252 288h258v-43l-340 -276h-170z" />
    <glyph glyph-name="uni045E" unicode="&#x45e;" horiz-adv-x="1139" 
d="M283 -425q-101 0 -177 13v200q53 -8 97 -8q60 0 99.5 19t71 63t70.5 149l-428 1071h297l170 -507q40 -109 101 -334l25 95l65 235l160 511h294l-428 -1139q-86 -208 -178.5 -288t-238.5 -80zM568 1184q-200 0 -299.5 82t-107.5 258h224q10 -199 183 -199t183 199h224
q-8 -177 -107.5 -258.5t-299.5 -81.5z" />
    <glyph glyph-name="uni045F" unicode="&#x45f;" horiz-adv-x="1237" 
d="M496 0h-353v1082h282v-891h387v891h282v-1082h-353v-408h-245v408z" />
    <glyph glyph-name="uni0490" unicode="&#x490;" horiz-adv-x="997" 
d="M703 1409v411h250v-639h-521v-1180h-295v1408h566z" />
    <glyph glyph-name="uni0491" unicode="&#x491;" horiz-adv-x="915" 
d="M584 1082v408h245v-598h-404v-892h-282v1082h441z" />
    <glyph glyph-name="uni2015" unicode="&#x2015;" horiz-adv-x="2048" 
d="M0 448v203h2048v-203h-2048z" />
    <glyph glyph-name="uni2116" unicode="&#x2116;" horiz-adv-x="2283" 
d="M1524 0v166h635v-166h-635zM1039 0l-678 1095q18 -166 18 -264v-831h-242v1409h297l683 -1104q-18 176 -18 285v819h242v-1409h-302zM2175 623q0 -162 -89.5 -255t-248.5 -93q-152 0 -241 92t-89 256q0 162 88 254t246 92q160 0 247 -89t87 -257zM1961 623
q0 102 -27 147.5t-91 45.5q-65 0 -94.5 -46.5t-29.5 -146.5q0 -101 28.5 -149.5t88.5 -48.5q66 0 95.5 47.5t29.5 150.5z" />
    <glyph glyph-name="pi" unicode="&#x3c0;" horiz-adv-x="1568" 
d="M1240 892v-589q0 -72 28 -99.5t76 -27.5q38 0 98 12l20 -184q-106 -24 -223 -24q-141 0 -209.5 74.5t-68.5 210.5v627h-363v-124q0 -226 -21 -408t-67 -360h-287q58 234 79.5 403t21.5 357v132q-215 0 -282 -37v198q29 14 82 21.5t100 7.5h1289v-190h-273z" />
    <glyph glyph-name="currency" unicode="&#xa4;" horiz-adv-x="1139" 
d="M134 684q0 120 60 221l-133 133l157 156l131 -133q101 59 220 59q121 0 219 -59l135 135l158 -158l-136 -135q60 -99 60 -219q0 -118 -58 -217l134 -133l-158 -160l-133 135q-100 -59 -221 -59q-122 0 -220 57l-135 -137l-157 158l135 137q-58 99 -58 219zM360 686
q0 -86 61 -147.5t148 -61.5q85 0 146.5 62t61.5 147q0 86 -61 147.5t-147 61.5t-147.5 -61t-61.5 -148z" />
    <glyph glyph-name="commaaccent" horiz-adv-x="682" 
d="M348 -204q0 -73 -21.5 -131.5t-72.5 -119.5h-137q94 100 94 170h-108v207h245v-126z" />
    <glyph glyph-name="foursuperior" unicode="&#x2074;" horiz-adv-x="682" 
d="M562 834v-140h-183v140h-344v148l316 432h211v-440h103v-140h-103zM383 1276l-11 -19q-26 -47 -54 -89l-141 -194h202v194z" />
    <glyph glyph-name="fivesuperior" unicode="&#x2075;" horiz-adv-x="682" 
d="M640 939q0 -117 -80 -186t-221 -69q-121 0 -195.5 53.5t-90.5 149.5l190 12q16 -88 102 -88q49 0 78 32t29 92q0 53 -26 84t-78 31q-65 0 -99 -46h-178l29 405h495v-138h-337l-10 -136q23 19 62.5 32.5t85.5 13.5q112 0 178 -66t66 -176z" />
    <glyph glyph-name="sevensuperior" unicode="&#x2077;" horiz-adv-x="682" 
d="M624 1281q-152 -187 -202 -311.5t-50 -275.5h-193q0 132 56 257.5t218 319.5h-410v138h579z" />
    <glyph glyph-name="eightsuperior" unicode="&#x2078;" horiz-adv-x="682" 
d="M633 897q0 -102 -77.5 -157.5t-216.5 -55.5q-141 0 -217.5 56.5t-76.5 155.5q0 72 43 118.5t105 55.5v2q-60 14 -94.5 59t-34.5 103q0 86 69.5 138t203.5 52q133 0 205 -49.5t72 -141.5q0 -59 -36.5 -104t-94.5 -56v-2q70 -11 110 -57t40 -117zM427 1216q0 83 -88 83
t-88 -83q0 -87 88 -87t88 87zM444 912q0 92 -109 92q-105 0 -105 -93q0 -100 109 -100q53 0 79 23t26 78z" />
    <glyph glyph-name="breve.cyr" horiz-adv-x="682" 
d="M340 1184q-200 0 -299.5 82t-107.5 258h224q10 -199 183 -199t183 199h224q-8 -177 -107.5 -258.5t-299.5 -81.5z" />
    <glyph glyph-name="caroncommaaccent" horiz-adv-x="455" 
d="M358 1263q0 -73 -21.5 -132t-72.5 -119h-137q94 100 94 190h-108v207h245v-146z" />
    <glyph glyph-name="commaaccentrotate" horiz-adv-x="455" 
d="M103 1358q0 87 22 145.5t62 105.5h147q-94 -100 -94 -190h108v-207h-245v146z" />
    <glyph glyph-name="grave.uc" horiz-adv-x="682" 
d="M427 1530l-340 242v43h258l251 -254v-31h-169z" />
    <glyph glyph-name="acute.uc" horiz-adv-x="682" 
d="M87 1530v31l252 254h258v-43l-340 -242h-170z" />
    <glyph glyph-name="circumflex.uc" horiz-adv-x="682" 
d="M710 1559v-29h-159l-203 151h-4l-211 -151h-160v29l258 276h229z" />
    <glyph glyph-name="caron.uc" horiz-adv-x="682" 
d="M460 1530h-229l-258 276v29h160l211 -152h4l203 152h159v-29z" />
    <glyph glyph-name="dieresis.uc" horiz-adv-x="682" 
d="M469 1530v219h197v-219h-197zM15 1530v219h194v-219h-194z" />
    <glyph glyph-name="tilde.uc" horiz-adv-x="682" 
d="M508 1530q-44 0 -88.5 19t-86.5 42.5t-79.5 42.5t-67.5 19q-41 0 -62.5 -23t-35.5 -100h-137q8 113 32.5 169.5t70.5 90t122 33.5q45 0 90 -19t87 -42.5t78.5 -42.5t65.5 -19q40 0 62.5 24.5t36.5 98.5h135q-7 -157 -63.5 -225t-159.5 -68z" />
    <glyph glyph-name="hungarumlaut.uc" horiz-adv-x="682" 
d="M50 1530h-132v34l215 252h235v-43zM456 1530h-132v34l215 252h235v-43z" />
    <glyph glyph-name="breve.uc" horiz-adv-x="682" 
d="M347 1520q-145 0 -243 81t-109 207h163q15 -62 68 -99t123 -37q72 0 124 36.5t66 99.5h164q-19 -133 -114.5 -210.5t-241.5 -77.5z" />
    <glyph glyph-name="uni200C" unicode="&#x200c;" horiz-adv-x="0" 
d="M42 1287v-1560h-84v1560h84z" />
    <glyph glyph-name="uni200D" unicode="&#x200d;" horiz-adv-x="0" 
d="M42 -273h-84v1369l-127 -128l-55 55l169 168l-169 167l55 56l169 -170l169 170l55 -56l-169 -167l169 -168l-55 -55l-127 128v-1369z" />
    <glyph glyph-name="uni200E" unicode="&#x200e;" horiz-adv-x="0" 
d="M435 1193l-223 -219l-55 55l132 125h-248v-1427h-82v1506h330l-132 125l55 56z" />
    <glyph glyph-name="uni200F" unicode="&#x200f;" horiz-adv-x="0" 
d="M40 -273h-82v1427h-248l132 -125l-55 -55l-223 219l223 221l55 -56l-132 -125h330v-1506z" />
    <glyph glyph-name="uni202A" unicode="&#x202a;" horiz-adv-x="0" 
d="M42 1154v-1427h-83v1506h476v-79h-393z" />
    <glyph glyph-name="uni202B" unicode="&#x202b;" horiz-adv-x="0" 
d="M-435 1154v79h476v-1506h-83v1427h-393z" />
    <glyph glyph-name="uni202D" unicode="&#x202d;" horiz-adv-x="0" 
d="M238 977h-196v-1250h-84v1250h-196v434h476v-79h-395v-277h395v-78z" />
    <glyph glyph-name="uni202E" unicode="&#x202e;" horiz-adv-x="0" 
d="M-238 1055h395v277h-395v79h476v-434h-196v-1250h-84v1250h-196v78z" />
    <glyph glyph-name="uni202C" unicode="&#x202c;" horiz-adv-x="0" 
d="M238 977h-196v-1250h-84v1250h-196v434h476v-434z" />
    <glyph glyph-name="uni206E" unicode="&#x206e;" horiz-adv-x="0" 
d="M42 -273h-84v1285l-197 181l239 221l239 -221l-197 -181v-1285zM126 1193l-126 113l-126 -113l126 -112z" />
    <glyph glyph-name="uni206F" unicode="&#x206f;" horiz-adv-x="0" 
d="M-238 1055h196v277h-196v79h280v-356h196v-78h-196v-1250h-84v1250h-196v78z" />
    <glyph glyph-name="uni206A" unicode="&#x206a;" horiz-adv-x="0" 
d="M-238 1055h196v277h-196v79h476v-79h-196v-277h196v-78h-196v-1250h-84v1250h-196v78z" />
    <glyph glyph-name="uni206B" unicode="&#x206b;" horiz-adv-x="0" 
d="M-157 1055h314v277h-314v-277zM-238 977v434h476v-434h-196v-1250h-84v1250h-196z" />
    <glyph glyph-name="uni206C" unicode="&#x206c;" horiz-adv-x="0" 
d="M42 -273h-84v1318l-198 366h480l-198 -366v-1318z" />
    <glyph glyph-name="uni206D" unicode="&#x206d;" horiz-adv-x="0" 
d="M42 977v-1250h-84v1250h-198l240 441l240 -441h-198z" />
    <glyph glyph-name="uniF00A" unicode="&#xf00a;" horiz-adv-x="0" 
d="M42 1831v-968h-84v968h84zM42 543v-968h-84v968h84z" />
    <glyph glyph-name="uniF00B" unicode="&#xf00b;" horiz-adv-x="0" 
d="M-239 -425v77h197v2102h-197v77h478v-77h-197v-2102h197v-77h-478z" />
    <glyph glyph-name="uniF00C" unicode="&#xf00c;" horiz-adv-x="0" 
d="M230 1656l-188 -164v-1917h-84v2256z" />
    <glyph glyph-name="uniF00D" unicode="&#xf00d;" horiz-adv-x="0" 
d="M42 1831v-2256h-84v1917l-188 164z" />
    <glyph glyph-name="uniF00E" unicode="&#xf00e;" horiz-adv-x="0" 
d="M42 1831v-2177h198v-79h-282v2256h84z" />
    <glyph glyph-name="uniFFFC" unicode="&#xfffc;" horiz-adv-x="2048" 
d="M2048 1150h-100v223h-223v100h323v-323zM1473 1373h-323v100h323v-100zM2048 575h-100v323h100v-323zM898 1373h-323v100h323v-100zM2048 0h-323v100h223v223h100v-323zM323 1373h-223v-223h-100v323h323v-100zM1473 0h-323v100h323v-100zM100 575h-100v323h100v-323z
M898 0h-323v100h323v-100zM323 0h-323v323h100v-223h223v-100zM1603 327q-93 0 -140.5 47.5t-68.5 166.5l107 18q12 -75 33 -109t69 -34q50 0 72 33.5t22 128.5v482h-94v90h202v-569q0 -130 -50 -192t-152 -62zM1336 568q0 -108 -77.5 -168.5t-220.5 -60.5h-176v811h142
q286 0 286 -196q0 -68 -38.5 -119t-116.5 -68q99 -11 150 -64.5t51 -134.5zM1179 940q0 66 -44.5 94.5t-130.5 28.5h-32v-258h32q175 0 175 135zM1226 577q0 69 -50.5 106t-151.5 37h-52v-294h61q193 0 193 151zM778 749q0 -422 -295 -422q-149 0 -222 102.5t-73 319.5
q0 213 73 313.5t223 100.5q148 0 221 -100.5t73 -313.5zM665 749q0 171 -44.5 247.5t-136.5 76.5q-96 0 -139.5 -77t-43.5 -247q0 -174 45 -253.5t137 -79.5q93 0 137.5 75.5t44.5 257.5z" />
    <glyph glyph-name="Ohorn" unicode="&#x1a0;" horiz-adv-x="1747" 
d="M1744 1199q0 -319 -241 -408l4 -80q0 -220 -87 -387t-249 -255.5t-378 -88.5q-332 0 -520.5 195.5t-188.5 535.5q0 339 188 529t523 190q273 0 453 -131t235 -372q123 63 123 222h-125v260h263v-210zM1206 711q0 228 -108 357.5t-303 129.5q-198 0 -306 -128.5
t-108 -358.5q0 -232 110.5 -365.5t301.5 -133.5q198 0 305.5 130t107.5 369z" />
    <glyph glyph-name="ohorn" unicode="&#x1a1;" horiz-adv-x="1456" 
d="M1456 872q0 -171 -70 -275.5t-220 -142.5q-23 -226 -167 -350t-378 -124q-253 0 -397 150t-144 412q0 261 144 410.5t403 149.5q255 0 393.5 -132.5t149.5 -382.5q148 56 148 235h-125v260h263v-210zM877 542q0 193 -63 280t-183 87q-256 0 -256 -367q0 -181 62.5 -275.5
t180.5 -94.5q132 0 195.5 91.5t63.5 278.5z" />
    <glyph glyph-name="Uhorn" unicode="&#x1af;" horiz-adv-x="1699" 
d="M715 -20q-288 0 -440 140t-152 408v881h295v-858q0 -340 305 -340q157 0 239 90.5t82 259.5v848h295v-512q107 14 164.5 79.5t57.5 172.5h-125v260h263v-210q0 -188 -86 -298.5t-274 -139.5v-218q0 -269 -163 -416t-461 -147z" />
    <glyph glyph-name="uhorn" unicode="&#x1b0;" horiz-adv-x="1483" 
d="M408 1082v-607q0 -285 192 -285q102 0 164.5 87.5t62.5 224.5v580h281v-521q110 12 173.5 81.5t63.5 179.5h-125v260h263v-210q0 -196 -93 -305t-282 -135v-190q0 -87 2.5 -142.5t5.5 -99.5h-268q-4 25 -7.5 97t-4.5 118h-5q-107 -235 -348 -235q-172 0 -264 106t-92 309
v687h281z" />
    <glyph glyph-name="hookabovecomb" unicode="&#x309;" horiz-adv-x="0" 
d="M-231 1668q0 62 -147 62q-52 0 -108 -8l-11 102q55 11 167 11q141 0 215 -39.5t74 -112.5q0 -53 -44 -89t-138 -43v-60h-150v120q142 0 142 57z" />
    <glyph glyph-name="hookabove.alt2" horiz-adv-x="0" 
d="M-209 1365q0 56 -137 56q-67 0 -120 -10l-11 108q60 12 124 12q154 0 232.5 -40.5t78.5 -115.5q0 -112 -182 -133v-50h-124v110q60 0 99.5 18t39.5 45z" />
    <glyph glyph-name="tildecomb" unicode="&#x303;" horiz-adv-x="0" 
d="M-427 1571q-40 0 -80 17.5t-78 38t-72 38t-61 17.5q-37 0 -57.5 -23.5t-30.5 -87.5h-124q8 102 29.5 153.5t63.5 81t110 29.5q41 0 82 -17t78.5 -38t71 -38t59.5 -17q44 0 62 29t27 81h122q-5 -98 -27 -150.5t-64 -83t-111 -30.5z" />
    <glyph glyph-name="dotbelow.alt1" horiz-adv-x="0" 
d="M-352 -366v207h281v-207h-281z" />
    <glyph glyph-name="dong" unicode="&#x20ab;" horiz-adv-x="1051" 
d="M659 1386v98h201v-98h95v-119h-95v-661q0 -94 6 -166h-195q-3 7 -6.5 47t-3.5 68q-69 -129 -252 -129q-134 0 -208.5 99.5t-74.5 281.5q0 183 78 281.5t220 98.5q76 0 139.5 -29.5t96.5 -94.5v21l-1 67v116h-205v119h205zM662 812q0 117 -41.5 180t-124.5 63
q-77 0 -118.5 -57t-41.5 -191q0 -246 159 -246q81 0 124 66t43 185zM128 314h815v-126h-815v126z" />
    <glyph glyph-name="onethird" unicode="&#x2153;" horiz-adv-x="1708" 
d="M524 0h-201l895 1409h201zM94 694v121h184v468l-173 -108v122l180 117h175v-599h170v-121h-536zM1630 200q0 -99 -75 -155t-213 -56q-135 0 -214 52t-92 156l189 12q10 -93 114 -93q102 0 102 96q0 93 -139 93h-56v126h51q63 0 95 23.5t32 66.5q0 39 -23 61t-66 22
q-88 0 -98 -89l-186 12q11 94 87.5 149t201.5 55q128 0 199.5 -51.5t71.5 -136.5q0 -64 -36.5 -109.5t-115.5 -61.5v-2q83 -9 127 -55t44 -115z" />
    <glyph glyph-name="twothirds" unicode="&#x2154;" horiz-adv-x="1708" 
d="M524 0h-201l895 1409h201zM1630 200q0 -99 -75 -155t-213 -56q-135 0 -214 52t-92 156l189 12q10 -93 114 -93q102 0 102 96q0 93 -139 93h-56v126h51q63 0 95 23.5t32 66.5q0 39 -23 61t-66 22q-88 0 -98 -89l-186 12q11 94 87.5 149t201.5 55q128 0 199.5 -51.5
t71.5 -136.5q0 -64 -36.5 -109.5t-115.5 -61.5v-2q83 -9 127 -55t44 -115zM53 694l-2 121q29 61 82 113.5t144 111.5q87 56 119 92.5t32 75.5q0 91 -81 91q-85 0 -95 -98l-194 5q13 99 89 159.5t200 60.5q131 0 205 -55.5t74 -154.5q0 -125 -153 -223q-103 -66 -141.5 -97
t-54.5 -64h362v-138h-586z" />
    <glyph glyph-name="gravecomb" unicode="&#x300;" horiz-adv-x="0" 
d="M-274 1572l-281 244v38h258l172 -255v-27h-149z" />
    <glyph glyph-name="acutecomb" unicode="&#x301;" horiz-adv-x="0" 
d="M-415 1572v27l172 255h258v-38l-281 -244h-149z" />
    <glyph glyph-name="dotbelowcomb" unicode="&#x323;" horiz-adv-x="0" 
d="M-141 -366v207h281v-207h-281z" />
    <glyph glyph-name="Adotbelow" unicode="&#x1ea0;" horiz-adv-x="1479" 
d="M1133 0l-125 360h-537l-125 -360h-295l514 1409h348l512 -1409h-292zM739 1192l-6 -22q-10 -36 -24 -82t-172 -506h405l-139 405l-43 136zM598 -366v207h281v-207h-281z" />
    <glyph glyph-name="adotbelow" unicode="&#x1ea1;" horiz-adv-x="1139" 
d="M393 -20q-157 0 -245 85.5t-88 240.5q0 168 109.5 256t317.5 90l233 4v55q0 106 -37 157.5t-121 51.5q-78 0 -114.5 -35.5t-45.5 -117.5l-293 14q27 158 144.5 239.5t320.5 81.5q205 0 316 -101t111 -287v-394q0 -91 20.5 -125.5t68.5 -34.5q32 0 62 6v-152
q-25 -6 -45 -11t-40 -8t-42.5 -5t-52.5 -2q-106 0 -156.5 52t-60.5 153h-6q-118 -213 -356 -213zM720 501l-144 -2q-98 -4 -139 -21.5t-62.5 -53.5t-21.5 -96q0 -77 35.5 -114.5t94.5 -37.5q66 0 120.5 36t85.5 99.5t31 134.5v55zM447 -366v207h281v-207h-281z" />
    <glyph glyph-name="Ahookabove" unicode="&#x1ea2;" horiz-adv-x="1479" 
d="M1133 0l-125 360h-537l-125 -360h-295l514 1409h348l512 -1409h-292zM739 1192l-6 -22q-10 -36 -24 -82t-172 -506h405l-139 405l-43 136zM796 1668q0 62 -147 62q-52 0 -108 -8l-11 102q55 11 167 11q141 0 215 -39.5t74 -112.5q0 -53 -44 -89t-138 -43v-60h-150v120
q142 0 142 57z" />
    <glyph glyph-name="ahookabove" unicode="&#x1ea3;" horiz-adv-x="1139" 
d="M393 -20q-157 0 -245 85.5t-88 240.5q0 168 109.5 256t317.5 90l233 4v55q0 106 -37 157.5t-121 51.5q-78 0 -114.5 -35.5t-45.5 -117.5l-293 14q27 158 144.5 239.5t320.5 81.5q205 0 316 -101t111 -287v-394q0 -91 20.5 -125.5t68.5 -34.5q32 0 62 6v-152
q-25 -6 -45 -11t-40 -8t-42.5 -5t-52.5 -2q-106 0 -156.5 52t-60.5 153h-6q-118 -213 -356 -213zM720 501l-144 -2q-98 -4 -139 -21.5t-62.5 -53.5t-21.5 -96q0 -77 35.5 -114.5t94.5 -37.5q66 0 120.5 36t85.5 99.5t31 134.5v55zM639 1365q0 56 -137 56q-67 0 -120 -10
l-11 108q60 12 124 12q154 0 232.5 -40.5t78.5 -115.5q0 -112 -182 -133v-50h-124v110q60 0 99.5 18t39.5 45z" />
    <glyph glyph-name="Acircumflexacute" unicode="&#x1ea4;" horiz-adv-x="1479" 
d="M1133 0l-125 360h-537l-125 -360h-295l514 1409h348l512 -1409h-292zM739 1192l-6 -22q-10 -36 -24 -82t-172 -506h405l-139 405l-43 136zM1047 1835h217v-12l-226 -176h-96v10zM1058 1482v-20h-105l-219 169h-2l-222 -169h-104v20l224 270h204z" />
    <glyph glyph-name="acircumflexacute" unicode="&#x1ea5;" horiz-adv-x="1139" 
d="M393 -20q-157 0 -245 85.5t-88 240.5q0 168 109.5 256t317.5 90l233 4v55q0 106 -37 157.5t-121 51.5q-78 0 -114.5 -35.5t-45.5 -117.5l-293 14q27 158 144.5 239.5t320.5 81.5q205 0 316 -101t111 -287v-394q0 -91 20.5 -125.5t68.5 -34.5q32 0 62 6v-152
q-25 -6 -45 -11t-40 -8t-42.5 -5t-52.5 -2q-106 0 -156.5 52t-60.5 153h-6q-118 -213 -356 -213zM720 501l-144 -2q-98 -4 -139 -21.5t-62.5 -53.5t-21.5 -96q0 -77 35.5 -114.5t94.5 -37.5q66 0 120.5 36t85.5 99.5t31 134.5v55zM924 1574h217v-12l-206 -176h-116v10z
M941 1211v-28h-159l-203 192h-4l-211 -192h-160v28l258 318h229z" />
    <glyph glyph-name="Acircumflexgrave" unicode="&#x1ea6;" horiz-adv-x="1479" 
d="M1133 0l-125 360h-537l-125 -360h-295l514 1409h348l512 -1409h-292zM739 1192l-6 -22q-10 -36 -24 -82t-172 -506h405l-139 405l-43 136zM531 1657v-10h-96l-226 176v12h217zM639 1752h204l224 -270v-20h-104l-222 169h-2l-219 -169h-105v20z" />
    <glyph glyph-name="acircumflexgrave" unicode="&#x1ea7;" horiz-adv-x="1139" 
d="M393 -20q-157 0 -245 85.5t-88 240.5q0 168 109.5 256t317.5 90l233 4v55q0 106 -37 157.5t-121 51.5q-78 0 -114.5 -35.5t-45.5 -117.5l-293 14q27 158 144.5 239.5t320.5 81.5q205 0 316 -101t111 -287v-394q0 -91 20.5 -125.5t68.5 -34.5q32 0 62 6v-152
q-25 -6 -45 -11t-40 -8t-42.5 -5t-52.5 -2q-106 0 -156.5 52t-60.5 153h-6q-118 -213 -356 -213zM720 501l-144 -2q-98 -4 -139 -21.5t-62.5 -53.5t-21.5 -96q0 -77 35.5 -114.5t94.5 -37.5q66 0 120.5 36t85.5 99.5t31 134.5v55zM331 1396v-10h-116l-206 176v12h217z
M459 1529h229l258 -318v-28h-160l-211 192h-4l-203 -192h-159v28z" />
    <glyph glyph-name="Acircumflexhookabove" unicode="&#x1ea8;" horiz-adv-x="1479" 
d="M1133 0l-125 360h-537l-125 -360h-295l514 1409h348l512 -1409h-292zM739 1192l-6 -22q-10 -36 -24 -82t-172 -506h405l-139 405l-43 136zM1079 1732q0 35 -59 35q-51 0 -91 -16l-20 64q58 20 125 20q152 0 152 -96q0 -44 -33.5 -72t-87.5 -28v-23h-61v78q75 0 75 38z
M1062 1482v-20h-105l-219 169h-2l-222 -169h-104v20l224 270h204z" />
    <glyph glyph-name="acircumflexhookabove" unicode="&#x1ea9;" horiz-adv-x="1139" 
d="M393 -20q-157 0 -245 85.5t-88 240.5q0 168 109.5 256t317.5 90l233 4v55q0 106 -37 157.5t-121 51.5q-78 0 -114.5 -35.5t-45.5 -117.5l-293 14q27 158 144.5 239.5t320.5 81.5q205 0 316 -101t111 -287v-394q0 -91 20.5 -125.5t68.5 -34.5q32 0 62 6v-152
q-25 -6 -45 -11t-40 -8t-42.5 -5t-52.5 -2q-106 0 -156.5 52t-60.5 153h-6q-118 -213 -356 -213zM720 501l-144 -2q-98 -4 -139 -21.5t-62.5 -53.5t-21.5 -96q0 -77 35.5 -114.5t94.5 -37.5q66 0 120.5 36t85.5 99.5t31 134.5v55zM947 1524q0 44 -76 44q-61 0 -114 -19
l-26 80q70 24 159 24q192 0 192 -112q0 -48 -33 -82.5t-106 -43.5v-38h-91v94q42 2 68.5 11t26.5 42zM941 1211v-28h-159l-203 192h-4l-211 -192h-160v28l258 318h229z" />
    <glyph glyph-name="Acircumflextilde" unicode="&#x1eaa;" horiz-adv-x="1479" 
d="M1133 0l-125 360h-537l-125 -360h-295l514 1409h348l512 -1409h-292zM739 1192l-6 -22q-10 -36 -24 -82t-172 -506h405l-139 405l-43 136zM866 1641q-51 0 -135 38q-85 37 -121 37q-45 0 -67.5 -17.5t-30.5 -57.5h-91q11 82 32.5 118t59.5 56t101 20q55 0 138 -37
q83 -38 117 -38q48 0 69.5 19t27.5 56h92q-12 -81 -33 -118t-58.5 -56.5t-100.5 -19.5zM740 1529l-151 -67h-155v12l209 141h195l208 -143v-10h-155z" />
    <glyph glyph-name="acircumflextilde" unicode="&#x1eab;" horiz-adv-x="1139" 
d="M393 -20q-157 0 -245 85.5t-88 240.5q0 168 109.5 256t317.5 90l233 4v55q0 106 -37 157.5t-121 51.5q-78 0 -114.5 -35.5t-45.5 -117.5l-293 14q27 158 144.5 239.5t320.5 81.5q205 0 316 -101t111 -287v-394q0 -91 20.5 -125.5t68.5 -34.5q32 0 62 6v-152
q-25 -6 -45 -11t-40 -8t-42.5 -5t-52.5 -2q-106 0 -156.5 52t-60.5 153h-6q-118 -213 -356 -213zM720 501l-144 -2q-98 -4 -139 -21.5t-62.5 -53.5t-21.5 -96q0 -77 35.5 -114.5t94.5 -37.5q66 0 120.5 36t85.5 99.5t31 134.5v55zM723 1543q-40 0 -80 17.5t-78 38t-72 38
t-61 17.5q-37 0 -57.5 -23.5t-30.5 -87.5h-124q8 102 29.5 153.5t63.5 81t110 29.5q41 0 82 -17t78.5 -38t71 -38t59.5 -17q44 0 62 29t27 81h122q-5 -98 -27 -150.5t-64 -83t-111 -30.5zM457 1489h229l258 -288v-28h-160l-211 162h-4l-211 -162h-159v28z" />
    </font>
</defs>
</svg>
