<?xml version="1.0" standalone="no"?>
<!DOCTYPE svg PUBLIC "-//W3C//DTD SVG 1.1//EN" "http://www.w3.org/Graphics/SVG/1.1/DTD/svg11.dtd" >
<svg xmlns="http://www.w3.org/2000/svg" xmlns:xlink="http://www.w3.org/1999/xlink" version="1.1">
<metadata>
Created by FontForge 20190801 at Fri May  5 13:18:43 2017
 By Jimmy Wärting
Copyright (c) 2015 Indian Type Foundry (info@indiantypefoundry.com)
</metadata>
<defs>
<font id="HindSiliguri-SemiBold" horiz-adv-x="565" >
  <font-face 
    font-family="Hind Siliguri SemiBold"
    font-weight="600"
    font-stretch="normal"
    units-per-em="1000"
    panose-1="2 0 0 0 0 0 0 0 0 0"
    ascent="800"
    descent="-200"
    x-height="507"
    cap-height="674"
    bbox="-650 -495 1622 1078.06"
    underline-thickness="50"
    underline-position="-150"
    unicode-range="U+0020-FB02"
  />
<missing-glyph horiz-adv-x="754" 
d="M588 0h-422v701h422v-701zM239 633v-565h277v565h-277z" />
    <glyph glyph-name=".notdef" horiz-adv-x="754" 
d="M588 0h-422v701h422v-701zM239 633v-565h277v565h-277z" />
    <glyph glyph-name=".null" horiz-adv-x="0" 
 />
    <glyph glyph-name="nonmarkingreturn" horiz-adv-x="333" 
 />
    <glyph glyph-name="space" unicode=" " horiz-adv-x="241" 
 />
    <glyph glyph-name="exclam" unicode="!" horiz-adv-x="275" 
d="M195 224h-115v450h115v-450zM215 71q0 -34 -23 -56.5t-56 -22.5q-34 0 -56.5 22.5t-22.5 56.5q0 33 22.5 56t56.5 23q33 0 56 -23t23 -56z" />
    <glyph glyph-name="quotedbl" unicode="&#x22;" horiz-adv-x="352" 
d="M311 429h-103v252h103v-252zM144 429h-102v252h102v-252z" />
    <glyph glyph-name="numbersign" unicode="#" horiz-adv-x="739" 
d="M478 0h-104l34 160h-153l-34 -160h-103l34 160h-104v93h123l35 162h-116v96h136l34 162h104l-34 -162h153l34 162h103l-34 -162h105v-96h-125l-35 -162h119v-93h-138zM428 253l34 162h-153l-34 -162h153z" />
    <glyph glyph-name="dollar" unicode="$" horiz-adv-x="510" 
d="M286 -115h-101v110q-83 8 -139 40v129q86 -62 188 -62q46 0 74 22.5t28 60.5q0 11 -3.5 20.5t-8 17t-14.5 15.5t-17 13t-22.5 13t-23.5 11.5t-28 12t-28 12.5q-69 32 -109.5 74t-40.5 115q0 78 52 128t141 60v110h102v-112q58 -8 101 -29v-122q-75 45 -160 45
q-47 0 -73.5 -21t-26.5 -54q0 -18 8.5 -32.5t28.5 -28t35.5 -21.5t46.5 -22q38 -17 63 -31t53.5 -37.5t42.5 -57t14 -75.5q0 -78 -49.5 -129.5t-133.5 -63.5v-111z" />
    <glyph glyph-name="percent" unicode="%" horiz-adv-x="925" 
d="M329 -1h-110l371 692h111zM403 525q0 -73 -52.5 -125.5t-125.5 -52.5q-74 0 -126 52t-52 126t52 126t126 52t126 -52t52 -126zM145 525q0 -32 23.5 -55.5t56.5 -23.5q32 0 55.5 23.5t23.5 55.5q0 33 -23.5 56.5t-55.5 23.5q-33 0 -56.5 -23.5t-23.5 -56.5zM879 170
q0 -74 -52.5 -126t-125.5 -52q-74 0 -126 52t-52 126t52 126t126 52q73 0 125.5 -52t52.5 -126zM622 170q0 -32 23 -55.5t56 -23.5q32 0 55.5 23.5t23.5 55.5q0 33 -23.5 56.5t-55.5 23.5q-33 0 -56 -23.5t-23 -56.5z" />
    <glyph glyph-name="ampersand" unicode="&#x26;" horiz-adv-x="727" 
d="M250 511q0 -47 76 -125q94 48 94 115q0 40 -23.5 63.5t-65.5 23.5q-35 0 -58 -20t-23 -57zM724 0h-152l-49 47q-82 -55 -195 -55q-125 0 -198.5 54t-73.5 135q0 61 36 103t114 68q-79 85 -79 158q0 84 57.5 131.5t147.5 47.5q96 0 153 -49.5t57 -132.5q0 -119 -149 -188
l126 -121q21 40 22 90h110q-3 -96 -53 -167zM328 94q66 0 116 28l-158 152l-9 9q-53 -18 -75.5 -41.5t-22.5 -56.5q0 -41 42 -66t107 -25z" />
    <glyph glyph-name="quotesingle" unicode="'" horiz-adv-x="186" 
d="M144 429h-102v252h102v-252z" />
    <glyph glyph-name="parenleft" unicode="(" horiz-adv-x="328" 
d="M344 -196h-130q-162 203 -162 456q0 256 156 447h127q-75 -95 -115.5 -217t-40.5 -234q0 -109 42 -230.5t123 -221.5z" />
    <glyph glyph-name="parenright" unicode=")" horiz-adv-x="328" 
d="M113 -196h-129q80 100 122 221.5t42 230.5q0 112 -40 234t-115 217h127q156 -193 156 -447q0 -252 -163 -456z" />
    <glyph glyph-name="asterisk" unicode="*" horiz-adv-x="470" 
d="M393 338l-79 -57l-57 78q-15 23 -21 42q-6 -19 -22 -41l-58 -79l-79 57l58 79q16 20 34 33h-3q-22 0 -45 8l-93 30l31 93l92 -30q25 -8 43 -23q-8 22 -8 49v97h98v-97q0 -27 -8 -48q16 13 43 22l93 30l30 -93l-92 -30q-24 -7 -45 -7h-4q20 -13 35 -34z" />
    <glyph glyph-name="plus" unicode="+" horiz-adv-x="576" 
d="M526 285h-184v-183h-111v183h-181v108h181v185h111v-185h184v-108z" />
    <glyph glyph-name="comma" unicode="," horiz-adv-x="268" 
d="M97 -126h-104l98 247h139z" />
    <glyph glyph-name="hyphen" unicode="-" horiz-adv-x="353" 
d="M304 214h-254v101h254v-101z" />
    <glyph glyph-name="period" unicode="." horiz-adv-x="223" 
d="M189 70q0 -32 -22.5 -55t-54.5 -23t-55 23t-23 55t23 54.5t55 22.5t54.5 -22.5t22.5 -54.5z" />
    <glyph glyph-name="slash" unicode="/" horiz-adv-x="441" 
d="M119 -103h-124l361 810h125z" />
    <glyph glyph-name="zero" unicode="0" horiz-adv-x="546" 
d="M508 330q0 -154 -60.5 -246t-175.5 -92q-112 0 -173 92t-61 246q0 155 61 245.5t173 90.5q113 0 174.5 -90.5t61.5 -245.5zM161 330q0 -110 29.5 -169.5t81.5 -59.5q54 0 83.5 59t29.5 170t-30.5 169t-82.5 58q-51 0 -81 -58.5t-30 -168.5z" />
    <glyph glyph-name="one" unicode="1" horiz-adv-x="358" 
d="M292 0h-119v524l-160 -97v125l173 102h106v-654z" />
    <glyph glyph-name="two" unicode="2" horiz-adv-x="498" 
d="M460 0h-427v96q117 83 202 177.5t85 170.5q0 50 -29 78t-84 28q-83 0 -159 -62v117q33 25 82 41t98 16q96 0 156.5 -52.5t60.5 -147.5q0 -178 -246 -359h261v-103z" />
    <glyph glyph-name="three" unicode="3" horiz-adv-x="476" 
d="M435 180q0 -82 -60.5 -133.5t-169.5 -51.5q-101 0 -172 33v117q78 -42 164 -42q54 0 84.5 25.5t30.5 65.5q0 87 -141 87h-38v101h38q53 0 89 23t36 65q0 84 -103 84q-68 0 -136 -42v113q68 37 143 37q103 0 161.5 -50t58.5 -128q0 -113 -103 -154q56 -14 87 -52.5
t31 -97.5z" />
    <glyph glyph-name="four" unicode="4" horiz-adv-x="554" 
d="M154 250h172v329zM446 0h-120v147h-291v103l218 405h193v-405h86v-103h-86v-147z" />
    <glyph glyph-name="five" unicode="5" horiz-adv-x="504" 
d="M468 213q0 -100 -66 -160t-185 -60q-103 0 -173 35v115q66 -40 153 -40q147 0 147 113q0 44 -31.5 69t-89.5 25q-76 0 -149 -34v379h352v-103h-234v-144q29 6 56 6q105 0 162.5 -54t57.5 -147z" />
    <glyph glyph-name="six" unicode="6" horiz-adv-x="533" 
d="M504 212q0 -99 -60 -163.5t-163 -64.5q-117 0 -178 85.5t-61 228.5q0 166 87 268.5t227 102.5q54 0 98 -16v-113q-39 20 -90 20q-80 0 -130 -54t-64 -139q60 55 142 55q87 0 139.5 -57t52.5 -153zM282 92q45 0 71.5 32.5t26.5 86.5q0 49 -26 78t-71 29q-65 0 -118 -55
q6 -88 37.5 -129.5t79.5 -41.5z" />
    <glyph glyph-name="seven" unicode="7" horiz-adv-x="469" 
d="M192 0h-128l261 551h-308v104h435v-104z" />
    <glyph glyph-name="eight" unicode="8" horiz-adv-x="541" 
d="M500 178q0 -84 -65 -135.5t-167 -51.5t-164.5 49t-62.5 133q0 110 103 155q-93 47 -93 145q0 90 62.5 140.5t154.5 50.5q96 0 158 -48t62 -143t-90 -142q102 -40 102 -153zM162 177q0 -37 27 -62.5t80 -25.5q54 0 82 27t28 65q0 40 -28.5 67t-81.5 27q-53 -1 -80 -29.5
t-27 -68.5zM173 475q0 -45 28 -69t70 -24q41 0 68.5 24t27.5 69q0 40 -23 65.5t-76 25.5q-46 0 -70.5 -26.5t-24.5 -64.5z" />
    <glyph glyph-name="nine" unicode="9" horiz-adv-x="522" 
d="M253 330q69 0 111 53q-4 84 -33.5 127.5t-79.5 43.5q-46 0 -73.5 -30t-27.5 -82q0 -51 28 -81.5t75 -30.5zM484 358q0 -179 -79.5 -272.5t-221.5 -93.5q-65 0 -117 19v115q52 -24 106 -24q164 0 188 178q-45 -50 -137 -50q-85 0 -141 57.5t-56 152.5q0 96 59 159.5
t160 63.5q115 0 177 -83.5t62 -221.5z" />
    <glyph glyph-name="colon" unicode=":" horiz-adv-x="267" 
d="M210 404q0 -32 -22.5 -54.5t-54.5 -22.5t-54 22.5t-22 54.5t22 54.5t54 22.5t54.5 -22.5t22.5 -54.5zM210 76q0 -32 -22.5 -54t-54.5 -22t-54 22t-22 54t22 54.5t54 22.5t54.5 -22.5t22.5 -54.5z" />
    <glyph glyph-name="semicolon" unicode=";" horiz-adv-x="268" 
d="M97 -126h-104l98 247h139zM226 404q0 -32 -23 -54.5t-55 -22.5t-54 22.5t-22 54.5t22 54.5t54 22.5t55 -22.5t23 -54.5z" />
    <glyph glyph-name="less" unicode="&#x3c;" 
d="M519 221v-120l-469 182v115l469 182v-121l-348 -118z" />
    <glyph glyph-name="equal" unicode="=" horiz-adv-x="576" 
d="M526 399h-476v100h476v-100zM526 181h-476v101h476v-101z" />
    <glyph glyph-name="greater" unicode="&#x3e;" 
d="M516 283l-469 -182v120l347 120l-347 118v121l469 -182v-115z" />
    <glyph glyph-name="question" unicode="?" horiz-adv-x="456" 
d="M245 224h-111l-3 157q169 0 169 106q0 42 -26 67t-77 25q-70 0 -139 -45v115q63 33 155 33q94 0 152 -49t58 -134q0 -45 -18 -81t-45.5 -57t-56.5 -32t-56 -13zM267 71q0 -34 -23 -56.5t-56 -22.5q-34 0 -56.5 22.5t-22.5 56.5q0 33 22.5 56t56.5 23q33 0 56 -23t23 -56z
" />
    <glyph glyph-name="at" unicode="@" horiz-adv-x="950" 
d="M636 -159q-81 -39 -188 -39q-186 0 -293 114t-107 283q0 125 62.5 229t168 162.5t230.5 58.5q166 0 283.5 -103.5t117.5 -273.5q0 -117 -57.5 -190.5t-135.5 -73.5q-108 0 -139 101q-46 -101 -151 -101q-78 0 -123.5 57.5t-45.5 143.5q0 99 59 161.5t142 62.5
q80 0 119 -69q2 22 4 66h98l-7 -65q-9 -135 -9 -157q0 -106 57 -106q38 0 63 44t25 118q0 140 -85.5 213t-219.5 73q-149 0 -248.5 -104.5t-99.5 -249.5q0 -138 84.5 -216.5t207.5 -78.5q102 0 192 45zM458 97q36 0 67.5 27t43.5 76q1 7 1 21t1 21q-7 50 -32 76t-64 26
q-46 0 -77.5 -38.5t-31.5 -102.5q0 -48 26.5 -77t65.5 -29z" />
    <glyph glyph-name="A" unicode="A" horiz-adv-x="674" 
d="M250 285l-9 -29h190l-9 30q-34 108 -55.5 181.5t-26.5 92.5l-4 20q-9 -50 -86 -295zM160 0h-132l228 674h163l228 -674h-136l-48 153h-255z" />
    <glyph glyph-name="B" unicode="B" horiz-adv-x="592" 
d="M343 0h-273v674h239q108 0 168 -51t60 -132q0 -55 -30 -95.5t-77 -53.5q54 -13 89 -52.5t35 -107.5q0 -80 -56 -131t-155 -51zM293 571h-97v-181h76q68 0 102 27t34 69q0 39 -28.5 62t-86.5 23zM299 289h-103v-186h108q121 0 121 92q0 94 -126 94z" />
    <glyph glyph-name="C" unicode="C" horiz-adv-x="609" 
d="M562 32q-62 -40 -174 -40q-150 0 -247.5 94.5t-97.5 250.5q0 153 96.5 249.5t248.5 96.5q111 0 173 -37v-123q-76 44 -168 44t-153.5 -62.5t-61.5 -167.5t61.5 -167t160.5 -62q95 0 162 50v-126z" />
    <glyph glyph-name="D" unicode="D" horiz-adv-x="675" 
d="M290 0h-220v674h220q151 0 247 -93t96 -235q0 -155 -93 -250.5t-250 -95.5zM286 568h-87v-463h89q106 0 161 65.5t55 175.5q0 97 -58.5 159.5t-159.5 62.5z" />
    <glyph glyph-name="E" unicode="E" horiz-adv-x="528" 
d="M472 0h-402v674h398v-103h-271v-183h241v-102h-241v-183h275v-103z" />
    <glyph glyph-name="F" unicode="F" horiz-adv-x="499" 
d="M431 269h-234v-269h-127v674h395v-103h-268v-199h234v-103z" />
    <glyph glyph-name="G" unicode="G" horiz-adv-x="693" 
d="M630 58q-92 -66 -230 -66q-160 0 -258.5 93t-98.5 253q0 156 101.5 252t256.5 96q115 0 197 -43v-129q-92 55 -195 55q-101 0 -163 -63t-62 -168q0 -107 60.5 -168.5t166.5 -61.5q52 0 101 18v159h-124v108h248v-324h-1z" />
    <glyph glyph-name="H" unicode="H" horiz-adv-x="670" 
d="M600 0h-127v283h-277v-283h-126v674h126v-282h277v282h127v-674z" />
    <glyph glyph-name="I" unicode="I" horiz-adv-x="282" 
d="M204 0h-126v674h126v-674z" />
    <glyph glyph-name="J" unicode="J" horiz-adv-x="379" 
d="M313 192q0 -95 -48 -144t-132 -49q-63 0 -103 21v114q38 -24 80 -24q77 0 77 82v481h126v-481z" />
    <glyph glyph-name="K" unicode="K" horiz-adv-x="628" 
d="M607 0h-159l-242 334l233 340h151l-234 -338zM196 0h-126v674h126v-674z" />
    <glyph glyph-name="L" unicode="L" horiz-adv-x="484" 
d="M459 0h-389v674h126v-562h263v-112z" />
    <glyph glyph-name="M" unicode="M" horiz-adv-x="880" 
d="M184 0h-126l54 674h144l92 -245q24 -62 45 -123.5t30 -91.5l9 -31q31 104 86 246l94 245h144l66 -674h-126l-24 263l-18 236q-36 -103 -86 -236l-94 -253h-86l-92 253l-79 233q0 -49 -13 -233z" />
    <glyph glyph-name="N" unicode="N" horiz-adv-x="688" 
d="M196 0h-126v674h143l162 -281q40 -69 71.5 -128.5t42.5 -84.5l11 -25q-8 83 -8 238v281h127v-674h-144l-164 280q-39 66 -70.5 126.5t-43.5 87.5l-12 28q11 -95 11 -241v-281z" />
    <glyph glyph-name="O" unicode="O" horiz-adv-x="723" 
d="M680 339q0 -156 -86.5 -251t-231.5 -95t-232 95t-87 251q0 157 86.5 252t231.5 95q147 0 233 -94.5t86 -252.5zM178 339q0 -106 50 -168t134 -62q85 0 134 61.5t49 168.5t-49 169t-135 62q-85 0 -134 -62t-49 -169z" />
    <glyph glyph-name="P" unicode="P" horiz-adv-x="556" 
d="M284 229h-88v-229h-126v674h211q114 0 182.5 -62t68.5 -159q0 -103 -70.5 -163.5t-177.5 -60.5zM270 571h-74v-240h71q69 0 103 33t34 89q0 55 -34 86.5t-100 31.5z" />
    <glyph glyph-name="Q" unicode="Q" horiz-adv-x="729" 
d="M680 339q0 -110 -44 -191t-124 -121l205 -119l-142 -55l-198 140h-15q-145 0 -232 95t-87 251q0 157 86.5 252t231.5 95q147 0 233 -94.5t86 -252.5zM178 339q0 -106 50 -168t134 -62q85 0 134 61.5t49 168.5t-49 169t-135 62q-85 0 -134 -62t-49 -169z" />
    <glyph glyph-name="R" unicode="R" horiz-adv-x="589" 
d="M278 570h-82v-220h84q58 0 87 29.5t29 82.5q0 52 -30.5 80t-87.5 28zM196 0h-126v674h208q115 0 180.5 -58t65.5 -155q-1 -72 -35 -121.5t-93 -73.5l173 -266h-151l-153 246h-69v-246z" />
    <glyph glyph-name="S" unicode="S" horiz-adv-x="518" 
d="M477 189q0 -90 -64.5 -143.5t-169.5 -53.5q-114 0 -189 43v129q86 -62 188 -62q46 0 74 22.5t28 60.5q0 18 -7 32t-28.5 28t-33 20t-47.5 22q-10 5 -15 7q-37 17 -60 30.5t-50 36.5t-40.5 55t-13.5 73q0 86 63.5 138t168.5 52q95 0 164 -33v-122q-75 45 -160 45
q-47 0 -73.5 -21t-26.5 -54t28.5 -54.5t85.5 -47.5q40 -18 65 -31.5t54.5 -37.5t44 -57.5t14.5 -76.5z" />
    <glyph glyph-name="T" unicode="T" horiz-adv-x="520" 
d="M495 570h-171v-570h-127v570h-171v104h469v-104z" />
    <glyph glyph-name="U" unicode="U" horiz-adv-x="659" 
d="M593 259q0 -131 -70.5 -199.5t-193.5 -68.5q-120 0 -191.5 67.5t-71.5 193.5v422h126v-421q0 -77 38 -111.5t99 -34.5q138 0 138 151v416h126v-415z" />
    <glyph glyph-name="V" unicode="V" horiz-adv-x="651" 
d="M395 0h-144l-226 674h137l83 -268q25 -80 45 -153t28 -106l7 -33q24 112 81 292l84 268h135z" />
    <glyph glyph-name="W" unicode="W" horiz-adv-x="958" 
d="M350 0h-145l-180 674h133l63 -249q16 -67 32 -139t24 -110l8 -39q32 126 78 288l68 239h102l69 -239l80 -290q25 139 62 291l61 248h128l-172 -674h-146l-61 213q-25 85 -42.5 150t-23.5 87l-5 23q-14 -70 -70 -260z" />
    <glyph glyph-name="X" unicode="X" horiz-adv-x="644" 
d="M183 0h-151l214 341l-204 333h147l129 -221l125 221h153l-204 -333l221 -341h-150l-143 233z" />
    <glyph glyph-name="Y" unicode="Y" horiz-adv-x="624" 
d="M374 0h-126v246l-230 428h147l45 -98q39 -85 64 -142.5t30 -71.5l6 -15q9 37 103 229l46 98h147l-232 -424v-250z" />
    <glyph glyph-name="Z" unicode="Z" horiz-adv-x="601" 
d="M544 0h-487v96l322 475h-317v103h469v-93l-323 -478h336v-103z" />
    <glyph glyph-name="bracketleft" unicode="[" horiz-adv-x="343" 
d="M332 -191h-262v898h262v-105h-147v-687h147v-106z" />
    <glyph glyph-name="backslash" unicode="\" horiz-adv-x="441" 
d="M446 -103h-125l-362 810h126z" />
    <glyph glyph-name="bracketright" unicode="]" horiz-adv-x="343" 
d="M273 -191h-262v106h147v687h-147v105h262v-898z" />
    <glyph glyph-name="asciicircum" unicode="^" horiz-adv-x="480" 
d="M151 332h-113l147 262h111l146 -262h-114l-88 169z" />
    <glyph glyph-name="underscore" unicode="_" horiz-adv-x="552" 
d="M529 -141h-506v101h506v-101z" />
    <glyph glyph-name="grave" unicode="`" horiz-adv-x="470" 
d="M344 629h-101l-116 169h126z" />
    <glyph glyph-name="a" unicode="a" horiz-adv-x="507" 
d="M239 85q40 0 62.5 23.5t22.5 61.5v48h-62q-47 0 -72 -19.5t-25 -49.5q0 -64 74 -64zM329 61q-35 -65 -132 -65q-72 0 -114.5 42t-42.5 106q0 72 54 113t156 41h74v31q0 42 -22 64t-75 22q-81 0 -149 -45v111q57 35 164 35q206 0 206 -192v-324h-119v61z" />
    <glyph glyph-name="b" unicode="b" horiz-adv-x="595" 
d="M187 0h-121v707h121v-277q53 84 152 84q95 0 156.5 -70.5t61.5 -190.5q0 -108 -58.5 -184t-158.5 -76t-153 85v-78zM187 258q0 -79 36 -120.5t90 -41.5q52 0 87 43t35 112q0 76 -35.5 118.5t-87.5 42.5q-49 0 -87 -38.5t-38 -115.5z" />
    <glyph glyph-name="c" unicode="c" horiz-adv-x="470" 
d="M432 22q-53 -31 -132 -31q-117 0 -189.5 74t-72.5 187q1 111 72.5 187t195.5 76q74 0 126 -28v-106q-50 32 -114 32q-70 0 -113 -44t-44 -117q2 -72 43.5 -116t112.5 -44q62 0 115 34v-104z" />
    <glyph glyph-name="d" unicode="d" horiz-adv-x="594" 
d="M161 251q0 -69 35 -112t87 -43q54 0 90 41.5t36 120.5q0 77 -38 115.5t-87 38.5q-52 0 -87.5 -42.5t-35.5 -118.5zM529 0h-120v79q-52 -86 -154 -86q-100 0 -158.5 76t-58.5 184q0 120 61.5 190.5t157.5 70.5q99 0 152 -85v278h120v-707z" />
    <glyph glyph-name="e" unicode="e" horiz-adv-x="529" 
d="M452 28q-53 -33 -153 -33q-121 0 -191 72t-70 186q0 121 66 190t165 69t157 -60t58 -175q0 -28 -7 -72h-318q13 -55 54.5 -84t103.5 -29q80 0 135 40v-104zM272 418q-43 0 -74.5 -31.5t-40.5 -91.5h213v15q-2 49 -26.5 78.5t-71.5 29.5z" />
    <glyph glyph-name="f" unicode="f" horiz-adv-x="340" 
d="M325 417h-101v-417h-120v417h-74v90h74v30q0 85 47 133t130 48q38 0 66 -9v-101q-26 10 -50 10q-73 0 -73 -82v-29h101v-90z" />
    <glyph glyph-name="g" unicode="g" horiz-adv-x="571" 
d="M512 46q0 -120 -69.5 -180.5t-176.5 -60.5q-100 0 -175 36v122q68 -48 163 -48q138 0 138 132v44q-46 -75 -144 -75q-85 0 -145.5 62.5t-60.5 181.5q0 110 57.5 181.5t151.5 71.5q95 0 141 -79v73h120v-461zM167 260q0 -71 31 -108.5t79 -37.5q49 0 82 38.5t33 100.5
q0 81 -32 119t-81 38q-52 0 -82 -40.5t-30 -109.5z" />
    <glyph glyph-name="h" unicode="h" 
d="M505 0h-120v311q0 48 -24.5 75t-63.5 27q-43 0 -77.5 -33t-34.5 -108v-272h-120v707h120v-286q41 92 155 92q74 0 119.5 -46.5t45.5 -134.5v-332z" />
    <glyph glyph-name="i" unicode="i" horiz-adv-x="260" 
d="M190 0h-120v507h120v-507zM202 659q0 -31 -21 -52t-51 -21t-51 21t-21 52q0 30 21 51t51 21t51 -21t21 -51z" />
    <glyph glyph-name="j" unicode="j" horiz-adv-x="257" 
d="M192 -34q0 -75 -41 -119t-117 -44q-36 0 -76 16v95q35 -15 61 -15q53 0 53 69v539h120v-541zM204 659q0 -31 -21 -52t-52 -21q-30 0 -51 21t-21 52q0 30 21 51t51 21q31 0 52 -21t21 -51z" />
    <glyph glyph-name="k" unicode="k" horiz-adv-x="522" 
d="M185 0h-120v695h120v-426l179 238h140l-186 -242l190 -265h-141l-182 262v-262z" />
    <glyph glyph-name="l" unicode="l" horiz-adv-x="260" 
d="M190 0h-120v707h120v-707z" />
    <glyph glyph-name="m" unicode="m" horiz-adv-x="843" 
d="M784 0h-121v311q0 102 -78 102q-39 0 -69.5 -34t-30.5 -107v-272h-121v311q0 102 -78 102q-39 0 -70 -34t-31 -107v-272h-120v507h120v-80q43 86 143 86q111 0 144 -96q20 46 60 71t91 25q77 0 119 -46.5t42 -132.5v-334z" />
    <glyph glyph-name="n" unicode="n" 
d="M505 0h-120v312q0 50 -24 75.5t-65 25.5q-47 0 -79 -36.5t-32 -104.5v-272h-120v507h120v-87q43 93 156 93q76 0 120 -46t44 -130v-337z" />
    <glyph glyph-name="o" unicode="o" 
d="M527 255q0 -115 -64.5 -189t-180.5 -74q-115 0 -179.5 72t-64.5 184q0 116 67 191.5t177 75.5q117 0 181 -73.5t64 -186.5zM164 252q0 -70 31 -117t88 -47q59 0 89 46t30 117q0 73 -29 119.5t-91 46.5q-57 0 -87.5 -47t-30.5 -118z" />
    <glyph glyph-name="p" unicode="p" horiz-adv-x="594" 
d="M185 -191h-120v698h120v-78q54 85 155 85q99 0 157.5 -71t58.5 -187q0 -114 -58.5 -188.5t-158.5 -74.5q-102 0 -154 83v-267zM185 257q0 -77 37 -119t89 -42q54 0 88 41.5t34 116.5t-34 116.5t-86 41.5t-90 -39t-38 -116z" />
    <glyph glyph-name="q" unicode="q" horiz-adv-x="594" 
d="M161 254q0 -73 35.5 -115.5t88.5 -42.5q51 0 87.5 42t36.5 119t-37.5 116t-89.5 39q-51 0 -86 -42.5t-35 -115.5zM529 -191h-120v269q-52 -85 -153 -85q-100 0 -159 74.5t-59 188.5q0 116 59.5 187t158.5 71t153 -85v78h120v-698z" />
    <glyph glyph-name="r" unicode="r" horiz-adv-x="353" 
d="M185 0h-121l1 507h120v-90q35 94 128 94q21 0 34 -3v-116q-23 10 -51 10q-49 0 -80 -40t-31 -100v-262z" />
    <glyph glyph-name="s" unicode="s" horiz-adv-x="427" 
d="M396 146q0 -71 -51 -111t-136 -40q-94 0 -152 31v110q67 -45 145 -45q33 0 51.5 12.5t18.5 34.5q0 13 -6 23.5t-23 20.5t-26.5 14.5t-37.5 16.5q-3 1 -4.5 2t-4.5 2t-5 2q-111 50 -111 144q0 70 53 110t133 40q77 0 128 -22v-106q-50 30 -125 30q-31 0 -48.5 -13.5
t-17.5 -34.5q0 -8 2.5 -15t9 -13.5t12.5 -11.5t17 -10.5l19 -9.5t22 -10t22 -10q53 -26 84 -58t31 -83z" />
    <glyph glyph-name="t" unicode="t" horiz-adv-x="379" 
d="M345 12q-35 -17 -90 -17q-164 0 -164 166v256h-76v90h76v122h120v-122h126v-90h-126v-258q0 -32 17 -48.5t47 -16.5q38 0 70 21v-103z" />
    <glyph glyph-name="u" unicode="u" 
d="M500 0h-121v83q-40 -88 -156 -88q-77 0 -120 44t-43 125v343h120v-315q0 -48 23.5 -73t64.5 -25q52 0 81.5 35t29.5 106v272h121v-507z" />
    <glyph glyph-name="v" unicode="v" horiz-adv-x="524" 
d="M326 0h-130l-183 507h126l67 -215q20 -63 34 -112.5t18 -67.5l3 -18q10 56 57 198l70 215h124z" />
    <glyph glyph-name="w" unicode="w" horiz-adv-x="801" 
d="M303 0h-130l-160 507h125l46 -167q20 -72 33.5 -128.5t16.5 -76.5l4 -20q10 61 58 225l49 167h109l49 -167q22 -74 36.5 -130.5t18.5 -75.5l3 -20q10 59 59 226l48 167h120l-161 -507h-130l-45 166q-18 65 -31 118.5t-17 73.5l-4 21q-13 -66 -52 -213z" />
    <glyph glyph-name="x" unicode="x" horiz-adv-x="508" 
d="M151 0h-132l177 256l-166 251h135l95 -165l100 165h134l-176 -252l170 -255h-133l-100 170z" />
    <glyph glyph-name="y" unicode="y" horiz-adv-x="517" 
d="M325 14q-76 -203 -232 -203q-29 0 -50 5v99q16 -4 34 -4q91 0 129 99l-200 497h133l59 -162q27 -72 43.5 -121t20.5 -62l3 -14q10 35 64 197l53 162h126z" />
    <glyph glyph-name="z" unicode="z" horiz-adv-x="469" 
d="M428 0h-386v89l235 322h-226v96h364v-84l-236 -326h249v-97z" />
    <glyph glyph-name="braceleft" unicode="{" horiz-adv-x="363" 
d="M342 -189q-31 -11 -59 -11q-64 0 -106 47.5t-42 121.5q0 24 8 65t8 60q0 41 -22.5 71t-63.5 34h-22v117q11 0 22 1q40 2 63 32.5t23 71.5q0 18 -8 59.5t-8 65.5q0 74 42 121t106 47q30 0 59 -10v-113q-15 9 -32 9q-24 0 -39.5 -18t-15.5 -45q0 -17 7.5 -61t7.5 -70
q0 -59 -33 -99.5t-85 -48.5q52 -8 85 -49.5t33 -100.5q0 -26 -7.5 -69.5t-7.5 -61.5q0 -27 15 -44.5t40 -17.5q17 0 32 9v-113z" />
    <glyph glyph-name="bar" unicode="|" horiz-adv-x="260" 
d="M187 -194h-114v889h114v-889z" />
    <glyph glyph-name="braceright" unicode="}" horiz-adv-x="363" 
d="M227 -31q0 -74 -42 -121.5t-106 -47.5q-27 0 -58 11v113q15 -9 31 -9q25 0 40.5 17.5t15.5 44.5q0 18 -7.5 61.5t-7.5 69.5q0 59 33 100.5t85 49.5q-52 8 -85 48.5t-33 99.5q0 26 7.5 70t7.5 61q0 27 -15.5 45t-40.5 18q-16 0 -31 -9v113q29 10 58 10q64 0 106 -47
t42 -121q0 -24 -7.5 -65.5t-7.5 -59.5q0 -41 22.5 -71.5t63.5 -32.5q10 -1 22 -1v-117h-22q-41 -4 -63.5 -34t-22.5 -71q0 -19 7.5 -60t7.5 -65z" />
    <glyph glyph-name="asciitilde" unicode="~" horiz-adv-x="633" 
d="M222 249q-60 0 -108 -62l-83 67q31 44 74.5 74t91.5 30q61 0 127.5 -29t93.5 -29q31 0 53.5 15t45.5 44l84 -66q-67 -102 -161 -102q-54 0 -120.5 29t-97.5 29z" />
    <glyph glyph-name="exclamdown" unicode="&#xa1;" horiz-adv-x="275" 
d="M195 -165h-115v450h115v-450zM215 438q0 -33 -23 -56t-56 -23q-34 0 -56.5 23t-22.5 56q0 34 22.5 56.5t56.5 22.5q33 0 56 -22.5t23 -56.5z" />
    <glyph glyph-name="cent" unicode="&#xa2;" horiz-adv-x="468" 
d="M428 20q-36 -18 -79 -24v-107h-101v107q-96 16 -154 86.5t-58 169.5q1 97 57 168t155 89v109h101v-107q41 -6 79 -25v-104q-50 30 -109 30q-70 0 -114.5 -43.5t-45.5 -116.5q2 -72 44.5 -115.5t113.5 -43.5q58 0 111 31v-104z" />
    <glyph glyph-name="sterling" unicode="&#xa3;" horiz-adv-x="533" 
d="M498 0h-447v100q47 24 65 59t18 91q0 18 -1 27h-81v89h70q-5 38 -5 65q0 109 57 169t166 60q74 0 126 -30v-115q-48 31 -103 31q-115 0 -115 -117q0 -19 4 -63h172v-89h-162q1 -9 1 -27q0 -104 -68 -147h303v-103z" />
    <glyph glyph-name="currency" unicode="&#xa4;" horiz-adv-x="561" 
d="M161 124l-59 -58l-72 70l59 57q-32 53 -32 117q0 66 32 117l-59 59l72 69l59 -58q53 33 121 33q64 0 118 -31l58 56l72 -69l-58 -58q32 -51 32 -115q0 -66 -34 -119l60 -58l-72 -70l-60 58q-53 -31 -119 -31q-65 0 -118 31zM158 312q0 -52 35 -88t88 -36t87.5 36t34.5 87
q0 52 -34.5 88t-87.5 36t-88 -36t-35 -87z" />
    <glyph glyph-name="yen" unicode="&#xa5;" horiz-adv-x="616" 
d="M546 132h-177v-132h-126v132h-175v78h175v42l-17 31h-158v78h114l-164 294h147l140 -275l146 275h146l-166 -294h115v-78h-159l-18 -31v-42h177v-78z" />
    <glyph glyph-name="brokenbar" unicode="&#xa6;" horiz-adv-x="260" 
d="M187 368h-114v335h114v-335zM187 -140h-114v335h114v-335z" />
    <glyph glyph-name="section" unicode="&#xa7;" horiz-adv-x="566" 
d="M305 183q54 -24 63 -29q14 21 14 47q0 13 -3 23.5t-11.5 20t-15 16t-23 16t-25 14t-33 16.5t-34.5 17q-7 4 -21.5 11t-21.5 10q-17 -24 -17 -51q0 -35 29 -58t99 -53zM503 199q0 -67 -41 -115q34 -42 34 -97q0 -85 -63 -132.5t-168 -47.5q-116 0 -189 43v129
q84 -62 188 -62q102 0 102 69q0 32 -29.5 53.5t-134.5 67.5q-70 31 -108.5 75.5t-38.5 113.5q0 64 44 115q-33 40 -33 91q0 83 61.5 130.5t164.5 47.5q93 0 163 -33v-122q-73 45 -159 45q-48 0 -73 -17.5t-25 -48.5q0 -14 5.5 -25t21.5 -22t29.5 -18t46.5 -22.5t54 -26.5
q48 -24 76.5 -44.5t50 -58.5t21.5 -88z" />
    <glyph glyph-name="dieresis" unicode="&#xa8;" horiz-adv-x="470" 
d="M427 715q0 -30 -20 -50t-51 -20q-30 0 -50.5 20t-20.5 50q0 29 20.5 49t50.5 20q31 0 51 -20t20 -49zM184 715q0 -30 -20 -50t-50 -20q-31 0 -51 20t-20 50q0 29 20 49t51 20q30 0 50 -20t20 -49z" />
    <glyph glyph-name="copyright" unicode="&#xa9;" horiz-adv-x="767" 
d="M490 183q-36 -21 -91 -21q-76 0 -126.5 49t-50.5 125q1 77 49.5 127t131.5 50q48 0 87 -21v-83q-34 22 -79 22q-38 0 -65 -25.5t-28 -69.5q2 -42 27.5 -68t64.5 -26q44 0 80 25v-84zM729 337q0 -142 -101.5 -243.5t-243.5 -101.5q-143 0 -244.5 101.5t-101.5 243.5
q0 143 102 244.5t244 101.5t243.5 -102t101.5 -244zM124 337q0 -112 74.5 -186.5t185.5 -74.5q110 0 185 75t75 186q0 110 -75 185t-185 75q-111 0 -185.5 -75t-74.5 -185z" />
    <glyph glyph-name="ordfeminine" unicode="&#xaa;" horiz-adv-x="381" 
d="M176 464q32 0 52 19.5t20 49.5v43h-50q-41 0 -63 -16t-22 -43q0 -53 63 -53zM252 445q-34 -56 -112 -56q-62 0 -97.5 34.5t-35.5 89.5q0 61 46 96t132 35h63v25q0 36 -19 54.5t-64 18.5q-70 0 -126 -37v93q52 29 139 29q89 0 131 -39.5t42 -121.5v-274h-99v53z" />
    <glyph glyph-name="guillemotleft" unicode="&#xab;" horiz-adv-x="549" 
d="M366 253l146 -162h-127l-152 162l152 162h127zM305 91h-127l-152 162l152 162h127l-146 -162z" />
    <glyph glyph-name="logicalnot" unicode="&#xac;" horiz-adv-x="583" 
d="M541 145h-103v172h-400v99h503v-271z" />
    <glyph glyph-name="uni00AD" unicode="&#xad;" horiz-adv-x="353" 
d="M304 214h-254v101h254v-101z" />
    <glyph glyph-name="registered" unicode="&#xae;" horiz-adv-x="476" 
d="M218 453h-50v228h67q87 0 87 -72q0 -46 -37 -64l58 -92h-61l-49 83h-15v-83zM238 639h-20v-62h24q28 0 28 32q0 30 -32 30zM466 559q0 -99 -64.5 -162.5t-163.5 -63.5t-163.5 63.5t-64.5 162.5q0 100 64.5 164t163.5 64t163.5 -64.5t64.5 -163.5zM67 559q0 -77 47 -124.5
t125 -47.5t124.5 47.5t46.5 124.5q0 78 -46.5 126t-124.5 48t-125 -48t-47 -126z" />
    <glyph glyph-name="macron" unicode="&#xaf;" horiz-adv-x="470" 
d="M399 667h-328v83h328v-83z" />
    <glyph glyph-name="degree" unicode="&#xb0;" horiz-adv-x="408" 
d="M378 509q0 -73 -51 -123t-124 -50t-123 49.5t-50 122.5t50.5 123.5t123.5 50.5q74 0 124 -50t50 -123zM117 509q0 -36 25.5 -62t61.5 -26t61 26t25 62t-25.5 61.5t-61.5 25.5t-61 -25.5t-25 -61.5z" />
    <glyph glyph-name="plusminus" unicode="&#xb1;" horiz-adv-x="576" 
d="M526 328h-184v-151h-111v151h-181v101h181v150h111v-150h184v-101zM526 29h-476v101h476v-101z" />
    <glyph glyph-name="twosuperior" unicode="&#xb2;" horiz-adv-x="365" 
d="M329 392h-289v66q77 57 128.5 116.5t51.5 107.5q0 61 -67 61q-49 0 -102 -39v91q53 33 114 33q65 0 107 -36t42 -99q0 -116 -158 -224h173v-77z" />
    <glyph glyph-name="threesuperior" unicode="&#xb3;" horiz-adv-x="343" 
d="M308 509q0 -54 -40 -87.5t-109 -33.5q-75 0 -124 26v81q56 -29 112 -29q32 0 50 14.5t18 38.5q0 52 -90 52h-18v76h18q35 0 57.5 13.5t22.5 38.5q0 49 -60 49q-49 0 -95 -33v86q46 27 101 27q69 0 108 -33.5t39 -85.5q0 -39 -21.5 -65t-58.5 -34q38 -3 64 -30t26 -71z
" />
    <glyph glyph-name="acute" unicode="&#xb4;" horiz-adv-x="470" 
d="M228 629h-101l91 169h126z" />
    <glyph glyph-name="uni00B5" unicode="&#xb5;" horiz-adv-x="570" 
d="M185 -180h-120v687h120v-315q0 -47 29 -72.5t72 -25.5q99 0 99 141v272h120v-507h-120v67q-34 -72 -115 -72q-46 0 -85 22v-197z" />
    <glyph glyph-name="paragraph" unicode="&#xb6;" horiz-adv-x="574" 
d="M310 -148h-96v474q-95 0 -146.5 50.5t-51.5 123.5q0 72 53 123t158 51h83v-822zM506 -148h-96l1 822h95v-822z" />
    <glyph glyph-name="periodcentered" unicode="&#xb7;" horiz-adv-x="254" 
d="M205 278q0 -32 -22.5 -55t-54.5 -23t-55 23t-23 55t23 54.5t55 22.5t54.5 -22.5t22.5 -54.5z" />
    <glyph glyph-name="cedilla" unicode="&#xb8;" horiz-adv-x="470" 
d="M319 -124q0 -59 -43 -98t-126 -40v78q79 3 79 67q0 29 -25 66h97q18 -27 18 -73z" />
    <glyph glyph-name="onesuperior" unicode="&#xb9;" horiz-adv-x="268" 
d="M210 392h-88v335l-112 -61v85l128 73h72v-432z" />
    <glyph glyph-name="ordmasculine" unicode="&#xba;" horiz-adv-x="417" 
d="M413 609q0 -97 -54 -160t-150 -63q-98 0 -151.5 61t-53.5 156q0 98 56 162t149 64q97 0 150.5 -62t53.5 -158zM110 607q0 -60 26 -99.5t73 -39.5q48 0 72.5 38.5t24.5 98.5q0 142 -99 142q-47 0 -72 -40t-25 -100z" />
    <glyph glyph-name="guillemotright" unicode="&#xbb;" horiz-adv-x="550" 
d="M522 253l-151 -162h-127l146 162l-146 162h127zM164 91h-127l146 162l-146 162h127l151 -162z" />
    <glyph glyph-name="onequarter" unicode="&#xbc;" horiz-adv-x="830" 
d="M226 0h-95l437 711h94zM231 279h-88v335l-112 -61v86l128 72h72v-432zM560 163h106v202zM752 0h-86v91h-195v72l145 267h136v-267h56v-72h-56v-91z" />
    <glyph glyph-name="onehalf" unicode="&#xbd;" horiz-adv-x="833" 
d="M226 0h-95l437 711h94zM231 279h-88v335l-112 -61v86l128 72h72v-432zM808 0h-289v66q181 134 181 224q0 30 -18 45.5t-49 15.5q-49 0 -102 -39v91q53 33 114 33q65 0 107 -36t42 -99q0 -116 -158 -224h172v-77z" />
    <glyph glyph-name="threequarters" unicode="&#xbe;" horiz-adv-x="886" 
d="M280 0h-95l437 711h95zM314 396q0 -54 -39.5 -87.5t-108.5 -33.5q-75 0 -124 26v81q53 -29 112 -29q32 0 50 14.5t18 38.5q0 52 -90 52h-19v76h18q36 0 58 13t22 38q0 50 -60 50q-48 0 -95 -34v87q46 26 102 26q69 0 108 -33.5t39 -85.5q0 -39 -21.5 -64.5t-58.5 -33.5
q37 -4 63 -31t26 -70zM614 163h106v202zM806 0h-86v91h-195v72l145 267h136v-267h56v-72h-56v-91z" />
    <glyph glyph-name="questiondown" unicode="&#xbf;" horiz-adv-x="456" 
d="M423 -140q-66 -32 -156 -32q-95 0 -152 48.5t-57 134.5q0 45 17.5 81t45.5 57t56.5 32t55.5 13l2 92h112l2 -157q-169 0 -169 -106q0 -42 26 -67.5t77 -25.5q69 0 140 46v-116zM371 439q0 -33 -22.5 -56t-56.5 -23q-33 0 -56 23t-23 56t23 56t56 23q34 0 56.5 -23
t22.5 -56z" />
    <glyph glyph-name="Agrave" unicode="&#xc0;" horiz-adv-x="674" 
d="M250 285l-9 -29h190l-9 30q-34 108 -55.5 181.5t-26.5 92.5l-4 20q-9 -50 -86 -295zM160 0h-132l228 674h163l228 -674h-136l-48 153h-255zM386 723h-101l-116 169h126z" />
    <glyph glyph-name="Aacute" unicode="&#xc1;" horiz-adv-x="674" 
d="M250 285l-9 -29h190l-9 30q-34 108 -55.5 181.5t-26.5 92.5l-4 20q-9 -50 -86 -295zM160 0h-132l228 674h163l228 -674h-136l-48 153h-255zM398 723h-101l91 169h126z" />
    <glyph glyph-name="Acircumflex" unicode="&#xc2;" horiz-adv-x="674" 
d="M250 285l-9 -29h190l-9 30q-34 108 -55.5 181.5t-26.5 92.5l-4 20q-9 -50 -86 -295zM160 0h-132l228 674h163l228 -674h-136l-48 153h-255zM258 723h-117l145 169h106l145 -169h-117l-81 99z" />
    <glyph glyph-name="Atilde" unicode="&#xc3;" horiz-adv-x="674" 
d="M250 285l-9 -29h190l-9 30q-34 108 -55.5 181.5t-26.5 92.5l-4 20q-9 -50 -86 -295zM160 0h-132l228 674h163l228 -674h-136l-48 153h-255zM281 785q-24 0 -39 -9.5t-33 -34.5l-57 53q16 33 45.5 55.5t65.5 22.5q34 0 75 -19t60 -19q43 0 64 43l64 -51q-39 -79 -122 -79
q-30 0 -69 19t-54 19z" />
    <glyph glyph-name="Adieresis" unicode="&#xc4;" horiz-adv-x="674" 
d="M250 285l-9 -29h190l-9 30q-34 108 -55.5 181.5t-26.5 92.5l-4 20q-9 -50 -86 -295zM160 0h-132l228 674h163l228 -674h-136l-48 153h-255zM535 809q0 -30 -20 -50t-51 -20q-30 0 -50.5 20t-20.5 50q0 29 20.5 49t50.5 20q31 0 51 -20t20 -49zM292 809q0 -30 -20 -50
t-50 -20q-31 0 -51 20t-20 50q0 29 20 49t51 20q30 0 50 -20t20 -49z" />
    <glyph glyph-name="Aring" unicode="&#xc5;" horiz-adv-x="674" 
d="M250 285l-9 -29h190l-9 30q-34 108 -55.5 181.5t-26.5 92.5l-4 20q-9 -50 -86 -295zM160 0h-132l228 674h163l228 -674h-136l-48 153h-255zM466 837q0 -52 -36.5 -88.5t-88.5 -36.5t-88.5 36.5t-36.5 88.5t36.5 88.5t88.5 36.5t88.5 -36.5t36.5 -88.5zM288 839
q0 -22 15 -38.5t38 -16.5t38 16.5t15 38.5t-15 38.5t-38 16.5t-38 -16.5t-15 -38.5z" />
    <glyph glyph-name="AE" unicode="&#xc6;" horiz-adv-x="917" 
d="M147 0h-133l347 674h496v-103h-271v-183h241v-102h-241v-183h275v-103h-398v153h-235zM298 285l-15 -29h180v355q-47 -110 -165 -326z" />
    <glyph glyph-name="Ccedilla" unicode="&#xc7;" horiz-adv-x="609" 
d="M562 32q-62 -40 -174 -40q-150 0 -247.5 94.5t-97.5 250.5q0 153 96.5 249.5t248.5 96.5q111 0 173 -37v-123q-76 44 -168 44t-153.5 -62.5t-61.5 -167.5t61.5 -167t160.5 -62q95 0 162 50v-126zM439 -124q0 -59 -43 -98t-126 -40v78q79 3 79 67q0 29 -25 66h97
q18 -27 18 -73z" />
    <glyph glyph-name="Egrave" unicode="&#xc8;" horiz-adv-x="528" 
d="M472 0h-402v674h398v-103h-271v-183h241v-102h-241v-183h275v-103zM336 723h-101l-116 169h126z" />
    <glyph glyph-name="Eacute" unicode="&#xc9;" horiz-adv-x="528" 
d="M472 0h-402v674h398v-103h-271v-183h241v-102h-241v-183h275v-103zM332 723h-101l91 169h126z" />
    <glyph glyph-name="Ecircumflex" unicode="&#xca;" horiz-adv-x="528" 
d="M472 0h-402v674h398v-103h-271v-183h241v-102h-241v-183h275v-103zM192 723h-117l145 169h106l145 -169h-117l-81 99z" />
    <glyph glyph-name="Edieresis" unicode="&#xcb;" horiz-adv-x="528" 
d="M472 0h-402v674h398v-103h-271v-183h241v-102h-241v-183h275v-103zM463 807q0 -30 -20 -50t-51 -20q-30 0 -50.5 20t-20.5 50q0 29 20.5 49t50.5 20q31 0 51 -20t20 -49zM220 807q0 -30 -20 -50t-50 -20q-31 0 -51 20t-20 50q0 29 20 49t51 20q30 0 50 -20t20 -49z" />
    <glyph glyph-name="Igrave" unicode="&#xcc;" horiz-adv-x="282" 
d="M204 0h-126v674h126v-674zM187 723h-101l-116 169h126z" />
    <glyph glyph-name="Iacute" unicode="&#xcd;" horiz-adv-x="282" 
d="M204 0h-126v674h126v-674zM195 723h-101l91 169h126z" />
    <glyph glyph-name="Icircumflex" unicode="&#xce;" horiz-adv-x="282" 
d="M204 0h-126v674h126v-674zM62 723h-117l145 169h106l145 -169h-117l-81 99z" />
    <glyph glyph-name="Idieresis" unicode="&#xcf;" horiz-adv-x="282" 
d="M204 0h-126v674h126v-674zM338 808q0 -30 -20 -50t-51 -20q-30 0 -50.5 20t-20.5 50q0 29 20.5 49t50.5 20q31 0 51 -20t20 -49zM95 808q0 -30 -20 -50t-50 -20q-31 0 -51 20t-20 50q0 29 20 49t51 20q30 0 50 -20t20 -49z" />
    <glyph glyph-name="Eth" unicode="&#xd0;" horiz-adv-x="742" 
d="M357 0h-220v282h-73v103h73v289h220q151 0 247 -93t96 -235q0 -156 -92.5 -251t-250.5 -95zM418 282h-152v-177h89q106 0 161.5 65.5t55.5 175.5q0 97 -59 159.5t-160 62.5h-87v-183h152v-103z" />
    <glyph glyph-name="Ntilde" unicode="&#xd1;" horiz-adv-x="688" 
d="M196 0h-126v674h143l162 -281q40 -69 71.5 -128.5t42.5 -84.5l11 -25q-8 83 -8 238v281h127v-674h-144l-164 280q-39 66 -70.5 126.5t-43.5 87.5l-12 28q11 -95 11 -241v-281zM292 785q-24 0 -39 -9.5t-33 -34.5l-57 53q16 33 45.5 55.5t65.5 22.5q34 0 75 -19t60 -19
q43 0 64 43l64 -51q-39 -79 -122 -79q-31 0 -69 19t-54 19z" />
    <glyph glyph-name="Ograve" unicode="&#xd2;" horiz-adv-x="723" 
d="M680 339q0 -156 -86.5 -251t-231.5 -95t-232 95t-87 251q0 157 86.5 252t231.5 95q147 0 233 -94.5t86 -252.5zM178 339q0 -106 50 -168t134 -62q85 0 134 61.5t49 168.5t-49 169t-135 62q-85 0 -134 -62t-49 -169zM421 723h-101l-116 169h126z" />
    <glyph glyph-name="Oacute" unicode="&#xd3;" horiz-adv-x="723" 
d="M680 339q0 -156 -86.5 -251t-231.5 -95t-232 95t-87 251q0 157 86.5 252t231.5 95q147 0 233 -94.5t86 -252.5zM178 339q0 -106 50 -168t134 -62q85 0 134 61.5t49 168.5t-49 169t-135 62q-85 0 -134 -62t-49 -169zM417 723h-101l91 169h126z" />
    <glyph glyph-name="Ocircumflex" unicode="&#xd4;" horiz-adv-x="723" 
d="M680 339q0 -156 -86.5 -251t-231.5 -95t-232 95t-87 251q0 157 86.5 252t231.5 95q147 0 233 -94.5t86 -252.5zM178 339q0 -106 50 -168t134 -62q85 0 134 61.5t49 168.5t-49 169t-135 62q-85 0 -134 -62t-49 -169zM286 723h-117l145 169h106l145 -169h-117l-81 99z" />
    <glyph glyph-name="Otilde" unicode="&#xd5;" horiz-adv-x="723" 
d="M680 339q0 -156 -86.5 -251t-231.5 -95t-232 95t-87 251q0 157 86.5 252t231.5 95q147 0 233 -94.5t86 -252.5zM178 339q0 -106 50 -168t134 -62q85 0 134 61.5t49 168.5t-49 169t-135 62q-85 0 -134 -62t-49 -169zM304 785q-24 0 -39 -9.5t-33 -34.5l-57 53
q16 33 45.5 55.5t65.5 22.5q34 0 75 -19t60 -19q43 0 64 43l64 -51q-39 -79 -122 -79q-31 0 -69 19t-54 19z" />
    <glyph glyph-name="Odieresis" unicode="&#xd6;" horiz-adv-x="723" 
d="M680 339q0 -156 -86.5 -251t-231.5 -95t-232 95t-87 251q0 157 86.5 252t231.5 95q147 0 233 -94.5t86 -252.5zM178 339q0 -106 50 -168t134 -62q85 0 134 61.5t49 168.5t-49 169t-135 62q-85 0 -134 -62t-49 -169zM560 809q0 -30 -20 -50t-51 -20q-30 0 -50.5 20
t-20.5 50q0 29 20.5 49t50.5 20q31 0 51 -20t20 -49zM317 809q0 -30 -20 -50t-50 -20q-31 0 -51 20t-20 50q0 29 20 49t51 20q30 0 50 -20t20 -49z" />
    <glyph glyph-name="multiply" unicode="&#xd7;" horiz-adv-x="515" 
d="M465 209l-77 -76l-130 129l-129 -128l-78 78l128 128l-131 131l77 77l131 -131l130 130l79 -78l-130 -130z" />
    <glyph glyph-name="Oslash" unicode="&#xd8;" horiz-adv-x="699" 
d="M676 339q0 -156 -86.5 -251t-231.5 -95q-94 0 -164 41l-31 -42h-123l78 105q-79 93 -79 242q0 157 86.5 252t231.5 95q94 0 167 -42l30 41h123l-78 -105q77 -92 77 -241zM169 339q0 -79 27 -136l258 347q-41 26 -97 26q-87 0 -137.5 -63.5t-50.5 -173.5zM358 103
q87 0 137.5 63.5t50.5 172.5q0 78 -26 135l-256 -346q38 -25 94 -25z" />
    <glyph glyph-name="Ugrave" unicode="&#xd9;" horiz-adv-x="659" 
d="M593 259q0 -131 -70.5 -199.5t-193.5 -68.5q-120 0 -191.5 67.5t-71.5 193.5v422h126v-421q0 -77 38 -111.5t99 -34.5q138 0 138 151v416h126v-415zM386 723h-101l-116 169h126z" />
    <glyph glyph-name="Uacute" unicode="&#xda;" horiz-adv-x="659" 
d="M593 259q0 -131 -70.5 -199.5t-193.5 -68.5q-120 0 -191.5 67.5t-71.5 193.5v422h126v-421q0 -77 38 -111.5t99 -34.5q138 0 138 151v416h126v-415zM393 723h-101l91 169h126z" />
    <glyph glyph-name="Ucircumflex" unicode="&#xdb;" horiz-adv-x="659" 
d="M593 259q0 -131 -70.5 -199.5t-193.5 -68.5q-120 0 -191.5 67.5t-71.5 193.5v422h126v-421q0 -77 38 -111.5t99 -34.5q138 0 138 151v416h126v-415zM248 723h-117l145 169h106l145 -169h-117l-81 99z" />
    <glyph glyph-name="Udieresis" unicode="&#xdc;" horiz-adv-x="659" 
d="M593 259q0 -131 -70.5 -199.5t-193.5 -68.5q-120 0 -191.5 67.5t-71.5 193.5v422h126v-421q0 -77 38 -111.5t99 -34.5q138 0 138 151v416h126v-415zM525 808q0 -30 -20 -50t-51 -20q-30 0 -50.5 20t-20.5 50q0 29 20.5 49t50.5 20q31 0 51 -20t20 -49zM282 808
q0 -30 -20 -50t-50 -20q-31 0 -51 20t-20 50q0 29 20 49t51 20q30 0 50 -20t20 -49z" />
    <glyph glyph-name="Yacute" unicode="&#xdd;" horiz-adv-x="624" 
d="M374 0h-126v246l-230 428h147l45 -98q39 -85 64 -142.5t30 -71.5l6 -15q9 37 103 229l46 98h147l-232 -424v-250zM378 723h-101l91 169h126z" />
    <glyph glyph-name="Thorn" unicode="&#xde;" horiz-adv-x="553" 
d="M281 115h-85v-115h-126v674h126v-115h82q116 0 183.5 -62t67.5 -159q0 -103 -69.5 -163t-178.5 -60zM271 456h-75v-239h79q63 0 94.5 33t31.5 84q0 52 -31 87t-99 35z" />
    <glyph glyph-name="germandbls" unicode="&#xdf;" horiz-adv-x="576" 
d="M553 151q0 -71 -47.5 -115t-128.5 -44q-72 0 -105 19v106q45 -28 95 -28q32 0 52 16t20 43t-23 51.5t-50.5 41t-50.5 46t-23 64.5q0 40 33 88.5t33 77.5q0 30 -20 48t-56 18q-98 0 -98 -102v-481h-118v474q0 105 55.5 160.5t156.5 55.5q91 0 146.5 -48.5t55.5 -115.5
q0 -41 -16 -72t-31.5 -52.5t-15.5 -38.5q0 -15 21.5 -34t46.5 -37.5t46.5 -56t21.5 -84.5z" />
    <glyph glyph-name="agrave" unicode="&#xe0;" horiz-adv-x="507" 
d="M239 85q40 0 62.5 23.5t22.5 61.5v48h-62q-47 0 -72 -19.5t-25 -49.5q0 -64 74 -64zM329 61q-35 -65 -132 -65q-72 0 -114.5 42t-42.5 106q0 72 54 113t156 41h74v31q0 42 -22 64t-75 22q-81 0 -149 -45v111q57 35 164 35q206 0 206 -192v-324h-119v61zM313 556h-101
l-116 169h126z" />
    <glyph glyph-name="aacute" unicode="&#xe1;" horiz-adv-x="507" 
d="M239 85q40 0 62.5 23.5t22.5 61.5v48h-62q-47 0 -72 -19.5t-25 -49.5q0 -64 74 -64zM329 61q-35 -65 -132 -65q-72 0 -114.5 42t-42.5 106q0 72 54 113t156 41h74v31q0 42 -22 64t-75 22q-81 0 -149 -45v111q57 35 164 35q206 0 206 -192v-324h-119v61zM306 556h-101
l91 169h126z" />
    <glyph glyph-name="acircumflex" unicode="&#xe2;" horiz-adv-x="507" 
d="M239 85q40 0 62.5 23.5t22.5 61.5v48h-62q-47 0 -72 -19.5t-25 -49.5q0 -64 74 -64zM329 61q-35 -65 -132 -65q-72 0 -114.5 42t-42.5 106q0 72 54 113t156 41h74v31q0 42 -22 64t-75 22q-81 0 -149 -45v111q57 35 164 35q206 0 206 -192v-324h-119v61zM174 556h-117
l145 169h106l145 -169h-117l-81 99z" />
    <glyph glyph-name="atilde" unicode="&#xe3;" horiz-adv-x="507" 
d="M239 85q40 0 62.5 23.5t22.5 61.5v48h-62q-47 0 -72 -19.5t-25 -49.5q0 -64 74 -64zM329 61q-35 -65 -132 -65q-72 0 -114.5 42t-42.5 106q0 72 54 113t156 41h74v31q0 42 -22 64t-75 22q-81 0 -149 -45v111q57 35 164 35q206 0 206 -192v-324h-119v61zM196 618
q-24 0 -39 -9.5t-33 -34.5l-57 53q16 33 45.5 55.5t65.5 22.5q34 0 75 -19t60 -19q43 0 64 43l64 -51q-39 -79 -122 -79q-31 0 -69 19t-54 19z" />
    <glyph glyph-name="adieresis" unicode="&#xe4;" horiz-adv-x="507" 
d="M239 85q40 0 62.5 23.5t22.5 61.5v48h-62q-47 0 -72 -19.5t-25 -49.5q0 -64 74 -64zM329 61q-35 -65 -132 -65q-72 0 -114.5 42t-42.5 106q0 72 54 113t156 41h74v31q0 42 -22 64t-75 22q-81 0 -149 -45v111q57 35 164 35q206 0 206 -192v-324h-119v61zM452 640
q0 -30 -20 -50t-51 -20q-30 0 -50.5 20t-20.5 50q0 29 20.5 49t50.5 20q31 0 51 -20t20 -49zM209 640q0 -30 -20 -50t-50 -20q-31 0 -51 20t-20 50q0 29 20 49t51 20q30 0 50 -20t20 -49z" />
    <glyph glyph-name="aring" unicode="&#xe5;" horiz-adv-x="507" 
d="M239 85q40 0 62.5 23.5t22.5 61.5v48h-62q-47 0 -72 -19.5t-25 -49.5q0 -64 74 -64zM329 61q-35 -65 -132 -65q-72 0 -114.5 42t-42.5 106q0 72 54 113t156 41h74v31q0 42 -22 64t-75 22q-81 0 -149 -45v111q57 35 164 35q206 0 206 -192v-324h-119v61zM383 670
q0 -52 -36.5 -88.5t-88.5 -36.5t-88.5 36.5t-36.5 88.5t36.5 88.5t88.5 36.5t88.5 -36.5t36.5 -88.5zM205 672q0 -22 15 -38.5t38 -16.5t38 16.5t15 38.5t-15 38.5t-38 16.5t-38 -16.5t-15 -38.5z" />
    <glyph glyph-name="ae" unicode="&#xe6;" horiz-adv-x="812" 
d="M394 92q-18 -41 -62.5 -68.5t-114.5 -27.5q-81 0 -126.5 39.5t-45.5 107.5q0 73 54.5 114t156.5 41h73v31q0 42 -22 64t-75 22q-83 0 -149 -45v111q60 35 157 35q119 0 155 -81q52 77 164 77q100 0 156.5 -60t56.5 -177q0 -26 -7 -70h-316q13 -54 55 -83.5t101 -29.5
q79 0 134 40v-104q-54 -33 -147 -33q-60 0 -114.5 25t-83.5 72zM170 149q0 -63 74 -63q38 0 61.5 23.5t23.5 63.5v44h-57q-49 0 -75.5 -18t-26.5 -50zM562 418q-42 0 -74.5 -31.5t-41.5 -91.5h212v14q-2 51 -26.5 80t-69.5 29z" />
    <glyph glyph-name="ccedilla" unicode="&#xe7;" horiz-adv-x="470" 
d="M432 22q-53 -31 -132 -31q-117 0 -189.5 74t-72.5 187q1 111 72.5 187t195.5 76q74 0 126 -28v-106q-50 32 -114 32q-70 0 -113 -44t-44 -117q2 -72 43.5 -116t112.5 -44q62 0 115 34v-104zM358 -124q0 -59 -43 -98t-126 -40v78q79 3 79 67q0 29 -25 66h97q18 -27 18 -73
z" />
    <glyph glyph-name="egrave" unicode="&#xe8;" horiz-adv-x="529" 
d="M452 28q-53 -33 -153 -33q-121 0 -191 72t-70 186q0 121 66 190t165 69t157 -60t58 -175q0 -28 -7 -72h-318q13 -55 54.5 -84t103.5 -29q80 0 135 40v-104zM272 418q-43 0 -74.5 -31.5t-40.5 -91.5h213v15q-2 49 -26.5 78.5t-71.5 29.5zM329 556h-101l-116 169h126z" />
    <glyph glyph-name="eacute" unicode="&#xe9;" horiz-adv-x="529" 
d="M452 28q-53 -33 -153 -33q-121 0 -191 72t-70 186q0 121 66 190t165 69t157 -60t58 -175q0 -28 -7 -72h-318q13 -55 54.5 -84t103.5 -29q80 0 135 40v-104zM272 418q-43 0 -74.5 -31.5t-40.5 -91.5h213v15q-2 49 -26.5 78.5t-71.5 29.5zM336 556h-101l91 169h126z" />
    <glyph glyph-name="ecircumflex" unicode="&#xea;" horiz-adv-x="529" 
d="M452 28q-53 -33 -153 -33q-121 0 -191 72t-70 186q0 121 66 190t165 69t157 -60t58 -175q0 -28 -7 -72h-318q13 -55 54.5 -84t103.5 -29q80 0 135 40v-104zM272 418q-43 0 -74.5 -31.5t-40.5 -91.5h213v15q-2 49 -26.5 78.5t-71.5 29.5zM193 556h-117l145 169h106
l145 -169h-117l-81 99z" />
    <glyph glyph-name="edieresis" unicode="&#xeb;" horiz-adv-x="529" 
d="M452 28q-53 -33 -153 -33q-121 0 -191 72t-70 186q0 121 66 190t165 69t157 -60t58 -175q0 -28 -7 -72h-318q13 -55 54.5 -84t103.5 -29q80 0 135 40v-104zM272 418q-43 0 -74.5 -31.5t-40.5 -91.5h213v15q-2 49 -26.5 78.5t-71.5 29.5zM475 641q0 -30 -20 -50t-51 -20
q-30 0 -50.5 20t-20.5 50q0 29 20.5 49t50.5 20q31 0 51 -20t20 -49zM232 641q0 -30 -20 -50t-50 -20q-31 0 -51 20t-20 50q0 29 20 49t51 20q30 0 50 -20t20 -49z" />
    <glyph glyph-name="igrave" unicode="&#xec;" horiz-adv-x="260" 
d="M190 0h-120v507h120v-507zM172 556h-101l-116 169h126z" />
    <glyph glyph-name="iacute" unicode="&#xed;" horiz-adv-x="260" 
d="M190 0h-120v507h120v-507zM187 556h-101l91 169h126z" />
    <glyph glyph-name="icircumflex" unicode="&#xee;" horiz-adv-x="260" 
d="M190 0h-120v507h120v-507zM50 556h-117l145 169h106l145 -169h-117l-81 99z" />
    <glyph glyph-name="idieresis" unicode="&#xef;" horiz-adv-x="260" 
d="M190 0h-120v507h120v-507zM323 642q0 -30 -20 -50t-51 -20q-30 0 -50.5 20t-20.5 50q0 29 20.5 49t50.5 20q31 0 51 -20t20 -49zM80 642q0 -30 -20 -50t-50 -20q-31 0 -51 20t-20 50q0 29 20 49t51 20q30 0 50 -20t20 -49z" />
    <glyph glyph-name="eth" unicode="&#xf0;" horiz-adv-x="542" 
d="M495 282q0 -136 -60.5 -214t-172.5 -78q-104 0 -165 62.5t-61 150.5q0 92 55.5 146.5t139.5 54.5q85 0 141 -56q-14 91 -72 173l-141 -71v74l98 49q-50 53 -128 101h161q32 -21 64 -53l117 58v-73l-74 -37q98 -132 98 -287zM261 99q103 0 114 144q-49 57 -117 57
q-45 0 -71.5 -27.5t-26.5 -76.5q0 -44 27.5 -70.5t73.5 -26.5z" />
    <glyph glyph-name="ntilde" unicode="&#xf1;" 
d="M505 0h-120v312q0 50 -24 75.5t-65 25.5q-47 0 -79 -36.5t-32 -104.5v-272h-120v507h120v-87q43 93 156 93q76 0 120 -46t44 -130v-337zM229 618q-24 0 -39 -9.5t-33 -34.5l-57 53q16 33 45.5 55.5t65.5 22.5q34 0 75 -19t60 -19q43 0 64 43l64 -51q-39 -79 -122 -79
q-30 0 -69 19t-54 19z" />
    <glyph glyph-name="ograve" unicode="&#xf2;" 
d="M527 255q0 -115 -64.5 -189t-180.5 -74q-115 0 -179.5 72t-64.5 184q0 116 67 191.5t177 75.5q117 0 181 -73.5t64 -186.5zM164 252q0 -70 31 -117t88 -47q59 0 89 46t30 117q0 73 -29 119.5t-91 46.5q-57 0 -87.5 -47t-30.5 -118zM340 556h-101l-116 169h126z" />
    <glyph glyph-name="oacute" unicode="&#xf3;" 
d="M527 255q0 -115 -64.5 -189t-180.5 -74q-115 0 -179.5 72t-64.5 184q0 116 67 191.5t177 75.5q117 0 181 -73.5t64 -186.5zM164 252q0 -70 31 -117t88 -47q59 0 89 46t30 117q0 73 -29 119.5t-91 46.5q-57 0 -87.5 -47t-30.5 -118zM345 556h-101l91 169h126z" />
    <glyph glyph-name="ocircumflex" unicode="&#xf4;" 
d="M527 255q0 -115 -64.5 -189t-180.5 -74q-115 0 -179.5 72t-64.5 184q0 116 67 191.5t177 75.5q117 0 181 -73.5t64 -186.5zM164 252q0 -70 31 -117t88 -47q59 0 89 46t30 117q0 73 -29 119.5t-91 46.5q-57 0 -87.5 -47t-30.5 -118zM205 555h-117l145 169h106l145 -169
h-117l-81 99z" />
    <glyph glyph-name="otilde" unicode="&#xf5;" 
d="M527 255q0 -115 -64.5 -189t-180.5 -74q-115 0 -179.5 72t-64.5 184q0 116 67 191.5t177 75.5q117 0 181 -73.5t64 -186.5zM164 252q0 -70 31 -117t88 -47q59 0 89 46t30 117q0 73 -29 119.5t-91 46.5q-57 0 -87.5 -47t-30.5 -118zM228 618q-24 0 -39 -9.5t-33 -34.5
l-57 53q16 33 45.5 55.5t65.5 22.5q34 0 75 -19t60 -19q43 0 64 43l64 -51q-39 -79 -122 -79q-31 0 -69 19t-54 19z" />
    <glyph glyph-name="odieresis" unicode="&#xf6;" 
d="M527 255q0 -115 -64.5 -189t-180.5 -74q-115 0 -179.5 72t-64.5 184q0 116 67 191.5t177 75.5q117 0 181 -73.5t64 -186.5zM164 252q0 -70 31 -117t88 -47q59 0 89 46t30 117q0 73 -29 119.5t-91 46.5q-57 0 -87.5 -47t-30.5 -118zM485 641q0 -30 -20 -50t-51 -20
q-30 0 -50.5 20t-20.5 50q0 29 20.5 49t50.5 20q31 0 51 -20t20 -49zM242 641q0 -30 -20 -50t-50 -20q-31 0 -51 20t-20 50q0 29 20 49t51 20q30 0 50 -20t20 -49z" />
    <glyph glyph-name="divide" unicode="&#xf7;" horiz-adv-x="576" 
d="M526 286h-476v108h476v-108zM352 163q0 -27 -20 -47t-47 -20q-28 0 -47.5 20t-19.5 47t19.5 47t47.5 20q27 0 47 -20t20 -47zM352 517q0 -27 -20 -47t-47 -20q-28 0 -47.5 20t-19.5 47t19.5 47t47.5 20q27 0 47 -20t20 -47z" />
    <glyph glyph-name="oslash" unicode="&#xf8;" horiz-adv-x="562" 
d="M532 255q0 -115 -64.5 -189t-180.5 -74q-69 0 -119 26l-19 -26h-106l58 79q-58 70 -58 177q0 115 67 191t177 76q69 0 119 -26l19 26h107l-58 -80q58 -72 58 -180zM155 252q0 -48 15 -87l181 249q-25 15 -64 15q-64 0 -98 -50.5t-34 -126.5zM288 76q65 0 98.5 49
t33.5 126q0 54 -14 92l-182 -249q27 -18 64 -18z" />
    <glyph glyph-name="ugrave" unicode="&#xf9;" 
d="M500 0h-121v83q-40 -88 -156 -88q-77 0 -120 44t-43 125v343h120v-315q0 -48 23.5 -73t64.5 -25q52 0 81.5 35t29.5 106v272h121v-507zM333 555h-101l-116 169h126z" />
    <glyph glyph-name="uacute" unicode="&#xfa;" 
d="M500 0h-121v83q-40 -88 -156 -88q-77 0 -120 44t-43 125v343h120v-315q0 -48 23.5 -73t64.5 -25q52 0 81.5 35t29.5 106v272h121v-507zM340 556h-101l91 169h126z" />
    <glyph glyph-name="ucircumflex" unicode="&#xfb;" 
d="M500 0h-121v83q-40 -88 -156 -88q-77 0 -120 44t-43 125v343h120v-315q0 -48 23.5 -73t64.5 -25q52 0 81.5 35t29.5 106v272h121v-507zM200 556h-117l145 169h106l145 -169h-117l-81 99z" />
    <glyph glyph-name="udieresis" unicode="&#xfc;" 
d="M500 0h-121v83q-40 -88 -156 -88q-77 0 -120 44t-43 125v343h120v-315q0 -48 23.5 -73t64.5 -25q52 0 81.5 35t29.5 106v272h121v-507zM473 641q0 -30 -20 -50t-51 -20q-30 0 -50.5 20t-20.5 50q0 29 20.5 49t50.5 20q31 0 51 -20t20 -49zM230 641q0 -30 -20 -50t-50 -20
q-31 0 -51 20t-20 50q0 29 20 49t51 20q30 0 50 -20t20 -49z" />
    <glyph glyph-name="yacute" unicode="&#xfd;" horiz-adv-x="517" 
d="M325 14q-76 -203 -232 -203q-29 0 -50 5v99q16 -4 34 -4q91 0 129 99l-200 497h133l59 -162q27 -72 43.5 -121t20.5 -62l3 -14q10 35 64 197l53 162h126zM325 556h-101l91 169h126z" />
    <glyph glyph-name="thorn" unicode="&#xfe;" horiz-adv-x="594" 
d="M185 -191h-120v898h120v-278q54 85 155 85q99 0 157.5 -71t58.5 -187q0 -114 -58.5 -188.5t-158.5 -74.5q-102 0 -154 83v-267zM185 257q0 -77 37 -119t89 -42q54 0 88 41.5t34 116.5t-34 116.5t-86 41.5t-90 -39t-38 -116z" />
    <glyph glyph-name="ydieresis" unicode="&#xff;" horiz-adv-x="517" 
d="M325 14q-76 -203 -232 -203q-29 0 -50 5v99q16 -4 34 -4q91 0 129 99l-200 497h133l59 -162q27 -72 43.5 -121t20.5 -62l3 -14q10 35 64 197l53 162h126zM460 641q0 -30 -20 -50t-51 -20q-30 0 -50.5 20t-20.5 50q0 29 20.5 49t50.5 20q31 0 51 -20t20 -49zM217 641
q0 -30 -20 -50t-50 -20q-31 0 -51 20t-20 50q0 29 20 49t51 20q30 0 50 -20t20 -49z" />
    <glyph glyph-name="Amacron" unicode="&#x100;" horiz-adv-x="674" 
d="M250 285l-9 -29h190l-9 30q-34 108 -55.5 181.5t-26.5 92.5l-4 20q-9 -50 -86 -295zM160 0h-132l228 674h163l228 -674h-136l-48 153h-255zM505 767h-328v83h328v-83z" />
    <glyph glyph-name="amacron" unicode="&#x101;" horiz-adv-x="507" 
d="M239 85q40 0 62.5 23.5t22.5 61.5v48h-62q-47 0 -72 -19.5t-25 -49.5q0 -64 74 -64zM329 61q-35 -65 -132 -65q-72 0 -114.5 42t-42.5 106q0 72 54 113t156 41h74v31q0 42 -22 64t-75 22q-81 0 -149 -45v111q57 35 164 35q206 0 206 -192v-324h-119v61zM418 599h-328v83
h328v-83z" />
    <glyph glyph-name="Abreve" unicode="&#x102;" horiz-adv-x="674" 
d="M250 285l-9 -29h190l-9 30q-34 108 -55.5 181.5t-26.5 92.5l-4 20q-9 -50 -86 -295zM160 0h-132l228 674h163l228 -674h-136l-48 153h-255zM521 892q0 -86 -49.5 -129.5t-135.5 -43.5t-135.5 44t-49.5 129h94q0 -43 23.5 -68.5t67.5 -25.5t67.5 25.5t23.5 68.5h94z" />
    <glyph glyph-name="abreve" unicode="&#x103;" horiz-adv-x="507" 
d="M239 85q40 0 62.5 23.5t22.5 61.5v48h-62q-47 0 -72 -19.5t-25 -49.5q0 -64 74 -64zM329 61q-35 -65 -132 -65q-72 0 -114.5 42t-42.5 106q0 72 54 113t156 41h74v31q0 42 -22 64t-75 22q-81 0 -149 -45v111q57 35 164 35q206 0 206 -192v-324h-119v61zM439 724
q0 -86 -49.5 -129.5t-135.5 -43.5t-135.5 44t-49.5 129h94q0 -43 23.5 -68.5t67.5 -25.5t67.5 25.5t23.5 68.5h94z" />
    <glyph glyph-name="Aogonek" unicode="&#x104;" horiz-adv-x="667" 
d="M246 285l-9 -29h191l-9 30q-34 108 -55.5 181.5t-25.5 92.5l-5 20q-10 -50 -87 -295zM658 -230q-40 -23 -97 -23q-66 0 -99 32t-33 82q0 78 77 144l-46 148h-255l-48 -153h-133l229 674h163l227 -674q-116 -67 -116 -128q0 -44 51 -44q41 0 80 27v-85z" />
    <glyph glyph-name="aogonek" unicode="&#x105;" horiz-adv-x="504" 
d="M239 86q39 0 62 23t23 59v49h-57q-49 0 -75.5 -18t-26.5 -50q0 -63 74 -63zM463 -230q-40 -23 -98 -23q-65 0 -98 32t-33 82q0 85 95 151v50q-41 -66 -132 -66q-73 0 -115 41t-42 106q0 73 54.5 114t156.5 41h73v31q0 42 -22 64t-75 22q-83 0 -149 -45v111q60 35 164 35
q206 0 206 -192v-324q-116 -66 -116 -128q0 -44 51 -44q39 0 80 27v-85z" />
    <glyph glyph-name="Cacute" unicode="&#x106;" horiz-adv-x="609" 
d="M562 32q-62 -40 -174 -40q-150 0 -247.5 94.5t-97.5 250.5q0 153 96.5 249.5t248.5 96.5q111 0 173 -37v-123q-76 44 -168 44t-153.5 -62.5t-61.5 -167.5t61.5 -167t160.5 -62q95 0 162 50v-126zM415 723h-101l91 169h126z" />
    <glyph glyph-name="cacute" unicode="&#x107;" horiz-adv-x="470" 
d="M432 22q-53 -31 -132 -31q-117 0 -189.5 74t-72.5 187q1 111 72.5 187t195.5 76q74 0 126 -28v-106q-50 32 -114 32q-70 0 -113 -44t-44 -117q2 -72 43.5 -116t112.5 -44q62 0 115 34v-104zM347 555h-101l91 169h126z" />
    <glyph glyph-name="Ccaron" unicode="&#x10c;" horiz-adv-x="609" 
d="M562 32q-62 -40 -174 -40q-150 0 -247.5 94.5t-97.5 250.5q0 153 96.5 249.5t248.5 96.5q111 0 173 -37v-123q-76 44 -168 44t-153.5 -62.5t-61.5 -167.5t61.5 -167t160.5 -62q95 0 162 50v-126zM420 723h-106l-145 169h117l81 -99l81 99h117z" />
    <glyph glyph-name="ccaron" unicode="&#x10d;" horiz-adv-x="470" 
d="M432 22q-53 -31 -132 -31q-117 0 -189.5 74t-72.5 187q1 111 72.5 187t195.5 76q74 0 126 -28v-106q-50 32 -114 32q-70 0 -113 -44t-44 -117q2 -72 43.5 -116t112.5 -44q62 0 115 34v-104zM328 556h-106l-145 169h117l81 -99l81 99h117z" />
    <glyph glyph-name="Dcaron" unicode="&#x10e;" horiz-adv-x="675" 
d="M290 0h-220v674h220q151 0 247 -93t96 -235q0 -155 -93 -250.5t-250 -95.5zM286 568h-87v-463h89q106 0 161 65.5t55 175.5q0 97 -58.5 159.5t-159.5 62.5zM368 723h-106l-145 169h117l81 -99l81 99h117z" />
    <glyph glyph-name="dcaron" unicode="&#x10f;" horiz-adv-x="713" 
d="M161 251q0 -69 35 -112t87 -43q54 0 90 41.5t36 120.5q0 77 -38 115.5t-87 38.5q-52 0 -87.5 -42.5t-35.5 -118.5zM529 0h-120v79q-52 -86 -154 -86q-100 0 -158.5 76t-58.5 184q0 120 61.5 190.5t157.5 70.5q99 0 152 -85v278h120v-707zM671 504h-90l76 204h129z" />
    <glyph glyph-name="Dcroat" unicode="&#x110;" horiz-adv-x="742" 
d="M357 0h-220v282h-73v103h73v289h220q151 0 247 -93t96 -235q0 -156 -92.5 -251t-250.5 -95zM418 282h-152v-177h89q106 0 161.5 65.5t55.5 175.5q0 97 -59 159.5t-160 62.5h-87v-183h152v-103z" />
    <glyph glyph-name="dcroat" unicode="&#x111;" horiz-adv-x="594" 
d="M161 251q0 -69 35 -112t87 -43q54 0 90 41.5t36 120.5q0 77 -38 115.5t-87 38.5q-52 0 -87.5 -42.5t-35.5 -118.5zM529 0h-120v79q-52 -86 -154 -86q-100 0 -158.5 76t-58.5 184q0 120 61.5 190.5t157.5 70.5q99 0 152 -85v144h-167v72h167v62h120v-62h63v-72h-63v-573z
" />
    <glyph glyph-name="Emacron" unicode="&#x112;" horiz-adv-x="528" 
d="M472 0h-402v674h398v-103h-271v-183h241v-102h-241v-183h275v-103zM433 769h-328v83h328v-83z" />
    <glyph glyph-name="emacron" unicode="&#x113;" horiz-adv-x="529" 
d="M452 28q-53 -33 -153 -33q-121 0 -191 72t-70 186q0 121 66 190t165 69t157 -60t58 -175q0 -28 -7 -72h-318q13 -55 54.5 -84t103.5 -29q80 0 135 40v-104zM272 418q-43 0 -74.5 -31.5t-40.5 -91.5h213v15q-2 49 -26.5 78.5t-71.5 29.5zM436 599h-328v83h328v-83z" />
    <glyph glyph-name="Edotaccent" unicode="&#x116;" horiz-adv-x="528" 
d="M472 0h-402v674h398v-103h-271v-183h241v-102h-241v-183h275v-103zM349 809q0 -30 -20 -50t-50 -20q-31 0 -51 20t-20 50q0 29 20 49t51 20q30 0 50 -20t20 -49z" />
    <glyph glyph-name="edotaccent" unicode="&#x117;" horiz-adv-x="529" 
d="M452 28q-53 -33 -153 -33q-121 0 -191 72t-70 186q0 121 66 190t165 69t157 -60t58 -175q0 -28 -7 -72h-318q13 -55 54.5 -84t103.5 -29q80 0 135 40v-104zM272 418q-43 0 -74.5 -31.5t-40.5 -91.5h213v15q-2 49 -26.5 78.5t-71.5 29.5zM351 642q0 -30 -20 -50t-50 -20
q-31 0 -51 20t-20 50q0 29 20 49t51 20q30 0 50 -20t20 -49z" />
    <glyph glyph-name="Eogonek" unicode="&#x118;" horiz-adv-x="528" 
d="M454 -230q-41 -23 -98 -23q-66 0 -99 32t-33 82q0 77 79 139h-233v674h398v-103h-271v-183h241v-102h-241v-183h275v-103h-34q-116 -67 -116 -128q0 -44 52 -44q39 0 80 27v-85z" />
    <glyph glyph-name="eogonek" unicode="&#x119;" horiz-adv-x="529" 
d="M272 418q-43 0 -74.5 -31.5t-40.5 -91.5h213v15q-2 49 -26.5 78.5t-71.5 29.5zM431 -215q-41 -23 -98 -23q-66 0 -99 32t-33 82q0 65 59 121q-104 12 -163 81.5t-59 174.5q0 121 66 190t165 69t157 -60t58 -175q0 -28 -7 -72h-318q13 -55 54.5 -84t103.5 -29q80 0 135 40
v-104q-20 -12 -48 -20q-105 -63 -105 -121q0 -44 52 -44q39 0 80 27v-85z" />
    <glyph glyph-name="Ecaron" unicode="&#x11a;" horiz-adv-x="528" 
d="M472 0h-402v674h398v-103h-271v-183h241v-102h-241v-183h275v-103zM329 723h-106l-145 169h117l81 -99l81 99h117z" />
    <glyph glyph-name="ecaron" unicode="&#x11b;" horiz-adv-x="529" 
d="M452 28q-53 -33 -153 -33q-121 0 -191 72t-70 186q0 121 66 190t165 69t157 -60t58 -175q0 -28 -7 -72h-318q13 -55 54.5 -84t103.5 -29q80 0 135 40v-104zM272 418q-43 0 -74.5 -31.5t-40.5 -91.5h213v15q-2 49 -26.5 78.5t-71.5 29.5zM326 556h-106l-145 169h117
l81 -99l81 99h117z" />
    <glyph glyph-name="Gbreve" unicode="&#x11e;" horiz-adv-x="693" 
d="M630 58q-92 -66 -230 -66q-160 0 -258.5 93t-98.5 253q0 156 101.5 252t256.5 96q115 0 197 -43v-129q-92 55 -195 55q-101 0 -163 -63t-62 -168q0 -107 60.5 -168.5t166.5 -61.5q52 0 101 18v159h-124v108h248v-324h-1zM559 892q0 -86 -49.5 -129.5t-135.5 -43.5
t-135.5 44t-49.5 129h94q0 -43 23.5 -68.5t67.5 -25.5t67.5 25.5t23.5 68.5h94z" />
    <glyph glyph-name="gbreve" unicode="&#x11f;" horiz-adv-x="571" 
d="M512 46q0 -120 -69.5 -180.5t-176.5 -60.5q-100 0 -175 36v122q68 -48 163 -48q138 0 138 132v44q-46 -75 -144 -75q-85 0 -145.5 62.5t-60.5 181.5q0 110 57.5 181.5t151.5 71.5q95 0 141 -79v73h120v-461zM167 260q0 -71 31 -108.5t79 -37.5q49 0 82 38.5t33 100.5
q0 81 -32 119t-81 38q-52 0 -82 -40.5t-30 -109.5zM489 725q0 -86 -49.5 -129.5t-135.5 -43.5t-135.5 44t-49.5 129h94q0 -43 23.5 -68.5t67.5 -25.5t67.5 25.5t23.5 68.5h94z" />
    <glyph glyph-name="uni0122" unicode="&#x122;" horiz-adv-x="693" 
d="M630 58q-92 -66 -230 -66q-160 0 -258.5 93t-98.5 253q0 156 101.5 252t256.5 96q115 0 197 -43v-129q-92 55 -195 55q-101 0 -163 -63t-62 -168q0 -107 60.5 -168.5t166.5 -61.5q52 0 101 18v159h-124v108h248v-324h-1zM325 -255h-90l76 204h129z" />
    <glyph glyph-name="uni0123" unicode="&#x123;" horiz-adv-x="571" 
d="M512 46q0 -120 -69.5 -180.5t-176.5 -60.5q-100 0 -175 36v122q68 -48 163 -48q138 0 138 132v44q-46 -75 -144 -75q-85 0 -145.5 62.5t-60.5 181.5q0 110 57.5 181.5t151.5 71.5q95 0 141 -79v73h120v-461zM167 260q0 -71 31 -108.5t79 -37.5q49 0 82 38.5t33 100.5
q0 81 -32 119t-81 38q-52 0 -82 -40.5t-30 -109.5zM382 556h-128l114 204h90z" />
    <glyph glyph-name="Imacron" unicode="&#x12a;" horiz-adv-x="282" 
d="M204 0h-126v674h126v-674zM305 766h-328v83h328v-83z" />
    <glyph glyph-name="imacron" unicode="&#x12b;" horiz-adv-x="260" 
d="M190 0h-120v507h120v-507zM294 599h-328v83h328v-83z" />
    <glyph glyph-name="Iogonek" unicode="&#x12e;" horiz-adv-x="282" 
d="M220 -230q-41 -23 -98 -23q-66 0 -99 32t-33 82q0 79 88 146v667h126v-674q-116 -67 -116 -128q0 -44 52 -44q40 0 80 27v-85z" />
    <glyph glyph-name="iogonek" unicode="&#x12f;" horiz-adv-x="260" 
d="M202 659q0 -31 -21 -52t-51 -21t-51 21t-21 52q0 30 21 51t51 21t51 -21t21 -51zM206 -230q-41 -23 -98 -23q-66 0 -99 32t-33 82q0 85 94 150v496h120v-507q-116 -67 -116 -128q0 -44 52 -44q39 0 80 27v-85z" />
    <glyph glyph-name="Idotaccent" unicode="&#x130;" horiz-adv-x="282" 
d="M204 0h-126v674h126v-674zM213 809q0 -30 -20 -50t-50 -20q-31 0 -51 20t-20 50q0 29 20 49t51 20q30 0 50 -20t20 -49z" />
    <glyph glyph-name="dotlessi" unicode="&#x131;" horiz-adv-x="260" 
d="M190 0h-120v507h120v-507z" />
    <glyph glyph-name="uni0136" unicode="&#x136;" horiz-adv-x="628" 
d="M607 0h-159l-242 334l233 340h151l-234 -338zM270 -255h-90l76 204h129zM196 0h-126v674h126v-674z" />
    <glyph glyph-name="uni0137" unicode="&#x137;" horiz-adv-x="522" 
d="M185 0h-120v695h120v-426l179 238h140l-186 -242l190 -265h-141l-182 262v-262zM227 -255h-91l76 204h129z" />
    <glyph glyph-name="Lacute" unicode="&#x139;" horiz-adv-x="484" 
d="M459 0h-389v674h126v-562h263v-112zM357 723h-101l91 169h126z" />
    <glyph glyph-name="lacute" unicode="&#x13a;" horiz-adv-x="260" 
d="M190 0h-120v707h120v-707zM179 756h-101l91 169h126z" />
    <glyph glyph-name="uni013B" unicode="&#x13b;" horiz-adv-x="484" 
d="M229 -255h-90l76 204h129zM459 0h-389v674h126v-562h263v-112z" />
    <glyph glyph-name="uni013C" unicode="&#x13c;" horiz-adv-x="260" 
d="M190 0h-120v707h120v-707zM79 -255h-91l76 204h129z" />
    <glyph glyph-name="Lcaron" unicode="&#x13d;" horiz-adv-x="484" 
d="M459 0h-389v674h126v-562h263v-112zM358 496h-91l76 204h129z" />
    <glyph glyph-name="lcaron" unicode="&#x13e;" horiz-adv-x="269" 
d="M190 0h-120v707h120v-707zM342 505h-90l76 203h128z" />
    <glyph glyph-name="Lslash" unicode="&#x141;" horiz-adv-x="539" 
d="M399 391l-158 -95v-184h263v-112h-390v219l-75 -45v105l75 45v350h127v-273l158 95v-105z" />
    <glyph glyph-name="lslash" unicode="&#x142;" horiz-adv-x="322" 
d="M222 0h-120v278l-74 -51v105l74 51v324h120v-241l83 57v-105l-83 -57v-361z" />
    <glyph glyph-name="Nacute" unicode="&#x143;" horiz-adv-x="688" 
d="M196 0h-126v674h143l162 -281q40 -69 71.5 -128.5t42.5 -84.5l11 -25q-8 83 -8 238v281h127v-674h-144l-164 280q-39 66 -70.5 126.5t-43.5 87.5l-12 28q11 -95 11 -241v-281zM412 723h-101l91 169h126z" />
    <glyph glyph-name="nacute" unicode="&#x144;" 
d="M505 0h-120v312q0 50 -24 75.5t-65 25.5q-47 0 -79 -36.5t-32 -104.5v-272h-120v507h120v-87q43 93 156 93q76 0 120 -46t44 -130v-337zM362 556h-101l91 169h126z" />
    <glyph glyph-name="uni0145" unicode="&#x145;" horiz-adv-x="688" 
d="M196 0h-126v674h143l162 -281q40 -69 71.5 -128.5t42.5 -84.5l11 -25q-8 83 -8 238v281h127v-674h-144l-164 280q-39 66 -70.5 126.5t-43.5 87.5l-12 28q11 -95 11 -241v-281zM303 -255h-91l76 204h129z" />
    <glyph glyph-name="uni0146" unicode="&#x146;" 
d="M505 0h-120v312q0 50 -24 75.5t-65 25.5q-47 0 -79 -36.5t-32 -104.5v-272h-120v507h120v-87q43 93 156 93q76 0 120 -46t44 -130v-337zM239 -255h-90l76 204h129z" />
    <glyph glyph-name="Ncaron" unicode="&#x147;" horiz-adv-x="688" 
d="M196 0h-126v674h143l162 -281q40 -69 71.5 -128.5t42.5 -84.5l11 -25q-8 83 -8 238v281h127v-674h-144l-164 280q-39 66 -70.5 126.5t-43.5 87.5l-12 28q11 -95 11 -241v-281zM406 723h-106l-145 169h117l81 -99l81 99h117z" />
    <glyph glyph-name="ncaron" unicode="&#x148;" 
d="M505 0h-120v312q0 50 -24 75.5t-65 25.5q-47 0 -79 -36.5t-32 -104.5v-272h-120v507h120v-87q43 93 156 93q76 0 120 -46t44 -130v-337zM348 556h-106l-145 169h117l81 -99l81 99h117z" />
    <glyph glyph-name="Omacron" unicode="&#x14c;" horiz-adv-x="723" 
d="M680 339q0 -156 -86.5 -251t-231.5 -95t-232 95t-87 251q0 157 86.5 252t231.5 95q147 0 233 -94.5t86 -252.5zM178 339q0 -106 50 -168t134 -62q85 0 134 61.5t49 168.5t-49 169t-135 62q-85 0 -134 -62t-49 -169zM525 766h-328v83h328v-83z" />
    <glyph glyph-name="omacron" unicode="&#x14d;" 
d="M527 255q0 -115 -64.5 -189t-180.5 -74q-115 0 -179.5 72t-64.5 184q0 116 67 191.5t177 75.5q117 0 181 -73.5t64 -186.5zM164 252q0 -70 31 -117t88 -47q59 0 89 46t30 117q0 73 -29 119.5t-91 46.5q-57 0 -87.5 -47t-30.5 -118zM448 599h-328v83h328v-83z" />
    <glyph glyph-name="Ohungarumlaut" unicode="&#x150;" horiz-adv-x="723" 
d="M680 339q0 -156 -86.5 -251t-231.5 -95t-232 95t-87 251q0 157 86.5 252t231.5 95q147 0 233 -94.5t86 -252.5zM178 339q0 -106 50 -168t134 -62q85 0 134 61.5t49 168.5t-49 169t-135 62q-85 0 -134 -62t-49 -169zM505 723h-91l97 169h126zM329 723h-90l90 169h117z" />
    <glyph glyph-name="ohungarumlaut" unicode="&#x151;" 
d="M527 255q0 -115 -64.5 -189t-180.5 -74q-115 0 -179.5 72t-64.5 184q0 116 67 191.5t177 75.5q117 0 181 -73.5t64 -186.5zM164 252q0 -70 31 -117t88 -47q59 0 89 46t30 117q0 73 -29 119.5t-91 46.5q-57 0 -87.5 -47t-30.5 -118zM433 556h-91l97 169h126zM257 556h-90
l90 169h117z" />
    <glyph glyph-name="OE" unicode="&#x152;" horiz-adv-x="994" 
d="M178 339q0 -107 47.5 -168.5t131.5 -61.5q85 0 131.5 61.5t46.5 168.5q0 108 -47 169.5t-132 61.5q-84 0 -131 -62t-47 -169zM938 0h-403v58q-76 -65 -178 -65q-145 0 -229.5 94.5t-84.5 251.5t84.5 252t228.5 95q104 0 179 -64v52h399v-103h-278v-183h248v-102h-248
v-183h282v-103z" />
    <glyph glyph-name="oe" unicode="&#x153;" horiz-adv-x="884" 
d="M164 252q0 -70 30 -117t86 -47q59 0 89 46t30 117q0 73 -29 119.5t-91 46.5q-57 0 -86 -46.5t-29 -118.5zM634 418q-43 0 -75 -31t-41 -92h212v21q-3 48 -27.5 75t-68.5 27zM812 28q-55 -33 -153 -33q-125 0 -198 83q-65 -86 -182 -86q-115 0 -178 72t-63 184
q0 116 65.5 191.5t175.5 75.5q114 0 180 -82q67 79 172 79q100 0 156.5 -60t56.5 -177q0 -32 -6 -70h-318q14 -54 56 -83.5t102 -29.5q77 0 134 40v-104z" />
    <glyph glyph-name="Racute" unicode="&#x154;" horiz-adv-x="589" 
d="M278 570h-82v-220h84q58 0 87 29.5t29 82.5q0 52 -30.5 80t-87.5 28zM196 0h-126v674h208q115 0 180.5 -58t65.5 -155q-1 -72 -35 -121.5t-93 -73.5l173 -266h-151l-153 246h-69v-246zM336 723h-101l91 169h126z" />
    <glyph glyph-name="racute" unicode="&#x155;" horiz-adv-x="353" 
d="M185 0h-121l1 507h120v-90q35 94 128 94q21 0 34 -3v-116q-23 10 -51 10q-49 0 -80 -40t-31 -100v-262zM264 556h-101l91 169h126z" />
    <glyph glyph-name="uni0156" unicode="&#x156;" horiz-adv-x="589" 
d="M278 570h-82v-220h84q58 0 87 29.5t29 82.5q0 52 -30.5 80t-87.5 28zM252 -255h-90l76 204h129zM196 0h-126v674h208q115 0 180.5 -58t65.5 -155q-1 -72 -35 -121.5t-93 -73.5l173 -266h-151l-153 246h-69v-246z" />
    <glyph glyph-name="uni0157" unicode="&#x157;" horiz-adv-x="353" 
d="M70 -255h-90l76 204h129zM185 0h-121l1 507h120v-90q35 94 128 94q21 0 34 -3v-116q-23 10 -51 10q-49 0 -80 -40t-31 -100v-262z" />
    <glyph glyph-name="Rcaron" unicode="&#x158;" horiz-adv-x="589" 
d="M278 570h-82v-220h84q58 0 87 29.5t29 82.5q0 52 -30.5 80t-87.5 28zM196 0h-126v674h208q115 0 180.5 -58t65.5 -155q-1 -72 -35 -121.5t-93 -73.5l173 -266h-151l-153 246h-69v-246zM355 723h-106l-145 169h117l81 -99l81 99h117z" />
    <glyph glyph-name="rcaron" unicode="&#x159;" horiz-adv-x="353" 
d="M185 0h-121l1 507h120v-90q35 94 128 94q21 0 34 -3v-116q-23 10 -51 10q-49 0 -80 -40t-31 -100v-262zM261 556h-106l-145 169h117l81 -99l81 99h117z" />
    <glyph glyph-name="Sacute" unicode="&#x15a;" horiz-adv-x="518" 
d="M477 189q0 -90 -64.5 -143.5t-169.5 -53.5q-114 0 -189 43v129q86 -62 188 -62q46 0 74 22.5t28 60.5q0 18 -7 32t-28.5 28t-33 20t-47.5 22q-10 5 -15 7q-37 17 -60 30.5t-50 36.5t-40.5 55t-13.5 73q0 86 63.5 138t168.5 52q95 0 164 -33v-122q-75 45 -160 45
q-47 0 -73.5 -21t-26.5 -54t28.5 -54.5t85.5 -47.5q40 -18 65 -31.5t54.5 -37.5t44 -57.5t14.5 -76.5zM320 723h-101l91 169h126z" />
    <glyph glyph-name="sacute" unicode="&#x15b;" horiz-adv-x="427" 
d="M396 146q0 -71 -51 -111t-136 -40q-94 0 -152 31v110q67 -45 145 -45q33 0 51.5 12.5t18.5 34.5q0 13 -6 23.5t-23 20.5t-26.5 14.5t-37.5 16.5q-3 1 -4.5 2t-4.5 2t-5 2q-111 50 -111 144q0 70 53 110t133 40q77 0 128 -22v-106q-50 30 -125 30q-31 0 -48.5 -13.5
t-17.5 -34.5q0 -8 2.5 -15t9 -13.5t12.5 -11.5t17 -10.5l19 -9.5t22 -10t22 -10q53 -26 84 -58t31 -83zM285 556h-101l91 169h126z" />
    <glyph glyph-name="uni015E" unicode="&#x15e;" horiz-adv-x="518" 
d="M477 189q0 -90 -64.5 -143.5t-169.5 -53.5q-114 0 -189 43v129q86 -62 188 -62q46 0 74 22.5t28 60.5q0 18 -7 32t-28.5 28t-33 20t-47.5 22q-10 5 -15 7q-37 17 -60 30.5t-50 36.5t-40.5 55t-13.5 73q0 86 63.5 138t168.5 52q95 0 164 -33v-122q-75 45 -160 45
q-47 0 -73.5 -21t-26.5 -54t28.5 -54.5t85.5 -47.5q40 -18 65 -31.5t54.5 -37.5t44 -57.5t14.5 -76.5zM330 -124q0 -59 -43 -98t-126 -40v78q79 3 79 67q0 29 -25 66h97q18 -27 18 -73z" />
    <glyph glyph-name="uni015F" unicode="&#x15f;" horiz-adv-x="427" 
d="M396 146q0 -71 -51 -111t-136 -40q-94 0 -152 31v110q67 -45 145 -45q33 0 51.5 12.5t18.5 34.5q0 13 -6 23.5t-23 20.5t-26.5 14.5t-37.5 16.5q-3 1 -4.5 2t-4.5 2t-5 2q-111 50 -111 144q0 70 53 110t133 40q77 0 128 -22v-106q-50 30 -125 30q-31 0 -48.5 -13.5
t-17.5 -34.5q0 -8 2.5 -15t9 -13.5t12.5 -11.5t17 -10.5l19 -9.5t22 -10t22 -10q53 -26 84 -58t31 -83zM291 -124q0 -59 -43 -98t-126 -40v78q79 3 79 67q0 29 -25 66h97q18 -27 18 -73z" />
    <glyph glyph-name="Scaron" unicode="&#x160;" horiz-adv-x="518" 
d="M477 189q0 -90 -64.5 -143.5t-169.5 -53.5q-114 0 -189 43v129q86 -62 188 -62q46 0 74 22.5t28 60.5q0 18 -7 32t-28.5 28t-33 20t-47.5 22q-10 5 -15 7q-37 17 -60 30.5t-50 36.5t-40.5 55t-13.5 73q0 86 63.5 138t168.5 52q95 0 164 -33v-122q-75 45 -160 45
q-47 0 -73.5 -21t-26.5 -54t28.5 -54.5t85.5 -47.5q40 -18 65 -31.5t54.5 -37.5t44 -57.5t14.5 -76.5zM318 723h-106l-145 169h117l81 -99l81 99h117z" />
    <glyph glyph-name="scaron" unicode="&#x161;" horiz-adv-x="427" 
d="M396 146q0 -71 -51 -111t-136 -40q-94 0 -152 31v110q67 -45 145 -45q33 0 51.5 12.5t18.5 34.5q0 13 -6 23.5t-23 20.5t-26.5 14.5t-37.5 16.5q-3 1 -4.5 2t-4.5 2t-5 2q-111 50 -111 144q0 70 53 110t133 40q77 0 128 -22v-106q-50 30 -125 30q-31 0 -48.5 -13.5
t-17.5 -34.5q0 -8 2.5 -15t9 -13.5t12.5 -11.5t17 -10.5l19 -9.5t22 -10t22 -10q53 -26 84 -58t31 -83zM289 556h-106l-145 169h117l81 -99l81 99h117z" />
    <glyph glyph-name="uni0162" unicode="&#x162;" horiz-adv-x="520" 
d="M495 570h-171v-570h-127v570h-171v104h469v-104zM329 -124q0 -59 -43 -98t-126 -40v78q79 3 79 67q0 29 -25 66h97q18 -27 18 -73z" />
    <glyph glyph-name="uni0163" unicode="&#x163;" horiz-adv-x="379" 
d="M345 12q-35 -17 -90 -17q-164 0 -164 166v256h-76v90h76v122h120v-122h126v-90h-126v-258q0 -32 17 -48.5t47 -16.5q38 0 70 21v-103zM275 -124q0 -59 -43 -98t-126 -40v78q79 3 79 67q0 29 -25 66h97q18 -27 18 -73z" />
    <glyph glyph-name="Tcaron" unicode="&#x164;" horiz-adv-x="520" 
d="M495 570h-171v-570h-127v570h-171v104h469v-104zM314 723h-106l-145 169h117l81 -99l81 99h117z" />
    <glyph glyph-name="tcaron" unicode="&#x165;" horiz-adv-x="379" 
d="M345 12q-35 -17 -90 -17q-164 0 -164 166v256h-76v90h76v122h120v-122h126v-90h-126v-258q0 -32 17 -48.5t47 -16.5q38 0 70 21v-103zM356 580h-91l76 204h129z" />
    <glyph glyph-name="Umacron" unicode="&#x16a;" horiz-adv-x="659" 
d="M593 259q0 -131 -70.5 -199.5t-193.5 -68.5q-120 0 -191.5 67.5t-71.5 193.5v422h126v-421q0 -77 38 -111.5t99 -34.5q138 0 138 151v416h126v-415zM500 766h-328v83h328v-83z" />
    <glyph glyph-name="umacron" unicode="&#x16b;" 
d="M500 0h-121v83q-40 -88 -156 -88q-77 0 -120 44t-43 125v343h120v-315q0 -48 23.5 -73t64.5 -25q52 0 81.5 35t29.5 106v272h121v-507zM443 599h-328v83h328v-83z" />
    <glyph glyph-name="Uring" unicode="&#x16e;" horiz-adv-x="659" 
d="M593 259q0 -131 -70.5 -199.5t-193.5 -68.5q-120 0 -191.5 67.5t-71.5 193.5v422h126v-421q0 -77 38 -111.5t99 -34.5q138 0 138 151v416h126v-415zM457 837q0 -52 -36.5 -88.5t-88.5 -36.5t-88.5 36.5t-36.5 88.5t36.5 88.5t88.5 36.5t88.5 -36.5t36.5 -88.5zM279 839
q0 -22 15 -38.5t38 -16.5t38 16.5t15 38.5t-15 38.5t-38 16.5t-38 -16.5t-15 -38.5z" />
    <glyph glyph-name="uring" unicode="&#x16f;" 
d="M500 0h-121v83q-40 -88 -156 -88q-77 0 -120 44t-43 125v343h120v-315q0 -48 23.5 -73t64.5 -25q52 0 81.5 35t29.5 106v272h121v-507zM410 670q0 -52 -36.5 -88.5t-88.5 -36.5t-88.5 36.5t-36.5 88.5t36.5 88.5t88.5 36.5t88.5 -36.5t36.5 -88.5zM232 672
q0 -22 15 -38.5t38 -16.5t38 16.5t15 38.5t-15 38.5t-38 16.5t-38 -16.5t-15 -38.5z" />
    <glyph glyph-name="Uhungarumlaut" unicode="&#x170;" horiz-adv-x="659" 
d="M593 259q0 -131 -70.5 -199.5t-193.5 -68.5q-120 0 -191.5 67.5t-71.5 193.5v422h126v-421q0 -77 38 -111.5t99 -34.5q138 0 138 151v416h126v-415zM464 723h-91l97 169h126zM288 723h-90l90 169h117z" />
    <glyph glyph-name="uhungarumlaut" unicode="&#x171;" 
d="M500 0h-121v83q-40 -88 -156 -88q-77 0 -120 44t-43 125v343h120v-315q0 -48 23.5 -73t64.5 -25q52 0 81.5 35t29.5 106v272h121v-507zM420 556h-91l97 169h126zM244 556h-90l90 169h117z" />
    <glyph glyph-name="Uogonek" unicode="&#x172;" horiz-adv-x="659" 
d="M593 259q0 -99 -41.5 -163t-116.5 -89q-114 -67 -114 -127q0 -44 52 -44q39 0 80 27v-85q-41 -23 -98 -23q-66 0 -99 32t-33 82q0 67 62 124q-102 12 -160.5 78.5t-58.5 180.5v422h126v-421q0 -77 38 -111.5t99 -34.5q138 0 138 151v416h126v-415z" />
    <glyph glyph-name="uogonek" unicode="&#x173;" 
d="M516 -230q-41 -23 -98 -23q-66 0 -99 32t-33 82q0 83 93 149v73q-40 -88 -156 -88q-77 0 -120 44t-43 125v343h120v-315q0 -48 23.5 -73t64.5 -25q52 0 81.5 35t29.5 106v272h121v-507q-116 -67 -116 -128q0 -44 52 -44q40 0 80 27v-85z" />
    <glyph glyph-name="Ydieresis" unicode="&#x178;" horiz-adv-x="624" 
d="M374 0h-126v246l-230 428h147l45 -98q39 -85 64 -142.5t30 -71.5l6 -15q9 37 103 229l46 98h147l-232 -424v-250zM509 808q0 -30 -20 -50t-51 -20q-30 0 -50.5 20t-20.5 50q0 29 20.5 49t50.5 20q31 0 51 -20t20 -49zM266 808q0 -30 -20 -50t-50 -20q-31 0 -51 20t-20 50
q0 29 20 49t51 20q30 0 50 -20t20 -49z" />
    <glyph glyph-name="Zacute" unicode="&#x179;" horiz-adv-x="601" 
d="M544 0h-487v96l322 475h-317v103h469v-93l-323 -478h336v-103zM370 723h-101l91 169h126z" />
    <glyph glyph-name="zacute" unicode="&#x17a;" horiz-adv-x="469" 
d="M428 0h-386v89l235 322h-226v96h364v-84l-236 -326h249v-97zM301 556h-101l91 169h126z" />
    <glyph glyph-name="Zdotaccent" unicode="&#x17b;" horiz-adv-x="601" 
d="M544 0h-487v96l322 475h-317v103h469v-93l-323 -478h336v-103zM385 809q0 -30 -20 -50t-50 -20q-31 0 -51 20t-20 50q0 29 20 49t51 20q30 0 50 -20t20 -49z" />
    <glyph glyph-name="zdotaccent" unicode="&#x17c;" horiz-adv-x="469" 
d="M428 0h-386v89l235 322h-226v96h364v-84l-236 -326h249v-97zM318 641q0 -30 -20 -50t-50 -20q-31 0 -51 20t-20 50q0 29 20 49t51 20q30 0 50 -20t20 -49z" />
    <glyph glyph-name="Zcaron" unicode="&#x17d;" horiz-adv-x="601" 
d="M544 0h-487v96l322 475h-317v103h469v-93l-323 -478h336v-103zM359 723h-106l-145 169h117l81 -99l81 99h117z" />
    <glyph glyph-name="zcaron" unicode="&#x17e;" horiz-adv-x="469" 
d="M428 0h-386v89l235 322h-226v96h364v-84l-236 -326h249v-97zM306 556h-106l-145 169h117l81 -99l81 99h117z" />
    <glyph glyph-name="florin" unicode="&#x192;" horiz-adv-x="473" 
d="M230 -56q-15 -94 -61.5 -147t-126.5 -53q-55 0 -86 13v100q31 -14 68 -14q38 0 57.5 27t28.5 83l55 337h-91v90h106l16 100q32 200 188 200q49 0 78 -10v-100q-28 10 -57 10q-73 0 -90 -109l-15 -91h97v-90h-111z" />
    <glyph glyph-name="uni0218" unicode="&#x218;" horiz-adv-x="518" 
d="M477 189q0 -90 -64.5 -143.5t-169.5 -53.5q-114 0 -189 43v129q86 -62 188 -62q46 0 74 22.5t28 60.5q0 18 -7 32t-28.5 28t-33 20t-47.5 22q-10 5 -15 7q-37 17 -60 30.5t-50 36.5t-40.5 55t-13.5 73q0 86 63.5 138t168.5 52q95 0 164 -33v-122q-75 45 -160 45
q-47 0 -73.5 -21t-26.5 -54t28.5 -54.5t85.5 -47.5q40 -18 65 -31.5t54.5 -37.5t44 -57.5t14.5 -76.5zM216 -255h-91l76 204h129z" />
    <glyph glyph-name="uni0219" unicode="&#x219;" horiz-adv-x="427" 
d="M396 146q0 -71 -51 -111t-136 -40q-94 0 -152 31v110q67 -45 145 -45q33 0 51.5 12.5t18.5 34.5q0 13 -6 23.5t-23 20.5t-26.5 14.5t-37.5 16.5q-3 1 -4.5 2t-4.5 2t-5 2q-111 50 -111 144q0 70 53 110t133 40q77 0 128 -22v-106q-50 30 -125 30q-31 0 -48.5 -13.5
t-17.5 -34.5q0 -8 2.5 -15t9 -13.5t12.5 -11.5t17 -10.5l19 -9.5t22 -10t22 -10q53 -26 84 -58t31 -83zM172 -255h-90l76 204h129z" />
    <glyph glyph-name="uni021A" unicode="&#x21a;" horiz-adv-x="520" 
d="M209 -255h-91l77 204h128zM495 570h-171v-570h-127v570h-171v104h469v-104z" />
    <glyph glyph-name="uni021B" unicode="&#x21b;" horiz-adv-x="379" 
d="M345 12q-35 -17 -90 -17q-164 0 -164 166v256h-76v90h76v122h120v-122h126v-90h-126v-258q0 -32 17 -48.5t47 -16.5q38 0 70 21v-103zM200 -255h-90l76 204h128z" />
    <glyph glyph-name="circumflex" unicode="&#x2c6;" horiz-adv-x="470" 
d="M154 629h-117l145 169h106l145 -169h-117l-81 99z" />
    <glyph glyph-name="caron" unicode="&#x2c7;" horiz-adv-x="470" 
d="M288 629h-106l-145 169h117l81 -99l81 99h117z" />
    <glyph glyph-name="uni02C9" unicode="&#x2c9;" horiz-adv-x="470" 
d="M399 667h-328v83h328v-83z" />
    <glyph glyph-name="breve" unicode="&#x2d8;" horiz-adv-x="470" 
d="M420 798q0 -86 -49.5 -129.5t-135.5 -43.5t-135.5 44t-49.5 129h94q0 -43 23.5 -68.5t67.5 -25.5t67.5 25.5t23.5 68.5h94z" />
    <glyph glyph-name="dotaccent" unicode="&#x2d9;" horiz-adv-x="470" 
d="M305 716q0 -30 -20 -50t-50 -20q-31 0 -51 20t-20 50q0 29 20 49t51 20q30 0 50 -20t20 -49z" />
    <glyph glyph-name="ring" unicode="&#x2da;" horiz-adv-x="470" 
d="M360 714q0 -52 -36.5 -88.5t-88.5 -36.5t-88.5 36.5t-36.5 88.5t36.5 88.5t88.5 36.5t88.5 -36.5t36.5 -88.5zM182 716q0 -22 15 -38.5t38 -16.5t38 16.5t15 38.5t-15 38.5t-38 16.5t-38 -16.5t-15 -38.5z" />
    <glyph glyph-name="ogonek" unicode="&#x2db;" horiz-adv-x="470" 
d="M350 -217q-41 -23 -98 -23q-66 0 -99 32t-33 82q0 47 31.5 89t67 65.5t73.5 38.5l42 -54q-116 -67 -116 -128q0 -44 52 -44q40 0 80 27v-85z" />
    <glyph glyph-name="tilde" unicode="&#x2dc;" horiz-adv-x="470" 
d="M180 673q-24 0 -39 -9.5t-33 -34.5l-57 53q16 33 45.5 55.5t65.5 22.5q34 0 75 -19t60 -19q43 0 64 43l64 -51q-39 -79 -122 -79q-31 0 -69 19t-54 19z" />
    <glyph glyph-name="hungarumlaut" unicode="&#x2dd;" horiz-adv-x="470" 
d="M302 629h-91l97 169h126zM126 629h-90l90 169h117z" />
    <glyph glyph-name="pi" unicode="&#x3c0;" horiz-adv-x="597" 
d="M584 417h-86v-417h-120v417h-150v-220q0 -110 -45.5 -153.5t-142.5 -43.5v100q38 0 53 17.5t15 68.5v231h-86v90h562v-90z" />
    <glyph glyph-name="danda" unicode="&#x964;" horiz-adv-x="311" 
d="M236 0h-113v660h113v-660z" />
    <glyph glyph-name="doubledanda" unicode="&#x965;" horiz-adv-x="569" 
d="M493 0h-113v660h113v-660zM236 0h-113v660h113v-660z" />
    <glyph glyph-name="bnAnji" unicode="&#x980;" horiz-adv-x="600" 
d="M285 320v-108q-21 -3 -46 -3q-98 0 -151.5 55t-53.5 146q0 102 69.5 181t178.5 79q75 0 122 -45t47 -123v-320q0 -85 70 -85q16 0 36 2v-103q-36 -6 -65 -6q-73 0 -115 47t-42 127v338q0 67 -54 67q-55 0 -93 -47t-38 -112q0 -43 24 -68.5t75 -25.5q21 0 36 4z" />
    <glyph glyph-name="bnCandrabindu" unicode="&#x981;" horiz-adv-x="0" 
d="M58 868q0 -65 -48.5 -112t-135.5 -47q-86 0 -135 47t-49 112h92q0 -33 22.5 -57t69.5 -24q51 0 71.5 24t20.5 57h92zM-70 885q0 -23 -16 -38.5t-40 -15.5q-23 0 -38 15.5t-15 38.5t15.5 38.5t37.5 15.5q24 1 40 -15t16 -39z" />
    <glyph glyph-name="bnAnusvara" unicode="&#x982;" horiz-adv-x="439" 
d="M42 509q0 70 47.5 115t122.5 45t122.5 -45t47.5 -115t-47.5 -115t-122.5 -45t-122.5 45t-47.5 115zM279 509q0 33 -17.5 53.5t-49.5 20.5t-50 -20.5t-18 -53.5q0 -32 18 -52.5t50 -20.5q31 0 49 20.5t18 52.5zM51 211v117l358 -215v-115z" />
    <glyph glyph-name="bnVisarga" unicode="&#x983;" horiz-adv-x="421" 
d="M44 513q0 68 47 112t120 44t119.5 -44t46.5 -112q0 -69 -46.5 -113t-119.5 -44t-120 44.5t-47 112.5zM278 513q0 32 -18 52.5t-49 20.5q-32 0 -50 -20.5t-18 -52.5t18 -52.5t50 -20.5q31 0 49 20.5t18 52.5zM44 147q0 68 47 111.5t120 43.5t119.5 -43.5t46.5 -111.5
q0 -69 -46.5 -113t-119.5 -44t-120 44t-47 113zM278 147q0 32 -18 52.5t-49 20.5q-32 0 -50 -20.5t-18 -52.5q0 -33 18 -53.5t50 -20.5t49.5 20.5t17.5 53.5z" />
    <glyph glyph-name="bnA" unicode="&#x985;" horiz-adv-x="901" 
d="M826 0h-116v6q0 133 -118 133h-47q-75 -77 -199 -77q-133 0 -213.5 80.5t-80.5 229.5q0 50 6 96h113q-7 -46 -7 -97q0 -101 48.5 -154.5t130.5 -53.5q77 0 117.5 45.5t40.5 116.5q0 43 -16.5 70.5t-50.5 27.5q-28 0 -44 -21t-16 -54t10 -63h-101q-15 33 -15 77
q0 70 44 113t118 43q85 0 136 -56t51 -139q0 -45 -14 -89q74 0 107 -48v379h-730v95h941v-95h-95v-565z" />
    <glyph glyph-name="bnAA" unicode="&#x986;" horiz-adv-x="1169" 
d="M617 323q0 -45 -14 -89q74 0 107 -48v379h-730v95h952q39 0 58 -39q-10 56 -10 98v22h113v-81h95v-95h-95v-565h-116v496q0 39 -12 54t-46 15h-93v-565h-116v6q0 133 -118 133h-47q-75 -77 -199 -77q-133 0 -213.5 80.5t-80.5 229.5q0 50 6 96h113q-7 -46 -7 -97
q0 -101 48.5 -154.5t130.5 -53.5q77 0 117.5 45.5t40.5 116.5q0 43 -16.5 70.5t-50.5 27.5q-28 0 -44 -21t-16 -54t10 -63h-101q-15 33 -15 77q0 70 44 113t118 43q85 0 136 -56t51 -139z" />
    <glyph glyph-name="bnI" unicode="&#x987;" horiz-adv-x="458" 
d="M408 -9h-155l-190 133v93h95q69 1 105 32.5t36 87.5q0 39 -20 61t-55 22q-32 0 -51.5 -20.5t-19.5 -52.5q0 -29 7 -53h-107q-10 30 -10 65q0 68 48.5 112t129.5 44q86 0 138.5 -51.5t52.5 -126.5q0 -84 -54.5 -135t-146.5 -63l197 -136v-12zM478 565h-498v95h320
q3 18 3 36q0 31 -12.5 47t-44.5 16q-19 0 -64.5 -10t-72.5 -10q-47 0 -86 21v90q37 -17 76 -17q24 0 74 12.5t84 12.5q75 0 113.5 -39.5t38.5 -107.5q0 -21 -5 -51h74v-95z" />
    <glyph glyph-name="bnII" unicode="&#x988;" horiz-adv-x="663" 
d="M43 360q0 68 45 111.5t123 43.5q70 0 114.5 -40t58.5 -102q86 81 107 99h104q-25 -108 -25 -230t27 -242h-116q-16 84 -16 177q0 69 14 153q-27 -24 -103 -95q-22 -73 -75.5 -117.5t-136.5 -44.5q-51 0 -109 10v97q48 -6 96 -6q65 0 98 39.5t33 109.5q0 97 -67 97
q-30 0 -46 -19.5t-16 -52.5q0 -32 8 -60h-106q-12 33 -12 72zM-20 660h509q2 24 2 39q0 60 -68 60q-26 0 -100.5 -10t-115.5 -10q-75 0 -117 21v90q44 -17 108 -17q30 0 116.5 12.5t121.5 12.5q77 0 119 -38t42 -105q0 -25 -4 -55h96v-95h-709v95z" />
    <glyph glyph-name="bnU" unicode="&#x989;" horiz-adv-x="668" 
d="M629 289q0 -121 -73.5 -202t-204.5 -81q-140 0 -225 93t-85 256q0 39 5 84h115q-4 -36 -4 -80q0 -120 52 -186t142 -66q83 0 126 49.5t43 134.5v11q-58 -30 -116 -30q-73 0 -112.5 40.5t-39.5 116.5v136h-272v95h504q3 36 3 39q0 60 -69 60q-26 0 -100 -10t-115 -10
q-76 0 -118 21v90q45 -17 108 -17q30 0 116.5 12.5t121.5 12.5q77 0 119.5 -38t42.5 -105q0 -30 -5 -55h100v-95h-320v-135q0 -58 57 -58t177 65q27 -67 27 -148z" />
    <glyph glyph-name="bnUU" unicode="&#x98a;" horiz-adv-x="772" 
d="M-20 660h607q2 24 2 39q0 60 -68 60q-45 0 -139.5 -12t-143.5 -12q-80 0 -130 25v90q52 -20 128 -20q38 0 141 14t157 14q77 0 119.5 -38t42.5 -105q0 -17 -5 -55h101v-95h-320v-135q0 -58 57 -58t177 65q27 -67 27 -148q0 -122 -78.5 -202.5t-224.5 -80.5
q-176 0 -284 91.5t-108 257.5q0 48 4 84h86q-4 -36 -4 -80q0 -106 44.5 -170.5t116.5 -83.5q-46 36 -71.5 101.5t-25.5 148.5q0 50 5 84h86q-4 -36 -4 -80q0 -122 46.5 -187t133.5 -65q80 0 124.5 50t44.5 134v10q-56 -29 -115 -29q-73 0 -113 41t-40 116v136h-376v95z" />
    <glyph glyph-name="bnvR" unicode="&#x98b;" horiz-adv-x="848" 
d="M512 0h-116l-344 167l1 1v114l257 139l-37 74q-39 -70 -120 -70q-70 0 -109.5 42t-39.5 112q0 43 15 81h98q-10 -35 -10 -67q0 -33 16 -53.5t43 -20.5q35 0 48 24.5t13 72.5q0 29 -2 44h87l80 -195l8 5v190h112v-342h38q74 0 107 -48v471h116v-81h95v-95h-95v-481h-116v6
q0 133 -118 133h-27v-223zM396 116v234l-220 -122z" />
    <glyph glyph-name="bnvL" unicode="&#x98c;" horiz-adv-x="625" 
d="M587 278q0 -130 -90 -208.5t-234 -78.5q-25 0 -52 3l1 97q35 18 58 58t23 90q0 38 -19.5 61t-55.5 23q-34 0 -52 -21.5t-18 -59.5q0 -45 16 -95h-106q-20 58 -20 110q0 72 49 117.5t126 45.5q84 0 134 -49t50 -130q0 -74 -50 -142q61 18 95.5 64.5t34.5 115.5
q0 59 -26.5 102t-65.5 65.5t-85.5 46.5t-85.5 45.5t-65.5 63t-26.5 98.5q0 25 5 41h107q-1 -4 -1 -17q0 -36 19.5 -63t50.5 -45.5t69 -36.5t76 -42t69 -55.5t50.5 -83.5t19.5 -120z" />
    <glyph glyph-name="bnE" unicode="&#x98f;" horiz-adv-x="629" 
d="M130 423q0 100 71.5 173t181.5 73q84 0 128.5 -45t44.5 -127v-497h-116v3q0 40 -37 40q-20 0 -85 -18.5t-107 -18.5q-75 0 -126.5 44t-51.5 129q0 34 6 61l113 1q-3 -18 -3 -48q0 -83 77 -83q28 0 85.5 16t80.5 16q29 0 48 -17v372q0 38 -13.5 55t-43.5 17
q-52 0 -94 -44.5t-42 -101.5q0 -38 20.5 -54t61.5 -16q27 0 44 3v-101q-26 -6 -61 -6q-88 0 -135 44.5t-47 129.5z" />
    <glyph glyph-name="bnAI" unicode="&#x990;" horiz-adv-x="833" 
d="M143 792v101q90 -33 196 -45l110 -13q349 -39 349 -308q0 -119 -58 -193t-168 -74q-15 0 -22 1v-261h-116v3q0 40 -37 40q-20 0 -85 -18.5t-107 -18.5q-75 0 -126.5 44t-51.5 129q0 34 6 61l113 1q-3 -18 -3 -48q0 -83 77 -83q28 0 85.5 16t80.5 16q29 0 48 -17v372
q0 38 -13.5 55t-43.5 17q-52 0 -94 -44.5t-42 -101.5q0 -38 20.5 -54t61.5 -16q27 0 44 3v-101q-26 -6 -61 -6q-88 0 -135 44.5t-47 129.5q0 100 71.5 173t181.5 73q84 0 128.5 -45t44.5 -127v-138q4 -1 11 -1q68 0 98.5 42.5t30.5 126.5q0 98 -65 145t-189 61l-108 12
q-108 12 -185 47z" />
    <glyph glyph-name="bnO" unicode="&#x993;" horiz-adv-x="632" 
d="M588 191q0 -83 -63.5 -130.5t-164.5 -47.5q-134 0 -220 89.5t-86 256.5q0 27 3 55h110q-2 -34 -2 -49q0 -128 52 -190.5t143 -62.5q54 0 83 23.5t29 65.5q0 84 -138 84h-31v99h25q54 0 84 29t30 80q0 37 -18.5 59.5t-52.5 22.5q-33 0 -50.5 -20t-17.5 -53q0 -32 7 -55
h-107q-10 36 -10 67q0 69 46.5 112.5t127.5 43.5q87 0 140.5 -49.5t53.5 -126.5q0 -61 -32.5 -102.5t-87.5 -52.5q67 -6 107 -44.5t40 -103.5z" />
    <glyph glyph-name="bnAU" unicode="&#x994;" horiz-adv-x="825" 
d="M777 534q0 -108 -57 -180.5t-149 -94.5q14 -31 14 -68q0 -83 -63.5 -130.5t-164.5 -47.5q-134 0 -220 89.5t-86 256.5q0 27 3 55h110q-2 -34 -2 -49q0 -128 52 -190.5t143 -62.5q54 0 83 23.5t29 65.5q0 84 -138 84h-31v99h25q54 0 84 29t30 80q0 37 -18.5 59.5
t-52.5 22.5q-33 0 -50.5 -20t-17.5 -53q0 -32 7 -55h-107q-10 36 -10 67q0 69 46.5 112.5t127.5 43.5q90 0 142 -51t52 -125q0 -61 -32.5 -102.5t-87.5 -52.5q2 0 5 -0.5t5 -0.5q20 -2 28 -2q92 0 143 52t51 146q0 181 -261 201l-108 12q-108 12 -185 47v101q90 -33 196 -45
l110 -13q168 -13 261.5 -88.5t93.5 -214.5z" />
    <glyph glyph-name="bnKA" unicode="&#x995;" horiz-adv-x="767" 
d="M730 271q0 -92 -50 -143t-133 -51q-13 0 -20 1v106h11q79 0 79 87q0 57 -42.5 93.5t-115.5 40.5v-405h-113v1l-1 -1l-306 220v116q168 143 307 169v60h-366v95h807v-95h-328v-59q111 -2 191 -66.5t80 -168.5zM346 125v275q-96 -28 -205 -122z" />
    <glyph glyph-name="bnKHA" unicode="&#x996;" horiz-adv-x="659" 
d="M584 0h-113v1l-1 -1l-441 236v97h87q80 1 123 42.5t43 115.5v7q-39 -74 -124 -74q-74 0 -115 42.5t-41 112.5q0 48 15 81h112q-10 -35 -10 -67q0 -35 17.5 -54.5t48.5 -19.5q71 0 71 97q0 29 -2 44h110q29 -99 29 -169q0 -94 -51 -154.5t-138 -78.5l267 -146v629h113v-81
h95v-95h-95v-565z" />
    <glyph glyph-name="bnGA" unicode="&#x997;" horiz-adv-x="603" 
d="M527 0h-116v413q0 156 -129 156q-108 0 -122 -100q80 -2 130.5 -44t51.5 -118q-1 -84 -59 -128.5t-156 -44.5q-41 0 -85 9v96q40 -4 85 -4q98 0 98 71t-98 71h-82v62q0 97 58.5 164t158.5 67q106 0 149 -68v139h116v-81h96v-95h-96v-565z" />
    <glyph glyph-name="bnGHA" unicode="&#x998;" horiz-adv-x="589" 
d="M325 303l-140 -91l219 -98v451h-143q-49 0 -76 -22.5t-27 -63.5q0 -39 27 -57.5t69 -18.5q37 0 71 8v-108zM615 565h-95v-565h-116l-345 150l1 1v105q64 42 134 84q-69 8 -112.5 39.5t-43.5 89.5q0 62 54 96h-112v95h635v-95z" />
    <glyph glyph-name="bnNGA" unicode="&#x999;" horiz-adv-x="682" 
d="M397 462q78 0 78 61q0 25 -19 40.5t-48 15.5q-25 0 -38.5 -16.5t-13.5 -43.5v-53q17 -4 41 -4zM640 250q0 -112 -75 -182.5t-198 -70.5q-141 0 -232.5 94t-91.5 251q0 28 3 48h114q-2 -24 -2 -47q0 -120 59.5 -183t149.5 -63q79 0 122.5 41.5t43.5 105.5v5
q-59 -39 -131 -39q-70 0 -113 40.5t-43 115.5v44q-106 52 -151 155h-115v95h184q22 -88 86 -143v1q0 66 40 109t117 43q75 0 122 -43.5t47 -107.5q0 -67 -49.5 -105t-128.5 -38q-14 0 -42 2v-10q0 -57 57 -57q78 0 194 78q33 -65 33 -139z" />
    <glyph glyph-name="bnCA" unicode="&#x99a;" horiz-adv-x="534" 
d="M493 264q0 -102 -72 -187.5t-176 -85.5q-75 0 -122 45t-47 123v406h-96v95h574v-95h-362v-66l109 -34q101 -31 146.5 -75t45.5 -126zM246 91q53 0 92 55.5t39 117.5q0 37 -21.5 56.5t-75.5 37.5l-88 30v-229q0 -68 54 -68z" />
    <glyph glyph-name="bnCHA" unicode="&#x99b;" horiz-adv-x="617" 
d="M538 -43h-165l-270 140v83q40 -2 61 -2q129 0 210.5 34t81.5 109q0 32 -22 49.5t-66 28.5q1 -7 1 -20q0 -57 -48.5 -103.5t-114.5 -46.5q-62 0 -97 32.5t-35 91.5v212h-94v95h657v-95h-462v-38l55 -11q2 0 4 -1l141 -29q96 -21 141.5 -60t45.5 -107q0 -95 -80 -150
t-207 -70q75 -32 112 -51l151 -78v-13zM207 311q26 0 46.5 24t20.5 52q0 20 -11 29.5t-39 14.5l-49 11v-96q0 -35 32 -35z" />
    <glyph glyph-name="bnJA" unicode="&#x99c;" horiz-adv-x="866" 
d="M599 252q0 -110 -67.5 -183t-188.5 -73q-136 0 -216.5 95t-80.5 254q0 30 1 46h115q-1 -14 -1 -40q0 -118 48 -186t134 -68q71 0 109.5 39.5t38.5 107.5q-38 -10 -74 -10q-79 0 -126.5 45t-47.5 121q0 98 69 165h-332v95h906v-95h-335q70 -101 267 -147
q-43 -118 -43 -254q0 -76 20 -164h-113q-19 81 -19 163q0 106 29 193q-85 26 -153.5 74.5t-99.5 115.5q-76 -61 -76 -138q0 -78 90 -78q63 0 127 29q19 -48 19 -107z" />
    <glyph glyph-name="bnJHA" unicode="&#x99d;" horiz-adv-x="802" 
d="M462 0h-116v1l-1 -1l-306 220v116q146 125 307 168v61h-366v95h482v-342h38q74 0 107 -48v478h116v-88h95v-95h-95v-481h-116v6q0 133 -118 133h-27v-223zM346 126v268q-112 -42 -204 -116z" />
    <glyph glyph-name="bnNYA" unicode="&#x99e;" horiz-adv-x="920" 
d="M130 423q0 100 71.5 173t181.5 73q138 0 166 -114q53 63 143 63q80 0 129 -46t49 -109q0 -49 -27 -81.5t-66 -46.5q39 -14 66 -46.5t27 -81.5q0 -63 -48.5 -109.5t-128.5 -46.5q-84 0 -137 55v-106h-116v3q0 40 -37 40q-20 0 -85 -18.5t-107 -18.5q-75 0 -126.5 44
t-51.5 129q0 34 6 61l113 1q-3 -18 -3 -48q0 -83 77 -83q28 0 85.5 16t80.5 16q29 0 48 -17v372q0 38 -13.5 55t-43.5 17q-52 0 -94 -44.5t-42 -101.5q0 -38 20.5 -54t61.5 -16q27 0 44 3v-101q-26 -6 -61 -6q-88 0 -135 44.5t-47 129.5zM679 148q37 0 59 18t22 49
q0 70 -87 70h-38v99h38q87 0 87 70q0 32 -23 49.5t-60 17.5q-54 0 -87.5 -36t-33.5 -97v-107q0 -61 34 -97t89 -36z" />
    <glyph glyph-name="bnTTA" unicode="&#x99f;" horiz-adv-x="557" 
d="M514 265q0 -106 -70.5 -187.5t-186.5 -81.5q-76 0 -128.5 45t-52.5 121v403h-96v95h408q2 24 2 36q0 31 -12 47t-44 16q-24 0 -84.5 -10t-94.5 -10q-66 0 -103 21v90q37 -17 94 -17q30 0 96 12.5t103 12.5q75 0 113.5 -39.5t38.5 -107.5q0 -21 -5 -51h85v-95h-385v-403
q0 -31 18 -48t47 -17q63 0 102 51.5t39 116.5q0 91 -98 91q-22 0 -41 -4v102q30 6 58 6q93 0 145 -53.5t52 -141.5z" />
    <glyph glyph-name="bnTTHA" unicode="&#x9a0;" horiz-adv-x="596" 
d="M539 265q0 -112 -64 -181.5t-176 -69.5q-116 0 -181 75t-65 202q0 47 5 86h89q107 0 107 105v83h-274v95h247q-24 46 -24 88q0 59 40.5 96t113.5 37q14 0 50 -4v-101q-16 2 -27 2q-66 0 -66 -51q0 -27 25 -67h277v-95h-206l27 -36q102 -135 102 -264zM299 114
q63 0 95 42.5t32 108.5q0 116 -78 233q1 -12 1 -38q0 -81 -46 -127.5t-126 -46.5h-11v-13q0 -72 35.5 -115.5t97.5 -43.5z" />
    <glyph glyph-name="bnDDA" unicode="&#x9a1;" horiz-adv-x="668" 
d="M629 289q0 -121 -73.5 -202t-204.5 -81q-140 0 -225 93t-85 256q0 39 5 84h115q-4 -36 -4 -80q0 -120 52 -186t142 -66q83 0 126 49.5t43 134.5v11q-58 -30 -116 -30q-73 0 -112.5 40.5t-39.5 116.5v136h-272v95h708v-95h-320v-135q0 -58 57 -58t177 65q27 -67 27 -148z
" />
    <glyph glyph-name="bnDDHA" unicode="&#x9a2;" horiz-adv-x="557" 
d="M514 265q0 -106 -70.5 -187.5t-186.5 -81.5q-76 0 -128.5 45t-52.5 121v403h-96v95h597v-95h-385v-403q0 -31 18 -48t47 -17q63 0 102 51.5t39 116.5q0 91 -98 91q-22 0 -41 -4v102q30 6 58 6q93 0 145 -53.5t52 -141.5z" />
    <glyph glyph-name="bnNNA" unicode="&#x9a3;" horiz-adv-x="590" 
d="M610 565h-95v-565h-116v416q0 66 -34.5 110t-102.5 44q-46 0 -73.5 -26.5t-27.5 -70.5q0 -46 26 -68.5t70 -22.5q28 0 53 4v-101q-34 -7 -66 -7q-91 0 -145 51.5t-54 143.5q0 86 54.5 141.5t140.5 55.5q109 0 159 -76v147h116v-81h95v-95z" />
    <glyph glyph-name="bnTA" unicode="&#x9a4;" horiz-adv-x="667" 
d="M622 311q0 -121 -76 -200t-206 -79q-137 0 -218.5 90t-81.5 254q0 48 5 83h111q-4 -35 -4 -82q0 -110 48.5 -177.5t139.5 -67.5q80 0 122.5 49.5t42.5 129.5q0 49 -16.5 79t-51.5 30q-29 0 -45 -21t-16 -56q0 -33 11 -71h-108q-15 35 -15 78q0 71 45 118t124 47
q85 0 137 -59.5t52 -144.5zM687 565h-707v95h707v-95z" />
    <glyph glyph-name="bnTHA" unicode="&#x9a5;" horiz-adv-x="663" 
d="M587 0h-113l-425 239v97h91q146 2 146 150q0 41 -18.5 65.5t-53.5 24.5q-31 0 -49 -20.5t-18 -53.5q0 -23 12 -68h-107q-15 38 -15 81q0 69 47 112.5t127 43.5q86 0 137 -54t51 -131q0 -96 -48.5 -152.5t-131.5 -72.5l255 -148v628h113v-81h96v-95h-96v-565z" />
    <glyph glyph-name="bnDA" unicode="&#x9a6;" horiz-adv-x="536" 
d="M170 139h-113v426h-77v95h576v-95h-386v-272q47 52 100.5 96t87.5 60h112v-449h-112v328q-47 -36 -100 -89t-88 -100z" />
    <glyph glyph-name="bnDHA" unicode="&#x9a7;" horiz-adv-x="586" 
d="M606 565h-95v-565h-117l-337 160l1 1v107q45 30 129 78q-62 10 -103 48.5t-41 102.5q0 78 53 125.5t144 47.5q26 0 58 -5v-95q-20 3 -44 3q-40 0 -65.5 -21.5t-25.5 -59.5q0 -39 25.5 -59.5t67.5 -20.5q39 0 80 16q12 6 32 17t26 14v201h212v-95zM394 110v236l-218 -127z
" />
    <glyph glyph-name="bnNA" unicode="&#x9a8;" horiz-adv-x="580" 
d="M511 0h-116v2q-6 49 -17.5 96t-31 93.5t-50 75t-67.5 28.5q-40 0 -60.5 -25t-20.5 -67q0 -27 5 -52h-113q-8 37 -8 62q0 79 48 132t132 53q125 0 183 -128v295h-415v95h620v-95h-89v-565z" />
    <glyph glyph-name="bnPA" unicode="&#x9aa;" horiz-adv-x="608" 
d="M63 261l89 51q-36 65 -105 88v50q0 86 56.5 153t159.5 67q106 0 153 -76v147h116v-81h96v-95h-96v-565h-116v347l-353 -208v122zM159 449q55 -26 83 -85l169 98q-10 49 -42.5 78t-86.5 29q-56 0 -89.5 -33.5t-33.5 -86.5z" />
    <glyph glyph-name="bnPHA" unicode="&#x9ab;" horiz-adv-x="812" 
d="M775 285q0 -92 -49.5 -143t-132.5 -51q-14 0 -20 1v106h10q80 0 80 87q0 57 -43 86t-116 29v-400h-116l-344 153l1 1v114l159 111l-157 100v86h-67v95h852v-95h-717l195 -134v-104l-147 -107l225 -105v386h116q115 0 193 -57.5t78 -158.5z" />
    <glyph glyph-name="bnBA" unicode="&#x9ac;" horiz-adv-x="534" 
d="M554 565h-95v-565h-113v1l-1 -1l-306 220v116q146 125 307 168v61h-366v95h574v-95zM346 126v268q-112 -42 -204 -116z" />
    <glyph glyph-name="bnBHA" unicode="&#x9ad;" horiz-adv-x="671" 
d="M624 245q0 -109 -72 -177.5t-194 -68.5q-139 0 -225.5 94t-86.5 243q0 29 3 59h111q-2 -40 -2 -56q0 -113 53 -177.5t147 -64.5q74 0 115 35t46 96q-47 -18 -103 -18q-75 0 -122.5 41.5t-47.5 112.5t48 113t127 42q39 0 82 -9v-94q-32 4 -60 4q-36 0 -58.5 -14t-22.5 -42
q0 -59 80 -59q82 0 165 51q17 -51 17 -111zM691 565h-711v95h711v-95z" />
    <glyph glyph-name="bnMA" unicode="&#x9ae;" horiz-adv-x="625" 
d="M659 565h-116v-565h-117v90q0 79 -39.5 124.5t-111.5 45.5q-47 0 -74.5 -21.5t-27.5 -60.5t25.5 -58.5t65.5 -19.5q24 0 45 3v-97q-30 -6 -66 -6q-83 0 -135.5 46t-52.5 133q0 66 36 111t97 62q-9 64 -44.5 94.5t-100.5 30.5v88h-63v95h679v-95zM426 281v284h-274
q63 -26 100 -80.5t46 -124.5q88 -12 128 -79z" />
    <glyph glyph-name="bnYA" unicode="&#x9af;" horiz-adv-x="580" 
d="M310 431v-104l-147 -107l225 -105v450h-273zM600 565h-96v-565h-116l-344 153l1 1v114l159 111l-157 100v86h-67v95h620v-95z" />
    <glyph glyph-name="bnRA" unicode="&#x9b0;" horiz-adv-x="534" 
d="M554 565h-95v-565h-113v1l-1 -1l-306 220v116q146 125 307 168v61h-366v95h574v-95zM160 23q0 -28 -20 -47.5t-48 -19.5t-47.5 19.5t-19.5 47.5t19.5 48t47.5 20t48 -19.5t20 -48.5zM346 126v268q-112 -42 -204 -116z" />
    <glyph glyph-name="bnLA" unicode="&#x9b2;" horiz-adv-x="746" 
d="M670 0h-116v295q0 84 -64 84q-67 0 -67 -101v-21h-119v27q0 94 -72 94q-35 0 -54 -24t-19 -64q0 -47 25 -70t65 -23q21 0 51 5v-98q-32 -6 -64 -6q-88 0 -140.5 52t-52.5 141q0 81 47.5 133.5t131.5 52.5q58 0 95 -25.5t46 -66.5q10 41 39 67t75 26q50 0 77 -34v121h-574
v95h786v-95h-96v-565z" />
    <glyph glyph-name="bnSHA" unicode="&#x9b6;" horiz-adv-x="680" 
d="M604 0h-116v441q0 59 -26 94t-81 35q-43 0 -68 -27t-25 -73q0 -49 25.5 -72.5t67.5 -23.5q25 0 36 1v-101q-23 -4 -49 -4q-97 0 -139 62q-46 -62 -135 -62q-28 0 -62 6v102q24 -4 49 -4q93 0 93 96q0 45 -26.5 70t-74.5 25h-93v95h107q91 0 141 -63q47 73 139 73
q81 0 121 -50v121h116v-81h96v-95h-96v-565z" />
    <glyph glyph-name="bnSSA" unicode="&#x9b7;" horiz-adv-x="580" 
d="M310 438l78 -50v177h-277zM600 565h-96v-565h-116l-344 153l1 1v114l157 115l-40 23l1 2l-116 71v86h-67v95h620v-95zM388 115v158l-89 53l-137 -105z" />
    <glyph glyph-name="bnSA" unicode="&#x9b8;" horiz-adv-x="602" 
d="M526 0h-116v186q0 95 -64 95q-22 0 -40.5 -17t-34.5 -41.5t-35.5 -49.5t-52 -42t-74.5 -17q-36 0 -74 13v97q30 -9 58 -9q20 0 38 11t27.5 23t26.5 37t26 36q-12 75 -56.5 115t-114.5 40v88h-60v95h642v-95h-96v-565zM322 381q60 0 88 -40v224h-260q61 -24 101 -73
t54 -112q6 1 17 1z" />
    <glyph glyph-name="bnHA" unicode="&#x9b9;" horiz-adv-x="458" 
d="M408 -9h-155l-190 133v93h95q69 1 105 32.5t36 87.5q0 39 -20 61t-55 22q-32 0 -51.5 -20.5t-19.5 -52.5q0 -29 7 -53h-107q-10 30 -10 65q0 68 48.5 112t129.5 44q86 0 138.5 -51.5t52.5 -126.5q0 -84 -54.5 -135t-146.5 -63l197 -136v-12zM478 565h-498v95h498v-95z
" />
    <glyph glyph-name="bnNukta" unicode="&#x9bc;" horiz-adv-x="0" 
d="M-213 -131q0 -28 -20 -47.5t-48 -19.5t-47.5 19.5t-19.5 47.5t19.5 48t47.5 20q29 0 48.5 -19.5t19.5 -48.5z" />
    <glyph glyph-name="bnAvagraha" unicode="&#x9bd;" horiz-adv-x="458" 
d="M408 -9l-155 -2l-190 135v93h95q69 1 105 32.5t36 87.5q0 39 -20 61t-55 22q-32 0 -51.5 -20.5t-19.5 -52.5q0 -29 7 -53h-107q-10 30 -10 65q0 49 26 87t73 55q-21 33 -46 48.5t-66 15.5h-50v95h66q73 0 121 -35.5t85 -111.5q73 -10 116.5 -59t43.5 -117
q0 -84 -54.5 -135t-146.5 -63l197 -136v-12z" />
    <glyph glyph-name="bnmAA" unicode="&#x9be;" horiz-adv-x="267" 
d="M287 565h-95v-565h-116v496q0 39 -12 54t-46 15h-38v95h51q39 0 58 -39q-10 56 -10 98v22h113v-81h95v-95z" />
    <glyph glyph-name="bnmI" unicode="&#x9bf;" horiz-adv-x="267" 
d="M287 565h-95v-565h-116v565h-96v95h96v39q0 103 63 155.5t182 52.5q133 0 264 -49v-90q-132 44 -257 44q-72 0 -103.5 -28t-31.5 -85v-39h94v-95z" />
    <glyph glyph-name="bnmII" unicode="&#x9c0;" horiz-adv-x="267" 
d="M287 565h-95v-565h-116v565h-95v95h95v26q0 90 -70.5 143t-189.5 53q-108 0 -108 -48q0 -27 31 -37t90 -10q41 0 95 6v-76q-41 -11 -118 -11q-208 0 -208 128q0 63 60.5 100t157.5 37q162 0 269 -83.5t107 -202.5v-25h95v-95z" />
    <glyph glyph-name="bnmU" unicode="&#x9c1;" horiz-adv-x="0" 
d="M-153 -173q59 0 66 87q-34 13 -62 13q-27 0 -43 -13t-16 -37t15 -37t40 -13zM112 -238q-62 68 -123 111q-13 -57 -48.5 -91.5t-95.5 -34.5q-65 0 -107 35.5t-42 93.5q0 62 42 99t112 37q75 0 143.5 -40.5t118.5 -96.5v-113z" />
    <glyph glyph-name="bnmUU" unicode="&#x9c2;" horiz-adv-x="0" 
d="M-316 -125q0 64 42 101.5t111 37.5q44 0 87 -12v-79q-44 12 -74 12q-77 0 -77 -60q0 -26 19 -41t51 -15q41 0 69 24t53 65l120 -75v-90l-106 64q-53 -63 -139 -63q-67 0 -111.5 36t-44.5 95z" />
    <glyph glyph-name="bnmvR" unicode="&#x9c3;" horiz-adv-x="0" 
d="M2 -170v-96l-285 105v73l100 109l107 -21l-92 -106z" />
    <glyph glyph-name="bnmvRR" unicode="&#x9c4;" horiz-adv-x="0" 
d="M-30 -341v-94l-241 90v73l71 80l-83 31v73l100 109l107 -21l-92 -106l170 -64v-96l-111 41l-54 -65z" />
    <glyph glyph-name="bnmE" unicode="&#x9c7;" horiz-adv-x="301" 
d="M288 -7q-9 -2 -34 -2q-69 0 -115.5 40.5t-65.5 101t-20 139.5q0 216 72 293h-145v95h341v-95h-26q-39 0 -66 -24t-40.5 -68t-18.5 -91.5t-5 -109.5q0 -179 102 -179q15 0 21 1v-101z" />
    <glyph glyph-name="bnmAI" unicode="&#x9c8;" horiz-adv-x="301" 
d="M288 -7q-9 -2 -34 -2q-69 0 -115.5 40.5t-65.5 101t-20 139.5q0 216 72 293h-145v95h213q2 28 2 43q0 56 -56 56q-16 0 -57 -10t-64 -10q-38 0 -70 14v92q27 -12 60 -12q21 0 66 12.5t76 12.5q75 0 113.5 -39.5t38.5 -107.5q0 -21 -5 -51h24v-95h-26q-39 0 -66 -24
t-40.5 -68t-18.5 -91.5t-5 -109.5q0 -179 102 -179q15 0 21 1v-101z" />
    <glyph glyph-name="bnmO" unicode="&#x9cb;" horiz-adv-x="1203" 
d="M567 90q0 -20 -12.5 -33t-31.5 -13t-32 13t-13 33q0 18 13 31t32 13t31.5 -13t12.5 -31zM465 165q0 -19 -12.5 -31.5t-31.5 -12.5t-31.5 12.5t-12.5 31.5t12.5 31.5t31.5 12.5t31.5 -12.5t12.5 -31.5zM413 281q0 -19 -12.5 -31t-31.5 -12t-31.5 12t-12.5 31t12.5 32
t31.5 13t31.5 -12.5t12.5 -32.5zM694 74q0 -19 -12.5 -31.5t-32.5 -12.5q-19 0 -31.5 12t-12.5 32t12.5 32t31.5 12q20 0 32.5 -12.5t12.5 -31.5zM428 407q0 -19 -13 -31.5t-31 -12.5q-20 0 -33 12.5t-13 31.5t13 31.5t33 12.5q18 0 31 -12.5t13 -31.5zM815 127
q0 -19 -13 -31.5t-32 -12.5t-31.5 12.5t-12.5 31.5t12.5 31.5t31.5 12.5t32 -12.5t13 -31.5zM508 517q0 -20 -12.5 -32.5t-31.5 -12.5t-31.5 12.5t-12.5 32.5q0 19 12.5 31.5t31.5 12.5t31.5 -12.5t12.5 -31.5zM887 225q0 -19 -12.5 -31.5t-30.5 -12.5q-19 0 -32 12.5
t-13 31.5t12.5 32t32.5 13q18 0 30.5 -13t12.5 -32zM626 560q0 -20 -12 -32t-32 -12t-32 12t-12 32t12 32t32 12t32 -12t12 -32zM897 359q0 -19 -12.5 -31.5t-31.5 -12.5t-31.5 12.5t-12.5 31.5t12.5 31.5t31.5 12.5t31.5 -12.5t12.5 -31.5zM752 545q0 -18 -12.5 -31
t-30.5 -13q-19 0 -32 13t-13 31q0 19 13 32t32 13t31 -12.5t12 -32.5zM847 477q0 -19 -12.5 -31.5t-31.5 -12.5t-31.5 12.5t-12.5 31.5t12.5 32t31.5 13t31.5 -12.5t12.5 -32.5zM288 -7q-9 -2 -34 -2q-69 0 -115.5 40.5t-65.5 101t-20 139.5q0 216 72 293h-145v95h341v-95
h-26q-39 0 -66 -24t-40.5 -68t-18.5 -91.5t-5 -109.5q0 -179 102 -179q15 0 21 1v-101zM1223 565h-95v-565h-116v496q0 39 -12 54t-46 15h-38v95h51q39 0 58 -39q-10 56 -10 98v22h113v-81h95v-95z" />
    <glyph glyph-name="bnmAU" unicode="&#x9cc;" horiz-adv-x="1203" 
d="M567 90q0 -20 -12.5 -33t-31.5 -13t-32 13t-13 33q0 18 13 31t32 13t31.5 -13t12.5 -31zM465 165q0 -19 -12.5 -31.5t-31.5 -12.5t-31.5 12.5t-12.5 31.5t12.5 31.5t31.5 12.5t31.5 -12.5t12.5 -31.5zM413 281q0 -19 -12.5 -31t-31.5 -12t-31.5 12t-12.5 31t12.5 32
t31.5 13t31.5 -12.5t12.5 -32.5zM694 74q0 -19 -12.5 -31.5t-32.5 -12.5q-19 0 -31.5 12t-12.5 32t12.5 32t31.5 12q20 0 32.5 -12.5t12.5 -31.5zM428 407q0 -19 -13 -31.5t-31 -12.5q-20 0 -33 12.5t-13 31.5t13 31.5t33 12.5q18 0 31 -12.5t13 -31.5zM815 127
q0 -19 -13 -31.5t-32 -12.5t-31.5 12.5t-12.5 31.5t12.5 31.5t31.5 12.5t32 -12.5t13 -31.5zM508 517q0 -20 -12.5 -32.5t-31.5 -12.5t-31.5 12.5t-12.5 32.5q0 19 12.5 31.5t31.5 12.5t31.5 -12.5t12.5 -31.5zM887 225q0 -19 -12.5 -31.5t-30.5 -12.5q-19 0 -32 12.5
t-13 31.5t12.5 32t32.5 13q18 0 30.5 -13t12.5 -32zM626 560q0 -20 -12 -32t-32 -12t-32 12t-12 32t12 32t32 12t32 -12t12 -32zM897 359q0 -19 -12.5 -31.5t-31.5 -12.5t-31.5 12.5t-12.5 31.5t12.5 31.5t31.5 12.5t31.5 -12.5t12.5 -31.5zM752 545q0 -18 -12.5 -31
t-30.5 -13q-19 0 -32 13t-13 31q0 19 13 32t32 13t31 -12.5t12 -32.5zM847 477q0 -19 -12.5 -31.5t-31.5 -12.5t-31.5 12.5t-12.5 31.5t12.5 32t31.5 13t31.5 -12.5t12.5 -32.5zM288 -7q-9 -2 -34 -2q-69 0 -115.5 40.5t-65.5 101t-20 139.5q0 216 72 293h-145v95h341v-95
h-26q-39 0 -66 -24t-40.5 -68t-18.5 -91.5t-5 -109.5q0 -179 102 -179q15 0 21 1v-101zM916 660h109q2 24 2 37q0 32 -12 47t-44 15q-19 0 -65 -9.5t-73 -9.5q-48 0 -85 21v90q33 -16 75 -16q24 0 74 11.5t85 11.5q75 0 113 -39t38 -107q0 -22 -5 -52h95v-95h-95v-565h-116
v565h-96v95z" />
    <glyph glyph-name="bnVirama" unicode="&#x9cd;" horiz-adv-x="0" 
d="M-190 -51h114l140 -142v-4h-113l-141 142v4z" />
    <glyph glyph-name="bnTAkhanda" unicode="&#x9ce;" horiz-adv-x="576" 
d="M528 0h-123v53q0 42 -19 74t-49.5 53t-67.5 39.5t-73.5 40t-67 48.5t-49.5 70t-19 100q0 83 57.5 134t149.5 51q96 0 150 -51t54 -130q0 -43 -12 -73h-119q15 39 15 73q0 41 -21.5 64t-62.5 23q-45 0 -66.5 -25.5t-21.5 -65.5q0 -41 19 -72.5t49.5 -52t67 -40t73.5 -41.5
t67.5 -49t49.5 -71t19 -100v-52z" />
    <glyph glyph-name="bnAUlengthmark" unicode="&#x9d7;" horiz-adv-x="267" 
d="M-20 660h109q2 24 2 37q0 32 -12 47t-44 15q-19 0 -65 -9.5t-73 -9.5q-48 0 -85 21v90q33 -16 75 -16q24 0 74 11.5t85 11.5q75 0 113 -39t38 -107q0 -22 -5 -52h95v-95h-95v-565h-116v565h-96v95z" />
    <glyph glyph-name="bnDDxA" unicode="&#x9dc;" horiz-adv-x="668" 
d="M629 289q0 -121 -73.5 -202t-204.5 -81q-140 0 -225 93t-85 256q0 39 5 84h115q-4 -36 -4 -80q0 -120 52 -186t142 -66q83 0 126 49.5t43 134.5v11q-58 -30 -116 -30q-73 0 -112.5 40.5t-39.5 116.5v136h-272v95h708v-95h-320v-135q0 -58 57 -58t177 65q27 -67 27 -148z
M404 -118q0 -28 -20 -47.5t-48 -19.5t-47.5 19.5t-19.5 47.5t19.5 48t47.5 20t48 -20t20 -48z" />
    <glyph glyph-name="bnDDHxA" unicode="&#x9dd;" horiz-adv-x="557" 
d="M514 265q0 -106 -70.5 -187.5t-186.5 -81.5q-76 0 -128.5 45t-52.5 121v403h-96v95h597v-95h-385v-403q0 -31 18 -48t47 -17q63 0 102 51.5t39 116.5q0 91 -98 91q-22 0 -41 -4v102q30 6 58 6q93 0 145 -53.5t52 -141.5zM338 -128q0 -28 -20 -47.5t-48 -19.5t-47.5 19.5
t-19.5 47.5t19.5 48t47.5 20t48 -20t20 -48z" />
    <glyph glyph-name="bnYxA" unicode="&#x9df;" horiz-adv-x="580" 
d="M310 431v-104l-147 -107l225 -105v450h-273zM600 565h-96v-565h-116l-344 153l1 1v114l159 111l-157 100v86h-67v95h620v-95zM219 -51q0 -28 -20 -47.5t-48 -19.5t-47.5 19.5t-19.5 47.5t19.5 48t47.5 20q29 0 48.5 -19.5t19.5 -48.5z" />
    <glyph glyph-name="bnvRR" unicode="&#x9e0;" horiz-adv-x="852" 
d="M406 -81v-103l-305 117v81l87 87l-136 66l1 1v114l257 139l-37 74q-39 -70 -120 -70q-70 0 -109.5 42t-39.5 112q0 43 15 81h98q-10 -35 -10 -67q0 -33 16 -53.5t43 -20.5q35 0 48 24.5t13 72.5q0 29 -2 44h87l80 -195l8 5v190h112v-342h38q74 0 107 -48v471h116v-81h95
v-95h-95v-481h-116v6q0 133 -118 133h-27v-223h-116l-120 58l-61 -62zM396 116v234l-220 -122z" />
    <glyph glyph-name="bnvLL" unicode="&#x9e1;" horiz-adv-x="700" 
d="M694 -135q0 -75 -57 -121t-144 -46q-9 0 -29 2l1 63q45 23 45 80q0 47 -42 47q-39 0 -39 -45q0 -26 9 -53h-67q-11 33 -11 61q0 43 28 72.5t77 29.5q50 0 79.5 -31.5t29.5 -78.5q0 -36 -22 -72q61 22 61 92q0 33 -19.5 59t-45 39t-57.5 32t-49 37q-76 -41 -179 -41
q-25 0 -52 3l1 97q35 18 58 58t23 90q0 38 -19.5 61t-55.5 23q-34 0 -52 -21.5t-18 -59.5q0 -45 16 -95h-106q-20 58 -20 110q0 72 49 117.5t126 45.5q84 0 134 -49t50 -130q0 -74 -50 -142q61 18 95.5 64.5t34.5 115.5q0 59 -26.5 102t-65.5 65.5t-85.5 46.5t-85.5 45.5
t-65.5 63t-26.5 98.5q0 25 5 41h107q-1 -4 -1 -17q0 -36 19.5 -63t50.5 -45.5t69 -36.5t76 -42t69 -55.5t50.5 -83.5t19.5 -120q0 -119 -77 -196q11 -14 36 -29.5t48.5 -30.5t47 -35t38 -51.5t14.5 -70.5z" />
    <glyph glyph-name="bnmvL" unicode="&#x9e2;" horiz-adv-x="0" 
d="M162 -173q0 -65 -47.5 -107.5t-129.5 -42.5q-11 0 -27 2v62q19 7 30 26.5t11 43.5q0 17 -9 27t-24 10q-30 0 -30 -36q0 -20 8 -46h-62q-11 28 -11 53q0 37 25 62t66 25t66.5 -27t25.5 -67q0 -32 -17 -61q52 19 52 77q0 31 -17 52.5t-41.5 33.5t-49 24.5t-41.5 33.5
t-17 52q0 12 3 20h71q-1 -2 -1 -8q0 -18 12.5 -32t30.5 -22.5t40 -21.5t40 -28t30.5 -42t12.5 -63z" />
    <glyph glyph-name="bnmvLL" unicode="&#x9e3;" horiz-adv-x="0" 
d="M162 -173q0 -48 -28 -87q1 -1 15 -9l17.5 -10t16 -10.5t17 -13.5t13 -15t12 -19.5t6.5 -22.5t3 -27q0 -50 -35.5 -79t-95.5 -29q-15 0 -21 1v39q33 12 33 56q0 12 -7.5 20t-19.5 8q-24 0 -24 -28q0 -13 7 -36h-45q-8 24 -8 41q0 29 19 46.5t50 17.5q32 0 51.5 -19
t19.5 -50q0 -25 -15 -48q43 15 43 61q0 13 -4.5 24t-9.5 18t-16.5 15.5t-17.5 12t-22 12t-20 10.5q-45 -29 -111 -29q-11 0 -27 2v62q19 7 30 26.5t11 43.5q0 17 -9 27t-24 10q-30 0 -30 -36q0 -20 8 -46h-62q-11 28 -11 53q0 37 25 62t66 25t66.5 -27t25.5 -67
q0 -32 -17 -61q52 19 52 77q0 31 -17 52.5t-41.5 33.5t-49 24.5t-41.5 33.5t-17 52q0 12 3 20h71q-1 -2 -1 -8q0 -18 12.5 -32t30.5 -22.5t40 -21.5t40 -28t30.5 -42t12.5 -63z" />
    <glyph glyph-name="bnZero" unicode="&#x9e6;" horiz-adv-x="593" 
d="M296 92q-109 0 -177.5 65.5t-68.5 174.5t68.5 174.5t177.5 65.5t178 -65.5t69 -174.5t-69 -174.5t-178 -65.5zM296 472q-62 0 -98 -38.5t-36 -101.5t36 -101t98 -38t98 38t36 101t-36 101.5t-98 38.5z" />
    <glyph glyph-name="bnOne" unicode="&#x9e7;" horiz-adv-x="517" 
d="M415 161q23 -69 -11.5 -100t-113.5 -12q-7 4 -22 12q-38 20 -58 32t-52 36t-48.5 45.5t-29.5 54t-13 69.5q0 62 44 99q-20 38 -20 78q0 62 54 89l93 -18q-34 -19 -34 -59q0 -29 19.5 -59.5t49 -59t59 -59t53.5 -69.5t30 -79zM307 132q35 -23 38.5 -21.5t-27.5 34.5
q-6 23 -23.5 48t-28.5 37.5t-45 43.5t-40 37q-1 -3 -1 -11q0 -36 24 -64t57.5 -55.5t45.5 -48.5z" />
    <glyph glyph-name="bnTwo" unicode="&#x9e8;" horiz-adv-x="479" 
d="M436 -74l-393 263v131q85 -69 181 -69q45 0 70.5 23t25.5 63q0 33 -23.5 59t-57 45.5t-66.5 40.5t-56.5 55t-23.5 78q0 22 9 45h107q-8 -18 -8 -37q0 -26 24 -49.5t58 -44.5t68 -45.5t58 -64t24 -89.5q0 -71 -50 -117t-132 -47q57 -28 106 -62l79 -54v-124z" />
    <glyph glyph-name="bnThree" unicode="&#x9e9;" horiz-adv-x="690" 
d="M642 355q0 -142 -77.5 -232t-210.5 -90q-147 0 -226.5 94.5t-79.5 268.5q0 82 23 166h113q-22 -84 -22 -166q0 -118 46 -189t146 -71q82 0 125.5 59.5t43.5 159.5q0 59 -17 96t-52 37q-31 0 -47 -25t-16 -65q0 -45 14 -96h-111q-18 44 -18 99q0 81 44 134.5t129 53.5
q94 0 143.5 -65.5t49.5 -168.5z" />
    <glyph glyph-name="bnFour" unicode="&#x9ea;" horiz-adv-x="528" 
d="M474 506q0 -94 -106 -159q119 -71 119 -174q0 -84 -61 -133.5t-159 -49.5q-97 0 -161 47t-64 132q0 105 109 169q-93 57 -93 159q0 81 60 127t151 46t148 -46.5t57 -117.5zM172 492q0 -64 72 -106q58 28 87.5 52t29.5 61q0 35 -25.5 54t-68.5 19q-47 0 -71 -21.5
t-24 -58.5zM265 88q47 0 77 24t30 67q0 65 -99 117q-58 -30 -87.5 -57t-29.5 -66q0 -43 31.5 -64t77.5 -21z" />
    <glyph glyph-name="bnFive" unicode="&#x9eb;" horiz-adv-x="585" 
d="M151 317q0 -105 65 -157.5t170 -63.5q-58 46 -58 140q0 51 23.5 94t69.5 64q-50 14 -80 51t-30 87v8q-160 -61 -160 -223zM548 443v-93q-57 -1 -84.5 -40t-27.5 -95q0 -61 30.5 -96t87.5 -35v-85q-50 -7 -112 -7q-193 0 -298.5 90t-105.5 236t98.5 239.5t253.5 113.5
l36 -68q-10 -21 -10 -47q0 -52 37 -81t95 -32z" />
    <glyph glyph-name="bnSix" unicode="&#x9ec;" horiz-adv-x="668" 
d="M219 670q73 0 114.5 -47t41.5 -127v-70q0 -54 52 -54q55 0 175 65q27 -67 27 -148q0 -121 -73.5 -202t-204.5 -81q-140 0 -225 93t-85 256q0 39 5 84h115q-4 -36 -4 -80q0 -120 52 -186t142 -66q83 0 126 49.5t43 134.5v9q-56 -28 -112 -28q-72 0 -110 40.5t-38 116.5v49
q0 84 -70 84q-26 0 -36 -1v103q36 6 65 6z" />
    <glyph glyph-name="bnSeven" unicode="&#x9ed;" horiz-adv-x="580" 
d="M451 502v-320q0 -85 70 -85q16 0 36 2v-103q-36 -6 -65 -6q-73 0 -115 47t-42 127v58q-49 -13 -96 -13q-98 0 -151.5 55t-53.5 146q0 102 69.5 181t178.5 79q75 0 122 -45t47 -123zM249 316q40 0 86 12v174q0 67 -54 67q-55 0 -93 -47t-38 -112q0 -43 24 -68.5t75 -25.5z
" />
    <glyph glyph-name="bnEight" unicode="&#x9ee;" horiz-adv-x="722" 
d="M129 158v320q0 84 -70 84q-26 0 -35 -1v103q36 6 64 6q73 0 115.5 -47t42.5 -127v-59q47 14 95 14q71 0 118 -29q31 29 81 29q35 0 47 16t12 45q0 17 -1 27h106q5 -22 5 -52q0 -70 -38.5 -105t-105.5 -35q-21 0 -35 -6q17 -42 17 -92q0 -101 -69.5 -180t-178.5 -79
q-75 0 -122.5 45t-47.5 123zM300 90q55 0 93 47.5t38 111.5q0 94 -100 94q-35 0 -85 -11v-174q0 -68 54 -68z" />
    <glyph glyph-name="bnNine" unicode="&#x9ef;" horiz-adv-x="644" 
d="M217 346q88 0 139.5 -50t51.5 -125q0 -41 -18 -77q49 8 75 43t26 88q0 45 -22 80.5t-58 58.5t-79 43.5t-85.5 41.5t-78.5 45t-58 60.5t-22 83.5q0 14 1 22h114q-2 -8 -2 -14q0 -28 22 -52t57.5 -43t78.5 -39.5t86 -46.5t78.5 -57t57.5 -78.5t22 -104.5q0 -103 -63 -164
t-181 -61h-93v81q38 27 38 83q0 37 -23 60.5t-64 23.5q-38 0 -60.5 -23t-22.5 -60q0 -32 16.5 -52.5t44.5 -24.5v-89q-77 0 -124 43.5t-47 122.5t52 130t141 51z" />
    <glyph glyph-name="asRA" unicode="&#x9f0;" horiz-adv-x="534" 
d="M32 220v116q144 123 318 168v61h-370v95h574v-95h-95v-565h-109zM350 272v131q-61 -22 -111 -49zM350 118v78l-172 122q-24 -16 -52 -39z" />
    <glyph glyph-name="asWA" unicode="&#x9f1;" horiz-adv-x="534" 
d="M233 11v-95l-153 104v101zM554 565h-95v-565h-113v1l-1 -1l-306 220v116q146 125 307 168v61h-366v95h574v-95zM346 126v268q-112 -42 -204 -116z" />
    <glyph glyph-name="bnBangladeshitaka" unicode="&#x9f3;" horiz-adv-x="600" 
d="M78 670q73 0 114.5 -45.5t41.5 -125.5v-44h41v-101h-41l1 -185q0 -36 22.5 -54t56.5 -18q64 0 103.5 48.5t39.5 116.5q0 94 -90 94q-22 0 -42 -4v102q30 6 58 6q93 0 142 -54t49 -144q0 -109 -71 -187.5t-189 -78.5q-82 0 -138.5 46t-56.5 127v185h-83v101h83v26
q0 81 -70 81q-26 0 -36 -1v103q38 6 65 6z" />
    <glyph glyph-name="bnNumeratorone" unicode="&#x9f4;" horiz-adv-x="520" 
d="M465 559q0 -217 -111.5 -344t-333.5 -127v102q168 0 249 99t81 270h115z" />
    <glyph glyph-name="bnNumeratortwo" unicode="&#x9f5;" horiz-adv-x="690" 
d="M537 558h116q-6 -79 -27 -153.5t-59 -142.5t-89 -118.5t-121.5 -80.5t-151.5 -30v100q27 13 45 44.5t18 75.5q0 70 -62 70q-29 0 -44 -20t-15 -53q0 -17 6 -43h-107q-9 29 -9 59q0 65 42.5 109.5t119.5 44.5t124.5 -43t47.5 -115q0 -44 -29 -92q85 50 134.5 156.5
t60.5 231.5z" />
    <glyph glyph-name="bnNumeratorthree" unicode="&#x9f6;" horiz-adv-x="674" 
d="M160 318h-110q-5 18 -5 35q0 58 39.5 98t117.5 40q71 0 113 -39.5t42 -100.5q0 -37 -18.5 -65.5t-45.5 -46t-54 -31.5t-45.5 -29.5t-18.5 -33.5q0 -27 22 -40.5t54 -13.5q74 0 130.5 51.5t88 137t47 181.5t15.5 199h114q0 -59 -4.5 -117t-16 -126t-30 -127t-49.5 -115.5
t-70.5 -96.5t-97 -64t-125.5 -24q-85 0 -139.5 43.5t-54.5 111.5q0 36 19.5 63.5t47.5 44.5t56 31t47.5 31t19.5 37t-11 33.5t-35 13.5q-23 0 -35 -14.5t-12 -38.5q0 -15 4 -28z" />
    <glyph glyph-name="bnNumeratorfour" unicode="&#x9f7;" horiz-adv-x="273" 
d="M193 0h-113v660h113v-660z" />
    <glyph glyph-name="bnNumeratoroneless" unicode="&#x9f8;" horiz-adv-x="536" 
d="M470 0h-112v363q-47 -36 -100 -89t-88 -100h-113v328q0 89 -30 158h113q30 -72 30 -158v-174q47 52 100.5 96t87.5 60h112v-484z" />
    <glyph glyph-name="bnDenominatorsixteen" unicode="&#x9f9;" horiz-adv-x="532" 
d="M41 331q0 93 62.5 151.5t162.5 58.5t162.5 -58.5t62.5 -151.5q0 -94 -62.5 -152.5t-162.5 -58.5t-162.5 58.5t-62.5 152.5zM376 331q0 49 -30.5 80t-79.5 31t-79.5 -31t-30.5 -80q0 -48 30.5 -79.5t79.5 -31.5t79.5 31.5t30.5 79.5z" />
    <glyph glyph-name="bnIsshar" unicode="&#x9fa;" horiz-adv-x="562" 
d="M521 446q0 -142 -77 -240.5t-209 -98.5q-93 0 -152.5 51t-59.5 129h113q0 -34 25.5 -58.5t75.5 -24.5q47 0 81.5 21t54 57t28.5 77t9 87h111zM304 314q0 -26 -18 -43t-45 -17q-26 0 -43 17t-17 43t17.5 44t42.5 18q27 0 45 -17.5t18 -44.5z" />
    <glyph glyph-name="bnGanda" unicode="&#x9fb;" horiz-adv-x="499" 
d="M493 -3v-114l-265 170q-46 29 -70 46t-52.5 45t-41 59.5t-12.5 71.5q0 76 44.5 115.5t120.5 39.5q29 0 58 -6v-102q-24 4 -46 4q-29 0 -46 -14t-17 -40q0 -19 6.5 -35t22.5 -31.5t26 -23.5t34 -24z" />
    <glyph glyph-name="uni200C" unicode="&#x200c;" horiz-adv-x="0" 
d="M24 -230h-47v1041h47v-1041z" />
    <glyph glyph-name="uni200D" unicode="&#x200d;" horiz-adv-x="0" 
d="M24 -230h-47v865l-69 -73l-33 33l93 93l-95 95l33 33l95 -95l96 95l32 -32l-96 -96l96 -95l-33 -33l-72 75v-865z" />
    <glyph glyph-name="endash" unicode="&#x2013;" horiz-adv-x="549" 
d="M500 223h-450v92h450v-92z" />
    <glyph glyph-name="emdash" unicode="&#x2014;" horiz-adv-x="831" 
d="M781 226h-731v92h731v-92z" />
    <glyph glyph-name="quoteleft" unicode="&#x2018;" horiz-adv-x="234" 
d="M158 447h-137l130 247h101z" />
    <glyph glyph-name="quoteright" unicode="&#x2019;" horiz-adv-x="234" 
d="M124 447h-102l94 247h137z" />
    <glyph glyph-name="quotesinglbase" unicode="&#x201a;" horiz-adv-x="234" 
d="M98 -126h-102l95 247h137z" />
    <glyph glyph-name="quotedblleft" unicode="&#x201c;" horiz-adv-x="403" 
d="M156 447h-135l134 247h98zM331 447h-127l120 247h98z" />
    <glyph glyph-name="quotedblright" unicode="&#x201d;" horiz-adv-x="403" 
d="M120 447h-98l91 247h126zM289 447h-98l97 247h135z" />
    <glyph glyph-name="quotedblbase" unicode="&#x201e;" horiz-adv-x="403" 
d="M98 -126h-98l91 247h126zM267 -126h-98l96 247h135z" />
    <glyph glyph-name="dagger" unicode="&#x2020;" horiz-adv-x="546" 
d="M511 416h-186v-416h-108v416h-182v100h182v158h108v-158h186v-100z" />
    <glyph glyph-name="daggerdbl" unicode="&#x2021;" horiz-adv-x="567" 
d="M522 162h-186v-162h-108v162h-183v100h183v154h-183v100h183v158h108v-158h186v-100h-186v-154h186v-100z" />
    <glyph glyph-name="bullet" unicode="&#x2022;" horiz-adv-x="434" 
d="M350 356q0 -56 -38 -94.5t-94 -38.5q-57 0 -95 38t-38 95t37.5 95t94.5 38q56 0 94.5 -38.5t38.5 -94.5z" />
    <glyph glyph-name="ellipsis" unicode="&#x2026;" horiz-adv-x="855" 
d="M206 70q0 -32 -22.5 -55t-54.5 -23t-55 23t-23 55t23 54.5t55 22.5t54.5 -22.5t22.5 -54.5zM505 70q0 -32 -22.5 -55t-54.5 -23t-55 23t-23 55t23 54.5t55 22.5t54.5 -22.5t22.5 -54.5zM804 70q0 -32 -22.5 -55t-54.5 -23t-55 23t-23 55t23 54.5t55 22.5t54.5 -22.5
t22.5 -54.5z" />
    <glyph glyph-name="perthousand" unicode="&#x2030;" horiz-adv-x="1336" 
d="M327 -1h-110l371 692h111zM401 525q0 -73 -52.5 -125.5t-125.5 -52.5t-125.5 52.5t-52.5 125.5q0 74 52 126t126 52t126 -52t52 -126zM144 525q0 -32 23 -55.5t56 -23.5t56 23.5t23 55.5q0 33 -23 56.5t-56 23.5t-56 -23.5t-23 -56.5zM877 170q0 -74 -52.5 -126
t-125.5 -52t-125.5 52t-52.5 126t52.5 126t125.5 52t125.5 -52t52.5 -126zM620 170q0 -32 23.5 -55.5t55.5 -23.5q33 0 56.5 23.5t23.5 55.5q0 33 -23.5 56.5t-56.5 23.5q-32 0 -55.5 -23.5t-23.5 -56.5zM1298 170q0 -74 -52 -126t-126 -52t-126 52t-52 126t52 126t126 52
t126 -52t52 -126zM1041 170q0 -32 23 -55.5t56 -23.5q32 0 55.5 23.5t23.5 55.5q0 33 -23.5 56.5t-55.5 23.5q-33 0 -56 -23.5t-23 -56.5z" />
    <glyph glyph-name="guilsinglleft" unicode="&#x2039;" horiz-adv-x="344" 
d="M160 253l146 -162h-127l-152 162l152 162h127z" />
    <glyph glyph-name="guilsinglright" unicode="&#x203a;" horiz-adv-x="343" 
d="M317 253l-152 -162h-127l146 162l-146 162h127z" />
    <glyph glyph-name="fraction" unicode="&#x2044;" horiz-adv-x="282" 
d="M-50 0h-95l437 711h94z" />
    <glyph glyph-name="Euro" unicode="&#x20ac;" horiz-adv-x="610" 
d="M570 23q-59 -31 -144 -31q-105 0 -180.5 58.5t-105.5 158.5h-95v77h81q-1 12 -1 36q0 16 2 42h-82v78h96q29 104 106 162t177 58q90 0 146 -32v-121q-53 39 -127 39q-119 0 -167 -106h187v-78h-208q-3 -21 -3 -43q0 -13 2 -35h209v-77h-189q22 -51 65 -78t99 -27
q76 0 132 40v-121z" />
    <glyph glyph-name="indianrupee" unicode="&#x20b9;" horiz-adv-x="552" 
d="M508 410h-103q-10 -76 -61.5 -122t-139.5 -54l195 -234h-152l-185 233v97h91q112 0 130 80h-221v93h216q-29 78 -127 78h-89v93h446v-93h-156q34 -34 46 -78h110v-93z" />
    <glyph glyph-name="uni20BA" unicode="&#x20ba;" horiz-adv-x="585" 
d="M218 0h-82v235l-79 -40v96l79 40v87l-79 -40v96l79 40v141h120v-79l97 49v-96l-97 -49v-88l97 49v-96l-97 -49v-191q87 19 139 92t52 166h117q0 -150 -94 -256.5t-252 -106.5z" />
    <glyph glyph-name="uni20BD" unicode="&#x20bd;" horiz-adv-x="560" 
d="M277 556h-60v-225h57q137 0 137 114q0 111 -134 111zM417 81h-200v-81h-126v81h-88v88h88v74h-88v88h88v324h196q120 0 182.5 -56.5t62.5 -149.5q0 -98 -65 -152t-177 -54h-73v-74h200v-88z" />
    <glyph glyph-name="uni2113" unicode="&#x2113;" horiz-adv-x="512" 
d="M264 465v-138q50 30 75.5 75.5t25.5 96.5q0 33 -12.5 53t-36.5 20q-52 0 -52 -107zM468 27q-54 -32 -133 -32q-90 0 -140.5 50t-50.5 145v1q-26 -2 -40 -2q-40 0 -69 9v100q34 -10 68 -10q15 0 41 2v180q0 94 38 151.5t123 57.5q81 0 122 -48t41 -124q0 -93 -53.5 -172
t-150.5 -118v-9q0 -115 98 -115q55 0 106 33v-99z" />
    <glyph glyph-name="trademark" unicode="&#x2122;" horiz-adv-x="731" 
d="M370 331h-80l28 343h91l44 -119q16 -40 26.5 -71.5t12.5 -43.5l3 -12q11 38 44 127l46 119h91l32 -343h-80l-10 129q-3 32 -3 62.5t1 45.5l1 14q-10 -47 -39 -123l-46 -123h-72l-44 123q-12 33 -21 63.5t-13 45.5l-3 14q5 -50 0 -123zM173 331h-81v272h-85v71h250v-71
h-84v-272z" />
    <glyph glyph-name="uni2126" unicode="&#x2126;" horiz-adv-x="786" 
d="M348 0h-300v104h139q-105 83 -105 240q0 155 83.5 248.5t227.5 93.5q146 0 229 -93t83 -249q0 -158 -106 -240h139v-104h-300v104q66 15 99 80t33 160q0 106 -46 166t-131 60q-84 0 -130 -60.5t-46 -165.5q0 -93 33.5 -158.5t97.5 -81.5v-104z" />
    <glyph glyph-name="partialdiff" unicode="&#x2202;" horiz-adv-x="538" 
d="M490 285q0 -138 -61 -216t-171 -78q-105 0 -163 63.5t-58 161.5q0 95 60.5 154t144.5 59q70 0 120 -40q-28 85 -95.5 159.5t-150.5 125.5h167q88 -64 147.5 -174.5t59.5 -214.5zM259 99q53 0 85 44.5t34 132.5q-44 49 -115 49q-45 0 -74 -31t-29 -83q0 -50 26.5 -81
t72.5 -31z" />
    <glyph glyph-name="uni2206" unicode="&#x2206;" horiz-adv-x="657" 
d="M34 0v88l215 586h163l212 -586v-88h-590zM223 266l-55 -163h321l-55 163l-105 315q-25 -72 -106 -315z" />
    <glyph glyph-name="product" unicode="&#x220f;" horiz-adv-x="627" 
d="M217 25q0 -210 -172 -210q-37 0 -69 12v111q24 -13 49 -13q35 0 50 23t15 73v653h469v-854h-127v745h-215v-540z" />
    <glyph glyph-name="summation" unicode="&#x2211;" horiz-adv-x="468" 
d="M164 -96h324v-104h-458v104l159 340l-159 326v104h458v-104h-323l156 -326z" />
    <glyph glyph-name="minus" unicode="&#x2212;" horiz-adv-x="576" 
d="M526 286h-476v107h476v-107z" />
    <glyph glyph-name="uni2215" unicode="&#x2215;" horiz-adv-x="439" 
d="M59 0h-95l437 711h95z" />
    <glyph glyph-name="uni2219" unicode="&#x2219;" horiz-adv-x="288" 
d="M222 337q0 -32 -23 -55t-55 -23t-55 23t-23 55t23 55t55 23t55 -23t23 -55z" />
    <glyph glyph-name="radical" unicode="&#x221a;" horiz-adv-x="798" 
d="M502 -193h-148l-197 543h-128l24 96h206l91 -266q23 -66 42.5 -130t27.5 -94.5t9 -36.5l3 13q2 13 7.5 37t13 54.5t19 73t24.5 85.5l221 721h127z" />
    <glyph glyph-name="infinity" unicode="&#x221e;" horiz-adv-x="832" 
d="M415 273q-25 -30 -46 -48.5t-59.5 -36t-82.5 -17.5q-87 0 -133.5 44.5t-46.5 124.5q0 78 50 126t134 48q58 0 100.5 -26.5t84.5 -74.5q84 103 189 103q85 0 132.5 -45t47.5 -123t-50.5 -126.5t-133.5 -48.5q-101 0 -186 100zM153 343q0 -35 22 -56.5t60 -21.5
q61 0 115 80q-20 22 -34 35.5t-36.5 26t-44.5 12.5q-39 0 -60.5 -20.5t-21.5 -55.5zM481 341q22 -23 36 -36t36 -25t44 -12q39 0 59.5 20t20.5 57q0 33 -21 55t-58 22q-60 0 -117 -81z" />
    <glyph glyph-name="integral" unicode="&#x222b;" horiz-adv-x="322" 
d="M224 -5q0 -85 -47 -133t-130 -48q-38 0 -66 9v100q26 -10 50 -10q73 0 73 82v531q0 85 47 133t130 48q38 0 66 -9v-101q-26 10 -50 10q-73 0 -73 -82v-530z" />
    <glyph glyph-name="approxequal" unicode="&#x2248;" horiz-adv-x="600" 
d="M210 419q-56 0 -101 -59l-77 62q69 97 156 97q57 0 119.5 -28t87.5 -28q50 0 92 56l78 -61q-63 -95 -151 -95q-50 0 -112 28t-92 28zM210 216q-57 0 -101 -58l-77 62q70 96 156 96q57 0 119.5 -27.5t87.5 -27.5q50 0 92 56l78 -62q-62 -94 -151 -94q-50 0 -112 27.5
t-92 27.5z" />
    <glyph glyph-name="notequal" unicode="&#x2260;" horiz-adv-x="576" 
d="M526 181h-278l-38 -83h-68l38 83h-130v98h176l57 123h-233v97h278l38 83h67l-38 -83h131v-97h-176l-57 -123h233v-98z" />
    <glyph glyph-name="lessequal" unicode="&#x2264;" horiz-adv-x="571" 
d="M521 475l-407 -62l407 -62v-106l-476 91v155l476 90v-106zM521 97h-476v98h476v-98z" />
    <glyph glyph-name="greaterequal" unicode="&#x2265;" horiz-adv-x="571" 
d="M526 491v-155l-476 -91v106l407 62l-407 62v106zM526 97h-476v98h476v-98z" />
    <glyph glyph-name="lozenge" unicode="&#x25ca;" horiz-adv-x="589" 
d="M163 337l32 -58q31 -54 56 -100t34 -65l9 -19q29 62 101 184l33 58l-33 58q-32 54 -57 100t-34 65l-10 19q-29 -62 -99 -184zM358 0h-130l-190 337l190 337h130l193 -337z" />
    <glyph glyph-name="uni25CC" unicode="&#x25cc;" horiz-adv-x="660" 
d="M286 90q0 -20 -12.5 -33t-31.5 -13t-32 13t-13 33q0 18 13 31t32 13t31.5 -13t12.5 -31zM184 165q0 -19 -12.5 -31.5t-31.5 -12.5q-20 0 -32 12.5t-12 31.5t12.5 31.5t31.5 12.5t31.5 -12.5t12.5 -31.5zM132 281q0 -19 -12.5 -31t-31.5 -12t-31.5 12t-12.5 31t12.5 32
t31.5 13t31.5 -12.5t12.5 -32.5zM413 74q0 -19 -12.5 -31.5t-32.5 -12.5t-32 12t-12 32t12 32t32 12t32.5 -12.5t12.5 -31.5zM147 407q0 -19 -13 -31.5t-31 -12.5q-20 0 -33 12.5t-13 31.5t13 31.5t33 12.5q18 0 31 -12.5t13 -31.5zM534 127q0 -19 -13 -31.5t-32 -12.5
t-31.5 12.5t-12.5 31.5t12.5 31.5t31.5 12.5t32 -12.5t13 -31.5zM227 517q0 -20 -12.5 -32.5t-31.5 -12.5t-31.5 12.5t-12.5 32.5q0 19 12.5 31.5t31.5 12.5t31.5 -12.5t12.5 -31.5zM606 225q0 -19 -12.5 -31.5t-30.5 -12.5q-19 0 -32 12.5t-13 31.5t13 32t32 13
q18 0 30.5 -13t12.5 -32zM345 560q0 -20 -12.5 -32t-31.5 -12t-31.5 12t-12.5 32t12.5 32t31.5 12t31.5 -12t12.5 -32zM616 359q0 -19 -12.5 -31.5t-31.5 -12.5q-20 0 -32 12.5t-12 31.5t12 31.5t32 12.5q19 0 31.5 -12.5t12.5 -31.5zM471 545q0 -18 -12.5 -31t-30.5 -13
q-19 0 -32 13t-13 31q0 19 12.5 32t32.5 13q19 0 31 -12.5t12 -32.5zM566 477q0 -19 -12.5 -31.5t-31.5 -12.5t-31.5 12.5t-12.5 31.5t12.5 32t31.5 13t31.5 -12.5t12.5 -32.5z" />
    <glyph glyph-name="fi" unicode="&#xfb01;" horiz-adv-x="552" 
d="M224 0h-120v417h-74v90h74v30q0 85 47 133t132 48q86 0 169 -39v-101q-85 40 -154 40q-37 0 -55.5 -18.5t-18.5 -63.5v-29h275v-507h-120v417h-155v-417z" />
    <glyph glyph-name="fl" unicode="&#xfb02;" horiz-adv-x="562" 
d="M325 417h-101v-417h-120v417h-74v90h74v30q0 85 47 133t131 48q99 0 215 -58v-660h-121v607q-39 11 -73 11q-39 0 -59 -17.5t-20 -64.5v-29h101v-90z" />
    <glyph glyph-name="bnK_SSA" horiz-adv-x="1066" 
d="M576 399q15 0 51 4v162h-120v-103q0 -63 69 -63zM1012 247q0 -83 -46.5 -131t-126.5 -48q-20 0 -27 1v105h10q77 0 77 73q0 81 -112 81q-21 0 -44 -3v-325h-116q-64 51 -156.5 86t-175.5 35q-47 0 -74 -23t-27 -65q0 -11 1 -17h-114q-4 28 -4 42q0 55 31.5 95t90.5 57
q15 25 15 57q0 65 -125 65h-43v99h33q110 0 110 85q0 26 -13 49h-196v95h1107v-95h-344v-143q24 3 46 3q100 0 161.5 -47t61.5 -131zM330 265q0 -23 -8 -47q81 -6 164 -33.5t141 -65.5v187q-32 -5 -53 -5q-85 1 -134 43t-49 117v104h-99q12 -25 12 -55q0 -100 -110 -120
q136 -19 136 -125z" />
    <glyph glyph-name="bnJ_NYA" horiz-adv-x="975" 
d="M449 317q50 0 99 17q-109 49 -116 219q-83 -64 -83 -148q0 -88 100 -88zM652 265q0 -34 -8 -71q11 -35 41 -57.5t66 -22.5q64 0 64 54q0 55 -76 55h-26v92h26q76 0 76 57q0 24 -18.5 37.5t-50.5 13.5q-38 0 -65.5 -23t-36.5 -58q8 -35 8 -77zM922 159q0 -59 -45 -95
t-116 -36q-100 0 -154 76q-74 -111 -231 -111q-147 0 -240 97t-93 255q0 30 1 46h115q-1 -14 -1 -40q0 -116 60.5 -186.5t157.5 -70.5q76 0 117 40.5t47 108.5q-51 -23 -121 -23q-85 0 -137.5 49t-52.5 128q0 100 68 168h-317v95h1015v-95h-472q6 -117 65 -166
q19 49 66.5 80t108.5 31q72 0 116 -38t44 -94q0 -78 -80 -110q34 -11 56.5 -38.5t22.5 -70.5z" />
    <glyph glyph-name="bnNull" horiz-adv-x="0" 
 />
    <glyph glyph-name="bnReph" horiz-adv-x="0" 
d="M-181 707l159 161h114v-4l-159 -161h-114v4z" />
    <glyph glyph-name="bnRAc2" horiz-adv-x="0" 
d="M-240 -23q-28 0 -96 -24.5t-128 -24.5q-84 0 -135 44t-51 125q0 20 5 47h113q-2 -22 -2 -31q0 -39 20.5 -61.5t60.5 -22.5q42 0 103.5 24t96.5 24q42 0 60 -20v151h117v-286h-117v16q0 17 -12 28t-35 11z" />
    <glyph glyph-name="bnYAc2" horiz-adv-x="291" 
d="M181 0h-124q60 90 60 163q0 39 -32 127t-32 131q0 44 20.5 82t52.5 62h122q-33 -20 -56 -57t-23 -85q0 -42 32 -131t32 -129q0 -83 -52 -163zM312 565h-332v95h332v-95z" />
    <glyph glyph-name="bnBAc2" horiz-adv-x="0" 
d="M-77 -249h-109l-258 102v111q123 98 258 131v64h109v-408zM-186 -150v144q-83 -27 -155 -78z" />
    <glyph glyph-name="bnK" horiz-adv-x="767" 
d="M598 -190h-113l-141 142v4h114l140 -142v-4zM730 271q0 -92 -50 -143t-133 -51q-13 0 -20 1v106h11q79 0 79 87q0 57 -42.5 93.5t-115.5 40.5v-405h-113v1l-1 -1l-306 220v116q168 143 307 169v60h-366v95h807v-95h-328v-59q111 -2 191 -66.5t80 -168.5zM346 125v275
q-96 -28 -205 -122z" />
    <glyph glyph-name="bnKH" horiz-adv-x="659" 
d="M723 -190h-113l-141 142v4h114l140 -142v-4zM584 0h-113v1l-1 -1l-441 236v97h87q80 1 123 42.5t43 115.5v7q-39 -74 -124 -74q-74 0 -115 42.5t-41 112.5q0 48 15 81h112q-10 -35 -10 -67q0 -35 17.5 -54.5t48.5 -19.5q71 0 71 97q0 29 -2 44h110q29 -99 29 -169
q0 -94 -51 -154.5t-138 -78.5l267 -146v629h113v-81h95v-95h-95v-565z" />
    <glyph glyph-name="bnG" horiz-adv-x="603" 
d="M666 -190h-113l-141 142v4h115l139 -142v-4zM527 0h-116v413q0 156 -129 156q-108 0 -122 -100q80 -2 130.5 -44t51.5 -118q-1 -84 -59 -128.5t-156 -44.5q-41 0 -85 9v96q40 -4 85 -4q98 0 98 71t-98 71h-82v62q0 97 58.5 164t158.5 67q106 0 149 -68v139h116v-81h96
v-95h-96v-565z" />
    <glyph glyph-name="bnGH" horiz-adv-x="589" 
d="M662 -190h-113l-141 142v4h114l140 -142v-4zM325 303l-140 -91l219 -98v451h-143q-49 0 -76 -22.5t-27 -63.5q0 -39 27 -57.5t69 -18.5q37 0 71 8v-108zM615 565h-95v-565h-116l-345 150l1 1v105q64 42 134 84q-69 8 -112.5 39.5t-43.5 89.5q0 62 54 96h-112v95h635v-95z
" />
    <glyph glyph-name="bnNG" horiz-adv-x="682" 
d="M562 -190h-113l-141 142v4h114l140 -142v-4zM397 462q78 0 78 61q0 25 -19 40.5t-48 15.5q-25 0 -38.5 -16.5t-13.5 -43.5v-53q17 -4 41 -4zM640 250q0 -112 -75 -182.5t-198 -70.5q-141 0 -232.5 94t-91.5 251q0 28 3 48h114q-2 -24 -2 -47q0 -120 59.5 -183t149.5 -63
q79 0 122.5 41.5t43.5 105.5v5q-59 -39 -131 -39q-70 0 -113 40.5t-43 115.5v44q-106 52 -151 155h-115v95h184q22 -88 86 -143v1q0 66 40 109t117 43q75 0 122 -43.5t47 -107.5q0 -67 -49.5 -105t-128.5 -38q-14 0 -42 2v-10q0 -57 57 -57q78 0 194 78q33 -65 33 -139z" />
    <glyph glyph-name="bnC" horiz-adv-x="534" 
d="M440 -190h-113l-141 142v4h115l139 -142v-4zM493 264q0 -102 -72 -187.5t-176 -85.5q-75 0 -122 45t-47 123v406h-96v95h574v-95h-362v-66l109 -34q101 -31 146.5 -75t45.5 -126zM246 91q53 0 92 55.5t39 117.5q0 37 -21.5 56.5t-75.5 37.5l-88 30v-229q0 -68 54 -68z
" />
    <glyph glyph-name="bnCH" horiz-adv-x="617" 
d="M386 -175h-113l-141 142v4h114l140 -142v-4zM538 -43h-165l-270 140v83q40 -2 61 -2q129 0 210.5 34t81.5 109q0 32 -22 49.5t-66 28.5q1 -7 1 -20q0 -57 -48.5 -103.5t-114.5 -46.5q-62 0 -97 32.5t-35 91.5v212h-94v95h657v-95h-462v-38l55 -11q2 0 4 -1l141 -29
q96 -21 141.5 -60t45.5 -107q0 -95 -80 -150t-207 -70q75 -32 112 -51l151 -78v-13zM207 311q26 0 46.5 24t20.5 52q0 20 -11 29.5t-39 14.5l-49 11v-96q0 -35 32 -35z" />
    <glyph glyph-name="bnJ" horiz-adv-x="866" 
d="M938 -190h-113l-141 142v4h114l140 -142v-4zM599 252q0 -110 -67.5 -183t-188.5 -73q-136 0 -216.5 95t-80.5 254q0 30 1 46h115q-1 -14 -1 -40q0 -118 48 -186t134 -68q71 0 109.5 39.5t38.5 107.5q-38 -10 -74 -10q-79 0 -126.5 45t-47.5 121q0 98 69 165h-332v95h906
v-95h-335q70 -101 267 -147q-43 -118 -43 -254q0 -76 20 -164h-113q-19 81 -19 163q0 106 29 193q-85 26 -153.5 74.5t-99.5 115.5q-76 -61 -76 -138q0 -78 90 -78q63 0 127 29q19 -48 19 -107z" />
    <glyph glyph-name="bnJH" horiz-adv-x="802" 
d="M605 -190h-113l-141 142v4h114l140 -142v-4zM462 0h-116v1l-1 -1l-306 220v116q146 125 307 168v61h-366v95h482v-342h38q74 0 107 -48v478h116v-88h95v-95h-95v-481h-116v6q0 133 -118 133h-27v-223zM346 126v268q-112 -42 -204 -116z" />
    <glyph glyph-name="bnNY" horiz-adv-x="920" 
d="M695 -190h-113l-141 142v4h115l139 -142v-4zM130 423q0 100 71.5 173t181.5 73q138 0 166 -114q53 63 143 63q80 0 129 -46t49 -109q0 -49 -27 -81.5t-66 -46.5q39 -14 66 -46.5t27 -81.5q0 -63 -48.5 -109.5t-128.5 -46.5q-84 0 -137 55v-106h-116v3q0 40 -37 40
q-20 0 -85 -18.5t-107 -18.5q-75 0 -126.5 44t-51.5 129q0 34 6 61l113 1q-3 -18 -3 -48q0 -83 77 -83q28 0 85.5 16t80.5 16q29 0 48 -17v372q0 38 -13.5 55t-43.5 17q-52 0 -94 -44.5t-42 -101.5q0 -38 20.5 -54t61.5 -16q27 0 44 3v-101q-26 -6 -61 -6q-88 0 -135 44.5
t-47 129.5zM679 148q37 0 59 18t22 49q0 70 -87 70h-38v99h38q87 0 87 70q0 32 -23 49.5t-60 17.5q-54 0 -87.5 -36t-33.5 -97v-107q0 -61 34 -97t89 -36z" />
    <glyph glyph-name="bnTT" horiz-adv-x="557" 
d="M448 -190h-113l-141 142v4h114l140 -142v-4zM514 265q0 -106 -70.5 -187.5t-186.5 -81.5q-76 0 -128.5 45t-52.5 121v403h-96v95h408q2 24 2 36q0 31 -12 47t-44 16q-24 0 -84.5 -10t-94.5 -10q-66 0 -103 21v90q37 -17 94 -17q30 0 96 12.5t103 12.5q75 0 113.5 -39.5
t38.5 -107.5q0 -21 -5 -51h85v-95h-385v-403q0 -31 18 -48t47 -17q63 0 102 51.5t39 116.5q0 91 -98 91q-22 0 -41 -4v102q30 6 58 6q93 0 145 -53.5t52 -141.5z" />
    <glyph glyph-name="bnTTH" horiz-adv-x="596" 
d="M488 -190h-113l-141 142v4h114l140 -142v-4zM539 265q0 -112 -64 -181.5t-176 -69.5q-116 0 -181 75t-65 202q0 47 5 86h89q107 0 107 105v83h-274v95h247q-24 46 -24 88q0 59 40.5 96t113.5 37q14 0 50 -4v-101q-16 2 -27 2q-66 0 -66 -51q0 -27 25 -67h277v-95h-206
l27 -36q102 -135 102 -264zM299 114q63 0 95 42.5t32 108.5q0 116 -78 233q1 -12 1 -38q0 -81 -46 -127.5t-126 -46.5h-11v-13q0 -72 35.5 -115.5t97.5 -43.5z" />
    <glyph glyph-name="bnDD" horiz-adv-x="668" 
d="M535 -190h-113l-141 142v4h114l140 -142v-4zM629 289q0 -121 -73.5 -202t-204.5 -81q-140 0 -225 93t-85 256q0 39 5 84h115q-4 -36 -4 -80q0 -120 52 -186t142 -66q83 0 126 49.5t43 134.5v11q-58 -30 -116 -30q-73 0 -112.5 40.5t-39.5 116.5v136h-272v95h708v-95h-320
v-135q0 -58 57 -58t177 65q27 -67 27 -148z" />
    <glyph glyph-name="bnDDH" horiz-adv-x="557" 
d="M465 -197h-113l-141 142v4h114l140 -142v-4zM514 265q0 -106 -70.5 -187.5t-186.5 -81.5q-76 0 -128.5 45t-52.5 121v403h-96v95h597v-95h-385v-403q0 -31 18 -48t47 -17q63 0 102 51.5t39 116.5q0 91 -98 91q-22 0 -41 -4v102q30 6 58 6q93 0 145 -53.5t52 -141.5z" />
    <glyph glyph-name="bnNN" horiz-adv-x="590" 
d="M656 -190h-113l-141 142v4h115l139 -142v-4zM610 565h-95v-565h-116v416q0 66 -34.5 110t-102.5 44q-46 0 -73.5 -26.5t-27.5 -70.5q0 -46 26 -68.5t70 -22.5q28 0 53 4v-101q-34 -7 -66 -7q-91 0 -145 51.5t-54 143.5q0 86 54.5 141.5t140.5 55.5q109 0 159 -76v147h116
v-81h95v-95z" />
    <glyph glyph-name="bnT" horiz-adv-x="667" 
d="M537 -167h-113l-141 142v4h114l140 -142v-4zM622 311q0 -121 -76 -200t-206 -79q-137 0 -218.5 90t-81.5 254q0 48 5 83h111q-4 -35 -4 -82q0 -110 48.5 -177.5t139.5 -67.5q80 0 122.5 49.5t42.5 129.5q0 49 -16.5 79t-51.5 30q-29 0 -45 -21t-16 -56q0 -33 11 -71h-108
q-15 35 -15 78q0 71 45 118t124 47q85 0 137 -59.5t52 -144.5zM687 565h-707v95h707v-95z" />
    <glyph glyph-name="bnTH" horiz-adv-x="663" 
d="M729 -190h-113l-141 142v4h114l140 -142v-4zM587 0h-113l-425 239v97h91q146 2 146 150q0 41 -18.5 65.5t-53.5 24.5q-31 0 -49 -20.5t-18 -53.5q0 -23 12 -68h-107q-15 38 -15 81q0 69 47 112.5t127 43.5q86 0 137 -54t51 -131q0 -96 -48.5 -152.5t-131.5 -72.5
l255 -148v628h113v-81h96v-95h-96v-565z" />
    <glyph glyph-name="bnD" horiz-adv-x="536" 
d="M610 -190h-113l-141 142v4h115l139 -142v-4zM170 139h-113v426h-77v95h576v-95h-386v-272q47 52 100.5 96t87.5 60h112v-449h-112v328q-47 -36 -100 -89t-88 -100z" />
    <glyph glyph-name="bnDH" horiz-adv-x="586" 
d="M652 -190h-113l-141 142v4h114l140 -142v-4zM606 565h-95v-565h-117l-337 160l1 1v107q45 30 129 78q-62 10 -103 48.5t-41 102.5q0 78 53 125.5t144 47.5q26 0 58 -5v-95q-20 3 -44 3q-40 0 -65.5 -21.5t-25.5 -59.5q0 -39 25.5 -59.5t67.5 -20.5q39 0 80 16q12 6 32 17
t26 14v201h212v-95zM394 110v236l-218 -127z" />
    <glyph glyph-name="bnN" horiz-adv-x="580" 
d="M646 -190h-113l-141 142v4h115l139 -142v-4zM511 0h-116v2q-6 49 -17.5 96t-31 93.5t-50 75t-67.5 28.5q-40 0 -60.5 -25t-20.5 -67q0 -27 5 -52h-113q-8 37 -8 62q0 79 48 132t132 53q125 0 183 -128v295h-415v95h620v-95h-89v-565z" />
    <glyph glyph-name="bnP" horiz-adv-x="608" 
d="M676 -190h-113l-141 142v4h114l140 -142v-4zM63 261l89 51q-36 65 -105 88v50q0 86 56.5 153t159.5 67q106 0 153 -76v147h116v-81h96v-95h-96v-565h-116v347l-353 -208v122zM159 449q55 -26 83 -85l169 98q-10 49 -42.5 78t-86.5 29q-56 0 -89.5 -33.5t-33.5 -86.5z" />
    <glyph glyph-name="bnPH" horiz-adv-x="812" 
d="M645 -190h-113l-141 142v4h114l140 -142v-4zM775 285q0 -92 -49.5 -143t-132.5 -51q-14 0 -20 1v106h10q80 0 80 87q0 57 -43 86t-116 29v-400h-116l-344 153l1 1v114l159 111l-157 100v86h-67v95h852v-95h-717l195 -134v-104l-147 -107l225 -105v386h116
q115 0 193 -57.5t78 -158.5z" />
    <glyph glyph-name="bnB" horiz-adv-x="534" 
d="M598 -190h-113l-141 142v4h114l140 -142v-4zM554 565h-95v-565h-113v1l-1 -1l-306 220v116q146 125 307 168v61h-366v95h574v-95zM346 126v268q-112 -42 -204 -116z" />
    <glyph glyph-name="bnBH" horiz-adv-x="664" 
d="M545 -204h-113l-141 142v4h114l140 -142v-4zM624 245q0 -109 -72 -177.5t-194 -68.5q-139 0 -225.5 94t-86.5 243q0 29 3 59h111q-2 -40 -2 -56q0 -113 53 -177.5t147 -64.5q74 0 115 35t46 96q-47 -18 -103 -18q-75 0 -122.5 41.5t-47.5 112.5t48 113t127 42q39 0 82 -9
v-94q-32 4 -60 4q-36 0 -58.5 -14t-22.5 -42q0 -59 80 -59q82 0 165 51q17 -51 17 -111zM691 565h-711v95h711v-95z" />
    <glyph glyph-name="bnM" horiz-adv-x="625" 
d="M682 -190h-113l-141 142v4h114l140 -142v-4zM659 565h-116v-565h-117v90q0 79 -39.5 124.5t-111.5 45.5q-47 0 -74.5 -21.5t-27.5 -60.5t25.5 -58.5t65.5 -19.5q24 0 45 3v-97q-30 -6 -66 -6q-83 0 -135.5 46t-52.5 133q0 66 36 111t97 62q-9 64 -44.5 94.5t-100.5 30.5
v88h-63v95h679v-95zM426 281v284h-274q63 -26 100 -80.5t46 -124.5q88 -12 128 -79z" />
    <glyph glyph-name="bnY" horiz-adv-x="580" 
d="M645 -190h-113l-141 142v4h114l140 -142v-4zM310 431v-104l-147 -107l225 -105v450h-273zM600 565h-96v-565h-116l-344 153l1 1v114l159 111l-157 100v86h-67v95h620v-95z" />
    <glyph glyph-name="bnR" horiz-adv-x="534" 
d="M598 -190h-113l-141 142v4h114l140 -142v-4zM554 565h-95v-565h-113v1l-1 -1l-306 220v116q146 125 307 168v61h-366v95h574v-95zM160 23q0 -28 -20 -47.5t-48 -19.5t-47.5 19.5t-19.5 47.5t19.5 48t47.5 20t48 -19.5t20 -48.5zM346 126v268q-112 -42 -204 -116z" />
    <glyph glyph-name="bnL" horiz-adv-x="746" 
d="M812 -190h-113l-141 142v4h115l139 -142v-4zM670 0h-116v295q0 84 -64 84q-67 0 -67 -101v-21h-119v27q0 94 -72 94q-35 0 -54 -24t-19 -64q0 -47 25 -70t65 -23q21 0 51 5v-98q-32 -6 -64 -6q-88 0 -140.5 52t-52.5 141q0 81 47.5 133.5t131.5 52.5q58 0 95 -25.5
t46 -66.5q10 41 39 67t75 26q50 0 77 -34v121h-574v95h786v-95h-96v-565z" />
    <glyph glyph-name="bnSH" horiz-adv-x="680" 
d="M747 -190h-113l-141 142v4h114l140 -142v-4zM604 0h-116v441q0 59 -26 94t-81 35q-43 0 -68 -27t-25 -73q0 -49 25.5 -72.5t67.5 -23.5q25 0 36 1v-101q-23 -4 -49 -4q-97 0 -139 62q-46 -62 -135 -62q-28 0 -62 6v102q24 -4 49 -4q93 0 93 96q0 45 -26.5 70t-74.5 25
h-93v95h107q91 0 141 -63q47 73 139 73q81 0 121 -50v121h116v-81h96v-95h-96v-565z" />
    <glyph glyph-name="bnSS" horiz-adv-x="580" 
d="M645 -190h-113l-141 142v4h114l140 -142v-4zM310 438l78 -50v177h-277zM600 565h-96v-565h-116l-344 153l1 1v114l157 115l-40 23l1 2l-116 71v86h-67v95h620v-95zM388 115v158l-89 53l-137 -105z" />
    <glyph glyph-name="bnS" horiz-adv-x="602" 
d="M662 -190h-113l-141 142v4h114l140 -142v-4zM526 0h-116v186q0 95 -64 95q-22 0 -40.5 -17t-34.5 -41.5t-35.5 -49.5t-52 -42t-74.5 -17q-36 0 -74 13v97q30 -9 58 -9q20 0 38 11t27.5 23t26.5 37t26 36q-12 75 -56.5 115t-114.5 40v88h-60v95h642v-95h-96v-565zM322 381
q60 0 88 -40v224h-260q61 -24 101 -73t54 -112q6 1 17 1z" />
    <glyph glyph-name="bnH" horiz-adv-x="451" 
d="M392 -178h-113l-141 142v4h114l140 -142v-4zM408 -9h-155l-190 133v93h95q69 1 105 32.5t36 87.5q0 39 -20 61t-55 22q-32 0 -51.5 -20.5t-19.5 -52.5q0 -29 7 -53h-107q-10 30 -10 65q0 68 48.5 112t129.5 44q86 0 138.5 -51.5t52.5 -126.5q0 -84 -54.5 -135t-146.5 -63
l197 -136v-12zM478 565h-498v95h498v-95z" />
    <glyph glyph-name="bnK_SS" horiz-adv-x="1066" 
d="M576 399q15 0 51 4v162h-120v-103q0 -63 69 -63zM1012 247q0 -83 -46.5 -131t-126.5 -48q-20 0 -27 1v105h10q77 0 77 73q0 81 -112 81q-21 0 -44 -3v-325h-116q-64 51 -156.5 86t-175.5 35q-47 0 -74 -23t-27 -65q0 -11 1 -17h-114q-4 28 -4 42q0 55 31.5 95t90.5 57
q15 25 15 57q0 65 -125 65h-43v99h33q110 0 110 85q0 26 -13 49h-196v95h1107v-95h-344v-143q24 3 46 3q100 0 161.5 -47t61.5 -131zM330 265q0 -23 -8 -47q81 -6 164 -33.5t141 -65.5v187q-32 -5 -53 -5q-85 1 -134 43t-49 117v104h-99q12 -25 12 -55q0 -100 -110 -120
q136 -19 136 -125zM624 -51h114l140 -142v-4h-113l-141 142v4z" />
    <glyph glyph-name="bnJ_NY" horiz-adv-x="975" 
d="M449 317q50 0 99 17q-109 49 -116 219q-83 -64 -83 -148q0 -88 100 -88zM652 265q0 -34 -8 -71q11 -35 41 -57.5t66 -22.5q64 0 64 54q0 55 -76 55h-26v92h26q76 0 76 57q0 24 -18.5 37.5t-50.5 13.5q-38 0 -65.5 -23t-36.5 -58q8 -35 8 -77zM922 159q0 -59 -45 -95
t-116 -36q-100 0 -154 76q-74 -111 -231 -111q-147 0 -240 97t-93 255q0 30 1 46h115q-1 -14 -1 -40q0 -116 60.5 -186.5t157.5 -70.5q76 0 117 40.5t47 108.5q-51 -23 -121 -23q-85 0 -137.5 49t-52.5 128q0 100 68 168h-317v95h1015v-95h-472q6 -117 65 -166
q19 49 66.5 80t108.5 31q72 0 116 -38t44 -94q0 -78 -80 -110q34 -11 56.5 -38.5t22.5 -70.5zM324 -51h114l140 -142v-4h-113l-141 142v4z" />
    <glyph glyph-name="asR" horiz-adv-x="534" 
d="M598 -190h-113l-141 142v4h114l140 -142v-4zM32 220v116q144 123 318 168v61h-370v95h574v-95h-95v-565h-109zM350 272v131q-61 -22 -111 -49zM350 118v78l-172 122q-24 -16 -52 -39z" />
    <glyph glyph-name="asW" horiz-adv-x="534" 
d="M598 -197h-113l-141 142v4h114l140 -142v-4zM233 11v-95l-153 104v101zM554 565h-95v-565h-113v1l-1 -1l-306 220v116q146 125 307 168v61h-366v95h574v-95zM346 126v268q-112 -42 -204 -116z" />
    <glyph glyph-name="bnDDx" horiz-adv-x="668" 
d="M543 -386h-113l-141 142v4h114l140 -142v-4zM629 289q0 -121 -73.5 -202t-204.5 -81q-140 0 -225 93t-85 256q0 39 5 84h115q-4 -36 -4 -80q0 -120 52 -186t142 -66q83 0 126 49.5t43 134.5v11q-58 -30 -116 -30q-73 0 -112.5 40.5t-39.5 116.5v136h-272v95h708v-95h-320
v-135q0 -58 57 -58t177 65q27 -67 27 -148zM404 -118q0 -28 -20 -47.5t-48 -19.5t-47.5 19.5t-19.5 47.5t19.5 48t47.5 20t48 -20t20 -48z" />
    <glyph glyph-name="bnDDHx" horiz-adv-x="557" 
d="M472 -384h-113l-140 142v4h114l139 -142v-4zM514 265q0 -106 -70.5 -187.5t-186.5 -81.5q-76 0 -128.5 45t-52.5 121v403h-96v95h597v-95h-385v-403q0 -31 18 -48t47 -17q63 0 102 51.5t39 116.5q0 91 -98 91q-22 0 -41 -4v102q30 6 58 6q93 0 145 -53.5t52 -141.5z
M338 -128q0 -28 -20 -47.5t-48 -19.5t-47.5 19.5t-19.5 47.5t19.5 48t47.5 20t48 -20t20 -48z" />
    <glyph glyph-name="bnYx" horiz-adv-x="580" 
d="M636 -197h-113l-141 142v4h115l139 -142v-4zM310 431v-104l-147 -107l225 -105v450h-273zM600 565h-96v-565h-116l-344 153l1 1v114l159 111l-157 100v86h-67v95h620v-95zM219 -51q0 -28 -20 -47.5t-48 -19.5t-47.5 19.5t-19.5 47.5t19.5 48t47.5 20q29 0 48.5 -19.5
t19.5 -48.5z" />
    <glyph glyph-name="bnK_KA" horiz-adv-x="767" 
d="M459 -142h-113l-286 129v112q50 43 113 76l-134 68v116q138 117 307 149v57h-366v95h807v-95h-328v-54q112 -2 191.5 -62.5t79.5 -163.5q0 -55 -16 -90l-104 45q7 19 7 45q0 55 -42 88t-116 37v-172q104 -4 173.5 -58.5t69.5 -136.5q0 -76 -44.5 -116t-118.5 -40
q-13 0 -20 1v93h11q67 0 67 64q0 44 -39 70t-99 29v-286zM299 223q22 6 47 10v172q-105 -27 -200 -101zM346 -40v177q-106 -28 -187 -87z" />
    <glyph glyph-name="bnNG_KA" horiz-adv-x="760" 
d="M428 -72h-112l-270 125v112q135 114 270 147q0 49 -22.5 80t-65.5 31q-32 0 -50 -21t-18 -55q0 -28 8 -54h-102q-11 31 -11 68q0 70 46 113.5t124 43.5q88 0 144 -58t59 -140q105 -2 178.5 -54.5t73.5 -137.5q0 -82 -47 -124.5t-124 -42.5q-13 0 -20 1v102h11q67 0 67 65
q0 45 -38 69t-101 26v-296zM719 515q0 -66 -39 -106t-108 -40q-81 0 -125.5 56.5t-46.5 139.5h-420v95h800v-95h-67q6 -23 6 -50zM571 462q53 0 53 59q0 20 -6 44h-117q2 -103 70 -103zM316 35v174q-87 -29 -165 -94z" />
    <glyph glyph-name="bnL_KA" horiz-adv-x="953" 
d="M277 133q-24 -3 -49 -3q-85 0 -136.5 49t-51.5 137q0 77 47.5 130.5t128.5 53.5q58 0 94.5 -25.5t45.5 -66.5q11 40 40 66t74 26q51 0 78 -35v100h-568v95h987v-95h-313v-315q105 -5 174.5 -58.5t69.5 -136.5q0 -76 -44.5 -116t-118.5 -40q-13 0 -20 1v93h11q67 0 67 65
q0 45 -38.5 69.5t-100.5 26.5v-277h-106l-265 121v112q131 112 265 135v73q0 36 -15.5 60t-50.5 24q-68 0 -68 -101v-11h-114v17q0 94 -73 94q-34 0 -54 -24t-20 -63q0 -41 24 -63t62 -22q20 0 38 3v-99zM548 -20v168q-87 -23 -167 -87z" />
    <glyph glyph-name="bnSS_KA" horiz-adv-x="718" 
d="M559 453q0 -76 -43 -125q68 -22 108 -67.5t40 -106.5q0 -75 -44.5 -114.5t-117.5 -39.5q-13 0 -20 1v93h11q66 0 66 63q0 42 -37 65t-96 26v-270h-109l-262 120v112q67 55 125 84q-84 51 -84 159q0 66 37 112h-153v95h758v-95h-216q37 -46 37 -112zM328 565
q-42 0 -70 -18l183 -133q5 20 5 39q0 52 -33 82t-85 30zM209 453q0 -54 33 -84t86 -30q45 0 76 23l-189 131q-6 -18 -6 -40zM317 81v160q-88 -22 -163 -81z" />
    <glyph glyph-name="bnS_KA" horiz-adv-x="725" 
d="M402 435q63 0 63 77q0 25 -5 53h-140q2 -130 82 -130zM64 115v111q132 112 261 135q-44 21 -65 67q-13 -36 -46.5 -59.5t-85.5 -23.5q-51 0 -95 23v98q46 -20 88 -20q48 0 67.5 29t19.5 90h-228v95h765v-95h-174q7 -29 7 -66q0 -105 -92 -140q85 -16 138 -66.5t53 -122.5
q0 -75 -44.5 -114.5t-118.5 -39.5q-13 0 -20 1v93h11q67 0 67 63q0 44 -37.5 68.5t-97.5 27.5v-276h-109zM328 97v166q-86 -23 -165 -85z" />
    <glyph glyph-name="bnNG_KHA" horiz-adv-x="720" 
d="M293 529q47 0 47 37q0 15 -10 25.5t-27 10.5q-33 0 -33 -43v-29q7 -1 23 -1zM650 -213h-105v1l-1 -1l-373 79v79h70q134 2 134 114v2q-30 -65 -111 -65q-62 0 -95.5 37.5t-33.5 95.5q0 14 2 34l104 -1q-2 -14 -2 -23q0 -60 51 -60q55 0 55 69q0 30 -6 53q-34 -8 -68 -8
q-109 0 -172.5 65t-63.5 178q0 14 2 34h90q-1 -9 -1 -33q0 -79 40.5 -118.5t105.5 -39.5q49 0 76.5 20.5t31.5 56.5q-37 -21 -82 -21q-56 0 -89 31t-33 86v28q-62 29 -95 85h-101v95h154q15 -62 47 -92q3 46 34 76.5t85 30.5q57 0 91 -33t34 -79q0 -48 -36.5 -78t-94.5 -30
q-16 0 -24 1v-2q0 -40 37 -40q56 0 139 55q24 -45 24 -98q0 -80 -49 -126q49 -91 49 -179q0 -120 -99 -155l174 -37v867h105v-81h96v-95h-96v-778z" />
    <glyph glyph-name="bnS_KHA" horiz-adv-x="842" 
d="M399 436q32 0 47.5 21t15.5 53q0 29 -6 55h-139q0 -129 82 -129zM437 274q0 26 -7 63q-9 -1 -29 -1q-55 0 -91.5 26t-53.5 65q-14 -35 -47.5 -58.5t-84.5 -23.5q-50 0 -94 23v98q46 -20 87 -20q49 0 68.5 28.5t19.5 90.5h-225v95h572q25 -93 25 -150q0 -87 -49 -132
q45 -111 45 -210q0 -75 -32 -128.5t-94 -76.5l207 -53v831h113v-81h95v-95h-95v-747h-113v1l-1 -1l-441 111v94h87q166 2 166 140v8q-37 -75 -124 -75q-74 0 -114.5 43.5t-40.5 113.5q0 36 7 63h114q-4 -17 -4 -49q0 -35 18 -55.5t50 -20.5q66 0 66 83z" />
    <glyph glyph-name="bnG_GA" horiz-adv-x="596" 
d="M510 -197h-105v157q0 67 -28.5 113.5t-89.5 46.5q-77 0 -94 -51q145 -7 145 -123q0 -68 -51 -103t-137 -35q-34 0 -74 8v86q54 -3 74 -3q79 0 79 49t-80 49h-71v24q0 84 49.5 137.5t139.5 53.5q94 0 138 -63v264q0 156 -125 156q-78 0 -100 -64q73 -2 116 -34.5
t44 -100.5q-1 -73 -54.5 -110t-144.5 -37q-36 0 -79 8v89q38 -4 79 -4q88 0 88 55q0 28 -20.5 39.5t-60.5 11.5h-94v17q0 99 51.5 165t150.5 66q106 0 149 -69v140h105v-81h96v-95h-96v-762z" />
    <glyph glyph-name="bnNG_GA" horiz-adv-x="689" 
d="M624 -45h-115q-15 70 -15 144q0 70 12 127q-106 -63 -149 -91q-56 -112 -195 -112q-61 0 -109 10v97q56 -7 96 -7q72 0 102.5 39.5t30.5 115.5q0 102 -69 102q-30 0 -46.5 -20t-16.5 -53q0 -34 9 -59h-107q-12 38 -12 71q0 69 45 112.5t124 43.5q86 0 133 -59t47 -138v-2
q89 51 131 70h104q-25 -100 -25 -194q0 -105 25 -197zM657 528q0 -67 -40 -108t-108 -41q-77 0 -121.5 52.5t-50.5 133.5h-357v95h729v-95h-55q3 -20 3 -37zM508 472q54 0 54 62q0 18 -3 31h-121q5 -93 70 -93z" />
    <glyph glyph-name="bnDD_GA" horiz-adv-x="1136" 
d="M423 402q51 0 156 57q3 57 30 106h-243v-105q0 -58 57 -58zM1060 0h-116v413q0 76 -29 116t-100 40q-108 0 -122 -100q80 -2 130 -44t51 -118q-1 -83 -59 -128t-155 -45q-17 0 -26 1v101q10 -1 26 -1q98 0 98 71t-98 71h-48q4 -24 4 -57q0 -114 -72 -186t-197 -72
q-138 0 -219.5 84.5t-81.5 238.5q0 48 4 84h115q-4 -36 -4 -80q0 -111 48.5 -169t137.5 -58q79 0 119.5 43t40.5 117v6q-50 -26 -103 -26q-73 0 -113.5 41t-40.5 116v106h-270v95h746q35 10 69 10q106 0 149 -69v140h116v-81h96v-95h-96v-565z" />
    <glyph glyph-name="bnD_GA" horiz-adv-x="1025" 
d="M1045 565h-96v-565h-116v413q0 76 -29 116t-100 40q-108 0 -122 -100q80 -2 130.5 -44t51.5 -118q-1 -84 -59 -128.5t-156 -44.5q-17 0 -26 1v101q10 -1 26 -1q98 0 98 71t-98 71h-79v-314h-112v285q-106 -72 -188 -169h-113v386h-77v95h635q37 10 70 10q105 0 148 -68
v139h116v-81h96v-95zM358 466h110q6 56 30 99h-328v-243q46 48 99 87.5t89 56.5z" />
    <glyph glyph-name="bnDDx_GA" horiz-adv-x="1136" 
d="M423 402q51 0 156 57q3 57 30 106h-243v-105q0 -58 57 -58zM1060 0h-116v413q0 76 -29 116t-100 40q-108 0 -122 -100q80 -2 130 -44t51 -118q-1 -83 -59 -128t-155 -45q-17 0 -26 1v101q10 -1 26 -1q98 0 98 71t-98 71h-48q4 -24 4 -57q0 -114 -72 -186t-197 -72
q-138 0 -219.5 84.5t-81.5 238.5q0 48 4 84h115q-4 -36 -4 -80q0 -111 48.5 -169t137.5 -58q79 0 119.5 43t40.5 117v6q-50 -26 -103 -26q-73 0 -113.5 41t-40.5 116v106h-270v95h746q35 10 69 10q106 0 149 -69v140h116v-81h96v-95h-96v-565zM409 -76q0 -28 -20 -47.5
t-48 -19.5t-47.5 19.5t-19.5 47.5t19.5 48t47.5 20q29 0 48.5 -20t19.5 -48z" />
    <glyph glyph-name="bnL_GA" horiz-adv-x="731" 
d="M403 254q96 0 136 -61v125q0 84 -63 84q-66 0 -66 -101v-7h-114v13q0 94 -71 94q-35 0 -53.5 -25.5t-18.5 -64.5q0 -46 27.5 -68.5t72.5 -22.5q9 0 31 2q50 32 119 32zM655 -185h-116v198q0 70 -30 109.5t-92 39.5q-80 0 -101 -57q162 -4 163 -130q-1 -71 -55 -108.5
t-145 -37.5q-36 0 -78 8v89q25 -4 78 -4q93 0 93 53t-93 53h-76v26q0 39 10 70q-79 8 -126 57.5t-47 130.5q0 78 45.5 133t125.5 55q58 0 94 -26t47 -66q10 40 40 66t72 26q50 0 75 -32v97h-559v95h771v-95h-96v-750z" />
    <glyph glyph-name="bnNG_GHA" horiz-adv-x="1136" 
d="M378 482q67 0 67 56q0 23 -15 37t-42 14q-25 0 -37.5 -15.5t-12.5 -41.5v-47q20 -3 40 -3zM600 282v-15q32 20 130 75q-59 9 -96.5 40t-37.5 87q0 61 51 96h-107q3 -15 3 -31q0 -64 -44.5 -97t-119.5 -33q-15 0 -41 2v-11q0 -56 55 -56q31 0 62.5 11.5t52 24t56.5 37.5
q36 -65 36 -130zM866 303l-155 -91l233 -99v452h-136q-46 0 -71 -22.5t-25 -61.5q0 -38 26 -57.5t67 -19.5q29 0 61 7v-108zM1060 0h-116l-382 158q-67 -92 -210 -92q-135 0 -218.5 78t-83.5 222q0 33 2 46h106q-2 -22 -2 -45q0 -108 54.5 -156.5t141.5 -48.5q68 0 107 31.5
t39 82.5v8q-52 -37 -115 -37q-68 0 -109 40t-41 113v30q-100 42 -147 135h-106v95h176q21 -81 81 -130v1q0 62 38 100.5t112 38.5q38 0 65 -10h704v-95h-96v-565z" />
    <glyph glyph-name="bnD_GHA" horiz-adv-x="1054" 
d="M784 308l-178 -99l256 -101v457h-136q-46 0 -70.5 -22.5t-24.5 -61.5q0 -38 26 -57.5t67 -19.5q30 0 60 7v-103zM1074 565h-95v-565h-117l-392 151v-88h-112v284q-103 -71 -188 -168h-113v386h-77v95h1094v-95zM470 466v-217q86 50 170 94q-125 24 -125 126q0 61 51 96
h-396v-242q44 46 97.5 85t90.5 58h112z" />
    <glyph glyph-name="bnL_GHA" horiz-adv-x="1079" 
d="M809 289l-138 -89l217 -88v453h-136q-48 0 -75.5 -25t-27.5 -66t26.5 -62.5t70.5 -21.5q34 0 63 7v-108zM1004 0h-116l-345 136l1 1v105q69 46 135 85q-86 12 -124 59q-21 18 -51 18q-67 0 -67 -103v-14h-119v20q0 94 -72 94q-35 0 -54 -24t-19 -64q0 -47 25 -70t65 -23
q21 0 51 5v-98q-32 -6 -64 -6q-88 0 -140.5 52t-52.5 141q0 81 47.5 133.5t131.5 52.5q58 0 95 -25.5t46 -66.5q7 37 35.5 64.5t71.5 27.5q27 0 48 -13q10 50 57 78h-609v95h1119v-95h-95v-565z" />
    <glyph glyph-name="bnC_CA" horiz-adv-x="890" 
d="M236 208q40 0 64.5 32t24.5 77q0 34 -19 48.5t-68 29.5l-54 17v-147q0 -57 52 -57zM848 264q0 -102 -72 -187.5t-176 -85.5q-75 0 -122 45t-47 123v99q-18 -65 -71.5 -106.5t-126.5 -41.5q-74 0 -118 39t-44 116v300h-91v95h929v-95h-362v-66l109 -34q101 -31 146.5 -75
t45.5 -126zM601 91q53 0 92 55.5t39 117.5q0 37 -21.5 56.5t-75.5 37.5l-88 30v-229q0 -68 54 -68zM258 499q76 -22 117 -48.5t56 -74.5v189h-247v-44z" />
    <glyph glyph-name="bnNY_CA" horiz-adv-x="835" 
d="M601 152q35 0 55 18t20 48q0 65 -84 65h-37v100h37q84 0 84 69q0 29 -20.5 46.5t-54.5 17.5q-52 0 -83.5 -41t-31.5 -99v-86q0 -62 31 -100t84 -38zM786 205q0 -63 -46.5 -107t-127.5 -44q-79 0 -126 54v-108h-116l-299 135v111q56 48 133.5 89.5t148.5 61.5
q-15 51 -44.5 81.5t-71.5 30.5q-73 0 -73 -89q0 -14 2 -36h-114q-4 20 -4 46q0 78 45.5 130t126.5 52q101 0 150 -86v134h116v-101q47 54 125 54q81 0 128 -44.5t47 -107.5q0 -49 -27 -81.5t-66 -46.5q39 -14 66 -46.5t27 -81.5zM370 272q0 17 -1 25q-102 -34 -190 -100
l191 -89v164z" />
    <glyph glyph-name="bnSH_CA" horiz-adv-x="929" 
d="M641 91q52 0 91 55.5t39 117.5q0 37 -21.5 56.5t-74.5 37.5l-89 30v-229q0 -68 55 -68zM889 264q0 -102 -72.5 -187.5t-177.5 -85.5q-75 0 -122 45t-47 123v288q0 123 -99 123q-41 0 -65 -26.5t-24 -70.5q0 -46 25 -69.5t66 -23.5q28 0 39 2v-102q-21 -4 -50 -4
q-94 0 -138 61q-45 -61 -131 -61q-29 0 -63 6v102q24 -4 49 -4q41 0 65 23t24 70q0 44 -25 68t-70 24h-93v95h107q86 0 135 -62q48 72 135 72q74 0 113 -47v37h479v-95h-363v-66l109 -34q101 -31 147.5 -75t46.5 -126z" />
    <glyph glyph-name="bnC_CHA" horiz-adv-x="971" 
d="M236 208q40 0 64.5 32t24.5 77q0 34 -19 48.5t-68 29.5l-54 17v-147q0 -57 52 -57zM916 319q0 -95 -80 -150t-207 -70q75 -32 112 -51l151 -78v-13h-165l-270 140v83q40 -2 61 -2q129 0 210.5 34t81.5 109q0 32 -22 49.5t-66 28.5q1 -7 1 -20q0 -57 -48.5 -103.5
t-114.5 -46.5q-93 0 -122 68q-7 -79 -63.5 -133t-141.5 -54q-74 0 -118 39t-44 116v300h-91v95h1011v-95h-462v-38l55 -11q2 0 4 -1l141 -29q96 -21 141.5 -60t45.5 -107zM561 311q26 0 46.5 24t20.5 52q0 20 -11 29.5t-39 14.5l-49 11v-96q0 -35 32 -35zM258 499
q72 -21 113 -46t57 -68v180h-244v-44z" />
    <glyph glyph-name="bnNY_CHA" horiz-adv-x="682" 
d="M222 129q34 0 67 18q-73 67 -101 152q-54 -39 -54 -90q0 -38 24.5 -59t63.5 -21zM594 -86v-92l-512 73v100q68 -13 138 -13q130 0 130 81q0 9 -3 18q-50 -39 -125 -39q-80 0 -133 45t-53 122q0 59 28.5 102.5t69 67.5t81.5 43.5t69.5 43.5t28.5 54q0 24 -17.5 39.5
t-46.5 15.5q-35 0 -54.5 -20.5t-19.5 -54.5q0 -19 4 -45h-102q-8 27 -8 58q0 70 46.5 113.5t125.5 43.5q85 0 133 -51q42 50 118 50q65 0 104 -37.5t39 -88.5q0 -75 -74 -102q32 -11 53 -36.5t21 -64.5q0 -52 -40 -89t-105 -37q-70 0 -116.5 45t-59.5 113q-22 -13 -49 -28
q11 -39 36 -71.5t51 -55t50.5 -44.5t40.5 -50.5t16 -62.5q0 -87 -98 -120q91 -6 168 -17zM479 307q25 0 39.5 12t14.5 34q0 46 -64 46h-18v84h18q35 0 49.5 12t14.5 38q0 19 -15 31t-39 12q-46 0 -69 -41q1 -6 1 -19q0 -43 -22 -78q3 -62 26 -96.5t64 -34.5z" />
    <glyph glyph-name="bnSH_CHA" horiz-adv-x="1014" 
d="M934 -43h-165l-270 140v83q40 -2 61 -2q129 0 210.5 34t81.5 109q0 32 -22 49.5t-65 27.5q1 -6 1 -19q0 -57 -49 -103.5t-115 -46.5q-62 0 -97 32.5t-35 91.5v94q0 123 -99 123q-41 0 -65 -26.5t-24 -70.5q0 -46 25 -69.5t66 -23.5q28 0 39 2v-102q-21 -4 -50 -4
q-94 0 -138 61q-45 -61 -131 -61q-29 0 -63 6v102q24 -4 49 -4q41 0 65 23t24 70q0 44 -25 68t-70 24h-93v95h107q86 0 135 -62q48 72 135 72q74 0 113 -47v37h564v-95h-462v-38l54 -11q1 0 2.5 -0.5t2.5 -0.5l141 -29q95 -21 141 -60t46 -107q0 -95 -80.5 -150t-207.5 -70
q75 -32 112 -51l151 -78v-13zM603 311q26 0 46.5 24t20.5 52q0 20 -11 29.5t-38 14.5l-49 11v-96q0 -35 31 -35z" />
    <glyph glyph-name="bnNY_JA" horiz-adv-x="810" 
d="M753 -135h-113q-20 90 -20 180q0 102 30 189q-37 -16 -80 -16q-67 0 -116 33t-68 89q-44 -53 -44 -97q0 -37 23.5 -56.5t64.5 -19.5q58 0 117 26q18 -47 18 -94q0 -101 -60 -166t-175 -65q-131 0 -207.5 92t-76.5 244q0 29 1 45h110q-1 -14 -1 -41q0 -111 45.5 -177
t128.5 -66q61 0 93.5 31.5t36.5 85.5q-24 -6 -57 -6q-72 0 -120.5 45t-48.5 122q0 42 19 81.5t41 63.5t41 54.5t19 57.5q0 35 -24.5 55t-62.5 20q-44 0 -67 -22.5t-23 -62.5q0 -29 8 -58h-106q-9 36 -9 66q0 75 51.5 123.5t143.5 48.5q102 0 158 -64q52 64 145 64
q73 0 117 -37t44 -88q0 -75 -71 -102q71 -27 71 -103q0 -42 -31 -73l61 -1q-27 -117 -27 -221q0 -88 21 -180zM566 313q60 0 60 44q0 39 -67 39h-29v89h29q67 0 67 46q0 20 -17 32t-46 12q-36 0 -64 -17.5t-39 -48.5v-9q0 -32 -10 -62q6 -59 38.5 -92t77.5 -33z" />
    <glyph glyph-name="bnJ_JA" horiz-adv-x="1251" 
d="M587 285q0 -49 -16 -87q9 -91 57.5 -143t124.5 -52q66 0 101 32.5t35 85.5q-37 -10 -71 -10q-76 0 -122.5 43t-46.5 116q0 68 40 124q-201 39 -255 157q-71 -51 -71 -122q0 -73 86 -73q61 0 120 28q18 -48 18 -99zM1179 -104h-108q-17 74 -17 153q0 107 24 185
q-75 21 -145.5 63t-112.5 96q-55 -55 -55 -116q0 -73 86 -73q62 0 124 28q17 -48 17 -100q0 -100 -63 -162.5t-175 -62.5q-99 0 -168 49.5t-98 139.5q-61 -37 -143 -37q-130 0 -207 85.5t-77 231.5q0 29 1 44h111q-1 -13 -1 -38q0 -106 45.5 -166.5t127.5 -60.5
q65 0 100.5 31t37.5 86q-38 -9 -67 -9q-76 0 -122.5 43t-46.5 116q0 86 59 143h-326v95h1291v-95h-728q37 -47 118 -72.5t182 -25.5h50q36 -59 124 -107.5t186 -61.5q-42 -116 -42 -248q0 -72 18 -154z" />
    <glyph glyph-name="bnN_JA" horiz-adv-x="937" 
d="M297 296l-48 -25q-23 45 -42 66q11 -15 19 -42l-104 -8q-22 54 -49 66q-15 54 8.5 79.5t80.5 13.5q53 -3 88 -46t47 -104zM859 -41h-113q-19 81 -19 191q0 101 26 189q-188 28 -318 101v-63q0 -83 84 -83q60 0 126 29q18 -49 18 -107q0 -110 -70 -182.5t-192 -72.5
q-126 0 -206.5 76.5t-83.5 202.5h116q2 -83 49 -131t125 -48q72 0 113 39.5t41 107.5q-37 -10 -72 -10q-75 0 -119.5 45t-44.5 120l12 37q-9 56 -9 148v17h-342v95h977v-95h-522v-19q155 -106 448 -134q-44 -116 -44 -261q0 -104 20 -192z" />
    <glyph glyph-name="bnB_JA" horiz-adv-x="934" 
d="M856 -94h-113q-19 81 -19 200q0 101 26 190q-190 25 -318 95v-69q0 -82 84 -82q61 0 126 28q18 -49 18 -107q0 -110 -68.5 -182.5t-190.5 -72.5q-126 0 -209 75.5t-85 203.5h115q3 -84 52.5 -131t126.5 -47q73 0 112 39t39 107q-37 -10 -70 -10q-76 0 -121 48l-291 100
v111q106 86 252 132v31h-342v95h974v-95h-522v-67q146 -102 448 -130q-44 -116 -44 -261q0 -113 20 -201zM321 360v73q-75 -28 -142 -77l148 -58q-6 26 -6 62z" />
    <glyph glyph-name="bnNY_JHA" horiz-adv-x="837" 
d="M506 -173h-103l-255 112v103q103 70 255 117v4q0 38 -35 38q-20 0 -75.5 -16t-92.5 -16q-75 0 -118.5 39.5t-43.5 120.5q0 14 2 40h105q-1 -9 -1 -27q0 -71 70 -71q25 0 74.5 13.5t69.5 13.5q26 0 45 -17v236q0 28 -15 42t-41 14q-37 0 -66 -27.5t-29 -65.5q0 -49 54 -49
q18 0 31 1v-87q-21 -4 -45 -4q-68 0 -108.5 33.5t-40.5 100.5q0 82 60.5 138t150.5 56q102 0 137 -74q44 62 134 62q69 0 112.5 -37t43.5 -92q0 -77 -76 -104q33 -12 54.5 -38.5t21.5 -66.5q0 -62 -54 -99v-328h-108q0 127 -113 127v-192zM614 283q29 0 46 13.5t17 36.5
q0 48 -66 48h-26v85h26q66 0 66 52q0 22 -17 34.5t-46 12.5q-48 0 -78 -35t-30 -101v-6q0 -62 27.5 -101t80.5 -39zM512 114q74 0 107 -48v125q-67 1 -113 47v-124h6zM403 -79v142q-89 -31 -155 -71z" />
    <glyph glyph-name="bnJ_JHA" horiz-adv-x="1064" 
d="M563 298q0 -91 -63 -150t-167 -59q-126 0 -201.5 79t-75.5 217q0 12 2 42h106q-1 -13 -1 -36q0 -98 45 -152t125 -54q60 0 95 29t35 78q-35 -10 -66 -10q-74 0 -116.5 38.5t-42.5 108.5q0 81 57 136h-315v95h1104v-95h-95v-659h-108q0 127 -117 127h-11v-224h-112
l-255 112v103q126 85 255 125v49q0 106 28 188q-199 46 -257 165q-66 -49 -66 -114q0 -69 82 -69q58 0 118 27q17 -47 17 -97zM797 453q-44 -121 -44 -254v-71h21q74 0 107 -48v485h-352q57 -77 268 -112zM641 -97v149q-79 -29 -154 -78z" />
    <glyph glyph-name="bnC_NYA" horiz-adv-x="979" 
d="M566 54v256q0 56 -51 56q-36 0 -65 -27.5t-29 -65.5q0 -50 53 -50q7 0 31 2v-94q-21 -4 -45 -4q-66 0 -103 32q-21 -20 -49 -32v-12q0 -71 69 -71q25 0 74.5 13.5t70.5 13.5q25 0 44 -17zM670 -72h-104v12q0 37 -34 37q-19 0 -75 -16t-94 -16q-75 0 -118.5 38t-43.5 119
v9q-65 6 -101.5 44.5t-36.5 109.5v300h-83v95h1019v-95h-824v-44l78 -24q98 -29 138 -80q56 45 131 45q96 0 131 -68q49 56 135 56q67 0 108 -38.5t41 -90.5q0 -41 -21.5 -67t-54.5 -37q33 -12 54.5 -38.5t21.5 -66.5q0 -52 -41.5 -90.5t-108.5 -38.5q-68 0 -117 44v-99z
M227 208q40 0 65 32t25 77q0 34 -19.5 48.5t-67.5 29.5l-55 17v-147q0 -57 52 -57zM775 76q27 0 42.5 13t15.5 37q0 48 -66 48h-19v84h19q36 0 51 13t15 39q0 21 -15.5 34.5t-42.5 13.5q-47 0 -76 -36t-29 -94v-18q0 -60 28 -97t77 -37z" />
    <glyph glyph-name="bnK_TTA" horiz-adv-x="716" 
d="M581 -17q0 -70 -58 -110t-152 -40q-118 0 -185 52.5t-67 146.5q0 110 83 165l-157 71v111q131 112 267 135v51h-332v95h497q2 24 2 36q0 31 -12 47t-44 16q-24 0 -87.5 -10t-97.5 -10q-68 0 -106 21v90q37 -17 97 -17q30 0 99 12.5t106 12.5q75 0 113.5 -39.5
t38.5 -107.5q0 -21 -5 -51h155v-95h-317v-47q107 -4 175.5 -57t68.5 -137q0 -76 -44.5 -116t-118.5 -40q-13 0 -20 1v93h11q67 0 67 65q0 45 -38 69.5t-101 26.5v-239q-89 -16 -138 -52t-49 -100q0 -54 38.5 -80t100.5 -26q104 0 104 57q0 47 -78 47q-23 0 -40 -3v93
q22 3 49 3q77 0 126 -37.5t49 -102.5zM312 250v167q-87 -23 -167 -86z" />
    <glyph glyph-name="bnTT_TTA" horiz-adv-x="587" 
d="M495 324q0 -34 -11 -65q68 -52 68 -143q0 -99 -76.5 -153t-196.5 -54q-139 0 -248 68v112q47 -34 113 -56.5t135 -22.5q78 0 120.5 28t42.5 81q0 31 -16 53q-64 -58 -158 -58q-80 0 -132.5 43t-52.5 118v290h-103v95h396q3 18 3 36q0 31 -12 47t-44 16q-24 0 -77.5 -10
t-87.5 -10q-66 0 -103 21v90q36 -17 93 -17q31 0 91.5 12.5t93.5 12.5q75 0 113.5 -39.5t38.5 -107.5q0 -21 -5 -51h127v-95h-408v-290q0 -32 19 -48t50 -16q51 0 80.5 33t29.5 80q0 69 -71 69q-22 0 -41 -4v102q30 6 58 6q78 0 124.5 -46.5t46.5 -126.5z" />
    <glyph glyph-name="bnNN_TTA" horiz-adv-x="880" 
d="M837 265q0 -106 -70.5 -187.5t-186.5 -81.5q-76 0 -128.5 45t-52.5 121v254q0 66 -34.5 110t-102.5 44q-46 0 -73.5 -26.5t-27.5 -70.5q0 -46 26 -68.5t70 -22.5q28 0 53 4v-101q-34 -7 -66 -7q-91 0 -145 51.5t-54 143.5q0 86 54.5 141.5t140.5 55.5q109 0 159 -76v66
h312q2 24 2 36q0 31 -12 47t-44 16q-24 0 -84.5 -10t-94.5 -10q-66 0 -103 21v90q37 -17 94 -17q30 0 96 12.5t103 12.5q75 0 113.5 -39.5t38.5 -107.5q0 -21 -5 -51h85v-95h-385v-403q0 -31 18 -48t47 -17q63 0 102 51.5t39 116.5q0 91 -98 91q-22 0 -41 -4v102q30 6 58 6
q93 0 145 -53.5t52 -141.5z" />
    <glyph glyph-name="bnN_TTA" horiz-adv-x="866" 
d="M209 469q118 0 176 -97v193h-405v95h717q2 24 2 36q0 31 -12 47t-44 16q-24 0 -84.5 -10t-94.5 -10q-66 0 -103 21v90q37 -17 94 -17q30 0 96 12.5t103 12.5q75 0 113.5 -39.5t38.5 -107.5q0 -21 -5 -51h85v-95h-385v-403q0 -31 18 -48t47 -17q63 0 102 51.5t39 116.5
q0 91 -98 91q-22 0 -41 -4v102q30 6 58 6q93 0 145 -53.5t52 -141.5q0 -106 -70.5 -187.5t-186.5 -81.5q-76 0 -128.5 45t-52.5 121v8q0 77 -42 136.5t-113 59.5q-82 0 -82 -89q0 -27 5 -52h-113q-8 37 -8 62q0 79 46.5 130.5t130.5 51.5z" />
    <glyph glyph-name="bnL_TTA" horiz-adv-x="1035" 
d="M300 104q-32 -6 -64 -6q-88 0 -140.5 52t-52.5 141q0 81 47.5 133.5t131.5 52.5q58 0 95 -25.5t46 -66.5q10 40 39 66t75 26q51 0 78 -35v123h-575v95h887q2 24 2 36q0 31 -12 47t-44 16q-24 0 -84.5 -10t-94.5 -10q-66 0 -103 21v90q37 -17 94 -17q30 0 96 12.5
t103 12.5q75 0 113.5 -39.5t38.5 -107.5q0 -21 -5 -51h85v-95h-385v-403q0 -31 18 -48t47 -17q63 0 102 51.5t39 116.5q0 91 -98 91q-22 0 -41 -4v102q30 6 58 6q93 0 145 -53.5t52 -141.5q0 -106 -70.5 -187.5t-186.5 -81.5q-76 0 -128.5 45t-52.5 121v135l-1 -2
q0 84 -64 84q-67 0 -67 -101v-14h-119v20q0 94 -72 94q-35 0 -54 -24t-19 -64q0 -47 25 -70t65 -23q21 0 51 5v-98z" />
    <glyph glyph-name="bnSS_TTA" horiz-adv-x="598" 
d="M70 454q0 65 37 111h-127v95h435q2 24 2 36q0 31 -12 47t-44 16q-24 0 -86.5 -10t-96.5 -10q-68 0 -106 21v90q37 -17 96 -17q31 0 99 12.5t105 12.5q75 0 113 -39.5t38 -107.5q0 -15 -4 -51h100v-95h-127q37 -46 37 -111q0 -66 -33.5 -113.5t-91.5 -69.5v-1
q-19 -8 -59.5 -21t-63 -22.5t-49.5 -26t-40 -41t-13 -57.5q0 -53 36.5 -78t97.5 -25q102 0 102 57q0 46 -75 46q-18 0 -40 -2v92q22 3 49 3q75 0 123 -37.5t48 -101.5q0 -69 -58 -110t-150 -41q-116 0 -181 52t-65 145q0 118 118 174q-54 24 -84 69.5t-30 108.5zM417 454
q0 52 -32 80.5t-85 28.5q-40 0 -69 -17l180 -131q6 18 6 39zM300 342q46 0 74 21l-186 129q-5 -18 -5 -38q0 -53 32 -82.5t85 -29.5z" />
    <glyph glyph-name="bnP_TTA" horiz-adv-x="897" 
d="M855 265q0 -106 -70.5 -187.5t-186.5 -81.5q-77 0 -129.5 45t-52.5 121v185l-364 -214v121l100 58q-36 65 -105 88v50q0 86 56.5 153t159.5 67q106 0 153 -76v66h312q3 18 3 36q0 31 -12 47t-44 16q-24 0 -84.5 -10t-94.5 -10q-66 0 -103 21v90q36 -17 93 -17
q31 0 96.5 12.5t103.5 12.5q74 0 112.5 -39.5t38.5 -107.5q0 -21 -5 -51h85v-95h-385v-403q0 -31 18 -48t48 -17q63 0 102 51.5t39 116.5q0 91 -98 91q-22 0 -41 -4v102q30 6 58 6q93 0 145 -53.5t52 -141.5zM159 449q55 -26 83 -85l169 97q-10 50 -42.5 79t-86.5 29
q-56 0 -89.5 -33.5t-33.5 -86.5z" />
    <glyph glyph-name="bnPH_TTA" horiz-adv-x="805" 
d="M759 3q0 -85 -61.5 -137t-152.5 -52q-75 0 -125 42t-50 117v96l-314 118v111l138 99l-136 87v81h-78v95h616q2 24 2 36q0 31 -12 47t-44 16q-24 0 -86 -10t-96 -10q-66 0 -103 21v90q37 -17 94 -17q30 0 97.5 12.5t104.5 12.5q75 0 113 -39.5t38 -107.5q0 -15 -4 -51h125
v-95h-699l168 -116v-101l-124 -93l200 -82v334h111q105 0 180.5 -43.5t75.5 -125.5q0 -71 -45.5 -107.5t-121.5 -36.5q-17 0 -24 1v91h13q72 0 72 52q0 37 -44 55t-106 18v-438q0 -62 64 -62q46 0 76.5 25t30.5 64q0 53 -65 53q-21 0 -41 -4v95q30 6 60 6q69 0 111 -39
t42 -108z" />
    <glyph glyph-name="bnS_TTA" horiz-adv-x="643" 
d="M129 159q0 73 47.5 125t122.5 81q-33 24 -47 61q-14 -32 -47.5 -56t-83.5 -24q-51 0 -95 23v98q46 -20 88 -20q48 0 67.5 28.5t19.5 89.5h-221v95h480q2 24 2 36q0 31 -12 47t-44 16q-24 0 -86.5 -10t-96.5 -10q-67 0 -106 21v90q37 -17 96 -17q31 0 99 12.5t105 12.5
q75 0 113 -39.5t38 -107.5q0 -15 -4 -51h99v-95h-98q6 -32 6 -68q0 -106 -85 -144q-22 -12 -61.5 -29.5t-67 -31t-56.5 -33t-44 -44.5t-15 -56q0 -90 126 -90q106 0 106 53q0 47 -76 47q-18 0 -38 -2v92q21 3 47 3q77 0 125 -37.5t48 -102.5q0 -69 -60 -109.5t-152 -40.5
q-110 0 -174.5 48t-64.5 139zM394 434q65 0 65 79q0 32 -5 52h-141q2 -131 81 -131z" />
    <glyph glyph-name="bnNN_TTHA" horiz-adv-x="907" 
d="M850 265q0 -112 -64 -181.5t-177 -69.5q-116 0 -181 75t-65 202q0 47 5 86q4 27 4 56q0 137 -112 137q-46 0 -73 -26.5t-27 -70.5t26.5 -67.5t69.5 -23.5q22 0 42 3v-103q-24 -4 -55 -4q-91 0 -145 51.5t-54 143.5q0 88 58 144t158 56q106 0 165.5 -64t59.5 -185
q0 -15 -2 -45q82 12 82 103v136q-51 72 -51 130q0 59 40.5 96t112.5 37q15 0 51 -4v-101q-16 2 -27 2q-66 0 -66 -51q0 -29 25 -67h277v-95h-206l27 -36q102 -135 102 -264zM609 114q63 0 95.5 43t32.5 108q0 116 -78 233q1 -12 1 -38q0 -81 -46 -127.5t-127 -46.5h-10v-13
q0 -72 35 -115.5t97 -43.5z" />
    <glyph glyph-name="bnN_TTHA" horiz-adv-x="779" 
d="M723 239q0 -113 -64 -182.5t-177 -69.5q-111 0 -178 65.5t-67 175.5q0 42 5 81h8q-31 52 -70 56q-9 6 -19 15l-7 5l7 -7l16 -16q22 -9 38.5 -30.5t21.5 -45.5l-108 -8q-25 60 -49 73q-15 54 14.5 83t91.5 17q65 -3 108 -41t61 -100q84 12 84 104v151h-459v95h432
q-25 43 -25 88q0 59 40.5 96t113.5 37q15 0 51 -4v-101q-16 2 -28 2q-65 0 -65 -51q0 -21 28 -67h272v-95h-214l37 -60q33 -54 50.5 -87t34 -83.5t16.5 -95.5zM482 87q64 0 96 41.5t32 110.5q0 117 -77 235l-3 5q3 -43 3 -87q0 -81 -45.5 -127.5t-126.5 -46.5h-10
q1 -65 35.5 -98t95.5 -33z" />
    <glyph glyph-name="bnSS_TTHA" horiz-adv-x="695" 
d="M636 252q0 -110 -65 -177.5t-176 -67.5t-178.5 67t-67.5 181q0 21 1 30q-96 54 -96 169q0 65 37 111h-111v95h325q-24 46 -24 88q0 59 40.5 96t113.5 37q15 0 51 -4v-101q-16 2 -28 2q-65 0 -65 -51q0 -29 25 -67h297v-95h-227l28 -36q55 -73 87.5 -139.5t32.5 -137.5z
M395 107q64 0 95.5 39.5t31.5 105.5q0 68 -39 151q-13 -71 -64 -110.5t-136 -39.5h-18q0 -70 35.5 -108t94.5 -38zM283 565q-41 0 -70 -18l182 -132q5 20 5 39q0 52 -32 81.5t-85 29.5zM167 454q0 -53 32 -82.5t84 -29.5q45 0 75 21l-186 129q-5 -18 -5 -38z" />
    <glyph glyph-name="bnDD_DDA" horiz-adv-x="1116" 
d="M1063 261q0 -115 -72 -189t-197 -74q-90 0 -160 37.5t-109 106.5q-70 -57 -179 -57q-138 0 -219 83t-81 234q0 39 5 84h114q-4 -36 -4 -80q0 -109 48.5 -165t136.5 -56q78 0 118 42t40 114v4q-47 -25 -101 -25q-73 0 -113.5 40.5t-40.5 115.5v89h-269v95h1156v-95h-323
v-163q0 -58 57 -58q55 0 166 63q27 -67 27 -146zM613 339q0 -48 -13 -87q20 -71 71.5 -112t122.5 -41q79 0 119.5 44.5t40.5 119.5v7q-50 -26 -103 -26q-73 0 -113.5 41t-40.5 116v164h-332v-88q0 -57 56 -57t165 62q27 -67 27 -143z" />
    <glyph glyph-name="bnNN_DDA" horiz-adv-x="713" 
d="M655 174q0 -86 -74 -137t-198 -51q-146 0 -235.5 69t-89.5 210h116q0 -92 55.5 -135.5t153.5 -43.5q75 0 115.5 27t40.5 71q0 81 -111 81h-40v99h26q55 0 85.5 28.5t30.5 81.5q0 63 -52 84l-57 -97h-84q-7 113 -90 113q-36 0 -56 -22t-20 -59q0 -39 21 -59t58 -20
q30 0 54 5v-97q-35 -7 -66 -7q-81 0 -132.5 47.5t-51.5 130.5q0 76 49.5 126.5t127.5 50.5q111 0 153 -83l46 79q95 0 156 -57t61 -136q0 -59 -33 -100t-88 -55q60 -8 94.5 -44t34.5 -100z" />
    <glyph glyph-name="bnN_DDA" horiz-adv-x="736" 
d="M696 249q0 -116 -74.5 -191.5t-203.5 -75.5q-133 0 -210.5 72t-77.5 187h117q0 -74 47 -116t124 -42q81 0 125 44.5t44 123.5v11q-58 -29 -119 -29q-92 0 -129 68q-52 88 -126 88q-35 0 -52 -19.5t-17 -52.5q0 -21 3 -39h-116q-4 23 -4 47q0 74 45 120.5t127 46.5
q72 0 121 -46v119h-340v95h776v-95h-320v-175q0 -57 57 -57q56 0 176 64q27 -71 27 -148z" />
    <glyph glyph-name="bnB_DDA" horiz-adv-x="736" 
d="M689 184q0 -114 -76 -184.5t-207 -70.5q-133 0 -210 70t-77 184h117q0 -73 46.5 -113t123.5 -40q174 0 174 156v2q-51 -27 -110 -27q-62 0 -98 29l-302 103v112q103 82 249 127v33h-339v95h776v-95h-327v-247q0 -56 57 -56q60 0 176 64q27 -71 27 -142zM319 363v70
q-75 -28 -144 -75l151 -56q-7 24 -7 61z" />
    <glyph glyph-name="bnL_DDA" horiz-adv-x="969" 
d="M929 231q0 -115 -74.5 -189t-202.5 -74q-134 0 -212 70t-78 184h117q0 -72 48 -113t125 -41q81 0 124.5 43t43.5 122v12q-60 -30 -119 -30q-119 0 -142 111q-20 68 -70 68q-66 0 -66 -101v-14h-119v19q0 95 -72 95q-35 0 -54 -24.5t-19 -63.5q0 -47 25 -70t65 -23
q24 0 48 4v-98q-26 -5 -61 -5q-88 0 -140.5 52t-52.5 141q0 81 47.5 133.5t131.5 52.5q58 0 95 -26t46 -66q10 40 39 66t75 26q50 0 76 -31v104h-573v95h1009v-95h-320v-192q0 -57 57 -57q60 0 176 64q27 -70 27 -149z" />
    <glyph glyph-name="bnNN_DDHA" horiz-adv-x="880" 
d="M837 265q0 -106 -70.5 -187.5t-186.5 -81.5q-76 0 -128.5 45t-52.5 121v254q0 66 -34.5 110t-102.5 44q-46 0 -73.5 -26.5t-27.5 -70.5q0 -46 26 -68.5t70 -22.5q28 0 53 4v-101q-34 -7 -66 -7q-91 0 -145 51.5t-54 143.5q0 86 54.5 141.5t140.5 55.5q109 0 159 -76v66
h501v-95h-385v-403q0 -31 18 -48t47 -17q63 0 102 51.5t39 116.5q0 91 -98 91q-22 0 -41 -4v102q30 6 58 6q93 0 145 -53.5t52 -141.5z" />
    <glyph glyph-name="bnN_DDHA" horiz-adv-x="866" 
d="M32 287q0 79 46.5 130.5t130.5 51.5q118 0 176 -97v193h-405v95h906v-95h-385v-403q0 -31 18 -48t47 -17q63 0 102 51.5t39 116.5q0 91 -98 91q-22 0 -41 -4v102q30 6 58 6q93 0 145 -53.5t52 -141.5q0 -106 -70.5 -187.5t-186.5 -81.5q-76 0 -128.5 45t-52.5 121v8
q0 77 -42 136.5t-113 59.5q-82 0 -82 -89q0 -27 5 -52h-113q-8 37 -8 62z" />
    <glyph glyph-name="bnB_DDHA" horiz-adv-x="800" 
d="M757 265q0 -106 -70.5 -187.5t-186.5 -81.5q-67 0 -116.5 35t-61.5 96l-271 131v116q121 97 268 140v51h-339v95h840v-95h-385v-403q0 -31 18 -48t47 -17q63 0 102 51.5t39 116.5q0 91 -98 91q-22 0 -41 -4v102q30 6 58 6q93 0 145 -53.5t52 -141.5zM319 236v176
q-86 -30 -171 -90z" />
    <glyph glyph-name="bnNN_NNA" 
d="M489 -76h-116v132q0 63 -30.5 102t-90.5 39q-40 0 -64 -21t-24 -60q0 -76 85 -76q21 0 44 3v-99q-25 -5 -56 -5q-83 0 -135 46t-52 131q0 77 50 127t131 50q96 0 142 -64v203q0 64 -30.5 103t-90.5 39q-39 0 -63.5 -21t-24.5 -60q0 -77 85 -77q8 0 15.5 0.5t15.5 1.5
t13 1v-98q-25 -5 -56 -5q-83 0 -135 46t-52 131q0 77 50 127t131 50q96 0 142 -64v135h116v-81h96v-95h-96v-641z" />
    <glyph glyph-name="bnH_NNA" horiz-adv-x="472" 
d="M397 -207h-106v107q0 46 -23.5 71.5t-67.5 25.5q-30 0 -47.5 -14t-17.5 -40q0 -52 63 -52q19 0 29 2v-87q-14 -2 -41 -2q-67 0 -109 37.5t-42 102.5q0 62 42.5 101.5t109.5 39.5q68 0 104 -42v63l-210 65v90h91q129 2 129 100q0 67 -67 67q-30 0 -46.5 -18t-16.5 -49
q0 -23 5 -41h-106q-7 24 -7 53q0 63 46.5 104t121.5 41q81 0 131 -44t50 -112q0 -120 -134 -156l169 -51v-97l-50 15v-280zM492 565h-512v95h512v-95z" />
    <glyph glyph-name="bnSS_NNA" horiz-adv-x="871" 
d="M627 155q37 0 59 18t22 49q0 70 -87 70h-38v99h38q87 0 87 70q0 32 -23 49.5t-60 17.5q-54 0 -87.5 -36t-33.5 -97v-107q0 -61 34 -97t89 -36zM818 214q0 -63 -48.5 -109.5t-128.5 -46.5q-84 0 -137 55v-113h-116l-344 153l1 1v114l157 115l-40 23l1 2l-116 71v86h-67v95
h524v-91q53 56 136 56q80 0 129 -46t49 -109q0 -49 -27 -81.5t-66 -46.5q39 -14 66 -46.5t27 -81.5zM310 438l78 -50v177h-277zM388 115v158l-89 53l-137 -105z" />
    <glyph glyph-name="bnK_SS_NNA" horiz-adv-x="996" 
d="M535 425q25 0 46 4v136h-110v-82q0 -32 16 -45t48 -13zM303 321q0 -17 -5 -35q171 -8 283 -61v111q-34 -4 -48 -4q-81 0 -127.5 39t-46.5 111v83h-89q7 -18 7 -41q0 -83 -98 -102q58 -5 91 -31.5t33 -69.5zM693 -188h-112v111q0 48 -23.5 77t-70.5 29q-33 0 -52 -17
t-19 -49q0 -63 70 -63q10 0 30 2v-84q-15 -3 -42 -3q-79 0 -122 40.5t-43 111.5q0 62 41.5 104t111.5 41q77 0 119 -50v68q-148 64 -312 64q-45 0 -71 -22.5t-26 -63.5q0 -11 1 -16h-110q-4 28 -4 38q0 55 33 94.5t93 54.5q6 12 6 30q0 57 -118 57h-23v95h27q90 0 90 65
q0 20 -8 39h-179v95h1036v-95h-323v-118q24 3 46 3q94 0 152 -43.5t58 -124.5q0 -79 -44.5 -124.5t-121.5 -45.5q-19 0 -26 1v101h10q75 0 75 68q0 41 -26.5 58t-78.5 17q-21 0 -44 -3v-542z" />
    <glyph glyph-name="bnK_TA" horiz-adv-x="847" 
d="M547 94q0 -74 -57.5 -116t-149.5 -42q-131 0 -209 78.5t-78 221.5q0 14 2 40h112v-34q0 -111 43 -160t128 -49q46 0 72 18.5t27 54.5q0 68 -115 68h-34v92h21q50 0 78.5 25t28.5 68q0 30 -17.5 47.5t-50.5 17.5q-30 0 -47 -17.5t-17 -45.5q0 -20 7 -46h-106q-9 29 -9 59
q0 62 46 102t122 40q115 0 164 -80q43 43 112 43q83 0 135 -51.5t52 -127.5q0 -84 -46.5 -132t-132.5 -48q-26 0 -48 3v98q11 -1 37 -1q36 0 56.5 21.5t20.5 60.5q0 35 -21.5 56t-58.5 21q-62 0 -91 -62q-10 -37 -37 -61.5t-67 -32.5q60 -5 94 -38t34 -91zM867 565h-887v95
h887v-95z" />
    <glyph glyph-name="bnT_TA" horiz-adv-x="597" 
d="M547 95q0 -74 -58 -116.5t-150 -42.5q-130 0 -208 78.5t-78 221.5q0 14 2 40h112v-34q0 -112 43 -160.5t127 -48.5q45 0 72 18.5t28 54.5q0 68 -115 68h-34v92h21q50 0 78.5 25t28.5 68q0 30 -17.5 47.5t-50.5 17.5q-30 0 -47 -17.5t-17 -45.5q0 -20 7 -46h-106
q-9 29 -9 59q0 62 46 102t122 40q84 0 134.5 -45.5t50.5 -111.5q0 -53 -29.5 -89t-80.5 -47q60 -5 94 -38t34 -90zM617 565h-637v95h637v-95z" />
    <glyph glyph-name="bnN_TA" horiz-adv-x="643" 
d="M585 181q0 -102 -67.5 -163t-184.5 -61q-125 0 -197.5 77.5t-72.5 207.5l111 1q0 -91 40.5 -142t118.5 -51q68 0 104.5 35.5t36.5 97.5q0 36 -16 57.5t-47 21.5q-27 0 -41 -17t-14 -46q0 -25 10 -61h-97q-15 33 -15 74q0 55 30.5 91t84.5 47q-33 8 -83.5 38.5t-78.5 30.5
q-42 0 -42 -48q0 -20 4 -36h-107q-7 28 -7 58q0 54 33 89.5t94 35.5q50 0 114.5 -38t92.5 -38q32 0 47 20t15 50q0 26 -5 53h-466v95h683v-95h-106q6 -32 6 -68q0 -57 -28.5 -96.5t-82.5 -51.5q63 -12 98 -57t35 -111z" />
    <glyph glyph-name="bnP_TA" horiz-adv-x="653" 
d="M607 144q0 -101 -67.5 -162.5t-184.5 -61.5q-121 0 -194.5 66.5t-73.5 184.5h110q0 -158 157 -158q69 0 105 35t36 98q0 79 -62 79q-55 0 -55 -63q0 -28 9 -60h-97q-14 35 -14 73q0 62 37 99t101 42v73l-364 -180v116l90 43q-34 52 -91 71v18q0 85 54.5 149t157.5 64
q107 0 153 -75v146h116v-81h143v-95h-143v-272q77 -46 77 -149zM160 483q47 -23 73 -70l169 80q-30 83 -123 83q-48 0 -79.5 -26.5t-39.5 -66.5z" />
    <glyph glyph-name="bnM_TA" horiz-adv-x="650" 
d="M584 179q0 -102 -67.5 -163t-184.5 -61q-129 0 -199 77.5t-70 202.5h111q0 -86 37.5 -136.5t119.5 -50.5q69 0 105 35t36 98q0 79 -62 79q-28 0 -42 -17.5t-14 -46.5q0 -24 10 -60h-97q-14 35 -14 74q0 56 31.5 92.5t87.5 45.5q-33 5 -85.5 24t-80.5 19
q-21 0 -32.5 -13.5t-11.5 -35.5q0 -1 3 -25h-115q-5 23 -5 41q0 89 78 120q-12 59 -54 87h-89v95h690v-95h-94q7 -29 7 -68q0 -61 -33.5 -101t-99.5 -49q63 -12 98.5 -57t35.5 -111zM408 442q62 0 62 70q0 32 -4 53h-262q21 -37 25 -79q32 -5 90.5 -24.5t88.5 -19.5z" />
    <glyph glyph-name="bnL_TA" horiz-adv-x="795" 
d="M746 80q0 -101 -67.5 -162.5t-183.5 -61.5q-121 0 -195 65.5t-74 184.5h111q0 -157 157 -157q68 0 104.5 35.5t36.5 97.5q0 79 -63 79q-27 0 -41 -17t-14 -46q0 -23 10 -61h-97q-14 35 -14 74q0 59 34 96t93 44v67q0 84 -64 84q-67 0 -67 -101v-11h-114v17q0 94 -70 94
q-33 0 -52 -22t-19 -59q0 -79 84 -79q15 0 37 2v-95q-24 -3 -49 -3q-86 0 -135 44.5t-49 132.5q0 75 45 126.5t125 51.5q57 0 93 -25.5t47 -66.5q10 40 38.5 66t73.5 26q51 0 76 -34v99h-563v95h835v-95h-165v-327q96 -40 96 -158z" />
    <glyph glyph-name="bnSH_TA" horiz-adv-x="743" 
d="M700 117q0 -101 -67.5 -162t-184.5 -61q-124 0 -197 75.5t-73 209.5q0 30 4 51h110q-3 -25 -3 -50q0 -193 159 -193q68 0 104.5 35t36.5 98q0 79 -63 79q-27 0 -41 -17.5t-14 -46.5q0 -24 10 -60h-97q-14 35 -14 74q0 56 31 92.5t87 45.5v154q0 59 -26 94t-81 35
q-42 0 -67.5 -23.5t-25.5 -67.5q0 -91 93 -91q25 0 36 1v-101q-23 -4 -49 -4q-95 0 -139 61q-48 -61 -135 -61q-28 0 -62 6v102q24 -4 49 -4q93 0 93 91q0 43 -27.5 64.5t-73.5 21.5h-93v95h107q88 0 141 -61q47 71 139 71q81 0 121 -50v121h116v-81h159v-95h-159v-290
q96 -40 96 -158z" />
    <glyph glyph-name="bnS_TA" horiz-adv-x="649" 
d="M412 435q64 0 64 77q0 28 -6 53h-139q2 -130 81 -130zM-20 660h689v-95h-87q6 -32 6 -66q0 -58 -31 -97t-90 -52q58 -14 90 -58.5t32 -108.5q0 -99 -65.5 -161t-182.5 -62q-124 0 -200.5 79.5t-76.5 217.5q0 13 2 37h115q-1 -14 -1 -40q0 -201 161 -201q69 0 104 35
t35 98q0 79 -62 79q-28 0 -42 -17.5t-14 -46.5q0 -24 10 -60h-97q-14 35 -14 74q0 53 27.5 88t77.5 47q-68 16 -96 77q-13 -35 -47 -58.5t-85 -23.5q-50 0 -94 23v98q46 -20 87 -20q49 0 68.5 29t19.5 90h-239v95z" />
    <glyph glyph-name="bnT_THA" horiz-adv-x="813" 
d="M737 0h-113l-545 199v97h91q275 2 275 194q0 37 -12.5 61.5t-37.5 24.5q-45 0 -45 -78v-54h-101v54q0 75 -47 75q-50 0 -50 -79q0 -39 16 -100h-106q-19 50 -19 105q0 73 37.5 122t109.5 49q73 0 105 -56q32 57 101 57q74 0 114.5 -52.5t40.5 -128.5q0 -110 -70 -177.5
t-187 -88.5l330 -124v641h113v-81h96v-95h-96v-565z" />
    <glyph glyph-name="bnN_THA" horiz-adv-x="611" 
d="M156 335h-107q-7 28 -7 58q0 54 33 89.5t94 35.5q50 0 114.5 -38t92.5 -38q32 0 47 20t15 50q0 26 -5 53h-453v95h651v-95h-87q6 -32 6 -68q0 -62 -34 -103t-96 -48q44 -19 68 -55.5t24 -84.5q0 -116 -127 -146l128 -42v-96l-320 104v90h85q130 2 130 90q0 32 -18 50
t-50 18q-30 0 -46.5 -18.5t-16.5 -49.5q0 -21 4 -41h-99q-7 25 -7 52q0 60 39 100t107 44q-18 8 -43 24t-45 25t-39 9q-42 0 -42 -48q0 -20 4 -36z" />
    <glyph glyph-name="bnM_THA" horiz-adv-x="615" 
d="M378 442q62 0 62 70q0 32 -4 53h-241q21 -37 25 -79q29 -5 78.5 -24.5t79.5 -19.5zM528 17v-96l-319 104v90h84q130 2 130 90q0 32 -18 50t-50 18q-30 0 -46.5 -18.5t-16.5 -49.5q0 -21 4 -41h-99q-7 23 -7 52q0 53 31 91t87 50q-15 5 -36.5 14t-38.5 14.5t-36 5.5
q-21 0 -32.5 -13.5t-11.5 -35.5q0 -1 3 -25h-115q-5 23 -5 41q0 89 78 120q-12 59 -54 87h-80v95h655v-95h-89q7 -29 7 -68q0 -58 -32 -98t-94 -51q48 -17 74 -55t26 -88q0 -116 -128 -146z" />
    <glyph glyph-name="bnS_THA" horiz-adv-x="634" 
d="M403 435q64 0 64 77q0 28 -6 53h-139q2 -130 81 -130zM205 214q0 57 34.5 96t96.5 47q-50 19 -75 70q-13 -35 -47 -58.5t-85 -23.5q-50 0 -94 23v98q46 -20 87 -20q49 0 68.5 29t19.5 90h-230v95h674v-95h-81q6 -32 6 -66q0 -62 -36 -102.5t-103 -49.5q48 -17 75 -55
t27 -89q0 -116 -127 -146l128 -42v-96l-320 104v90h85q130 2 130 90q0 32 -18 50t-50 18q-30 0 -46.5 -18.5t-16.5 -49.5q0 -21 4 -41h-99q-7 24 -7 52z" />
    <glyph glyph-name="bnG_DA" horiz-adv-x="886" 
d="M813 0h-113v323q-103 -88 -176 -184h-112v274q0 156 -130 156q-107 0 -121 -100q80 -2 130 -44t51 -118q-1 -84 -59 -128.5t-156 -44.5q-42 0 -84 9v96q40 -4 84 -4q99 0 99 71t-99 71h-81v62q0 97 58 164t159 67q106 0 149 -69v59h494v-95h-382v-271q87 99 176 155h113
v-449z" />
    <glyph glyph-name="bnD_DA" horiz-adv-x="819" 
d="M839 565h-655v-230q88 102 174 154h112v-239q42 49 90.5 92t83.5 64h113v-406h-113v280q-96 -82 -174 -184h-112v269q-41 -34 -89.5 -86t-84.5 -100h-113v386h-77v95h845v-95z" />
    <glyph glyph-name="bnN_DA" horiz-adv-x="771" 
d="M709 0h-113v267q-110 -96 -174 -183h-112v273q-17 7 -57.5 34.5t-64.5 27.5q-42 0 -42 -48q0 -20 4 -36h-101q-7 28 -7 58q0 54 33 89.5t94 35.5q39 0 72 -19t59.5 -38t50.5 -19q59 0 59 70q0 26 -5 53h-425v95h811v-95h-275q6 -32 6 -68q0 -54 -26 -92.5t-74 -52.5v-113
q79 91 174 155h113v-394z" />
    <glyph glyph-name="bnB_DA" horiz-adv-x="781" 
d="M801 565h-372v-270q43 49 93 91.5t83 62.5h112v-449h-112v324q-104 -88 -176 -185h-113l-265 134v111q118 91 265 133v48h-336v95h821v-95zM316 244v173q-84 -31 -166 -85z" />
    <glyph glyph-name="bnM_DA" horiz-adv-x="808" 
d="M165 317h-111q-5 20 -5 41q0 90 74 120q-12 59 -54 87h-89v95h848v-95h-287q7 -29 7 -68q0 -113 -103 -144v-115q47 53 101 97t87 59h113v-394h-113v273q-46 -35 -99 -88t-89 -101h-112v266q-16 4 -57 22.5t-70 18.5q-21 0 -32.5 -13.5t-11.5 -35.5q0 -1 3 -25zM373 442
q62 0 62 70q0 32 -4 53h-227q21 -37 25 -80q19 -4 66 -23.5t78 -19.5z" />
    <glyph glyph-name="bnL_DA" horiz-adv-x="1027" 
d="M961 0h-112v328q-47 -36 -100 -89t-88 -100h-113v179q0 36 -15.5 60t-50.5 24q-68 0 -68 -101v-11h-114v17q0 94 -73 94q-34 0 -54 -24t-20 -63q0 -43 23.5 -66t67.5 -23q15 0 37 2v-98q-23 -3 -48 -3q-88 0 -140.5 49.5t-52.5 138.5q0 77 47.5 131.5t128.5 54.5
q58 0 94.5 -25.5t45.5 -66.5q11 40 40 66t74 26q51 0 78 -35v100h-568v95h1067v-95h-386v-272q47 52 100.5 96t87.5 60h112v-449z" />
    <glyph glyph-name="bnG_DHA" horiz-adv-x="782" 
d="M144 -8v111q117 65 259 121v189q0 156 -130 156q-90 0 -110 -73q77 -4 123 -40.5t47 -105.5q-1 -78 -57.5 -119t-154.5 -41q-41 0 -76 7v93q33 -3 73 -3q99 0 99 63q0 62 -99 62h-75v27q0 98 55.5 164.5t155.5 66.5q106 0 149 -69v140h116v-81h283v-95h-283v-299
q61 19 99 29h106v-350h-106v245q-66 -20 -99 -32v-279h-116zM403 -21v136q-85 -34 -149 -66z" />
    <glyph glyph-name="bnN_DHA" horiz-adv-x="748" 
d="M208 499q109 0 161 -87v153h-389v95h785v-95h-287v-213q30 10 99 31h106v-345h-106v239q-49 -15 -99 -33v-277h-109l-258 113l-1 -1v111q104 58 238 114q-18 41 -49 66.5t-70 25.5q-38 0 -56 -26t-18 -63q0 -14 2 -38h-114q-5 28 -5 48q0 78 43.5 130t126.5 52zM369 67
v135q-79 -32 -148 -66z" />
    <glyph glyph-name="bnD_DHA" horiz-adv-x="720" 
d="M173 236h-113v329h-80v95h760v-95h-567v-195q79 82 168 119h113v-190q59 21 104 32h106v-350h-106v245q-34 -11 -104 -35v-275h-113l-258 112v111q137 70 258 118v119q-89 -51 -168 -140zM341 16v131q-71 -27 -145 -63z" />
    <glyph glyph-name="bnB_DHA" horiz-adv-x="706" 
d="M435 -66h-113l-258 112v104q63 36 144 72l-153 70v111q126 81 267 126v36h-342v95h746v-95h-291v-253q67 22 104 31h106v-351h-106v251q-47 -13 -104 -33v-276zM322 272v156q-78 -28 -162 -78zM322 35v133q-69 -27 -147 -65z" />
    <glyph glyph-name="bnL_DHA" horiz-adv-x="922" 
d="M285 144q-23 -3 -48 -3q-86 0 -137 46t-51 132q0 74 45 127.5t124 53.5q58 0 93 -25.5t44 -65.5q9 39 42 65t79 26q40 0 61 -21v86h-557v95h962v-95h-292v-294q67 22 104 31h106v-350h-106v245q-86 -28 -104 -34v-277h-113l-258 113v111q117 64 258 120v88q0 84 -60 84
q-64 0 -64 -93v-15h-114v15q0 93 -70 93q-32 0 -49.5 -22.5t-17.5 -60.5q0 -39 22.5 -59t59.5 -20q19 0 41 2v-98zM537 -13v134q-83 -33 -148 -65z" />
    <glyph glyph-name="bnK_NA" horiz-adv-x="767" 
d="M459 -93h-113q-17 46 -53.5 81t-87.5 35q-61 0 -61 -71q0 -19 1 -26h-115q-2 26 -2 38q0 70 41.5 114t117.5 44q100 0 159 -68v82l-283 124v116q67 58 132 91t151 49v49h-366v95h807v-95h-328v-48q106 -2 183 -54.5t77 -140.5q0 -77 -47.5 -120t-128.5 -43q-13 0 -20 1
v99h11q72 0 72 63q0 47 -42.5 69t-104.5 25v-509zM346 244v169q-92 -23 -174 -89z" />
    <glyph glyph-name="bnG_NA" horiz-adv-x="594" 
d="M519 -56h-116q-17 45 -54 80.5t-87 35.5q-62 0 -62 -71q0 -12 2 -26h-115q-3 19 -3 38q0 70 41.5 114t117.5 44q100 0 160 -69v323q0 156 -130 156q-90 0 -110 -73q77 -4 123 -40.5t47 -105.5q-1 -78 -57.5 -119t-154.5 -41q-41 0 -76 7v93q33 -3 73 -3q99 0 99 63
q0 62 -99 62h-75v27q0 98 55.5 164.5t155.5 66.5q106 0 149 -69v140h116v-81h95v-95h-95v-621z" />
    <glyph glyph-name="bnGH_NA" horiz-adv-x="587" 
d="M326 357l-124 -64l197 -55v327h-138q-93 0 -93 -63q0 -56 86 -56q38 0 72 8v-97zM511 -101h-112q-17 46 -53.5 81t-87.5 35q-61 0 -61 -71q0 -18 1 -26h-115q-2 26 -2 38q0 70 41.5 114t117.5 44q100 0 159 -68v90l-339 93v98q61 32 115 58q-129 18 -129 106q0 46 39 74
h-101v95h623v-95h-96v-666z" />
    <glyph glyph-name="bnC_NA" horiz-adv-x="533" 
d="M270 224q39 0 63 30t24 72q0 32 -20.5 47t-67.5 26l-51 13v-131q0 -57 52 -57zM442 -133h-112q-43 116 -124 116q-58 0 -58 -70q0 -18 1 -26h-115q-2 28 -2 40q0 68 41 111.5t115 43.5q89 0 142 -62v115q-28 -9 -62 -9q-75 0 -119 39.5t-44 115.5v284h-125v95h573v-95
h-335v-45l71 -16q93 -22 139 -61.5t46 -116.5q0 -56 -32 -106v-353z" />
    <glyph glyph-name="bnD_NA" horiz-adv-x="546" 
d="M474 -52h-113q-17 46 -54 81.5t-87 35.5q-61 0 -61 -72q0 -18 1 -26h-115q-2 26 -2 38q0 70 41.5 114t117.5 44q100 0 159 -68v277q-98 -64 -188 -160h-113v353h-80v95h586v-95h-393v-211q82 83 188 135h113v-541z" />
    <glyph glyph-name="bnDH_NA" horiz-adv-x="588" 
d="M511 -101h-112q-17 46 -53.5 81t-87.5 35q-61 0 -61 -71q0 -18 1 -26h-115q-2 26 -2 38q0 70 41.5 114t117.5 44q100 0 159 -68v90l-339 93v98q50 28 113 60q-59 12 -93 46.5t-34 87.5q0 69 51 109t138 40q35 0 59 -4v-95q-22 2 -37 2q-39 0 -63.5 -16t-24.5 -48
q0 -60 85 -60q40 0 83 18q6 3 28.5 13t33.5 15v165h208v-95h-96v-666zM399 238v155l-197 -100z" />
    <glyph glyph-name="bnT_NA" horiz-adv-x="634" 
d="M508 -148h-112q-17 45 -54 80.5t-87 35.5q-62 0 -62 -71q0 -10 2 -26h-115q-3 19 -3 38q0 70 41.5 114t117.5 44q100 0 160 -69v125q-37 -8 -75 -8q-128 0 -200 66.5t-72 193.5q0 50 7 92h112q-7 -45 -7 -93q0 -158 157 -158q68 0 106 34.5t38 95.5q0 77 -59 77
q-26 0 -40 -19.5t-14 -49.5q0 -32 8 -58h-102q-11 31 -11 69q0 69 41 111t114 42q82 0 129 -49t47 -125q0 -99 -67 -163v-329zM654 565h-674v95h674v-95z" />
    <glyph glyph-name="bnN_NA" horiz-adv-x="587" 
d="M511 -39h-116v1l-1 -1q-17 46 -55 81t-92 35q-61 0 -61 -72q0 -18 1 -26h-115q-2 28 -2 38q0 71 41.5 114.5t117.5 43.5q105 0 166 -72v55q0 78 -48 139t-118 61q-40 0 -60.5 -24t-20.5 -64q0 -27 5 -52h-113q-8 37 -8 62q0 77 48 129t132 52q121 0 183 -87v191h-415v95
h627v-95h-96v-604z" />
    <glyph glyph-name="bnP_NA" horiz-adv-x="606" 
d="M160 483q50 -24 78 -80l168 80q-29 93 -127 93q-48 0 -79.5 -26.5t-39.5 -66.5zM530 741v-81h96v-95h-96v-565h-116q-17 46 -53.5 81t-87.5 35q-61 0 -61 -72q0 -18 1 -25h-115q-2 26 -2 38q0 70 41.5 113.5t117.5 43.5q100 0 159 -68v231l-364 -180v116l96 46
q-33 58 -97 80v18q0 85 54.5 149t157.5 64q107 0 153 -75v146h116z" />
    <glyph glyph-name="bnM_NA" horiz-adv-x="618" 
d="M398 432q33 0 49 20.5t16 54.5q0 26 -9 58h-254q21 -38 26 -83q26 -5 80.5 -27.5t91.5 -22.5zM496 0h-112q-16 53 -51 92.5t-83 39.5q-61 0 -61 -72q0 -18 1 -25h-115q-2 26 -2 38q0 70 41.5 113.5t116.5 43.5q94 0 153 -73v178q-37 4 -94 28.5t-86 24.5q-46 0 -46 -49
q0 -13 3 -25h-116q-4 28 -4 41q0 90 78 120q-12 61 -54 90h-85v95h658v-95h-73q9 -33 9 -71q0 -104 -78 -143v-351z" />
    <glyph glyph-name="bnSH_NA" horiz-adv-x="673" 
d="M586 0h-116q-20 51 -54 87t-80 36q-61 0 -61 -72q0 -18 1 -25h-115q-2 26 -2 38q0 70 41.5 113.5t116.5 43.5q93 0 153 -71v297q0 123 -99 123q-41 0 -65 -26.5t-24 -70.5q0 -46 25 -69.5t66 -23.5q28 0 39 2v-102q-21 -4 -50 -4q-94 0 -138 61q-45 -61 -131 -61
q-29 0 -63 6v102q24 -4 49 -4q41 0 65 23t24 70q0 44 -25 68t-70 24h-93v95h107q86 0 135 -62q48 72 135 72q74 0 113 -47v118h116v-81h107v-95h-107v-565z" />
    <glyph glyph-name="bnS_NA" horiz-adv-x="630" 
d="M408 435q63 0 63 77q0 25 -5 53h-140q2 -130 82 -130zM70 73q0 70 41.5 113.5t116.5 43.5q94 0 153 -73v186q-85 14 -115 85q-13 -36 -46.5 -59.5t-85.5 -23.5q-51 0 -95 23v98q46 -20 88 -20q48 0 67.5 29t19.5 90h-234v95h670v-95h-73q7 -29 7 -66q0 -50 -23.5 -88
t-67.5 -56v-355h-112q-16 53 -51 92.5t-83 39.5q-61 0 -61 -72q0 -18 1 -25h-115q-2 26 -2 38z" />
    <glyph glyph-name="bnH_NA" horiz-adv-x="696" 
d="M391 -9h-150l-178 140v93h95q134 2 134 113q0 39 -19 61t-53 22q-32 0 -49.5 -20t-17.5 -53q0 -29 7 -53h-107q-10 30 -10 65q0 69 47 112.5t127 43.5q59 0 102.5 -25.5t65.5 -68.5q38 53 107 53q76 0 118.5 -47.5t42.5 -114.5q0 -75 -40.5 -119.5t-118.5 -44.5
q-34 0 -51 4v91q20 -3 42 -3q31 0 47.5 18t16.5 51q0 31 -16.5 49.5t-47.5 18.5q-55 0 -84 -81q-13 -66 -66 -104.5t-134 -46.5l190 -150v-4zM716 565h-736v95h736v-95z" />
    <glyph glyph-name="bnK_SS_NA" horiz-adv-x="996" 
d="M535 425q25 0 46 4v136h-110v-82q0 -32 16 -45t48 -13zM303 321q0 -17 -5 -35q171 -8 283 -61v111q-34 -4 -48 -4q-81 0 -127.5 39t-46.5 111v83h-89q7 -18 7 -41q0 -83 -98 -102q58 -5 91 -31.5t33 -69.5zM693 -98h-112v2q-20 37 -63.5 68t-88.5 31q-31 0 -46 -19
t-15 -49q0 -19 1 -26h-115q-2 26 -2 38q0 69 41.5 111.5t116.5 42.5q100 0 171 -71v100q-148 64 -312 64q-45 0 -71 -22.5t-26 -63.5q0 -11 1 -16h-110q-4 28 -4 38q0 55 33 94.5t93 54.5q6 12 6 30q0 57 -118 57h-23v95h27q90 0 90 65q0 20 -8 39h-179v95h1036v-95h-323
v-118q24 3 46 3q94 0 152 -43.5t58 -124.5q0 -79 -44.5 -124.5t-121.5 -45.5q-19 0 -26 1v101h10q75 0 75 68q0 41 -26.5 58t-78.5 17q-21 0 -44 -3v-452z" />
    <glyph glyph-name="bnM_PA" horiz-adv-x="1020" 
d="M156 314h-115q-5 23 -5 41q0 90 79 120q-12 60 -55 90h-80v95h540q8 -15 16 -37q57 47 139 47q106 0 153 -76v147h116v-81h96v-95h-96v-565h-116v347l-353 -208v122l89 51q-21 38 -53 62q-38 -33 -105 -33q-53 0 -117.5 23.5t-91.5 23.5q-21 0 -32.5 -13.5t-11.5 -35.5
q0 -1 3 -25zM399 439q62 0 62 70q0 28 -5 56h-261q21 -36 26 -82q32 -5 90 -24.5t88 -19.5zM571 449q55 -26 83 -85l169 98q-10 49 -42.5 78t-86.5 29q-56 0 -89.5 -33.5t-33.5 -86.5z" />
    <glyph glyph-name="bnL_PA" horiz-adv-x="727" 
d="M388 256q104 0 151 -74v136q0 84 -62 84q-67 0 -67 -96v-8h-114v9q0 94 -71 94q-35 0 -53.5 -25.5t-18.5 -64.5q0 -46 27.5 -68.5t72.5 -22.5q13 0 19 1q49 35 116 35zM295 70q43 -21 70 -66l164 71q-30 88 -125 88q-91 0 -109 -93zM652 -185h-113v160l-354 -159v109
l85 37q-32 45 -86 63v18q0 43 15 82q-73 11 -116 60.5t-43 126.5q0 78 45.5 133t125.5 55q58 0 94 -26t47 -66q10 40 40 66t72 26q50 0 75 -32v97h-559v95h767v-95h-95v-750z" />
    <glyph glyph-name="bnSS_PA" horiz-adv-x="957" 
d="M276 565q-41 0 -71 -18l182 -131q7 17 7 41q0 52 -33.5 80t-84.5 28zM158 457q0 -53 33.5 -81.5t84.5 -28.5q42 0 71 19l-184 127q-5 -18 -5 -36zM509 449q64 -31 92 -107l162 105q-8 56 -41 89t-91 33q-55 0 -88.5 -33.5t-33.5 -86.5zM977 565h-96v-565h-116v326
l-343 -228v128l93 60q-13 35 -38 63q-63 -97 -201 -97q-103 0 -167 56.5t-64 148.5q0 58 32 108h-97v95h295h1q104 0 172 -63q59 73 164 73q107 0 153 -75v146h116v-81h96v-95z" />
    <glyph glyph-name="bnS_PA" horiz-adv-x="1029" 
d="M405 436q32 0 47.5 21t15.5 53q0 29 -6 55h-139q0 -129 82 -129zM473 254l100 58q-21 38 -52 61q-43 -37 -114 -37q-55 0 -91.5 26t-53.5 65q-14 -35 -47.5 -58.5t-84.5 -23.5q-50 0 -94 23v98q46 -20 87 -20q49 0 68.5 28.5t19.5 90.5h-231v95h550q4 -8 16 -36
q56 46 138 46q106 0 153 -76v147h116v-81h96v-95h-96v-565h-116v347l-364 -214v121zM580 449q55 -26 83 -85l169 97q-10 50 -42.5 79t-86.5 29q-55 0 -89 -33.5t-34 -86.5z" />
    <glyph glyph-name="bnP_PA" horiz-adv-x="606" 
d="M50 331l89 43q-34 45 -90 64v19q0 85 54.5 149t157.5 64q107 0 153 -75v146h116v-81h96v-95h-96v-734h-116v155l-343 -157v107l87 39q-33 48 -88 67v25q0 80 56.5 136.5t144.5 56.5q97 0 143 -73v212l-364 -176v108zM185 87q42 -21 69 -69l149 67q-32 77 -117 77
q-42 0 -69 -22.5t-32 -52.5zM160 484q45 -21 71 -65l168 81q-31 76 -120 76q-48 0 -79.5 -26.5t-39.5 -65.5z" />
    <glyph glyph-name="bnM_PHA" horiz-adv-x="1085" 
d="M387 438q29 0 44.5 18.5t15.5 47.5q0 30 -7 61h-242q21 -37 25 -79q30 -5 82 -26.5t82 -21.5zM159 317h-115q-5 23 -5 41q0 89 78 120q-12 59 -54 87h-83v95h1125v-95h-555q9 -38 9 -68q0 -58 -33 -100l60 -41v-101l-123 -93l199 -80v391h111q114 0 192.5 -61.5
t78.5 -168.5q0 -92 -49.5 -143t-132.5 -51q-14 0 -21 1v106h11q79 0 79 87q0 56 -42 90.5t-116 38.5v-393h-111l-314 115v111l138 99l-62 39q-7 -1 -22 -1q-50 0 -111 24.5t-89 24.5q-46 0 -46 -49q0 -1 3 -25z" />
    <glyph glyph-name="bnS_PHA" horiz-adv-x="1134" 
d="M-20 660h1174v-95h-577q7 -29 7 -66q0 -45 -20 -80l71 -49v-101l-123 -93l199 -80v377h111q114 0 192.5 -61.5t78.5 -168.5q0 -92 -49.5 -143t-132.5 -51q-14 0 -21 1v106h11q79 0 79 87q0 56 -42 90.5t-116 38.5v-379h-111l-314 115v111l138 99l-53 34q-32 -12 -72 -12
q-106 0 -144 88q-13 -36 -46.5 -59.5t-85.5 -23.5q-51 0 -95 23v98q46 -20 88 -20q48 0 67.5 29t19.5 90h-234v95zM408 435q63 0 63 77q0 25 -5 53h-140q2 -130 82 -130z" />
    <glyph glyph-name="bnL_PHA" horiz-adv-x="1256" 
d="M276 131q-23 -3 -49 -3q-86 0 -136.5 47t-50.5 135q0 74 47 128t128 54q58 0 95 -25.5t46 -66.5q11 41 39.5 66.5t74.5 25.5q57 0 80 -37.5t23 -89.5l-25 -54q0 35 -16 59.5t-50 24.5q-68 0 -68 -96v-15h-114v15q0 44 -18.5 69.5t-55.5 25.5q-34 0 -54 -23t-20 -61
q0 -41 23 -62t60 -21q25 0 41 3v-99zM899 -11l-65 -77l-315 115l1 1v110l101 73v50l-73 46l63 82l10 -7v159h113v-236l24 -16v-101l-123 -93l125 -50v461h112v-478h-70zM1276 565h-1296v95h1296v-95zM1216 225q0 -92 -50 -143t-133 -51q-13 0 -20 1v106h11q79 0 79 87
q0 59 -46.5 94t-127.5 35l16 101q114 0 192.5 -61.5t78.5 -168.5z" />
    <glyph glyph-name="bnSS_PHA" horiz-adv-x="1070" 
d="M33 453q0 66 37 112h-90v95h1110v-95h-632q37 -46 37 -112q0 -44 -14 -78l90 -66v-101l-123 -93l199 -80v377h112q114 0 192.5 -61.5t78.5 -168.5q0 -92 -50 -143t-133 -51q-14 0 -20 1v106h11q79 0 79 87q0 56 -42.5 90.5t-115.5 38.5v-379h-112l-314 115l1 1v110
l138 100l-57 38q-59 -39 -151 -39q-105 0 -168 51.5t-63 144.5zM382 453q0 52 -33 82t-85 30q-42 0 -73 -20l187 -127q4 20 4 35zM264 339q47 0 77 24l-190 125q-5 -18 -5 -35q0 -53 33 -83.5t85 -30.5z" />
    <glyph glyph-name="bnD_BHA" horiz-adv-x="639" 
d="M182 222h-113v343h-89v95h679v-95h-477v-199q84 83 179 126h113v-314q-12 1 -40 1q-31 0 -51 -11.5t-20 -35.5q0 -45 71 -45q66 0 136 33q13 -46 13 -88q0 -94 -64.5 -151t-176.5 -57q-121 0 -199 77t-78 217q0 26 1 40h113q-2 -32 -2 -45q0 -95 45.5 -144t124.5 -49
q57 0 91 25t41 67q-31 -14 -73 -14q-73 0 -113.5 36t-40.5 97q0 52 29.5 88.5t79.5 49.5v106q-97 -63 -179 -153z" />
    <glyph glyph-name="bnM_BHA" horiz-adv-x="633" 
d="M572 118q0 -93 -65 -150t-177 -57q-121 0 -198.5 76.5t-77.5 216.5q0 26 1 40h112q-1 -16 -1 -44q0 -95 45 -144t124 -49q58 0 92 24.5t41 66.5q-31 -14 -73 -14q-73 0 -114 35.5t-41 97.5q2 99 93 132q-17 4 -58.5 21.5t-69.5 17.5q-43 0 -43 -49q0 -13 3 -25h-112
q-4 24 -4 41q0 90 74 120q-12 61 -54 90h-89v95h673v-95h-112q6 -32 6 -70q0 -104 -88 -138q15 -1 32 -5v-91q-43 5 -65 5q-74 0 -74 -47q0 -46 70 -46q64 0 136 34q14 -45 14 -89zM373 441q62 0 62 70q0 30 -6 54h-225q20 -34 26 -84q19 -4 66.5 -22t76.5 -18z" />
    <glyph glyph-name="bnB_BHA" horiz-adv-x="593" 
d="M554 27q0 -93 -65 -150t-177 -57q-121 0 -199 77t-78 217q0 13 2 39h112q-1 -15 -1 -44q0 -95 45 -144t124 -49q58 0 91.5 24.5t40.5 66.5q-31 -13 -72 -13q-73 0 -114 35t-41 97q0 45 22 78l-200 80v111q118 95 258 131v39h-322v95h633v-95h-202v-296q29 -1 62 -7v-92
q-28 5 -66 5q-73 0 -73 -47q0 -46 70 -46q64 0 136 34q14 -45 14 -89zM302 281v144q-82 -26 -156 -78z" />
    <glyph glyph-name="bnL_BHA" horiz-adv-x="800" 
d="M211 98l112 1q6 -154 164 -154q58 0 92.5 24.5t41.5 66.5q-31 -14 -73 -14q-73 0 -114 35.5t-41 97.5q1 61 40.5 99.5t103.5 42.5v21q0 84 -60 84q-64 0 -64 -91v-15h-114v15q0 91 -70 91q-32 0 -49.5 -22t-17.5 -59q0 -38 22.5 -57t59.5 -19q19 0 41 2v-99
q-23 -3 -49 -3q-86 0 -136.5 45t-50.5 131q0 73 45.5 126t123.5 53q58 0 93 -25.5t44 -65.5q9 39 42 65t79 26q40 0 61 -21v86h-557v95h840v-95h-176v-366q-43 5 -65 5q-74 0 -74 -48q0 -45 71 -45q63 0 135 34q14 -45 14 -89q0 -93 -65.5 -150.5t-177.5 -57.5
q-119 0 -193.5 66.5t-77.5 183.5z" />
    <glyph glyph-name="bnK_MA" horiz-adv-x="1004" 
d="M719 325q0 -77 -47.5 -120t-128.5 -43q-13 0 -20 1v99h11q72 0 72 63q0 47 -42.5 68t-104.5 23v-287q89 -8 188.5 -39t167.5 -69v544h-356v-48q106 -2 183 -53.5t77 -138.5zM1024 565h-96v-652h-113v1q-73 43 -188.5 79.5t-198.5 36.5q-85 0 -85 -72q0 -18 1 -26h-115
q-2 28 -2 38q0 53 28.5 92.5t80.5 57.5l-273 140v116q67 58 132 91t151 49v49h-366v95h1044v-95zM346 226v187q-93 -23 -177 -91z" />
    <glyph glyph-name="bnG_MA" horiz-adv-x="856" 
d="M780 0h-116q-34 43 -90.5 79.5t-110.5 36.5q-36 0 -53.5 -19.5t-17.5 -52.5q0 -18 1 -25h-115q-2 26 -2 38q0 58 32.5 99.5t90.5 53.5v203q0 156 -129 156q-89 0 -111 -73q77 -4 123.5 -40.5t47.5 -105.5q-1 -78 -58 -119t-154 -41q-42 0 -77 7v93q33 -3 74 -3
q98 0 98 63q0 62 -98 62h-75v27q0 98 55 164.5t155 66.5q106 0 149 -68v139h116v-81h361v-95h-96v-565zM664 119v446h-149v-360q86 -21 149 -86z" />
    <glyph glyph-name="bnNG_MA" horiz-adv-x="887" 
d="M381 475q68 0 68 56q0 23 -15.5 37t-42.5 14q-24 0 -36.5 -15.5t-12.5 -41.5v-47q20 -3 39 -3zM603 271q0 -106 -69 -166q94 -31 164 -73v533h-157q5 -20 5 -38q0 -65 -45 -100.5t-119 -35.5q-14 0 -40 2v-9q0 -55 55 -55q30 0 63 12t53 24.5t59 38.5q31 -61 31 -133z
M811 -76h-113q-197 115 -349 115q-82 0 -82 -72q0 -18 1 -26h-115q-2 28 -2 38q0 65 39 107q-66 38 -103 107.5t-37 165.5q0 33 2 46h106q-2 -22 -2 -45q0 -112 55.5 -165t142.5 -53q73 0 110.5 35t37.5 89v3q-52 -37 -116 -37q-67 0 -108.5 39t-41.5 111v39
q-105 46 -147 144h-109v95h179q22 -85 82 -134q1 62 39 103t110 41q32 0 62 -10h455v-95h-96v-641z" />
    <glyph glyph-name="bnTT_MA" horiz-adv-x="782" 
d="M495 324q0 -84 -61 -142q85 -26 160 -72v455h-395v-290q0 -32 19 -48t50 -16q51 0 80.5 33t29.5 80q0 69 -71 69q-22 0 -41 -4v102q30 6 58 6q78 0 124.5 -46.5t46.5 -126.5zM85 53q0 67 48 110q-50 40 -50 112v290h-103v95h396q3 18 3 36q0 31 -12 47t-44 16
q-24 0 -77.5 -10t-87.5 -10q-66 0 -103 21v90q36 -17 93 -17q31 0 91.5 12.5t93.5 12.5q75 0 113.5 -39.5t38.5 -107.5q0 -21 -5 -51h322v-95h-95v-565h-113q-179 113 -307 113q-86 0 -86 -72q0 -10 2 -26h-115q-3 21 -3 38z" />
    <glyph glyph-name="bnDD_MA" horiz-adv-x="900" 
d="M611 334q0 -111 -78 -180q99 -28 179 -71v482h-347v-99q0 -57 56 -57q54 0 163 62q27 -67 27 -137zM825 -24h-113q-88 49 -190.5 81t-193.5 32q-86 0 -86 -72q0 -10 2 -26h-115q-3 21 -3 38q0 65 45 107q-122 79 -122 262q0 36 5 66h113q-3 -33 -3 -64q0 -94 46 -152
t138 -58q75 0 114.5 41t39.5 102q-46 -24 -99 -24q-73 0 -113.5 40.5t-40.5 115.5v100h-269v95h940v-95h-95v-589z" />
    <glyph glyph-name="bnNN_MA" horiz-adv-x="855" 
d="M875 565h-96v-565h-116q-35 43 -91 79.5t-110 36.5q-36 0 -53.5 -19.5t-17.5 -52.5q0 -18 1 -25h-115q-2 26 -2 38q0 59 33 100.5t91 52.5v206q0 66 -34.5 110t-102.5 44q-46 0 -73.5 -26.5t-27.5 -70.5q0 -46 26 -68.5t70 -22.5q28 0 53 4v-101q-34 -7 -66 -7
q-91 0 -145 51.5t-54 143.5q0 86 54.5 141.5t140.5 55.5q109 0 159 -76v147h116v-81h360v-95zM663 119v446h-148v-360q87 -21 148 -86z" />
    <glyph glyph-name="bnT_MA" horiz-adv-x="874" 
d="M798 0h-113q-85 49 -188.5 81t-185.5 32q-86 0 -86 -72q0 -10 2 -26h-115q-3 21 -3 38q0 64 43 105q-103 66 -103 217q0 50 7 92h112q-7 -45 -7 -93q0 -159 161 -159q68 0 107 35t39 96q0 77 -61 77q-27 0 -41 -19.5t-14 -49.5q0 -32 8 -58h-102q-11 31 -11 69
q0 69 41.5 111t114.5 42q83 0 130.5 -49t47.5 -125q0 -103 -72 -167q96 -28 176 -71v459h-705v95h914v-95h-96v-565z" />
    <glyph glyph-name="bnD_MA" horiz-adv-x="816" 
d="M836 565h-96v-565h-116q-35 43 -89.5 79.5t-108.5 36.5q-36 0 -53.5 -19.5t-17.5 -52.5q0 -18 1 -25h-115q-2 26 -2 38q0 59 34 101t93 53v160q-105 -69 -188 -163h-112v357h-86v95h856v-95zM479 489v-284q82 -21 145 -85v445h-446v-217q47 48 99 85.5t89 55.5h113z" />
    <glyph glyph-name="bnDH_MA" horiz-adv-x="851" 
d="M871 565h-95v-565h-117q-23 42 -75 79t-105 37q-35 0 -53 -20t-18 -52q0 -18 1 -25h-114q-3 19 -3 38q0 59 32 99l-264 73v98q50 28 113 60q-59 12 -93 46.5t-34 87.5q0 69 51 109t138 40q35 0 59 -4v-95q-22 2 -37 2q-39 0 -63.5 -16t-24.5 -48q0 -60 85 -60q40 0 83 18
q6 3 28.5 13t33.5 15v165h472v-95zM659 127v438h-148v-356q86 -17 148 -82zM399 238v155l-197 -100z" />
    <glyph glyph-name="bnN_MA" horiz-adv-x="824" 
d="M748 0h-116q-35 43 -91 79.5t-110 36.5q-36 0 -54 -20t-18 -52q0 -11 2 -25h-115q-2 26 -2 38q0 58 32.5 99t88.5 53q-15 60 -54 102.5t-87 42.5q-76 0 -76 -83q0 -23 3 -44h-114q-5 28 -5 48q0 79 43.5 130.5t126.5 51.5q113 0 169 -92v200h-391v95h864v-95h-96v-565z
M632 119v446h-148v-360q87 -21 148 -86z" />
    <glyph glyph-name="bnP_MA" horiz-adv-x="878" 
d="M166 453q49 -25 79 -82l170 100q-12 45 -44 71.5t-83 26.5q-55 0 -88 -33.5t-34 -82.5zM898 565h-96v-565h-116q-34 43 -90.5 79.5t-110.5 36.5q-36 0 -53.5 -19.5t-17.5 -52.5q0 -18 1 -25h-115q-2 26 -2 38q0 58 33 99.5t91 53.5v148l-364 -218v121l97 57
q-37 66 -102 88v44q0 86 56.5 153t159.5 67q106 0 153 -76v147h116v-81h360v-95zM686 119v446h-148v-360q87 -21 148 -86z" />
    <glyph glyph-name="bnM_MA" horiz-adv-x="824" 
d="M369 432q32 0 47 20t15 50q0 36 -8 63h-227q25 -41 30 -91q20 -4 66.5 -23t76.5 -19zM844 565h-95v-565h-117q-34 43 -90.5 79.5t-110.5 36.5q-36 0 -53.5 -19.5t-17.5 -52.5q0 -18 1 -25h-115q-2 26 -2 38q0 55 28.5 94.5t79.5 54.5v129q-32 4 -77 25t-74 21
q-43 0 -43 -49q0 -13 3 -25h-112q-4 24 -4 41q0 91 73 119q-14 65 -56 98h-82v95h864v-95zM543 487q0 -96 -75 -134v-145q97 -19 164 -89v446h-98q9 -38 9 -78z" />
    <glyph glyph-name="bnL_MA" horiz-adv-x="1007" 
d="M931 0h-116q-35 43 -91 79.5t-110 36.5q-36 0 -53.5 -19.5t-17.5 -52.5q0 -18 1 -25h-115q-2 26 -2 38q0 59 33 100.5t91 52.5v94q0 84 -63 84q-67 0 -67 -98v-15h-118v20q0 93 -71 93q-35 0 -53.5 -24.5t-18.5 -62.5q0 -88 88 -88q18 0 42 3v-98q-25 -4 -55 -4
q-87 0 -139 50.5t-52 138.5q0 79 47 131t131 52q58 0 94.5 -25.5t45.5 -65.5q9 39 38 65t74 26q52 0 77 -34v113h-571v95h1047v-95h-96v-565zM815 119v446h-148v-360q87 -21 148 -86z" />
    <glyph glyph-name="bnSH_MA" horiz-adv-x="926" 
d="M851 0h-117q-34 43 -90.5 79.5t-110.5 36.5q-36 0 -53.5 -19.5t-17.5 -52.5q0 -18 1 -25h-115q-2 26 -2 38q0 58 33 99.5t91 53.5v237q0 123 -99 123q-41 0 -65 -26.5t-24 -70.5q0 -46 25 -69.5t66 -23.5q28 0 39 2v-102q-21 -4 -50 -4q-94 0 -138 61q-45 -61 -131 -61
q-29 0 -63 6v102q24 -4 49 -4q41 0 65 23t24 70q0 44 -25 68t-70 24h-93v95h107q86 0 135 -62q48 72 135 72q74 0 113 -47v118h116v-81h360v-95h-95v-565zM734 119v446h-148v-360q87 -21 148 -86z" />
    <glyph glyph-name="bnS_MA" horiz-adv-x="863" 
d="M408 421q63 0 63 77q0 16 -8 67h-137v-11q0 -133 82 -133zM283 57q0 56 30 96.5t83 53.5v124q-96 7 -130 83q-13 -36 -46.5 -59.5t-85.5 -23.5q-51 0 -95 23v98q46 -20 88 -20q49 0 68 29.5t19 92.5v11h-234v95h903v-95h-95v-565h-117q-34 43 -90.5 79.5t-110.5 36.5
q-36 0 -53.5 -19.5t-17.5 -52.5q0 -18 1 -25h-115q-2 26 -2 38zM584 485q0 -91 -71 -130v-148q94 -20 158 -88v446h-97q10 -42 10 -80z" />
    <glyph glyph-name="bnSS_MA" horiz-adv-x="804" 
d="M519 453q0 -64 -31 -112.5t-86 -72.5v-65q125 -16 211 -95v457h-131q37 -46 37 -112zM288 565q-42 0 -70 -18l183 -133q5 20 5 39q0 52 -33 82t-85 30zM169 453q0 -54 33 -84t86 -30q45 0 76 23l-189 131q-6 -18 -6 -40zM822 565h-93v-572h-116q-34 42 -102.5 79
t-128.5 37q-41 0 -60.5 -19.5t-19.5 -52.5q0 -18 1 -25h-115q-2 26 -2 38q0 52 26 91.5t74 55.5v48q-103 1 -166.5 57.5t-63.5 150.5q0 66 37 112h-113v95h842v-95z" />
    <glyph glyph-name="bnH_MA" horiz-adv-x="979" 
d="M330 265q0 -25 -10 -52q130 -13 228 -89v228q-140 21 -255 104q-25 -53 -99 -66q136 -19 136 -125zM664 0h-116q-66 56 -125.5 86t-130.5 30q-47 0 -74 -22.5t-27 -65.5q0 -11 1 -17h-114q-4 30 -4 42q0 55 31.5 95t89.5 57q19 25 19 62q0 65 -125 65h-43v99h33
q110 0 110 85q0 26 -13 49h-196v95h1019v-95h-335v-128q76 3 133 28h112v-355h-112v263q-61 -24 -133 -27v-346zM548 444v121h-256h1q41 -39 109.5 -73t145.5 -48z" />
    <glyph glyph-name="bnK_SS_MA" horiz-adv-x="1226" 
d="M536 437q12 0 42 4v124h-104v-68q0 -60 62 -60zM963 322q0 -66 -43.5 -104t-122.5 -38q-20 0 -27 1v91h10q70 0 70 54q0 56 -77 56q-30 0 -83 -11v-239q91 -8 186 -37t161 -65v535h-347v-100q55 12 89 12q83 0 133.5 -41t50.5 -114zM303 318q0 -20 -8 -41q173 -8 283 -60
v128q-27 -5 -44 -5q-81 0 -128.5 40.5t-47.5 115.5v69h-89q8 -17 8 -43q0 -84 -98 -103q58 -4 91 -31t33 -70zM1246 565h-96v-642h-113q-71 42 -185.5 78t-206.5 36q-85 0 -85 -71q0 -19 1 -26h-115q-2 26 -2 38q0 54 31.5 93.5t88.5 55.5q-145 59 -295 59q-45 0 -71 -22.5
t-26 -63.5q0 -11 1 -17h-110q-4 28 -4 39q0 54 31.5 92.5t89.5 54.5q11 16 11 37q0 29 -27 43t-91 14h-23v95h27q90 0 90 65q0 19 -9 42h-178v95h1266v-95z" />
    <glyph glyph-name="bnK_LA" horiz-adv-x="840" 
d="M532 -171h-113v150q0 72 -46 72q-22 0 -34.5 -20.5t-12.5 -56.5v-16h-97v16q0 76 -52 76q-25 0 -39 -18t-14 -49q0 -34 18.5 -51.5t49.5 -17.5q24 0 39 3v-85q-28 -2 -44 -2q-72 0 -115.5 40.5t-43.5 112.5q0 63 38 107t100 44q47 0 74.5 -21t36.5 -55q5 33 28 55t58 21
q37 0 56 -22v52l-276 112v116q68 57 129 87t147 45v41h-439v95h880v-95h-328v-40q106 -2 183 -54.5t77 -140.5q0 -77 -47 -120t-128 -43q-14 0 -21 1v99h11q72 0 72 63q0 47 -43 69.5t-104 24.5v-595zM419 268v156q-92 -22 -170 -82z" />
    <glyph glyph-name="bnG_LA" horiz-adv-x="622" 
d="M547 -153h-117v160q0 71 -48 71q-49 0 -49 -77v-16h-97v16q0 76 -54 76q-25 0 -39.5 -17.5t-14.5 -48.5q0 -70 71 -70q19 0 35 3v-84q-20 -3 -44 -3q-72 0 -115 40.5t-43 113.5q0 63 38.5 106.5t100.5 43.5q47 0 75.5 -21.5t37.5 -54.5q5 33 28.5 55t59.5 21q38 0 58 -23
v275q0 161 -129 161q-85 0 -108 -71q76 -4 121.5 -40.5t46.5 -105.5q-1 -78 -57 -117t-155 -39q-38 0 -77 6v90q34 -3 74 -3q99 0 99 63q0 62 -99 62h-75v20q0 98 55.5 164.5t155.5 66.5q105 0 148 -68v139h117v-81h95v-95h-95v-718z" />
    <glyph glyph-name="bnT_LA" horiz-adv-x="643" 
d="M225 -217q-20 -3 -44 -3q-72 0 -115 40.5t-43 112.5q0 63 38.5 107t100.5 44q48 0 76.5 -21.5t36.5 -54.5q5 33 28.5 55t59.5 21q40 0 59 -24v66q-37 -8 -75 -8q-128 0 -200 66.5t-72 193.5q0 50 7 92h112q-7 -45 -7 -93q0 -158 157 -158q68 0 106 34.5t38 95.5
q0 77 -59 77q-26 0 -40 -19.5t-14 -49.5q0 -32 8 -58h-102q-11 31 -11 69q0 69 41 111t114 42q82 0 129 -49t47 -125q0 -99 -67 -163v-402h-112v147q0 72 -49 72t-49 -77v-16h-97v16q0 76 -54 76q-25 0 -39.5 -18t-14.5 -49q0 -69 72 -69q18 0 34 3v-84zM663 565h-683v95
h683v-95z" />
    <glyph glyph-name="bnP_LA" horiz-adv-x="614" 
d="M168 483q44 -21 73 -70l169 81q-32 82 -123 82q-48 0 -79.5 -26.5t-39.5 -66.5zM538 -92h-116v151q0 72 -48 72q-24 0 -37 -20.5t-13 -56.5v-16h-97v16q0 76 -54 76q-25 0 -39.5 -18t-14.5 -49q0 -69 72 -69q12 0 34 2v-83q-17 -4 -43 -4q-72 0 -115.5 41t-43.5 113
q0 63 38.5 107t100.5 44q48 0 76.5 -21.5t36.5 -55.5q6 34 29 56t59 21q38 0 59 -24v200l-364 -180v116l90 43q-34 51 -91 70v18q0 85 54.5 149t157.5 64q106 0 153 -76v147h116v-81h96v-95h-96v-657z" />
    <glyph glyph-name="bnPH_LA" horiz-adv-x="820" 
d="M242 -194q-21 -3 -42 -3q-70 0 -114.5 37.5t-44.5 110.5q0 64 38.5 107t99.5 43q45 0 72 -22.5t35 -55.5q5 33 27.5 56t56.5 22q35 0 53 -21v46l-314 98l1 1v108l139 87l-137 87v58h-132v95h860v-95h-638l145 -99v-101l-115 -74l191 -65v278h105q115 0 185.5 -48.5
t70.5 -136.5q0 -75 -44.5 -118.5t-121.5 -43.5q-18 0 -24 1v92h13q71 0 71 69q0 45 -40.5 67t-109.5 22v-603h-105v162q-5 46 -44 46q-46 0 -46 -69v-12h-93v12q0 67 -51 67q-23 0 -36.5 -16t-13.5 -44q0 -32 18.5 -47.5t46.5 -15.5q23 0 38 3v-85z" />
    <glyph glyph-name="bnB_LA" horiz-adv-x="608" 
d="M527 -161h-108v150q0 63 -45 63q-46 0 -46 -69v-12h-93v12q0 67 -51 67q-23 0 -37 -16.5t-14 -43.5q0 -32 18.5 -47t47.5 -15q18 0 38 2v-85q-21 -3 -42 -3q-71 0 -115.5 37.5t-44.5 110.5q0 64 39 107t100 43q45 0 72 -22.5t35 -55.5q5 33 27.5 56.5t56.5 22.5
q35 0 54 -22v50l-298 99v116q143 107 298 140v41h-439v95h643v-95h-96v-726zM419 272v153q-93 -27 -182 -88z" />
    <glyph glyph-name="bnBH_LA" horiz-adv-x="639" 
d="M530 -244h-104v138q0 64 -45 64q-46 0 -46 -69v-10h-93v10q0 67 -51 67q-23 0 -37 -16.5t-14 -42.5q0 -30 19 -45.5t47 -15.5q18 0 38 2v-77q-19 -4 -42 -4q-69 0 -111.5 36t-42.5 104q0 60 37 103t96 43q45 0 72 -21t35 -54q5 32 27.5 53.5t55.5 20.5q36 0 55 -22v68
q-41 -11 -88 -11q-122 0 -200.5 72.5t-78.5 213.5q0 15 2 45h112q-2 -34 -2 -49q0 -91 47 -138t125 -47q58 0 92 23.5t40 64.5q-35 -14 -74 -14q-71 0 -111.5 35t-40.5 97q0 64 42 100.5t111 36.5q45 0 87 -8v-85q-28 4 -59 4q-70 0 -70 -47q0 -45 69 -45q66 0 135 37
q16 -47 16 -92q0 -81 -50 -134v-391zM659 565h-679v95h679v-95z" />
    <glyph glyph-name="bnM_LA" horiz-adv-x="632" 
d="M397 435q62 0 62 70q0 26 -6 60h-229q24 -37 29 -87q19 -4 66 -23.5t78 -19.5zM534 -41h-102v151q0 71 -47 71q-22 0 -34.5 -20.5t-12.5 -56.5v-16h-97v16q0 76 -52 76q-25 0 -39 -17.5t-14 -48.5q0 -34 18.5 -52t50.5 -18q23 0 38 3v-85q-28 -2 -43 -2q-72 0 -116 41
t-44 113q0 63 38 106.5t100 43.5q92 0 111 -76q5 33 28 55t58 21q37 0 57 -22v97q-9 -1 -28 -1q-45 0 -95 23t-79 23q-21 0 -32.5 -13.5t-11.5 -35.5q0 -1 3 -25h-111q-5 20 -5 41q0 89 73 119q-14 61 -55 95h-111v95h672v-95h-89q9 -36 9 -75q0 -67 -38 -106v-425z" />
    <glyph glyph-name="bnL_LA" horiz-adv-x="698" 
d="M623 -171h-107v166q0 74 -56 74q-29 0 -45 -20.5t-16 -58.5v-21h-100v21q0 36 -17 57.5t-51 21.5q-30 0 -47.5 -20t-17.5 -51q0 -74 79 -74q25 0 45 5v-90q-33 -7 -58 -7q-73 0 -121 41t-48 125q0 70 45.5 116t113.5 46q50 0 83.5 -24t42.5 -62q7 36 33.5 62.5t64.5 25.5
q46 0 70 -36v204q0 74 -58 74q-62 0 -62 -79v-21h-100v21q0 36 -17 57.5t-52 21.5q-31 0 -49.5 -20t-18.5 -52q0 -73 81 -73q25 0 45 5v-90q-33 -7 -59 -7q-73 0 -121.5 40.5t-48.5 124.5q0 70 46.5 116t115.5 46q50 0 84 -24t43 -62q6 36 33.5 63t65.5 26q48 0 72 -38v106
h-536v95h738v-95h-95v-736z" />
    </font>
</defs>
</svg>
