<?xml version="1.0" standalone="no"?>
<!DOCTYPE svg PUBLIC "-//W3C//DTD SVG 1.1//EN" "http://www.w3.org/Graphics/SVG/1.1/DTD/svg11.dtd" >
<svg xmlns="http://www.w3.org/2000/svg" xmlns:xlink="http://www.w3.org/1999/xlink" version="1.1">
<metadata>
Created by FontForge 20190801 at Fri May  5 13:18:43 2017
 By Jimmy Wärting
Copyright (c) 2015 Indian Type Foundry (info@indiantypefoundry.com)
</metadata>
<defs>
<font id="HindSiliguri-Medium" horiz-adv-x="660" >
  <font-face 
    font-family="Hind Siliguri Medium"
    font-weight="500"
    font-stretch="normal"
    units-per-em="1000"
    panose-1="2 0 0 0 0 0 0 0 0 0"
    ascent="800"
    descent="-200"
    x-height="507"
    cap-height="674"
    bbox="-630 -497 1595 1054"
    underline-thickness="50"
    underline-position="-150"
    unicode-range="U+0020-FB02"
  />
<missing-glyph horiz-adv-x="753" 
d="M581 0h-410v701h410v-701zM237 640v-579h279v579h-279z" />
    <glyph glyph-name=".notdef" horiz-adv-x="753" 
d="M581 0h-410v701h410v-701zM237 640v-579h279v579h-279z" />
    <glyph glyph-name=".null" horiz-adv-x="0" 
 />
    <glyph glyph-name="nonmarkingreturn" horiz-adv-x="333" 
 />
    <glyph glyph-name="space" unicode=" " horiz-adv-x="233" 
 />
    <glyph glyph-name="exclam" unicode="!" horiz-adv-x="262" 
d="M179 214h-96v460h96v-460zM199 60q0 -29 -20 -48.5t-49 -19.5t-48.5 19.5t-19.5 48.5t19.5 49t48.5 20q28 0 48.5 -20.5t20.5 -48.5z" />
    <glyph glyph-name="quotedbl" unicode="&#x22;" horiz-adv-x="322" 
d="M279 437h-85v244h85v-244zM128 437h-85v244h85v-244z" />
    <glyph glyph-name="numbersign" unicode="#" horiz-adv-x="723" 
d="M462 0h-87l35 165h-166l-35 -165h-86l35 165h-107v78h123l38 184h-113v80h130l35 167h88l-35 -167h166l35 167h86l-35 -167h104v-80h-121l-39 -184h113v-78h-129zM427 243l39 184h-166l-39 -184h166z" />
    <glyph glyph-name="dollar" unicode="$" horiz-adv-x="507" 
d="M274 -112h-84v107q-82 8 -139 41v107q79 -59 183 -59q55 0 87.5 25.5t32.5 70.5q0 11 -2 20.5t-8 18.5t-11 15.5t-16.5 14t-18 12t-22 12t-22.5 11t-26 11.5t-26 11q-73 33 -114 74t-41 113q0 79 53 128t140 57v107h85v-109q60 -9 101 -29v-102q-66 42 -152 42
q-55 0 -86 -24.5t-31 -64.5q0 -22 9.5 -39.5t33 -33t40 -23.5t52.5 -24q38 -17 62 -30.5t52 -36.5t41.5 -54.5t13.5 -72.5q0 -81 -51 -130.5t-136 -58.5v-107z" />
    <glyph glyph-name="percent" unicode="%" horiz-adv-x="884" 
d="M304 -1h-92l364 678h93zM383 520q0 -70 -49 -119t-119 -49q-69 0 -118 49t-49 119q0 69 49 118t118 49q70 0 119 -49t49 -118zM131 520q0 -35 24.5 -60t59.5 -25t60 25t25 60t-25 59.5t-60 24.5t-59.5 -25t-24.5 -59zM836 160q0 -70 -49 -118.5t-118 -48.5
q-70 0 -119 48.5t-49 118.5q0 69 49 118.5t119 49.5q69 0 118 -49.5t49 -118.5zM584 160q0 -35 25 -60t60 -25t59.5 25t24.5 60t-24.5 60t-59.5 25t-60 -25t-25 -60z" />
    <glyph glyph-name="ampersand" unicode="&#x26;" horiz-adv-x="715" 
d="M231 517q0 -30 19 -60.5t61 -75.5q113 55 113 128q0 42 -26 68.5t-74 26.5q-41 0 -67 -23t-26 -64zM712 0h-128l-59 55q-82 -63 -203 -63q-118 0 -189.5 53t-71.5 133q0 118 155 173q-86 91 -86 166q0 79 54 126t141 47q90 0 144.5 -49.5t54.5 -128.5q0 -59 -36 -105
t-118 -83l148 -141q23 40 26 94h92q-5 -89 -51 -157zM321 78q82 0 138 40l-183 172l-1 1q-59 -22 -86 -47.5t-27 -62.5q0 -47 45 -75t114 -28z" />
    <glyph glyph-name="quotesingle" unicode="'" horiz-adv-x="171" 
d="M128 437h-85v244h85v-244z" />
    <glyph glyph-name="parenleft" unicode="(" horiz-adv-x="318" 
d="M331 -196h-107q-162 203 -162 457q0 250 155 446h106q-77 -100 -116.5 -217.5t-39.5 -233.5q0 -112 42 -231t122 -221z" />
    <glyph glyph-name="parenright" unicode=")" horiz-adv-x="318" 
d="M95 -196h-108q80 102 122.5 221.5t42.5 230.5q0 115 -40 232.5t-116 218.5h106q154 -195 154 -446q0 -253 -161 -457z" />
    <glyph glyph-name="asterisk" unicode="*" horiz-adv-x="437" 
d="M360 360l-64 -47l-57 78q-12 17 -20 40q-4 -18 -20 -40l-58 -78l-65 47l58 78q14 19 33 32h-6q-22 0 -40 6l-92 31l24 76l93 -30q25 -9 41 -23q-9 23 -9 47v97h80v-97q0 -26 -8 -45q18 14 41 22l92 29l25 -76l-92 -30q-18 -6 -40 -6h-5q18 -11 33 -32z" />
    <glyph glyph-name="plus" unicode="+" horiz-adv-x="564" 
d="M510 295h-185v-186h-91v186h-181v89h181v187h91v-187h185v-89z" />
    <glyph glyph-name="comma" unicode="," horiz-adv-x="245" 
d="M78 -124h-86l96 234h121z" />
    <glyph glyph-name="hyphen" unicode="-" horiz-adv-x="350" 
d="M297 225h-244v84h244v-84z" />
    <glyph glyph-name="period" unicode="." horiz-adv-x="193" 
d="M164 60q0 -28 -19.5 -48t-47.5 -20q-29 0 -48.5 20t-19.5 48t19.5 47.5t48.5 19.5q28 0 47.5 -19.5t19.5 -47.5z" />
    <glyph glyph-name="slash" unicode="/" horiz-adv-x="421" 
d="M94 -102h-101l363 809h101z" />
    <glyph glyph-name="zero" unicode="0" horiz-adv-x="545" 
d="M504 329q0 -153 -60.5 -245t-172.5 -92q-107 0 -168.5 92t-61.5 245q0 154 61.5 244.5t168.5 90.5q109 0 171 -90t62 -245zM141 329q0 -117 36.5 -181.5t93.5 -64.5q62 0 97 64t35 182q0 119 -36.5 181.5t-95.5 62.5q-56 0 -93 -63.5t-37 -180.5z" />
    <glyph glyph-name="one" unicode="1" horiz-adv-x="340" 
d="M268 0h-97v547l-155 -95v105l163 97h89v-654z" />
    <glyph glyph-name="two" unicode="2" horiz-adv-x="496" 
d="M455 0h-419v81q126 92 212.5 190.5t86.5 179.5q0 57 -33 87.5t-91 30.5q-80 0 -157 -60v97q72 55 171 55q92 0 152 -51.5t60 -146.5q0 -176 -266 -378h284v-85z" />
    <glyph glyph-name="three" unicode="3" horiz-adv-x="471" 
d="M424 180q0 -81 -58 -133.5t-163 -52.5q-99 0 -167 34v96q74 -40 162 -40q59 0 92.5 29.5t33.5 75.5q0 48 -37 74t-111 26h-40v84h40q55 0 92.5 27.5t37.5 75.5t-30.5 72t-83.5 24q-68 0 -135 -42v95q62 36 138 36q100 0 156.5 -49.5t56.5 -124.5q0 -54 -26.5 -94.5
t-78.5 -61.5q57 -14 89 -53t32 -98z" />
    <glyph glyph-name="four" unicode="4" horiz-adv-x="546" 
d="M137 238h197v357zM432 0h-98v153h-296v85l235 417h159v-417h92v-85h-92v-153z" />
    <glyph glyph-name="five" unicode="5" horiz-adv-x="507" 
d="M466 208q0 -98 -64.5 -156.5t-179.5 -58.5q-103 0 -170 34v95q64 -39 154 -39q158 0 158 128q0 51 -35.5 79.5t-95.5 28.5q-76 0 -150 -35v371h339v-85h-242v-172q37 8 68 8q102 0 160 -53.5t58 -144.5z" />
    <glyph glyph-name="six" unicode="6" horiz-adv-x="529" 
d="M496 213q0 -100 -58 -163t-156 -63q-114 0 -174.5 85t-60.5 225q0 164 83.5 269t223.5 105q50 0 95 -15v-95q-39 20 -91 20q-88 0 -141 -62.5t-67 -160.5q65 63 154 63t140.5 -57t51.5 -151zM283 76q52 0 82 37.5t30 98.5q0 57 -30 90t-80 33q-78 0 -138 -65
q4 -97 41.5 -145.5t94.5 -48.5z" />
    <glyph glyph-name="seven" unicode="7" horiz-adv-x="459" 
d="M179 0h-105l267 569h-327v85h431v-85z" />
    <glyph glyph-name="eight" unicode="8" horiz-adv-x="538" 
d="M492 174q0 -83 -64 -133t-162 -50q-96 0 -158 48.5t-62 129.5q0 116 111 159q-47 20 -73.5 58t-26.5 89q0 88 61 138t148 50q90 0 151 -48.5t61 -140.5q0 -99 -98 -145q112 -38 112 -155zM146 173q0 -42 31 -70t90 -28q61 0 93.5 30t32.5 74t-32 74t-94 30
q-60 -1 -90.5 -32.5t-30.5 -77.5zM157 476q0 -51 31.5 -77.5t81.5 -26.5q47 0 77.5 27.5t30.5 77.5q0 44 -27.5 73t-84.5 29q-51 0 -80 -30t-29 -73z" />
    <glyph glyph-name="nine" unicode="9" horiz-adv-x="512" 
d="M252 316q76 0 123 59q-2 92 -33.5 145t-94.5 53q-52 0 -83 -34.5t-31 -93.5q0 -60 32.5 -94.5t86.5 -34.5zM472 366q0 -178 -75.5 -276t-216.5 -98q-64 0 -115 19v95q51 -23 108 -23q172 0 198 204q-48 -55 -143 -55q-82 0 -139.5 58t-57.5 153t57 157t155 62
q112 0 170.5 -82.5t58.5 -213.5z" />
    <glyph glyph-name="colon" unicode=":" horiz-adv-x="250" 
d="M192 391q0 -28 -19.5 -47.5t-47.5 -19.5q-29 0 -48 19t-19 48q0 28 19.5 47.5t47.5 19.5t47.5 -19.5t19.5 -47.5zM192 66q0 -28 -19.5 -47.5t-47.5 -19.5q-29 0 -48 19.5t-19 47.5t19.5 47.5t47.5 19.5t47.5 -19.5t19.5 -47.5z" />
    <glyph glyph-name="semicolon" unicode=";" horiz-adv-x="245" 
d="M78 -124h-86l96 234h121zM205 390q0 -28 -19.5 -47t-48.5 -19q-28 0 -47 19t-19 47q0 29 19 48.5t47 19.5q29 0 48.5 -20t19.5 -48z" />
    <glyph glyph-name="less" unicode="&#x3c;" horiz-adv-x="545" 
d="M497 208v-100l-444 185v95l444 185v-100l-342 -132z" />
    <glyph glyph-name="equal" unicode="=" horiz-adv-x="564" 
d="M510 403h-457v84h457v-84zM510 193h-457v85h457v-85z" />
    <glyph glyph-name="greater" unicode="&#x3e;" horiz-adv-x="545" 
d="M491 293l-443 -185v100l342 133l-342 132v100l443 -185v-95z" />
    <glyph glyph-name="question" unicode="?" horiz-adv-x="454" 
d="M230 214h-93l-1 161q181 0 181 117q0 47 -30 75.5t-88 28.5q-74 0 -148 -48v97q65 37 157 37q95 0 152.5 -48.5t57.5 -134.5q0 -85 -58 -132t-129 -52zM251 60q0 -29 -20 -48.5t-49 -19.5t-48.5 19.5t-19.5 48.5t20 49t48 20q29 0 49 -20t20 -49z" />
    <glyph glyph-name="at" unicode="@" horiz-adv-x="926" 
d="M611 -146q-75 -36 -181 -36q-174 0 -275 107.5t-101 271.5q0 122 60.5 222t162.5 155.5t222 55.5q161 0 272.5 -99.5t111.5 -263.5q0 -115 -56 -183.5t-129 -68.5q-100 0 -128 93q-48 -95 -149 -95q-76 0 -120 55t-44 137q0 94 57 156t140 62q81 0 119 -67q0 9 1.5 30
t2.5 33h80l-10 -103q-7 -90 -7 -120q0 -103 62 -103q41 0 68.5 46.5t27.5 121.5q0 138 -85 212.5t-217 74.5q-146 0 -248.5 -102t-102.5 -250q0 -140 83 -217.5t203 -77.5q101 0 184 44zM442 89q39 0 72.5 27.5t47.5 76.5q0 6 1 16t1.5 18.5t0.5 16.5q-16 103 -102 103
q-50 0 -82.5 -41.5t-32.5 -105.5q0 -50 26.5 -80.5t67.5 -30.5z" />
    <glyph glyph-name="A" unicode="A" 
d="M233 285l-11 -34h216l-11 34q-38 118 -62 195.5t-29 96.5l-5 19q-11 -47 -98 -311zM140 0h-109l233 674h135l230 -674h-110l-53 165h-272z" />
    <glyph glyph-name="B" unicode="B" horiz-adv-x="581" 
d="M332 0h-259v674h221q106 0 167 -49.5t61 -130.5q0 -56 -31.5 -98t-80.5 -54q55 -10 92.5 -51t37.5 -110q0 -80 -54.5 -130.5t-153.5 -50.5zM286 589h-110v-207h93q75 0 111.5 30.5t36.5 79.5q0 43 -32.5 70t-98.5 27zM298 298h-122v-213h132q127 0 127 105
q0 51 -34.5 79.5t-102.5 28.5z" />
    <glyph glyph-name="C" unicode="C" horiz-adv-x="605" 
d="M561 33q-62 -41 -172 -41q-151 0 -247 94t-96 252q0 153 96.5 249t244.5 96q108 0 173 -37v-101q-44 24 -79.5 33.5t-90.5 9.5q-101 0 -168.5 -68.5t-67.5 -181.5q0 -115 67 -183t177 -68q97 0 163 50v-104z" />
    <glyph glyph-name="D" unicode="D" horiz-adv-x="667" 
d="M285 0h-212v674h210q150 0 246 -93t96 -237q0 -150 -90.5 -247t-249.5 -97zM281 586h-103v-499h106q115 0 175 72t60 185q0 104 -65 173t-173 69z" />
    <glyph glyph-name="E" unicode="E" horiz-adv-x="514" 
d="M462 0h-389v674h384v-86h-281v-208h249v-86h-249v-208h286v-86z" />
    <glyph glyph-name="F" unicode="F" horiz-adv-x="494" 
d="M421 281h-245v-281h-103v674h382v-86h-279v-221h245v-86z" />
    <glyph glyph-name="G" unicode="G" horiz-adv-x="681" 
d="M615 55q-87 -63 -218 -63q-158 0 -254.5 93t-96.5 253q0 155 97.5 251.5t247.5 96.5q117 0 196 -45v-106q-86 54 -192 54q-108 0 -174.5 -69t-66.5 -182q0 -116 65.5 -183t180.5 -67q60 0 114 22v186h-137v89h238v-323h-1z" />
    <glyph glyph-name="H" unicode="H" horiz-adv-x="656" 
d="M582 0h-103v295h-303v-295h-103v674h103v-290h303v290h103v-674z" />
    <glyph glyph-name="I" unicode="I" horiz-adv-x="264" 
d="M183 0h-102v674h102v-674z" />
    <glyph glyph-name="J" unicode="J" horiz-adv-x="368" 
d="M297 182q0 -93 -45.5 -137.5t-122.5 -44.5q-62 0 -99 21v95q41 -25 82 -25q82 0 82 87v496h103v-492z" />
    <glyph glyph-name="K" unicode="K" horiz-adv-x="599" 
d="M574 0h-130l-255 333l245 341h125l-247 -340zM176 0h-103v674h103v-674z" />
    <glyph glyph-name="L" unicode="L" horiz-adv-x="480" 
d="M452 0h-379v674h103v-583h276v-91z" />
    <glyph glyph-name="M" unicode="M" horiz-adv-x="868" 
d="M166 0h-102l52 674h122l90 -246q24 -63 48 -133.5t36 -109.5l13 -39q46 136 101 282l94 246h122l62 -674h-102l-24 264l-21 270q-45 -127 -98 -270l-94 -251h-81l-91 251l-91 266q0 -44 -16 -266z" />
    <glyph glyph-name="N" unicode="N" horiz-adv-x="680" 
d="M176 0h-103v674h122l166 -282q46 -79 83.5 -146t51.5 -94l14 -28q-6 91 -6 267v283h103v-674h-122l-167 281q-45 76 -82.5 143.5t-52.5 97.5l-15 29q8 -100 8 -269v-282z" />
    <glyph glyph-name="O" unicode="O" horiz-adv-x="711" 
d="M665 340q0 -158 -83.5 -253t-225.5 -95q-141 0 -225.5 95t-84.5 253q0 157 84 252t225 95q144 0 227 -94.5t83 -252.5zM154 340q0 -116 55 -184t147 -68q95 0 148 67t53 185q0 117 -53.5 184t-148.5 67q-94 0 -147.5 -67.5t-53.5 -183.5z" />
    <glyph glyph-name="P" unicode="P" horiz-adv-x="550" 
d="M272 239h-96v-239h-103v674h193q116 0 184 -61.5t68 -157.5t-68.5 -156t-177.5 -60zM262 589h-86v-265h88q73 0 111.5 36t38.5 95q0 62 -39 98t-113 36z" />
    <glyph glyph-name="Q" unicode="Q" horiz-adv-x="719" 
d="M665 340q0 -113 -44 -196t-124 -122l202 -121l-114 -45l-197 137q-11 -1 -32 -1q-141 0 -225.5 95t-84.5 253q0 157 84 252t225 95q144 0 227 -94.5t83 -252.5zM154 340q0 -116 55 -184t147 -68q95 0 148 67t53 185q0 117 -53.5 184t-148.5 67q-94 0 -147.5 -67.5
t-53.5 -183.5z" />
    <glyph glyph-name="R" unicode="R" horiz-adv-x="568" 
d="M264 588h-88v-246h93q64 0 97 33.5t33 89.5q0 123 -135 123zM176 0h-103v674h188q116 0 179 -56.5t63 -153.5q-1 -71 -36 -120.5t-97 -71.5l176 -272h-123l-158 256h-89v-256z" />
    <glyph glyph-name="S" unicode="S" horiz-adv-x="521" 
d="M472 184q0 -89 -63 -140t-163 -51q-111 0 -184 43v107q79 -59 183 -59q55 0 87 25.5t32 70.5q0 27 -19 49.5t-41 34t-66 31.5q-26 12 -36.5 17t-34.5 18t-35.5 22t-28.5 25t-24.5 32t-14 37.5t-6.5 46.5q0 86 62.5 136t161.5 50q91 0 155 -32v-102q-67 42 -152 42
q-55 0 -86.5 -24.5t-31.5 -64.5t31 -64t95 -52q42 -18 65.5 -31t54 -36.5t45 -56t14.5 -74.5z" />
    <glyph glyph-name="T" unicode="T" horiz-adv-x="500" 
d="M478 588h-177v-588h-103v588h-176v86h456v-86z" />
    <glyph glyph-name="U" unicode="U" horiz-adv-x="652" 
d="M581 258q0 -131 -68 -199t-188 -68q-118 0 -186 66.5t-68 192.5v424h103v-423q0 -86 41.5 -125.5t109.5 -39.5q153 0 153 170v418h103v-416z" />
    <glyph glyph-name="V" unicode="V" horiz-adv-x="643" 
d="M380 0h-122l-227 674h110l86 -268q28 -86 51 -164.5t32 -113.5l10 -36q32 120 96 314l87 268h110z" />
    <glyph glyph-name="W" unicode="W" horiz-adv-x="947" 
d="M332 0h-124l-177 674h107l63 -249l74 -316q45 168 88 316l69 239h91l71 -240l91 -317q37 182 69 317l59 250h104l-165 -674h-123l-64 213l-87 301q-23 -95 -84 -301z" />
    <glyph glyph-name="X" unicode="X" horiz-adv-x="628" 
d="M158 0h-123l216 341l-204 333h119l143 -242l141 242h123l-204 -334l223 -340h-121l-160 253z" />
    <glyph glyph-name="Y" unicode="Y" horiz-adv-x="608" 
d="M354 0h-103v251l-228 423h118l48 -99q46 -93 74 -153t33 -74l6 -13q9 30 116 240l49 99h118l-231 -423v-251z" />
    <glyph glyph-name="Z" unicode="Z" horiz-adv-x="584" 
d="M530 0h-476v81l340 508h-335v85h457v-79l-341 -510h355v-85z" />
    <glyph glyph-name="bracketleft" unicode="[" horiz-adv-x="325" 
d="M319 -186h-246v893h246v-87h-150v-719h150v-87z" />
    <glyph glyph-name="backslash" unicode="\" horiz-adv-x="420" 
d="M428 -103h-101l-364 810h102z" />
    <glyph glyph-name="bracketright" unicode="]" horiz-adv-x="325" 
d="M252 -186h-245v87h150v719h-150v87h245v-893z" />
    <glyph glyph-name="asciicircum" unicode="^" horiz-adv-x="470" 
d="M137 332h-96l145 262h100l142 -262h-95l-97 190z" />
    <glyph glyph-name="underscore" unicode="_" horiz-adv-x="557" 
d="M531 -119h-505v84h505v-84z" />
    <glyph glyph-name="grave" unicode="`" horiz-adv-x="444" 
d="M325 636h-84l-120 162h109z" />
    <glyph glyph-name="a" unicode="a" horiz-adv-x="499" 
d="M233 73q48 0 75.5 26.5t27.5 69.5v57h-76q-56 0 -84.5 -22t-28.5 -56q0 -35 22 -55t64 -20zM339 60q-39 -64 -137 -64q-72 0 -115.5 41.5t-43.5 105.5q0 73 55 113.5t154 40.5h84v29q0 52 -25 78.5t-83 26.5q-81 0 -147 -45v95q59 34 156 34q199 0 199 -193v-322h-97v60z
" />
    <glyph glyph-name="b" unicode="b" horiz-adv-x="582" 
d="M170 0h-99v707h99v-277q54 84 153 84q96 0 157 -72t61 -191q0 -107 -58 -182.5t-159 -75.5t-154 84v-77zM170 257q0 -90 40 -134t98 -44q56 0 94 47.5t38 122.5q0 86 -38 132.5t-97 46.5q-52 0 -93.5 -42t-41.5 -129z" />
    <glyph glyph-name="c" unicode="c" horiz-adv-x="471" 
d="M427 20q-49 -30 -125 -30q-119 0 -190 75t-71 187q0 109 71.5 186.5t193.5 77.5q66 0 121 -28v-90q-49 31 -111 31q-79 0 -126.5 -50t-47.5 -128q2 -77 47 -126.5t126 -49.5q60 0 112 33v-88z" />
    <glyph glyph-name="d" unicode="d" horiz-adv-x="580" 
d="M142 249q0 -76 37.5 -123t94.5 -47q58 0 98 44t40 134q0 87 -41.5 129t-93.5 42q-59 0 -97 -46.5t-38 -132.5zM511 0h-99v77q-53 -84 -155 -84q-100 0 -158 75.5t-58 182.5q0 119 61 191t157 72q99 0 153 -84v277h99v-707z" />
    <glyph glyph-name="e" unicode="e" horiz-adv-x="525" 
d="M447 27q-56 -32 -148 -32q-118 0 -188 71t-70 186q0 122 64 191.5t163 69.5q97 0 154 -60.5t57 -174.5q0 -31 -6 -65h-333q10 -66 56 -101t116 -35q81 0 135 38v-88zM270 432q-50 0 -86 -36.5t-45 -105.5h245v18q-2 57 -31 90.5t-83 33.5z" />
    <glyph glyph-name="f" unicode="f" horiz-adv-x="334" 
d="M316 431h-107v-431h-98v431h-81v76h81v39q0 79 42.5 124.5t119.5 45.5q28 0 57 -8v-86q-23 10 -48 10q-73 0 -73 -87v-38h107v-76z" />
    <glyph glyph-name="g" unicode="g" horiz-adv-x="559" 
d="M496 43q0 -117 -66.5 -176.5t-170.5 -59.5q-98 0 -165 33v99q64 -42 155 -42q149 0 149 147v52q-49 -82 -147 -82q-86 0 -147 63.5t-61 179.5q0 112 57 184.5t151 72.5q101 0 147 -86v79h98v-464zM146 259q0 -79 36.5 -120t86.5 -41q52 0 90.5 40.5t38.5 113.5
q0 90 -36.5 133t-88.5 43q-59 0 -93 -46.5t-34 -122.5z" />
    <glyph glyph-name="h" unicode="h" horiz-adv-x="551" 
d="M488 0h-98v320q0 52 -26.5 80.5t-69.5 28.5q-50 0 -88.5 -38t-38.5 -116v-275h-98v707h98v-287q43 94 157 94q74 0 119 -46t45 -128v-340z" />
    <glyph glyph-name="i" unicode="i" horiz-adv-x="245" 
d="M172 0h-99v507h99v-507zM184 662q0 -25 -18 -43t-44 -18t-43.5 17.5t-17.5 43.5t17.5 44t43.5 18t44 -18t18 -44z" />
    <glyph glyph-name="j" unicode="j" horiz-adv-x="242" 
d="M173 -45q0 -71 -37.5 -111t-106.5 -40q-32 0 -73 15v83q32 -16 64 -16q55 0 55 71v550h98v-552zM185 662q0 -25 -18 -43t-44 -18q-25 0 -43 17.5t-18 43.5t17.5 44t43.5 18t44 -18t18 -44z" />
    <glyph glyph-name="k" unicode="k" horiz-adv-x="500" 
d="M167 0h-98v700h98v-700zM284 265l199 -265h-117l-195 265l191 242h115z" />
    <glyph glyph-name="l" unicode="l" horiz-adv-x="245" 
d="M172 0h-99v707h99v-707z" />
    <glyph glyph-name="m" unicode="m" horiz-adv-x="830" 
d="M766 0h-98v320q0 109 -88 109q-44 0 -78.5 -39t-34.5 -115v-275h-98v320q0 109 -89 109q-43 0 -78 -39t-35 -115v-275h-98v507h98v-81q43 88 143 88q114 0 146 -98q21 47 61 72.5t90 25.5q78 0 118.5 -46t40.5 -127v-341z" />
    <glyph glyph-name="n" unicode="n" horiz-adv-x="551" 
d="M488 0h-98v320q0 53 -26.5 81t-70.5 28q-52 0 -89 -40.5t-37 -113.5v-275h-98v507h98v-87q45 94 158 94q75 0 119 -46t44 -125v-343z" />
    <glyph glyph-name="o" unicode="o" horiz-adv-x="564" 
d="M523 253q0 -114 -64.5 -188t-177.5 -74q-112 0 -176 73t-64 185q0 114 66 189.5t174 75.5q116 0 179 -73.5t63 -187.5zM143 252q0 -75 37 -126.5t101 -51.5q68 0 103.5 50t35.5 127q0 79 -34 129.5t-106 50.5q-65 0 -101 -51.5t-36 -127.5z" />
    <glyph glyph-name="p" unicode="p" horiz-adv-x="580" 
d="M167 -194h-98v701h98v-78q52 85 156 85q100 0 158 -72.5t58 -184.5q0 -115 -59.5 -189.5t-158.5 -74.5q-101 0 -154 84v-271zM167 255q0 -88 41.5 -132t94.5 -44q59 0 97 46.5t38 130.5q0 79 -37 125.5t-94 46.5t-98.5 -41.5t-41.5 -131.5z" />
    <glyph glyph-name="q" unicode="q" horiz-adv-x="580" 
d="M142 256q0 -83 38.5 -130t96.5 -47q54 0 94.5 44t40.5 132q0 90 -41 131.5t-97 41.5q-57 0 -94.5 -47t-37.5 -125zM511 -194h-99v272q-54 -85 -153 -85t-158.5 74.5t-59.5 189.5q0 112 58.5 184.5t158.5 72.5t154 -83v76h99v-701z" />
    <glyph glyph-name="r" unicode="r" horiz-adv-x="339" 
d="M167 0h-98v507h98v-89q37 94 133 94q14 0 31 -3v-96q-21 9 -47 9q-51 0 -84 -45t-33 -107v-270z" />
    <glyph glyph-name="s" unicode="s" horiz-adv-x="419" 
d="M386 140q0 -68 -48 -106.5t-130 -38.5q-90 0 -150 30v93q70 -43 145 -43q39 0 60.5 16t21.5 42q0 22 -17 39.5t-34.5 26t-59.5 26.5q-119 49 -119 144q0 67 50 105t125 38q82 0 128 -22v-89q-49 29 -126 29q-35 0 -55.5 -16t-20.5 -42q0 -7 1.5 -13.5t5.5 -13t7.5 -11
t11.5 -9.5t12.5 -8.5t15 -8.5t15.5 -7.5t17.5 -8t17.5 -7.5q59 -26 92.5 -58.5t33.5 -86.5z" />
    <glyph glyph-name="t" unicode="t" horiz-adv-x="374" 
d="M335 13q-33 -18 -81 -18q-157 0 -157 159v277h-79v76h79v124h99v-124h133v-76h-133v-279q0 -73 70 -73q41 0 69 22v-88z" />
    <glyph glyph-name="u" unicode="u" horiz-adv-x="551" 
d="M482 0h-98v87q-40 -93 -158 -93q-75 0 -119 44.5t-44 122.5v346h99v-322q0 -52 25.5 -79.5t70.5 -27.5q57 0 91.5 40t34.5 113v276h98v-507z" />
    <glyph glyph-name="v" unicode="v" horiz-adv-x="514" 
d="M311 0h-112l-180 507h103l69 -214q24 -74 40.5 -128t20.5 -71l4 -17q9 49 66 216l71 214h102z" />
    <glyph glyph-name="w" unicode="w" horiz-adv-x="796" 
d="M289 0h-111l-159 507h104l47 -168q23 -80 39 -141t20 -82l4 -21q13 63 66 245l49 167h95l50 -167q24 -83 41 -144.5t22 -81.5l4 -20q12 59 68 246l50 167h99l-161 -507h-112l-47 166q-21 76 -36.5 134.5t-20.5 79.5l-4 20q-14 -65 -61 -234z" />
    <glyph glyph-name="x" unicode="x" horiz-adv-x="492" 
d="M130 0h-108l173 258l-162 250h111l106 -179l109 179h110l-169 -251l169 -257h-111l-111 186z" />
    <glyph glyph-name="y" unicode="y" horiz-adv-x="504" 
d="M308 14q-73 -195 -223 -195q-27 0 -46 5v84q16 -4 34 -4q97 0 136 107l-202 496h109l63 -165l79 -214q9 30 72 214l57 165h104z" />
    <glyph glyph-name="z" unicode="z" horiz-adv-x="461" 
d="M418 0h-375v75l246 350h-237v82h353v-70l-249 -354h262v-83z" />
    <glyph glyph-name="braceleft" unicode="{" horiz-adv-x="348" 
d="M331 -185q-27 -9 -53 -9q-58 0 -98 44t-40 114q0 25 9 69.5t9 65.5q0 43 -22 74.5t-65 37.5q-9 1 -25 1v96q14 0 25 1q41 4 64 36t23 75q0 21 -9 65.5t-9 69.5q0 70 40 114t98 44q26 0 53 -9v-94q-17 9 -33 9q-28 0 -43.5 -19t-15.5 -49q0 -23 9 -70.5t9 -75.5
q0 -57 -32.5 -97t-87.5 -48q55 -8 87.5 -48.5t32.5 -97.5q0 -28 -9 -75.5t-9 -69.5q0 -30 15.5 -49.5t43.5 -19.5q16 0 33 9v-94z" />
    <glyph glyph-name="bar" unicode="|" horiz-adv-x="243" 
d="M167 -194h-91v889h91v-889z" />
    <glyph glyph-name="braceright" unicode="}" horiz-adv-x="348" 
d="M207 -36q0 -71 -39.5 -114.5t-98.5 -43.5q-25 0 -52 9v94q15 -9 32 -9q28 0 44 19.5t16 49.5q0 22 -9 69.5t-9 75.5q0 57 32 97.5t87 48.5q-55 8 -87 48t-32 97q0 28 9 75.5t9 70.5q0 29 -16 48.5t-44 19.5q-17 0 -32 -9v94q27 9 52 9q59 0 98.5 -43.5t39.5 -114.5
q0 -25 -9 -69.5t-9 -65.5q0 -43 23 -75t65 -36q10 -1 25 -1v-96q-17 0 -25 -1q-44 -6 -66 -37.5t-22 -74.5q0 -21 9 -65.5t9 -69.5z" />
    <glyph glyph-name="asciitilde" unicode="~" horiz-adv-x="615" 
d="M212 259q-63 0 -112 -66l-66 56q69 99 160 99q45 0 86 -16.5t74.5 -33t60.5 -16.5q55 0 95 59l71 -53q-63 -96 -152 -96q-51 0 -119.5 33.5t-97.5 33.5z" />
    <glyph glyph-name="exclamdown" unicode="&#xa1;" horiz-adv-x="262" 
d="M179 -165h-96v460h96v-460zM199 449q0 -29 -20.5 -49t-48.5 -20q-29 0 -48.5 20t-19.5 49t19.5 48.5t48.5 19.5t49 -19.5t20 -48.5z" />
    <glyph glyph-name="cent" unicode="&#xa2;" horiz-adv-x="460" 
d="M420 17q-34 -16 -79 -23v-105h-84v106q-99 16 -157.5 87t-58.5 170q1 97 58.5 169t157.5 88v108h84v-106q42 -5 79 -23v-88q-48 27 -102 27q-79 0 -127 -49.5t-49 -126.5q2 -76 48.5 -125t127.5 -49q54 0 102 28v-88z" />
    <glyph glyph-name="sterling" unicode="&#xa3;" horiz-adv-x="527" 
d="M490 0h-434v82q52 26 72 63.5t20 104.5q0 11 -2 35h-86v75h78q-7 51 -7 81q0 104 55 161t157 57q69 0 117 -27v-96q-48 30 -102 30q-122 0 -122 -125q0 -25 6 -81h176v-75h-168q0 -6 0.5 -18t0.5 -17q0 -118 -74 -165h313v-85z" />
    <glyph glyph-name="currency" unicode="&#xa4;" horiz-adv-x="551" 
d="M151 129l-58 -58l-61 59l59 58q-35 50 -35 122q0 66 36 122l-60 60l61 59l60 -60q54 37 125 37q66 0 123 -34l58 57l60 -59l-58 -58q35 -55 35 -120q0 -68 -38 -124l61 -60l-60 -59l-62 60q-52 -35 -123 -35q-72 0 -123 33zM140 312q0 -58 38.5 -97.5t97.5 -39.5
q60 0 98 39t38 98q0 58 -38.5 97.5t-97.5 39.5t-97.5 -39.5t-38.5 -97.5z" />
    <glyph glyph-name="yen" unicode="&#xa5;" horiz-adv-x="600" 
d="M526 145h-177v-145h-103v145h-176v68h176v41l-22 40h-154v68h116l-160 292h118l153 -300l157 300h117l-162 -292h117v-68h-155l-22 -40v-41h177v-68z" />
    <glyph glyph-name="brokenbar" unicode="&#xa6;" horiz-adv-x="243" 
d="M167 367h-91v333h91v-333zM167 -160h-91v333h91v-333z" />
    <glyph glyph-name="section" unicode="&#xa7;" horiz-adv-x="537" 
d="M288 176q44 -18 73 -34q19 25 19 60q0 40 -28.5 63t-93.5 55q-9 4 -13 6q-12 5 -35 16t-35 17q-22 -28 -22 -62q0 -41 31.5 -65t103.5 -56zM479 201q0 -70 -42 -117q38 -45 38 -102q0 -86 -61.5 -133t-162.5 -47q-111 0 -184 43v107q79 -59 183 -59q57 0 88.5 22.5
t31.5 65.5q0 37 -30 60.5t-117 61.5q-81 36 -125.5 78.5t-44.5 115.5q0 65 43 115q-36 38 -36 93q0 83 61 129t159 46q91 0 155 -32v-102q-70 42 -152 42q-56 0 -86 -21t-30 -59q0 -17 6 -29.5t22.5 -24t29.5 -18.5t44 -21t50 -23q38 -18 61.5 -32t49 -36.5t37.5 -53
t12 -69.5z" />
    <glyph glyph-name="dieresis" unicode="&#xa8;" horiz-adv-x="444" 
d="M393 719q0 -26 -17.5 -43t-43.5 -17t-43 17.5t-17 42.5t17 42.5t43 17.5t43.5 -17t17.5 -43zM172 719q0 -25 -17 -42.5t-43 -17.5q-27 0 -44 17t-17 43t17 43t44 17q26 0 43 -17.5t17 -42.5z" />
    <glyph glyph-name="copyright" unicode="&#xa9;" horiz-adv-x="772" 
d="M493 175q-36 -21 -88 -21q-80 0 -131 52t-51 129t50 130.5t135 53.5q47 0 85 -21v-73q-34 22 -79 22q-47 0 -78 -30.5t-31 -81.5q1 -48 31 -79.5t77 -31.5q45 0 80 25v-74zM731 337q0 -142 -101.5 -244t-243.5 -102t-243.5 102t-101.5 244t101.5 243.5t243.5 101.5
t243.5 -101.5t101.5 -243.5zM116 336q0 -113 78.5 -191.5t192.5 -78.5q113 0 191 78.5t78 191.5t-78.5 192t-190.5 79q-114 0 -192.5 -79t-78.5 -192z" />
    <glyph glyph-name="ordfeminine" unicode="&#xaa;" horiz-adv-x="365" 
d="M164 454q38 0 62.5 22.5t24.5 54.5v51h-57q-50 0 -77 -17t-27 -49q0 -29 19 -45.5t55 -16.5zM253 445q-39 -57 -115 -57q-61 0 -97.5 34t-36.5 91q0 61 46.5 96t130.5 35h70v22q0 44 -21 66.5t-71 22.5q-69 0 -123 -37v79q51 29 132 29q86 0 126.5 -40.5t40.5 -121.5
v-272h-82v53z" />
    <glyph glyph-name="guillemotleft" unicode="&#xab;" horiz-adv-x="512" 
d="M333 253l146 -162h-106l-151 162l151 162h106zM284 91h-107l-150 162l150 162h107l-147 -162z" />
    <glyph glyph-name="logicalnot" unicode="&#xac;" horiz-adv-x="565" 
d="M526 153h-87v177h-408v84h495v-261z" />
    <glyph glyph-name="uni00AD" unicode="&#xad;" horiz-adv-x="350" 
d="M297 225h-244v84h244v-84z" />
    <glyph glyph-name="registered" unicode="&#xae;" horiz-adv-x="462" 
d="M210 464h-47v220h64q84 0 84 -70q0 -44 -36 -62l56 -88h-56l-48 80h-17v-80zM231 645h-21v-63h24q29 0 29 32q0 31 -32 31zM452 567q0 -96 -62.5 -158t-158.5 -62t-158.5 62t-62.5 158t62.5 158t158.5 62t158.5 -62t62.5 -158zM62 567q0 -76 46.5 -123t123.5 -47
q76 0 122.5 47t46.5 123t-46.5 123.5t-122.5 47.5q-77 0 -123.5 -47.5t-46.5 -123.5z" />
    <glyph glyph-name="macron" unicode="&#xaf;" horiz-adv-x="444" 
d="M374 681h-304v68h304v-68z" />
    <glyph glyph-name="degree" unicode="&#xb0;" horiz-adv-x="380" 
d="M350 522q0 -68 -46.5 -113.5t-114.5 -45.5t-113.5 44.5t-45.5 112.5q0 67 46.5 113t114.5 46t113.5 -45t45.5 -112zM105 521q0 -36 25 -61.5t61 -25.5t60 25.5t24 61.5t-25 61.5t-61 25.5t-60 -25.5t-24 -61.5z" />
    <glyph glyph-name="plusminus" unicode="&#xb1;" horiz-adv-x="564" 
d="M510 329h-185v-160h-91v160h-181v85h181v160h91v-160h185v-85zM510 30h-457v84h457v-84z" />
    <glyph glyph-name="twosuperior" unicode="&#xb2;" horiz-adv-x="365" 
d="M327 392h-284v57q190 141 190 238q0 33 -19.5 50.5t-52.5 17.5q-51 0 -105 -40v79q53 33 112 33q62 0 103.5 -35t41.5 -98q0 -59 -46 -120.5t-121 -116.5h181v-65z" />
    <glyph glyph-name="threesuperior" unicode="&#xb3;" horiz-adv-x="333" 
d="M298 508q0 -53 -38 -86.5t-106 -33.5q-69 0 -119 25v70q53 -28 111 -28q35 0 54.5 16.5t19.5 43.5q0 62 -94 62h-21v65h21q36 0 59 15.5t23 44.5q0 57 -66 57q-46 0 -94 -33v74q43 27 98 27q67 0 104 -33.5t37 -83.5q0 -40 -21 -65.5t-58 -33.5q38 -4 64 -32t26 -71z" />
    <glyph glyph-name="acute" unicode="&#xb4;" horiz-adv-x="444" 
d="M205 636h-84l95 162h109z" />
    <glyph glyph-name="uni00B5" unicode="&#xb5;" horiz-adv-x="557" 
d="M167 -179h-98v686h98v-322q0 -51 32.5 -79t79.5 -28q53 0 82 39.5t29 113.5v276h98v-507h-98v72q-36 -78 -125 -78q-57 0 -98 29v-202z" />
    <glyph glyph-name="paragraph" unicode="&#xb6;" horiz-adv-x="559" 
d="M297 -148h-82v482q-92 0 -143 48.5t-51 120.5q0 70 51.5 120.5t149.5 50.5h75v-822zM488 -148h-83l1 822h82v-822z" />
    <glyph glyph-name="periodcentered" unicode="&#xb7;" horiz-adv-x="242" 
d="M189 300q0 -28 -19.5 -48t-47.5 -20t-48 20t-20 48t19.5 47.5t48.5 19.5q28 0 47.5 -19.5t19.5 -47.5z" />
    <glyph glyph-name="cedilla" unicode="&#xb8;" horiz-adv-x="444" 
d="M301 -123q0 -56 -41 -94.5t-118 -39.5v68q82 5 82 69q0 32 -25 69h84q18 -25 18 -72z" />
    <glyph glyph-name="onesuperior" unicode="&#xb9;" horiz-adv-x="258" 
d="M194 392h-75v346l-109 -60v75l122 70h62v-431z" />
    <glyph glyph-name="ordmasculine" unicode="&#xba;" horiz-adv-x="395" 
d="M396 608q0 -97 -52.5 -159.5t-146.5 -62.5q-93 0 -145.5 61.5t-52.5 156.5q0 97 54 160.5t144 63.5q96 0 147.5 -62t51.5 -158zM85 606q0 -64 30 -107.5t82 -43.5q55 0 83.5 42.5t28.5 108.5q0 67 -27 110t-86 43q-53 0 -82 -44t-29 -109z" />
    <glyph glyph-name="guillemotright" unicode="&#xbb;" horiz-adv-x="514" 
d="M485 253l-150 -162h-106l146 162l-146 162h106zM139 91h-106l146 162l-146 162h106l151 -162z" />
    <glyph glyph-name="onequarter" unicode="&#xbc;" horiz-adv-x="831" 
d="M220 0h-82l444 712h82zM233 280h-75v346l-109 -59v75l122 69h62v-431zM544 156h121v217zM738 0h-73v95h-196v61l155 273h114v-273h59v-61h-59v-95z" />
    <glyph glyph-name="onehalf" unicode="&#xbd;" horiz-adv-x="833" 
d="M220 0h-82l444 712h82zM233 280h-75v346l-109 -59v75l122 69h62v-431zM800 0h-284v57q190 141 190 238q0 33 -19.5 50.5t-52.5 17.5q-51 0 -105 -40v79q53 33 112 33q62 0 103.5 -35t41.5 -98q0 -59 -46 -120.5t-121 -116.5h181v-65z" />
    <glyph glyph-name="threequarters" unicode="&#xbe;" horiz-adv-x="876" 
d="M275 0h-82l444 712h83zM321 396q0 -54 -38 -87t-106 -33q-69 0 -119 25v70q52 -28 111 -28q34 0 54 16.5t20 43.5q0 62 -94 62h-22v64h22q35 0 58.5 16t23.5 45q0 57 -66 57q-48 0 -94 -33v74q43 27 97 27q68 0 105 -33.5t37 -84.5q0 -39 -21 -65t-58 -34q37 -3 63.5 -31
t26.5 -71zM600 156h120v217zM793 0h-73v95h-196v61l155 273h114v-273h59v-61h-59v-95z" />
    <glyph glyph-name="questiondown" unicode="&#xbf;" horiz-adv-x="454" 
d="M418 -136q-68 -37 -158 -37q-95 0 -152 48.5t-57 134.5q0 59 31 101.5t71.5 61.5t84.5 22l1 101h93l1 -162q-181 0 -181 -116q0 -47 29.5 -75.5t88.5 -28.5q75 0 148 47v-97zM355 449q0 -29 -19.5 -48.5t-48.5 -19.5t-49 19.5t-20 48.5t20 48.5t49 19.5t48.5 -19.5
t19.5 -48.5z" />
    <glyph glyph-name="Agrave" unicode="&#xc0;" 
d="M233 285l-11 -34h216l-11 34q-38 118 -62 195.5t-29 96.5l-5 19q-11 -47 -98 -311zM140 0h-109l233 674h135l230 -674h-110l-53 165h-272zM369 725h-84l-120 162h109z" />
    <glyph glyph-name="Aacute" unicode="&#xc1;" 
d="M233 285l-11 -34h216l-11 34q-38 118 -62 195.5t-29 96.5l-5 19q-11 -47 -98 -311zM140 0h-109l233 674h135l230 -674h-110l-53 165h-272zM382 725h-84l95 162h109z" />
    <glyph glyph-name="Acircumflex" unicode="&#xc2;" 
d="M233 285l-11 -34h216l-11 34q-38 118 -62 195.5t-29 96.5l-5 19q-11 -47 -98 -311zM140 0h-109l233 674h135l230 -674h-110l-53 165h-272zM250 725h-97l135 162h90l135 -162h-97l-84 102z" />
    <glyph glyph-name="Atilde" unicode="&#xc3;" 
d="M233 285l-11 -34h216l-11 34q-38 118 -62 195.5t-29 96.5l-5 19q-11 -47 -98 -311zM140 0h-109l233 674h135l230 -674h-110l-53 165h-272zM274 793q-23 0 -38.5 -11t-31.5 -35l-49 45q14 31 42.5 52.5t62.5 21.5q32 0 74 -20.5t61 -20.5q37 0 58 43l56 -42
q-35 -74 -109 -74q-29 0 -69.5 20.5t-56.5 20.5z" />
    <glyph glyph-name="Adieresis" unicode="&#xc4;" 
d="M233 285l-11 -34h216l-11 34q-38 118 -62 195.5t-29 96.5l-5 19q-11 -47 -98 -311zM140 0h-109l233 674h135l230 -674h-110l-53 165h-272zM506 807q0 -26 -17.5 -43t-43.5 -17q-25 0 -42.5 17.5t-17.5 42.5t17.5 42.5t42.5 17.5q26 0 43.5 -17t17.5 -43zM285 807
q0 -25 -17.5 -42.5t-42.5 -17.5q-27 0 -44 17t-17 43t17 43t44 17q25 0 42.5 -17.5t17.5 -42.5z" />
    <glyph glyph-name="Aring" unicode="&#xc5;" 
d="M233 285l-11 -34h216l-11 34q-38 118 -62 195.5t-29 96.5l-5 19q-11 -47 -98 -311zM140 0h-109l233 674h135l230 -674h-110l-53 165h-272zM449 829q0 -47 -34 -80.5t-82 -33.5q-47 0 -80.5 33.5t-33.5 80.5q0 48 33.5 82t80.5 34q48 0 82 -34t34 -82zM280 831
q0 -22 15.5 -38.5t37.5 -16.5q23 0 38.5 16.5t15.5 38.5t-15.5 38t-38.5 16q-22 0 -37.5 -16t-15.5 -38z" />
    <glyph glyph-name="AE" unicode="&#xc6;" horiz-adv-x="897" 
d="M127 0h-108l366 674h455v-86h-281v-208h249v-86h-249v-208h286v-86h-386v165h-241zM285 285l-19 -34h193v357q-56 -113 -174 -323z" />
    <glyph glyph-name="Ccedilla" unicode="&#xc7;" horiz-adv-x="605" 
d="M561 33q-62 -41 -172 -41q-151 0 -247 94t-96 252q0 153 96.5 249t244.5 96q108 0 173 -37v-101q-44 24 -79.5 33.5t-90.5 9.5q-101 0 -168.5 -68.5t-67.5 -181.5q0 -115 67 -183t177 -68q97 0 163 50v-104zM430 -123q0 -56 -41 -94.5t-118 -39.5v68q82 5 82 69
q0 32 -25 69h84q18 -25 18 -72z" />
    <glyph glyph-name="Egrave" unicode="&#xc8;" horiz-adv-x="514" 
d="M462 0h-389v674h384v-86h-281v-208h249v-86h-249v-208h286v-86zM327 725h-84l-120 162h109z" />
    <glyph glyph-name="Eacute" unicode="&#xc9;" horiz-adv-x="514" 
d="M462 0h-389v674h384v-86h-281v-208h249v-86h-249v-208h286v-86zM322 725h-84l95 162h109z" />
    <glyph glyph-name="Ecircumflex" unicode="&#xca;" horiz-adv-x="514" 
d="M462 0h-389v674h384v-86h-281v-208h249v-86h-249v-208h286v-86zM190 725h-97l135 162h90l135 -162h-97l-84 102z" />
    <glyph glyph-name="Edieresis" unicode="&#xcb;" horiz-adv-x="514" 
d="M462 0h-389v674h384v-86h-281v-208h249v-86h-249v-208h286v-86zM440 806q0 -26 -17.5 -43t-43.5 -17q-25 0 -42.5 17t-17.5 43t17.5 43t42.5 17q26 0 43.5 -17t17.5 -43zM219 806q0 -26 -17.5 -43t-42.5 -17q-27 0 -44 17t-17 43t17 43t44 17q25 0 42.5 -17t17.5 -43z
" />
    <glyph glyph-name="Igrave" unicode="&#xcc;" horiz-adv-x="264" 
d="M183 0h-102v674h102v-674zM169 725h-84l-120 162h109z" />
    <glyph glyph-name="Iacute" unicode="&#xcd;" horiz-adv-x="264" 
d="M183 0h-102v674h102v-674zM178 725h-84l95 162h109z" />
    <glyph glyph-name="Icircumflex" unicode="&#xce;" horiz-adv-x="264" 
d="M183 0h-102v674h102v-674zM50 725h-97l135 162h90l135 -162h-97l-84 102z" />
    <glyph glyph-name="Idieresis" unicode="&#xcf;" horiz-adv-x="264" 
d="M183 0h-102v674h102v-674zM306 807q0 -26 -17.5 -43t-43.5 -17q-25 0 -42.5 17.5t-17.5 42.5t17.5 42.5t42.5 17.5q26 0 43.5 -17t17.5 -43zM85 807q0 -25 -17.5 -42.5t-42.5 -17.5q-27 0 -44 17t-17 43t17 43t44 17q25 0 42.5 -17.5t17.5 -42.5z" />
    <glyph glyph-name="Eth" unicode="&#xd0;" horiz-adv-x="736" 
d="M353 0h-211v294h-80v84h80v296h209q150 0 246 -93t96 -237q0 -150 -90.5 -247t-249.5 -97zM410 294h-164v-207h106q116 0 176 72t60 185q0 104 -65.5 173t-173.5 69h-103v-208h164v-84z" />
    <glyph glyph-name="Ntilde" unicode="&#xd1;" horiz-adv-x="680" 
d="M176 0h-103v674h122l166 -282q46 -79 83.5 -146t51.5 -94l14 -28q-6 91 -6 267v283h103v-674h-122l-167 281q-45 76 -82.5 143.5t-52.5 97.5l-15 29q8 -100 8 -269v-282zM290 793q-23 0 -38.5 -11t-31.5 -35l-49 45q14 31 42.5 52.5t62.5 21.5q32 0 74 -20.5t61 -20.5
q37 0 58 43l56 -42q-35 -74 -109 -74q-29 0 -69.5 20.5t-56.5 20.5z" />
    <glyph glyph-name="Ograve" unicode="&#xd2;" horiz-adv-x="711" 
d="M665 340q0 -158 -83.5 -253t-225.5 -95q-141 0 -225.5 95t-84.5 253q0 157 84 252t225 95q144 0 227 -94.5t83 -252.5zM154 340q0 -116 55 -184t147 -68q95 0 148 67t53 185q0 117 -53.5 184t-148.5 67q-94 0 -147.5 -67.5t-53.5 -183.5zM407 725h-84l-120 162h109z" />
    <glyph glyph-name="Oacute" unicode="&#xd3;" horiz-adv-x="711" 
d="M665 340q0 -158 -83.5 -253t-225.5 -95q-141 0 -225.5 95t-84.5 253q0 157 84 252t225 95q144 0 227 -94.5t83 -252.5zM154 340q0 -116 55 -184t147 -68q95 0 148 67t53 185q0 117 -53.5 184t-148.5 67q-94 0 -147.5 -67.5t-53.5 -183.5zM404 725h-84l95 162h109z" />
    <glyph glyph-name="Ocircumflex" unicode="&#xd4;" horiz-adv-x="711" 
d="M665 340q0 -158 -83.5 -253t-225.5 -95q-141 0 -225.5 95t-84.5 253q0 157 84 252t225 95q144 0 227 -94.5t83 -252.5zM154 340q0 -116 55 -184t147 -68q95 0 148 67t53 185q0 117 -53.5 184t-148.5 67q-94 0 -147.5 -67.5t-53.5 -183.5zM279 725h-97l135 162h90
l135 -162h-97l-84 102z" />
    <glyph glyph-name="Otilde" unicode="&#xd5;" horiz-adv-x="711" 
d="M665 340q0 -158 -83.5 -253t-225.5 -95q-141 0 -225.5 95t-84.5 253q0 157 84 252t225 95q144 0 227 -94.5t83 -252.5zM154 340q0 -116 55 -184t147 -68q95 0 148 67t53 185q0 117 -53.5 184t-148.5 67q-94 0 -147.5 -67.5t-53.5 -183.5zM299 794q-23 0 -38.5 -11
t-31.5 -35l-49 45q14 31 42.5 52.5t62.5 21.5q32 0 74 -20.5t61 -20.5q37 0 58 43l56 -42q-35 -74 -109 -74q-29 0 -69.5 20.5t-56.5 20.5z" />
    <glyph glyph-name="Odieresis" unicode="&#xd6;" horiz-adv-x="711" 
d="M665 340q0 -158 -83.5 -253t-225.5 -95q-141 0 -225.5 95t-84.5 253q0 157 84 252t225 95q144 0 227 -94.5t83 -252.5zM154 340q0 -116 55 -184t147 -68q95 0 148 67t53 185q0 117 -53.5 184t-148.5 67q-94 0 -147.5 -67.5t-53.5 -183.5zM532 807q0 -26 -17.5 -43
t-43.5 -17q-25 0 -42.5 17.5t-17.5 42.5t17.5 42.5t42.5 17.5q26 0 43.5 -17t17.5 -43zM311 807q0 -25 -17.5 -42.5t-42.5 -17.5q-27 0 -44 17t-17 43t17 43t44 17q25 0 42.5 -17.5t17.5 -42.5z" />
    <glyph glyph-name="multiply" unicode="&#xd7;" horiz-adv-x="503" 
d="M445 210l-63 -63l-131 130l-130 -129l-64 63l130 130l-133 132l63 63l133 -132l133 132l64 -64l-133 -132z" />
    <glyph glyph-name="Oslash" unicode="&#xd8;" horiz-adv-x="686" 
d="M660 340q0 -158 -83.5 -253t-225.5 -95q-98 0 -171 48l-36 -48h-104l77 104q-77 94 -77 244q0 157 84 252t226 95q98 0 172 -47l35 46h104l-76 -103q75 -94 75 -243zM146 340q0 -94 36 -158l282 380q-45 33 -114 33q-95 0 -149.5 -68.5t-54.5 -186.5zM351 84
q96 0 149.5 68.5t53.5 187.5q0 94 -34 157l-282 -379q48 -34 113 -34z" />
    <glyph glyph-name="Ugrave" unicode="&#xd9;" horiz-adv-x="652" 
d="M581 258q0 -131 -68 -199t-188 -68q-118 0 -186 66.5t-68 192.5v424h103v-423q0 -86 41.5 -125.5t109.5 -39.5q153 0 153 170v418h103v-416zM372 725h-84l-120 162h109z" />
    <glyph glyph-name="Uacute" unicode="&#xda;" horiz-adv-x="652" 
d="M581 258q0 -131 -68 -199t-188 -68q-118 0 -186 66.5t-68 192.5v424h103v-423q0 -86 41.5 -125.5t109.5 -39.5q153 0 153 170v418h103v-416zM381 725h-84l95 162h109z" />
    <glyph glyph-name="Ucircumflex" unicode="&#xdb;" horiz-adv-x="652" 
d="M581 258q0 -131 -68 -199t-188 -68q-118 0 -186 66.5t-68 192.5v424h103v-423q0 -86 41.5 -125.5t109.5 -39.5q153 0 153 170v418h103v-416zM244 725h-97l135 162h90l135 -162h-97l-84 102z" />
    <glyph glyph-name="Udieresis" unicode="&#xdc;" horiz-adv-x="652" 
d="M581 258q0 -131 -68 -199t-188 -68q-118 0 -186 66.5t-68 192.5v424h103v-423q0 -86 41.5 -125.5t109.5 -39.5q153 0 153 170v418h103v-416zM499 807q0 -26 -17.5 -43t-43.5 -17t-43 17.5t-17 42.5t17 42.5t43 17.5t43.5 -17t17.5 -43zM278 807q0 -25 -17 -42.5
t-43 -17.5q-27 0 -44 17t-17 43t17 43t44 17q26 0 43 -17.5t17 -42.5z" />
    <glyph glyph-name="Yacute" unicode="&#xdd;" horiz-adv-x="608" 
d="M354 0h-103v251l-228 423h118l48 -99q46 -93 74 -153t33 -74l6 -13q9 30 116 240l49 99h118l-231 -423v-251zM362 725h-84l95 162h109z" />
    <glyph glyph-name="Thorn" unicode="&#xde;" horiz-adv-x="544" 
d="M267 120h-91v-120h-103v674h103v-120h85q119 0 185.5 -60.5t66.5 -158.5q0 -97 -67 -156t-179 -59zM259 469h-83v-264h89q72 0 108 35.5t36 92.5q0 61 -36.5 98.5t-113.5 37.5z" />
    <glyph glyph-name="germandbls" unicode="&#xdf;" horiz-adv-x="558" 
d="M531 143q0 -67 -46 -109t-126 -42q-59 0 -95 16v90q43 -24 90 -24q37 0 59.5 18t22.5 48q0 24 -15 44.5t-37 37t-44 34t-37 42t-15 54.5q0 40 37 90t37 84t-24 54.5t-64 20.5q-106 0 -106 -111v-490h-97v486q0 100 54 152t148 52q84 0 136.5 -46.5t52.5 -112.5
q0 -42 -18 -74.5t-35.5 -55t-17.5 -41.5t22 -40t48 -39.5t48 -55t22 -82.5z" />
    <glyph glyph-name="agrave" unicode="&#xe0;" horiz-adv-x="499" 
d="M233 73q48 0 75.5 26.5t27.5 69.5v57h-76q-56 0 -84.5 -22t-28.5 -56q0 -35 22 -55t64 -20zM339 60q-39 -64 -137 -64q-72 0 -115.5 41.5t-43.5 105.5q0 73 55 113.5t154 40.5h84v29q0 52 -25 78.5t-83 26.5q-81 0 -147 -45v95q59 34 156 34q199 0 199 -193v-322h-97v60z
M301 558h-84l-120 162h109z" />
    <glyph glyph-name="aacute" unicode="&#xe1;" horiz-adv-x="499" 
d="M233 73q48 0 75.5 26.5t27.5 69.5v57h-76q-56 0 -84.5 -22t-28.5 -56q0 -35 22 -55t64 -20zM339 60q-39 -64 -137 -64q-72 0 -115.5 41.5t-43.5 105.5q0 73 55 113.5t154 40.5h84v29q0 52 -25 78.5t-83 26.5q-81 0 -147 -45v95q59 34 156 34q199 0 199 -193v-322h-97v60z
M299 558h-84l95 162h109z" />
    <glyph glyph-name="acircumflex" unicode="&#xe2;" horiz-adv-x="499" 
d="M233 73q48 0 75.5 26.5t27.5 69.5v57h-76q-56 0 -84.5 -22t-28.5 -56q0 -35 22 -55t64 -20zM339 60q-39 -64 -137 -64q-72 0 -115.5 41.5t-43.5 105.5q0 73 55 113.5t154 40.5h84v29q0 52 -25 78.5t-83 26.5q-81 0 -147 -45v95q59 34 156 34q199 0 199 -193v-322h-97v60z
M172 558h-97l135 162h90l135 -162h-97l-84 102z" />
    <glyph glyph-name="atilde" unicode="&#xe3;" horiz-adv-x="499" 
d="M233 73q48 0 75.5 26.5t27.5 69.5v57h-76q-56 0 -84.5 -22t-28.5 -56q0 -35 22 -55t64 -20zM339 60q-39 -64 -137 -64q-72 0 -115.5 41.5t-43.5 105.5q0 73 55 113.5t154 40.5h84v29q0 52 -25 78.5t-83 26.5q-81 0 -147 -45v95q59 34 156 34q199 0 199 -193v-322h-97v60z
M194 626q-23 0 -38.5 -11t-31.5 -35l-49 45q14 31 42.5 52.5t62.5 21.5q32 0 74 -20.5t61 -20.5q37 0 58 43l56 -42q-35 -74 -109 -74q-29 0 -69.5 20.5t-56.5 20.5z" />
    <glyph glyph-name="adieresis" unicode="&#xe4;" horiz-adv-x="499" 
d="M233 73q48 0 75.5 26.5t27.5 69.5v57h-76q-56 0 -84.5 -22t-28.5 -56q0 -35 22 -55t64 -20zM339 60q-39 -64 -137 -64q-72 0 -115.5 41.5t-43.5 105.5q0 73 55 113.5t154 40.5h84v29q0 52 -25 78.5t-83 26.5q-81 0 -147 -45v95q59 34 156 34q199 0 199 -193v-322h-97v60z
M427 638q0 -26 -17.5 -43t-43.5 -17t-43 17t-17 43t17 43t43 17t43.5 -17t17.5 -43zM206 638q0 -26 -17 -43t-43 -17q-27 0 -44 17t-17 43t17 43t44 17q26 0 43 -17t17 -43z" />
    <glyph glyph-name="aring" unicode="&#xe5;" horiz-adv-x="499" 
d="M233 73q48 0 75.5 26.5t27.5 69.5v57h-76q-56 0 -84.5 -22t-28.5 -56q0 -35 22 -55t64 -20zM339 60q-39 -64 -137 -64q-72 0 -115.5 41.5t-43.5 105.5q0 73 55 113.5t154 40.5h84v29q0 52 -25 78.5t-83 26.5q-81 0 -147 -45v95q59 34 156 34q199 0 199 -193v-322h-97v60z
M372 662q0 -47 -34 -80.5t-82 -33.5q-47 0 -80.5 33.5t-33.5 80.5q0 48 33.5 82t80.5 34q48 0 82 -34t34 -82zM203 664q0 -22 15.5 -38.5t37.5 -16.5q23 0 38.5 16.5t15.5 38.5t-15.5 38t-38.5 16q-22 0 -37.5 -16t-15.5 -38z" />
    <glyph glyph-name="ae" unicode="&#xe6;" horiz-adv-x="816" 
d="M395 96q-19 -44 -64.5 -72.5t-114.5 -28.5q-77 0 -122.5 40t-45.5 108q0 73 55.5 114t155.5 41h82v28q0 52 -25 78.5t-83 26.5q-80 0 -147 -44v93q58 35 152 35q125 0 160 -85q56 83 170 83q99 0 153.5 -61t54.5 -177q0 -28 -6 -62h-331q11 -66 56.5 -101t111.5 -35
q80 0 134 38v-88q-56 -32 -143 -32q-63 0 -118.5 26.5t-84.5 74.5zM151 147q0 -34 22 -53.5t65 -19.5q44 0 73.5 27.5t29.5 73.5v50h-67q-123 0 -123 -78zM569 432q-50 0 -86.5 -36t-45.5 -106h244v18q-1 59 -31 91.5t-81 32.5z" />
    <glyph glyph-name="ccedilla" unicode="&#xe7;" horiz-adv-x="471" 
d="M427 20q-49 -30 -125 -30q-119 0 -190 75t-71 187q0 109 71.5 186.5t193.5 77.5q66 0 121 -28v-90q-49 31 -111 31q-79 0 -126.5 -50t-47.5 -128q2 -77 47 -126.5t126 -49.5q60 0 112 33v-88zM348 -123q0 -56 -41 -94.5t-118 -39.5v68q82 5 82 69q0 32 -25 69h84
q18 -25 18 -72z" />
    <glyph glyph-name="egrave" unicode="&#xe8;" horiz-adv-x="525" 
d="M447 27q-56 -32 -148 -32q-118 0 -188 71t-70 186q0 122 64 191.5t163 69.5q97 0 154 -60.5t57 -174.5q0 -31 -6 -65h-333q10 -66 56 -101t116 -35q81 0 135 38v-88zM270 432q-50 0 -86 -36.5t-45 -105.5h245v18q-2 57 -31 90.5t-83 33.5zM324 558h-84l-120 162h109z" />
    <glyph glyph-name="eacute" unicode="&#xe9;" horiz-adv-x="525" 
d="M447 27q-56 -32 -148 -32q-118 0 -188 71t-70 186q0 122 64 191.5t163 69.5q97 0 154 -60.5t57 -174.5q0 -31 -6 -65h-333q10 -66 56 -101t116 -35q81 0 135 38v-88zM270 432q-50 0 -86 -36.5t-45 -105.5h245v18q-2 57 -31 90.5t-83 33.5zM328 558h-84l95 162h109z" />
    <glyph glyph-name="ecircumflex" unicode="&#xea;" horiz-adv-x="525" 
d="M447 27q-56 -32 -148 -32q-118 0 -188 71t-70 186q0 122 64 191.5t163 69.5q97 0 154 -60.5t57 -174.5q0 -31 -6 -65h-333q10 -66 56 -101t116 -35q81 0 135 38v-88zM270 432q-50 0 -86 -36.5t-45 -105.5h245v18q-2 57 -31 90.5t-83 33.5zM195 558h-97l135 162h90
l135 -162h-97l-84 102z" />
    <glyph glyph-name="edieresis" unicode="&#xeb;" horiz-adv-x="525" 
d="M447 27q-56 -32 -148 -32q-118 0 -188 71t-70 186q0 122 64 191.5t163 69.5q97 0 154 -60.5t57 -174.5q0 -31 -6 -65h-333q10 -66 56 -101t116 -35q81 0 135 38v-88zM270 432q-50 0 -86 -36.5t-45 -105.5h245v18q-2 57 -31 90.5t-83 33.5zM453 640q0 -26 -17.5 -43
t-43.5 -17t-43 17t-17 43t17 43t43 17t43.5 -17t17.5 -43zM232 640q0 -26 -17 -43t-43 -17q-27 0 -44 17t-17 43t17 43t44 17q26 0 43 -17t17 -43z" />
    <glyph glyph-name="igrave" unicode="&#xec;" horiz-adv-x="245" 
d="M172 0h-99v507h99v-507zM158 558h-84l-120 162h109z" />
    <glyph glyph-name="iacute" unicode="&#xed;" horiz-adv-x="245" 
d="M172 0h-99v507h99v-507zM172 558h-84l95 162h109z" />
    <glyph glyph-name="icircumflex" unicode="&#xee;" horiz-adv-x="245" 
d="M172 0h-99v507h99v-507zM41 558h-97l135 162h90l135 -162h-97l-84 102z" />
    <glyph glyph-name="idieresis" unicode="&#xef;" horiz-adv-x="245" 
d="M172 0h-99v507h99v-507zM294 641q0 -26 -17.5 -43t-43.5 -17q-25 0 -42.5 17.5t-17.5 42.5t17.5 42.5t42.5 17.5q26 0 43.5 -17t17.5 -43zM73 641q0 -25 -17.5 -42.5t-42.5 -17.5q-27 0 -44 17t-17 43t17 43t44 17q25 0 42.5 -17.5t17.5 -42.5z" />
    <glyph glyph-name="eth" unicode="&#xf0;" horiz-adv-x="528" 
d="M483 275q0 -135 -60 -209.5t-167 -74.5q-99 0 -159 62t-60 150q0 93 57.5 148t141.5 55q87 0 146 -62q-17 99 -81 185l-141 -71v67l100 50q-57 58 -130 99h142q37 -25 69 -58l120 60v-67l-80 -40q102 -134 102 -294zM256 80q53 0 89 40t41 130q-54 69 -135 69
q-50 0 -81 -32t-31 -89q0 -54 32.5 -86t84.5 -32z" />
    <glyph glyph-name="ntilde" unicode="&#xf1;" horiz-adv-x="551" 
d="M488 0h-98v320q0 53 -26.5 81t-70.5 28q-52 0 -89 -40.5t-37 -113.5v-275h-98v507h98v-87q45 94 158 94q75 0 119 -46t44 -125v-343zM225 626q-23 0 -38.5 -11t-31.5 -35l-49 45q14 31 42.5 52.5t62.5 21.5q32 0 74 -20.5t61 -20.5q37 0 58 43l56 -42q-35 -74 -109 -74
q-29 0 -69.5 20.5t-56.5 20.5z" />
    <glyph glyph-name="ograve" unicode="&#xf2;" horiz-adv-x="564" 
d="M523 253q0 -114 -64.5 -188t-177.5 -74q-112 0 -176 73t-64 185q0 114 66 189.5t174 75.5q116 0 179 -73.5t63 -187.5zM143 252q0 -75 37 -126.5t101 -51.5q68 0 103.5 50t35.5 127q0 79 -34 129.5t-106 50.5q-65 0 -101 -51.5t-36 -127.5zM329 558h-84l-120 162h109z
" />
    <glyph glyph-name="oacute" unicode="&#xf3;" horiz-adv-x="564" 
d="M523 253q0 -114 -64.5 -188t-177.5 -74q-112 0 -176 73t-64 185q0 114 66 189.5t174 75.5q116 0 179 -73.5t63 -187.5zM143 252q0 -75 37 -126.5t101 -51.5q68 0 103.5 50t35.5 127q0 79 -34 129.5t-106 50.5q-65 0 -101 -51.5t-36 -127.5zM336 558h-84l95 162h109z" />
    <glyph glyph-name="ocircumflex" unicode="&#xf4;" horiz-adv-x="564" 
d="M523 253q0 -114 -64.5 -188t-177.5 -74q-112 0 -176 73t-64 185q0 114 66 189.5t174 75.5q116 0 179 -73.5t63 -187.5zM143 252q0 -75 37 -126.5t101 -51.5q68 0 103.5 50t35.5 127q0 79 -34 129.5t-106 50.5q-65 0 -101 -51.5t-36 -127.5zM202 557h-97l135 162h90
l135 -162h-97l-84 102z" />
    <glyph glyph-name="otilde" unicode="&#xf5;" horiz-adv-x="564" 
d="M523 253q0 -114 -64.5 -188t-177.5 -74q-112 0 -176 73t-64 185q0 114 66 189.5t174 75.5q116 0 179 -73.5t63 -187.5zM143 252q0 -75 37 -126.5t101 -51.5q68 0 103.5 50t35.5 127q0 79 -34 129.5t-106 50.5q-65 0 -101 -51.5t-36 -127.5zM227 626q-23 0 -38.5 -11
t-31.5 -35l-49 45q14 31 42.5 52.5t62.5 21.5q32 0 74 -20.5t61 -20.5q37 0 58 43l56 -42q-35 -74 -109 -74q-29 0 -69.5 20.5t-56.5 20.5z" />
    <glyph glyph-name="odieresis" unicode="&#xf6;" horiz-adv-x="564" 
d="M523 253q0 -114 -64.5 -188t-177.5 -74q-112 0 -176 73t-64 185q0 114 66 189.5t174 75.5q116 0 179 -73.5t63 -187.5zM143 252q0 -75 37 -126.5t101 -51.5q68 0 103.5 50t35.5 127q0 79 -34 129.5t-106 50.5q-65 0 -101 -51.5t-36 -127.5zM462 639q0 -26 -17.5 -43
t-43.5 -17q-25 0 -42.5 17.5t-17.5 42.5t17.5 42.5t42.5 17.5q26 0 43.5 -17t17.5 -43zM241 639q0 -25 -17.5 -42.5t-42.5 -17.5q-27 0 -44 17t-17 43t17 43t44 17q25 0 42.5 -17.5t17.5 -42.5z" />
    <glyph glyph-name="divide" unicode="&#xf7;" horiz-adv-x="564" 
d="M510 296h-457v88h457v-88zM339 162q0 -24 -17.5 -41.5t-41.5 -17.5t-41.5 17.5t-17.5 41.5t17.5 42t41.5 18t41.5 -18t17.5 -42zM339 518q0 -24 -17.5 -42t-41.5 -18t-41.5 18t-17.5 42t17.5 41.5t41.5 17.5t41.5 -17.5t17.5 -41.5z" />
    <glyph glyph-name="oslash" unicode="&#xf8;" horiz-adv-x="563" 
d="M533 253q0 -114 -65 -188t-178 -74q-71 0 -124 31l-23 -31h-93l59 79q-59 71 -59 179q0 114 66 189.5t174 75.5q73 0 126 -31l23 31h94l-59 -79q59 -71 59 -182zM143 252q0 -59 23 -105l202 272q-32 21 -78 21q-70 0 -108.5 -54t-38.5 -134zM291 65q72 0 110 52.5
t38 133.5q0 66 -21 109l-203 -272q32 -23 76 -23z" />
    <glyph glyph-name="ugrave" unicode="&#xf9;" horiz-adv-x="551" 
d="M482 0h-98v87q-40 -93 -158 -93q-75 0 -119 44.5t-44 122.5v346h99v-322q0 -52 25.5 -79.5t70.5 -27.5q57 0 91.5 40t34.5 113v276h98v-507zM318 557h-84l-120 162h109z" />
    <glyph glyph-name="uacute" unicode="&#xfa;" horiz-adv-x="551" 
d="M482 0h-98v87q-40 -93 -158 -93q-75 0 -119 44.5t-44 122.5v346h99v-322q0 -52 25.5 -79.5t70.5 -27.5q57 0 91.5 40t34.5 113v276h98v-507zM324 558h-84l95 162h109z" />
    <glyph glyph-name="ucircumflex" unicode="&#xfb;" horiz-adv-x="551" 
d="M482 0h-98v87q-40 -93 -158 -93q-75 0 -119 44.5t-44 122.5v346h99v-322q0 -52 25.5 -79.5t70.5 -27.5q57 0 91.5 40t34.5 113v276h98v-507zM192 558h-97l135 162h90l135 -162h-97l-84 102z" />
    <glyph glyph-name="udieresis" unicode="&#xfc;" horiz-adv-x="551" 
d="M482 0h-98v87q-40 -93 -158 -93q-75 0 -119 44.5t-44 122.5v346h99v-322q0 -52 25.5 -79.5t70.5 -27.5q57 0 91.5 40t34.5 113v276h98v-507zM446 639q0 -26 -17.5 -43t-43.5 -17q-25 0 -42.5 17.5t-17.5 42.5t17.5 42.5t42.5 17.5q26 0 43.5 -17t17.5 -43zM225 639
q0 -25 -17.5 -42.5t-42.5 -17.5q-27 0 -44 17t-17 43t17 43t44 17q25 0 42.5 -17.5t17.5 -42.5z" />
    <glyph glyph-name="yacute" unicode="&#xfd;" horiz-adv-x="504" 
d="M308 14q-73 -195 -223 -195q-27 0 -46 5v84q16 -4 34 -4q97 0 136 107l-202 496h109l63 -165l79 -214q9 30 72 214l57 165h104zM307 558h-84l95 162h109z" />
    <glyph glyph-name="thorn" unicode="&#xfe;" horiz-adv-x="580" 
d="M167 -194h-98v901h98v-278q52 85 156 85q100 0 158 -72.5t58 -184.5q0 -115 -59.5 -189.5t-158.5 -74.5q-101 0 -154 84v-271zM167 255q0 -88 41.5 -132t94.5 -44q59 0 97 46.5t38 130.5q0 79 -37 125.5t-94 46.5t-98.5 -41.5t-41.5 -131.5z" />
    <glyph glyph-name="ydieresis" unicode="&#xff;" horiz-adv-x="504" 
d="M308 14q-73 -195 -223 -195q-27 0 -46 5v84q16 -4 34 -4q97 0 136 107l-202 496h109l63 -165l79 -214q9 30 72 214l57 165h104zM432 639q0 -26 -17.5 -43t-43.5 -17q-25 0 -42.5 17.5t-17.5 42.5t17.5 42.5t42.5 17.5q26 0 43.5 -17t17.5 -43zM211 639q0 -25 -17.5 -42.5
t-42.5 -17.5q-27 0 -44 17t-17 43t17 43t44 17q25 0 42.5 -17.5t17.5 -42.5z" />
    <glyph glyph-name="Amacron" unicode="&#x100;" 
d="M233 285l-11 -34h216l-11 34q-38 118 -62 195.5t-29 96.5l-5 19q-11 -47 -98 -311zM140 0h-109l233 674h135l230 -674h-110l-53 165h-272zM486 773h-304v68h304v-68z" />
    <glyph glyph-name="amacron" unicode="&#x101;" horiz-adv-x="499" 
d="M233 73q48 0 75.5 26.5t27.5 69.5v57h-76q-56 0 -84.5 -22t-28.5 -56q0 -35 22 -55t64 -20zM339 60q-39 -64 -137 -64q-72 0 -115.5 41.5t-43.5 105.5q0 73 55 113.5t154 40.5h84v29q0 52 -25 78.5t-83 26.5q-81 0 -147 -45v95q59 34 156 34q199 0 199 -193v-322h-97v60z
M403 605h-304v68h304v-68z" />
    <glyph glyph-name="Abreve" unicode="&#x102;" 
d="M233 285l-11 -34h216l-11 34q-38 118 -62 195.5t-29 96.5l-5 19q-11 -47 -98 -311zM140 0h-109l233 674h135l230 -674h-110l-53 165h-272zM504 887q0 -79 -45 -122t-129 -43t-129 43t-45 122h78q0 -44 24 -71t72 -27t72 27t24 71h78z" />
    <glyph glyph-name="abreve" unicode="&#x103;" horiz-adv-x="499" 
d="M233 73q48 0 75.5 26.5t27.5 69.5v57h-76q-56 0 -84.5 -22t-28.5 -56q0 -35 22 -55t64 -20zM339 60q-39 -64 -137 -64q-72 0 -115.5 41.5t-43.5 105.5q0 73 55 113.5t154 40.5h84v29q0 52 -25 78.5t-83 26.5q-81 0 -147 -45v95q59 34 156 34q199 0 199 -193v-322h-97v60z
M425 719q0 -79 -45 -122t-129 -43t-129 43t-45 122h78q0 -44 24 -71t72 -27t72 27t24 71h78z" />
    <glyph glyph-name="Aogonek" unicode="&#x104;" horiz-adv-x="656" 
d="M230 285l-11 -34h217l-11 34l-97 311q-10 -47 -98 -311zM645 -226q-36 -21 -88 -21q-62 0 -94.5 31.5t-32.5 80.5q0 81 84 143l-50 157h-273l-53 -165h-109l232 674h136l230 -674q-114 -60 -114 -127q0 -51 58 -51q39 0 74 24v-72z" />
    <glyph glyph-name="aogonek" unicode="&#x105;" horiz-adv-x="497" 
d="M233 74q46 0 74.5 26.5t28.5 64.5v60h-67q-123 0 -123 -78q0 -34 22 -53.5t65 -19.5zM454 -226q-36 -21 -88 -21q-62 0 -94.5 31.5t-32.5 80.5q0 87 100 150v48q-47 -67 -137 -67q-72 0 -115.5 40.5t-43.5 106.5q0 73 55.5 114t155.5 41h82v28q0 52 -25 78.5t-83 26.5
q-80 0 -147 -44v93q58 35 156 35q199 0 199 -193v-322q-114 -61 -114 -127q0 -51 58 -51q39 0 74 24v-72z" />
    <glyph glyph-name="Cacute" unicode="&#x106;" horiz-adv-x="605" 
d="M561 33q-62 -41 -172 -41q-151 0 -247 94t-96 252q0 153 96.5 249t244.5 96q108 0 173 -37v-101q-44 24 -79.5 33.5t-90.5 9.5q-101 0 -168.5 -68.5t-67.5 -181.5q0 -115 67 -183t177 -68q97 0 163 50v-104zM407 725h-84l95 162h109z" />
    <glyph glyph-name="cacute" unicode="&#x107;" horiz-adv-x="471" 
d="M427 20q-49 -30 -125 -30q-119 0 -190 75t-71 187q0 109 71.5 186.5t193.5 77.5q66 0 121 -28v-90q-49 31 -111 31q-79 0 -126.5 -50t-47.5 -128q2 -77 47 -126.5t126 -49.5q60 0 112 33v-88zM337 557h-84l95 162h109z" />
    <glyph glyph-name="Ccaron" unicode="&#x10c;" horiz-adv-x="605" 
d="M561 33q-62 -41 -172 -41q-151 0 -247 94t-96 252q0 153 96.5 249t244.5 96q108 0 173 -37v-101q-44 24 -79.5 33.5t-90.5 9.5q-101 0 -168.5 -68.5t-67.5 -181.5q0 -115 67 -183t177 -68q97 0 163 50v-104zM418 725h-90l-135 162h97l83 -102l83 102h97z" />
    <glyph glyph-name="ccaron" unicode="&#x10d;" horiz-adv-x="471" 
d="M427 20q-49 -30 -125 -30q-119 0 -190 75t-71 187q0 109 71.5 186.5t193.5 77.5q66 0 121 -28v-90q-49 31 -111 31q-79 0 -126.5 -50t-47.5 -128q2 -77 47 -126.5t126 -49.5q60 0 112 33v-88zM321 558h-90l-135 162h97l83 -102l83 102h97z" />
    <glyph glyph-name="Dcaron" unicode="&#x10e;" horiz-adv-x="667" 
d="M285 0h-212v674h210q150 0 246 -93t96 -237q0 -150 -90.5 -247t-249.5 -97zM281 586h-103v-499h106q115 0 175 72t60 185q0 104 -65 173t-173 69zM355 725h-90l-135 162h97l83 -102l83 102h97z" />
    <glyph glyph-name="dcaron" unicode="&#x10f;" horiz-adv-x="685" 
d="M142 249q0 -76 37.5 -123t94.5 -47q58 0 98 44t40 134q0 87 -41.5 129t-93.5 42q-59 0 -97 -46.5t-38 -132.5zM511 0h-99v77q-53 -84 -155 -84q-100 0 -158 75.5t-58 182.5q0 119 61 191t157 72q99 0 153 -84v277h99v-707zM642 510h-77l81 197h109z" />
    <glyph glyph-name="Dcroat" unicode="&#x110;" horiz-adv-x="736" 
d="M353 0h-211v294h-80v84h80v296h209q150 0 246 -93t96 -237q0 -150 -90.5 -247t-249.5 -97zM410 294h-164v-207h106q116 0 176 72t60 185q0 104 -65.5 173t-173.5 69h-103v-208h164v-84z" />
    <glyph glyph-name="dcroat" unicode="&#x111;" horiz-adv-x="580" 
d="M142 249q0 -76 37.5 -123t94.5 -47q58 0 98 44t40 134q0 87 -41.5 129t-93.5 42q-59 0 -97 -46.5t-38 -132.5zM511 0h-99v77q-53 -84 -155 -84q-100 0 -158 75.5t-58 182.5q0 119 61 191t157 72q99 0 153 -84v150h-181v63h181v64h99v-64h67v-63h-67v-580z" />
    <glyph glyph-name="Emacron" unicode="&#x112;" horiz-adv-x="514" 
d="M462 0h-389v674h384v-86h-281v-208h249v-86h-249v-208h286v-86zM418 774h-304v68h304v-68z" />
    <glyph glyph-name="emacron" unicode="&#x113;" horiz-adv-x="525" 
d="M447 27q-56 -32 -148 -32q-118 0 -188 71t-70 186q0 122 64 191.5t163 69.5q97 0 154 -60.5t57 -174.5q0 -31 -6 -65h-333q10 -66 56 -101t116 -35q81 0 135 38v-88zM270 432q-50 0 -86 -36.5t-45 -105.5h245v18q-2 57 -31 90.5t-83 33.5zM426 605h-304v68h304v-68z" />
    <glyph glyph-name="Edotaccent" unicode="&#x116;" horiz-adv-x="514" 
d="M462 0h-389v674h384v-86h-281v-208h249v-86h-249v-208h286v-86zM337 808q0 -26 -17 -43t-43 -17t-43.5 17t-17.5 43t17.5 43t43.5 17t43 -17t17 -43z" />
    <glyph glyph-name="edotaccent" unicode="&#x117;" horiz-adv-x="525" 
d="M447 27q-56 -32 -148 -32q-118 0 -188 71t-70 186q0 122 64 191.5t163 69.5q97 0 154 -60.5t57 -174.5q0 -31 -6 -65h-333q10 -66 56 -101t116 -35q81 0 135 38v-88zM270 432q-50 0 -86 -36.5t-45 -105.5h245v18q-2 57 -31 90.5t-83 33.5zM341 640q0 -26 -17 -43t-43 -17
t-43.5 17t-17.5 43t17.5 43t43.5 17t43 -17t17 -43z" />
    <glyph glyph-name="Eogonek" unicode="&#x118;" horiz-adv-x="514" 
d="M417 -226q-36 -21 -87 -21q-62 0 -94.5 31.5t-32.5 80.5q0 74 78 135h-208v674h384v-86h-281v-208h249v-86h-249v-208h286v-86h-63q-114 -61 -114 -127q0 -51 58 -51q41 0 74 24v-72z" />
    <glyph glyph-name="eogonek" unicode="&#x119;" horiz-adv-x="525" 
d="M270 432q-50 0 -86 -36.5t-45 -105.5h245v18q-2 57 -31 90.5t-83 33.5zM407 -217q-36 -21 -87 -21q-62 0 -94.5 31.5t-32.5 80.5q0 67 64 124q-100 12 -158 81t-58 173q0 122 64 191.5t163 69.5q97 0 154 -60.5t57 -174.5q0 -31 -6 -65h-333q10 -66 56 -101t116 -35
q81 0 135 38v-88q-27 -15 -68 -23q-104 -59 -104 -122q0 -51 58 -51q41 0 74 24v-72z" />
    <glyph glyph-name="Ecaron" unicode="&#x11a;" horiz-adv-x="514" 
d="M462 0h-389v674h384v-86h-281v-208h249v-86h-249v-208h286v-86zM319 725h-90l-135 162h97l83 -102l83 102h97z" />
    <glyph glyph-name="ecaron" unicode="&#x11b;" horiz-adv-x="525" 
d="M447 27q-56 -32 -148 -32q-118 0 -188 71t-70 186q0 122 64 191.5t163 69.5q97 0 154 -60.5t57 -174.5q0 -31 -6 -65h-333q10 -66 56 -101t116 -35q81 0 135 38v-88zM270 432q-50 0 -86 -36.5t-45 -105.5h245v18q-2 57 -31 90.5t-83 33.5zM319 558h-90l-135 162h97
l83 -102l83 102h97z" />
    <glyph glyph-name="Gbreve" unicode="&#x11e;" horiz-adv-x="681" 
d="M615 55q-87 -63 -218 -63q-158 0 -254.5 93t-96.5 253q0 155 97.5 251.5t247.5 96.5q117 0 196 -45v-106q-86 54 -192 54q-108 0 -174.5 -69t-66.5 -182q0 -116 65.5 -183t180.5 -67q60 0 114 22v186h-137v89h238v-323h-1zM545 887q0 -79 -45 -122t-129 -43t-129 43
t-45 122h78q0 -44 24 -71t72 -27t72 27t24 71h78z" />
    <glyph glyph-name="gbreve" unicode="&#x11f;" horiz-adv-x="559" 
d="M496 43q0 -117 -66.5 -176.5t-170.5 -59.5q-98 0 -165 33v99q64 -42 155 -42q149 0 149 147v52q-49 -82 -147 -82q-86 0 -147 63.5t-61 179.5q0 112 57 184.5t151 72.5q101 0 147 -86v79h98v-464zM146 259q0 -79 36.5 -120t86.5 -41q52 0 90.5 40.5t38.5 113.5
q0 90 -36.5 133t-88.5 43q-59 0 -93 -46.5t-34 -122.5zM471 720q0 -79 -45 -122t-129 -43t-129 43t-45 122h78q0 -44 24 -71t72 -27t72 27t24 71h78z" />
    <glyph glyph-name="uni0122" unicode="&#x122;" horiz-adv-x="681" 
d="M615 55q-87 -63 -218 -63q-158 0 -254.5 93t-96.5 253q0 155 97.5 251.5t247.5 96.5q117 0 196 -45v-106q-86 54 -192 54q-108 0 -174.5 -69t-66.5 -182q0 -116 65.5 -183t180.5 -67q60 0 114 22v186h-137v89h238v-323h-1zM317 -249h-77l81 198h109z" />
    <glyph glyph-name="uni0123" unicode="&#x123;" horiz-adv-x="559" 
d="M496 43q0 -117 -66.5 -176.5t-170.5 -59.5q-98 0 -165 33v99q64 -42 155 -42q149 0 149 147v52q-49 -82 -147 -82q-86 0 -147 63.5t-61 179.5q0 112 57 184.5t151 72.5q101 0 147 -86v79h98v-464zM146 259q0 -79 36.5 -120t86.5 -41q52 0 90.5 40.5t38.5 113.5
q0 90 -36.5 133t-88.5 43q-59 0 -93 -46.5t-34 -122.5zM367 558h-109l113 197h76z" />
    <glyph glyph-name="Imacron" unicode="&#x12a;" horiz-adv-x="264" 
d="M183 0h-102v674h102v-674zM284 772h-304v68h304v-68z" />
    <glyph glyph-name="imacron" unicode="&#x12b;" horiz-adv-x="245" 
d="M172 0h-99v507h99v-507zM275 605h-304v68h304v-68z" />
    <glyph glyph-name="Iogonek" unicode="&#x12e;" horiz-adv-x="264" 
d="M201 -226q-36 -21 -87 -21q-62 0 -94.5 31.5t-32.5 80.5q0 83 94 146v663h102v-674q-114 -61 -114 -127q0 -51 58 -51q41 0 74 24v-72z" />
    <glyph glyph-name="iogonek" unicode="&#x12f;" horiz-adv-x="245" 
d="M184 662q0 -25 -18 -43t-44 -18t-43.5 17.5t-17.5 43.5t17.5 44t43.5 18t44 -18t18 -44zM190 -226q-36 -21 -87 -21q-62 0 -94.5 31.5t-32.5 80.5q0 85 97 148v494h99v-507q-114 -61 -114 -127q0 -51 58 -51q41 0 74 24v-72z" />
    <glyph glyph-name="Idotaccent" unicode="&#x130;" horiz-adv-x="264" 
d="M183 0h-102v674h102v-674zM193 808q0 -26 -17 -43t-43 -17t-43.5 17t-17.5 43t17.5 43t43.5 17t43 -17t17 -43z" />
    <glyph glyph-name="dotlessi" unicode="&#x131;" horiz-adv-x="245" 
d="M172 0h-99v507h99v-507z" />
    <glyph glyph-name="uni0136" unicode="&#x136;" horiz-adv-x="599" 
d="M574 0h-130l-255 333l245 341h125l-247 -340zM249 -249h-77l81 198h109zM176 0h-103v674h103v-674z" />
    <glyph glyph-name="uni0137" unicode="&#x137;" horiz-adv-x="500" 
d="M167 0h-98v700h98v-700zM284 265l199 -265h-117l-195 265l191 242h115zM203 -249h-77l81 198h109z" />
    <glyph glyph-name="Lacute" unicode="&#x139;" horiz-adv-x="480" 
d="M452 0h-379v674h103v-583h276v-91zM340 725h-84l95 162h109z" />
    <glyph glyph-name="lacute" unicode="&#x13a;" horiz-adv-x="245" 
d="M172 0h-99v707h99v-707zM166 758h-84l95 162h109z" />
    <glyph glyph-name="uni013B" unicode="&#x13b;" horiz-adv-x="480" 
d="M216 -249h-77l81 198h109zM452 0h-379v674h103v-583h276v-91z" />
    <glyph glyph-name="uni013C" unicode="&#x13c;" horiz-adv-x="245" 
d="M172 0h-99v707h99v-707zM64 -249h-77l81 198h109z" />
    <glyph glyph-name="Lcaron" unicode="&#x13d;" horiz-adv-x="480" 
d="M452 0h-379v674h103v-583h276v-91zM334 503h-77l81 198h109z" />
    <glyph glyph-name="lcaron" unicode="&#x13e;" horiz-adv-x="264" 
d="M172 0h-99v707h99v-707zM313 510h-76l80 198h109z" />
    <glyph glyph-name="Lslash" unicode="&#x141;" horiz-adv-x="518" 
d="M361 398l-154 -99v-208h276v-91h-378v233l-71 -46v90l71 46v351h102v-285l154 99v-90z" />
    <glyph glyph-name="lslash" unicode="&#x142;" horiz-adv-x="306" 
d="M200 0h-99v291l-70 -49v91l70 49v325h99v-256l82 57v-90l-82 -57v-361z" />
    <glyph glyph-name="Nacute" unicode="&#x143;" horiz-adv-x="680" 
d="M176 0h-103v674h122l166 -282q46 -79 83.5 -146t51.5 -94l14 -28q-6 91 -6 267v283h103v-674h-122l-167 281q-45 76 -82.5 143.5t-52.5 97.5l-15 29q8 -100 8 -269v-282zM403 725h-84l95 162h109z" />
    <glyph glyph-name="nacute" unicode="&#x144;" horiz-adv-x="551" 
d="M488 0h-98v320q0 53 -26.5 81t-70.5 28q-52 0 -89 -40.5t-37 -113.5v-275h-98v507h98v-87q45 94 158 94q75 0 119 -46t44 -125v-343zM348 558h-84l95 162h109z" />
    <glyph glyph-name="uni0145" unicode="&#x145;" horiz-adv-x="680" 
d="M176 0h-103v674h122l166 -282q46 -79 83.5 -146t51.5 -94l14 -28q-6 91 -6 267v283h103v-674h-122l-167 281q-45 76 -82.5 143.5t-52.5 97.5l-15 29q8 -100 8 -269v-282zM292 -249h-77l81 198h109z" />
    <glyph glyph-name="uni0146" unicode="&#x146;" horiz-adv-x="551" 
d="M488 0h-98v320q0 53 -26.5 81t-70.5 28q-52 0 -89 -40.5t-37 -113.5v-275h-98v507h98v-87q45 94 158 94q75 0 119 -46t44 -125v-343zM226 -249h-77l81 198h109z" />
    <glyph glyph-name="Ncaron" unicode="&#x147;" horiz-adv-x="680" 
d="M176 0h-103v674h122l166 -282q46 -79 83.5 -146t51.5 -94l14 -28q-6 91 -6 267v283h103v-674h-122l-167 281q-45 76 -82.5 143.5t-52.5 97.5l-15 29q8 -100 8 -269v-282zM398 725h-90l-135 162h97l83 -102l83 102h97z" />
    <glyph glyph-name="ncaron" unicode="&#x148;" horiz-adv-x="551" 
d="M488 0h-98v320q0 53 -26.5 81t-70.5 28q-52 0 -89 -40.5t-37 -113.5v-275h-98v507h98v-87q45 94 158 94q75 0 119 -46t44 -125v-343zM336 558h-90l-135 162h97l83 -102l83 102h97z" />
    <glyph glyph-name="Omacron" unicode="&#x14c;" horiz-adv-x="711" 
d="M665 340q0 -158 -83.5 -253t-225.5 -95q-141 0 -225.5 95t-84.5 253q0 157 84 252t225 95q144 0 227 -94.5t83 -252.5zM154 340q0 -116 55 -184t147 -68q95 0 148 67t53 185q0 117 -53.5 184t-148.5 67q-94 0 -147.5 -67.5t-53.5 -183.5zM508 772h-304v68h304v-68z" />
    <glyph glyph-name="omacron" unicode="&#x14d;" horiz-adv-x="564" 
d="M523 253q0 -114 -64.5 -188t-177.5 -74q-112 0 -176 73t-64 185q0 114 66 189.5t174 75.5q116 0 179 -73.5t63 -187.5zM143 252q0 -75 37 -126.5t101 -51.5q68 0 103.5 50t35.5 127q0 79 -34 129.5t-106 50.5q-65 0 -101 -51.5t-36 -127.5zM436 605h-304v68h304v-68z" />
    <glyph glyph-name="Ohungarumlaut" unicode="&#x150;" horiz-adv-x="711" 
d="M665 340q0 -158 -83.5 -253t-225.5 -95q-141 0 -225.5 95t-84.5 253q0 157 84 252t225 95q144 0 227 -94.5t83 -252.5zM154 340q0 -116 55 -184t147 -68q95 0 148 67t53 185q0 117 -53.5 184t-148.5 67q-94 0 -147.5 -67.5t-53.5 -183.5zM488 725h-75l100 162h109z
M323 725h-75l94 162h103z" />
    <glyph glyph-name="ohungarumlaut" unicode="&#x151;" horiz-adv-x="564" 
d="M523 253q0 -114 -64.5 -188t-177.5 -74q-112 0 -176 73t-64 185q0 114 66 189.5t174 75.5q116 0 179 -73.5t63 -187.5zM143 252q0 -75 37 -126.5t101 -51.5q68 0 103.5 50t35.5 127q0 79 -34 129.5t-106 50.5q-65 0 -101 -51.5t-36 -127.5zM420 558h-75l100 162h109z
M255 558h-75l94 162h103z" />
    <glyph glyph-name="OE" unicode="&#x152;" horiz-adv-x="988" 
d="M154 340q0 -117 53 -184.5t144 -67.5q94 0 145.5 67t51.5 185t-51.5 184.5t-146.5 66.5q-93 0 -144.5 -67t-51.5 -184zM937 0h-389v73q-78 -81 -197 -81q-140 0 -222.5 95t-82.5 253t81.5 252.5t222.5 94.5q121 0 198 -79v66h384v-86h-286v-208h254v-86h-254v-208h291
v-86z" />
    <glyph glyph-name="oe" unicode="&#x153;" horiz-adv-x="889" 
d="M143 252q0 -76 34.5 -127t97.5 -51q67 0 100.5 49.5t33.5 127.5q0 80 -31.5 130t-102.5 50q-65 0 -98.5 -51t-33.5 -128zM640 432q-50 0 -86.5 -36t-45.5 -106h244v22q-2 57 -32 88.5t-80 31.5zM813 27q-58 -32 -147 -32q-133 0 -204 93q-64 -97 -187 -97
q-111 0 -172.5 73t-61.5 185q0 115 63.5 190t170.5 75q122 0 184 -91q66 90 180 90q99 0 153.5 -61t54.5 -177q0 -28 -6 -62h-332q11 -65 57 -100.5t113 -35.5q80 0 134 38v-88z" />
    <glyph glyph-name="Racute" unicode="&#x154;" horiz-adv-x="568" 
d="M264 588h-88v-246h93q64 0 97 33.5t33 89.5q0 123 -135 123zM176 0h-103v674h188q116 0 179 -56.5t63 -153.5q-1 -71 -36 -120.5t-97 -71.5l176 -272h-123l-158 256h-89v-256zM320 725h-84l95 162h109z" />
    <glyph glyph-name="racute" unicode="&#x155;" horiz-adv-x="339" 
d="M167 0h-98v507h98v-89q37 94 133 94q14 0 31 -3v-96q-21 9 -47 9q-51 0 -84 -45t-33 -107v-270zM250 558h-84l95 162h109z" />
    <glyph glyph-name="uni0156" unicode="&#x156;" horiz-adv-x="568" 
d="M264 588h-88v-246h93q64 0 97 33.5t33 89.5q0 123 -135 123zM236 -249h-77l81 198h109zM176 0h-103v674h188q116 0 179 -56.5t63 -153.5q-1 -71 -36 -120.5t-97 -71.5l176 -272h-123l-158 256h-89v-256z" />
    <glyph glyph-name="uni0157" unicode="&#x157;" horiz-adv-x="339" 
d="M57 -249h-77l81 198h109zM167 0h-98v507h98v-89q37 94 133 94q14 0 31 -3v-96q-21 9 -47 9q-51 0 -84 -45t-33 -107v-270z" />
    <glyph glyph-name="Rcaron" unicode="&#x158;" horiz-adv-x="568" 
d="M264 588h-88v-246h93q64 0 97 33.5t33 89.5q0 123 -135 123zM176 0h-103v674h188q116 0 179 -56.5t63 -153.5q-1 -71 -36 -120.5t-97 -71.5l176 -272h-123l-158 256h-89v-256zM335 725h-90l-135 162h97l83 -102l83 102h97z" />
    <glyph glyph-name="rcaron" unicode="&#x159;" horiz-adv-x="339" 
d="M167 0h-98v507h98v-89q37 94 133 94q14 0 31 -3v-96q-21 9 -47 9q-51 0 -84 -45t-33 -107v-270zM250 558h-90l-135 162h97l83 -102l83 102h97z" />
    <glyph glyph-name="Sacute" unicode="&#x15a;" horiz-adv-x="521" 
d="M472 184q0 -89 -63 -140t-163 -51q-111 0 -184 43v107q79 -59 183 -59q55 0 87 25.5t32 70.5q0 27 -19 49.5t-41 34t-66 31.5q-26 12 -36.5 17t-34.5 18t-35.5 22t-28.5 25t-24.5 32t-14 37.5t-6.5 46.5q0 86 62.5 136t161.5 50q91 0 155 -32v-102q-67 42 -152 42
q-55 0 -86.5 -24.5t-31.5 -64.5t31 -64t95 -52q42 -18 65.5 -31t54 -36.5t45 -56t14.5 -74.5zM318 725h-84l95 162h109z" />
    <glyph glyph-name="sacute" unicode="&#x15b;" horiz-adv-x="419" 
d="M386 140q0 -68 -48 -106.5t-130 -38.5q-90 0 -150 30v93q70 -43 145 -43q39 0 60.5 16t21.5 42q0 22 -17 39.5t-34.5 26t-59.5 26.5q-119 49 -119 144q0 67 50 105t125 38q82 0 128 -22v-89q-49 29 -126 29q-35 0 -55.5 -16t-20.5 -42q0 -7 1.5 -13.5t5.5 -13t7.5 -11
t11.5 -9.5t12.5 -8.5t15 -8.5t15.5 -7.5t17.5 -8t17.5 -7.5q59 -26 92.5 -58.5t33.5 -86.5zM270 558h-84l95 162h109z" />
    <glyph glyph-name="uni015E" unicode="&#x15e;" horiz-adv-x="521" 
d="M472 184q0 -89 -63 -140t-163 -51q-111 0 -184 43v107q79 -59 183 -59q55 0 87 25.5t32 70.5q0 27 -19 49.5t-41 34t-66 31.5q-26 12 -36.5 17t-34.5 18t-35.5 22t-28.5 25t-24.5 32t-14 37.5t-6.5 46.5q0 86 62.5 136t161.5 50q91 0 155 -32v-102q-67 42 -152 42
q-55 0 -86.5 -24.5t-31.5 -64.5t31 -64t95 -52q42 -18 65.5 -31t54 -36.5t45 -56t14.5 -74.5zM321 -123q0 -56 -41 -94.5t-118 -39.5v68q82 5 82 69q0 32 -25 69h84q18 -25 18 -72z" />
    <glyph glyph-name="uni015F" unicode="&#x15f;" horiz-adv-x="419" 
d="M386 140q0 -68 -48 -106.5t-130 -38.5q-90 0 -150 30v93q70 -43 145 -43q39 0 60.5 16t21.5 42q0 22 -17 39.5t-34.5 26t-59.5 26.5q-119 49 -119 144q0 67 50 105t125 38q82 0 128 -22v-89q-49 29 -126 29q-35 0 -55.5 -16t-20.5 -42q0 -7 1.5 -13.5t5.5 -13t7.5 -11
t11.5 -9.5t12.5 -8.5t15 -8.5t15.5 -7.5t17.5 -8t17.5 -7.5q59 -26 92.5 -58.5t33.5 -86.5zM283 -123q0 -56 -41 -94.5t-118 -39.5v68q82 5 82 69q0 32 -25 69h84q18 -25 18 -72z" />
    <glyph glyph-name="Scaron" unicode="&#x160;" horiz-adv-x="521" 
d="M472 184q0 -89 -63 -140t-163 -51q-111 0 -184 43v107q79 -59 183 -59q55 0 87 25.5t32 70.5q0 27 -19 49.5t-41 34t-66 31.5q-26 12 -36.5 17t-34.5 18t-35.5 22t-28.5 25t-24.5 32t-14 37.5t-6.5 46.5q0 86 62.5 136t161.5 50q91 0 155 -32v-102q-67 42 -152 42
q-55 0 -86.5 -24.5t-31.5 -64.5t31 -64t95 -52q42 -18 65.5 -31t54 -36.5t45 -56t14.5 -74.5zM309 725h-90l-135 162h97l83 -102l83 102h97z" />
    <glyph glyph-name="scaron" unicode="&#x161;" horiz-adv-x="419" 
d="M386 140q0 -68 -48 -106.5t-130 -38.5q-90 0 -150 30v93q70 -43 145 -43q39 0 60.5 16t21.5 42q0 22 -17 39.5t-34.5 26t-59.5 26.5q-119 49 -119 144q0 67 50 105t125 38q82 0 128 -22v-89q-49 29 -126 29q-35 0 -55.5 -16t-20.5 -42q0 -7 1.5 -13.5t5.5 -13t7.5 -11
t11.5 -9.5t12.5 -8.5t15 -8.5t15.5 -7.5t17.5 -8t17.5 -7.5q59 -26 92.5 -58.5t33.5 -86.5zM278 558h-90l-135 162h97l83 -102l83 102h97z" />
    <glyph glyph-name="uni0162" unicode="&#x162;" horiz-adv-x="500" 
d="M478 588h-177v-588h-103v588h-176v86h456v-86zM311 -123q0 -56 -41 -94.5t-118 -39.5v68q82 5 82 69q0 32 -25 69h84q18 -25 18 -72z" />
    <glyph glyph-name="uni0163" unicode="&#x163;" horiz-adv-x="374" 
d="M335 13q-33 -18 -81 -18q-157 0 -157 159v277h-79v76h79v124h99v-124h133v-76h-133v-279q0 -73 70 -73q41 0 69 22v-88zM262 -123q0 -56 -41 -94.5t-118 -39.5v68q82 5 82 69q0 32 -25 69h84q18 -25 18 -72z" />
    <glyph glyph-name="Tcaron" unicode="&#x164;" horiz-adv-x="500" 
d="M478 588h-177v-588h-103v588h-176v86h456v-86zM296 725h-90l-135 162h97l83 -102l83 102h97z" />
    <glyph glyph-name="tcaron" unicode="&#x165;" horiz-adv-x="374" 
d="M335 13q-33 -18 -81 -18q-157 0 -157 159v277h-79v76h79v124h99v-124h133v-76h-133v-279q0 -73 70 -73q41 0 69 22v-88zM329 573h-76l80 198h109z" />
    <glyph glyph-name="Umacron" unicode="&#x16a;" horiz-adv-x="652" 
d="M581 258q0 -131 -68 -199t-188 -68q-118 0 -186 66.5t-68 192.5v424h103v-423q0 -86 41.5 -125.5t109.5 -39.5q153 0 153 170v418h103v-416zM483 772h-304v68h304v-68z" />
    <glyph glyph-name="umacron" unicode="&#x16b;" horiz-adv-x="551" 
d="M482 0h-98v87q-40 -93 -158 -93q-75 0 -119 44.5t-44 122.5v346h99v-322q0 -52 25.5 -79.5t70.5 -27.5q57 0 91.5 40t34.5 113v276h98v-507zM425 605h-304v68h304v-68z" />
    <glyph glyph-name="Uring" unicode="&#x16e;" horiz-adv-x="652" 
d="M581 258q0 -131 -68 -199t-188 -68q-118 0 -186 66.5t-68 192.5v424h103v-423q0 -86 41.5 -125.5t109.5 -39.5q153 0 153 170v418h103v-416zM444 829q0 -47 -34 -80.5t-82 -33.5q-47 0 -80.5 33.5t-33.5 80.5q0 48 33.5 82t80.5 34q48 0 82 -34t34 -82zM275 831
q0 -22 15.5 -38.5t37.5 -16.5q23 0 38.5 16.5t15.5 38.5t-15.5 38t-38.5 16q-22 0 -37.5 -16t-15.5 -38z" />
    <glyph glyph-name="uring" unicode="&#x16f;" horiz-adv-x="551" 
d="M482 0h-98v87q-40 -93 -158 -93q-75 0 -119 44.5t-44 122.5v346h99v-322q0 -52 25.5 -79.5t70.5 -27.5q57 0 91.5 40t34.5 113v276h98v-507zM395 662q0 -47 -34 -80.5t-82 -33.5q-47 0 -80.5 33.5t-33.5 80.5q0 48 33.5 82t80.5 34q48 0 82 -34t34 -82zM226 664
q0 -22 15.5 -38.5t37.5 -16.5q23 0 38.5 16.5t15.5 38.5t-15.5 38t-38.5 16q-22 0 -37.5 -16t-15.5 -38z" />
    <glyph glyph-name="Uhungarumlaut" unicode="&#x170;" horiz-adv-x="652" 
d="M581 258q0 -131 -68 -199t-188 -68q-118 0 -186 66.5t-68 192.5v424h103v-423q0 -86 41.5 -125.5t109.5 -39.5q153 0 153 170v418h103v-416zM444 725h-75l100 162h109zM279 725h-75l94 162h103z" />
    <glyph glyph-name="uhungarumlaut" unicode="&#x171;" horiz-adv-x="551" 
d="M482 0h-98v87q-40 -93 -158 -93q-75 0 -119 44.5t-44 122.5v346h99v-322q0 -52 25.5 -79.5t70.5 -27.5q57 0 91.5 40t34.5 113v276h98v-507zM398 558h-75l100 162h109zM233 558h-75l94 162h103z" />
    <glyph glyph-name="Uogonek" unicode="&#x172;" horiz-adv-x="652" 
d="M581 258q0 -199 -154 -252q-113 -60 -113 -126q0 -51 58 -51q41 0 74 24v-72q-36 -21 -87 -21q-62 0 -94.5 31.5t-32.5 80.5q0 66 61 120q-104 9 -163 75t-59 183v424h103v-423q0 -86 41.5 -125.5t109.5 -39.5q153 0 153 170v418h103v-416z" />
    <glyph glyph-name="uogonek" unicode="&#x173;" horiz-adv-x="551" 
d="M500 -226q-36 -21 -87 -21q-62 0 -94.5 31.5t-32.5 80.5q0 86 98 149v73q-40 -93 -158 -93q-75 0 -119 44.5t-44 122.5v346h99v-322q0 -52 25.5 -79.5t70.5 -27.5q57 0 91.5 40t34.5 113v276h98v-507q-114 -61 -114 -127q0 -51 58 -51q41 0 74 24v-72z" />
    <glyph glyph-name="Ydieresis" unicode="&#x178;" horiz-adv-x="608" 
d="M354 0h-103v251l-228 423h118l48 -99q46 -93 74 -153t33 -74l6 -13q9 30 116 240l49 99h118l-231 -423v-251zM478 806q0 -26 -17.5 -43t-43.5 -17q-25 0 -42.5 17t-17.5 43t17.5 43t42.5 17q26 0 43.5 -17t17.5 -43zM257 806q0 -26 -17.5 -43t-42.5 -17q-27 0 -44 17
t-17 43t17 43t44 17q25 0 42.5 -17t17.5 -43z" />
    <glyph glyph-name="Zacute" unicode="&#x179;" horiz-adv-x="584" 
d="M530 0h-476v81l340 508h-335v85h457v-79l-341 -510h355v-85zM350 725h-84l95 162h109z" />
    <glyph glyph-name="zacute" unicode="&#x17a;" horiz-adv-x="461" 
d="M418 0h-375v75l246 350h-237v82h353v-70l-249 -354h262v-83zM284 558h-84l95 162h109z" />
    <glyph glyph-name="Zdotaccent" unicode="&#x17b;" horiz-adv-x="584" 
d="M530 0h-476v81l340 508h-335v85h457v-79l-341 -510h355v-85zM363 808q0 -26 -17 -43t-43 -17t-43.5 17t-17.5 43t17.5 43t43.5 17t43 -17t17 -43z" />
    <glyph glyph-name="zdotaccent" unicode="&#x17c;" horiz-adv-x="461" 
d="M418 0h-375v75l246 350h-237v82h353v-70l-249 -354h262v-83zM305 639q0 -26 -17 -43t-43 -17t-43.5 17t-17.5 43t17.5 43t43.5 17t43 -17t17 -43z" />
    <glyph glyph-name="Zcaron" unicode="&#x17d;" horiz-adv-x="584" 
d="M530 0h-476v81l340 508h-335v85h457v-79l-341 -510h355v-85zM339 725h-90l-135 162h97l83 -102l83 102h97z" />
    <glyph glyph-name="zcaron" unicode="&#x17e;" horiz-adv-x="461" 
d="M418 0h-375v75l246 350h-237v82h353v-70l-249 -354h262v-83zM292 558h-90l-135 162h97l83 -102l83 102h97z" />
    <glyph glyph-name="florin" unicode="&#x192;" horiz-adv-x="430" 
d="M194 -69q-31 -188 -173 -188q-46 0 -77 12v85q31 -13 64 -13q38 0 59 28t30 84l61 360h-94v76h106l20 117q31 188 174 188q46 0 72 -9v-85q-28 10 -57 10q-73 0 -91 -112l-19 -109h98v-76h-110z" />
    <glyph glyph-name="uni0218" unicode="&#x218;" horiz-adv-x="521" 
d="M472 184q0 -89 -63 -140t-163 -51q-111 0 -184 43v107q79 -59 183 -59q55 0 87 25.5t32 70.5q0 27 -19 49.5t-41 34t-66 31.5q-26 12 -36.5 17t-34.5 18t-35.5 22t-28.5 25t-24.5 32t-14 37.5t-6.5 46.5q0 86 62.5 136t161.5 50q91 0 155 -32v-102q-67 42 -152 42
q-55 0 -86.5 -24.5t-31.5 -64.5t31 -64t95 -52q42 -18 65.5 -31t54 -36.5t45 -56t14.5 -74.5zM208 -249h-77l80 198h109z" />
    <glyph glyph-name="uni0219" unicode="&#x219;" horiz-adv-x="419" 
d="M386 140q0 -68 -48 -106.5t-130 -38.5q-90 0 -150 30v93q70 -43 145 -43q39 0 60.5 16t21.5 42q0 22 -17 39.5t-34.5 26t-59.5 26.5q-119 49 -119 144q0 67 50 105t125 38q82 0 128 -22v-89q-49 29 -126 29q-35 0 -55.5 -16t-20.5 -42q0 -7 1.5 -13.5t5.5 -13t7.5 -11
t11.5 -9.5t12.5 -8.5t15 -8.5t15.5 -7.5t17.5 -8t17.5 -7.5q59 -26 92.5 -58.5t33.5 -86.5zM161 -249h-76l80 198h109z" />
    <glyph glyph-name="uni021A" unicode="&#x21a;" horiz-adv-x="500" 
d="M190 -249h-77l80 198h109zM478 588h-177v-588h-103v588h-176v86h456v-86z" />
    <glyph glyph-name="uni021B" unicode="&#x21b;" horiz-adv-x="374" 
d="M335 13q-33 -18 -81 -18q-157 0 -157 159v277h-79v76h79v124h99v-124h133v-76h-133v-279q0 -73 70 -73q41 0 69 22v-88zM188 -249h-77l80 198h109z" />
    <glyph glyph-name="circumflex" unicode="&#x2c6;" horiz-adv-x="444" 
d="M139 636h-97l135 162h90l135 -162h-97l-84 102z" />
    <glyph glyph-name="caron" unicode="&#x2c7;" horiz-adv-x="444" 
d="M267 636h-90l-135 162h97l83 -102l83 102h97z" />
    <glyph glyph-name="uni02C9" unicode="&#x2c9;" horiz-adv-x="444" 
d="M374 681h-304v68h304v-68z" />
    <glyph glyph-name="breve" unicode="&#x2d8;" horiz-adv-x="444" 
d="M396 798q0 -79 -45 -122t-129 -43t-129 43t-45 122h78q0 -44 24 -71t72 -27t72 27t24 71h78z" />
    <glyph glyph-name="dotaccent" unicode="&#x2d9;" horiz-adv-x="444" 
d="M282 720q0 -26 -17 -43t-43 -17t-43.5 17t-17.5 43t17.5 43t43.5 17t43 -17t17 -43z" />
    <glyph glyph-name="ring" unicode="&#x2da;" horiz-adv-x="444" 
d="M337 717q0 -47 -34 -80.5t-82 -33.5q-47 0 -80.5 33.5t-33.5 80.5q0 48 33.5 82t80.5 34q48 0 82 -34t34 -82zM168 719q0 -22 15.5 -38.5t37.5 -16.5q23 0 38.5 16.5t15.5 38.5t-15.5 38t-38.5 16q-22 0 -37.5 -16t-15.5 -38z" />
    <glyph glyph-name="ogonek" unicode="&#x2db;" horiz-adv-x="444" 
d="M329 -214q-36 -21 -87 -21q-62 0 -94.5 31.5t-32.5 80.5q0 62 50 110t110 70l36 -45q-114 -61 -114 -127q0 -51 58 -51q41 0 74 24v-72z" />
    <glyph glyph-name="tilde" unicode="&#x2dc;" horiz-adv-x="444" 
d="M170 688q-23 0 -38.5 -11t-31.5 -35l-49 45q14 31 42.5 52.5t62.5 21.5q32 0 74 -20.5t61 -20.5q37 0 58 43l56 -42q-35 -74 -109 -74q-29 0 -69.5 20.5t-56.5 20.5z" />
    <glyph glyph-name="hungarumlaut" unicode="&#x2dd;" horiz-adv-x="444" 
d="M275 636h-75l100 162h109zM110 636h-75l94 162h103z" />
    <glyph glyph-name="pi" unicode="&#x3c0;" horiz-adv-x="589" 
d="M574 431h-92v-431h-98v431h-172v-251q0 -100 -42.5 -140t-129.5 -40v84q41 0 57.5 18t16.5 71v258h-91v76h551v-76z" />
    <glyph glyph-name="danda" unicode="&#x964;" horiz-adv-x="311" 
d="M226 0h-93v650h93v-650z" />
    <glyph glyph-name="doubledanda" unicode="&#x965;" horiz-adv-x="562" 
d="M477 0h-93v650h93v-650zM226 0h-93v650h93v-650z" />
    <glyph glyph-name="bnAnji" unicode="&#x980;" horiz-adv-x="600" 
d="M285 305v-91q-27 -5 -54 -5q-92 0 -145.5 53t-53.5 141q0 100 68 178.5t175 78.5q71 0 114.5 -43.5t43.5 -119.5v-329q0 -91 74 -91q19 0 34 3v-85q-30 -6 -56 -6q-71 0 -109 46t-38 121v341q0 80 -64 80q-61 0 -103.5 -52.5t-42.5 -121.5q0 -49 27.5 -76.5t82.5 -27.5
q26 0 47 6z" />
    <glyph glyph-name="bnCandrabindu" unicode="&#x981;" horiz-adv-x="0" 
d="M39 840q0 -58 -45.5 -100t-120.5 -42q-76 0 -122 42t-46 100h80q0 -30 22.5 -52t65.5 -22q47 0 67 22t20 52h79zM-78 852q0 -20 -14 -33.5t-35 -13.5q-20 0 -33.5 13.5t-13.5 33.5t13.5 34t33.5 14q21 0 35 -13.5t14 -34.5z" />
    <glyph glyph-name="bnAnusvara" unicode="&#x982;" horiz-adv-x="428" 
d="M47 504q0 67 45.5 110.5t116.5 43.5t116.5 -43.5t45.5 -110.5t-45.5 -111t-116.5 -44t-116.5 44t-45.5 111zM284 504q0 35 -20 57.5t-55 22.5t-55.5 -22.5t-20.5 -57.5q0 -36 20.5 -58t55.5 -22t55 22t20 58zM51 223v100l347 -227v-98z" />
    <glyph glyph-name="bnVisarga" unicode="&#x983;" horiz-adv-x="416" 
d="M48 506q0 65 45 108.5t115 43.5t115 -43.5t45 -108.5q0 -67 -44.5 -110t-115.5 -43q-70 0 -115 43.5t-45 109.5zM283 506q0 35 -20 57.5t-55 22.5t-55 -22.5t-20 -57.5q0 -36 20 -58t55 -22t55 22t20 58zM48 143q0 65 45 108.5t115 43.5t115 -43.5t45 -108.5
q0 -67 -44.5 -110t-115.5 -43q-70 0 -115 43.5t-45 109.5zM283 143q0 35 -20.5 57.5t-54.5 22.5t-54.5 -22.5t-20.5 -57.5q0 -36 20 -58.5t55 -22.5t55 22.5t20 58.5z" />
    <glyph glyph-name="bnA" unicode="&#x985;" horiz-adv-x="894" 
d="M809 0h-96v11q0 138 -113 138h-53q-74 -82 -200 -82q-131 0 -207 81.5t-76 220.5q0 52 8 102h93q-7 -46 -7 -103q0 -104 50.5 -160.5t137.5 -56.5q81 0 125 49t44 128q0 48 -19 78t-57 30q-33 0 -50.5 -23.5t-17.5 -60.5q0 -34 10 -69h-85q-14 37 -14 79q0 67 41.5 110.5
t113.5 43.5q79 0 126.5 -54t47.5 -135q0 -50 -17 -98h12q74 0 107 -47v388h-733v80h934v-80h-105v-570z" />
    <glyph glyph-name="bnAA" unicode="&#x986;" horiz-adv-x="1159" 
d="M611 327q0 -50 -17 -98h12q74 0 107 -47v388h-733v80h946q42 0 64 -41q-9 52 -9 98v26h93v-83h105v-80h-105v-570h-95v495q0 39 -13 57t-48 18h-109v-570h-96v11q0 138 -113 138h-53q-74 -82 -200 -82q-131 0 -207 81.5t-76 220.5q0 52 8 102h93q-7 -46 -7 -103
q0 -104 50.5 -160.5t137.5 -56.5q81 0 125 49t44 128q0 48 -19 78t-57 30q-33 0 -50.5 -23.5t-17.5 -60.5q0 -34 10 -69h-85q-14 37 -14 79q0 67 41.5 110.5t113.5 43.5q79 0 126.5 -54t47.5 -135z" />
    <glyph glyph-name="bnI" unicode="&#x987;" horiz-adv-x="457" 
d="M398 -10h-130l-197 140v80h90q72 1 108.5 34.5t36.5 93.5q0 44 -22.5 68.5t-61.5 24.5q-36 0 -57.5 -23t-21.5 -59q0 -30 8 -60h-89q-11 30 -11 67q0 68 46 111.5t123 43.5q81 0 130.5 -50t49.5 -123q0 -84 -54.5 -136.5t-147.5 -60.5l200 -141v-10zM476 570h-496v80h330
q4 26 4 44q0 66 -60 66q-22 0 -69 -11.5t-73 -11.5q-44 0 -83 21v75q40 -16 76 -16q23 0 72.5 12.5t82.5 12.5q71 0 106.5 -38t35.5 -99q0 -27 -6 -55h80v-80z" />
    <glyph glyph-name="bnII" unicode="&#x988;" horiz-adv-x="658" 
d="M55 358q0 66 43.5 109.5t117.5 43.5q71 0 113.5 -43t52.5 -108q92 87 119 109h88q-25 -117 -25 -236q0 -116 26 -233h-96q-18 87 -18 187q0 76 15 163q-68 -62 -117 -110q-21 -72 -73.5 -116t-135.5 -44q-41 0 -99 8v82q50 -6 91 -6q69 0 104 42.5t35 116.5
q0 49 -19 78.5t-59 29.5q-34 0 -52.5 -22t-18.5 -58q0 -34 8 -66h-89q-11 35 -11 73zM-20 650h520q3 39 3 46q0 64 -71 64q-25 0 -100.5 -11.5t-119.5 -11.5q-70 0 -115 21v75q47 -16 108 -16q33 0 117 12.5t118 12.5q73 0 112.5 -36t39.5 -99q0 -27 -6 -57h103v-80h-709v80
z" />
    <glyph glyph-name="bnU" unicode="&#x989;" 
d="M613 286q0 -119 -71 -197t-196 -78q-136 0 -215.5 91.5t-79.5 246.5q0 37 5 84h95q-4 -36 -4 -81q0 -119 52 -188t147 -69q86 0 131 52.5t45 142.5q0 16 -1 25q-62 -35 -122 -35q-66 0 -103.5 38t-37.5 107v145h-278v80h511q4 26 4 46q0 64 -71 64q-25 0 -100.5 -11.5
t-119.5 -11.5q-70 0 -116 21v75q47 -16 109 -16q33 0 117 12.5t118 12.5q73 0 112 -36t39 -99q0 -32 -5 -57h102v-80h-326v-144q0 -62 58 -62q61 0 176 68q25 -68 25 -146z" />
    <glyph glyph-name="bnUU" unicode="&#x98a;" horiz-adv-x="754" 
d="M-20 650h605q4 26 4 46q0 64 -71 64q-41 0 -132.5 -13t-144.5 -13q-87 0 -139 24v75q55 -19 136 -19q42 0 140 14t148 14q73 0 112 -36t39 -99q0 -32 -5 -57h102v-80h-326v-144q0 -62 59 -62q62 0 175 68q26 -66 26 -146q0 -120 -75 -197.5t-216 -77.5q-165 0 -269 87
t-104 251q0 37 5 84h76q-4 -36 -4 -81q0 -105 45.5 -171.5t118.5 -83.5q-47 35 -73 101.5t-26 150.5q0 37 5 84h76q-4 -36 -4 -81q0 -121 45 -189t135 -68q81 0 127.5 53.5t46.5 141.5q0 16 -1 25q-62 -35 -122 -35q-66 0 -103.5 38t-37.5 107v145h-373v80z" />
    <glyph glyph-name="bnvR" unicode="&#x98b;" horiz-adv-x="827" 
d="M486 0h-96l-341 171l1 1v99l269 153l-41 80q-36 -85 -127 -85q-68 0 -108 42.5t-40 110.5q0 45 15 78h83q-10 -40 -10 -69q0 -37 18 -60t51 -23q72 0 72 102q0 24 -3 50h76l82 -187l5 3v184h94v-342h54q74 0 107 -47v472h95v-83h105v-80h-105v-491h-95v11q0 138 -113 138
h-48v-228zM390 98v267l-241 -141z" />
    <glyph glyph-name="bnvL" unicode="&#x98c;" horiz-adv-x="615" 
d="M571 270q0 -122 -85 -200t-218 -78q-22 0 -48 3l1 81q34 21 56.5 64t22.5 92q0 42 -22.5 68t-63.5 26q-40 0 -60.5 -24t-20.5 -65q0 -46 16 -99h-89q-19 57 -19 109q0 71 47.5 116t122.5 45q80 0 128 -48.5t48 -126.5q0 -80 -55 -150q69 14 108.5 64t39.5 124
q0 53 -19.5 92.5t-50.5 63.5t-68.5 43t-75 37.5t-68.5 41t-50.5 59.5t-19.5 87q0 25 4 38h90q-2 -12 -2 -20q0 -38 19.5 -66t50.5 -47t68 -36.5t74.5 -41t68.5 -54t50.5 -81t19.5 -117.5z" />
    <glyph glyph-name="bnE" unicode="&#x98f;" horiz-adv-x="619" 
d="M138 419q0 97 69 169t172 72q79 0 120 -43t41 -125v-492h-95v6q0 43 -39 43q-18 0 -84.5 -19t-109.5 -19q-75 0 -123 44.5t-48 126.5q0 30 5 57h93q-3 -39 -3 -48q0 -94 85 -94q30 0 91 17t86 17q29 0 47 -18v379q0 44 -16 64t-50 20q-55 0 -100.5 -47.5t-45.5 -109.5
q0 -44 23.5 -61.5t68.5 -17.5q17 0 46 3v-83q-33 -6 -59 -6q-84 0 -129 42t-45 123z" />
    <glyph glyph-name="bnAI" unicode="&#x990;" horiz-adv-x="807" 
d="M145 785v85q80 -31 179 -41l107 -12q339 -34 339 -294q0 -115 -57 -186t-159 -71q-17 0 -25 1v-267h-96v6q0 43 -38 43q-18 0 -84.5 -19t-110.5 -19q-74 0 -122 44.5t-48 126.5q0 30 5 57h93q-3 -19 -3 -48q0 -94 85 -94q30 0 91 17t86 17q30 0 46 -18v379
q0 45 -15.5 64.5t-49.5 19.5q-56 0 -101 -47t-45 -110q0 -44 23 -61.5t68 -17.5q17 0 47 3v-83q-34 -6 -59 -6q-84 0 -129.5 42t-45.5 123q0 97 69.5 169t172.5 72q79 0 120 -43t41 -125v-143q5 -1 14 -1q136 0 136 175q0 99 -66.5 148t-192.5 62l-104 11q-96 10 -171 41z
" />
    <glyph glyph-name="bnO" unicode="&#x993;" horiz-adv-x="620" 
d="M572 192q0 -80 -60 -128t-159 -48q-131 0 -212 89.5t-81 246.5q0 31 4 58h91q-2 -19 -2 -53q0 -129 54 -194t146 -65q58 0 90 27t33 75q1 47 -35 70t-108 23h-29v83h27q57 0 87 31.5t30 83.5q0 40 -21 64.5t-60 24.5q-37 0 -58 -22.5t-21 -60.5q0 -22 7 -57h-89
q-10 38 -10 66q0 67 44.5 110.5t123.5 43.5q83 0 132 -48t49 -120q0 -59 -30.5 -100.5t-80.5 -54.5q60 -6 99 -43t39 -102z" />
    <glyph glyph-name="bnAU" unicode="&#x994;" horiz-adv-x="797" 
d="M752 528q0 -104 -57 -174t-146 -88q18 -33 18 -74q0 -80 -60.5 -128t-159.5 -48q-131 0 -212 89.5t-81 246.5q0 18 4 58h91q-2 -38 -2 -53q0 -129 54 -194t146 -65q58 0 90.5 27t32.5 75q1 47 -34.5 70t-107.5 23h-30v83h27q57 0 87 31.5t30 83.5q0 40 -21 64.5t-60 24.5
q-37 0 -57.5 -22.5t-20.5 -60.5q0 -27 6 -57h-88q-10 32 -10 66q0 67 44.5 110.5t123.5 43.5q84 0 132.5 -48.5t48.5 -119.5q0 -59 -30.5 -100.5t-81.5 -54.5q39 -3 47 -3q87 0 137 51.5t50 142.5q0 184 -272 206l-104 11q-97 10 -170 41v85q80 -30 178 -41l107 -11
q164 -14 257.5 -86.5t93.5 -204.5z" />
    <glyph glyph-name="bnKA" unicode="&#x995;" horiz-adv-x="755" 
d="M716 275q0 -90 -49 -139.5t-127 -49.5q-14 0 -20 1v88h12q90 0 90 100q0 64 -48.5 104t-128.5 43v-422h-94l-310 230v101q168 148 310 173v66h-371v80h795v-80h-330v-64q114 -2 192.5 -65.5t78.5 -165.5zM351 106v312q-105 -28 -227 -138z" />
    <glyph glyph-name="bnKHA" unicode="&#x996;" horiz-adv-x="641" 
d="M557 0h-93v1l-1 -1l-433 240v83h81q80 1 124.5 45t44.5 118v8q-38 -76 -123 -76q-73 0 -113.5 43t-40.5 111q0 43 14 78h93q-11 -35 -11 -69q0 -39 20.5 -61t55.5 -22q39 0 59.5 27t20.5 75q0 33 -2 50h90q27 -92 27 -164q0 -90 -51.5 -151.5t-139.5 -77.5l285 -161v637
h93v-83h105v-80h-105v-570z" />
    <glyph glyph-name="bnGA" unicode="&#x997;" horiz-adv-x="587" 
d="M502 0h-96v416q0 75 -33 118t-102 43q-60 0 -92.5 -31.5t-37.5 -83.5h4q81 0 130 -41t50 -114q-1 -77 -54.5 -120t-143.5 -43q-41 0 -83 9v79q28 -4 83 -4q102 0 102 79q0 77 -102 77h-80v57q0 90 55.5 154.5t152.5 64.5q105 0 151 -70v143h96v-83h105v-80h-105v-570z
" />
    <glyph glyph-name="bnGHA" unicode="&#x998;" horiz-adv-x="571" 
d="M317 314l-155 -104l240 -113v473h-153q-52 0 -81 -24.5t-29 -68.5q0 -41 28.5 -60.5t74.5 -19.5q41 0 75 8v-91zM603 570h-105v-570h-96l-341 156l1 1v91q71 48 137 90q-68 7 -113 40t-45 93q0 63 52 99h-113v80h623v-80z" />
    <glyph glyph-name="bnNGA" unicode="&#x999;" horiz-adv-x="668" 
d="M385 451q85 0 85 68q0 28 -20.5 45.5t-53.5 17.5q-28 0 -43 -17t-15 -46v-63q25 -5 47 -5zM619 253q0 -111 -71 -181t-191 -70q-136 0 -222 92.5t-86 243.5q0 20 2 48h94q-1 -13 -1 -47q0 -120 59.5 -187t154.5 -67q83 0 128 46t45 119v14q-64 -42 -139 -42
q-65 0 -105 37t-40 105v44q-105 51 -152 162h-115v80h175q25 -97 94 -151l1 20q0 62 38 101.5t107 39.5q71 0 116 -40.5t45 -102.5q0 -65 -47 -103t-123 -38q-27 0 -48 4v-14q0 -60 61 -60q78 0 192 76q28 -58 28 -129z" />
    <glyph glyph-name="bnCA" unicode="&#x99a;" horiz-adv-x="533" 
d="M486 265q0 -101 -70 -187t-173 -86q-71 0 -114.5 43.5t-43.5 119.5v415h-105v80h573v-80h-373v-70l123 -42q94 -30 138.5 -72.5t44.5 -120.5zM244 75q60 0 103 61t43 129q0 41 -23.5 62t-81.5 42l-105 36v-250q0 -80 64 -80z" />
    <glyph glyph-name="bnCHA" unicode="&#x99b;" horiz-adv-x="596" 
d="M517 -37h-140l-276 143v74q40 -2 59 -2q131 0 212 34t81 110q0 35 -25 54t-74 32q2 -16 2 -24q0 -58 -47.5 -104.5t-111.5 -46.5q-57 0 -90 30.5t-33 86.5v220h-94v80h636v-80h-455v-42l65 -13q2 -1 5 -1t4 -1l128 -29q92 -21 135.5 -59t43.5 -105q0 -65 -41.5 -112
t-104 -70t-144.5 -30q75 -32 117 -54l148 -78v-13zM197 305q30 0 53.5 27t23.5 57q0 22 -12.5 33.5t-44.5 18.5l-56 13v-109q0 -40 36 -40z" />
    <glyph glyph-name="bnJA" unicode="&#x99c;" horiz-adv-x="847" 
d="M781 0h-93q-21 92 -21 178q0 96 25 183q-89 24 -162 74t-105 119q-85 -65 -85 -148q0 -79 93 -79q68 0 135 30q18 -47 18 -103q0 -110 -65.5 -181.5t-183.5 -71.5q-132 0 -209 93.5t-77 245.5q0 31 1 47h95q-1 -14 -1 -41q0 -119 50 -190t141 -71q78 0 119 45t41 123v6
q-44 -14 -90 -14q-75 0 -120 42t-45 114q0 98 76 169h-338v80h887v-80h-349q72 -111 279 -154q-37 -111 -37 -237q0 -80 21 -179z" />
    <glyph glyph-name="bnJHA" unicode="&#x99d;" horiz-adv-x="790" 
d="M447 0h-96l-310 230v101q146 129 310 172v67h-371v80h467v-342h54q74 0 107 -47v476h96v-87h104v-80h-104v-491h-96v11q0 138 -113 138h-48v-228zM351 107v306q-121 -44 -226 -132z" />
    <glyph glyph-name="bnNYA" unicode="&#x99e;" horiz-adv-x="895" 
d="M138 419q0 97 69 169t172 72q131 0 156 -115q50 65 138 65q76 0 122 -43t46 -105q0 -49 -27.5 -82t-66.5 -46q39 -13 66.5 -45.5t27.5 -81.5q0 -62 -46 -105.5t-120 -43.5q-85 0 -135 58v-116h-95v6q0 43 -39 43q-18 0 -84.5 -19t-109.5 -19q-75 0 -123 44.5t-48 126.5
q0 30 5 57h93q-3 -39 -3 -48q0 -94 85 -94q30 0 91 17t86 17q29 0 47 -18v379q0 44 -16 64t-50 20q-55 0 -100.5 -47.5t-45.5 -109.5q0 -44 23.5 -61.5t68.5 -17.5q17 0 46 3v-83q-33 -6 -59 -6q-84 0 -129 42t-45 123zM665 140q38 0 61 20.5t23 54.5q0 77 -97 77h-35v84h35
q48 0 72.5 21t24.5 57q0 35 -24 54.5t-64 19.5q-54 0 -87.5 -36t-33.5 -97v-122q0 -61 35 -97t90 -36z" />
    <glyph glyph-name="bnTTA" unicode="&#x99f;" horiz-adv-x="549" 
d="M499 267q0 -106 -67.5 -186t-179.5 -80q-71 0 -119 43t-48 117v409h-105v80h415q4 17 4 44q0 66 -60 66q-25 0 -82 -11.5t-92 -11.5q-63 0 -103 21v75q42 -16 96 -16q30 0 91.5 12.5t96.5 12.5q71 0 106 -38t35 -99q0 -23 -5 -55h87v-80h-389v-409q0 -37 20 -56.5
t52 -19.5q67 0 109 55.5t42 126.5q0 100 -108 100q-22 0 -41 -4v85q24 4 53 4q91 0 141.5 -50.5t50.5 -134.5z" />
    <glyph glyph-name="bnTTHA" unicode="&#x9a0;" horiz-adv-x="584" 
d="M523 260q0 -108 -61 -176t-169 -68q-110 0 -173.5 73.5t-63.5 193.5q0 51 7 90h84q108 0 108 107v90h-275v80h250q-30 51 -30 95q0 56 37.5 89.5t102.5 33.5q15 0 51 -4v-83q-16 2 -32 2q-66 0 -66 -51q0 -33 32 -82h279v-80h-220l38 -51q101 -137 101 -259zM293 100
q68 0 102 44t34 116q0 112 -80 228l-16 21q1 -13 1 -43q0 -81 -44 -126t-124 -45h-15q-1 -9 -1 -24q0 -78 38 -124.5t105 -46.5z" />
    <glyph glyph-name="bnDDA" unicode="&#x9a1;" 
d="M613 286q0 -119 -71 -197t-196 -78q-136 0 -215.5 91.5t-79.5 246.5q0 37 5 84h95q-4 -36 -4 -81q0 -119 52 -188t147 -69q86 0 131 52.5t45 142.5q0 16 -1 25q-62 -35 -122 -35q-66 0 -103.5 38t-37.5 107v145h-278v80h700v-80h-326v-144q0 -62 58 -62q61 0 176 68
q25 -68 25 -146z" />
    <glyph glyph-name="bnDDHA" unicode="&#x9a2;" horiz-adv-x="549" 
d="M499 267q0 -106 -67.5 -186t-179.5 -80q-71 0 -119 43t-48 117v409h-105v80h589v-80h-389v-409q0 -37 20 -56.5t52 -19.5q67 0 109 55.5t42 126.5q0 100 -108 100q-22 0 -41 -4v85q24 4 53 4q91 0 141.5 -50.5t50.5 -134.5z" />
    <glyph glyph-name="bnNNA" unicode="&#x9a3;" horiz-adv-x="575" 
d="M595 570h-105v-570h-95v422q0 64 -35.5 110t-105.5 46q-50 0 -79.5 -28.5t-29.5 -77.5q0 -51 28 -76.5t76 -25.5q32 0 58 5v-83q-31 -8 -67 -8q-87 0 -139.5 50t-52.5 138q0 82 53.5 135t138.5 53q105 0 155 -73v146h95v-83h105v-80z" />
    <glyph glyph-name="bnTA" unicode="&#x9a4;" horiz-adv-x="668" 
d="M612 312q0 -116 -70.5 -196t-200.5 -80q-135 0 -211.5 93t-76.5 247q0 46 6 89h92q-5 -36 -5 -89q0 -112 50 -184t145 -72q85 0 130 53.5t45 138.5q0 52 -19 85.5t-59 33.5q-33 0 -51 -23.5t-18 -61.5t10 -75h-89q-15 38 -15 80q0 68 42.5 114t118.5 46q79 0 127.5 -58.5
t48.5 -140.5zM688 570h-708v80h708v-80z" />
    <glyph glyph-name="bnTHA" unicode="&#x9a5;" horiz-adv-x="651" 
d="M566 0h-93v1l-1 -1l-418 245v84h87q150 3 150 153q0 45 -21 72t-61 27q-36 0 -56.5 -23t-20.5 -60q0 -25 11 -69h-89q-14 35 -14 78q0 68 45 111t121 43q82 0 130.5 -52t48.5 -127q0 -94 -51 -150.5t-138 -68.5l277 -167v637h93v-83h105v-80h-105v-570z" />
    <glyph glyph-name="bnDA" unicode="&#x9a6;" horiz-adv-x="532" 
d="M159 148h-94v422h-85v80h572v-80h-393v-291q48 55 108.5 104.5t96.5 66.5h94v-450h-94v349q-48 -35 -106.5 -92t-98.5 -109z" />
    <glyph glyph-name="bnDHA" unicode="&#x9a7;" horiz-adv-x="577" 
d="M597 570h-105v-570h-96l-336 163l1 1v94q44 30 133 84q-63 7 -105.5 46.5t-42.5 104.5q0 76 51 121.5t138 45.5q29 0 58 -6v-79q-15 3 -51 3q-44 0 -71 -23t-27 -65q0 -43 27 -65.5t73 -22.5q48 0 87 18q31 18 65 36v194h201v-80zM396 94v268l-239 -148z" />
    <glyph glyph-name="bnNA" unicode="&#x9a8;" horiz-adv-x="573" 
d="M492 0h-96v3q-6 56 -17.5 106.5t-31.5 96.5t-51.5 73.5t-71.5 27.5q-45 0 -68.5 -28t-23.5 -75q0 -20 4 -48h-93q-6 25 -6 56q0 77 47 129t129 52q126 0 183 -134v311h-416v80h613v-80h-101v-570z" />
    <glyph glyph-name="bnPA" unicode="&#x9aa;" horiz-adv-x="590" 
d="M60 253l97 57q-33 65 -109 92v46q0 83 55 147.5t153 64.5q108 0 154 -75v148h95v-83h105v-80h-105v-570h-95v361l-350 -210v102zM141 447q58 -28 90 -93l175 104q-9 54 -43.5 86.5t-92.5 32.5q-60 0 -94.5 -36.5t-34.5 -93.5z" />
    <glyph glyph-name="bnPHA" unicode="&#x9ab;" horiz-adv-x="799" 
d="M759 284q0 -90 -49 -139.5t-127 -49.5q-13 0 -20 1v88h12q91 0 91 100q0 64 -49 99.5t-129 35.5v-419h-95l-341 162v100l171 123l-169 114v71h-74v80h839v-80h-706l194 -139v-92l-160 -119l246 -122v405h95q117 0 194 -59.5t77 -159.5z" />
    <glyph glyph-name="bnBA" unicode="&#x9ac;" horiz-adv-x="529" 
d="M549 570h-104v-570h-94l-310 230v101q146 129 310 172v67h-371v80h569v-80zM351 107v306q-121 -44 -226 -132z" />
    <glyph glyph-name="bnBHA" unicode="&#x9ad;" horiz-adv-x="657" 
d="M605 251q0 -107 -69 -175.5t-188 -68.5q-134 0 -216 92.5t-82 237.5q0 39 2 58h93q-2 -38 -2 -57q0 -115 54 -182t151 -67q81 0 124.5 42t45.5 113q-52 -21 -112 -21q-74 0 -119 39.5t-45 107.5t46.5 108t120.5 40q33 0 73 -9v-78q-30 4 -58 4q-39 0 -63 -16.5t-24 -48.5
q0 -34 24 -50.5t63 -16.5q80 0 163 53q18 -53 18 -105zM677 570h-697v80h697v-80z" />
    <glyph glyph-name="bnMA" unicode="&#x9ae;" horiz-adv-x="612" 
d="M641 570h-118v-570h-96v95q0 83 -41.5 130.5t-117.5 47.5q-52 0 -82.5 -25t-30.5 -71q0 -47 29 -70.5t74 -23.5q19 0 51 4v-81q-30 -6 -65 -6q-82 0 -134 46t-52 131q0 66 36.5 111t99.5 61q-14 147 -149 147v74h-65v80h661v-80zM427 274v296h-287q66 -24 102.5 -81.5
t43.5 -132.5q99 -11 141 -82z" />
    <glyph glyph-name="bnYA" unicode="&#x9af;" horiz-adv-x="572" 
d="M307 431v-92l-160 -119l246 -122v472h-280zM593 570h-105v-570h-95l-341 162v100l171 123l-169 114v71h-74v80h613v-80z" />
    <glyph glyph-name="bnRA" unicode="&#x9b0;" horiz-adv-x="529" 
d="M549 570h-104v-570h-94l-310 230v101q146 129 310 172v67h-371v80h569v-80zM153 27q0 -25 -17.5 -42t-42.5 -17t-42 17t-17 42t17 42.5t42 17.5t42.5 -17.5t17.5 -42.5zM351 107v306q-121 -44 -226 -132z" />
    <glyph glyph-name="bnLA" unicode="&#x9b2;" horiz-adv-x="734" 
d="M649 0h-96v301q0 37 -16 64.5t-55 27.5q-77 0 -77 -113v-19h-97v23q0 108 -83 108q-39 0 -61.5 -27t-22.5 -72q0 -52 28.5 -78.5t73.5 -26.5q29 0 62 6v-82q-32 -7 -71 -7q-85 0 -136.5 50.5t-51.5 137.5q0 78 45.5 129.5t125.5 51.5q56 0 92.5 -26t45.5 -68
q10 43 40.5 69.5t75.5 26.5q55 0 82 -40v134h-573v80h774v-80h-105v-570z" />
    <glyph glyph-name="bnSHA" unicode="&#x9b6;" horiz-adv-x="682" 
d="M597 0h-95v438q0 60 -28 100t-90 40q-47 0 -74.5 -29t-27.5 -78q0 -53 27 -79.5t73 -26.5q14 0 38 2v-84q-21 -4 -48 -4q-94 0 -139 65q-44 -65 -136 -65q-26 0 -59 6v84q24 -4 49 -4q101 0 101 106q0 48 -29.5 73.5t-80.5 25.5h-98v80h107q96 0 145 -64q48 74 143 74
q86 0 127 -54v127h95v-83h105v-80h-105v-570z" />
    <glyph glyph-name="bnSSA" unicode="&#x9b7;" horiz-adv-x="572" 
d="M307 435v-1l86 -58v194h-282zM593 570h-105v-570h-95l-341 162v100l169 125l-32 20l1 2l-136 90v71h-74v80h613v-80zM393 98v180l-94 60l-153 -118z" />
    <glyph glyph-name="bnSA" unicode="&#x9b8;" horiz-adv-x="590" 
d="M505 0h-96v201q0 40 -16 66.5t-50 26.5q-23 0 -43 -17t-36.5 -41.5t-35.5 -49.5t-50 -42t-70 -17q-34 0 -71 14v81q33 -10 58 -10q21 0 39 11.5t29 25.5t28 38.5t27 36.5q-10 80 -56 126t-120 46v74h-62v80h630v-80h-105v-570zM325 378q57 0 84 -39v231h-272
q64 -23 105.5 -75.5t54.5 -119.5q13 3 28 3z" />
    <glyph glyph-name="bnHA" unicode="&#x9b9;" horiz-adv-x="456" 
d="M398 -10h-130l-197 140v80h90q72 1 108.5 34.5t36.5 93.5q0 44 -22.5 68.5t-61.5 24.5q-36 0 -57.5 -23t-21.5 -59q0 -30 8 -60h-89q-11 30 -11 67q0 68 46 111.5t123 43.5q81 0 130.5 -50t49.5 -123q0 -84 -54.5 -136.5t-147.5 -60.5l200 -141v-10zM476 570h-496v80h496
v-80z" />
    <glyph glyph-name="bnNukta" unicode="&#x9bc;" horiz-adv-x="0" 
d="M-217 -129q0 -25 -17.5 -42t-42.5 -17t-42 17t-17 42t17 42.5t42 17.5t42.5 -17.5t17.5 -42.5z" />
    <glyph glyph-name="bnAvagraha" unicode="&#x9bd;" horiz-adv-x="457" 
d="M398 -10h-130l-197 140v80h90q72 1 108.5 34.5t36.5 93.5q0 44 -22.5 68.5t-61.5 24.5q-36 0 -57.5 -23t-21.5 -59q0 -30 8 -60h-89q-11 30 -11 67q0 49 25.5 87t70.5 55q-22 38 -48 55t-70 17h-49v80h59q72 0 117.5 -33t81.5 -107q74 -6 118 -54.5t44 -117.5
q0 -84 -54.5 -136.5t-147.5 -60.5l200 -141v-10z" />
    <glyph glyph-name="bnmAA" unicode="&#x9be;" horiz-adv-x="265" 
d="M285 570h-105v-570h-95v495q0 39 -13 57t-48 18h-44v80h52q42 0 64 -41q-9 52 -9 98v26h93v-83h105v-80z" />
    <glyph glyph-name="bnmI" unicode="&#x9bf;" horiz-adv-x="265" 
d="M285 570h-105v-570h-95v570h-105v80h105v36q0 206 235 206q128 0 264 -46v-77q-129 43 -259 43q-79 0 -111.5 -31.5t-32.5 -94.5v-36h104v-80z" />
    <glyph glyph-name="bnmII" unicode="&#x9c0;" horiz-adv-x="265" 
d="M285 570h-105v-570h-95v570h-105v80h105v26q0 95 -75.5 148t-197.5 53q-116 0 -116 -51t124 -51q50 0 95 5v-67q-39 -9 -110 -9q-200 0 -200 122q0 60 56.5 93.5t150.5 33.5q156 0 262 -80t106 -198v-25h105v-80z" />
    <glyph glyph-name="bnmU" unicode="&#x9c1;" horiz-adv-x="0" 
d="M-154 -174q66 0 77 98q-38 15 -70 15q-31 0 -49.5 -14.5t-18.5 -42.5q0 -26 16.5 -41t44.5 -15zM111 -228q-57 68 -123 115q-13 -59 -48.5 -94.5t-93.5 -35.5q-62 0 -102 34.5t-40 90.5q0 59 41 93.5t108 34.5q75 0 142.5 -41.5t115.5 -98.5v-98z" />
    <glyph glyph-name="bnmUU" unicode="&#x9c2;" horiz-adv-x="0" 
d="M-328 -118q0 61 42 97.5t110 36.5q49 0 91 -14v-67q-40 14 -83 14q-37 0 -60.5 -17t-23.5 -50q0 -28 20.5 -45t55.5 -17q72 0 126 93l120 -78v-78l-105 66q-54 -69 -143 -69q-65 0 -107.5 36t-42.5 92z" />
    <glyph glyph-name="bnmvR" unicode="&#x9c3;" horiz-adv-x="0" 
d="M0 -173v-80l-273 103v65l101 107l87 -22l-95 -103z" />
    <glyph glyph-name="bnmvRR" unicode="&#x9c4;" horiz-adv-x="0" 
d="M-34 -325v-79l-229 86v65l68 74l-78 29v65l101 107l87 -22l-95 -103l180 -70v-80l-118 44l-55 -62z" />
    <glyph glyph-name="bnmE" unicode="&#x9c7;" horiz-adv-x="293" 
d="M283 -7q-16 -2 -30 -2q-99 0 -145.5 77.5t-48.5 199.5q0 222 83 302h-162v80h333v-80h-20q-140 0 -140 -302q0 -192 110 -192h20v-83z" />
    <glyph glyph-name="bnmAI" unicode="&#x9c8;" horiz-adv-x="293" 
d="M283 -7q-16 -2 -30 -2q-99 0 -145.5 77.5t-48.5 199.5q0 222 83 302h-162v80h223q4 19 4 48q0 62 -60 62q-20 0 -62 -11.5t-66 -11.5q-35 0 -69 16v77q29 -13 61 -13q21 0 66 12.5t76 12.5q71 0 106.5 -38t35.5 -99q0 -27 -6 -55h24v-80h-20q-140 0 -140 -302
q0 -192 110 -192h20v-83z" />
    <glyph glyph-name="bnmO" unicode="&#x9cb;" horiz-adv-x="1206" 
d="M567 90q0 -20 -12.5 -33t-31.5 -13t-32 13t-13 33q0 18 13 31t32 13t31.5 -13t12.5 -31zM465 165q0 -19 -12.5 -31.5t-31.5 -12.5t-31.5 12.5t-12.5 31.5t12.5 31.5t31.5 12.5t31.5 -12.5t12.5 -31.5zM413 281q0 -19 -12.5 -31t-31.5 -12t-31.5 12t-12.5 31t12.5 32
t31.5 13t31.5 -12.5t12.5 -32.5zM694 74q0 -19 -12.5 -31.5t-32.5 -12.5q-19 0 -31.5 12t-12.5 32t12.5 32t31.5 12q20 0 32.5 -12.5t12.5 -31.5zM428 407q0 -19 -13 -31.5t-31 -12.5q-20 0 -33 12.5t-13 31.5t13 31.5t33 12.5q18 0 31 -12.5t13 -31.5zM815 127
q0 -19 -13 -31.5t-32 -12.5t-31.5 12.5t-12.5 31.5t12.5 31.5t31.5 12.5t32 -12.5t13 -31.5zM508 517q0 -20 -12.5 -32.5t-31.5 -12.5t-31.5 12.5t-12.5 32.5q0 19 12.5 31.5t31.5 12.5t31.5 -12.5t12.5 -31.5zM887 225q0 -19 -12.5 -31.5t-30.5 -12.5q-19 0 -32 12.5
t-13 31.5t12.5 32t32.5 13q18 0 30.5 -13t12.5 -32zM626 560q0 -20 -12 -32t-32 -12t-32 12t-12 32t12 32t32 12t32 -12t12 -32zM897 359q0 -19 -12.5 -31.5t-31.5 -12.5t-31.5 12.5t-12.5 31.5t12.5 31.5t31.5 12.5t31.5 -12.5t12.5 -31.5zM752 545q0 -18 -12.5 -31
t-30.5 -13q-19 0 -32 13t-13 31q0 19 13 32t32 13t31 -12.5t12 -32.5zM847 477q0 -19 -12.5 -31.5t-31.5 -12.5t-31.5 12.5t-12.5 31.5t12.5 32t31.5 13t31.5 -12.5t12.5 -32.5zM283 -7q-16 -2 -30 -2q-99 0 -145.5 77.5t-48.5 199.5q0 222 83 302h-162v80h333v-80h-20
q-140 0 -140 -302q0 -192 110 -192h20v-83zM1226 570h-105v-570h-95v495q0 39 -13 57t-48 18h-44v80h52q42 0 64 -41q-9 52 -9 98v26h93v-83h105v-80z" />
    <glyph glyph-name="bnmAU" unicode="&#x9cc;" horiz-adv-x="1206" 
d="M567 90q0 -20 -12.5 -33t-31.5 -13t-32 13t-13 33q0 18 13 31t32 13t31.5 -13t12.5 -31zM465 165q0 -19 -12.5 -31.5t-31.5 -12.5t-31.5 12.5t-12.5 31.5t12.5 31.5t31.5 12.5t31.5 -12.5t12.5 -31.5zM413 281q0 -19 -12.5 -31t-31.5 -12t-31.5 12t-12.5 31t12.5 32
t31.5 13t31.5 -12.5t12.5 -32.5zM694 74q0 -19 -12.5 -31.5t-32.5 -12.5q-19 0 -31.5 12t-12.5 32t12.5 32t31.5 12q20 0 32.5 -12.5t12.5 -31.5zM428 407q0 -19 -13 -31.5t-31 -12.5q-20 0 -33 12.5t-13 31.5t13 31.5t33 12.5q18 0 31 -12.5t13 -31.5zM815 127
q0 -19 -13 -31.5t-32 -12.5t-31.5 12.5t-12.5 31.5t12.5 31.5t31.5 12.5t32 -12.5t13 -31.5zM508 517q0 -20 -12.5 -32.5t-31.5 -12.5t-31.5 12.5t-12.5 32.5q0 19 12.5 31.5t31.5 12.5t31.5 -12.5t12.5 -31.5zM887 225q0 -19 -12.5 -31.5t-30.5 -12.5q-19 0 -32 12.5
t-13 31.5t12.5 32t32.5 13q18 0 30.5 -13t12.5 -32zM626 560q0 -20 -12 -32t-32 -12t-32 12t-12 32t12 32t32 12t32 -12t12 -32zM897 359q0 -19 -12.5 -31.5t-31.5 -12.5t-31.5 12.5t-12.5 31.5t12.5 31.5t31.5 12.5t31.5 -12.5t12.5 -31.5zM752 545q0 -18 -12.5 -31
t-30.5 -13q-19 0 -32 13t-13 31q0 19 13 32t32 13t31 -12.5t12 -32.5zM847 477q0 -19 -12.5 -31.5t-31.5 -12.5t-31.5 12.5t-12.5 31.5t12.5 32t31.5 13t31.5 -12.5t12.5 -32.5zM283 -7q-16 -2 -30 -2q-99 0 -145.5 77.5t-48.5 199.5q0 222 83 302h-162v80h333v-80h-20
q-140 0 -140 -302q0 -192 110 -192h20v-83zM921 650h115q4 17 4 46q0 32 -13.5 48t-46.5 16q-22 0 -68.5 -10t-72.5 -10q-48 0 -84 21v75q40 -16 76 -16q23 0 72.5 11t82.5 11q72 0 107 -37t35 -98q0 -29 -6 -57h104v-80h-105v-570h-95v570h-105v80z" />
    <glyph glyph-name="bnVirama" unicode="&#x9cd;" horiz-adv-x="0" 
d="M-179 -50h94l130 -137v-4h-93l-131 137v4z" />
    <glyph glyph-name="bnTAkhanda" unicode="&#x9ce;" horiz-adv-x="556" 
d="M503 0h-100v52q0 42 -18.5 75t-48.5 55t-66 42t-72 42t-66 49t-48.5 69.5t-18.5 96.5q0 76 53 125t138 49q86 0 136.5 -47t50.5 -122q0 -44 -12 -70h-96q13 35 13 70q0 43 -23 66.5t-67 23.5q-47 0 -70 -27t-23 -68t18.5 -73.5t48.5 -54.5t66 -42.5t72 -43t66 -50
t48.5 -69.5t18.5 -96v-52z" />
    <glyph glyph-name="bnAUlengthmark" unicode="&#x9d7;" horiz-adv-x="265" 
d="M-20 650h115q4 17 4 46q0 32 -13.5 48t-46.5 16q-22 0 -68.5 -10t-72.5 -10q-48 0 -84 21v75q40 -16 76 -16q23 0 72.5 11t82.5 11q72 0 107 -37t35 -98q0 -29 -6 -57h104v-80h-105v-570h-95v570h-105v80z" />
    <glyph glyph-name="bnDDxA" unicode="&#x9dc;" 
d="M613 286q0 -119 -71 -197t-196 -78q-136 0 -215.5 91.5t-79.5 246.5q0 37 5 84h95q-4 -36 -4 -81q0 -119 52 -188t147 -69q86 0 131 52.5t45 142.5q0 16 -1 25q-62 -35 -122 -35q-66 0 -103.5 38t-37.5 107v145h-278v80h700v-80h-326v-144q0 -62 58 -62q61 0 176 68
q25 -68 25 -146zM392 -113q0 -25 -17.5 -42t-42.5 -17q-26 0 -42.5 17t-16.5 42t17 42.5t42 17.5t42.5 -17.5t17.5 -42.5z" />
    <glyph glyph-name="bnDDHxA" unicode="&#x9dd;" horiz-adv-x="549" 
d="M499 267q0 -106 -67.5 -186t-179.5 -80q-71 0 -119 43t-48 117v409h-105v80h589v-80h-389v-409q0 -37 20 -56.5t52 -19.5q67 0 109 55.5t42 126.5q0 100 -108 100q-22 0 -41 -4v85q24 4 53 4q91 0 141.5 -50.5t50.5 -134.5zM321 -123q0 -25 -17.5 -42t-42.5 -17t-42 17
t-17 42t17 42.5t42 17.5t42.5 -17.5t17.5 -42.5z" />
    <glyph glyph-name="bnYxA" unicode="&#x9df;" horiz-adv-x="572" 
d="M307 431v-92l-160 -119l246 -122v472h-280zM593 570h-105v-570h-95l-341 162v100l171 123l-169 114v71h-74v80h613v-80zM214 -42q0 -25 -17.5 -42t-42.5 -17q-26 0 -42.5 16.5t-16.5 42.5q0 25 17 42.5t42 17.5t42.5 -17.5t17.5 -42.5z" />
    <glyph glyph-name="bnvRR" unicode="&#x9e0;" horiz-adv-x="829" 
d="M395 -89v-84l-294 120v69l87 85l-139 70l1 1v99l269 153l-41 80q-36 -85 -127 -85q-68 0 -108 42.5t-40 110.5q0 45 15 78h83q-10 -40 -10 -69q0 -37 18 -60t51 -23q72 0 72 102q0 24 -3 50h76l82 -187l5 3v184h94v-342h54q74 0 107 -47v472h95v-83h105v-80h-105v-491
h-95v11q0 138 -113 138h-48v-228h-96l-129 65l-66 -67zM390 98v267l-241 -141z" />
    <glyph glyph-name="bnvLL" unicode="&#x9e1;" horiz-adv-x="696" 
d="M685 -143q0 -71 -53.5 -116.5t-136.5 -45.5q-9 0 -27 2v55q45 26 45 81q0 54 -48 54q-22 0 -34 -13.5t-12 -36.5q0 -25 9 -56h-62q-11 37 -11 61q0 42 29 73t79 31q51 0 80.5 -33t29.5 -79q0 -34 -22 -70q62 22 62 93q0 36 -21.5 62.5t-48.5 40t-59.5 33t-48.5 40.5
q-74 -41 -167 -41q-22 0 -48 3l1 81q34 21 56.5 64t22.5 92q0 42 -22.5 68t-63.5 26q-40 0 -60.5 -24t-20.5 -65q0 -46 16 -99h-89q-19 57 -19 109q0 71 47.5 116t122.5 45q80 0 128 -48.5t48 -126.5q0 -80 -55 -150q69 14 108.5 64t39.5 124q0 53 -19.5 92.5t-50.5 63.5
t-68.5 43t-75 37.5t-68.5 41t-50.5 59.5t-19.5 87q0 25 4 38h90q-2 -12 -2 -20q0 -38 19.5 -66t50.5 -47t68 -36.5t74.5 -41t68.5 -54t50.5 -81t19.5 -117.5q0 -115 -76 -191q11 -19 44.5 -40t64.5 -38.5t56 -55t25 -88.5z" />
    <glyph glyph-name="bnmvL" unicode="&#x9e2;" horiz-adv-x="0" 
d="M157 -186q0 -62 -45.5 -101t-123.5 -39q-10 0 -26 2v51q41 21 41 73q0 18 -9.5 28.5t-26.5 10.5q-32 0 -32 -37q0 -23 9 -48h-57q-11 29 -11 53q0 37 24.5 61t64.5 24t65 -25.5t25 -65.5q0 -31 -18 -62q57 18 57 76q0 36 -25.5 60.5t-55.5 36t-55.5 36t-25.5 60.5
q0 12 3 20h62q-2 -6 -2 -11q0 -17 12 -30.5t30 -22.5t39 -22t39 -27.5t30 -40.5t12 -60z" />
    <glyph glyph-name="bnmvLL" unicode="&#x9e3;" horiz-adv-x="0" 
d="M157 -186q0 -49 -28 -83q24 -15 34 -21.5t29 -23t27.5 -36.5t8.5 -45q0 -47 -34.5 -74.5t-93.5 -27.5q-14 0 -20 1v34q32 14 32 57q0 13 -8 21t-20 8q-26 0 -26 -28q0 -16 8 -38h-42q-8 22 -8 41q0 28 18.5 45.5t48.5 17.5q31 0 50 -18.5t19 -48.5q0 -24 -15 -47
q45 13 45 58q0 10 -2.5 19t-9 17t-11.5 14t-15.5 13t-16 10.5t-18 10.5t-16.5 9q-44 -25 -105 -25q-10 0 -26 2v51q41 21 41 73q0 18 -9.5 28.5t-26.5 10.5q-32 0 -32 -37q0 -23 9 -48h-57q-11 29 -11 53q0 37 24.5 61t64.5 24t65 -25.5t25 -65.5q0 -31 -18 -62q57 18 57 76
q0 36 -25.5 60.5t-55.5 36t-55.5 36t-25.5 60.5q0 12 3 20h62q-2 -6 -2 -11q0 -17 12 -30.5t30 -22.5t39 -22t39 -27.5t30 -40.5t12 -60z" />
    <glyph glyph-name="bnZero" unicode="&#x9e6;" horiz-adv-x="583" 
d="M291 92q-105 0 -171.5 65t-66.5 170t66.5 170t171.5 65t171.5 -65t66.5 -170q0 -106 -66.5 -170.5t-171.5 -64.5zM291 478q-66 0 -105.5 -42t-39.5 -109q0 -68 39.5 -109.5t105.5 -41.5t105.5 42t39.5 109t-39.5 109t-105.5 42z" />
    <glyph glyph-name="bnOne" unicode="&#x9e7;" horiz-adv-x="508" 
d="M220 456q-9 -3 -12 -8l18 -10q-18 -4 -33 -15q-1 -4 -1 -13q0 -32 15 -60t38 -50t46.5 -43t43 -48.5t25.5 -56.5q17 -33 11 -54q20 -23 15.5 -27.5t-30.5 10.5q-23 -8 -65 6q-18 22 -59 55.5t-73.5 59.5t-58.5 68.5t-26 88.5q0 47 29 79q17 57 83 67z" />
    <glyph glyph-name="bnTwo" unicode="&#x9e8;" horiz-adv-x="484" 
d="M438 -72l-392 260v110q86 -63 184 -63q50 0 79.5 24t29.5 69q0 37 -24.5 65t-60 47t-71 39.5t-60 54t-24.5 78.5q0 19 7 38h89q-6 -14 -6 -32q0 -25 18 -46.5t45 -36.5t58.5 -35t58.5 -41.5t45 -56.5t18 -79q0 -73 -50.5 -117.5t-136.5 -44.5h-14q59 -28 110 -65l97 -66
v-102z" />
    <glyph glyph-name="bnThree" unicode="&#x9e9;" horiz-adv-x="675" 
d="M621 358q0 -133 -72 -223.5t-203 -90.5q-143 0 -217.5 93.5t-74.5 255.5q0 88 23 167h94q-22 -82 -22 -167q0 -120 48 -192t149 -72q85 0 131 63.5t46 165.5q0 64 -19 104.5t-60 40.5q-35 0 -52.5 -27t-17.5 -70q0 -50 14 -101h-91q-18 46 -18 103q0 76 41 127.5
t122 51.5q88 0 133.5 -64.5t45.5 -164.5z" />
    <glyph glyph-name="bnFour" unicode="&#x9ea;" horiz-adv-x="522" 
d="M464 501q0 -54 -30.5 -91.5t-84.5 -68.5q130 -68 130 -174q0 -81 -59 -129t-156 -48q-95 0 -158 46t-63 127q0 106 117 172q-98 56 -98 158q0 77 58 122t145 45t143 -45t56 -114zM156 489q0 -67 85 -114q32 15 50.5 24.5t39.5 25t30.5 33t9.5 38.5q0 40 -29.5 61.5
t-77.5 21.5q-53 0 -80.5 -24t-27.5 -66zM262 72q55 0 88.5 26t33.5 73q0 74 -120 128q-62 -31 -94.5 -60t-32.5 -72q0 -48 36.5 -71.5t88.5 -23.5z" />
    <glyph glyph-name="bnFive" unicode="&#x9eb;" horiz-adv-x="581" 
d="M134 313q0 -112 74 -167.5t187 -66.5q-64 48 -64 149q0 53 23.5 98.5t70.5 66.5q-49 12 -76.5 47.5t-27.5 87.5q0 10 2 24q-92 -31 -140.5 -92.5t-48.5 -146.5zM538 435v-75q-59 -2 -88 -42.5t-29 -103.5q0 -66 33 -103.5t96 -37.5v-73q-56 -8 -107 -8q-187 0 -294.5 87
t-107.5 234q0 146 97.5 236.5t250.5 111.5l32 -57q-13 -29 -13 -60q0 -54 35 -80.5t95 -28.5z" />
    <glyph glyph-name="bnSix" unicode="&#x9ec;" 
d="M211 660q71 0 109 -46t38 -121v-70q0 -59 55 -59q60 0 175 68q25 -68 25 -146q0 -119 -71 -197t-196 -78q-136 0 -215.5 91.5t-79.5 246.5q0 37 5 84h95q-4 -36 -4 -81q0 -119 52 -188t147 -69q86 0 131 52.5t45 142.5q0 16 -1 24q-58 -34 -120 -34q-65 0 -101.5 38
t-36.5 107v57q0 90 -74 90q-24 0 -34 -2v84q30 6 56 6z" />
    <glyph glyph-name="bnSeven" unicode="&#x9ed;" horiz-adv-x="562" 
d="M433 497v-329q0 -91 74 -91q19 0 34 3v-85q-30 -6 -56 -6q-71 0 -109 46t-38 121v71q-52 -18 -107 -18q-92 0 -145.5 53t-53.5 141q0 100 68 178.5t175 78.5q71 0 114.5 -43.5t43.5 -119.5zM238 299q48 0 100 19v179q0 80 -64 80q-61 0 -103.5 -52.5t-42.5 -121.5
q0 -49 27.5 -76.5t82.5 -27.5z" />
    <glyph glyph-name="bnEight" unicode="&#x9ee;" horiz-adv-x="704" 
d="M130 153v329q0 90 -73 90q-24 0 -35 -2v84q31 6 57 6q71 0 109 -46t38 -121v-71q51 19 107 19q71 0 121 -33q28 33 81 33q38 0 50.5 13t12.5 42q0 18 -1 27h87q4 -24 4 -44q0 -124 -133 -124q-29 0 -44 -13q20 -42 20 -95q0 -100 -67.5 -179t-174.5 -79q-72 0 -115.5 44
t-43.5 120zM290 73q60 0 103 52.5t43 121.5q0 48 -28 76t-83 28q-47 0 -99 -19v-179q0 -80 64 -80z" />
    <glyph glyph-name="bnNine" unicode="&#x9ef;" horiz-adv-x="639" 
d="M219 342q84 0 135.5 -50.5t51.5 -125.5q0 -48 -23 -87q55 8 86 45t31 96q0 43 -21.5 78t-56.5 59t-77 45l-84 42t-77 45t-56.5 59t-21.5 79q0 7 2 23h94q-1 -4 -1 -16q0 -39 40.5 -71t98 -60t115 -61.5t98 -90t40.5 -131.5q0 -99 -62 -159.5t-178 -60.5h-84v68
q49 25 49 95q0 42 -26 69.5t-73 27.5q-45 0 -70.5 -27t-25.5 -68q0 -39 19.5 -63t51.5 -27v-75q-72 0 -117 44t-45 121q0 76 51.5 126.5t135.5 50.5z" />
    <glyph glyph-name="asRA" unicode="&#x9f0;" horiz-adv-x="529" 
d="M37 230v101q146 129 316 172v67h-373v80h569v-80h-104v-570h-92zM353 270v148q-67 -23 -123 -55zM353 103v92l-179 132q-30 -20 -59 -46z" />
    <glyph glyph-name="asWA" unicode="&#x9f1;" horiz-adv-x="529" 
d="M230 11v-87l-147 104v94zM549 570h-104v-570h-94l-310 230v101q146 129 310 172v67h-371v80h569v-80zM351 107v306q-121 -44 -226 -132z" />
    <glyph glyph-name="bnBangladeshitaka" unicode="&#x9f3;" horiz-adv-x="588" 
d="M72 660q72 0 109.5 -43.5t37.5 -117.5v-51h46v-84h-46v-199q0 -39 24 -59.5t61 -20.5q68 0 113.5 53.5t45.5 126.5q0 102 -104 102q-22 0 -41 -4v85q25 4 54 4q91 0 139 -50.5t48 -136.5q0 -107 -71 -185.5t-184 -78.5q-76 0 -128 44t-52 120v199h-86v84h86v40
q0 42 -17.5 63t-56.5 21q-24 0 -34 -2v84q30 6 56 6z" />
    <glyph glyph-name="bnNumeratorone" unicode="&#x9f4;" horiz-adv-x="504" 
d="M453 559q0 -208 -109.5 -334.5t-323.5 -126.5v86q168 0 253 102t85 273h95z" />
    <glyph glyph-name="bnNumeratortwo" unicode="&#x9f5;" horiz-adv-x="667" 
d="M532 559h95q-5 -76 -24.5 -149t-56 -141t-85.5 -119t-118 -81.5t-149 -30.5v84q30 16 48.5 50t18.5 80q0 76 -66 76q-30 0 -47.5 -21.5t-17.5 -59.5q0 -17 5 -37h-90q-7 24 -7 51q0 62 40 105.5t110 43.5q74 0 117 -42.5t43 -110.5q0 -57 -39 -111q98 46 155.5 162
t67.5 251z" />
    <glyph glyph-name="bnNumeratorthree" unicode="&#x9f6;" horiz-adv-x="661" 
d="M146 318h-92q-4 20 -4 32q0 56 38 93t108 37q64 0 104 -36.5t40 -95.5q0 -36 -19 -64t-46 -46t-53.5 -33t-45.5 -32.5t-19 -37.5q0 -31 24.5 -46t59.5 -15q63 0 113.5 37t82.5 95.5t53.5 136t30 154t8.5 153.5h94q0 -57 -4.5 -114t-16 -123.5t-29.5 -125.5t-48 -114.5
t-68.5 -95t-93.5 -63.5t-120 -24q-79 0 -130.5 40.5t-51.5 104.5q0 36 19.5 64t47 45.5t55 32t47 32.5t19.5 40q0 23 -13.5 38t-39.5 15q-25 0 -39.5 -15.5t-14.5 -41.5q0 -9 4 -27z" />
    <glyph glyph-name="bnNumeratorfour" unicode="&#x9f7;" horiz-adv-x="254" 
d="M174 0h-94v650h94v-650z" />
    <glyph glyph-name="bnNumeratoroneless" unicode="&#x9f8;" horiz-adv-x="532" 
d="M458 0h-94v371q-48 -35 -106.5 -92t-98.5 -109h-94v321q0 91 -30 159h94q30 -74 30 -159v-190q48 55 108.5 104.5t96.5 66.5h94v-472z" />
    <glyph glyph-name="bnDenominatorsixteen" unicode="&#x9f9;" horiz-adv-x="527" 
d="M46 325q0 91 60 148.5t158 57.5t157.5 -57.5t59.5 -148.5q0 -92 -59.5 -149t-157.5 -57t-158 57t-60 149zM386 325q0 54 -33.5 88.5t-88.5 34.5q-56 0 -89.5 -34t-33.5 -89t33.5 -89t89.5 -34q55 0 88.5 34t33.5 89z" />
    <glyph glyph-name="bnIsshar" unicode="&#x9fa;" horiz-adv-x="533" 
d="M487 444q0 -133 -73.5 -227t-195.5 -94q-82 0 -137 46.5t-55 114.5h92q0 -34 26.5 -57t74.5 -23q61 0 102 36.5t57.5 88.5t16.5 115h92zM275 306q0 -22 -15.5 -36.5t-38.5 -14.5q-22 0 -36.5 14.5t-14.5 36.5t14.5 37t36.5 15q23 0 38.5 -15t15.5 -37z" />
    <glyph glyph-name="bnGanda" unicode="&#x9fb;" horiz-adv-x="480" 
d="M469 -26v-94l-259 180q-32 22 -50.5 35.5t-42.5 35.5t-36.5 41.5t-22 46t-9.5 56.5q0 71 43.5 109t114.5 38q33 0 62 -6v-84q-24 4 -54 4q-31 0 -51.5 -16t-20.5 -47q0 -38 23.5 -66t67.5 -60z" />
    <glyph glyph-name="uni200C" unicode="&#x200c;" horiz-adv-x="0" 
d="M24 -230h-47v1041h47v-1041z" />
    <glyph glyph-name="uni200D" unicode="&#x200d;" horiz-adv-x="0" 
d="M24 -230h-47v865l-69 -73l-33 33l93 93l-95 95l33 33l95 -95l96 95l32 -32l-96 -96l96 -95l-33 -33l-72 75v-865z" />
    <glyph glyph-name="endash" unicode="&#x2013;" horiz-adv-x="544" 
d="M491 231h-438v78h438v-78z" />
    <glyph glyph-name="emdash" unicode="&#x2014;" horiz-adv-x="826" 
d="M773 233h-720v78h720v-78z" />
    <glyph glyph-name="quoteleft" unicode="&#x2018;" horiz-adv-x="205" 
d="M132 460h-116l124 235h81z" />
    <glyph glyph-name="quoteright" unicode="&#x2019;" horiz-adv-x="206" 
d="M97 460h-80l88 235h117z" />
    <glyph glyph-name="quotesinglbase" unicode="&#x201a;" horiz-adv-x="206" 
d="M80 -124h-81l89 234h116z" />
    <glyph glyph-name="quotedblleft" unicode="&#x201c;" horiz-adv-x="361" 
d="M131 460h-115l127 235h78zM290 460h-110l118 235h79z" />
    <glyph glyph-name="quotedblright" unicode="&#x201d;" horiz-adv-x="361" 
d="M95 460h-78l86 235h110zM251 460h-79l90 235h115z" />
    <glyph glyph-name="quotedblbase" unicode="&#x201e;" horiz-adv-x="361" 
d="M80 -124h-79l87 234h109zM235 -124h-78l90 234h115z" />
    <glyph glyph-name="dagger" unicode="&#x2020;" horiz-adv-x="534" 
d="M495 426h-186v-426h-89v426h-182v83h182v165h89v-165h186v-83z" />
    <glyph glyph-name="daggerdbl" unicode="&#x2021;" horiz-adv-x="547" 
d="M502 172h-187v-172h-89v172h-181v84h181v170h-181v83h181v165h89v-165h187v-83h-187v-170h187v-84z" />
    <glyph glyph-name="bullet" unicode="&#x2022;" horiz-adv-x="442" 
d="M353 356q0 -56 -38 -94.5t-94 -38.5q-57 0 -95 38t-38 95t37.5 95t94.5 38q56 0 94.5 -38.5t38.5 -94.5z" />
    <glyph glyph-name="ellipsis" unicode="&#x2026;" horiz-adv-x="783" 
d="M178 60q0 -28 -19.5 -48t-47.5 -20q-29 0 -48.5 20t-19.5 48t19.5 47.5t48.5 19.5q28 0 47.5 -19.5t19.5 -47.5zM459 60q0 -28 -19.5 -48t-47.5 -20t-48 20t-20 48t19.5 47.5t48.5 19.5q28 0 47.5 -19.5t19.5 -47.5zM740 60q0 -28 -19.5 -48t-47.5 -20q-29 0 -48.5 20
t-19.5 48t19.5 47.5t48.5 19.5q28 0 47.5 -19.5t19.5 -47.5z" />
    <glyph glyph-name="perthousand" unicode="&#x2030;" horiz-adv-x="1270" 
d="M301 -1h-92l364 678h93zM380 520q0 -70 -49 -119t-118 -49q-70 0 -119 49t-49 119q0 69 49 118t119 49q69 0 118 -49t49 -118zM128 520q0 -35 25 -60t60 -25t59.5 25t24.5 60q0 34 -24.5 59t-59.5 25t-60 -24.5t-25 -59.5zM833 160q0 -70 -49 -118.5t-118 -48.5
q-70 0 -119 48.5t-49 118.5q0 69 49 118.5t119 49.5q69 0 118 -49.5t49 -118.5zM581 160q0 -35 25 -60t60 -25t60 25t25 60t-25 60t-60 25t-60 -25t-25 -60zM1237 160q0 -69 -49.5 -118t-118.5 -49t-118 48.5t-49 118.5q0 69 49 118.5t118 49.5t118.5 -49.5t49.5 -118.5z
M985 160q0 -35 24.5 -60t59.5 -25t60 25t25 60t-25 60t-60 25t-59.5 -25t-24.5 -60z" />
    <glyph glyph-name="guilsinglleft" unicode="&#x2039;" horiz-adv-x="320" 
d="M139 253l146 -162h-106l-151 162l151 162h106z" />
    <glyph glyph-name="guilsinglright" unicode="&#x203a;" horiz-adv-x="318" 
d="M292 253l-151 -162h-106l146 162l-146 162h106z" />
    <glyph glyph-name="fraction" unicode="&#x2044;" horiz-adv-x="298" 
d="M-35 0h-82l444 712h82z" />
    <glyph glyph-name="Euro" unicode="&#x20ac;" horiz-adv-x="600" 
d="M560 19q-52 -27 -135 -27q-102 0 -176.5 60t-101.5 163h-99v67h88q-2 26 -2 41q0 17 2 49h-88v67h100q29 105 104 163.5t175 58.5q81 0 133 -28v-97q-48 31 -119 31q-65 0 -113 -33t-71 -95h194v-67h-210q-3 -24 -3 -50q0 -14 2 -40h211v-67h-196q23 -63 71 -97t110 -34
q74 0 124 33v-98z" />
    <glyph glyph-name="indianrupee" unicode="&#x20b9;" horiz-adv-x="546" 
d="M500 423h-99q-9 -81 -66.5 -128.5t-154.5 -50.5l199 -244h-124l-192 244v82h95q127 0 143 97h-238v80h233q-27 91 -140 91h-93v80h437v-80h-159q41 -35 55 -91h104v-80z" />
    <glyph glyph-name="uni20BA" unicode="&#x20ba;" horiz-adv-x="582" 
d="M213 0h-68v258l-85 -44v83l85 44v86l-85 -44v83l85 44v145h98v-95l104 54v-83l-104 -54v-86l104 54v-83l-104 -54v-222q95 15 153 94.5t58 182.5h95q0 -154 -93 -258.5t-243 -104.5z" />
    <glyph glyph-name="uni20BD" unicode="&#x20bd;" horiz-adv-x="572" 
d="M285 572h-70v-248h72q74 0 112 31.5t38 90.5q0 60 -38 93t-114 33zM417 85h-202v-85h-102v85h-97v76h97v87h-97v76h97v331h176q119 0 183.5 -56.5t64.5 -149.5q0 -94 -64.5 -147.5t-177.5 -53.5h-80v-87h202v-76z" />
    <glyph glyph-name="uni2113" unicode="&#x2113;" horiz-adv-x="506" 
d="M249 470v-163q58 29 89 81t31 113q0 40 -15 65t-44 25q-61 0 -61 -121zM461 27q-52 -32 -126 -32q-86 0 -134.5 49t-48.5 142v10q-28 -2 -43 -2q-39 0 -71 9v85q35 -11 70 -11q16 0 44 2v195q0 93 36 149t114 56q77 0 115.5 -49t38.5 -125q0 -95 -54.5 -174t-152.5 -114
v-8q0 -132 105 -132q55 0 107 32v-82z" />
    <glyph glyph-name="trademark" unicode="&#x2122;" horiz-adv-x="711" 
d="M347 331h-70l28 343h84l51 -142q12 -33 21.5 -62t12.5 -42l3 -12q13 42 41 116l53 142h85l29 -343h-69l-11 143l-3 119q-9 -39 -39 -120l-52 -136h-66l-48 136l-38 120q2 -42 -3 -120zM161 330h-70v282h-87v62h241v-62h-84v-282z" />
    <glyph glyph-name="uni2126" unicode="&#x2126;" horiz-adv-x="783" 
d="M347 0h-296v86h149q-115 84 -115 259q0 154 82 248t223 94q143 0 224 -93.5t81 -248.5q0 -176 -112 -259h150v-86h-296v86q75 15 112.5 85t37.5 174q0 114 -51 180t-146 66q-93 0 -145 -66t-52 -180q0 -101 40 -172t114 -87v-86z" />
    <glyph glyph-name="partialdiff" unicode="&#x2202;" horiz-adv-x="526" 
d="M480 285q0 -135 -60.5 -214.5t-171.5 -79.5q-99 0 -154.5 63.5t-55.5 157.5q0 96 61.5 154.5t144.5 58.5q77 0 129 -49q-26 90 -94.5 169.5t-148.5 128.5h137q86 -59 149.5 -170.5t63.5 -218.5zM252 81q62 0 97 52.5t37 145.5q-50 60 -130 60q-51 0 -84 -35.5t-33 -94.5
q0 -56 30.5 -92t82.5 -36z" />
    <glyph glyph-name="uni2206" unicode="&#x2206;" horiz-adv-x="636" 
d="M32 0v76l220 598h136l216 -598v-76h-572zM203 264l-61 -179h352l-60 179l-115 333q-25 -71 -116 -333z" />
    <glyph glyph-name="product" unicode="&#x220f;" horiz-adv-x="609" 
d="M196 9q0 -97 -42 -145.5t-120 -48.5q-34 0 -66 12v92q26 -12 52 -12q74 0 74 96v671h444v-854h-103v764h-239v-575z" />
    <glyph glyph-name="summation" unicode="&#x2211;" horiz-adv-x="454" 
d="M141 -114h342v-86h-453v86l170 358l-170 344v86h453v-86h-341l167 -344z" />
    <glyph glyph-name="minus" unicode="&#x2212;" horiz-adv-x="564" 
d="M510 296h-457v88h457v-88z" />
    <glyph glyph-name="uni2215" unicode="&#x2215;" horiz-adv-x="396" 
d="M34 0h-82l444 712h82z" />
    <glyph glyph-name="uni2219" unicode="&#x2219;" horiz-adv-x="263" 
d="M199 337q0 -28 -19.5 -48t-47.5 -20t-48 19.5t-20 48.5t20 48.5t48 19.5t47.5 -20t19.5 -48z" />
    <glyph glyph-name="radical" unicode="&#x221a;" horiz-adv-x="775" 
d="M484 -196h-128l-200 548h-125l19 81h188l100 -283q66 -190 83 -258q0 2 7 33.5t24 96.5t37 132l229 746h103z" />
    <glyph glyph-name="infinity" unicode="&#x221e;" horiz-adv-x="833" 
d="M416 286q-42 -51 -87 -80.5t-106 -29.5q-84 0 -129.5 44.5t-45.5 121.5q0 76 49 123t131 47q59 0 102.5 -28.5t86.5 -80.5q87 111 193 111q83 0 129.5 -45t46.5 -120t-49.5 -123t-130.5 -48q-60 0 -103.5 28t-86.5 80zM137 346q0 -39 25 -65t68 -26q66 0 130 91
q-70 87 -130 87q-44 0 -68.5 -24t-24.5 -63zM473 343q23 -28 38.5 -43.5t40.5 -29t51 -13.5q44 0 68 24t24 65q0 38 -24.5 63.5t-67.5 25.5q-66 0 -130 -92z" />
    <glyph glyph-name="integral" unicode="&#x222b;" horiz-adv-x="318" 
d="M209 -6q0 -79 -42.5 -124.5t-119.5 -45.5q-29 0 -56 8v86q23 -10 47 -10q73 0 73 87v542q0 79 42.5 124t119.5 45q32 0 57 -7v-86q-24 9 -48 9q-73 0 -73 -86v-542z" />
    <glyph glyph-name="approxequal" unicode="&#x2248;" horiz-adv-x="609" 
d="M213 431q-61 0 -108 -64l-63 53q68 94 154 94q54 0 119 -32t93 -32q52 0 91 57l67 -50q-59 -91 -146 -91q-48 0 -113.5 32.5t-93.5 32.5zM213 230q-61 0 -108 -64l-63 53q68 94 154 94q54 0 119 -32t93 -32q52 0 91 57l67 -50q-60 -92 -146 -92q-48 0 -113.5 33t-93.5 33
z" />
    <glyph glyph-name="notequal" unicode="&#x2260;" horiz-adv-x="564" 
d="M510 193h-264l-39 -85h-61l38 85h-131v83h169l58 129h-227v82h265l38 85h62l-39 -85h131v-82h-168l-59 -129h227v-83z" />
    <glyph glyph-name="lessequal" unicode="&#x2264;" horiz-adv-x="559" 
d="M505 480l-411 -72l411 -72v-89l-457 94v134l457 94v-89zM505 109h-457v82h457v-82z" />
    <glyph glyph-name="greaterequal" unicode="&#x2265;" horiz-adv-x="559" 
d="M510 475v-134l-457 -94v89l411 72l-411 72v89zM510 109h-457v82h457v-82z" />
    <glyph glyph-name="lozenge" unicode="&#x25ca;" horiz-adv-x="575" 
d="M151 337l38 -72l98 -185q30 62 100 185l39 72l-39 72q-31 55 -56 101t-35 65l-9 19q-30 -62 -98 -185zM342 0h-112l-185 337l185 337h112l188 -337z" />
    <glyph glyph-name="uni25CC" unicode="&#x25cc;" 
d="M286 90q0 -20 -12.5 -33t-31.5 -13t-32 13t-13 33q0 18 13 31t32 13t31.5 -13t12.5 -31zM184 165q0 -19 -12.5 -31.5t-31.5 -12.5q-20 0 -32 12.5t-12 31.5t12.5 31.5t31.5 12.5t31.5 -12.5t12.5 -31.5zM132 281q0 -19 -12.5 -31t-31.5 -12t-31.5 12t-12.5 31t12.5 32
t31.5 13t31.5 -12.5t12.5 -32.5zM413 74q0 -19 -12.5 -31.5t-32.5 -12.5t-32 12t-12 32t12 32t32 12t32.5 -12.5t12.5 -31.5zM147 407q0 -19 -13 -31.5t-31 -12.5q-20 0 -33 12.5t-13 31.5t13 31.5t33 12.5q18 0 31 -12.5t13 -31.5zM534 127q0 -19 -13 -31.5t-32 -12.5
t-31.5 12.5t-12.5 31.5t12.5 31.5t31.5 12.5t32 -12.5t13 -31.5zM227 517q0 -20 -12.5 -32.5t-31.5 -12.5t-31.5 12.5t-12.5 32.5q0 19 12.5 31.5t31.5 12.5t31.5 -12.5t12.5 -31.5zM606 225q0 -19 -12.5 -31.5t-30.5 -12.5q-19 0 -32 12.5t-13 31.5t13 32t32 13
q18 0 30.5 -13t12.5 -32zM345 560q0 -20 -12.5 -32t-31.5 -12t-31.5 12t-12.5 32t12.5 32t31.5 12t31.5 -12t12.5 -32zM616 359q0 -19 -12.5 -31.5t-31.5 -12.5q-20 0 -32 12.5t-12 31.5t12 31.5t32 12.5q19 0 31.5 -12.5t12.5 -31.5zM471 545q0 -18 -12.5 -31t-30.5 -13
q-19 0 -32 13t-13 31q0 19 12.5 32t32.5 13q19 0 31 -12.5t12 -32.5zM566 477q0 -19 -12.5 -31.5t-31.5 -12.5t-31.5 12.5t-12.5 31.5t12.5 32t31.5 13t31.5 -12.5t12.5 -32.5z" />
    <glyph glyph-name="fi" unicode="&#xfb01;" horiz-adv-x="532" 
d="M209 0h-98v431h-81v76h81v39q0 80 43 125t122 45q81 0 153 -37v-85q-81 38 -144 38q-76 0 -76 -87v-38h261v-507h-98v431h-163v-431z" />
    <glyph glyph-name="fl" unicode="&#xfb02;" horiz-adv-x="534" 
d="M316 431h-107v-431h-98v431h-81v76h81v39q0 80 43 125t121 45q91 0 190 -53v-663h-98v618q-40 14 -77 14q-81 0 -81 -87v-38h107v-76z" />
    <glyph glyph-name="bnK_SSA" horiz-adv-x="1053" 
d="M566 391q23 0 58 5v174h-137v-108q0 -71 79 -71zM986 246q0 -77 -45 -123t-118 -46q-20 0 -27 1v86h10q87 0 87 82q0 88 -122 88q-28 0 -51 -4v-330h-96q-69 59 -160 98t-180 39q-49 0 -76.5 -25t-27.5 -71v-15h-94q-3 18 -3 33q0 54 29 93.5t82 56.5q18 26 18 63
q0 68 -118 68h-43v83h33q110 0 110 91q0 29 -15 56h-199v80h1093v-80h-353v-159q36 4 53 4q99 0 156 -44.5t57 -124.5zM307 271q0 -25 -10 -52q88 -4 177 -37t150 -79v212q-32 -6 -60 -6q-80 0 -126 41t-46 111v109h-116q14 -28 14 -60q0 -98 -100 -122q117 -20 117 -117z
" />
    <glyph glyph-name="bnJ_NYA" horiz-adv-x="956" 
d="M427 310q54 0 109 21q-59 25 -89.5 87.5t-33.5 141.5q-41 -31 -65.5 -72.5t-24.5 -85.5q0 -92 104 -92zM631 262q0 -35 -8 -72q11 -38 42 -62t69 -24q34 0 53.5 16t19.5 45q0 66 -88 66h-25v79h25q88 0 88 67q0 28 -21 44t-56 16q-42 0 -71 -26t-38 -68q10 -39 10 -81z
M897 159q0 -59 -44.5 -94.5t-111.5 -35.5q-100 0 -152 78q-71 -111 -225 -111q-145 0 -232 96t-87 248q0 15 2 47h94q-1 -14 -1 -41q0 -118 60.5 -192.5t163.5 -74.5q85 0 129 49t46 128q-58 -28 -131 -28q-82 0 -132 46t-50 123q0 103 72 173h-318v80h996v-80h-484
q7 -130 76 -180q16 53 63 87.5t111 34.5q70 0 112.5 -37.5t42.5 -92.5q0 -83 -84 -112q36 -11 60 -38.5t24 -72.5z" />
    <glyph glyph-name="bnNull" horiz-adv-x="0" 
 />
    <glyph glyph-name="bnReph" horiz-adv-x="0" 
d="M-173 700l150 156h92v-4l-147 -156h-95v4z" />
    <glyph glyph-name="bnRAc2" horiz-adv-x="0" 
d="M-233 -37q-27 0 -95 -26.5t-127 -26.5q-80 0 -127.5 44.5t-47.5 122.5q0 21 3 41h93q-1 -10 -1 -32q0 -93 87 -93q42 0 105 26t100 26q45 0 62 -22v163h96v-280h-96v14q0 19 -13 31t-39 12z" />
    <glyph glyph-name="bnYAc2" horiz-adv-x="300" 
d="M177 0h-102q57 92 57 163q0 41 -32 130t-32 131q0 88 69 146h101q-31 -23 -52.5 -61t-21.5 -83q0 -42 32 -132t32 -131q0 -82 -51 -163zM321 570h-341v80h341v-80z" />
    <glyph glyph-name="bnBAc2" horiz-adv-x="0" 
d="M-86 -249h-91l-256 99v98q126 96 256 136v59h91v-392zM-177 -164v162q-90 -33 -168 -93z" />
    <glyph glyph-name="bnK" horiz-adv-x="755" 
d="M573 -187h-92l-132 136v4h95l129 -136v-4zM716 275q0 -90 -49 -139.5t-127 -49.5q-14 0 -20 1v88h12q90 0 90 100q0 64 -48.5 104t-128.5 43v-422h-94l-310 230v101q168 148 310 173v66h-371v80h795v-80h-330v-64q114 -2 192.5 -65.5t78.5 -165.5zM351 106v312
q-105 -28 -227 -138z" />
    <glyph glyph-name="bnKH" horiz-adv-x="641" 
d="M685 -187h-92l-132 136v4h95l129 -136v-4zM557 0h-93v1l-1 -1l-433 240v83h81q80 1 124.5 45t44.5 118v8q-38 -76 -123 -76q-73 0 -113.5 43t-40.5 111q0 43 14 78h93q-11 -35 -11 -69q0 -39 20.5 -61t55.5 -22q39 0 59.5 27t20.5 75q0 33 -2 50h90q27 -92 27 -164
q0 -90 -51.5 -151.5t-139.5 -77.5l285 -161v637h93v-83h105v-80h-105v-570z" />
    <glyph glyph-name="bnG" horiz-adv-x="587" 
d="M631 -187h-92l-132 136v4h95l129 -136v-4zM502 0h-96v416q0 75 -33 118t-102 43q-60 0 -92.5 -31.5t-37.5 -83.5h4q81 0 130 -41t50 -114q-1 -77 -54.5 -120t-143.5 -43q-41 0 -83 9v79q28 -4 83 -4q102 0 102 79q0 77 -102 77h-80v57q0 90 55.5 154.5t152.5 64.5
q105 0 151 -70v143h96v-83h105v-80h-105v-570z" />
    <glyph glyph-name="bnGH" horiz-adv-x="571" 
d="M632 -187h-93l-131 136v4h94l130 -136v-4zM317 314l-155 -104l240 -113v473h-153q-52 0 -81 -24.5t-29 -68.5q0 -41 28.5 -60.5t74.5 -19.5q41 0 75 8v-91zM603 570h-105v-570h-96l-341 156l1 1v91q71 48 137 90q-68 7 -113 40t-45 93q0 63 52 99h-113v80h623v-80z" />
    <glyph glyph-name="bnNG" horiz-adv-x="668" 
d="M532 -187h-93l-131 136v4h94l130 -136v-4zM385 451q85 0 85 68q0 28 -20.5 45.5t-53.5 17.5q-28 0 -43 -17t-15 -46v-63q25 -5 47 -5zM619 253q0 -111 -71 -181t-191 -70q-136 0 -222 92.5t-86 243.5q0 20 2 48h94q-1 -13 -1 -47q0 -120 59.5 -187t154.5 -67q83 0 128 46
t45 119v14q-64 -42 -139 -42q-65 0 -105 37t-40 105v44q-105 51 -152 162h-115v80h175q25 -97 94 -151l1 20q0 62 38 101.5t107 39.5q71 0 116 -40.5t45 -102.5q0 -65 -47 -103t-123 -38q-27 0 -48 4v-14q0 -60 61 -60q78 0 192 76q28 -58 28 -129z" />
    <glyph glyph-name="bnC" horiz-adv-x="533" 
d="M418 -187h-92l-132 136v4h95l129 -136v-4zM486 265q0 -101 -70 -187t-173 -86q-71 0 -114.5 43.5t-43.5 119.5v415h-105v80h573v-80h-373v-70l123 -42q94 -30 138.5 -72.5t44.5 -120.5zM244 75q60 0 103 61t43 129q0 41 -23.5 62t-81.5 42l-105 36v-250q0 -80 64 -80z
" />
    <glyph glyph-name="bnCH" horiz-adv-x="596" 
d="M376 -159h-92l-131 136v4h94l129 -136v-4zM517 -37h-140l-276 143v74q40 -2 59 -2q131 0 212 34t81 110q0 35 -25 54t-74 32q2 -16 2 -24q0 -58 -47.5 -104.5t-111.5 -46.5q-57 0 -90 30.5t-33 86.5v220h-94v80h636v-80h-455v-42l65 -13q2 -1 5 -1t4 -1l128 -29
q92 -21 135.5 -59t43.5 -105q0 -65 -41.5 -112t-104 -70t-144.5 -30q75 -32 117 -54l148 -78v-13zM197 305q30 0 53.5 27t23.5 57q0 22 -12.5 33.5t-44.5 18.5l-56 13v-109q0 -40 36 -40z" />
    <glyph glyph-name="bnJ" horiz-adv-x="847" 
d="M913 -187h-92l-132 136v4h95l129 -136v-4zM781 0h-93q-21 92 -21 178q0 96 25 183q-89 24 -162 74t-105 119q-85 -65 -85 -148q0 -79 93 -79q68 0 135 30q18 -47 18 -103q0 -110 -65.5 -181.5t-183.5 -71.5q-132 0 -209 93.5t-77 245.5q0 31 1 47h95q-1 -14 -1 -41
q0 -119 50 -190t141 -71q78 0 119 45t41 123v6q-44 -14 -90 -14q-75 0 -120 42t-45 114q0 98 76 169h-338v80h887v-80h-349q72 -111 279 -154q-37 -111 -37 -237q0 -80 21 -179z" />
    <glyph glyph-name="bnJH" horiz-adv-x="790" 
d="M577 -187h-92l-131 136v4h94l129 -136v-4zM447 0h-96l-310 230v101q146 129 310 172v67h-371v80h467v-342h54q74 0 107 -47v476h96v-87h104v-80h-104v-491h-96v11q0 138 -113 138h-48v-228zM351 107v306q-121 -44 -226 -132z" />
    <glyph glyph-name="bnNY" horiz-adv-x="895" 
d="M668 -187h-92l-132 136v4h95l129 -136v-4zM138 419q0 97 69 169t172 72q131 0 156 -115q50 65 138 65q76 0 122 -43t46 -105q0 -49 -27.5 -82t-66.5 -46q39 -13 66.5 -45.5t27.5 -81.5q0 -62 -46 -105.5t-120 -43.5q-85 0 -135 58v-116h-95v6q0 43 -39 43
q-18 0 -84.5 -19t-109.5 -19q-75 0 -123 44.5t-48 126.5q0 30 5 57h93q-3 -39 -3 -48q0 -94 85 -94q30 0 91 17t86 17q29 0 47 -18v379q0 44 -16 64t-50 20q-55 0 -100.5 -47.5t-45.5 -109.5q0 -44 23.5 -61.5t68.5 -17.5q17 0 46 3v-83q-33 -6 -59 -6q-84 0 -129 42
t-45 123zM665 140q38 0 61 20.5t23 54.5q0 77 -97 77h-35v84h35q48 0 72.5 21t24.5 57q0 35 -24 54.5t-64 19.5q-54 0 -87.5 -36t-33.5 -97v-122q0 -61 35 -97t90 -36z" />
    <glyph glyph-name="bnTT" horiz-adv-x="549" 
d="M423 -187h-92l-132 136v4h95l129 -136v-4zM499 267q0 -106 -67.5 -186t-179.5 -80q-71 0 -119 43t-48 117v409h-105v80h415q4 17 4 44q0 66 -60 66q-25 0 -82 -11.5t-92 -11.5q-63 0 -103 21v75q42 -16 96 -16q30 0 91.5 12.5t96.5 12.5q71 0 106 -38t35 -99
q0 -23 -5 -55h87v-80h-389v-409q0 -37 20 -56.5t52 -19.5q67 0 109 55.5t42 126.5q0 100 -108 100q-22 0 -41 -4v85q24 4 53 4q91 0 141.5 -50.5t50.5 -134.5z" />
    <glyph glyph-name="bnTTH" horiz-adv-x="584" 
d="M463 -187h-92l-132 136v4h95l129 -136v-4zM523 260q0 -108 -61 -176t-169 -68q-110 0 -173.5 73.5t-63.5 193.5q0 51 7 90h84q108 0 108 107v90h-275v80h250q-30 51 -30 95q0 56 37.5 89.5t102.5 33.5q15 0 51 -4v-83q-16 2 -32 2q-66 0 -66 -51q0 -33 32 -82h279v-80
h-220l38 -51q101 -137 101 -259zM293 100q68 0 102 44t34 116q0 112 -80 228l-16 21q1 -13 1 -43q0 -81 -44 -126t-124 -45h-15q-1 -9 -1 -24q0 -78 38 -124.5t105 -46.5z" />
    <glyph glyph-name="bnDD" 
d="M507 -187h-92l-131 136v4h94l129 -136v-4zM613 286q0 -119 -71 -197t-196 -78q-136 0 -215.5 91.5t-79.5 246.5q0 37 5 84h95q-4 -36 -4 -81q0 -119 52 -188t147 -69q86 0 131 52.5t45 142.5q0 16 -1 25q-62 -35 -122 -35q-66 0 -103.5 38t-37.5 107v145h-278v80h700v-80
h-326v-144q0 -62 58 -62q61 0 176 68q25 -68 25 -146z" />
    <glyph glyph-name="bnDDH" horiz-adv-x="549" 
d="M437 -192h-92l-131 136v4h94l129 -136v-4zM499 267q0 -106 -67.5 -186t-179.5 -80q-71 0 -119 43t-48 117v409h-105v80h589v-80h-389v-409q0 -37 20 -56.5t52 -19.5q67 0 109 55.5t42 126.5q0 100 -108 100q-22 0 -41 -4v85q24 4 53 4q91 0 141.5 -50.5t50.5 -134.5z" />
    <glyph glyph-name="bnNN" horiz-adv-x="575" 
d="M621 -187h-92l-132 136v4h95l129 -136v-4zM595 570h-105v-570h-95v422q0 64 -35.5 110t-105.5 46q-50 0 -79.5 -28.5t-29.5 -77.5q0 -51 28 -76.5t76 -25.5q32 0 58 5v-83q-31 -8 -67 -8q-87 0 -139.5 50t-52.5 138q0 82 53.5 135t138.5 53q105 0 155 -73v146h95v-83h105
v-80z" />
    <glyph glyph-name="bnT" horiz-adv-x="668" 
d="M520 -162h-93l-131 136v4h94l130 -136v-4zM612 312q0 -116 -70.5 -196t-200.5 -80q-135 0 -211.5 93t-76.5 247q0 46 6 89h92q-5 -36 -5 -89q0 -112 50 -184t145 -72q85 0 130 53.5t45 138.5q0 52 -19 85.5t-59 33.5q-33 0 -51 -23.5t-18 -61.5t10 -75h-89q-15 38 -15 80
q0 68 42.5 114t118.5 46q79 0 127.5 -58.5t48.5 -140.5zM688 570h-708v80h708v-80z" />
    <glyph glyph-name="bnTH" horiz-adv-x="651" 
d="M696 -187h-92l-131 136v4h94l129 -136v-4zM566 0h-93v1l-1 -1l-418 245v84h87q150 3 150 153q0 45 -21 72t-61 27q-36 0 -56.5 -23t-20.5 -60q0 -25 11 -69h-89q-14 35 -14 78q0 68 45 111t121 43q82 0 130.5 -52t48.5 -127q0 -94 -51 -150.5t-138 -68.5l277 -167v637h93
v-83h105v-80h-105v-570z" />
    <glyph glyph-name="bnD" horiz-adv-x="532" 
d="M588 -187h-92l-132 136v4h95l129 -136v-4zM159 148h-94v422h-85v80h572v-80h-393v-291q48 55 108.5 104.5t96.5 66.5h94v-450h-94v349q-48 -35 -106.5 -92t-98.5 -109z" />
    <glyph glyph-name="bnDH" horiz-adv-x="577" 
d="M622 -187h-93l-131 136v4h94l130 -136v-4zM597 570h-105v-570h-96l-336 163l1 1v94q44 30 133 84q-63 7 -105.5 46.5t-42.5 104.5q0 76 51 121.5t138 45.5q29 0 58 -6v-79q-15 3 -51 3q-44 0 -71 -23t-27 -65q0 -43 27 -65.5t73 -22.5q48 0 87 18q31 18 65 36v194h201
v-80zM396 94v268l-239 -148z" />
    <glyph glyph-name="bnN" horiz-adv-x="573" 
d="M615 -187h-92l-131 136v4h94l129 -136v-4zM492 0h-96v3q-6 56 -17.5 106.5t-31.5 96.5t-51.5 73.5t-71.5 27.5q-45 0 -68.5 -28t-23.5 -75q0 -20 4 -48h-93q-6 25 -6 56q0 77 47 129t129 52q126 0 183 -134v311h-416v80h613v-80h-101v-570z" />
    <glyph glyph-name="bnP" horiz-adv-x="590" 
d="M640 -187h-92l-131 136v4h94l129 -136v-4zM60 253l97 57q-33 65 -109 92v46q0 83 55 147.5t153 64.5q108 0 154 -75v148h95v-83h105v-80h-105v-570h-95v361l-350 -210v102zM141 447q58 -28 90 -93l175 104q-9 54 -43.5 86.5t-92.5 32.5q-60 0 -94.5 -36.5t-34.5 -93.5z
" />
    <glyph glyph-name="bnPH" horiz-adv-x="799" 
d="M617 -187h-92l-131 136v4h94l129 -136v-4zM759 284q0 -90 -49 -139.5t-127 -49.5q-13 0 -20 1v88h12q91 0 91 100q0 64 -49 99.5t-129 35.5v-419h-95l-341 162v100l171 123l-169 114v71h-74v80h839v-80h-706l194 -139v-92l-160 -119l246 -122v405h95q117 0 194 -59.5
t77 -159.5z" />
    <glyph glyph-name="bnB" horiz-adv-x="529" 
d="M573 -187h-92l-132 136v4h95l129 -136v-4zM549 570h-104v-570h-94l-310 230v101q146 129 310 172v67h-371v80h569v-80zM351 107v306q-121 -44 -226 -132z" />
    <glyph glyph-name="bnBH" horiz-adv-x="652" 
d="M517 -196h-92l-131 136v4h94l129 -136v-4zM605 251q0 -107 -69 -175.5t-188 -68.5q-134 0 -216 92.5t-82 237.5q0 39 2 58h93q-2 -38 -2 -57q0 -115 54 -182t151 -67q81 0 124.5 42t45.5 113q-52 -21 -112 -21q-74 0 -119 39.5t-45 107.5t46.5 108t120.5 40q33 0 73 -9
v-78q-30 4 -58 4q-39 0 -63 -16.5t-24 -48.5q0 -34 24 -50.5t63 -16.5q80 0 163 53q18 -53 18 -105zM677 570h-697v80h697v-80z" />
    <glyph glyph-name="bnM" horiz-adv-x="612" 
d="M652 -187h-93l-131 136v4h94l130 -136v-4zM641 570h-118v-570h-96v95q0 83 -41.5 130.5t-117.5 47.5q-52 0 -82.5 -25t-30.5 -71q0 -47 29 -70.5t74 -23.5q19 0 51 4v-81q-30 -6 -65 -6q-82 0 -134 46t-52 131q0 66 36.5 111t99.5 61q-14 147 -149 147v74h-65v80h661v-80
zM427 274v296h-287q66 -24 102.5 -81.5t43.5 -132.5q99 -11 141 -82z" />
    <glyph glyph-name="bnY" horiz-adv-x="572" 
d="M617 -187h-92l-131 136v4h94l129 -136v-4zM307 431v-92l-160 -119l246 -122v472h-280zM593 570h-105v-570h-95l-341 162v100l171 123l-169 114v71h-74v80h613v-80z" />
    <glyph glyph-name="bnR" horiz-adv-x="529" 
d="M573 -187h-92l-132 136v4h95l129 -136v-4zM549 570h-104v-570h-94l-310 230v101q146 129 310 172v67h-371v80h569v-80zM153 27q0 -25 -17.5 -42t-42.5 -17t-42 17t-17 42t17 42.5t42 17.5t42.5 -17.5t17.5 -42.5zM351 107v306q-121 -44 -226 -132z" />
    <glyph glyph-name="bnL" horiz-adv-x="734" 
d="M782 -187h-92l-131 136v4h94l129 -136v-4zM649 0h-96v301q0 37 -16 64.5t-55 27.5q-77 0 -77 -113v-19h-97v23q0 108 -83 108q-39 0 -61.5 -27t-22.5 -72q0 -52 28.5 -78.5t73.5 -26.5q29 0 62 6v-82q-32 -7 -71 -7q-85 0 -136.5 50.5t-51.5 137.5q0 78 45.5 129.5
t125.5 51.5q56 0 92.5 -26t45.5 -68q10 43 40.5 69.5t75.5 26.5q55 0 82 -40v134h-573v80h774v-80h-105v-570z" />
    <glyph glyph-name="bnSH" horiz-adv-x="682" 
d="M730 -187h-93l-131 136v4h94l130 -136v-4zM597 0h-95v438q0 60 -28 100t-90 40q-47 0 -74.5 -29t-27.5 -78q0 -53 27 -79.5t73 -26.5q14 0 38 2v-84q-21 -4 -48 -4q-94 0 -139 65q-44 -65 -136 -65q-26 0 -59 6v84q24 -4 49 -4q101 0 101 106q0 48 -29.5 73.5t-80.5 25.5
h-98v80h107q96 0 145 -64q48 74 143 74q86 0 127 -54v127h95v-83h105v-80h-105v-570z" />
    <glyph glyph-name="bnSS" horiz-adv-x="572" 
d="M617 -187h-92l-131 136v4h94l129 -136v-4zM307 435v-1l86 -58v194h-282zM593 570h-105v-570h-95l-341 162v100l169 125l-32 20l1 2l-136 90v71h-74v80h613v-80zM393 98v180l-94 60l-153 -118z" />
    <glyph glyph-name="bnS" horiz-adv-x="590" 
d="M632 -187h-93l-131 136v4h94l130 -136v-4zM505 0h-96v201q0 40 -16 66.5t-50 26.5q-23 0 -43 -17t-36.5 -41.5t-35.5 -49.5t-50 -42t-70 -17q-34 0 -71 14v81q33 -10 58 -10q21 0 39 11.5t29 25.5t28 38.5t27 36.5q-10 80 -56 126t-120 46v74h-62v80h630v-80h-105v-570z
M325 378q57 0 84 -39v231h-272q64 -23 105.5 -75.5t54.5 -119.5q13 3 28 3z" />
    <glyph glyph-name="bnH" horiz-adv-x="452" 
d="M362 -164h-93l-131 136v4h94l130 -136v-4zM398 -10h-130l-197 140v80h90q72 1 108.5 34.5t36.5 93.5q0 44 -22.5 68.5t-61.5 24.5q-36 0 -57.5 -23t-21.5 -59q0 -30 8 -60h-89q-11 30 -11 67q0 68 46 111.5t123 43.5q81 0 130.5 -50t49.5 -123q0 -84 -54.5 -136.5
t-147.5 -60.5l200 -141v-10zM476 570h-496v80h496v-80z" />
    <glyph glyph-name="bnK_SS" horiz-adv-x="1053" 
d="M566 391q23 0 58 5v174h-137v-108q0 -71 79 -71zM986 246q0 -77 -45 -123t-118 -46q-20 0 -27 1v86h10q87 0 87 82q0 88 -122 88q-28 0 -51 -4v-330h-96q-69 59 -160 98t-180 39q-49 0 -76.5 -25t-27.5 -71v-15h-94q-3 18 -3 33q0 54 29 93.5t82 56.5q18 26 18 63
q0 68 -118 68h-43v83h33q110 0 110 91q0 29 -15 56h-199v80h1093v-80h-353v-159q36 4 53 4q99 0 156 -44.5t57 -124.5zM307 271q0 -25 -10 -52q88 -4 177 -37t150 -79v212q-32 -6 -60 -6q-80 0 -126 41t-46 111v109h-116q14 -28 14 -60q0 -98 -100 -122q117 -20 117 -117z
M622 -50h94l130 -137v-4h-93l-131 137v4z" />
    <glyph glyph-name="bnJ_NY" horiz-adv-x="956" 
d="M427 310q54 0 109 21q-59 25 -89.5 87.5t-33.5 141.5q-41 -31 -65.5 -72.5t-24.5 -85.5q0 -92 104 -92zM631 262q0 -35 -8 -72q11 -38 42 -62t69 -24q34 0 53.5 16t19.5 45q0 66 -88 66h-25v79h25q88 0 88 67q0 28 -21 44t-56 16q-42 0 -71 -26t-38 -68q10 -39 10 -81z
M897 159q0 -59 -44.5 -94.5t-111.5 -35.5q-100 0 -152 78q-71 -111 -225 -111q-145 0 -232 96t-87 248q0 15 2 47h94q-1 -14 -1 -41q0 -118 60.5 -192.5t163.5 -74.5q85 0 129 49t46 128q-58 -28 -131 -28q-82 0 -132 46t-50 123q0 103 72 173h-318v80h996v-80h-484
q7 -130 76 -180q16 53 63 87.5t111 34.5q70 0 112.5 -37.5t42.5 -92.5q0 -83 -84 -112q36 -11 60 -38.5t24 -72.5zM328 -50h94l130 -137v-4h-93l-131 137v4z" />
    <glyph glyph-name="asR" horiz-adv-x="529" 
d="M573 -187h-92l-132 136v4h95l129 -136v-4zM37 230v101q146 129 316 172v67h-373v80h569v-80h-104v-570h-92zM353 270v148q-67 -23 -123 -55zM353 103v92l-179 132q-30 -20 -59 -46z" />
    <glyph glyph-name="asW" horiz-adv-x="529" 
d="M573 -192h-92l-132 136v4h95l129 -136v-4zM230 11v-87l-147 104v94zM549 570h-104v-570h-94l-310 230v101q146 129 310 172v67h-371v80h569v-80zM351 107v306q-121 -44 -226 -132z" />
    <glyph glyph-name="bnDDx" 
d="M514 -371h-92l-132 136v4h95l129 -136v-4zM613 286q0 -119 -71 -197t-196 -78q-136 0 -215.5 91.5t-79.5 246.5q0 37 5 84h95q-4 -36 -4 -81q0 -119 52 -188t147 -69q86 0 131 52.5t45 142.5q0 16 -1 25q-62 -35 -122 -35q-66 0 -103.5 38t-37.5 107v145h-278v80h700v-80
h-326v-144q0 -62 58 -62q61 0 176 68q25 -68 25 -146zM392 -113q0 -25 -17.5 -42t-42.5 -17q-26 0 -42.5 17t-16.5 42t17 42.5t42 17.5t42.5 -17.5t17.5 -42.5z" />
    <glyph glyph-name="bnDDHx" horiz-adv-x="549" 
d="M443 -368h-92l-131 136v4h94l129 -136v-4zM499 267q0 -106 -67.5 -186t-179.5 -80q-71 0 -119 43t-48 117v409h-105v80h589v-80h-389v-409q0 -37 20 -56.5t52 -19.5q67 0 109 55.5t42 126.5q0 100 -108 100q-22 0 -41 -4v85q24 4 53 4q91 0 141.5 -50.5t50.5 -134.5z
M321 -123q0 -25 -17.5 -42t-42.5 -17t-42 17t-17 42t17 42.5t42 17.5t42.5 -17.5t17.5 -42.5z" />
    <glyph glyph-name="bnYx" horiz-adv-x="572" 
d="M608 -192h-92l-131 136v4h94l129 -136v-4zM307 431v-92l-160 -119l246 -122v472h-280zM593 570h-105v-570h-95l-341 162v100l171 123l-169 114v71h-74v80h613v-80zM214 -42q0 -25 -17.5 -42t-42.5 -17q-26 0 -42.5 16.5t-16.5 42.5q0 25 17 42.5t42 17.5t42.5 -17.5
t17.5 -42.5z" />
    <glyph glyph-name="bnK_KA" horiz-adv-x="755" 
d="M445 -136h-94l-283 135v98q59 51 119 83l-146 75v100q140 125 310 155v60h-371v80h795v-80h-330v-57q116 -2 193.5 -60t77.5 -159q0 -55 -18 -91l-85 39q9 21 9 52q0 63 -47.5 98t-129.5 37v-188q103 -3 172.5 -56t69.5 -137q0 -74 -43 -114t-115 -40q-13 0 -19 1v80h12
q76 0 76 75q0 51 -43 80t-110 31v-297zM290 222q34 10 61 14v188q-118 -26 -222 -116zM351 -47v202q-105 -24 -202 -102z" />
    <glyph glyph-name="bnNG_KA" horiz-adv-x="748" 
d="M418 -64h-93l-271 132v98q136 119 271 148v2q0 53 -25.5 86.5t-72.5 33.5q-36 0 -55.5 -23t-19.5 -60q0 -28 7 -58h-86q-10 32 -10 67q0 68 43.5 111t119.5 43q86 0 139 -58.5t53 -136.5q106 -1 177.5 -52t71.5 -137q0 -79 -44.5 -121t-118.5 -42q-13 0 -19 1v86h12
q76 0 76 77q0 52 -42.5 78.5t-112.5 28.5v-304zM701 517q0 -63 -37.5 -101.5t-104.5 -38.5q-81 0 -122.5 55.5t-42.5 137.5h-414v80h788v-80h-73q6 -30 6 -53zM559 456q29 0 44.5 17t15.5 47q0 22 -6 50h-133q2 -114 79 -114zM325 28v201q-94 -26 -186 -107z" />
    <glyph glyph-name="bnL_KA" horiz-adv-x="938" 
d="M275 142q-24 -3 -49 -3q-83 0 -132.5 47t-49.5 134q0 75 45.5 127t124.5 52q56 0 92 -25.5t45 -68.5q10 43 40 69.5t76 26.5q55 0 82 -39v108h-569v80h974v-80h-315v-312q104 -2 173 -55t69 -137q0 -74 -42.5 -114.5t-114.5 -40.5q-13 0 -19 1v80h11q76 0 76 76
q0 51 -43.5 79t-109.5 30v-292h-90l-269 130v98q134 118 269 140v73q0 37 -16.5 65t-55.5 28q-77 0 -77 -113v-13h-95v17q0 107 -83 107q-38 0 -61 -26.5t-23 -71.5q0 -48 26.5 -72.5t69.5 -24.5q15 0 41 2v-82zM549 -25v197q-97 -23 -189 -101z" />
    <glyph glyph-name="bnSS_KA" horiz-adv-x="703" 
d="M540 453q0 -77 -47 -126q70 -19 111.5 -64t41.5 -108q0 -73 -42 -111.5t-112 -38.5q-13 0 -20 1v80h12q74 0 74 71q0 48 -42 73.5t-106 27.5v-280h-91l-264 128v98q67 58 135 89q-89 52 -89 160q0 69 43 117h-164v80h743v-80h-226q43 -48 43 -117zM320 570q-43 0 -74 -20
l193 -140q7 18 7 43q0 54 -35.5 85.5t-90.5 31.5zM195 453q0 -55 35 -87t90 -32q51 0 84 27l-200 139q-9 -21 -9 -47zM319 68v183q-98 -21 -181 -91z" />
    <glyph glyph-name="bnS_KA" horiz-adv-x="707" 
d="M392 425q72 0 72 87q0 26 -5 58h-157q2 -145 90 -145zM58 126v97q136 117 266 140q-49 22 -70 73q-13 -36 -47 -62t-86 -26q-47 0 -87 21v82q44 -18 80 -18q54 0 74.5 32.5t20.5 104.5h-229v80h747v-80h-176q7 -37 7 -66q0 -110 -93 -143q85 -14 139.5 -64t54.5 -122
q0 -73 -43 -113t-115 -40q-13 0 -19 1v80h11q77 0 77 74q0 50 -44 78.5t-109 30.5v-291h-91zM326 86v195q-94 -23 -185 -101z" />
    <glyph glyph-name="bnNG_KHA" horiz-adv-x="709" 
d="M285 522q49 0 49 38q0 16 -10.5 27t-28.5 11q-35 0 -35 -44v-31q8 -1 25 -1zM634 -201h-88v1l-1 -1l-379 85v73h67q146 2 146 120q0 11 -1 17q-27 -82 -117 -82q-62 0 -96.5 38t-34.5 97q0 12 2 28h89q-2 -12 -2 -18q0 -72 62 -72q65 0 65 88q0 18 -3 39q-35 -11 -75 -11
q-103 0 -164 62.5t-61 171.5q0 13 2 33h78q-1 -9 -1 -33q0 -77 40 -118t107 -41q104 0 111 88q-39 -22 -87 -22q-53 0 -84 30t-31 81v27q-65 29 -99 90h-99v80h149q15 -61 52 -94q1 46 30.5 76.5t80.5 30.5q53 0 85.5 -30.5t32.5 -74.5q0 -46 -34 -74t-90 -28q-17 0 -26 1
v-4q0 -40 39 -40q54 0 139 52q21 -39 21 -89q0 -74 -47 -123q47 -84 47 -171q0 -126 -115 -161l202 -45v857h88v-83h105v-80h-105v-771z" />
    <glyph glyph-name="bnS_KHA" horiz-adv-x="826" 
d="M391 426q71 0 71 85q0 29 -5 59h-157q2 -144 91 -144zM436 275q0 34 -8 72q-18 -3 -37 -3q-100 0 -139 92q-14 -37 -48 -62.5t-85 -25.5q-46 0 -88 21v82q46 -18 81 -18q54 0 74.5 32.5t20.5 104.5h-227v80h556q21 -79 21 -139q0 -86 -48 -128q43 -107 43 -210
q0 -73 -33 -128t-96 -79l225 -53v820h93v-83h105v-80h-105v-736h-93v1l-1 -1l-433 102v82h80q79 1 124 40t45 111v9q-37 -77 -123 -77q-72 0 -111.5 44.5t-39.5 113.5q0 36 5 60h94q-3 -23 -3 -52q0 -39 20.5 -62.5t55.5 -23.5q75 0 75 94z" />
    <glyph glyph-name="bnG_GA" horiz-adv-x="583" 
d="M492 -194h-89v168q0 70 -30 116t-95 46q-87 0 -106 -64q158 -4 158 -124q0 -65 -49 -99t-132 -34q-36 0 -76 8v73q40 -4 76 -4q90 0 90 57t-93 57h-71v19q0 82 48 136t138 54q98 0 142 -65v266q0 75 -33 118t-100 43q-89 0 -114 -77q78 0 124 -32t46 -100t-51 -103.5
t-136 -35.5q-37 0 -80 8v75q42 -4 80 -4q95 0 95 61q0 58 -93 58h-89v14q0 91 51.5 155t147.5 64q108 0 152 -71v144h89v-83h104v-80h-104v-764z" />
    <glyph glyph-name="bnNG_GA" horiz-adv-x="689" 
d="M609 -40h-95q-17 79 -17 152q0 68 14 135q-96 -58 -152 -96q-51 -117 -198 -117q-53 0 -99 8v81q52 -6 92 -6q77 0 109.5 42t32.5 124q0 49 -20 80.5t-62 31.5q-34 0 -53 -23t-19 -60q0 -34 9 -63h-89q-12 34 -12 71q0 69 43 112t119 43q83 0 128 -57.5t45 -134.5v-13
q80 51 138 79h88q-25 -109 -25 -199q0 -93 23 -190zM649 531q0 -65 -39 -105.5t-105 -40.5q-76 0 -119 51.5t-48 133.5h-358v80h729v-80h-63q3 -19 3 -39zM505 464q30 0 46 18.5t16 51.5q0 14 -2 36h-141q7 -106 81 -106z" />
    <glyph glyph-name="bnDD_GA" horiz-adv-x="1108" 
d="M409 394q57 0 159 61q5 66 36 115h-254v-114q0 -62 59 -62zM1023 0h-96v416q0 161 -135 161q-61 0 -93 -31.5t-37 -83.5h4q80 0 129 -40.5t50 -114.5q-1 -77 -54.5 -120t-142.5 -43q-17 0 -26 1v83h26q102 0 102 79q0 77 -102 77h-50q4 -27 4 -65q0 -113 -69.5 -184
t-190.5 -71q-134 0 -211 83.5t-77 231.5q0 49 5 84h94q-4 -36 -4 -81q0 -113 50 -173.5t143 -60.5q83 0 126.5 46.5t43.5 127.5q0 14 -1 20q-54 -32 -115 -32q-65 0 -103 38.5t-38 106.5v115h-275v80h728q33 10 67 10q108 0 152 -71v144h96v-83h105v-80h-105v-570z" />
    <glyph glyph-name="bnD_GA" horiz-adv-x="994" 
d="M1014 570h-104v-570h-96v416q0 161 -135 161q-61 0 -93 -31.5t-37 -83.5h4q81 0 129.5 -40.5t49.5 -114.5q-1 -77 -54.5 -120t-142.5 -43q-17 0 -26 1v83h26q101 0 101 79q0 77 -101 77h-77v-318h-94v299q-109 -69 -205 -177h-94v382h-85v80h614q35 10 68 10
q108 0 152 -71v144h96v-83h104v-80zM364 465h92q6 61 35 105h-332v-262q46 50 105 93.5t100 63.5z" />
    <glyph glyph-name="bnDDx_GA" horiz-adv-x="1108" 
d="M409 394q57 0 159 61q5 66 36 115h-254v-114q0 -62 59 -62zM1023 0h-96v416q0 161 -135 161q-61 0 -93 -31.5t-37 -83.5h4q80 0 129 -40.5t50 -114.5q-1 -77 -54.5 -120t-142.5 -43q-17 0 -26 1v83h26q102 0 102 79q0 77 -102 77h-50q4 -27 4 -65q0 -113 -69.5 -184
t-190.5 -71q-134 0 -211 83.5t-77 231.5q0 49 5 84h94q-4 -36 -4 -81q0 -113 50 -173.5t143 -60.5q83 0 126.5 46.5t43.5 127.5q0 14 -1 20q-54 -32 -115 -32q-65 0 -103 38.5t-38 106.5v115h-275v80h728q33 10 67 10q108 0 152 -71v144h96v-83h105v-80h-105v-570zM397 -69
q0 -25 -17.5 -42t-42.5 -17t-42 17t-17 42t17 42.5t42 17.5t42.5 -17.5t17.5 -42.5z" />
    <glyph glyph-name="bnL_GA" horiz-adv-x="724" 
d="M404 256q100 0 140 -64v134q0 37 -16 65t-55 28q-76 0 -76 -113v-7h-94v11q0 107 -82 107q-38 0 -60.5 -27.5t-22.5 -72.5q0 -51 29.5 -77.5t78.5 -26.5q8 0 30 2q49 41 128 41zM639 -172h-95v194q0 72 -31 114t-96 42q-90 0 -111 -68q169 0 169 -129q0 -67 -51 -102.5
t-137 -35.5q-36 0 -79 8v74q42 -4 79 -4q99 0 99 60q0 59 -99 59h-76v20q0 40 10 71q-79 5 -128 54.5t-49 132.5q0 76 44.5 128.5t122.5 52.5q55 0 91 -25.5t47 -68.5q10 43 40.5 69.5t73.5 26.5q55 0 81 -39v108h-564v80h764v-80h-105v-742z" />
    <glyph glyph-name="bnNG_GHA" horiz-adv-x="1110" 
d="M366 471q74 0 74 61q0 22 -14 38h-2v2q-17 17 -48 17q-27 0 -41.5 -17t-14.5 -45v-52q30 -4 46 -4zM582 281q0 -11 -1 -17q69 41 136 75q-59 10 -96.5 43t-37.5 89q0 64 50 99h-116q6 -18 6 -40q0 -63 -42.5 -96t-113.5 -33q-25 0 -47 3v-14q0 -59 60 -59q31 0 64 12.5
t50 23t58 37.5q30 -60 30 -123zM845 314l-184 -105l269 -114v475h-149q-49 0 -75.5 -24t-26.5 -67q0 -41 27.5 -61.5t71.5 -20.5q37 0 67 8v-91zM1026 0h-96l-384 161q-65 -92 -203 -92q-129 0 -209.5 76.5t-80.5 215.5q0 20 2 46h89q-1 -12 -1 -46q0 -109 55 -160t145 -51
q73 0 113.5 35.5t40.5 92.5v16q-56 -41 -124 -41q-63 0 -102.5 36.5t-39.5 103.5v35q-99 43 -144 142h-107v80h166q24 -89 87 -136l1 12q0 61 37 97.5t104 36.5q36 0 63 -10h692v-80h-104v-570z" />
    <glyph glyph-name="bnD_GHA" horiz-adv-x="1034" 
d="M769 317l-200 -112l285 -114v479h-149q-49 0 -75.5 -24t-26.5 -67q0 -41 27.5 -61.5t72.5 -20.5q36 0 66 8v-88zM1053 570h-103v-570h-96l-396 154v-88h-94v299q-112 -73 -205 -177h-94v382h-85v80h1073v-80zM458 465v-224q107 62 178 99q-57 11 -93 43.5t-36 87.5
q0 64 50 99h-398v-261q46 48 105 91.5t100 64.5h94z" />
    <glyph glyph-name="bnL_GHA" horiz-adv-x="1061" 
d="M796 305l-154 -102l239 -107v474h-149q-51 0 -80.5 -26t-29.5 -70q0 -42 28 -63.5t75 -21.5q42 0 71 7v-91zM977 0h-96l-341 147l1 1v91q73 50 139 91q-99 11 -137 69q-21 21 -54 21q-75 0 -75 -114v-15h-97v19q0 107 -83 107q-39 0 -61.5 -27t-22.5 -72
q0 -52 28.5 -78.5t73.5 -26.5q19 0 61 6v-81q-31 -7 -70 -7q-85 0 -136.5 50t-51.5 138q0 78 45.5 129t125.5 51q56 0 92 -25.5t46 -68.5q9 41 38.5 68.5t73.5 27.5q30 0 49 -14q9 53 55 83h-600v80h1101v-80h-104v-570z" />
    <glyph glyph-name="bnC_CA" horiz-adv-x="867" 
d="M227 196q44 0 73.5 38t29.5 91q0 36 -21.5 53t-73.5 31l-67 20v-167q0 -66 59 -66zM820 265q0 -101 -70 -187t-173 -86q-71 0 -114.5 43.5t-43.5 119.5v114q-17 -68 -69.5 -112t-124.5 -44q-69 0 -110 37.5t-41 111.5v308h-94v80h907v-80h-373v-70l123 -42
q94 -30 138.5 -72.5t44.5 -120.5zM578 75q60 0 103 61t43 129q0 41 -23.5 62t-81.5 42l-105 36v-250q0 -80 64 -80zM253 498q72 -21 112 -47.5t54 -72.5v192h-251v-49z" />
    <glyph glyph-name="bnNY_CA" horiz-adv-x="815" 
d="M586 138q37 0 59 20.5t22 53.5q0 36 -24.5 55.5t-70.5 19.5h-36v84h36q95 0 95 77q0 34 -22.5 53.5t-60.5 19.5q-53 0 -85.5 -39t-32.5 -99v-109q0 -61 33 -98.5t87 -37.5zM758 202q0 -62 -44.5 -104t-119.5 -42q-80 0 -128 58v-114h-95l-297 138v98q55 50 132 93t151 64
q-34 123 -125 123q-42 0 -62 -27t-20 -70q0 -15 2 -39h-94q-4 21 -4 46q0 76 44 126t123 50q104 0 150 -91v139h95v-106q48 58 127 58q75 0 120 -42.5t45 -103.5q0 -49 -27.5 -81.5t-66.5 -45.5q39 -13 66.5 -45.5t27.5 -81.5zM371 282q0 18 -1 27q-114 -36 -210 -116
l211 -101v190z" />
    <glyph glyph-name="bnSH_CA" horiz-adv-x="917" 
d="M627 75q60 0 103 61t43 129q0 40 -23.5 61.5t-80.5 42.5l-105 36v-250q0 -80 63 -80zM871 265q0 -100 -70.5 -186.5t-173.5 -86.5q-72 0 -115.5 43.5t-43.5 119.5v294q0 58 -25 93.5t-79 35.5q-42 0 -68 -28t-26 -74q0 -47 26.5 -73.5t71.5 -26.5q25 0 43 3v-84
q-25 -5 -51 -5q-91 0 -137 65q-44 -65 -129 -65q-28 0 -59 6v84q24 -4 49 -4q43 0 67.5 25.5t24.5 74.5q0 45 -25.5 69.5t-72.5 24.5h-98v80h107q88 0 134 -62q48 72 134 72q74 0 113 -47v37h469v-80h-373v-70l123 -42q94 -30 139 -72.5t45 -120.5z" />
    <glyph glyph-name="bnC_CHA" horiz-adv-x="937" 
d="M227 196q44 0 73.5 38t29.5 91q0 36 -21.5 53t-73.5 31l-67 20v-167q0 -66 59 -66zM883 320q0 -65 -41.5 -112t-104 -70t-144.5 -30q75 -32 117 -54l148 -78v-13h-140l-276 143v74q40 -2 59 -2q131 0 212 34t81 110q0 35 -25 54t-74 32q2 -16 2 -24q0 -58 -47.5 -104.5
t-111.5 -46.5q-86 0 -114 65q-9 -78 -64 -131.5t-135 -53.5q-69 0 -110 37.5t-41 111.5v308h-94v80h977v-80h-455v-42l65 -13q1 -1 4 -1t5 -1l128 -29q92 -21 135.5 -59t43.5 -105zM538 305q30 0 53.5 27t23.5 57q0 22 -12.5 33.5t-44.5 18.5l-56 13v-109q0 -40 36 -40z
M253 498q68 -20 107 -44t55 -64v180h-247v-49z" />
    <glyph glyph-name="bnNY_CHA" 
d="M221 126q43 0 83 26q-25 22 -39 36t-35 47t-34 73q-68 -44 -68 -99q0 -39 25.5 -61t67.5 -22zM569 -73v-79l-485 67v84q68 -13 136 -13q133 0 133 88q0 11 -3 20q-51 -43 -129 -43q-77 0 -127 42.5t-50 115.5q0 48 20 85t50 58t65.5 41t65.5 35t50 37.5t20 50.5t-20 46
t-53 18q-38 0 -60 -23t-22 -60q0 -14 5 -52h-85q-9 31 -9 61q0 67 44.5 110.5t120.5 43.5q82 0 129 -52q39 51 114 51q60 0 96.5 -34t36.5 -83q0 -38 -21 -63t-52 -35q73 -24 73 -98q0 -49 -37 -83t-98 -34q-65 0 -108 41t-55 105q-13 -9 -51 -30q11 -37 34 -68.5
t47.5 -52.5t47.5 -42.5t37.5 -48.5t14.5 -60q0 -88 -93 -122q97 -7 160 -16zM469 308q27 0 42.5 13.5t15.5 36.5q0 49 -69 49h-21v73h21q38 0 53.5 13.5t15.5 40.5q0 21 -16 34t-41 13q-51 0 -72 -46q1 -7 1 -22q0 -43 -22 -78q8 -127 92 -127z" />
    <glyph glyph-name="bnSH_CHA" horiz-adv-x="990" 
d="M911 -37h-140l-276 143v74q38 -2 59 -2q131 0 212 34t81 110q0 35 -25 54t-74 32q2 -16 2 -24q0 -58 -47.5 -104.5t-111.5 -46.5q-57 0 -90 30.5t-33 86.5v99q0 58 -25 93.5t-79 35.5q-42 0 -68 -28t-26 -74q0 -47 26.5 -73.5t71.5 -26.5q25 0 43 3v-84q-25 -5 -51 -5
q-91 0 -137 65q-44 -65 -129 -65q-28 0 -59 6v84q24 -4 49 -4q43 0 67.5 25.5t24.5 74.5q0 45 -25.5 69.5t-72.5 24.5h-98v80h107q88 0 134 -62q48 72 134 72q74 0 113 -47v37h542v-80h-455v-42l65 -13q1 -1 4 -1t5 -1l128 -29q92 -21 135.5 -59t43.5 -105q0 -65 -41.5 -112
t-104 -70t-144.5 -30q75 -32 117 -54l148 -78v-13zM591 305q30 0 53.5 27t23.5 57q0 22 -12.5 33.5t-44.5 18.5l-56 13v-109q0 -40 36 -40z" />
    <glyph glyph-name="bnNY_JA" horiz-adv-x="789" 
d="M727 -121h-93q-21 87 -21 188q0 102 25 177q-39 -18 -83 -18q-66 0 -113.5 33.5t-64.5 90.5q-53 -64 -53 -110q0 -37 23 -56t63 -19q56 0 117 27q17 -41 17 -91q0 -94 -57 -157t-165 -63q-126 0 -198.5 89.5t-72.5 236.5q0 14 2 46h91q-1 -14 -1 -44q0 -111 47 -178.5
t132 -67.5q66 0 99.5 36.5t35.5 95.5q-30 -8 -66 -8q-67 0 -112 41t-45 112q0 42 19 80.5t41.5 63t41.5 56.5t19 61q0 37 -26.5 58t-66.5 21q-47 0 -73 -24t-26 -68q0 -24 8 -64h-88q-10 33 -10 69q0 74 49.5 120.5t137.5 46.5q103 0 153 -65q48 65 141 65q68 0 110 -35
t42 -85q0 -75 -70 -98q70 -26 70 -99q0 -41 -30 -71l52 -1q-23 -112 -23 -204q0 -86 22 -188zM552 305q34 0 51.5 14t17.5 37q0 46 -71 46h-35v76h35q70 0 70 52q0 23 -18.5 36.5t-50.5 13.5q-38 0 -67 -18.5t-40 -49.5v-11q0 -33 -12 -67q4 -60 38 -94.5t82 -34.5z" />
    <glyph glyph-name="bnJ_JA" horiz-adv-x="1241" 
d="M575 287q0 -47 -17 -89q10 -92 62 -146t132 -54q73 0 109.5 36t36.5 98v7q-40 -14 -86 -14q-73 0 -117.5 40t-44.5 110q0 69 48 130q-219 30 -278 152q-78 -55 -78 -128q0 -75 89 -75q60 0 126 30q18 -46 18 -97zM1168 -92h-91q-18 87 -18 165q0 94 21 176
q-82 18 -154.5 59.5t-112.5 99.5q-67 -63 -67 -129q0 -75 89 -75q62 0 132 30q18 -46 18 -99q0 -97 -61 -157.5t-171 -60.5q-98 0 -167 51t-97 143q-60 -44 -149 -44q-128 0 -202.5 84.5t-74.5 226.5q0 30 1 45h92q-1 -13 -1 -39q0 -109 48.5 -172.5t136.5 -63.5
q71 0 109.5 36.5t38.5 99.5v3q-41 -12 -80 -12q-72 0 -117 40.5t-45 109.5q0 84 66 145h-332v80h1281v-80h-749q37 -50 122 -75t195 -25h47q33 -63 118.5 -107.5t190.5 -55.5q-36 -111 -36 -234q0 -74 19 -165z" />
    <glyph glyph-name="bnN_JA" horiz-adv-x="919" 
d="M220 293l-52 -16q-29 65 -54 73q-11 26 -7 41q-20 26 -16 31t32 -12q17 8 49 0q76 -4 103 -101l-56 -11zM839 -33h-93q-21 92 -21 195q0 97 24 182q-198 28 -335 109v-77q0 -81 80 -81q62 0 132 30q19 -46 19 -103q0 -110 -68 -181t-188 -71q-128 0 -203.5 76.5
t-77.5 198.5h96q2 -86 50.5 -138.5t134.5 -52.5q79 0 122 44.5t43 122.5v6q-41 -13 -84 -13q-69 0 -110 41.5t-41 110.5l9 28q-8 62 -8 152v24h-340v80h959v-80h-525v-24q75 -54 195 -91t246 -50q-37 -111 -37 -242q0 -97 21 -196z" />
    <glyph glyph-name="bnB_JA" horiz-adv-x="914" 
d="M834 -86h-94q-21 92 -21 206q0 98 24 181q-201 29 -334 106v-88q0 -81 80 -81q58 0 132 31q18 -44 18 -103q0 -111 -67 -181.5t-188 -70.5q-124 0 -203.5 74.5t-81.5 200.5h96q2 -90 54 -141t135 -51q81 0 123 44.5t42 123.5v5q-41 -13 -82 -13q-73 0 -114 46l-289 102
v98q120 92 253 136v31h-337v80h954v-80h-525v-71q75 -53 194 -88t247 -48q-38 -114 -38 -242q0 -103 22 -207zM316 358v94q-85 -33 -161 -91l167 -64q-6 25 -6 61z" />
    <glyph glyph-name="bnNY_JHA" horiz-adv-x="825" 
d="M490 -165h-88l-255 118v90q107 71 255 121v2q0 42 -36 42q-21 0 -74 -16t-91 -16q-72 0 -114.5 40t-42.5 117q0 14 2 36h88q-1 -9 -1 -28q0 -80 77 -80q26 0 76 13.5t72 13.5q27 0 44 -17v245q0 63 -60 63q-42 0 -72.5 -30.5t-30.5 -76.5q0 -57 60 -57q20 0 33 1v-74
q-20 -4 -43 -4q-65 0 -103 33.5t-38 97.5q0 79 56.5 135t142.5 56q102 0 132 -78q43 65 132 65q65 0 106 -35.5t41 -88.5q0 -40 -21.5 -66t-54.5 -37q76 -25 76 -103q0 -64 -56 -99v-323h-90q0 62 -25 94.5t-88 32.5h-9v-187zM602 272q31 0 49.5 15.5t18.5 41.5q0 54 -73 54
h-26v73h26q73 0 73 59q0 24 -18 38.5t-50 14.5q-49 0 -80.5 -37t-31.5 -106v-7q0 -66 29 -106t83 -40zM505 102q74 0 107 -47v139h-2q-72 0 -120 51v-143h15zM402 -81v162q-97 -35 -170 -81z" />
    <glyph glyph-name="bnJ_JHA" horiz-adv-x="1059" 
d="M560 298q0 -88 -61.5 -147.5t-165.5 -59.5q-124 0 -197.5 78t-73.5 214q0 30 1 45h89q-1 -13 -1 -39q0 -102 48.5 -159.5t133.5 -57.5q68 0 105.5 34.5t37.5 88.5v9q-41 -13 -80 -13q-72 0 -113.5 37t-41.5 103q0 82 65 139h-326v80h1099v-80h-104v-667h-91v1
q0 62 -25 94.5t-88 32.5h-24v-214h-93l-255 117v91q114 76 255 126v68q0 97 24 179q-209 37 -270 160q-76 -54 -76 -122q0 -71 84 -71q58 0 126 29q18 -44 18 -96zM784 458q-37 -113 -37 -238v-109h30q74 0 107 -48v507h-379q62 -83 279 -112zM654 -100v166
q-91 -33 -171 -85z" />
    <glyph glyph-name="bnC_NYA" horiz-adv-x="972" 
d="M572 46v273q0 63 -57 63q-40 0 -72 -31t-32 -76q0 -57 61 -57q19 0 32 1v-79q-21 -3 -42 -3q-68 0 -104 36q-23 -26 -55 -41v-16q0 -80 76 -80q27 0 76.5 14t71.5 14q29 0 45 -18zM660 -67h-88v11q0 41 -37 41q-17 0 -71.5 -15.5t-92.5 -15.5q-73 0 -115.5 38.5
t-42.5 115.5v5q-66 2 -105 39t-39 110v308h-89v80h1012v-80h-829v-49l86 -25q102 -30 139 -82q57 49 131 49q98 0 129 -74q47 60 133 60q63 0 102.5 -36t39.5 -87q0 -40 -21.5 -66t-54.5 -37q33 -11 54.5 -37t21.5 -66q0 -51 -40 -87t-103 -36q-71 0 -120 49v-113zM222 196
q44 0 73.5 38t29.5 91q0 36 -21.5 53t-73.5 31l-67 20v-167q0 -66 59 -66zM770 75q29 0 47 15.5t18 41.5q0 54 -73 54h-22v73h22q40 0 56.5 15t16.5 44q0 24 -17.5 38.5t-48.5 14.5q-47 0 -78 -38t-31 -102v-14q0 -64 29.5 -103t80.5 -39z" />
    <glyph glyph-name="bnK_TTA" horiz-adv-x="723" 
d="M576 -18q0 -67 -56.5 -106t-150.5 -39q-111 0 -177 50.5t-66 141.5q0 115 99 168l-172 82v97q129 117 273 140v54h-346v80h512q4 17 4 44q0 66 -60 66q-25 0 -88 -11.5t-98 -11.5q-66 0 -108 21v75q42 -16 102 -16q30 0 97 12.5t101 12.5q71 0 106.5 -37.5t35.5 -99.5
q0 -23 -5 -55h164v-80h-327v-50q108 -2 176 -53.5t68 -136.5q0 -75 -42.5 -116t-114.5 -41q-13 0 -20 1v80h12q77 0 77 78q0 52 -43 78.5t-113 28.5v-260q-196 -25 -196 -150q0 -57 42 -85t108 -28q117 0 117 66q0 53 -87 53q-18 0 -40 -2v77q20 4 47 4q73 0 121 -35.5
t48 -96.5zM326 238v197q-98 -23 -191 -101z" />
    <glyph glyph-name="bnTT_TTA" horiz-adv-x="576" 
d="M479 332q0 -37 -13 -74q68 -53 68 -140q0 -94 -72 -144t-188 -50q-138 0 -242 69v95q107 -81 243 -81q80 0 123.5 29t43.5 84q0 38 -23 64q-63 -63 -158 -63q-75 0 -123.5 40.5t-48.5 114.5v294h-109v80h402q4 17 4 44q0 66 -60 66q-25 0 -77.5 -11.5t-87.5 -11.5
q-63 0 -103 21v75q42 -16 96 -16q31 0 89 12.5t90 12.5q71 0 106.5 -38t35.5 -99q0 -27 -6 -55h127v-80h-411v-294q0 -37 20.5 -55t55.5 -18q56 0 89 37.5t33 91.5q0 79 -84 79q-22 0 -41 -4v85q24 4 54 4q78 0 122.5 -44t44.5 -120z" />
    <glyph glyph-name="bnNN_TTA" horiz-adv-x="859" 
d="M809 267q0 -106 -67.5 -186t-179.5 -80q-71 0 -119 43t-48 117v261q0 64 -35.5 110t-105.5 46q-50 0 -79.5 -28.5t-29.5 -77.5q0 -51 28 -76.5t76 -25.5q32 0 58 5v-83q-31 -8 -67 -8q-87 0 -139.5 50t-52.5 138q0 82 53.5 135t138.5 53q105 0 155 -73v63h310q4 17 4 44
q0 66 -60 66q-25 0 -82 -11.5t-92 -11.5q-63 0 -103 21v75q42 -16 96 -16q30 0 91.5 12.5t96.5 12.5q71 0 106 -38t35 -99q0 -23 -5 -55h87v-80h-389v-409q0 -37 20 -56.5t52 -19.5q67 0 109 55.5t42 126.5q0 100 -108 100q-22 0 -41 -4v85q24 4 53 4q91 0 141.5 -50.5
t50.5 -134.5z" />
    <glyph glyph-name="bnN_TTA" horiz-adv-x="848" 
d="M207 457q119 0 176 -103v216h-403v80h713q4 17 4 44q0 66 -60 66q-25 0 -82 -11.5t-92 -11.5q-63 0 -103 21v75q42 -16 96 -16q30 0 91.5 12.5t96.5 12.5q71 0 106 -38t35 -99q0 -23 -5 -55h87v-80h-389v-409q0 -37 20 -56.5t52 -19.5q67 0 109 55.5t42 126.5
q0 100 -108 100q-22 0 -41 -4v85q24 4 53 4q91 0 141.5 -50.5t50.5 -134.5q0 -106 -67.5 -186t-179.5 -80q-71 0 -119 43t-48 117v8q0 82 -46 142t-117 60q-43 0 -65.5 -25.5t-22.5 -72.5q0 -20 4 -48h-93q-6 24 -6 55q0 78 44 127.5t126 49.5z" />
    <glyph glyph-name="bnL_TTA" horiz-adv-x="1018" 
d="M305 112q-32 -7 -71 -7q-85 0 -136.5 50.5t-51.5 137.5q0 78 45.5 129.5t125.5 51.5q56 0 92.5 -26t45.5 -68q10 42 40.5 68.5t75.5 26.5q56 0 83 -41v136h-574v80h884q4 17 4 44q0 66 -60 66q-25 0 -82 -11.5t-92 -11.5q-63 0 -103 21v75q42 -16 96 -16q30 0 91.5 12.5
t96.5 12.5q71 0 106 -38t35 -99q0 -23 -5 -55h87v-80h-389v-409q0 -37 19.5 -56.5t52.5 -19.5q67 0 109 55.5t42 126.5q0 100 -108 100q-22 0 -41 -4v85q24 4 53 4q91 0 141.5 -50.5t50.5 -134.5q0 -106 -67.5 -186t-179.5 -80q-71 0 -119 43t-48 117v141l-1 -1
q0 37 -16 64.5t-55 27.5q-77 0 -77 -113v-15h-97v19q0 108 -83 108q-39 0 -61.5 -27t-22.5 -72q0 -52 28.5 -78.5t73.5 -26.5q29 0 62 6v-82z" />
    <glyph glyph-name="bnSS_TTA" horiz-adv-x="605" 
d="M86 456q0 66 43 114h-149v80h448q4 17 4 44q0 66 -60 66q-25 0 -86 -11.5t-96 -11.5q-66 0 -108 21v75q40 -16 101 -16q30 0 95.5 12.5t100.5 12.5q71 0 106 -38t35 -99q0 -23 -5 -55h111v-80h-150q43 -48 43 -114q0 -63 -32.5 -109.5t-90.5 -67.5q-17 -7 -57 -20.5
t-62.5 -23.5t-49.5 -27t-40 -41.5t-13 -56.5q0 -55 38 -82t101 -27q113 0 113 67q0 52 -80 52q-20 0 -40 -2v77q19 4 46 4q70 0 116.5 -35t46.5 -96q0 -67 -56.5 -106.5t-145.5 -39.5q-108 0 -170.5 49.5t-62.5 138.5q0 119 123 172q-55 22 -86 67.5t-31 106.5zM426 456
q0 53 -34 82.5t-89 29.5q-45 0 -74 -19l190 -137q7 23 7 44zM303 340q49 0 80 24l-196 135q-7 -21 -7 -43q0 -54 34.5 -85t88.5 -31z" />
    <glyph glyph-name="bnP_TTA" horiz-adv-x="875" 
d="M824 267q0 -106 -67 -186t-179 -80q-72 0 -120 43.5t-48 116.5v201l-357 -215v102l104 61q-33 65 -109 92v46q0 83 55 147.5t153 64.5q108 0 154 -75v65h311q4 26 4 44q0 66 -60 66q-25 0 -82.5 -11.5t-92.5 -11.5q-64 0 -102 21v75q40 -16 96 -16q30 0 91.5 12.5
t95.5 12.5q71 0 106.5 -38t35.5 -99q0 -27 -6 -55h88v-80h-389v-409q0 -37 19.5 -56.5t52.5 -19.5q67 0 109 55.5t42 126.5q0 100 -109 100q-22 0 -41 -4v85q24 4 54 4q91 0 141 -50.5t50 -134.5zM141 447q58 -28 90 -93l175 104q-9 54 -43.5 86.5t-92.5 32.5
q-60 0 -94.5 -36.5t-34.5 -93.5z" />
    <glyph glyph-name="bnPH_TTA" horiz-adv-x="809" 
d="M750 14q0 -83 -59 -135.5t-147 -52.5q-71 0 -117 39.5t-46 111.5v100l-314 122v97l149 108l-148 98v68h-88v80h624q4 17 4 44q0 66 -60 66q-25 0 -85 -11.5t-95 -11.5q-63 0 -103 21v75q42 -16 97 -16q30 0 94 12.5t98 12.5q71 0 106.5 -37.5t35.5 -99.5q0 -23 -5 -55
h138v-80h-702l170 -120v-90l-135 -103l219 -91v344h93q108 0 182 -43.5t74 -125.5q0 -69 -44.5 -105t-117.5 -36q-16 0 -22 1v79h13q82 0 82 61q0 44 -48 66t-119 22v-452q0 -69 70 -69q51 0 83.5 29.5t32.5 75.5q0 59 -74 59q-21 0 -40 -4v81q24 4 55 4q68 0 108.5 -37
t40.5 -102z" />
    <glyph glyph-name="bnS_TTA" horiz-adv-x="641" 
d="M131 161q0 72 48.5 122t125.5 76q-39 24 -57 69q-13 -35 -47 -61t-84 -26q-46 0 -88 21v82q46 -18 81 -18q53 0 74 35.5t21 108.5h-225v80h480q4 17 4 44q0 66 -60 66q-25 0 -86 -11.5t-96 -11.5q-66 0 -108 21v75q40 -16 101 -16q30 0 95.5 12.5t100.5 12.5
q71 0 106 -38t35 -99q0 -23 -5 -55h114v-80h-113q5 -28 5 -68q0 -107 -77 -147q-22 -13 -61 -29.5t-68.5 -30t-59.5 -32.5t-46.5 -44.5t-16.5 -57.5q0 -97 135 -97q51 0 81.5 16t30.5 47q0 54 -82 54q-24 0 -39 -3v78q21 3 45 3q73 0 119 -35.5t46 -96.5q0 -67 -56 -106
t-146 -39q-104 0 -165.5 46t-61.5 133zM387 418q38 0 56.5 26t18.5 68q0 31 -6 58h-158q-2 -152 89 -152z" />
    <glyph glyph-name="bnNN_TTHA" horiz-adv-x="895" 
d="M834 260q0 -108 -61 -176t-169 -68q-110 0 -173.5 73.5t-63.5 193.5q0 50 6 90q4 29 4 61q0 144 -118 144q-49 0 -78 -28.5t-29 -77.5q0 -50 28.5 -76t75.5 -26q24 0 45 3v-85q-24 -4 -55 -4q-86 0 -138.5 50t-52.5 138q0 83 55.5 136.5t149.5 53.5q99 0 154.5 -61
t55.5 -175q0 -15 -2 -53q97 6 97 107v134q-54 75 -54 131q0 55 37.5 89t101.5 34q16 0 52 -4v-83q-16 2 -32 2q-66 0 -66 -51q0 -33 32 -82h279v-80h-220l37 -51q102 -138 102 -259zM604 100q68 0 102 44t34 116q0 109 -80 228l-16 21q1 -13 1 -43q0 -81 -44.5 -126
t-124.5 -45h-15v-24q0 -78 38 -124.5t105 -46.5z" />
    <glyph glyph-name="bnN_TTHA" horiz-adv-x="754" 
d="M694 236q0 -109 -61 -176.5t-170 -67.5q-107 0 -171.5 64t-64.5 172q0 37 3 58l-41 -16q-26 75 -59 83q-8 18 -9 32q-22 28 -16.5 37t34.5 -6q14 4 44 -5q36 -5 65.5 -33t42.5 -63h27q107 0 107 107v148h-445v80h422q-31 50 -31 95q0 55 37.5 89t101.5 34q16 0 52 -4v-83
q-16 2 -32 2q-66 0 -66 -51q0 -25 34 -82h276v-80h-225l44 -69q31 -50 49.5 -84.5t35 -85t16.5 -95.5zM463 75q69 0 103 43.5t34 117.5q0 111 -80 233l-19 30q4 -40 4 -91q0 -81 -44 -125.5t-124 -44.5h-16v-12q0 -75 37.5 -113t104.5 -38z" />
    <glyph glyph-name="bnSS_TTHA" horiz-adv-x="685" 
d="M621 247q0 -105 -62 -170t-168 -65q-107 0 -172 67t-65 179q0 24 2 34q-95 52 -95 164q0 66 43 114h-124v80h332q-30 51 -30 95q0 55 37.5 89t101.5 34q15 0 51 -4v-83q-16 2 -32 2q-66 0 -66 -51q0 -33 33 -82h298v-80h-240l38 -51q54 -73 86 -137.5t32 -134.5zM391 95
q68 0 102 41t34 111q0 79 -52 170q-11 -70 -62 -111.5t-135 -41.5q-19 0 -29 1v-8q0 -76 38.5 -119t103.5 -43zM278 570q-44 0 -75 -20l191 -138q7 23 7 44q0 53 -34.5 83.5t-88.5 30.5zM155 456q0 -54 34.5 -85t88.5 -31q48 0 80 24l-196 135q-7 -23 -7 -43z" />
    <glyph glyph-name="bnDD_DDA" horiz-adv-x="1093" 
d="M1038 269q0 -116 -69.5 -189.5t-190.5 -73.5q-87 0 -154 38t-104 108q-68 -62 -181 -62q-132 0 -208 80t-76 224q0 36 5 84h94q-4 -36 -4 -82q0 -107 49 -165t140 -58q82 0 124 45t42 122v17q-54 -30 -112 -30q-66 0 -103.5 37t-37.5 106v100h-272v80h1133v-80h-327v-162
q0 -62 58 -62q59 0 169 67q25 -68 25 -144zM596 337q0 -47 -14 -91q20 -72 71 -114t125 -42q83 0 126 49t43 133q0 15 -1 23q-56 -33 -114 -33q-66 0 -104 38.5t-38 107.5v162h-343v-100q0 -60 59 -60q58 0 165 65q25 -64 25 -138z" />
    <glyph glyph-name="bnNN_DDA" horiz-adv-x="704" 
d="M639 176q0 -83 -71 -134t-193 -51q-144 0 -228 69.5t-84 203.5h95q0 -95 57.5 -142.5t159.5 -47.5q79 0 123 29.5t45 79.5q1 47 -31.5 68.5t-91.5 21.5h-35v83h27q60 0 91.5 30.5t31.5 84.5q0 35 -17 59.5t-45 33.5l-62 -110h-71q-11 127 -99 127q-40 0 -62.5 -25
t-22.5 -67q0 -44 23.5 -66.5t64.5 -22.5q35 0 59 6v-81q-38 -8 -66 -8q-78 0 -127.5 46t-49.5 126q0 73 47 122t123 49q112 0 153 -92l46 86q89 0 145.5 -53.5t56.5 -129.5q0 -57 -32 -99t-83 -55q55 -7 89 -42t34 -99z" />
    <glyph glyph-name="bnN_DDA" horiz-adv-x="721" 
d="M671 246q0 -111 -70.5 -184t-193.5 -73q-126 0 -200 71.5t-74 183.5h96q0 -78 48 -124.5t130 -46.5q83 0 128 47.5t45 129.5q0 16 -1 25q-57 -33 -122 -33q-87 0 -121 66q-57 93 -135 93q-37 0 -55.5 -21.5t-18.5 -57.5q0 -22 3 -40h-95q-4 21 -4 46q0 71 42.5 115
t119.5 44q73 0 126 -51v134h-339v80h761v-80h-326v-184q0 -60 59 -60q63 0 172 66q25 -68 25 -146z" />
    <glyph glyph-name="bnB_DDA" horiz-adv-x="721" 
d="M666 189q0 -110 -72 -178t-197 -68q-127 0 -201 69t-74 179h96q0 -78 47.5 -121.5t131.5 -43.5q86 0 132.5 42.5t46.5 123.5q0 11 -1 16q-53 -31 -117 -31q-56 0 -93 28l-293 104v98q101 78 247 127v36h-339v80h761v-80h-330v-250q0 -60 58 -60q63 0 172 67
q25 -64 25 -138zM318 362v87q-87 -33 -157 -83l163 -61q-6 22 -6 57z" />
    <glyph glyph-name="bnL_DDA" horiz-adv-x="954" 
d="M904 231q0 -110 -70 -181t-192 -71q-129 0 -203 69t-74 179h96q0 -78 48.5 -121t132.5 -43q83 0 127 45.5t44 125.5q0 17 -1 26q-57 -33 -122 -33q-113 0 -133 110q-21 75 -78 75q-74 0 -74 -113v-15h-97v19q0 108 -83 108q-39 0 -61.5 -27t-22.5 -72q0 -52 28.5 -78.5
t73.5 -26.5q28 0 55 4v-82q-35 -5 -64 -5q-85 0 -136.5 50.5t-51.5 137.5q0 78 45.5 129.5t125.5 51.5q56 0 92.5 -26t45.5 -68q10 42 40.5 68.5t75.5 26.5q55 0 81 -34v110h-572v80h994v-80h-326v-199q0 -61 59 -61t172 66q25 -66 25 -145z" />
    <glyph glyph-name="bnNN_DDHA" horiz-adv-x="859" 
d="M809 267q0 -106 -67.5 -186t-179.5 -80q-71 0 -119 43t-48 117v261q0 64 -35.5 110t-105.5 46q-50 0 -79.5 -28.5t-29.5 -77.5q0 -51 28 -76.5t76 -25.5q32 0 58 5v-83q-31 -8 -67 -8q-87 0 -139.5 50t-52.5 138q0 82 53.5 135t138.5 53q105 0 155 -73v63h484v-80h-389
v-409q0 -37 20 -56.5t52 -19.5q67 0 109 55.5t42 126.5q0 100 -108 100q-22 0 -41 -4v85q24 4 53 4q91 0 141.5 -50.5t50.5 -134.5z" />
    <glyph glyph-name="bnN_DDHA" horiz-adv-x="848" 
d="M37 280q0 78 44 127.5t126 49.5q119 0 176 -103v216h-403v80h887v-80h-389v-409q0 -37 20 -56.5t52 -19.5q67 0 109 55.5t42 126.5q0 100 -108 100q-22 0 -41 -4v85q24 4 53 4q91 0 141.5 -50.5t50.5 -134.5q0 -106 -67.5 -186t-179.5 -80q-71 0 -119 43t-48 117v8
q0 82 -46 142t-117 60q-43 0 -65.5 -25.5t-22.5 -72.5q0 -20 4 -48h-93q-6 24 -6 55z" />
    <glyph glyph-name="bnB_DDHA" horiz-adv-x="795" 
d="M745 267q0 -106 -67.5 -186t-179.5 -80q-65 0 -111 36t-54 98l-272 138v99q126 99 270 144v54h-351v80h835v-80h-389v-409q0 -37 20 -56.5t52 -19.5q67 0 109 55.5t42 126.5q0 100 -108 100q-22 0 -41 -4v85q24 4 53 4q91 0 141.5 -50.5t50.5 -134.5zM331 228v201
q-95 -35 -189 -102z" />
    <glyph glyph-name="bnNN_NNA" horiz-adv-x="557" 
d="M472 -71h-96v134q0 65 -31.5 106.5t-95.5 41.5q-44 0 -72 -24t-28 -69q0 -89 95 -89q14 0 50 4v-81q-28 -7 -59 -7q-80 0 -130 45t-50 128q0 75 50.5 123.5t130.5 48.5q94 0 140 -63v206q0 65 -31 106.5t-96 41.5q-44 0 -72 -24t-28 -69q0 -89 95 -89q14 0 50 4v-81
q-28 -7 -59 -7q-80 0 -130 45t-50 128q0 75 50.5 123.5t130.5 48.5q94 0 140 -63v136h96v-83h105v-80h-105v-641z" />
    <glyph glyph-name="bnH_NNA" horiz-adv-x="465" 
d="M388 -205h-89v104q0 52 -25 81t-75 29q-34 0 -54 -16.5t-20 -47.5q0 -62 72 -62q22 0 33 2v-75q-21 -3 -43 -3q-66 0 -107 37.5t-41 101.5q0 61 42 100t110 39q73 0 108 -48v73l-217 66v77h89q136 3 136 109q0 37 -20.5 57t-58.5 20q-35 0 -54.5 -20.5t-19.5 -56.5
q0 -23 6 -49h-89q-8 26 -8 56q0 64 44.5 105.5t118.5 41.5q77 0 125.5 -43.5t48.5 -109.5q0 -63 -37.5 -104t-101.5 -57l176 -53v-81l-49 15v-288zM484 570h-504v80h504v-80z" />
    <glyph glyph-name="bnSS_NNA" horiz-adv-x="848" 
d="M613 144q38 0 61 20.5t23 54.5q0 36 -24.5 57t-72.5 21h-35v83h35q48 0 72.5 21t24.5 57q0 35 -24 55t-64 20q-54 0 -87.5 -36t-33.5 -97v-123q0 -61 35 -97t90 -36zM789 212q0 -62 -46 -105.5t-120 -43.5q-85 0 -135 58v-121h-95l-341 162v100l169 125l-32 20l1 2
l-136 90v71h-74v80h508v-94q50 58 133 58q76 0 122 -43t46 -105q0 -49 -27.5 -81.5t-66.5 -45.5q39 -13 66.5 -45.5t27.5 -81.5zM307 435v-1l86 -58v194h-282zM393 98v180l-94 60l-153 -118z" />
    <glyph glyph-name="bnK_SS_NNA" horiz-adv-x="978" 
d="M525 418q16 0 52 4v148h-124v-88q0 -36 18 -50t54 -14zM284 324q0 -15 -5 -32q173 -6 298 -64v115q-32 -5 -54 -5q-76 1 -119.5 38.5t-43.5 104.5v89h-103q8 -22 8 -46q0 -81 -91 -105q52 -4 81 -29.5t29 -65.5zM670 -178h-93v117q0 53 -27 86t-81 33q-39 0 -61.5 -20.5
t-22.5 -58.5q0 -77 85 -77q24 0 36 2v-73q-21 -4 -45 -4q-77 0 -121 41t-44 113q0 64 41.5 106t114.5 42q81 0 125 -54v73q-158 65 -316 65q-48 0 -75 -25t-27 -70v-14h-91q-3 16 -3 31q0 55 31 94.5t88 54.5q7 13 7 32q0 30 -26 43.5t-84 13.5h-28v80h27q93 0 93 72
q0 24 -9 45h-184v80h1018v-80h-328v-133q33 5 57 5q90 0 144 -41.5t54 -117.5t-43 -118t-116 -42q-19 0 -26 1v84h10q85 0 85 75q0 80 -110 80q-17 0 -55 -4v-537z" />
    <glyph glyph-name="bnK_TA" horiz-adv-x="820" 
d="M527 98q0 -72 -54.5 -114t-145.5 -42q-127 0 -198 77.5t-71 211.5q0 15 2 43h93q-1 -13 -1 -39q0 -110 43.5 -161t130.5 -51q51 0 79.5 21t29.5 62q0 79 -123 79h-29v78h21q55 0 84 27t29 72q0 33 -21 53.5t-60 20.5q-34 0 -54 -20t-20 -54q0 -22 6 -46h-89q-8 26 -8 55
q0 63 43.5 103t119.5 40q112 0 159 -83q40 46 110 46q79 0 126.5 -48t47.5 -118q0 -79 -43.5 -125t-123.5 -46q-29 0 -50 4v82q20 -3 42 -3q38 0 59.5 23.5t21.5 65.5q0 38 -22 60.5t-62 22.5q-67 0 -94 -72q-18 -76 -99 -97q54 -5 87.5 -38.5t33.5 -89.5zM840 570h-860v80
h860v-80z" />
    <glyph glyph-name="bnT_TA" horiz-adv-x="585" 
d="M527 99q0 -71 -55.5 -114t-145.5 -43q-127 0 -197.5 77.5t-70.5 211.5q0 15 2 43h93q-1 -13 -1 -39q0 -110 43 -161t130 -51q50 0 79.5 21.5t30.5 62.5q0 78 -123 78h-29v78h21q55 0 84 27t29 72q0 33 -21 53.5t-60 20.5q-34 0 -54 -20t-20 -54q0 -22 6 -46h-89
q-8 26 -8 55q0 63 43.5 103t119.5 40q80 0 128 -44.5t48 -107.5q0 -53 -28 -88.5t-76 -47.5q54 -6 87.5 -38t33.5 -89zM605 570h-625v80h625v-80z" />
    <glyph glyph-name="bnN_TA" horiz-adv-x="650" 
d="M579 191q0 -97 -63 -159.5t-180 -62.5q-122 0 -190 77t-68 199l93 1q0 -92 42.5 -145t122.5 -53q73 0 111.5 38t38.5 106q0 41 -18 65.5t-53 24.5q-31 0 -47.5 -19.5t-16.5 -52.5q0 -25 10 -65h-82q-14 35 -14 75q0 54 30.5 90.5t84.5 45.5q-36 7 -88.5 42t-84.5 35
q-47 0 -47 -51q0 -23 4 -39h-90q-6 24 -6 53q0 54 33 87.5t90 33.5q42 0 79.5 -21t70 -42t60.5 -21q69 0 69 79q0 28 -5 58h-485v80h690v-80h-113q7 -39 7 -68q0 -59 -29.5 -97.5t-84.5 -48.5q61 -10 95 -55t34 -110z" />
    <glyph glyph-name="bnP_TA" horiz-adv-x="640" 
d="M593 154q0 -97 -63 -159.5t-180 -62.5q-119 0 -188 68t-69 182h92q0 -84 42 -127.5t122 -43.5q73 0 112 38t39 106q0 41 -18 65t-54 24q-31 0 -47 -19t-16 -52q0 -25 10 -65h-83q-13 37 -13 75q0 60 36.5 97.5t100.5 41.5v80l-357 -181v99l89 44q-35 49 -91 70v18
q0 83 53.5 145.5t151.5 62.5q107 0 154 -75v148h96v-83h148v-80h-148v-267q81 -44 81 -149zM150 474q46 -24 74 -73l181 89q-30 91 -129 91q-54 0 -86.5 -31t-39.5 -76z" />
    <glyph glyph-name="bnM_TA" horiz-adv-x="655" 
d="M577 190q0 -98 -63 -160t-180 -62q-124 0 -190.5 76.5t-66.5 195.5h92q0 -88 41 -140.5t124 -52.5q73 0 111.5 37.5t38.5 106.5q0 41 -18 65t-53 24q-31 0 -47.5 -19t-16.5 -52q0 -25 10 -65h-82q-14 35 -14 74q0 55 31 92t86 46q-35 5 -88 29t-86 24q-48 0 -48 -53
q0 -12 4 -32h-96q-4 28 -4 43q0 89 78 116q-12 58 -52 87h-108v80h695v-80h-106q7 -31 7 -68q0 -61 -32 -100t-96 -47q60 -11 94.5 -55.5t34.5 -109.5zM414 433q68 0 68 79q0 36 -5 58h-275q22 -33 28 -82q36 -5 94 -30t90 -25z" />
    <glyph glyph-name="bnL_TA" horiz-adv-x="780" 
d="M723 77q0 -97 -63 -159t-180 -62t-187 67.5t-70 182.5h93q0 -85 42.5 -128t121.5 -43q73 0 111.5 37.5t38.5 106.5q0 41 -18 65t-53 24q-31 0 -47 -19t-16 -52q0 -29 9 -65h-82q-14 35 -14 74q0 59 34.5 96.5t96.5 42.5v81q0 93 -69 93q-75 0 -75 -113v-13h-94v17
q0 107 -79 107q-37 0 -59 -24t-22 -67q0 -92 95 -92q22 0 40 3v-81q-24 -3 -49 -3q-83 0 -131.5 44t-48.5 130q0 73 44 122.5t121 49.5q55 0 89.5 -25.5t45.5 -68.5q10 43 39.5 69.5t73.5 26.5q52 0 79 -37v106h-560v80h820v-80h-170v-337q45 -19 69 -60t24 -96z" />
    <glyph glyph-name="bnSH_TA" horiz-adv-x="736" 
d="M690 119q0 -97 -63 -159t-180 -62q-119 0 -189 75t-70 205q0 32 6 58h91q-4 -36 -4 -57q0 -202 166 -202q73 0 111.5 37.5t38.5 106.5q0 41 -18 65t-53 24q-31 0 -47 -19t-16 -52q0 -29 9 -65h-82q-14 35 -14 74q0 58 33.5 95t92.5 44v151q0 60 -28 100t-90 40
q-47 0 -74.5 -26.5t-27.5 -75.5q0 -51 27 -76.5t73 -25.5q26 0 38 2v-84q-21 -4 -48 -4q-94 0 -139 65q-46 -65 -136 -65q-33 0 -59 6v84q24 -4 49 -4q101 0 101 102q0 48 -29.5 71t-80.5 23h-98v80h107q95 0 145 -63q47 73 143 73q86 0 127 -54v127h95v-83h159v-80h-159
v-295q45 -19 69 -60t24 -96z" />
    <glyph glyph-name="bnS_TA" horiz-adv-x="652" 
d="M412 425q72 0 72 87q0 30 -6 58h-156q-1 -67 21.5 -106t68.5 -39zM-20 650h692v-80h-101q6 -32 6 -66q0 -61 -30.5 -100t-87.5 -50q56 -13 87.5 -56.5t31.5 -107.5q0 -96 -62 -158.5t-178 -62.5q-118 0 -190.5 77.5t-72.5 209.5q0 22 3 43h95q-3 -24 -3 -44
q0 -207 168 -207q73 0 111 38t38 106q0 41 -18 65t-53 24q-31 0 -47.5 -19t-16.5 -52q0 -25 10 -65h-82q-14 35 -14 75q0 52 27.5 88t77.5 46q-69 16 -97 81q-14 -36 -48 -61.5t-85 -25.5q-46 0 -88 21v82q46 -18 81 -18q53 0 74 33t21 104h-249v80z" />
    <glyph glyph-name="bnT_THA" horiz-adv-x="808" 
d="M723 0h-93v1l-1 -1l-538 205v84h87q130 2 202.5 51t72.5 150q0 42 -15.5 66.5t-44.5 24.5q-53 0 -53 -85v-61h-86v61q0 38 -14 60.5t-42 22.5q-29 0 -43.5 -24t-14.5 -62q0 -40 17 -102h-89q-19 52 -19 105q0 71 36.5 117.5t103.5 46.5q74 0 105 -60q29 61 100 61
q69 0 109 -49t40 -122q0 -113 -73.5 -180t-196.5 -84l357 -141v648h93v-83h105v-80h-105v-570z" />
    <glyph glyph-name="bnN_THA" horiz-adv-x="622" 
d="M149 343h-90q-7 28 -7 53q0 54 33 87.5t90 33.5q42 0 80 -21t70.5 -42t60.5 -21q68 0 68 79q0 36 -5 58h-469v80h662v-80h-100q6 -33 6 -68q0 -62 -33.5 -102t-95.5 -46q42 -19 65.5 -55.5t23.5 -82.5q0 -123 -138 -151l140 -46v-81l-311 102v77h84q66 1 101.5 23
t35.5 76q0 37 -21 57.5t-59 20.5q-35 0 -54.5 -21.5t-19.5 -57.5q0 -22 6 -48h-85q-7 26 -7 55q0 62 38.5 103t106.5 45q-18 8 -44 25.5t-47 27.5t-43 10q-47 0 -47 -51q0 -19 5 -39z" />
    <glyph glyph-name="bnM_THA" horiz-adv-x="614" 
d="M384 433q68 0 68 79q0 36 -5 58h-262q22 -33 28 -82q34 -5 86.5 -30t84.5 -25zM521 17v-81l-311 101v77h84q66 2 101.5 24t35.5 76q0 37 -21 57.5t-59 20.5q-35 0 -54.5 -21.5t-19.5 -57.5q0 -24 6 -48h-85q-7 26 -7 55q0 57 32.5 96t90.5 49q-16 6 -40 18t-43.5 19
t-41.5 7t-35 -14t-13 -39q0 -12 4 -32h-95q-5 23 -5 43q0 89 78 116q-12 58 -52 87h-91v80h654v-80h-95q7 -31 7 -68q0 -60 -31.5 -99t-92.5 -48q46 -17 71.5 -54.5t25.5 -86.5q0 -123 -138 -151z" />
    <glyph glyph-name="bnS_THA" horiz-adv-x="625" 
d="M395 425q72 0 72 87q0 26 -5 58h-157q2 -145 90 -145zM201 217q0 57 34.5 97t94.5 48q-50 22 -73 74q-13 -36 -47 -62t-86 -26q-46 0 -88 21v82q46 -18 81 -18q54 0 74.5 32.5t20.5 104.5h-232v80h665v-80h-91q7 -37 7 -66q0 -64 -34 -103.5t-97 -48.5q47 -16 73.5 -54
t26.5 -87q0 -123 -138 -151l140 -46v-81l-312 101v77h84q138 3 138 100q0 37 -21 57.5t-59 20.5q-35 0 -54.5 -21.5t-19.5 -57.5q0 -27 5 -49h-84q-8 26 -8 56z" />
    <glyph glyph-name="bnG_DA" horiz-adv-x="871" 
d="M792 0h-94v347q-107 -83 -198 -199h-93v268q0 75 -33.5 118t-102.5 43q-60 0 -92 -31.5t-37 -83.5h4q80 0 129 -41t50 -114q-1 -77 -54.5 -120t-142.5 -43q-42 0 -83 9v79q28 -4 83 -4q101 0 101 79q0 77 -101 77h-81v57q0 90 55.5 154.5t152.5 64.5q108 0 152 -71v61
h484v-80h-391v-291q45 53 103 102t95 69h94v-450z" />
    <glyph glyph-name="bnD_DA" horiz-adv-x="816" 
d="M836 570h-668v-250q46 53 102.5 101.5t93.5 68.5h94v-256q45 53 102 102t94 69h93v-405h-93v301q-47 -37 -102.5 -93t-93.5 -106h-94v286q-46 -36 -101.5 -92.5t-94.5 -107.5h-94v382h-85v80h847v-80z" />
    <glyph glyph-name="bnN_DA" horiz-adv-x="779" 
d="M710 0h-94v292q-113 -88 -196 -197h-94v268q-20 8 -64.5 39t-74.5 31q-47 0 -47 -51q0 -19 5 -39h-86q-7 28 -7 53q0 54 33 87.5t90 33.5q33 0 62.5 -13t47 -29t40.5 -29t45 -13q67 0 67 79q0 28 -5 58h-452v80h819v-80h-275q6 -33 6 -68q0 -57 -28.5 -96t-81.5 -49v-131
q45 52 101.5 100.5t94.5 70.5h94v-397z" />
    <glyph glyph-name="bnB_DA" horiz-adv-x="788" 
d="M808 570h-385v-291q45 53 103 102t95 69h93v-450h-93v347q-47 -35 -102.5 -91t-95.5 -108h-93l-269 141v96q124 92 269 133v52h-350v80h828v-80zM330 238v196q-90 -31 -186 -95z" />
    <glyph glyph-name="bnM_DA" horiz-adv-x="813" 
d="M162 324h-93q-5 22 -5 43q0 90 76 116q-12 58 -52 87h-108v80h853v-80h-286q7 -31 7 -68q0 -56 -27 -94t-81 -50v-133q47 55 108 105t97 67h93v-397h-93v296q-49 -35 -107.5 -92t-97.5 -109h-94v263q-24 5 -69 28t-77 23q-48 0 -48 -53q0 -12 4 -32zM392 433q68 0 68 79
q0 36 -5 58h-253q22 -33 28 -82q28 -5 78.5 -30t83.5 -25z" />
    <glyph glyph-name="bnL_DA" horiz-adv-x="1016" 
d="M942 0h-94v349q-48 -35 -106.5 -92t-98.5 -109h-94v178q0 37 -16.5 65t-55.5 28q-77 0 -77 -113v-13h-95v17q0 107 -83 107q-38 0 -61 -26.5t-23 -71.5q0 -49 26 -74.5t73 -25.5q21 0 41 3v-83q-24 -3 -49 -3q-84 0 -134.5 48t-50.5 135q0 75 46 127.5t124 52.5
q56 0 92 -25.5t45 -68.5q10 43 40 69.5t76 26.5q55 0 82 -39v108h-569v80h1056v-80h-393v-291q48 55 108.5 104.5t96.5 66.5h94v-450z" />
    <glyph glyph-name="bnG_DHA" horiz-adv-x="761" 
d="M144 11v96q105 63 257 122v187q0 75 -33 118t-102 43q-97 0 -121 -84q79 -2 126 -38t48 -104q-1 -74 -53 -113.5t-142 -39.5q-43 0 -78 7v78q29 -4 76 -4q102 0 102 71q0 70 -102 70h-76v21q0 91 53.5 155t149.5 64q108 0 152 -71v144h96v-83h284v-80h-284v-306
q54 19 107 33h89v-345h-89v256q-65 -20 -107 -35v-279h-96zM401 -20v158q-78 -31 -166 -77z" />
    <glyph glyph-name="bnN_DHA" horiz-adv-x="730" 
d="M213 498q107 0 157 -91v163h-390v80h768v-80h-287v-222q81 26 108 34h88v-333h-88v244q-36 -11 -108 -37v-277h-91l-257 117v96q104 61 239 115q-18 47 -50 76t-76 29q-42 0 -62 -28t-20 -70q0 -21 3 -39h-94q-5 27 -5 47q0 76 43 126t122 50zM370 206v15
q-80 -32 -166 -75l166 -80v140z" />
    <glyph glyph-name="bnD_DHA" horiz-adv-x="711" 
d="M165 242h-94v328h-91v80h751v-80h-566v-213q91 92 185 133h94v-193q63 22 110 35h89v-344h-89v255q-50 -15 -110 -38v-276h-94l-257 117v96q120 65 257 120v132q-99 -58 -185 -152zM350 16v153q-85 -34 -165 -74z" />
    <glyph glyph-name="bnB_DHA" horiz-adv-x="695" 
d="M426 -61h-94l-257 117v92q69 39 161 80l-174 79v96q132 85 270 128v39h-352v80h735v-80h-289v-266q46 16 110 34h88v-345h-88v259q-68 -20 -110 -35v-278zM332 271v176q-77 -28 -181 -89zM332 26v155q-89 -36 -165 -75z" />
    <glyph glyph-name="bnL_DHA" horiz-adv-x="902" 
d="M282 155q-24 -3 -49 -3q-83 0 -132.5 44.5t-49.5 128.5q0 71 44 123t120 52q55 0 90 -25t45 -68q8 41 40.5 67.5t77.5 26.5q47 0 70 -30v99h-558v80h942v-80h-290v-292q46 16 110 34h88v-344h-88v256q-58 -18 -110 -36v-279h-94l-256 117l1 1l-2 -1v96q116 64 257 121v83
q0 93 -68 93q-73 0 -73 -105v-15h-94v15q0 104 -80 104q-37 0 -57.5 -25t-20.5 -68q0 -45 25.5 -67.5t68.5 -22.5q17 0 43 2v-82zM538 -3v155q-88 -37 -165 -76z" />
    <glyph glyph-name="bnK_NA" horiz-adv-x="755" 
d="M445 -79h-94q-19 49 -58 86t-91 37q-69 0 -69 -74q0 -12 2 -28h-95q-3 20 -3 36q0 67 40.5 108t112.5 41q100 0 161 -75v90l-283 128v101q133 117 283 143v56h-371v80h795v-80h-330v-54q105 -2 179.5 -53.5t74.5 -139.5q0 -73 -45.5 -114.5t-121.5 -41.5q-13 0 -19 1v83
h11q81 0 81 72q0 53 -47 80t-113 29v-511zM351 234v195q-101 -23 -196 -104z" />
    <glyph glyph-name="bnG_NA" horiz-adv-x="582" 
d="M497 -45h-96q-19 50 -58 87t-91 37q-69 0 -69 -75q0 -10 2 -28h-95q-3 21 -3 36q0 67 40.5 108t112.5 41q102 0 161 -75v330q0 75 -33 118t-102 43q-97 0 -121 -84q79 -2 126 -38t48 -104q-1 -74 -53 -113.5t-142 -39.5q-43 0 -78 7v78q29 -4 76 -4q102 0 102 71
q0 70 -102 70h-76v21q0 91 53.5 155t149.5 64q108 0 152 -71v144h96v-83h105v-80h-105v-615z" />
    <glyph glyph-name="bnGH_NA" horiz-adv-x="577" 
d="M323 367l-142 -75l219 -65v343h-145q-47 0 -73.5 -17.5t-26.5 -50.5q0 -60 92 -60q42 0 76 8v-83zM493 -88h-93q-20 51 -58.5 87.5t-90.5 36.5q-35 0 -52.5 -20.5t-17.5 -54.5q0 -10 2 -28h-95q-2 26 -2 36q0 67 40.5 108t112.5 41q103 0 161 -76v99l-333 95l1 2v84
q78 43 120 64q-133 17 -133 110q0 46 39 74h-106v80h609v-80h-104v-658z" />
    <glyph glyph-name="bnC_NA" horiz-adv-x="531" 
d="M265 217q43 0 70.5 35.5t27.5 85.5q0 35 -22 50.5t-75 29.5l-60 15v-150q0 -66 59 -66zM430 -119h-94q-49 123 -134 123q-64 0 -64 -72q0 -10 2 -28h-95q-3 21 -3 39q0 64 39.5 104t108.5 40q94 0 146 -70v131q-36 -13 -72 -13q-69 0 -110 37.5t-41 110.5v287h-133v80
h571v-80h-345v-45l77 -19q89 -21 133.5 -58.5t44.5 -109.5q0 -60 -31 -110v-347z" />
    <glyph glyph-name="bnD_NA" horiz-adv-x="539" 
d="M460 -40h-94q-19 50 -58 87t-91 37q-69 0 -69 -75q0 -10 2 -28h-95q-3 21 -3 36q0 67 40.5 108t112.5 41q102 0 161 -75v301q-102 -61 -205 -169h-93v347h-88v80h579v-80h-398v-227q45 47 103.5 87t101.5 60h94v-530z" />
    <glyph glyph-name="bnDH_NA" horiz-adv-x="578" 
d="M493 -88h-93q-20 51 -58.5 87.5t-90.5 36.5q-35 0 -52.5 -20.5t-17.5 -54.5q0 -10 2 -28h-95q-2 26 -2 36q0 67 40.5 108t112.5 41q103 0 161 -76v99l-333 95l1 2v84q61 35 119 65q-61 10 -96 43.5t-35 87.5q0 64 47 103t129 39q30 0 54 -4v-80q-20 3 -38 3
q-40 0 -66 -17.5t-26 -51.5q0 -33 25 -49.5t66 -16.5q45 0 88 17q24 13 65 31v158h197v-80h-104v-658zM400 227v178l-218 -114z" />
    <glyph glyph-name="bnT_NA" horiz-adv-x="625" 
d="M492 -141h-93q-20 51 -58.5 87.5t-90.5 36.5q-69 0 -69 -75q0 -19 1 -28h-95q-2 28 -2 36q0 67 40.5 108t112.5 41q102 0 161 -75v144q-41 -11 -86 -11q-123 0 -190.5 66t-67.5 185q0 56 8 96h93q-8 -51 -8 -97q0 -167 164 -167q72 0 112 37t40 105q0 88 -67 88
q-30 0 -45 -21.5t-15 -55.5q0 -31 7 -62h-85q-12 33 -12 70q0 65 39 107t108 42q77 0 120.5 -48.5t43.5 -120.5q0 -101 -66 -162v-326zM645 570h-665v80h665v-80z" />
    <glyph glyph-name="bnN_NA" horiz-adv-x="577" 
d="M492 -25h-96q-19 50 -60.5 87t-99.5 37q-69 0 -69 -75q0 -19 1 -28h-95q-2 28 -2 36q0 67 40.5 108t112.5 41q107 0 172 -81v73q0 81 -49 140.5t-124 59.5q-44 0 -67.5 -26t-23.5 -70q0 -20 4 -48h-93q-6 24 -6 56q0 74 47 123.5t128 49.5q124 0 184 -92v204h-416v80h617
v-80h-105v-595z" />
    <glyph glyph-name="bnP_NA" horiz-adv-x="596" 
d="M150 474q55 -29 84 -91l177 88q-11 51 -45 80.5t-90 29.5q-54 0 -86.5 -31t-39.5 -76zM512 733v-83h104v-80h-104v-570h-96q-19 50 -58 87t-91 37q-69 0 -69 -75q0 -19 1 -28h-95q-2 28 -2 36q0 67 40.5 108t112.5 41q102 0 161 -75v249l-357 -181v98l99 49
q-35 65 -101 88v18q0 83 53.5 145.5t151.5 62.5q107 0 154 -75v148h96z" />
    <glyph glyph-name="bnM_NA" horiz-adv-x="620" 
d="M401 423q71 0 71 82q0 36 -9 65h-269q24 -38 28 -88q32 -5 86.5 -32t92.5 -27zM486 0h-93q-14 58 -51.5 101.5t-92.5 43.5q-35 0 -52.5 -20.5t-17.5 -54.5q0 -10 2 -28h-95q-2 28 -2 36q0 67 40.5 108t112.5 41q97 0 156 -80v195q-43 3 -102 32t-92 29q-49 0 -49 -52
q0 -17 3 -32h-95q-5 23 -5 43q0 43 21 73t59 42q-10 61 -54 93h-99v80h660v-80h-84q9 -40 9 -73q0 -106 -79 -141v-356z" />
    <glyph glyph-name="bnSH_NA" horiz-adv-x="669" 
d="M564 0h-96q-21 53 -58 90.5t-86 37.5q-70 0 -70 -75q0 -10 2 -28h-95q-3 21 -3 37q0 67 40.5 107.5t113.5 40.5q97 0 156 -77v316q0 58 -25 93.5t-79 35.5q-42 0 -68 -28t-26 -74q0 -47 26.5 -73.5t71.5 -26.5q25 0 43 3v-84q-25 -5 -51 -5q-91 0 -137 65
q-44 -65 -129 -65q-28 0 -59 6v84q24 -4 49 -4q43 0 67.5 25.5t24.5 74.5q0 45 -25.5 69.5t-72.5 24.5h-98v80h107q88 0 134 -62q48 72 134 72q74 0 113 -47v120h96v-83h125v-80h-125v-570z" />
    <glyph glyph-name="bnS_NA" horiz-adv-x="626" 
d="M404 425q72 0 72 87q0 30 -6 58h-156q-1 -67 21.5 -106t68.5 -39zM78 78q0 67 40.5 108t112.5 41q100 0 157 -81v202q-88 8 -123 88q-13 -36 -47 -62t-86 -26q-45 0 -87 21v82q44 -18 80 -18q54 0 74.5 32.5t20.5 104.5h-240v80h666v-80h-83q6 -32 6 -66q0 -108 -88 -144
v-360h-93q-15 58 -52.5 101.5t-92.5 43.5q-69 0 -69 -75q0 -19 1 -28h-95q-2 28 -2 36z" />
    <glyph glyph-name="bnH_NA" horiz-adv-x="691" 
d="M387 -10h-127l-189 144v80h90q69 2 105 33.5t36 90.5q0 44 -22 68.5t-61 24.5q-35 0 -55.5 -22.5t-20.5 -59.5q0 -30 8 -60h-89q-11 30 -11 67q0 68 45 111.5t121 43.5q56 0 98 -25.5t63 -68.5q36 57 110 57q75 0 116.5 -45.5t41.5 -110.5q0 -73 -40 -116.5t-115 -43.5
q-32 0 -51 4v78q19 -4 44 -4q35 0 54 21.5t19 59.5q0 35 -19 55.5t-55 20.5q-65 0 -90 -87q-10 -70 -64 -112t-138 -49l196 -149v-6zM711 570h-731v80h731v-80z" />
    <glyph glyph-name="bnK_SS_NA" horiz-adv-x="978" 
d="M525 418q16 0 52 4v148h-124v-88q0 -36 18 -50t54 -14zM284 324q0 -15 -5 -32q173 -6 298 -64v115q-32 -5 -54 -5q-76 1 -119.5 38.5t-43.5 104.5v89h-103q8 -22 8 -46q0 -81 -91 -105q52 -4 81 -29.5t29 -65.5zM670 -79h-93q-20 41 -70 74t-101 33q-69 0 -69 -72
q0 -19 1 -28h-94q-3 20 -3 36q0 67 40.5 107t112.5 40q108 0 183 -79v116q-158 65 -316 65q-48 0 -75 -25t-27 -70v-14h-91q-3 16 -3 31q0 55 31 94.5t88 54.5q7 13 7 32q0 30 -26 43.5t-84 13.5h-28v80h27q93 0 93 72q0 24 -9 45h-184v80h1018v-80h-328v-133q33 5 57 5
q90 0 144 -41.5t54 -117.5t-43 -118t-116 -42q-19 0 -26 1v84h10q85 0 85 75q0 80 -110 80q-17 0 -55 -4v-438z" />
    <glyph glyph-name="bnM_PA" horiz-adv-x="1005" 
d="M145 319h-95q-5 23 -5 43q0 43 20.5 73t58.5 42q-10 62 -53 93h-91v80h538q8 -20 15 -40q55 50 138 50q108 0 154 -75v148h95v-83h105v-80h-105v-570h-95v361l-350 -210v102l97 57q-23 45 -65 72q-38 -36 -106 -36q-54 0 -117 28.5t-95 28.5q-22 0 -35 -13.5t-13 -38.5
q0 -12 4 -32zM397 427q35 0 52 22t17 57q0 38 -7 64h-274q24 -38 28 -88q36 -5 94 -30t90 -25zM556 447q58 -28 90 -93l175 104q-9 54 -43.5 86.5t-92.5 32.5q-60 0 -94.5 -36.5t-34.5 -93.5z" />
    <glyph glyph-name="bnL_PA" horiz-adv-x="722" 
d="M392 260q107 0 152 -74v140q0 37 -16 65t-55 28q-37 0 -56.5 -29t-19.5 -81v-8h-94v9q0 107 -82 107q-38 0 -60.5 -27.5t-22.5 -72.5q0 -51 29.5 -77.5t78.5 -26.5q11 0 16 1q54 46 130 46zM284 73q46 -23 73 -69l177 83q-29 94 -130 94q-54 0 -83 -30.5t-37 -77.5z
M637 -171h-93v172l-351 -167v94l85 40q-32 45 -87 65v19q0 42 15 81q-74 8 -118 57t-44 128q0 76 44.5 128.5t122.5 52.5q55 0 91 -25.5t47 -68.5q10 43 40.5 69.5t73.5 26.5q55 0 81 -39v108h-564v80h762v-80h-105v-741z" />
    <glyph glyph-name="bnSS_PA" horiz-adv-x="945" 
d="M277 570q-43 0 -75 -20l192 -139q8 21 8 45q0 53 -35.5 83.5t-89.5 30.5zM151 456q0 -54 36 -85t90 -31q48 0 81 24l-199 137q-8 -21 -8 -45zM497 447q67 -33 95 -107l171 109q-8 59 -42.5 93.5t-94.5 34.5t-94.5 -36.5t-34.5 -93.5zM965 570h-104v-570h-96v348
l-344 -223v106l99 63q-17 43 -47 69q-26 -48 -77 -75.5t-119 -27.5q-100 0 -160 55t-60 141q0 64 39 114h-116v80h296h1q108 0 170 -68q59 78 164 78q108 0 154 -75v148h96v-83h104v-80z" />
    <glyph glyph-name="bnS_PA" horiz-adv-x="1014" 
d="M402 426q71 0 71 85q0 29 -5 59h-157q2 -144 91 -144zM476 249l104 62q-24 46 -65 71q-41 -38 -113 -38q-100 0 -139 92q-14 -37 -48 -62.5t-85 -25.5q-47 0 -87 21v82q44 -18 80 -18q54 0 74.5 32.5t20.5 104.5h-238v80h548q9 -22 14 -39q56 49 138 49q107 0 153 -74
v147h96v-83h105v-80h-105v-570h-96v362l-357 -215v102zM565 447q60 -29 89 -93l176 104q-9 54 -43.5 86.5t-92.5 32.5q-60 0 -94.5 -36.5t-34.5 -93.5z" />
    <glyph glyph-name="bnP_PA" horiz-adv-x="596" 
d="M59 323l89 45q-32 43 -91 64v20q0 83 53.5 145.5t151.5 62.5q107 0 154 -75v148h96v-83h104v-80h-104v-727h-96v165l-340 -166v93l87 42q-35 52 -89 71v22q0 78 55 133.5t142 55.5q98 0 145 -74v224l-357 -180v94zM169 88q46 -25 72 -74l163 78q-15 39 -47.5 61.5
t-75.5 22.5q-48 0 -77.5 -26.5t-34.5 -61.5zM149 474q49 -24 76 -68l179 89q-31 86 -128 86q-54 0 -87 -31.5t-40 -75.5z" />
    <glyph glyph-name="bnM_PHA" horiz-adv-x="1082" 
d="M393 431q34 0 51 21t17 55q0 30 -7 63h-263q22 -33 28 -82q35 -5 88.5 -31t85.5 -26zM151 324h-96q-4 28 -4 43q0 89 78 116q-12 58 -52 87h-97v80h1122v-80h-557q8 -34 8 -68q0 -60 -33 -101l65 -47v-89l-136 -103l220 -87v410h92q116 0 193.5 -62t77.5 -166
q0 -90 -49 -139.5t-127 -49.5q-13 0 -20 1v88h12q91 0 91 100q0 63 -48.5 102t-129.5 42v-414h-92l-315 116v97l149 108l-68 46q-16 -3 -34 -3q-51 0 -111.5 29t-92.5 29q-50 0 -50 -53q0 -19 4 -32z" />
    <glyph glyph-name="bnS_PHA" horiz-adv-x="1113" 
d="M-20 650h1153v-80h-570q6 -32 6 -66q0 -54 -24 -91l71 -50v-89l-135 -103l218 -87v401h93q116 0 193.5 -62t77.5 -166q0 -90 -49 -139.5t-127 -49.5q-13 0 -20 1v88h12q90 0 90 100q0 63 -48 102t-129 42v-405h-93l-314 116v97l149 108l-61 40q-31 -11 -69 -11
q-101 0 -139 90q-13 -36 -47 -62t-86 -26q-45 0 -87 21v82q44 -18 80 -18q54 0 74.5 32.5t20.5 104.5h-240v80zM404 425q72 0 72 87q0 30 -6 58h-156q-1 -67 21.5 -106t68.5 -39z" />
    <glyph glyph-name="bnL_PHA" horiz-adv-x="1232" 
d="M275 141q-24 -3 -50 -3q-83 0 -132.5 45.5t-49.5 132.5q0 74 46 126.5t124 52.5q56 0 92 -26t46 -68q10 42 40.5 68.5t75.5 26.5q59 0 83 -41t24 -100l-25 -33q0 36 -17 64t-56 28q-77 0 -77 -110v-15h-94v16q0 51 -21.5 79t-62.5 28q-38 0 -61 -26t-23 -70
q0 -48 25.5 -72t68.5 -24q24 0 44 3v-82zM872 -10l-53 -68l-314 117v97l149 108l-105 70l57 68l77 -55v220h92v-42h4v-407h-94v41h-2v21l-82 -62zM1252 570h-1272v80h1272v-80zM1183 224q0 -90 -49 -139.5t-127 -49.5q-14 0 -20 1v88h12q90 0 90 100q0 66 -51.5 105
t-136.5 39l11 84q116 0 193.5 -62.5t77.5 -165.5z" />
    <glyph glyph-name="bnSS_PHA" horiz-adv-x="1047" 
d="M35 453q0 69 43 117h-98v80h1087v-80h-636q43 -48 43 -117q0 -43 -15 -79l91 -64v-90l-135 -102l218 -87v401h93q116 0 193.5 -62t77.5 -166q0 -90 -49 -139.5t-127 -49.5q-13 0 -20 1v88h12q90 0 90 100q0 63 -48 102t-129 42v-406h-93l-314 117v97l149 108l-63 42
q-58 -44 -151 -44q-101 0 -160 52t-59 139zM380 453q0 54 -35.5 85.5t-90.5 31.5q-44 0 -76 -21l196 -135q6 18 6 39zM254 334q51 0 85 28l-203 135q-7 -23 -7 -44q0 -55 35 -87t90 -32z" />
    <glyph glyph-name="bnD_BHA" horiz-adv-x="638" 
d="M170 233h-93v337h-97v80h678v-80h-488v-216q92 93 200 142h94v-296q-13 1 -40 1q-35 0 -57 -15t-22 -41q0 -55 79 -55q67 0 139 37q13 -45 13 -86q0 -89 -61.5 -147t-169.5 -58q-121 0 -194.5 77.5t-73.5 210.5q0 14 2 40h93q-1 -15 -1 -43q0 -98 46 -151t131 -53
q66 0 102.5 32t39.5 83q-38 -18 -84 -18q-72 0 -112.5 35.5t-40.5 94.5q0 52 32 88t85 46v121q-107 -66 -200 -166z" />
    <glyph glyph-name="bnM_BHA" horiz-adv-x="634" 
d="M567 123q0 -89 -61 -146.5t-171 -57.5q-120 0 -193.5 77t-73.5 210q0 27 1 41h93q-1 -15 -1 -43q0 -98 46 -151t131 -53q67 0 103.5 31.5t38.5 83.5q-38 -18 -84 -18q-73 0 -113 34t-40 96q1 50 28 83t73 45q-23 5 -69.5 26.5t-77.5 21.5q-49 0 -49 -52q0 -12 4 -32h-93
q-4 24 -4 43q0 89 77 115q-12 62 -54 93h-98v80h674v-80h-117q7 -37 7 -70q0 -110 -91 -139q19 -3 36 -6v-77q-40 6 -70 6q-83 0 -83 -56q0 -55 78 -55q67 0 139 37q14 -45 14 -87zM383 432q68 0 68 77q0 31 -6 61h-252q24 -40 27 -88q28 -5 80 -27.5t83 -22.5z" />
    <glyph glyph-name="bnB_BHA" horiz-adv-x="592" 
d="M544 33q0 -89 -61 -147t-170 -58q-121 0 -194.5 77.5t-73.5 210.5q0 14 2 40h93q-2 -30 -2 -42q0 -98 46.5 -151.5t131.5 -53.5q67 0 103 32t39 83q-38 -18 -84 -18q-72 0 -112.5 34.5t-40.5 95.5q0 51 31 87l-200 77v98q127 98 256 136v36h-328v80h632v-80h-213v-297
q32 -2 67 -8v-77q-40 6 -70 6q-83 0 -83 -57q0 -54 79 -54q67 0 139 36q13 -45 13 -86zM308 287v161q-92 -34 -169 -92z" />
    <glyph glyph-name="bnL_BHA" horiz-adv-x="781" 
d="M212 106l93 1q4 -168 172 -168q67 0 103.5 31.5t39.5 83.5q-38 -18 -84 -18q-73 0 -113.5 34t-40.5 95q1 64 45 100.5t111 36.5v24q0 93 -68 93q-73 0 -73 -102v-15h-94v16q0 100 -80 100q-36 0 -57 -24t-21 -66q0 -43 25.5 -64t67.5 -21q24 0 44 3v-83q-24 -3 -50 -3
q-82 0 -131.5 43t-49.5 125q0 71 45 121.5t119 50.5q55 0 90 -25t45 -68q8 41 40.5 67.5t77.5 26.5q47 0 70 -30v99h-558v80h821v-80h-173v-353q-40 6 -70 6q-83 0 -83 -57q0 -54 78 -54q68 0 140 36q13 -45 13 -86q0 -89 -61 -146.5t-171 -57.5q-117 0 -188.5 66t-73.5 182
z" />
    <glyph glyph-name="bnK_MA" horiz-adv-x="988" 
d="M699 329q0 -74 -45.5 -115.5t-121.5 -41.5q-13 0 -19 1v84h11q81 0 81 72q0 51 -46.5 76t-113.5 27v-300q89 -7 193.5 -41.5t171.5 -74.5v554h-365v-54q106 -2 180 -52t74 -135zM1008 570h-105v-644h-93q-71 44 -189.5 84t-203.5 40q-88 0 -88 -74q0 -20 1 -29h-95
q-2 28 -2 37q0 52 28.5 89.5t81.5 52.5l-275 144v101q133 117 283 143v56h-371v80h1028v-80zM351 216v213q-102 -24 -198 -105z" />
    <glyph glyph-name="bnG_MA" horiz-adv-x="839" 
d="M755 0h-96q-35 45 -94.5 84.5t-118.5 39.5q-38 0 -56.5 -20.5t-18.5 -54.5q0 -19 1 -28h-95q-2 28 -2 36q0 59 33 98t91 48v213q0 75 -33 118t-102 43q-97 0 -121 -84q79 -2 126 -38t48 -104q-1 -74 -53.5 -113.5t-142.5 -39.5q-42 0 -77 7v78q29 -4 76 -4q101 0 101 71
q0 70 -101 70h-77v21q0 91 54 155t150 64q108 0 152 -71v144h96v-83h364v-80h-104v-570zM659 104v466h-164v-371q98 -22 164 -95z" />
    <glyph glyph-name="bnNG_MA" horiz-adv-x="869" 
d="M368 467q74 0 74 61q0 26 -17.5 41.5t-46.5 15.5q-27 0 -41 -17t-14 -45v-51q23 -5 45 -5zM584 275q0 -110 -78 -170q93 -29 185 -85v550h-173q7 -20 7 -44q0 -63 -42.5 -98t-113.5 -35q-23 0 -46 3v-13q0 -58 59 -58q31 0 64 12t51.5 23.5t58.5 38.5q28 -56 28 -124z
M784 -71h-93q-206 122 -354 122q-83 0 -83 -74q0 -12 2 -28h-95q-3 19 -3 36q0 64 40 104q-68 35 -106.5 103t-38.5 164q0 19 2 47h89q-1 -12 -1 -46q0 -111 56 -165.5t145 -54.5q76 0 115.5 38t39.5 97v13q-56 -41 -124 -41q-63 0 -102.5 35.5t-39.5 102.5v40
q-101 47 -145 148h-108v80h168q24 -88 88 -138l1 10q0 61 37 99.5t103 38.5q30 0 60 -10h452v-80h-105v-641z" />
    <glyph glyph-name="bnTT_MA" horiz-adv-x="774" 
d="M479 332q0 -93 -69 -154q104 -30 185 -84v476h-410v-294q0 -73 76 -73q56 0 89 37.5t33 91.5q0 79 -84 79q-22 0 -41 -4v85q24 4 54 4q78 0 122.5 -44t44.5 -120zM96 54q0 65 47 106q-54 39 -54 116v294h-109v80h402q4 17 4 44q0 66 -60 66q-25 0 -77.5 -11.5
t-87.5 -11.5q-63 0 -103 21v75q42 -16 96 -16q31 0 89 12.5t90 12.5q71 0 106.5 -38t35.5 -99q0 -27 -6 -55h324v-80h-104v-570h-94q-71 50 -156.5 85t-158.5 35q-88 0 -88 -74q0 -20 1 -29h-94q-3 21 -3 37z" />
    <glyph glyph-name="bnDD_MA" horiz-adv-x="890" 
d="M593 333q0 -117 -87 -184q117 -32 206 -82v503h-365v-107q0 -61 59 -61q34 0 70.5 16t91.5 49q25 -68 25 -134zM806 -23h-94q-97 54 -204.5 87.5t-194.5 33.5q-88 0 -88 -75q0 -10 2 -28h-95q-3 19 -3 36q0 69 51 109q-121 74 -121 251q0 33 6 72h93q-4 -32 -4 -71
q0 -95 48 -152.5t141 -57.5q78 0 118.5 44t40.5 111v12q-52 -30 -109 -30q-65 0 -103 37.5t-38 105.5v108h-272v80h930v-80h-104v-593z" />
    <glyph glyph-name="bnNN_MA" horiz-adv-x="834" 
d="M854 570h-104v-570h-96q-35 45 -94.5 84.5t-118.5 39.5q-37 0 -56 -20.5t-19 -54.5q0 -19 1 -28h-95q-2 28 -2 36q0 59 33 98t92 49v218q0 64 -35.5 110t-105.5 46q-50 0 -79.5 -28.5t-29.5 -77.5q0 -51 28 -76.5t76 -25.5q32 0 58 5v-83q-31 -8 -67 -8q-87 0 -139.5 50
t-52.5 138q0 82 53.5 135t138.5 53q105 0 155 -73v146h95v-83h364v-80zM654 104v466h-164v-371q98 -22 164 -95z" />
    <glyph glyph-name="bnT_MA" horiz-adv-x="864" 
d="M780 0h-94q-96 54 -201 87t-186 33q-88 0 -88 -74q0 -20 1 -29h-95q-2 28 -2 37q0 66 48 106q-108 63 -108 214q0 56 8 96h93q-8 -51 -8 -97q0 -84 44.5 -126t126.5 -42q73 0 114.5 37.5t41.5 105.5q0 88 -70 88q-30 0 -46.5 -22t-16.5 -55t8 -62h-86q-11 35 -11 70
q0 65 39.5 107t109.5 42q79 0 123 -48.5t44 -120.5q0 -113 -84 -176q114 -34 201 -83v482h-706v80h904v-80h-104v-570z" />
    <glyph glyph-name="bnD_MA" horiz-adv-x="805" 
d="M825 570h-105v-570h-95q-37 46 -93 85t-114 39q-38 0 -57 -20.5t-19 -54.5q0 -10 2 -28h-95q-3 21 -3 36q0 59 33.5 98.5t93.5 48.5v188q-111 -69 -205 -168h-93v346h-95v80h845v-80zM467 490v-291q95 -23 158 -95v466h-457v-229q49 48 107 89.5t98 59.5h94z" />
    <glyph glyph-name="bnDH_MA" horiz-adv-x="837" 
d="M857 570h-105v-570h-96q-27 43 -84 83.5t-115 40.5q-38 0 -57 -20.5t-19 -54.5q0 -10 2 -28h-95q-3 21 -3 36q0 65 40 105l-258 74l1 2v84q61 35 119 65q-61 10 -96 43.5t-35 87.5q0 64 47 103t129 39q30 0 54 -4v-80q-20 3 -38 3q-40 0 -66 -17.5t-26 -51.5
q0 -33 25 -49.5t66 -16.5q45 0 88 17q24 13 65 31v158h457v-80zM656 108v462h-163v-369q96 -19 163 -93zM400 227v178l-218 -114z" />
    <glyph glyph-name="bnN_MA" horiz-adv-x="812" 
d="M727 0h-96q-33 44 -93 84t-119 40q-38 0 -57 -20.5t-19 -54.5q0 -10 2 -28h-95q-3 21 -3 36q0 58 33 97.5t91 48.5q-10 69 -54 118t-100 49q-85 0 -85 -93q0 -25 3 -44h-94q-4 23 -4 47q0 78 42.5 127t123.5 49q115 0 171 -100v214h-394v80h852v-80h-105v-570zM631 104
v466h-163v-371q94 -21 163 -95z" />
    <glyph glyph-name="bnP_MA" horiz-adv-x="860" 
d="M154 455q54 -27 83 -88l177 108q-13 47 -46 74.5t-86 27.5q-59 0 -92.5 -36t-35.5 -86zM880 570h-104v-570h-96q-35 45 -94.5 84.5t-118.5 39.5q-37 0 -56 -20.5t-19 -54.5q0 -10 2 -28h-95q-3 21 -3 36q0 59 33 98t92 49v176l-357 -221v102l99 61q-39 69 -104 91v35
q0 83 55 147.5t153 64.5q108 0 154 -75v148h96v-83h363v-80zM680 104v466h-163v-371q94 -21 163 -95z" />
    <glyph glyph-name="bnM_MA" horiz-adv-x="827" 
d="M383 423q69 0 69 79q0 38 -8 68h-253q27 -42 31 -92q29 -5 78.5 -30t82.5 -25zM847 570h-105v-570h-96q-35 45 -94 84.5t-118 39.5q-38 0 -57 -20.5t-19 -54.5q0 -10 2 -28h-95q-3 21 -3 36q0 55 29.5 93t81.5 51v140q-40 3 -91 30.5t-84 27.5q-48 0 -48 -53q0 -17 3 -32
h-92q-5 22 -5 43q0 90 77 116q-12 63 -56 97h-97v80h867v-80zM545 492q0 -99 -76 -135v-155q105 -19 177 -98v466h-109q8 -35 8 -78z" />
    <glyph glyph-name="bnL_MA" horiz-adv-x="986" 
d="M902 0h-96q-35 45 -94.5 84.5t-118.5 39.5q-37 0 -56 -20.5t-19 -54.5q0 -19 1 -28h-95q-2 28 -2 36q0 59 33 98t92 49v114q0 37 -16 64.5t-54 27.5q-74 0 -74 -108v-15h-97v18q0 104 -81 104q-38 0 -59.5 -26t-21.5 -70q0 -95 97 -95q20 0 44 3v-82q-24 -4 -53 -4
q-84 0 -134 47t-50 132q0 75 45.5 126t123.5 51q56 0 91.5 -25t45.5 -68q9 41 39 67.5t74 26.5q53 0 80 -39v117h-567v80h1026v-80h-104v-570zM806 104v466h-164v-371q98 -22 164 -95z" />
    <glyph glyph-name="bnSH_MA" horiz-adv-x="908" 
d="M823 0h-96q-33 44 -93 84t-119 40q-38 0 -57 -20.5t-19 -54.5q0 -10 2 -28h-95q-3 21 -3 36q0 59 33.5 98t91.5 48v246q0 58 -25 93.5t-79 35.5q-42 0 -68 -28t-26 -74q0 -47 26.5 -73.5t71.5 -26.5q25 0 43 3v-84q-25 -5 -51 -5q-91 0 -137 65q-44 -65 -129 -65
q-28 0 -59 6v84q24 -4 49 -4q43 0 67.5 25.5t24.5 74.5q0 45 -25.5 69.5t-72.5 24.5h-98v80h107q88 0 134 -62q48 72 134 72q74 0 113 -47v120h96v-83h363v-80h-104v-570zM727 104v466h-163v-371q94 -21 163 -95z" />
    <glyph glyph-name="bnS_MA" horiz-adv-x="847" 
d="M404 416q72 0 72 87q0 27 -8 67h-154v-5q-1 -70 21.5 -109.5t68.5 -39.5zM283 57q0 56 30 94.5t84 50.5v139q-97 4 -132 86q-14 -37 -48 -62.5t-85 -25.5q-45 0 -87 21v82q44 -18 80 -18q54 0 74.5 33t20.5 108v5h-240v80h887v-80h-104v-570h-96q-35 45 -94.5 84.5
t-118.5 39.5q-37 0 -56 -20.5t-19 -54.5q0 -19 1 -28h-94q-3 21 -3 36zM569 495q0 -97 -76 -136v-158q103 -19 174 -97v466h-106q8 -44 8 -75z" />
    <glyph glyph-name="bnSS_MA" horiz-adv-x="781" 
d="M500 453q0 -62 -31.5 -110t-88.5 -70v-74q63 -9 122.5 -37.5t98.5 -66.5v475h-144q43 -48 43 -117zM280 570q-43 0 -74 -20l193 -140q7 18 7 43q0 54 -35.5 85.5t-90.5 31.5zM155 453q0 -55 35 -87t90 -32q51 0 84 27l-200 139q-9 -21 -9 -47zM797 570h-100v-574h-96
q-40 46 -111 84.5t-135 38.5q-41 0 -61 -20t-20 -54q0 -12 2 -28h-95q-3 19 -3 36q0 54 28 92t78 51v59h-4q-100 0 -159.5 55t-59.5 143q0 69 43 117h-124v80h817v-80z" />
    <glyph glyph-name="bnH_MA" horiz-adv-x="950" 
d="M307 271q0 -33 -14 -61q141 -9 245 -102v253q-138 20 -254 108q-19 -63 -94 -81q117 -20 117 -117zM633 0h-95q-133 128 -260 128q-49 0 -76.5 -25t-27.5 -71v-15h-94q0 2 -1.5 14t-1.5 19q0 53 29 92.5t82 56.5q24 33 24 73q0 68 -118 68h-43v83h33q110 0 110 91
q0 29 -15 56h-199v80h990v-80h-337v-138q87 3 147 30h93v-357h-93v282q-64 -28 -147 -31v-356zM538 439v131h-262l1 -1q46 -43 114.5 -79.5t146.5 -50.5z" />
    <glyph glyph-name="bnK_SS_MA" horiz-adv-x="1194" 
d="M518 436q24 0 53 6v128h-119v-68q0 -36 16.5 -51t49.5 -15zM927 326q0 -65 -42 -101.5t-113 -36.5q-20 0 -27 1v77h10q78 0 78 63q0 65 -84 65q-35 0 -85 -12v-241q90 -9 188.5 -41t163.5 -70v540h-352v-108q55 12 90 12q80 0 126.5 -39t46.5 -109zM284 319q0 -23 -9 -43
q173 -6 296 -64v149q-35 -7 -55 -7q-74 1 -117 39.5t-43 107.5v69h-102q11 -22 11 -51q0 -81 -91 -105q52 -4 81 -29.5t29 -65.5zM1214 570h-104v-631h-94v1q-70 43 -187.5 82.5t-208.5 39.5q-88 0 -88 -74q0 -12 2 -28h-95q-3 20 -3 36q0 54 31.5 91.5t87.5 50.5
q-147 59 -294 59q-48 0 -75 -25t-27 -70v-14h-91q-3 16 -3 31q0 53 29 92t82 55q15 21 15 45q0 30 -26 43.5t-84 13.5h-28v80h27q93 0 93 72q0 28 -12 50h-181v80h1234v-80z" />
    <glyph glyph-name="bnK_LA" horiz-adv-x="840" 
d="M529 -165h-93v151q0 81 -55 81q-27 0 -41 -23.5t-14 -63.5v-19h-83v19q0 85 -63 85q-29 0 -45.5 -20.5t-16.5 -57.5q0 -38 21.5 -58t57.5 -20q25 0 44 3v-73q-24 -3 -48 -3q-71 0 -114.5 40t-43.5 111q0 65 37.5 108.5t98.5 43.5q92 0 113 -80q5 35 30 58t60 23
q40 0 62 -27v58l-279 116v101q66 57 131 90.5t148 48.5v43h-456v80h880v-80h-331v-42q105 -2 180 -53.5t75 -138.5q0 -74 -45.5 -115.5t-121.5 -41.5q-13 0 -20 1v84h12q81 0 81 72q0 53 -47 79.5t-114 28.5v-609zM436 259v185q-104 -24 -193 -100z" />
    <glyph glyph-name="bnG_LA" horiz-adv-x="618" 
d="M533 -147h-95v157q0 36 -13.5 59t-42.5 23q-28 0 -42.5 -24t-14.5 -64v-19h-83v20q0 85 -64 85q-29 0 -45.5 -21t-16.5 -57q0 -78 80 -78q15 0 41 2v-72q-20 -4 -47 -4q-71 0 -114 40t-43 112q0 64 37.5 107.5t98.5 43.5q92 0 114 -79q5 35 30 58t62 22q42 0 63 -28v280
q0 75 -34 119.5t-102 44.5q-93 0 -119 -82q78 -2 125 -38.5t48 -104.5q-1 -73 -53.5 -112t-142.5 -39q-36 0 -78 8v75q34 -3 76 -3q102 0 102 71q0 69 -102 69h-76v17q0 91 54 155t150 64q108 0 152 -71v144h95v-83h105v-80h-105v-717z" />
    <glyph glyph-name="bnT_LA" horiz-adv-x="642" 
d="M230 -211q-23 -3 -48 -3q-71 0 -114 40t-43 111q0 65 37.5 108.5t98.5 43.5q47 0 75.5 -22t38.5 -58q5 35 30 58t62 23q42 0 63 -28v77q-39 -11 -85 -11q-124 0 -191.5 66t-67.5 186q0 46 8 96h93q-8 -51 -8 -97q0 -167 164 -167q72 0 112.5 37t40.5 105q0 39 -16.5 63.5
t-51.5 24.5q-30 0 -45 -21.5t-15 -55.5q0 -32 7 -62h-85q-11 30 -11 70q0 65 38.5 107t108.5 42q76 0 119.5 -48.5t43.5 -121.5q0 -101 -66 -162v-401h-93v147q0 81 -56 81q-28 0 -42 -23.5t-14 -63.5v-19h-84v19q0 85 -64 85q-29 0 -45.5 -20.5t-16.5 -57.5q0 -78 81 -78
q21 0 41 3v-73zM662 570h-682v80h682v-80z" />
    <glyph glyph-name="bnP_LA" horiz-adv-x="611" 
d="M165 474q47 -24 77 -78l180 88q-28 97 -131 97q-54 0 -86.5 -31t-39.5 -76zM526 -95h-96v153q0 81 -55 81q-28 0 -42.5 -23.5t-14.5 -63.5v-19h-83v20q0 85 -65 85q-28 0 -44.5 -21t-16.5 -57q0 -78 80 -78q15 0 41 2v-72q-20 -4 -47 -4q-72 0 -114.5 40t-42.5 112
q0 64 37.5 107.5t98.5 43.5q92 0 114 -79q5 35 30 58t62 22q41 0 62 -27v210l-356 -180v98l91 45q-34 55 -94 76v18q0 83 54 145.5t152 62.5q106 0 153 -74v147h96v-83h105v-80h-105v-665z" />
    <glyph glyph-name="bnPH_LA" horiz-adv-x="816" 
d="M243 -189q-24 -3 -47 -3q-70 0 -113.5 38.5t-43.5 109.5q0 66 37 108.5t98 42.5q45 0 73 -22.5t37 -58.5q5 35 30 58t59 23q40 0 60 -26v50l-314 102v96l149 93l-148 99v49h-140v80h856v-80h-642l155 -106v-89l-129 -84l213 -74v291h89q114 0 185 -47.5t71 -135.5
q0 -76 -44 -118t-118 -42q-15 0 -22 1v79h13q82 0 82 80q0 51 -46 76.5t-121 25.5v-617h-89v164q-7 58 -53 58q-26 0 -40 -22t-14 -60v-17h-81v17q0 80 -63 80q-28 0 -43.5 -19.5t-15.5 -54.5q0 -38 21 -56t55 -18q25 0 44 3v-74z" />
    <glyph glyph-name="bnB_LA" horiz-adv-x="614" 
d="M526 -159h-90v151q0 76 -54 76q-26 0 -40 -22t-14 -60v-17h-81v17q0 79 -62 79q-28 0 -44.5 -20t-16.5 -54q0 -37 21.5 -55t55.5 -18q18 0 44 2v-73q-21 -4 -47 -4q-70 0 -114 38.5t-44 109.5q0 66 38 108.5t99 42.5q45 0 72.5 -22.5t36.5 -57.5q5 35 30 59t60 23
q41 0 60 -27v57l-303 108v101q66 50 147 89.5t156 54.5v43h-456v80h651v-80h-105v-729zM436 262v181q-106 -29 -209 -102z" />
    <glyph glyph-name="bnBH_LA" horiz-adv-x="640" 
d="M525 -256h-89v143q0 76 -53 76q-55 0 -55 -82v-12h-81v13q0 79 -62 79q-28 0 -44.5 -19.5t-16.5 -51.5q0 -36 21.5 -53.5t56.5 -17.5q25 0 43 3v-69q-21 -4 -46 -4q-69 0 -112 37t-43 104q0 61 36.5 103.5t96.5 42.5q88 0 110 -78q5 34 29.5 56.5t59.5 22.5q40 0 60 -26
v77q-44 -14 -95 -14q-120 0 -195.5 72t-75.5 207q0 20 2 50h93q-2 -34 -2 -52q0 -94 49 -145t132 -51q68 0 105 32.5t37 83.5q-38 -19 -86 -19q-68 0 -108.5 34.5t-40.5 93.5q1 62 42.5 97.5t107.5 35.5q44 0 76 -8v-73q-28 4 -58 4q-75 0 -75 -55q0 -53 75 -53q66 0 138 42
q16 -47 16 -93q0 -78 -48 -132v-401zM660 570h-680v80h680v-80z" />
    <glyph glyph-name="bnM_LA" horiz-adv-x="634" 
d="M411 429q35 0 51.5 21.5t16.5 56.5t-6 63h-255q26 -38 31 -86q28 -5 78 -30t84 -25zM530 -35h-87v151q0 81 -54 81q-27 0 -41.5 -24t-14.5 -63v-19h-83v19q0 85 -63 85q-29 0 -45.5 -20t-16.5 -56q0 -39 22 -59.5t57 -20.5q26 0 44 3v-73q-24 -3 -47 -3
q-72 0 -115.5 40.5t-43.5 112.5q0 64 37.5 107t99.5 43q91 0 112 -80q5 35 30 58t61 23q40 0 61 -26v106q-18 -2 -29 -2q-48 0 -102 28t-87 28q-48 0 -48 -52q0 -19 4 -32h-93q-5 22 -5 43q0 89 76 115q-12 59 -54 92h-125v80h674v-80h-89q8 -34 8 -72q0 -72 -43 -112v-421z
" />
    <glyph glyph-name="bnL_LA" horiz-adv-x="699" 
d="M282 179q-12 -2 -36 -4q86 -11 103 -86q7 39 35 64.5t67 25.5q49 0 74 -38v192q0 35 -15 61t-51 26q-35 0 -54 -24.5t-19 -69.5v-19h-85v19q0 43 -20 68t-59 25q-35 0 -57 -22.5t-22 -61.5q0 -83 93 -83q25 0 46 4v-77zM615 -150h-90v163q0 87 -64 87q-32 0 -50 -25
t-18 -69v-19h-86v19q0 93 -77 93q-34 0 -54 -23t-20 -60q0 -84 90 -84q24 0 45 4v-77q-30 -5 -56 -5q-73 0 -120 40.5t-47 121.5q0 63 37.5 107.5t98.5 51.5q-67 6 -107.5 45.5t-40.5 114.5q0 69 45 115t114 46q51 0 84.5 -24.5t43.5 -65.5q7 39 36 66t69 27q52 0 77 -42
v113h-545v80h739v-80h-104v-720z" />
    </font>
</defs>
</svg>
