<?xml version="1.0" standalone="no"?>
<!DOCTYPE svg PUBLIC "-//W3C//DTD SVG 1.1//EN" "http://www.w3.org/Graphics/SVG/1.1/DTD/svg11.dtd" >
<svg xmlns="http://www.w3.org/2000/svg" xmlns:xlink="http://www.w3.org/1999/xlink" version="1.1">
<metadata>
Created by FontForge 20190801 at Fri May  5 13:18:43 2017
 By Jimmy Wärting
Copyright (c) 2015 Indian Type Foundry (info@indiantypefoundry.com)
</metadata>
<defs>
<font id="HindSiliguri-Bold" horiz-adv-x="0" >
  <font-face 
    font-family="Hind Siliguri"
    font-weight="700"
    font-stretch="normal"
    units-per-em="1000"
    panose-1="2 0 0 0 0 0 0 0 0 0"
    ascent="800"
    descent="-200"
    x-height="507"
    cap-height="674"
    bbox="-672 -493 1652 1115.06"
    underline-thickness="50"
    underline-position="-150"
    unicode-range="U+0020-FB02"
  />
<missing-glyph horiz-adv-x="756" 
d="M596 0h-436v701h436v-701zM241 625v-549h275v549h-275z" />
    <glyph glyph-name=".notdef" horiz-adv-x="756" 
d="M596 0h-436v701h436v-701zM241 625v-549h275v549h-275z" />
    <glyph glyph-name=".null" 
 />
    <glyph glyph-name="nonmarkingreturn" horiz-adv-x="333" 
 />
    <glyph glyph-name="space" unicode=" " horiz-adv-x="250" 
 />
    <glyph glyph-name="exclam" unicode="!" horiz-adv-x="289" 
d="M214 236h-139v438h139v-438zM234 83q0 -38 -26.5 -64.5t-64.5 -26.5t-64.5 26.5t-26.5 64.5t26.5 64.5t64.5 26.5t64.5 -26.5t26.5 -64.5z" />
    <glyph glyph-name="quotedbl" unicode="&#x22;" horiz-adv-x="387" 
d="M347 420h-122v261h122v-261zM162 420h-122v261h122v-261z" />
    <glyph glyph-name="numbersign" unicode="#" horiz-adv-x="757" 
d="M496 0h-123l32 154h-136l-33 -154h-123l32 154h-100v111h124l28 135h-118v116h143l33 157h124l-33 -157h136l33 157h124l-33 -157h106v-116h-131l-29 -135h126v-111h-149zM429 265l28 135h-136l-29 -135h137z" />
    <glyph glyph-name="dollar" unicode="$" horiz-adv-x="514" 
d="M299 -118h-121v113q-83 8 -138 39v155q91 -66 194 -66q35 0 58 18.5t23 48.5q0 10 -3 19t-11 17t-15.5 13.5t-22 13t-24.5 12.5t-29.5 14t-31.5 14q-65 30 -104.5 74t-39.5 117q0 77 51 128.5t142 62.5v115h122v-117q53 -8 100 -29v-144q-81 47 -168 47q-39 0 -59.5 -16
t-20.5 -41t25 -44.5t75 -41.5q31 -14 51.5 -24.5t47 -29t42 -39t26.5 -50.5t11 -65q0 -76 -48.5 -129t-131.5 -69v-116z" />
    <glyph glyph-name="percent" unicode="%" horiz-adv-x="973" 
d="M358 -1h-131l379 708h132zM425 532q0 -79 -55.5 -134.5t-134.5 -55.5t-134.5 55.5t-55.5 134.5t55.5 134.5t134.5 55.5t134.5 -55.5t55.5 -134.5zM162 532q0 -30 21.5 -51.5t51.5 -21.5t51.5 21.5t21.5 51.5t-21.5 51.5t-51.5 21.5t-51.5 -21.5t-21.5 -51.5zM928 182
q0 -79 -55.5 -134.5t-134.5 -55.5t-134.5 55.5t-55.5 134.5t55.5 134.5t134.5 55.5t134.5 -55.5t55.5 -134.5zM665 182q0 -30 21.5 -51.5t51.5 -21.5t51.5 21.5t21.5 51.5t-21.5 51.5t-51.5 21.5t-51.5 -21.5t-21.5 -51.5z" />
    <glyph glyph-name="ampersand" unicode="&#x26;" horiz-adv-x="742" 
d="M272 504q0 -44 69 -113q75 41 75 101q0 37 -20.5 57t-56.5 20q-29 0 -48 -17t-19 -48zM737 0h-179l-39 39q-81 -47 -184 -47q-132 0 -208.5 56t-76.5 136q0 124 142 170q-68 75 -68 148q0 89 61 137.5t154 48.5q105 0 164.5 -49.5t59.5 -138.5q0 -59 -33.5 -104.5
t-108.5 -83.5l98 -96q18 39 18 85h131q0 -100 -56 -178zM336 112q47 0 89 18l-127 124q-3 3 -9.5 9t-10.5 10q-46 -16 -62.5 -36t-16.5 -48q0 -34 39 -55.5t98 -21.5z" />
    <glyph glyph-name="quotesingle" unicode="'" horiz-adv-x="202" 
d="M162 420h-122v261h122v-261z" />
    <glyph glyph-name="parenleft" unicode="(" horiz-adv-x="338" 
d="M358 -196h-155q-163 203 -163 455q0 260 157 448h151q-73 -89 -113.5 -216t-40.5 -236q0 -106 42 -229.5t122 -221.5z" />
    <glyph glyph-name="parenright" unicode=")" horiz-adv-x="338" 
d="M135 -196h-155q80 98 122 221.5t42 229.5q0 109 -40.5 236t-113.5 216h151q157 -188 157 -448q0 -252 -163 -455z" />
    <glyph glyph-name="asterisk" unicode="*" horiz-adv-x="508" 
d="M431 312l-96 -69l-57 79q-16 22 -22 43q-8 -19 -24 -42l-59 -80l-95 70l58 79q15 20 35 35q-23 0 -49 9l-94 31l37 112l93 -30q26 -9 45 -23q-7 24 -7 50v98h118v-98q0 -28 -8 -50q17 13 45 22l94 30l36 -112l-92 -30q-25 -8 -50 -8h-2q23 -17 36 -36z" />
    <glyph glyph-name="plus" unicode="+" horiz-adv-x="589" 
d="M544 274h-183v-180h-134v180h-182v130h182v181h134v-181h183v-130z" />
    <glyph glyph-name="comma" unicode="," horiz-adv-x="294" 
d="M119 -127h-126l101 261h161z" />
    <glyph glyph-name="hyphen" unicode="-" horiz-adv-x="357" 
d="M312 202h-267v120h267v-120z" />
    <glyph glyph-name="period" unicode="." horiz-adv-x="258" 
d="M218 81q0 -37 -26 -63t-63 -26t-63 26t-26 63t26 63t63 26t63 -26t26 -63z" />
    <glyph glyph-name="slash" unicode="/" horiz-adv-x="464" 
d="M149 -103h-151l359 810h152z" />
    <glyph glyph-name="zero" unicode="0" horiz-adv-x="547" 
d="M512 330q0 -154 -60.5 -246t-178.5 -92t-178 91.5t-60 246.5q0 156 60 247t178 91t178.5 -91t60.5 -247zM184 330q0 -208 89 -208q90 0 90 208t-90 208q-89 0 -89 -208z" />
    <glyph glyph-name="one" unicode="1" horiz-adv-x="380" 
d="M320 0h-145v497l-165 -99v149l184 107h126v-654z" />
    <glyph glyph-name="two" unicode="2" horiz-adv-x="501" 
d="M466 0h-436v113q108 74 190.5 164t82.5 159q0 42 -25 66.5t-76 24.5q-85 0 -161 -63v141q33 24 86 41t104 17q102 0 162.5 -53.5t60.5 -149.5q0 -173 -220 -336h232v-124z" />
    <glyph glyph-name="three" unicode="3" horiz-adv-x="483" 
d="M448 180q0 -84 -63.5 -134.5t-177.5 -50.5q-107 0 -177 34v140q80 -44 165 -44q49 0 76.5 21t27.5 53q0 73 -135 73h-35v120h35q53 0 87 18t34 54q0 69 -90 69q-69 0 -139 -43v136q74 37 149 37q106 0 168 -50.5t62 -131.5q0 -111 -101 -153q114 -27 114 -148z" />
    <glyph glyph-name="four" unicode="4" horiz-adv-x="562" 
d="M173 263h144v296zM462 0h-145v139h-287v124l200 393h232v-393h80v-124h-80v-139z" />
    <glyph glyph-name="five" unicode="5" horiz-adv-x="500" 
d="M470 219q0 -102 -67.5 -163.5t-191.5 -61.5q-109 0 -176 35v138q68 -42 152 -42q134 0 134 96q0 36 -27.5 57t-82.5 21q-77 0 -148 -33v390h367v-124h-225v-111q22 3 44 3q107 0 164 -55t57 -150z" />
    <glyph glyph-name="six" unicode="6" horiz-adv-x="537" 
d="M512 212q0 -99 -62.5 -165.5t-170.5 -66.5q-121 0 -182.5 86.5t-61.5 232.5q0 167 91.5 267t231.5 100q53 0 103 -16v-135q-39 21 -91 21q-71 0 -116.5 -43.5t-61.5 -116.5q54 46 129 46q86 0 138.5 -57t52.5 -153zM280 110q39 0 61 27t22 72q0 41 -21.5 65.5t-60.5 24.5
q-54 0 -95 -43q11 -146 94 -146z" />
    <glyph glyph-name="seven" unicode="7" horiz-adv-x="480" 
d="M206 0h-154l255 531h-287v124h440v-124z" />
    <glyph glyph-name="eight" unicode="8" horiz-adv-x="545" 
d="M510 182q0 -86 -66.5 -139t-173.5 -53q-108 0 -171.5 50.5t-63.5 136.5q0 106 95 153q-85 49 -85 141t63.5 143.5t161.5 51.5q102 0 165.5 -49t63.5 -146q0 -90 -82 -138q93 -43 93 -151zM181 181q0 -31 21.5 -53t68.5 -22q46 0 69.5 22.5t23.5 54.5q0 36 -24.5 59
t-68.5 23q-45 0 -67.5 -25t-22.5 -59zM192 473q0 -38 23 -59t58 -21q34 0 57 21t23 59q0 77 -83 77q-40 0 -59 -22.5t-19 -54.5z" />
    <glyph glyph-name="nine" unicode="9" horiz-adv-x="533" 
d="M254 346q60 0 97 45q-12 142 -96 142q-39 0 -62.5 -25t-23.5 -70q0 -40 23 -66t62 -26zM498 348q0 -179 -85 -267.5t-227 -88.5q-68 0 -119 19v138q52 -25 103 -25q78 0 121 35.5t56 111.5q-43 -43 -130 -43q-88 0 -142.5 56.5t-54.5 150.5q0 98 61.5 163t166.5 65
q117 0 183.5 -84.5t66.5 -230.5z" />
    <glyph glyph-name="colon" unicode=":" horiz-adv-x="286" 
d="M231 419q0 -37 -25.5 -62.5t-62.5 -25.5t-62.5 25.5t-25.5 62.5t25.5 62.5t62.5 25.5t62.5 -25.5t25.5 -62.5zM231 88q0 -37 -25.5 -62.5t-62.5 -25.5t-62.5 25.5t-25.5 62.5t25.5 62.5t62.5 25.5t62.5 -25.5t25.5 -62.5z" />
    <glyph glyph-name="semicolon" unicode=";" horiz-adv-x="294" 
d="M119 -127h-126l101 261h161zM249 419q0 -37 -25.5 -62.5t-62.5 -25.5t-62.5 25.5t-25.5 62.5t25.5 62.5t62.5 25.5t62.5 -25.5t25.5 -62.5z" />
    <glyph glyph-name="less" unicode="&#x3c;" horiz-adv-x="589" 
d="M544 237v-144l-499 178v138l499 178v-144l-354 -103z" />
    <glyph glyph-name="equal" unicode="=" horiz-adv-x="589" 
d="M544 394h-499v120h499v-120zM544 166h-499v120h499v-120z" />
    <glyph glyph-name="greater" unicode="&#x3e;" horiz-adv-x="589" 
d="M544 271l-499 -178v144l354 103l-354 103v144l499 -178v-138z" />
    <glyph glyph-name="question" unicode="?" horiz-adv-x="458" 
d="M262 236h-133l-3 151q154 0 154 94q0 36 -21.5 57.5t-63.5 21.5q-65 0 -130 -43v137q60 28 153 28q94 0 152 -49.5t58 -133.5q0 -45 -18 -81.5t-45 -57t-53 -31.5t-47 -11zM285 83q0 -38 -26.5 -64.5t-64.5 -26.5t-64.5 26.5t-26.5 64.5t26.5 64.5t64.5 26.5t64.5 -26.5
t26.5 -64.5z" />
    <glyph glyph-name="at" unicode="@" horiz-adv-x="977" 
d="M664 -175q-92 -41 -196 -41q-134 0 -233 58.5t-147 151.5t-48 206q0 129 65 238t175 171t239 62q112 0 207.5 -46t155.5 -137.5t60 -210.5q0 -118 -59.5 -197.5t-143.5 -79.5q-118 0 -153 109q-20 -53 -60.5 -80.5t-91.5 -27.5q-81 0 -128 61.5t-47 150.5q0 104 61 167.5
t144 63.5q81 0 120 -73q4 49 5 71h116l-1 -20q-12 -180 -12 -201q0 -108 51 -108q35 0 57 41.5t22 112.5q0 142 -86.5 214t-221.5 72q-103 0 -183.5 -51.5t-121.5 -132.5t-41 -173q0 -135 86 -214.5t213 -79.5q105 0 201 46zM476 105q34 0 62.5 26t37.5 73q0 6 0.5 20
t0.5 20q-6 47 -31 71.5t-58 24.5q-42 0 -71.5 -35t-29.5 -98q0 -46 26.5 -74t62.5 -28z" />
    <glyph glyph-name="A" unicode="A" horiz-adv-x="690" 
d="M269 286l-7 -24h162l-7 24q-29 98 -47.5 167t-22.5 89l-4 20q-8 -55 -74 -276zM184 0h-161l225 674h194l225 -674h-165l-41 138h-236z" />
    <glyph glyph-name="B" unicode="B" horiz-adv-x="605" 
d="M356 0h-291v674h262q111 0 169 -52.5t58 -133.5q0 -53 -28 -93t-73 -54q117 -35 117 -158q0 -80 -57.5 -131.5t-156.5 -51.5zM301 551h-82v-151h57q60 0 90.5 22t30.5 58q0 71 -96 71zM301 279h-82v-156h81q114 0 114 78t-113 78z" />
    <glyph glyph-name="C" unicode="C" horiz-adv-x="613" 
d="M563 30q-61 -38 -176 -38q-148 0 -247.5 95.5t-99.5 247.5q0 154 96.5 251t251.5 97q114 0 175 -38v-148q-75 46 -167 46q-81 0 -136 -56.5t-55 -151.5q0 -93 55 -147.5t142 -54.5q94 0 161 48v-151z" />
    <glyph glyph-name="D" unicode="D" horiz-adv-x="683" 
d="M295 0h-230v674h232q152 0 249 -93.5t97 -232.5q0 -162 -95.5 -255t-252.5 -93zM292 547h-69v-421h70q93 0 143.5 58t50.5 164q0 90 -51 144.5t-144 54.5z" />
    <glyph glyph-name="E" unicode="E" horiz-adv-x="544" 
d="M484 0h-419v674h415v-123h-260v-153h232v-122h-232v-153h264v-123z" />
    <glyph glyph-name="F" unicode="F" horiz-adv-x="506" 
d="M443 254h-223v-254h-155v674h411v-123h-256v-174h223v-123z" />
    <glyph glyph-name="G" unicode="G" horiz-adv-x="706" 
d="M646 62q-96 -70 -242 -70q-162 0 -263 93t-101 253q0 158 105.5 253t267.5 95q114 0 197 -42v-154q-96 55 -197 55q-95 0 -151 -56.5t-56 -150.5q0 -95 55 -151t150 -56q43 0 85 13v127h-109v131h259v-340z" />
    <glyph glyph-name="H" unicode="H" horiz-adv-x="686" 
d="M621 0h-155v269h-247v-269h-154v674h154v-274h247v274h155v-674z" />
    <glyph glyph-name="I" unicode="I" horiz-adv-x="304" 
d="M229 0h-154v674h154v-674z" />
    <glyph glyph-name="J" unicode="J" horiz-adv-x="392" 
d="M332 204q0 -97 -51.5 -151t-143.5 -54q-69 0 -107 20v136q37 -23 77 -23q71 0 71 76v465h154v-469z" />
    <glyph glyph-name="K" unicode="K" horiz-adv-x="662" 
d="M645 0h-193l-226 335l218 339h183l-221 -337zM219 0h-154v674h154v-674z" />
    <glyph glyph-name="L" unicode="L" horiz-adv-x="488" 
d="M468 0h-403v674h154v-539h249v-135z" />
    <glyph glyph-name="M" unicode="M" horiz-adv-x="893" 
d="M204 0h-154l58 674h169l94 -244q24 -61 41 -112t22 -72l5 -20q16 66 70 204l95 244h169l70 -674h-154l-25 261l-13 197q-26 -75 -72 -197l-95 -254h-91l-94 254q-23 62 -39 111t-21 68l-5 18q0 -71 -9 -197z" />
    <glyph glyph-name="N" unicode="N" horiz-adv-x="697" 
d="M219 0h-154v674h169l157 -279q33 -59 57.5 -110.5t31.5 -72.5l8 -22q-10 74 -10 205v279h154v-674h-169l-161 279q-32 54 -56.5 106.5t-33.5 77.5l-8 25q15 -90 15 -209v-279z" />
    <glyph glyph-name="O" unicode="O" horiz-adv-x="736" 
d="M696 339q0 -155 -89.5 -250.5t-238.5 -95.5q-150 0 -239 95t-89 251q0 155 89.5 250.5t238.5 95.5q150 0 239 -95t89 -251zM205 339q0 -95 44 -150.5t119 -55.5t119 55.5t44 150.5t-44 150.5t-119 55.5t-119 -55.5t-44 -150.5z" />
    <glyph glyph-name="P" unicode="P" horiz-adv-x="563" 
d="M297 218h-78v-218h-154v674h232q112 0 181.5 -63t69.5 -160q0 -111 -72.5 -172t-178.5 -61zM279 551h-60v-211h51q122 0 122 111q0 100 -113 100z" />
    <glyph glyph-name="Q" unicode="Q" horiz-adv-x="741" 
d="M696 339q0 -106 -43 -186t-121 -122l206 -115l-175 -67l-199 144q-148 1 -236 96t-88 250t89.5 250.5t238.5 95.5q150 0 239 -95t89 -251zM205 339q0 -95 44 -150.5t119 -55.5t119 55.5t44 150.5t-44 150.5t-119 55.5t-119 -55.5t-44 -150.5z" />
    <glyph glyph-name="R" unicode="R" horiz-adv-x="614" 
d="M295 549h-76v-190h73q100 0 100 98q0 43 -26 67.5t-71 24.5zM219 0h-154v674h233q113 0 181.5 -60t68.5 -156q0 -144 -123 -199l171 -259h-184l-146 234h-47v-234z" />
    <glyph glyph-name="S" unicode="S" horiz-adv-x="514" 
d="M484 196q0 -91 -67 -147.5t-178 -56.5q-119 0 -194 42v155q91 -66 194 -66q35 0 58 18.5t23 48.5q0 10 -3 19t-11 17t-15.5 13.5t-22 13t-24.5 12.5t-29.5 14t-31.5 14q-65 30 -104.5 74t-39.5 117q0 87 64 140.5t177 53.5q101 0 174 -34v-144q-81 47 -168 47
q-39 0 -59.5 -16t-20.5 -41t25 -44.5t75 -41.5q31 -14 51.5 -24.5t47 -29t42 -39t26.5 -50.5t11 -65z" />
    <glyph glyph-name="T" unicode="T" horiz-adv-x="544" 
d="M514 550h-164v-550h-155v550h-165v124h484v-124z" />
    <glyph glyph-name="U" unicode="U" horiz-adv-x="668" 
d="M608 261q0 -132 -74 -201.5t-200 -69.5q-124 0 -199 69t-75 195v420h154v-419q0 -125 120 -125t120 130v414h154v-413z" />
    <glyph glyph-name="V" unicode="V" horiz-adv-x="659" 
d="M413 0h-170l-224 674h166l81 -269q22 -72 38 -138.5t21 -96.5l5 -31q16 104 65 266l81 269h164z" />
    <glyph glyph-name="W" unicode="W" horiz-adv-x="971" 
d="M372 0h-172l-181 674h162l62 -248q20 -80 33 -144.5t16 -89.5l4 -24q17 78 68 258l67 238h114l66 -238q21 -75 37.5 -139.5t22.5 -91.5l6 -27q13 89 56 259l62 247h157l-180 -674h-172l-59 213q-21 77 -34.5 130t-16.5 68l-2 15q-3 -41 -54 -213z" />
    <glyph glyph-name="X" unicode="X" horiz-adv-x="663" 
d="M213 0h-186l213 342l-203 332h179l112 -197l107 197h188l-204 -333l217 -341h-183l-122 210z" />
    <glyph glyph-name="Y" unicode="Y" horiz-adv-x="643" 
d="M397 0h-154v247l-230 427h180l41 -98q32 -76 53 -130t27 -70l5 -16q10 45 88 216l44 98h179l-233 -426v-248z" />
    <glyph glyph-name="Z" unicode="Z" horiz-adv-x="621" 
d="M561 0h-501v113l302 437h-296v124h483v-109l-304 -441h316v-124z" />
    <glyph glyph-name="bracketleft" unicode="[" horiz-adv-x="363" 
d="M348 -196h-283v903h283v-127h-145v-648h145v-128z" />
    <glyph glyph-name="backslash" unicode="\" horiz-adv-x="464" 
d="M466 -103h-151l-360 810h152z" />
    <glyph glyph-name="bracketright" unicode="]" horiz-adv-x="363" 
d="M298 -196h-283v128h145v648h-145v127h283v-903z" />
    <glyph glyph-name="asciicircum" unicode="^" horiz-adv-x="491" 
d="M168 332h-135l151 262h123l151 -262h-135l-77 146z" />
    <glyph glyph-name="underscore" unicode="_" horiz-adv-x="546" 
d="M526 -166h-506v121h506v-121z" />
    <glyph glyph-name="grave" unicode="`" horiz-adv-x="500" 
d="M366 621h-121l-111 177h146z" />
    <glyph glyph-name="a" unicode="a" horiz-adv-x="516" 
d="M246 100q31 0 48 19t17 52v37h-47q-37 0 -57 -16t-20 -41q0 -51 59 -51zM318 62q-32 -65 -126 -65q-74 0 -115.5 42t-41.5 105q0 73 53.5 113.5t158.5 40.5h64v35q0 64 -85 64q-82 0 -152 -46v131q60 34 173 34q108 0 161 -46.5t53 -144.5v-325h-143v62z" />
    <glyph glyph-name="b" unicode="b" horiz-adv-x="611" 
d="M206 0h-146v707h146v-278q52 84 151 84q95 0 157 -69t62 -189q0 -107 -59.5 -184t-158.5 -77q-101 0 -152 85v-79zM206 259q0 -65 31 -104t81 -39q46 0 78 37.5t32 98.5q0 66 -31.5 103t-77.5 37t-79.5 -35t-33.5 -98z" />
    <glyph glyph-name="c" unicode="c" horiz-adv-x="469" 
d="M439 24q-59 -32 -142 -32q-114 0 -188 72.5t-74 187.5q2 114 74 188.5t197 74.5q77 0 133 -29v-125q-53 33 -118 33q-61 0 -99 -36.5t-39 -105.5q4 -67 40 -104t95 -37q63 0 121 35v-122z" />
    <glyph glyph-name="d" unicode="d" horiz-adv-x="611" 
d="M183 252q0 -61 32 -98.5t78 -37.5q50 0 81 39t31 104q0 63 -33.5 98t-79.5 35t-77.5 -37t-31.5 -103zM551 0h-146v79q-51 -85 -152 -85q-99 0 -158.5 77t-59.5 184q0 120 62 189t157 69q99 0 151 -84v278h146v-707z" />
    <glyph glyph-name="e" unicode="e" horiz-adv-x="533" 
d="M458 29q-52 -34 -159 -34q-125 0 -194.5 72.5t-69.5 186.5q0 121 67.5 189.5t166.5 68.5q102 0 161 -59.5t59 -177.5q0 -23 -8 -79h-298q15 -42 52 -65t89 -23q77 0 134 43v-122zM275 401q-35 0 -62 -25.5t-36 -75.5h176v12q-7 89 -78 89z" />
    <glyph glyph-name="f" unicode="f" horiz-adv-x="346" 
d="M336 400h-95v-400h-145v400h-66v107h66v19q0 92 51.5 143t142.5 51q47 0 76 -10v-118q-28 11 -52 11q-37 0 -55 -17t-18 -60v-19h95v-107z" />
    <glyph glyph-name="g" unicode="g" horiz-adv-x="585" 
d="M530 49q0 -122 -73 -183.5t-183 -61.5q-107 0 -187 38v149q70 -56 172 -56q66 0 96 28t30 88v34q-44 -68 -140 -68q-84 0 -144.5 62t-60.5 184q0 108 58.5 178.5t153.5 70.5q90 0 133 -72v67h145v-458zM192 262q0 -63 24 -96t69 -33q47 0 73.5 35.5t26.5 85.5
q0 136 -99 136q-44 0 -69 -34t-25 -94z" />
    <glyph glyph-name="h" unicode="h" horiz-adv-x="580" 
d="M525 0h-146v300q0 44 -22 69t-57 25q-15 0 -28.5 -4.5t-29.5 -16t-26 -39t-10 -66.5v-268h-146v707h146v-286q39 91 152 91q74 0 120.5 -47t46.5 -142v-323z" />
    <glyph glyph-name="i" unicode="i" horiz-adv-x="276" 
d="M211 0h-146v507h146v-507zM223 654q0 -35 -25 -60t-60 -25t-60 25t-25 60t25 60t60 25t60 -25t25 -60z" />
    <glyph glyph-name="j" unicode="j" horiz-adv-x="274" 
d="M214 -21q0 -80 -45 -128.5t-130 -48.5q-35 0 -79 16v111q33 -15 57 -15q52 0 52 67v526h145v-528zM226 654q0 -35 -25 -60t-60 -25t-60 25t-25 60t25 60t60 25t60 -25t25 -60z" />
    <glyph glyph-name="k" unicode="k" horiz-adv-x="548" 
d="M206 0h-146v690h146v-410l160 227h168l-176 -243l179 -264h-169l-162 249v-249z" />
    <glyph glyph-name="l" unicode="l" horiz-adv-x="276" 
d="M211 0h-146v707h146v-707z" />
    <glyph glyph-name="m" unicode="m" horiz-adv-x="859" 
d="M804 0h-146v301q0 43 -17 68t-49 25q-34 0 -60.5 -27.5t-26.5 -98.5v-268h-146v301q0 43 -17 68t-49 25q-34 0 -60.5 -27.5t-26.5 -98.5v-268h-146v507h146v-79q42 84 143 84q107 0 142 -96q17 45 57 70.5t94 25.5q75 0 118.5 -47.5t43.5 -139.5v-325z" />
    <glyph glyph-name="n" unicode="n" horiz-adv-x="580" 
d="M525 0h-146v302q0 45 -21 68.5t-59 23.5q-40 0 -66.5 -31.5t-26.5 -94.5v-268h-146v507h146v-86q19 42 58.5 66.5t94.5 24.5q78 0 122 -46.5t44 -136.5v-329z" />
    <glyph glyph-name="o" unicode="o" horiz-adv-x="567" 
d="M532 256q0 -115 -65.5 -189.5t-182.5 -74.5q-119 0 -184 71.5t-65 183.5q0 117 68 192.5t181 75.5q118 0 183 -73t65 -186zM187 253q0 -65 24.5 -106.5t73.5 -41.5q48 0 71.5 40.5t23.5 105.5q0 149 -97 149q-48 0 -72 -41t-24 -106z" />
    <glyph glyph-name="p" unicode="p" horiz-adv-x="611" 
d="M206 -187h-146v694h146v-78q53 84 153 84q98 0 157.5 -69.5t59.5 -188.5q0 -113 -57.5 -187t-159.5 -74q-103 0 -153 81v-262zM206 259q0 -65 32 -104t82 -39q48 0 78 36.5t30 99.5q0 69 -30.5 104.5t-77.5 35.5q-46 0 -80 -35t-34 -98z" />
    <glyph glyph-name="q" unicode="q" horiz-adv-x="611" 
d="M183 252q0 -61 32 -98.5t78 -37.5q50 0 81 39t31 104q0 63 -33.5 98t-79.5 35t-77.5 -37t-31.5 -103zM551 -187h-146v266q-51 -85 -152 -85q-102 0 -160 74t-58 187q0 119 60 188.5t159 69.5t151 -84v78h146v-694z" />
    <glyph glyph-name="r" unicode="r" horiz-adv-x="370" 
d="M205 0h-146l1 507h145v-94q14 44 46.5 70.5t75.5 26.5q24 0 38 -4v-138q-24 11 -55 11q-47 0 -76 -34.5t-29 -91.5v-253z" />
    <glyph glyph-name="s" unicode="s" horiz-adv-x="436" 
d="M406 153q0 -75 -54 -116t-143 -41q-92 0 -154 31v130q69 -48 146 -48q55 0 55 35q0 9 -5 17t-17 15t-22 11.5t-29 12.5t-29 13q-101 48 -101 144q0 74 56.5 115t140.5 41q78 0 130 -21v-125q-53 31 -124 31q-26 0 -40 -10.5t-14 -26.5q0 -9 5 -17t16.5 -15t22 -12.5
t29 -13.5t29.5 -14q46 -24 74 -55.5t28 -80.5z" />
    <glyph glyph-name="t" unicode="t" horiz-adv-x="386" 
d="M356 11q-37 -16 -100 -16q-173 0 -173 173v232h-73v107h73v120h146v-120h118v-107h-118v-233q0 -27 15.5 -41t40.5 -14q40 0 71 20v-121z" />
    <glyph glyph-name="u" unicode="u" horiz-adv-x="580" 
d="M520 0h-146v81q-40 -85 -154 -85q-78 0 -121.5 43.5t-43.5 128.5v339h146v-306q0 -89 78 -89q95 0 95 127v268h146v-507z" />
    <glyph glyph-name="v" unicode="v" horiz-adv-x="536" 
d="M342 0h-150l-187 507h153l66 -216q15 -50 26 -94.5t14 -64.5l4 -19q9 65 45 178l68 216h150z" />
    <glyph glyph-name="w" unicode="w" horiz-adv-x="806" 
d="M318 0h-150l-163 507h151l44 -167q16 -63 27 -113.5t13 -69.5l3 -19q7 60 49 202l49 167h126l48 -167q18 -64 30 -114.5t15 -69.5l3 -18q7 59 47 202l47 167h144l-162 -507h-150l-44 166q-14 54 -24.5 101t-13.5 67l-3 20q-10 -67 -42 -188z" />
    <glyph glyph-name="x" unicode="x" horiz-adv-x="526" 
d="M174 0h-158l181 254l-170 253h162l82 -151l91 151h160l-182 -254l169 -253h-159l-85 152z" />
    <glyph glyph-name="y" unicode="y" horiz-adv-x="532" 
d="M344 15q-79 -213 -241 -213q-31 0 -56 5v116q16 -4 34 -4q83 0 120 89l-196 499h159l55 -158q21 -61 34.5 -105t16.5 -58l3 -14q11 40 54 177l50 158h150z" />
    <glyph glyph-name="z" unicode="z" horiz-adv-x="479" 
d="M439 0h-399v105l222 290h-213v112h378v-101l-222 -293h234v-113z" />
    <glyph glyph-name="braceleft" unicode="{" horiz-adv-x="380" 
d="M355 -194q-35 -12 -66 -12q-70 0 -114.5 51t-44.5 129q0 22 6 60t6 54q0 38 -23 67.5t-62 29.5l-17 -1v141h17q39 0 62 29t23 67q0 16 -6 54t-6 60q0 78 44.5 129t114.5 51q31 0 66 -12v-135q-15 9 -31 9q-21 0 -36 -15.5t-15 -39.5q0 -12 6 -51.5t6 -63.5
q0 -61 -34.5 -103.5t-81.5 -48.5q47 -6 81.5 -49t34.5 -104q0 -24 -6 -63.5t-6 -51.5q0 -24 15 -39.5t36 -15.5q16 0 31 9v-135z" />
    <glyph glyph-name="bar" unicode="|" horiz-adv-x="280" 
d="M210 -194h-140v889h140v-889z" />
    <glyph glyph-name="braceright" unicode="}" horiz-adv-x="380" 
d="M250 -26q0 -78 -44.5 -129t-114.5 -51q-31 0 -66 12v135q15 -9 31 -9q21 0 36 15.5t15 39.5q0 12 -6 51.5t-6 63.5q0 61 34.5 104t81.5 49q-47 6 -81.5 48.5t-34.5 103.5q0 24 6 63.5t6 51.5q0 24 -15 39.5t-36 15.5q-16 0 -31 -9v135q35 12 66 12q70 0 114.5 -51
t44.5 -129q0 -22 -6 -60t-6 -54q0 -38 23 -67t62 -29h17v-141q-7 1 -17 1q-39 0 -62 -29.5t-23 -67.5q0 -16 6 -54t6 -60z" />
    <glyph glyph-name="asciitilde" unicode="~" horiz-adv-x="654" 
d="M232 238q-33 0 -55 -14t-48 -44l-101 80q31 44 76 76.5t96 32.5q66 0 131.5 -24.5t89.5 -24.5q33 0 55 14t48 45l101 -81q-77 -109 -173 -109q-57 0 -121.5 24.5t-98.5 24.5z" />
    <glyph glyph-name="exclamdown" unicode="&#xa1;" horiz-adv-x="289" 
d="M214 -165h-139v438h139v-438zM234 426q0 -38 -26.5 -64.5t-64.5 -26.5t-64.5 26.5t-26.5 64.5t26.5 64.5t64.5 26.5t64.5 -26.5t26.5 -64.5z" />
    <glyph glyph-name="cent" unicode="&#xa2;" horiz-adv-x="478" 
d="M438 24q-35 -18 -79 -26v-109h-121v108q-92 18 -150 87t-58 168q2 97 56.5 167t150.5 89v112h122v-110q43 -8 79 -27v-122q-53 33 -118 33q-62 0 -101.5 -37t-40.5 -105q4 -66 41.5 -103.5t97.5 -37.5q63 0 121 35v-122z" />
    <glyph glyph-name="sterling" unicode="&#xa3;" horiz-adv-x="540" 
d="M507 0h-462v121q73 38 73 130v16h-74v106h60q-3 24 -3 47q0 113 59 176.5t175 63.5q85 0 137 -32v-138q-46 33 -104 33q-105 0 -105 -109q0 -13 2 -41h166v-106h-155v-17q0 -88 -61 -127h292v-123z" />
    <glyph glyph-name="currency" unicode="&#xa4;" horiz-adv-x="571" 
d="M171 117l-58 -57l-85 82l59 57q-29 52 -29 112q0 59 28 110l-58 57l85 82l58 -57q51 28 115 28q62 0 114 -27l58 56l85 -82l-58 -57q29 -53 29 -110q0 -59 -30 -112l59 -57l-85 -82l-59 56q-50 -26 -113 -26q-64 0 -115 27zM180 311q0 -44 30 -75.5t76 -31.5t76 31.5
t30 75.5t-30 75.5t-76 31.5t-76 -31.5t-30 -75.5z" />
    <glyph glyph-name="yen" unicode="&#xa5;" horiz-adv-x="635" 
d="M568 117h-175v-117h-154v117h-173v90h173v45l-11 19h-162v90h111l-168 294h180l126 -246l132 246h179l-170 -294h112v-90h-164l-11 -19v-45h175v-90z" />
    <glyph glyph-name="brokenbar" unicode="&#xa6;" horiz-adv-x="280" 
d="M210 369h-140v338h140v-338zM210 -117h-140v338h140v-338z" />
    <glyph glyph-name="section" unicode="&#xa7;" horiz-adv-x="599" 
d="M324 192q33 -14 51 -24q8 16 8 32q0 14 -5.5 25.5t-13 20t-24 18.5t-29.5 16.5l-39 19.5l-44 22l-12 6q-11 -19 -11 -37q0 -28 26 -49t93 -50zM531 197q0 -65 -42 -115q31 -41 31 -90q0 -83 -64.5 -131t-175.5 -48q-119 0 -194 42v155q91 -66 194 -66q82 0 82 48
q0 26 -30 45.5t-154 73.5q-121 54 -121 183q0 62 46 117q-30 38 -30 88q0 82 61.5 131.5t170.5 49.5q98 0 174 -35v-144q-83 48 -168 48q-77 0 -77 -49q0 -8 2.5 -15t10 -13.5t15 -12t23 -14t29 -15.5t37.5 -19t44 -23q69 -36 102.5 -78t33.5 -113z" />
    <glyph glyph-name="dieresis" unicode="&#xa8;" horiz-adv-x="500" 
d="M467 710q0 -35 -24 -58.5t-59 -23.5q-36 0 -59.5 23.5t-23.5 58.5q0 34 23.5 57.5t59.5 23.5q35 0 59 -23.5t24 -57.5zM198 710q0 -35 -23.5 -58.5t-58.5 -23.5q-36 0 -59.5 23.5t-23.5 58.5q0 34 23.5 57.5t59.5 23.5q35 0 58.5 -23.5t23.5 -57.5z" />
    <glyph glyph-name="copyright" unicode="&#xa9;" horiz-adv-x="761" 
d="M487 192q-39 -21 -96 -21q-69 0 -119.5 46t-50.5 120q1 75 48.5 122t127.5 47q49 0 90 -22v-94q-35 22 -80 22q-28 0 -50 -19t-23 -56q2 -35 22.5 -54.5t48.5 -19.5q43 0 82 24v-95zM726 338q0 -143 -101 -244.5t-244 -101.5t-244.5 101.5t-101.5 244.5t101.5 244
t244.5 101t244 -101.5t101 -243.5zM132 337q0 -109 70.5 -179t178.5 -70q107 0 177.5 70t70.5 179q0 107 -70.5 177.5t-177.5 70.5q-108 0 -178.5 -70.5t-70.5 -177.5z" />
    <glyph glyph-name="ordfeminine" unicode="&#xaa;" horiz-adv-x="400" 
d="M189 476q25 0 40 16.5t15 43.5v32h-41q-31 0 -48 -13.5t-17 -35.5q0 -43 51 -43zM250 444q-26 -55 -108 -55q-62 0 -97 35t-35 90q0 61 45 96t134 35h55v28q0 54 -73 54q-69 0 -129 -38v111q52 28 147 28q92 0 136.5 -39t44.5 -121v-276h-120v52z" />
    <glyph glyph-name="guillemotleft" unicode="&#xab;" horiz-adv-x="592" 
d="M404 253l146 -162h-152l-152 162l152 162h152zM330 91h-152l-152 162l152 162h152l-146 -162z" />
    <glyph glyph-name="logicalnot" unicode="&#xac;" horiz-adv-x="603" 
d="M558 136h-120v165h-393v116h513v-281z" />
    <glyph glyph-name="uni00AD" unicode="&#xad;" horiz-adv-x="357" 
d="M312 202h-267v120h267v-120z" />
    <glyph glyph-name="registered" unicode="&#xae;" horiz-adv-x="492" 
d="M228 440h-54v237h70q91 0 91 -75q0 -48 -38 -66l60 -96h-66l-50 86h-13v-86zM246 632h-18v-61h22q13 0 20.5 9t7.5 22q0 30 -32 30zM482 551q0 -102 -67 -168t-169 -66q-103 0 -169.5 65.5t-66.5 168.5t66.5 169t169.5 66q102 0 169 -66.5t67 -168.5zM72 551
q0 -79 47.5 -127t127.5 -48q79 0 126.5 48t47.5 127t-47.5 128t-126.5 49q-80 0 -127.5 -49t-47.5 -128z" />
    <glyph glyph-name="macron" unicode="&#xaf;" horiz-adv-x="500" 
d="M428 651h-356v99h356v-99z" />
    <glyph glyph-name="degree" unicode="&#xb0;" horiz-adv-x="440" 
d="M410 495q0 -79 -55.5 -134.5t-134.5 -55.5t-134.5 55.5t-55.5 134.5t55.5 134.5t134.5 55.5t134.5 -55.5t55.5 -134.5zM132 495q0 -36 26 -62t62 -26t62 26t26 62t-26 62t-62 26t-62 -26t-26 -62z" />
    <glyph glyph-name="plusminus" unicode="&#xb1;" horiz-adv-x="589" 
d="M544 326h-183v-140h-134v140h-182v120h182v139h134v-139h183v-120zM544 28h-499v120h499v-120z" />
    <glyph glyph-name="twosuperior" unicode="&#xb2;" horiz-adv-x="365" 
d="M330 392h-295v77q72 52 121 108t49 100q0 51 -61 51q-47 0 -99 -37v105q52 33 117 33q69 0 111.5 -36.5t42.5 -100.5q0 -115 -148 -210h162v-90z" />
    <glyph glyph-name="threesuperior" unicode="&#xb3;" horiz-adv-x="353" 
d="M318 510q0 -55 -41.5 -88.5t-111.5 -33.5q-80 0 -130 27v94q57 -30 113 -30q28 0 44.5 13t16.5 32q0 41 -85 41h-15v89h14q77 0 77 41t-52 41q-51 0 -97 -35v101q47 27 107 27q71 0 112 -33.5t41 -87.5q0 -39 -21.5 -64.5t-59.5 -33.5q38 -4 63 -30t25 -70z" />
    <glyph glyph-name="acute" unicode="&#xb4;" horiz-adv-x="500" 
d="M255 621h-121l86 177h146z" />
    <glyph glyph-name="uni00B5" unicode="&#xb5;" horiz-adv-x="585" 
d="M206 -180h-146v687h146v-306q0 -43 25 -66t63 -23q44 0 64.5 28.5t20.5 98.5v268h146v-507h-146v60q-34 -64 -104 -64q-36 0 -69 14v-190z" />
    <glyph glyph-name="paragraph" unicode="&#xb6;" horiz-adv-x="592" 
d="M324 -148h-111v465q-97 0 -150 52.5t-53 127.5q0 74 54.5 125.5t167.5 51.5h92v-822zM527 -148h-111l1 822h110v-822z" />
    <glyph glyph-name="periodcentered" unicode="&#xb7;" horiz-adv-x="268" 
d="M223 252q0 -37 -26 -63t-63 -26t-63 26t-26 63t26 63t63 26t63 -26t26 -63z" />
    <glyph glyph-name="cedilla" unicode="&#xb8;" horiz-adv-x="500" 
d="M339 -125q0 -63 -45.5 -103t-133.5 -40v91q36 0 55.5 17t19.5 47q0 28 -26 62h113q17 -27 17 -74z" />
    <glyph glyph-name="onesuperior" unicode="&#xb9;" horiz-adv-x="279" 
d="M229 392h-103v321l-116 -62v98l134 76h85v-433z" />
    <glyph glyph-name="ordmasculine" unicode="&#xba;" horiz-adv-x="442" 
d="M432 610q0 -98 -55.5 -161t-154.5 -63q-102 0 -157 61t-55 155q0 100 57.5 164t154.5 64q101 0 155.5 -62t54.5 -158zM139 607q0 -55 21 -90t63 -35q41 0 60.5 34t19.5 89q0 128 -83 128q-41 0 -61 -35t-20 -91z" />
    <glyph glyph-name="guillemotright" unicode="&#xbb;" horiz-adv-x="591" 
d="M565 253l-152 -162h-152l146 162l-146 162h152zM193 91h-152l146 162l-146 162h152l152 -162z" />
    <glyph glyph-name="onequarter" unicode="&#xbc;" horiz-adv-x="829" 
d="M232 0h-109l429 711h108zM229 278h-103v321l-116 -62v98l134 76h85v-433zM578 171h89v182zM769 0h-102v86h-194v85l133 259h163v-259h52v-85h-52v-86z" />
    <glyph glyph-name="onehalf" unicode="&#xbd;" horiz-adv-x="833" 
d="M232 0h-109l429 711h108zM229 278h-103v321l-116 -62v98l134 76h85v-433zM817 0h-295v77q72 52 121 108t49 100q0 51 -61 51q-47 0 -99 -37v105q52 33 117 33q69 0 111.5 -36.5t42.5 -100.5q0 -115 -148 -210h162v-90z" />
    <glyph glyph-name="threequarters" unicode="&#xbe;" horiz-adv-x="898" 
d="M285 0h-109l429 711h108zM306 395q0 -55 -41.5 -88.5t-111.5 -33.5q-80 0 -130 27v94q57 -30 113 -30q28 0 44.5 13t16.5 32q0 41 -85 41h-15v89h14q77 0 77 41t-52 41q-51 0 -97 -35v101q46 27 107 27q71 0 112 -33.5t41 -87.5q0 -39 -21.5 -64.5t-59.5 -33.5
q38 -4 63 -30t25 -70zM631 171h89v182zM822 0h-102v86h-194v85l133 259h163v-259h52v-85h-52v-86z" />
    <glyph glyph-name="questiondown" unicode="&#xbf;" horiz-adv-x="458" 
d="M428 -144q-60 -28 -153 -28q-94 0 -152 49.5t-58 133.5q0 45 18 81.5t45 57t53 31.5t47 11l3 82h133l3 -151q-154 0 -154 -94q0 -36 21.5 -57.5t63.5 -21.5q65 0 130 43v-137zM390 427q0 -38 -26.5 -64.5t-64.5 -26.5t-64.5 26.5t-26.5 64.5t26.5 64.5t64.5 26.5
t64.5 -26.5t26.5 -64.5z" />
    <glyph glyph-name="Agrave" unicode="&#xc0;" horiz-adv-x="690" 
d="M269 286l-7 -24h162l-7 24q-29 98 -47.5 167t-22.5 89l-4 20q-8 -55 -74 -276zM184 0h-161l225 674h194l225 -674h-165l-41 138h-236zM406 721h-121l-111 177h146z" />
    <glyph glyph-name="Aacute" unicode="&#xc1;" horiz-adv-x="690" 
d="M269 286l-7 -24h162l-7 24q-29 98 -47.5 167t-22.5 89l-4 20q-8 -55 -74 -276zM184 0h-161l225 674h194l225 -674h-165l-41 138h-236zM416 721h-121l86 177h146z" />
    <glyph glyph-name="Acircumflex" unicode="&#xc2;" horiz-adv-x="690" 
d="M269 286l-7 -24h162l-7 24q-29 98 -47.5 167t-22.5 89l-4 20q-8 -55 -74 -276zM184 0h-161l225 674h194l225 -674h-165l-41 138h-236zM267 721h-139l156 177h124l156 -177h-139l-79 96z" />
    <glyph glyph-name="Atilde" unicode="&#xc3;" horiz-adv-x="690" 
d="M269 286l-7 -24h162l-7 24q-29 98 -47.5 167t-22.5 89l-4 20q-8 -55 -74 -276zM184 0h-161l225 674h194l225 -674h-165l-41 138h-236zM289 776q-25 0 -39 -8.5t-36 -34.5l-65 64q16 34 47.5 58t68.5 24q36 0 76.5 -17.5t59.5 -17.5q49 0 70 43l74 -61q-43 -85 -136 -85
q-33 0 -69 17.5t-51 17.5z" />
    <glyph glyph-name="Adieresis" unicode="&#xc4;" horiz-adv-x="690" 
d="M269 286l-7 -24h162l-7 24q-29 98 -47.5 167t-22.5 89l-4 20q-8 -55 -74 -276zM184 0h-161l225 674h194l225 -674h-165l-41 138h-236zM569 810q0 -35 -24 -58.5t-59 -23.5q-36 0 -59.5 23.5t-23.5 58.5q0 34 23.5 57.5t59.5 23.5q35 0 59 -23.5t24 -57.5zM300 810
q0 -35 -23.5 -58.5t-58.5 -23.5q-36 0 -59.5 23.5t-23.5 58.5q0 34 23.5 57.5t59.5 23.5q35 0 58.5 -23.5t23.5 -57.5z" />
    <glyph glyph-name="Aring" unicode="&#xc5;" horiz-adv-x="690" 
d="M269 286l-7 -24h162l-7 24q-29 98 -47.5 167t-22.5 89l-4 20q-8 -55 -74 -276zM184 0h-161l225 674h194l225 -674h-165l-41 138h-236zM485 846q0 -56 -40 -96t-96 -40t-96 40t-40 96t40 96t96 40t96 -40t40 -96zM296 849q0 -23 15 -39.5t38 -16.5t38 16.5t15 39.5
t-15 39.5t-38 16.5t-38 -16.5t-15 -39.5z" />
    <glyph glyph-name="AE" unicode="&#xc6;" horiz-adv-x="940" 
d="M169 0h-161l325 674h543v-123h-260v-153h232v-122h-232v-153h264v-123h-413v138h-229zM313 286l-12 -24h166v352q-41 -106 -154 -328z" />
    <glyph glyph-name="Ccedilla" unicode="&#xc7;" horiz-adv-x="613" 
d="M563 30q-61 -38 -176 -38q-148 0 -247.5 95.5t-99.5 247.5q0 154 96.5 251t251.5 97q114 0 175 -38v-148q-75 46 -167 46q-81 0 -136 -56.5t-55 -151.5q0 -93 55 -147.5t142 -54.5q94 0 161 48v-151zM448 -125q0 -63 -45.5 -103t-133.5 -40v91q36 0 55.5 17t19.5 47
q0 28 -26 62h113q17 -27 17 -74z" />
    <glyph glyph-name="Egrave" unicode="&#xc8;" horiz-adv-x="544" 
d="M484 0h-419v674h415v-123h-260v-153h232v-122h-232v-153h264v-123zM346 721h-121l-111 177h146z" />
    <glyph glyph-name="Eacute" unicode="&#xc9;" horiz-adv-x="544" 
d="M484 0h-419v674h415v-123h-260v-153h232v-122h-232v-153h264v-123zM343 721h-121l86 177h146z" />
    <glyph glyph-name="Ecircumflex" unicode="&#xca;" horiz-adv-x="544" 
d="M484 0h-419v674h415v-123h-260v-153h232v-122h-232v-153h264v-123zM193 721h-139l156 177h124l156 -177h-139l-79 96z" />
    <glyph glyph-name="Edieresis" unicode="&#xcb;" horiz-adv-x="544" 
d="M484 0h-419v674h415v-123h-260v-153h232v-122h-232v-153h264v-123zM489 809q0 -35 -24 -58.5t-59 -23.5q-36 0 -59.5 23.5t-23.5 58.5q0 34 23.5 57.5t59.5 23.5q35 0 59 -23.5t24 -57.5zM220 809q0 -35 -23.5 -58.5t-58.5 -23.5q-36 0 -59.5 23.5t-23.5 58.5
q0 34 23.5 57.5t59.5 23.5q35 0 58.5 -23.5t23.5 -57.5z" />
    <glyph glyph-name="Igrave" unicode="&#xcc;" horiz-adv-x="304" 
d="M229 0h-154v674h154v-674zM208 721h-121l-111 177h146z" />
    <glyph glyph-name="Iacute" unicode="&#xcd;" horiz-adv-x="304" 
d="M229 0h-154v674h154v-674zM215 721h-121l86 177h146z" />
    <glyph glyph-name="Icircumflex" unicode="&#xce;" horiz-adv-x="304" 
d="M229 0h-154v674h154v-674zM75 721h-139l156 177h124l156 -177h-139l-79 96z" />
    <glyph glyph-name="Idieresis" unicode="&#xcf;" horiz-adv-x="304" 
d="M229 0h-154v674h154v-674zM375 810q0 -35 -24 -58.5t-59 -23.5q-36 0 -59.5 23.5t-23.5 58.5q0 34 23.5 57.5t59.5 23.5q35 0 59 -23.5t24 -57.5zM106 810q0 -35 -23.5 -58.5t-58.5 -23.5q-36 0 -59.5 23.5t-23.5 58.5q0 34 23.5 57.5t59.5 23.5q35 0 58.5 -23.5
t23.5 -57.5z" />
    <glyph glyph-name="Eth" unicode="&#xd0;" horiz-adv-x="749" 
d="M361 0h-230v269h-66v124h66v281h232q152 0 249 -93.5t97 -232.5q0 -162 -95.5 -255t-252.5 -93zM427 269h-138v-143h70q93 0 143.5 58t50.5 164q0 90 -51 144.5t-144 54.5h-69v-154h138v-124z" />
    <glyph glyph-name="Ntilde" unicode="&#xd1;" horiz-adv-x="697" 
d="M219 0h-154v674h169l157 -279q33 -59 57.5 -110.5t31.5 -72.5l8 -22q-10 74 -10 205v279h154v-674h-169l-161 279q-32 54 -56.5 106.5t-33.5 77.5l-8 25q15 -90 15 -209v-279zM296 776q-25 0 -39 -8.5t-36 -34.5l-65 64q16 34 47.5 58t68.5 24q36 0 76.5 -17.5
t59.5 -17.5q48 0 70 43l74 -61q-42 -85 -136 -85q-33 0 -69 17.5t-51 17.5z" />
    <glyph glyph-name="Ograve" unicode="&#xd2;" horiz-adv-x="736" 
d="M696 339q0 -155 -89.5 -250.5t-238.5 -95.5q-150 0 -239 95t-89 251q0 155 89.5 250.5t238.5 95.5q150 0 239 -95t89 -251zM205 339q0 -95 44 -150.5t119 -55.5t119 55.5t44 150.5t-44 150.5t-119 55.5t-119 -55.5t-44 -150.5zM438 721h-121l-111 177h146z" />
    <glyph glyph-name="Oacute" unicode="&#xd3;" horiz-adv-x="736" 
d="M696 339q0 -155 -89.5 -250.5t-238.5 -95.5q-150 0 -239 95t-89 251q0 155 89.5 250.5t238.5 95.5q150 0 239 -95t89 -251zM205 339q0 -95 44 -150.5t119 -55.5t119 55.5t44 150.5t-44 150.5t-119 55.5t-119 -55.5t-44 -150.5zM432 721h-121l86 177h146z" />
    <glyph glyph-name="Ocircumflex" unicode="&#xd4;" horiz-adv-x="736" 
d="M696 339q0 -155 -89.5 -250.5t-238.5 -95.5q-150 0 -239 95t-89 251q0 155 89.5 250.5t238.5 95.5q150 0 239 -95t89 -251zM205 339q0 -95 44 -150.5t119 -55.5t119 55.5t44 150.5t-44 150.5t-119 55.5t-119 -55.5t-44 -150.5zM293 721h-139l156 177h124l156 -177h-139
l-79 96z" />
    <glyph glyph-name="Otilde" unicode="&#xd5;" horiz-adv-x="736" 
d="M696 339q0 -155 -89.5 -250.5t-238.5 -95.5q-150 0 -239 95t-89 251q0 155 89.5 250.5t238.5 95.5q150 0 239 -95t89 -251zM205 339q0 -95 44 -150.5t119 -55.5t119 55.5t44 150.5t-44 150.5t-119 55.5t-119 -55.5t-44 -150.5zM310 775q-25 0 -39 -8.5t-36 -34.5l-65 64
q16 34 47.5 58t68.5 24q36 0 76.5 -17.5t59.5 -17.5q48 0 70 43l74 -61q-42 -85 -136 -85q-33 0 -69 17.5t-51 17.5z" />
    <glyph glyph-name="Odieresis" unicode="&#xd6;" horiz-adv-x="736" 
d="M696 339q0 -155 -89.5 -250.5t-238.5 -95.5q-150 0 -239 95t-89 251q0 155 89.5 250.5t238.5 95.5q150 0 239 -95t89 -251zM205 339q0 -95 44 -150.5t119 -55.5t119 55.5t44 150.5t-44 150.5t-119 55.5t-119 -55.5t-44 -150.5zM594 810q0 -35 -24 -58.5t-59 -23.5
q-36 0 -59.5 23.5t-23.5 58.5q0 34 23.5 57.5t59.5 23.5q35 0 59 -23.5t24 -57.5zM325 810q0 -35 -23.5 -58.5t-58.5 -23.5q-36 0 -59.5 23.5t-23.5 58.5q0 34 23.5 57.5t59.5 23.5q35 0 58.5 -23.5t23.5 -57.5z" />
    <glyph glyph-name="multiply" unicode="&#xd7;" horiz-adv-x="530" 
d="M487 209l-92 -92l-130 129l-127 -127l-95 94l128 128l-129 128l92 92l129 -128l127 127l95 -94l-128 -128z" />
    <glyph glyph-name="Oslash" unicode="&#xd8;" horiz-adv-x="714" 
d="M694 339q0 -155 -89.5 -250.5t-238.5 -95.5q-86 0 -156 34l-25 -34h-146l78 106q-79 93 -79 240q0 155 89.5 250.5t238.5 95.5q89 0 159 -35l25 34h145l-79 -107q78 -92 78 -238zM196 339q0 -64 18 -109l227 307q-35 16 -75 16q-78 0 -124 -58t-46 -156zM366 125
q78 0 124 58t46 156q0 61 -17 106l-225 -305q32 -15 72 -15z" />
    <glyph glyph-name="Ugrave" unicode="&#xd9;" horiz-adv-x="668" 
d="M608 261q0 -132 -74 -201.5t-200 -69.5q-124 0 -199 69t-75 195v420h154v-419q0 -125 120 -125t120 130v414h154v-413zM402 721h-121l-111 177h146z" />
    <glyph glyph-name="Uacute" unicode="&#xda;" horiz-adv-x="668" 
d="M608 261q0 -132 -74 -201.5t-200 -69.5q-124 0 -199 69t-75 195v420h154v-419q0 -125 120 -125t120 130v414h154v-413zM408 721h-121l86 177h146z" />
    <glyph glyph-name="Ucircumflex" unicode="&#xdb;" horiz-adv-x="668" 
d="M608 261q0 -132 -74 -201.5t-200 -69.5q-124 0 -199 69t-75 195v420h154v-419q0 -125 120 -125t120 130v414h154v-413zM253 721h-139l156 177h124l156 -177h-139l-79 96z" />
    <glyph glyph-name="Udieresis" unicode="&#xdc;" horiz-adv-x="668" 
d="M608 261q0 -132 -74 -201.5t-200 -69.5q-124 0 -199 69t-75 195v420h154v-419q0 -125 120 -125t120 130v414h154v-413zM556 809q0 -35 -24 -58.5t-59 -23.5q-36 0 -59.5 23.5t-23.5 58.5q0 34 23.5 57.5t59.5 23.5q35 0 59 -23.5t24 -57.5zM287 809q0 -35 -23.5 -58.5
t-58.5 -23.5q-36 0 -59.5 23.5t-23.5 58.5q0 34 23.5 57.5t59.5 23.5q35 0 58.5 -23.5t23.5 -57.5z" />
    <glyph glyph-name="Yacute" unicode="&#xdd;" horiz-adv-x="643" 
d="M397 0h-154v247l-230 427h180l41 -98q32 -76 53 -130t27 -70l5 -16q10 45 88 216l44 98h179l-233 -426v-248zM396 721h-121l86 177h146z" />
    <glyph glyph-name="Thorn" unicode="&#xde;" horiz-adv-x="563" 
d="M297 110h-78v-110h-154v674h154v-110h78q113 0 182 -62.5t69 -159.5q0 -111 -72.5 -171.5t-178.5 -60.5zM285 441h-66v-209h66q53 0 80 29t27 75q0 43 -25 74t-82 31z" />
    <glyph glyph-name="germandbls" unicode="&#xdf;" horiz-adv-x="598" 
d="M578 159q0 -76 -49.5 -122t-131.5 -46q-81 0 -117 24v123q51 -33 101 -33q27 0 44 14t17 38q0 20 -15 38t-36 33t-42.5 31t-36.5 39.5t-15 52.5q0 38 28.5 84.5t28.5 70.5q0 57 -62 57q-90 0 -90 -93v-470h-142v461q0 109 58 169t165 60q98 0 158.5 -50.5t60.5 -120.5
q0 -38 -14 -68t-27.5 -50t-13.5 -35q0 -11 20.5 -28t45 -35t45 -56.5t20.5 -87.5z" />
    <glyph glyph-name="agrave" unicode="&#xe0;" horiz-adv-x="516" 
d="M246 100q31 0 48 19t17 52v37h-47q-37 0 -57 -16t-20 -41q0 -51 59 -51zM318 62q-32 -65 -126 -65q-74 0 -115.5 42t-41.5 105q0 73 53.5 113.5t158.5 40.5h64v35q0 64 -85 64q-82 0 -152 -46v131q60 34 173 34q108 0 161 -46.5t53 -144.5v-325h-143v62zM326 554h-121
l-111 177h146z" />
    <glyph glyph-name="aacute" unicode="&#xe1;" horiz-adv-x="516" 
d="M246 100q31 0 48 19t17 52v37h-47q-37 0 -57 -16t-20 -41q0 -51 59 -51zM318 62q-32 -65 -126 -65q-74 0 -115.5 42t-41.5 105q0 73 53.5 113.5t158.5 40.5h64v35q0 64 -85 64q-82 0 -152 -46v131q60 34 173 34q108 0 161 -46.5t53 -144.5v-325h-143v62zM315 554h-121
l86 177h146z" />
    <glyph glyph-name="acircumflex" unicode="&#xe2;" horiz-adv-x="516" 
d="M246 100q31 0 48 19t17 52v37h-47q-37 0 -57 -16t-20 -41q0 -51 59 -51zM318 62q-32 -65 -126 -65q-74 0 -115.5 42t-41.5 105q0 73 53.5 113.5t158.5 40.5h64v35q0 64 -85 64q-82 0 -152 -46v131q60 34 173 34q108 0 161 -46.5t53 -144.5v-325h-143v62zM177 554h-139
l156 177h124l156 -177h-139l-79 96z" />
    <glyph glyph-name="atilde" unicode="&#xe3;" horiz-adv-x="516" 
d="M246 100q31 0 48 19t17 52v37h-47q-37 0 -57 -16t-20 -41q0 -51 59 -51zM318 62q-32 -65 -126 -65q-74 0 -115.5 42t-41.5 105q0 73 53.5 113.5t158.5 40.5h64v35q0 64 -85 64q-82 0 -152 -46v131q60 34 173 34q108 0 161 -46.5t53 -144.5v-325h-143v62zM198 609
q-25 0 -39 -8.5t-36 -34.5l-65 64q16 34 47.5 58t68.5 24q36 0 76.5 -17.5t59.5 -17.5q48 0 70 43l74 -61q-42 -85 -136 -85q-33 0 -69 17.5t-51 17.5z" />
    <glyph glyph-name="adieresis" unicode="&#xe4;" horiz-adv-x="516" 
d="M246 100q31 0 48 19t17 52v37h-47q-37 0 -57 -16t-20 -41q0 -51 59 -51zM318 62q-32 -65 -126 -65q-74 0 -115.5 42t-41.5 105q0 73 53.5 113.5t158.5 40.5h64v35q0 64 -85 64q-82 0 -152 -46v131q60 34 173 34q108 0 161 -46.5t53 -144.5v-325h-143v62zM482 643
q0 -35 -24 -58.5t-59 -23.5q-36 0 -59.5 23.5t-23.5 58.5q0 34 23.5 57.5t59.5 23.5q35 0 59 -23.5t24 -57.5zM213 643q0 -35 -23.5 -58.5t-58.5 -23.5q-36 0 -59.5 23.5t-23.5 58.5q0 34 23.5 57.5t59.5 23.5q35 0 58.5 -23.5t23.5 -57.5z" />
    <glyph glyph-name="aring" unicode="&#xe5;" horiz-adv-x="516" 
d="M246 100q31 0 48 19t17 52v37h-47q-37 0 -57 -16t-20 -41q0 -51 59 -51zM318 62q-32 -65 -126 -65q-74 0 -115.5 42t-41.5 105q0 73 53.5 113.5t158.5 40.5h64v35q0 64 -85 64q-82 0 -152 -46v131q60 34 173 34q108 0 161 -46.5t53 -144.5v-325h-143v62zM396 679
q0 -56 -40 -96t-96 -40t-96 40t-40 96t40 96t96 40t96 -40t40 -96zM207 682q0 -23 15 -39.5t38 -16.5t38 16.5t15 39.5t-15 39.5t-38 16.5t-38 -16.5t-15 -39.5z" />
    <glyph glyph-name="ae" unicode="&#xe6;" horiz-adv-x="808" 
d="M392 88q-16 -38 -59 -65t-115 -27q-85 0 -131.5 40t-46.5 108q0 73 53.5 113.5t158.5 40.5h64v35q0 64 -85 64q-82 0 -152 -46v131q60 34 163 34q54 0 93.5 -20t55.5 -54q23 33 65 51.5t92 18.5q102 0 161 -59.5t59 -177.5q0 -23 -8 -79h-299q16 -42 53 -65t89 -23
q77 0 134 43v-122q-53 -34 -152 -34q-57 0 -111 23t-82 70zM192 151q0 -51 59 -51q31 0 48 19t17 52v37h-47q-37 0 -57 -16t-20 -41zM554 401q-34 0 -61.5 -26t-36.5 -75h176v11q-7 90 -78 90z" />
    <glyph glyph-name="ccedilla" unicode="&#xe7;" horiz-adv-x="469" 
d="M439 24q-59 -32 -142 -32q-114 0 -188 72.5t-74 187.5q2 114 74 188.5t197 74.5q77 0 133 -29v-125q-53 33 -118 33q-61 0 -99 -36.5t-39 -105.5q4 -67 40 -104t95 -37q63 0 121 35v-122zM369 -125q0 -63 -45.5 -103t-133.5 -40v91q36 0 55.5 17t19.5 47q0 28 -26 62h113
q17 -27 17 -74z" />
    <glyph glyph-name="egrave" unicode="&#xe8;" horiz-adv-x="533" 
d="M458 29q-52 -34 -159 -34q-125 0 -194.5 72.5t-69.5 186.5q0 121 67.5 189.5t166.5 68.5q102 0 161 -59.5t59 -177.5q0 -23 -8 -79h-298q15 -42 52 -65t89 -23q77 0 134 43v-122zM275 401q-35 0 -62 -25.5t-36 -75.5h176v12q-7 89 -78 89zM336 554h-121l-111 177h146z
" />
    <glyph glyph-name="eacute" unicode="&#xe9;" horiz-adv-x="533" 
d="M458 29q-52 -34 -159 -34q-125 0 -194.5 72.5t-69.5 186.5q0 121 67.5 189.5t166.5 68.5q102 0 161 -59.5t59 -177.5q0 -23 -8 -79h-298q15 -42 52 -65t89 -23q77 0 134 43v-122zM275 401q-35 0 -62 -25.5t-36 -75.5h176v12q-7 89 -78 89zM346 553h-121l86 177h146z" />
    <glyph glyph-name="ecircumflex" unicode="&#xea;" horiz-adv-x="533" 
d="M458 29q-52 -34 -159 -34q-125 0 -194.5 72.5t-69.5 186.5q0 121 67.5 189.5t166.5 68.5q102 0 161 -59.5t59 -177.5q0 -23 -8 -79h-298q15 -42 52 -65t89 -23q77 0 134 43v-122zM275 401q-35 0 -62 -25.5t-36 -75.5h176v12q-7 89 -78 89zM190 554h-139l156 177h124
l156 -177h-139l-79 96z" />
    <glyph glyph-name="edieresis" unicode="&#xeb;" horiz-adv-x="533" 
d="M458 29q-52 -34 -159 -34q-125 0 -194.5 72.5t-69.5 186.5q0 121 67.5 189.5t166.5 68.5q102 0 161 -59.5t59 -177.5q0 -23 -8 -79h-298q15 -42 52 -65t89 -23q77 0 134 43v-122zM275 401q-35 0 -62 -25.5t-36 -75.5h176v12q-7 89 -78 89zM501 643q0 -35 -24 -58.5
t-59 -23.5q-36 0 -59.5 23.5t-23.5 58.5q0 34 23.5 57.5t59.5 23.5q35 0 59 -23.5t24 -57.5zM232 643q0 -35 -23.5 -58.5t-58.5 -23.5q-36 0 -59.5 23.5t-23.5 58.5q0 34 23.5 57.5t59.5 23.5q35 0 58.5 -23.5t23.5 -57.5z" />
    <glyph glyph-name="igrave" unicode="&#xec;" horiz-adv-x="276" 
d="M211 0h-146v507h146v-507zM189 554h-121l-111 177h146z" />
    <glyph glyph-name="iacute" unicode="&#xed;" horiz-adv-x="276" 
d="M211 0h-146v507h146v-507zM206 554h-121l86 177h146z" />
    <glyph glyph-name="icircumflex" unicode="&#xee;" horiz-adv-x="276" 
d="M211 0h-146v507h146v-507zM60 554h-139l156 177h124l156 -177h-139l-79 96z" />
    <glyph glyph-name="idieresis" unicode="&#xef;" horiz-adv-x="276" 
d="M211 0h-146v507h146v-507zM356 643q0 -35 -24 -58.5t-59 -23.5q-36 0 -59.5 23.5t-23.5 58.5q0 34 23.5 57.5t59.5 23.5q35 0 59 -23.5t24 -57.5zM87 643q0 -35 -23.5 -58.5t-58.5 -23.5q-36 0 -59.5 23.5t-23.5 58.5q0 34 23.5 57.5t59.5 23.5q35 0 58.5 -23.5
t23.5 -57.5z" />
    <glyph glyph-name="eth" unicode="&#xf0;" horiz-adv-x="557" 
d="M510 289q0 -135 -62 -217t-180 -82q-109 0 -171 62t-62 152q0 89 53.5 143.5t137.5 54.5q82 0 136 -51q-13 86 -62 161l-143 -70v81l97 47q-50 54 -126 104h184q28 -20 57 -47l113 55v-81l-65 -32q45 -63 69 -137.5t24 -142.5zM267 120q38 0 63 25t33 90q-42 44 -97 44
q-39 0 -60.5 -22.5t-21.5 -62.5q0 -33 22.5 -53.5t60.5 -20.5z" />
    <glyph glyph-name="ntilde" unicode="&#xf1;" horiz-adv-x="580" 
d="M525 0h-146v302q0 45 -21 68.5t-59 23.5q-40 0 -66.5 -31.5t-26.5 -94.5v-268h-146v507h146v-86q19 42 58.5 66.5t94.5 24.5q78 0 122 -46.5t44 -136.5v-329zM234 609q-25 0 -39 -8.5t-36 -34.5l-65 64q16 34 47.5 58t68.5 24q36 0 76.5 -17.5t59.5 -17.5q48 0 70 43
l74 -61q-42 -85 -136 -85q-33 0 -69 17.5t-51 17.5z" />
    <glyph glyph-name="ograve" unicode="&#xf2;" horiz-adv-x="567" 
d="M532 256q0 -115 -65.5 -189.5t-182.5 -74.5q-119 0 -184 71.5t-65 183.5q0 117 68 192.5t181 75.5q118 0 183 -73t65 -186zM187 253q0 -65 24.5 -106.5t73.5 -41.5q48 0 71.5 40.5t23.5 105.5q0 149 -97 149q-48 0 -72 -41t-24 -106zM354 553h-121l-111 177h146z" />
    <glyph glyph-name="oacute" unicode="&#xf3;" horiz-adv-x="567" 
d="M532 256q0 -115 -65.5 -189.5t-182.5 -74.5q-119 0 -184 71.5t-65 183.5q0 117 68 192.5t181 75.5q118 0 183 -73t65 -186zM187 253q0 -65 24.5 -106.5t73.5 -41.5q48 0 71.5 40.5t23.5 105.5q0 149 -97 149q-48 0 -72 -41t-24 -106zM356 553h-121l86 177h146z" />
    <glyph glyph-name="ocircumflex" unicode="&#xf4;" horiz-adv-x="567" 
d="M532 256q0 -115 -65.5 -189.5t-182.5 -74.5q-119 0 -184 71.5t-65 183.5q0 117 68 192.5t181 75.5q118 0 183 -73t65 -186zM187 253q0 -65 24.5 -106.5t73.5 -41.5q48 0 71.5 40.5t23.5 105.5q0 149 -97 149q-48 0 -72 -41t-24 -106zM208 553h-139l156 177h124l156 -177
h-139l-79 96z" />
    <glyph glyph-name="otilde" unicode="&#xf5;" horiz-adv-x="567" 
d="M532 256q0 -115 -65.5 -189.5t-182.5 -74.5q-119 0 -184 71.5t-65 183.5q0 117 68 192.5t181 75.5q118 0 183 -73t65 -186zM187 253q0 -65 24.5 -106.5t73.5 -41.5q48 0 71.5 40.5t23.5 105.5q0 149 -97 149q-48 0 -72 -41t-24 -106zM229 609q-25 0 -39 -8.5t-36 -34.5
l-65 64q16 34 47.5 58t68.5 24q36 0 76.5 -17.5t59.5 -17.5q49 0 70 43l74 -61q-43 -85 -136 -85q-33 0 -69 17.5t-51 17.5z" />
    <glyph glyph-name="odieresis" unicode="&#xf6;" horiz-adv-x="567" 
d="M532 256q0 -115 -65.5 -189.5t-182.5 -74.5q-119 0 -184 71.5t-65 183.5q0 117 68 192.5t181 75.5q118 0 183 -73t65 -186zM187 253q0 -65 24.5 -106.5t73.5 -41.5q48 0 71.5 40.5t23.5 105.5q0 149 -97 149q-48 0 -72 -41t-24 -106zM512 644q0 -35 -24 -58.5t-59 -23.5
q-36 0 -59.5 23.5t-23.5 58.5q0 34 23.5 57.5t59.5 23.5q35 0 59 -23.5t24 -57.5zM243 644q0 -35 -23.5 -58.5t-58.5 -23.5q-36 0 -59.5 23.5t-23.5 58.5q0 34 23.5 57.5t59.5 23.5q35 0 58.5 -23.5t23.5 -57.5z" />
    <glyph glyph-name="divide" unicode="&#xf7;" horiz-adv-x="589" 
d="M544 275h-499v130h499v-130zM366 164q0 -31 -22.5 -53.5t-53.5 -22.5t-53.5 22.5t-22.5 53.5t22.5 53.5t53.5 22.5t53.5 -22.5t22.5 -53.5zM366 516q0 -31 -22.5 -53.5t-53.5 -22.5t-53.5 22.5t-22.5 53.5t22.5 53.5t53.5 22.5t53.5 -22.5t22.5 -53.5z" />
    <glyph glyph-name="oslash" unicode="&#xf8;" horiz-adv-x="562" 
d="M532 256q0 -115 -65.5 -189.5t-182.5 -74.5q-63 0 -112 22l-16 -22h-121l57 80q-57 69 -57 175q0 117 68 192.5t181 75.5q59 0 111 -21l15 21h122l-58 -81q58 -68 58 -178zM169 253q0 -36 7 -64l156 217q-23 10 -49 10q-56 0 -85 -45.5t-29 -117.5zM285 89q57 0 85 45
t28 117q0 39 -7 68l-156 -218q21 -12 50 -12z" />
    <glyph glyph-name="ugrave" unicode="&#xf9;" horiz-adv-x="580" 
d="M520 0h-146v81q-40 -85 -154 -85q-78 0 -121.5 43.5t-43.5 128.5v339h146v-306q0 -89 78 -89q95 0 95 127v268h146v-507zM351 553h-121l-111 177h146z" />
    <glyph glyph-name="uacute" unicode="&#xfa;" horiz-adv-x="580" 
d="M520 0h-146v81q-40 -85 -154 -85q-78 0 -121.5 43.5t-43.5 128.5v339h146v-306q0 -89 78 -89q95 0 95 127v268h146v-507zM359 553h-121l86 177h146z" />
    <glyph glyph-name="ucircumflex" unicode="&#xfb;" horiz-adv-x="580" 
d="M520 0h-146v81q-40 -85 -154 -85q-78 0 -121.5 43.5t-43.5 128.5v339h146v-306q0 -89 78 -89q95 0 95 127v268h146v-507zM209 554h-139l156 177h124l156 -177h-139l-79 96z" />
    <glyph glyph-name="udieresis" unicode="&#xfc;" horiz-adv-x="580" 
d="M520 0h-146v81q-40 -85 -154 -85q-78 0 -121.5 43.5t-43.5 128.5v339h146v-306q0 -89 78 -89q95 0 95 127v268h146v-507zM504 643q0 -35 -24 -58.5t-59 -23.5q-36 0 -59.5 23.5t-23.5 58.5q0 34 23.5 57.5t59.5 23.5q35 0 59 -23.5t24 -57.5zM235 643q0 -35 -23.5 -58.5
t-58.5 -23.5q-36 0 -59.5 23.5t-23.5 58.5q0 34 23.5 57.5t59.5 23.5q35 0 58.5 -23.5t23.5 -57.5z" />
    <glyph glyph-name="yacute" unicode="&#xfd;" horiz-adv-x="532" 
d="M344 15q-79 -213 -241 -213q-31 0 -56 5v116q16 -4 34 -4q83 0 120 89l-196 499h159l55 -158q21 -61 34.5 -105t16.5 -58l3 -14q11 40 54 177l50 158h150zM345 554h-121l86 177h146z" />
    <glyph glyph-name="thorn" unicode="&#xfe;" horiz-adv-x="611" 
d="M206 -187h-146v894h146v-278q53 84 153 84q98 0 157.5 -69.5t59.5 -188.5q0 -113 -57.5 -187t-159.5 -74q-103 0 -153 81v-262zM206 259q0 -65 32 -104t82 -39q48 0 78 36.5t30 99.5q0 69 -30.5 104.5t-77.5 35.5q-46 0 -80 -35t-34 -98z" />
    <glyph glyph-name="ydieresis" unicode="&#xff;" horiz-adv-x="532" 
d="M344 15q-79 -213 -241 -213q-31 0 -56 5v116q16 -4 34 -4q83 0 120 89l-196 499h159l55 -158q21 -61 34.5 -105t16.5 -58l3 -14q11 40 54 177l50 158h150zM493 643q0 -35 -24 -58.5t-59 -23.5q-36 0 -59.5 23.5t-23.5 58.5q0 34 23.5 57.5t59.5 23.5q35 0 59 -23.5
t24 -57.5zM224 643q0 -35 -23.5 -58.5t-58.5 -23.5q-36 0 -59.5 23.5t-23.5 58.5q0 34 23.5 57.5t59.5 23.5q35 0 58.5 -23.5t23.5 -57.5z" />
    <glyph glyph-name="Amacron" unicode="&#x100;" horiz-adv-x="690" 
d="M269 286l-7 -24h162l-7 24q-29 98 -47.5 167t-22.5 89l-4 20q-8 -55 -74 -276zM184 0h-161l225 674h194l225 -674h-165l-41 138h-236zM527 761h-356v99h356v-99z" />
    <glyph glyph-name="amacron" unicode="&#x101;" horiz-adv-x="516" 
d="M246 100q31 0 48 19t17 52v37h-47q-37 0 -57 -16t-20 -41q0 -51 59 -51zM318 62q-32 -65 -126 -65q-74 0 -115.5 42t-41.5 105q0 73 53.5 113.5t158.5 40.5h64v35q0 64 -85 64q-82 0 -152 -46v131q60 34 173 34q108 0 161 -46.5t53 -144.5v-325h-143v62zM436 593h-356v99
h356v-99z" />
    <glyph glyph-name="Abreve" unicode="&#x102;" horiz-adv-x="690" 
d="M269 286l-7 -24h162l-7 24q-29 98 -47.5 167t-22.5 89l-4 20q-8 -55 -74 -276zM184 0h-161l225 674h194l225 -674h-165l-41 138h-236zM540 898q0 -93 -54.5 -137t-143.5 -44t-143.5 44t-54.5 137h112q0 -42 23.5 -65.5t62.5 -23.5t62.5 23.5t23.5 65.5h112z" />
    <glyph glyph-name="abreve" unicode="&#x103;" horiz-adv-x="516" 
d="M246 100q31 0 48 19t17 52v37h-47q-37 0 -57 -16t-20 -41q0 -51 59 -51zM318 62q-32 -65 -126 -65q-74 0 -115.5 42t-41.5 105q0 73 53.5 113.5t158.5 40.5h64v35q0 64 -85 64q-82 0 -152 -46v131q60 34 173 34q108 0 161 -46.5t53 -144.5v-325h-143v62zM455 730
q0 -93 -54.5 -137t-143.5 -44t-143.5 44t-54.5 137h112q0 -42 23.5 -65.5t62.5 -23.5t62.5 23.5t23.5 65.5h112z" />
    <glyph glyph-name="Aogonek" unicode="&#x104;" horiz-adv-x="680" 
d="M264 286l-7 -24h162l-7 24q-29 98 -47.5 167t-22.5 89l-4 20q-8 -55 -74 -276zM674 -235q-48 -25 -109 -25q-70 0 -103.5 33t-33.5 84q0 79 69 143l-41 138h-236l-41 -138h-161l225 674h194l225 -674q-118 -73 -118 -130q0 -34 43 -34q44 0 87 30v-101z" />
    <glyph glyph-name="aogonek" unicode="&#x105;" horiz-adv-x="511" 
d="M246 100q31 0 48 19t17 52v37h-47q-37 0 -57 -16t-20 -41q0 -51 59 -51zM473 -235q-48 -25 -109 -25q-70 0 -103.5 33t-33.5 84q0 85 91 153v52q-32 -65 -126 -65q-74 0 -115.5 42t-41.5 105q0 73 53.5 113.5t158.5 40.5h64v35q0 64 -85 64q-82 0 -152 -46v131
q60 34 173 34q108 0 161 -46.5t53 -144.5v-325q-118 -73 -118 -130q0 -34 43 -34q44 0 87 30v-101z" />
    <glyph glyph-name="Cacute" unicode="&#x106;" horiz-adv-x="613" 
d="M563 30q-61 -38 -176 -38q-148 0 -247.5 95.5t-99.5 247.5q0 154 96.5 251t251.5 97q114 0 175 -38v-148q-75 46 -167 46q-81 0 -136 -56.5t-55 -151.5q0 -93 55 -147.5t142 -54.5q94 0 161 48v-151zM425 721h-121l86 177h146z" />
    <glyph glyph-name="cacute" unicode="&#x107;" horiz-adv-x="469" 
d="M439 24q-59 -32 -142 -32q-114 0 -188 72.5t-74 187.5q2 114 74 188.5t197 74.5q77 0 133 -29v-125q-53 33 -118 33q-61 0 -99 -36.5t-39 -105.5q4 -67 40 -104t95 -37q63 0 121 35v-122zM358 553h-121l86 177h146z" />
    <glyph glyph-name="Ccaron" unicode="&#x10c;" horiz-adv-x="613" 
d="M563 30q-61 -38 -176 -38q-148 0 -247.5 95.5t-99.5 247.5q0 154 96.5 251t251.5 97q114 0 175 -38v-148q-75 46 -167 46q-81 0 -136 -56.5t-55 -151.5q0 -93 55 -147.5t142 -54.5q94 0 161 48v-151zM422 721h-124l-156 177h139l79 -96l79 96h139z" />
    <glyph glyph-name="ccaron" unicode="&#x10d;" horiz-adv-x="469" 
d="M439 24q-59 -32 -142 -32q-114 0 -188 72.5t-74 187.5q2 114 74 188.5t197 74.5q77 0 133 -29v-125q-53 33 -118 33q-61 0 -99 -36.5t-39 -105.5q4 -67 40 -104t95 -37q63 0 121 35v-122zM337 553h-124l-156 177h139l79 -96l79 96h139z" />
    <glyph glyph-name="Dcaron" unicode="&#x10e;" horiz-adv-x="683" 
d="M295 0h-230v674h232q152 0 249 -93.5t97 -232.5q0 -162 -95.5 -255t-252.5 -93zM292 547h-69v-421h70q93 0 143.5 58t50.5 164q0 90 -51 144.5t-144 54.5zM382 721h-124l-156 177h139l79 -96l79 96h139z" />
    <glyph glyph-name="dcaron" unicode="&#x10f;" horiz-adv-x="745" 
d="M183 252q0 -61 32 -98.5t78 -37.5q50 0 81 39t31 104q0 63 -33.5 98t-79.5 35t-77.5 -37t-31.5 -103zM551 0h-146v79q-51 -85 -152 -85q-99 0 -158.5 77t-59.5 184q0 120 62 189t157 69q99 0 151 -84v278h146v-707zM705 497h-106l71 211h151z" />
    <glyph glyph-name="Dcroat" unicode="&#x110;" horiz-adv-x="749" 
d="M361 0h-230v269h-66v124h66v281h232q152 0 249 -93.5t97 -232.5q0 -162 -95.5 -255t-252.5 -93zM427 269h-138v-143h70q93 0 143.5 58t50.5 164q0 90 -51 144.5t-144 54.5h-69v-154h138v-124z" />
    <glyph glyph-name="dcroat" unicode="&#x111;" horiz-adv-x="611" 
d="M183 252q0 -61 32 -98.5t78 -37.5q50 0 81 39t31 104q0 63 -33.5 98t-79.5 35t-77.5 -37t-31.5 -103zM551 0h-146v79q-51 -85 -152 -85q-99 0 -158.5 77t-59.5 184q0 120 62 189t157 69q99 0 151 -84v135h-151v82h151v61h146v-61h57v-82h-57v-564z" />
    <glyph glyph-name="Emacron" unicode="&#x112;" horiz-adv-x="544" 
d="M484 0h-419v674h415v-123h-260v-153h232v-122h-232v-153h264v-123zM450 764h-356v99h356v-99z" />
    <glyph glyph-name="emacron" unicode="&#x113;" horiz-adv-x="533" 
d="M458 29q-52 -34 -159 -34q-125 0 -194.5 72.5t-69.5 186.5q0 121 67.5 189.5t166.5 68.5q102 0 161 -59.5t59 -177.5q0 -23 -8 -79h-298q15 -42 52 -65t89 -23q77 0 134 43v-122zM275 401q-35 0 -62 -25.5t-36 -75.5h176v12q-7 89 -78 89zM448 593h-356v99h356v-99z" />
    <glyph glyph-name="Edotaccent" unicode="&#x116;" horiz-adv-x="544" 
d="M484 0h-419v674h415v-123h-260v-153h232v-122h-232v-153h264v-123zM364 810q0 -35 -23.5 -58.5t-58.5 -23.5q-36 0 -59.5 23.5t-23.5 58.5q0 34 23.5 57.5t59.5 23.5q35 0 58.5 -23.5t23.5 -57.5z" />
    <glyph glyph-name="edotaccent" unicode="&#x117;" horiz-adv-x="533" 
d="M458 29q-52 -34 -159 -34q-125 0 -194.5 72.5t-69.5 186.5q0 121 67.5 189.5t166.5 68.5q102 0 161 -59.5t59 -177.5q0 -23 -8 -79h-298q15 -42 52 -65t89 -23q77 0 134 43v-122zM275 401q-35 0 -62 -25.5t-36 -75.5h176v12q-7 89 -78 89zM362 643q0 -35 -23.5 -58.5
t-58.5 -23.5q-36 0 -59.5 23.5t-23.5 58.5q0 34 23.5 57.5t59.5 23.5q35 0 58.5 -23.5t23.5 -57.5z" />
    <glyph glyph-name="Eogonek" unicode="&#x118;" horiz-adv-x="544" 
d="M496 -235q-48 -25 -109 -25q-70 0 -103.5 33t-33.5 84q0 79 79 143h-264v674h415v-123h-260v-153h232v-122h-232v-153h264v-123q-118 -73 -118 -130q0 -34 43 -34q44 0 87 30v-101z" />
    <glyph glyph-name="eogonek" unicode="&#x119;" horiz-adv-x="533" 
d="M275 401q-35 0 -62 -25.5t-36 -75.5h176v12q-7 89 -78 89zM457 -213q-48 -25 -109 -25q-70 0 -103.5 33t-33.5 84q0 63 52 118q-109 10 -168.5 81t-59.5 176q0 121 67.5 189.5t166.5 68.5q102 0 161 -59.5t59 -177.5q0 -23 -8 -79h-298q15 -42 52 -65t89 -23q77 0 134 43
v-122q-2 -2 -7 -4.5l-7 -3.5q-117 -73 -117 -129q0 -34 43 -34q44 0 87 30v-101z" />
    <glyph glyph-name="Ecaron" unicode="&#x11a;" horiz-adv-x="544" 
d="M484 0h-419v674h415v-123h-260v-153h232v-122h-232v-153h264v-123zM341 721h-124l-156 177h139l79 -96l79 96h139z" />
    <glyph glyph-name="ecaron" unicode="&#x11b;" horiz-adv-x="533" 
d="M458 29q-52 -34 -159 -34q-125 0 -194.5 72.5t-69.5 186.5q0 121 67.5 189.5t166.5 68.5q102 0 161 -59.5t59 -177.5q0 -23 -8 -79h-298q15 -42 52 -65t89 -23q77 0 134 43v-122zM275 401q-35 0 -62 -25.5t-36 -75.5h176v12q-7 89 -78 89zM334 553h-124l-156 177h139
l79 -96l79 96h139z" />
    <glyph glyph-name="Gbreve" unicode="&#x11e;" horiz-adv-x="706" 
d="M646 62q-96 -70 -242 -70q-162 0 -263 93t-101 253q0 158 105.5 253t267.5 95q114 0 197 -42v-154q-96 55 -197 55q-95 0 -151 -56.5t-56 -150.5q0 -95 55 -151t150 -56q43 0 85 13v127h-109v131h259v-340zM576 898q0 -93 -54.5 -137t-143.5 -44t-143.5 44t-54.5 137h112
q0 -42 23.5 -65.5t62.5 -23.5t62.5 23.5t23.5 65.5h112z" />
    <glyph glyph-name="gbreve" unicode="&#x11f;" horiz-adv-x="585" 
d="M530 49q0 -122 -73 -183.5t-183 -61.5q-107 0 -187 38v149q70 -56 172 -56q66 0 96 28t30 88v34q-44 -68 -140 -68q-84 0 -144.5 62t-60.5 184q0 108 58.5 178.5t153.5 70.5q90 0 133 -72v67h145v-458zM192 262q0 -63 24 -96t69 -33q47 0 73.5 35.5t26.5 85.5
q0 136 -99 136q-44 0 -69 -34t-25 -94zM509 731q0 -93 -54.5 -137t-143.5 -44t-143.5 44t-54.5 137h112q0 -42 23.5 -65.5t62.5 -23.5t62.5 23.5t23.5 65.5h112z" />
    <glyph glyph-name="uni0122" unicode="&#x122;" horiz-adv-x="706" 
d="M646 62q-96 -70 -242 -70q-162 0 -263 93t-101 253q0 158 105.5 253t267.5 95q114 0 197 -42v-154q-96 55 -197 55q-95 0 -151 -56.5t-56 -150.5q0 -95 55 -151t150 -56q43 0 85 13v127h-109v131h259v-340zM335 -262h-106l71 211h151z" />
    <glyph glyph-name="uni0123" unicode="&#x123;" horiz-adv-x="585" 
d="M530 49q0 -122 -73 -183.5t-183 -61.5q-107 0 -187 38v149q70 -56 172 -56q66 0 96 28t30 88v34q-44 -68 -140 -68q-84 0 -144.5 62t-60.5 184q0 108 58.5 178.5t153.5 70.5q90 0 133 -72v67h145v-458zM192 262q0 -63 24 -96t69 -33q47 0 73.5 35.5t26.5 85.5
q0 136 -99 136q-44 0 -69 -34t-25 -94zM400 554h-151l116 211h106z" />
    <glyph glyph-name="Imacron" unicode="&#x12a;" horiz-adv-x="304" 
d="M229 0h-154v674h154v-674zM330 760h-356v99h356v-99z" />
    <glyph glyph-name="imacron" unicode="&#x12b;" horiz-adv-x="276" 
d="M211 0h-146v507h146v-507zM316 593h-356v99h356v-99z" />
    <glyph glyph-name="Iogonek" unicode="&#x12e;" horiz-adv-x="304" 
d="M241 -235q-48 -25 -109 -25q-70 0 -103.5 33t-33.5 84q0 79 80 144v673h154v-674q-118 -73 -118 -130q0 -34 43 -34q44 0 87 30v-101z" />
    <glyph glyph-name="iogonek" unicode="&#x12f;" horiz-adv-x="276" 
d="M223 654q0 -35 -25 -60t-60 -25t-60 25t-25 60t25 60t60 25t60 -25t25 -60zM223 -235q-48 -25 -109 -25q-70 0 -103.5 33t-33.5 84q0 81 88 150v500h146v-507q-118 -73 -118 -130q0 -34 43 -34q44 0 87 30v-101z" />
    <glyph glyph-name="Idotaccent" unicode="&#x130;" horiz-adv-x="304" 
d="M229 0h-154v674h154v-674zM236 810q0 -35 -23.5 -58.5t-58.5 -23.5q-36 0 -59.5 23.5t-23.5 58.5q0 34 23.5 57.5t59.5 23.5q35 0 58.5 -23.5t23.5 -57.5z" />
    <glyph glyph-name="dotlessi" unicode="&#x131;" horiz-adv-x="276" 
d="M211 0h-146v507h146v-507z" />
    <glyph glyph-name="uni0136" unicode="&#x136;" horiz-adv-x="662" 
d="M645 0h-193l-226 335l218 339h183l-221 -337zM295 -262h-106l71 211h151zM219 0h-154v674h154v-674z" />
    <glyph glyph-name="uni0137" unicode="&#x137;" horiz-adv-x="548" 
d="M206 0h-146v690h146v-410l160 227h168l-176 -243l179 -264h-169l-162 249v-249zM254 -262h-106l71 211h151z" />
    <glyph glyph-name="Lacute" unicode="&#x139;" horiz-adv-x="488" 
d="M468 0h-403v674h154v-539h249v-135zM377 721h-121l86 177h146z" />
    <glyph glyph-name="lacute" unicode="&#x13a;" horiz-adv-x="276" 
d="M211 0h-146v707h146v-707zM196 754h-121l86 177h146z" />
    <glyph glyph-name="uni013B" unicode="&#x13b;" horiz-adv-x="488" 
d="M245 -262h-106l71 211h151zM468 0h-403v674h154v-539h249v-135z" />
    <glyph glyph-name="uni013C" unicode="&#x13c;" horiz-adv-x="276" 
d="M211 0h-146v707h146v-707zM95 -262h-106l71 211h151z" />
    <glyph glyph-name="Lcaron" unicode="&#x13d;" horiz-adv-x="488" 
d="M468 0h-403v674h154v-539h249v-135zM385 488h-106l71 211h151z" />
    <glyph glyph-name="lcaron" unicode="&#x13e;" horiz-adv-x="276" 
d="M211 0h-146v707h146v-707zM375 498h-106l71 211h151z" />
    <glyph glyph-name="Lslash" unicode="&#x141;" horiz-adv-x="563" 
d="M443 383l-164 -92v-156h249v-135h-403v205l-80 -45v121l80 45v348h154v-262l164 92v-121z" />
    <glyph glyph-name="lslash" unicode="&#x142;" horiz-adv-x="341" 
d="M248 0h-146v263l-77 -53v121l77 53v323h146v-224l83 57v-121l-83 -57v-362z" />
    <glyph glyph-name="Nacute" unicode="&#x143;" horiz-adv-x="697" 
d="M219 0h-154v674h169l157 -279q33 -59 57.5 -110.5t31.5 -72.5l8 -22q-10 74 -10 205v279h154v-674h-169l-161 279q-32 54 -56.5 106.5t-33.5 77.5l-8 25q15 -90 15 -209v-279zM423 721h-121l86 177h146z" />
    <glyph glyph-name="nacute" unicode="&#x144;" horiz-adv-x="580" 
d="M525 0h-146v302q0 45 -21 68.5t-59 23.5q-40 0 -66.5 -31.5t-26.5 -94.5v-268h-146v507h146v-86q19 42 58.5 66.5t94.5 24.5q78 0 122 -46.5t44 -136.5v-329zM379 554h-121l86 177h146z" />
    <glyph glyph-name="uni0145" unicode="&#x145;" horiz-adv-x="697" 
d="M219 0h-154v674h169l157 -279q33 -59 57.5 -110.5t31.5 -72.5l8 -22q-10 74 -10 205v279h154v-674h-169l-161 279q-32 54 -56.5 106.5t-33.5 77.5l-8 25q15 -90 15 -209v-279zM315 -262h-106l71 211h151z" />
    <glyph glyph-name="uni0146" unicode="&#x146;" horiz-adv-x="580" 
d="M525 0h-146v302q0 45 -21 68.5t-59 23.5q-40 0 -66.5 -31.5t-26.5 -94.5v-268h-146v507h146v-86q19 42 58.5 66.5t94.5 24.5q78 0 122 -46.5t44 -136.5v-329zM255 -262h-106l71 211h151z" />
    <glyph glyph-name="Ncaron" unicode="&#x147;" horiz-adv-x="697" 
d="M219 0h-154v674h169l157 -279q33 -59 57.5 -110.5t31.5 -72.5l8 -22q-10 74 -10 205v279h154v-674h-169l-161 279q-32 54 -56.5 106.5t-33.5 77.5l-8 25q15 -90 15 -209v-279zM415 721h-124l-156 177h139l79 -96l79 96h139z" />
    <glyph glyph-name="ncaron" unicode="&#x148;" horiz-adv-x="580" 
d="M525 0h-146v302q0 45 -21 68.5t-59 23.5q-40 0 -66.5 -31.5t-26.5 -94.5v-268h-146v507h146v-86q19 42 58.5 66.5t94.5 24.5q78 0 122 -46.5t44 -136.5v-329zM361 554h-124l-156 177h139l79 -96l79 96h139z" />
    <glyph glyph-name="Omacron" unicode="&#x14c;" horiz-adv-x="736" 
d="M696 339q0 -155 -89.5 -250.5t-238.5 -95.5q-150 0 -239 95t-89 251q0 155 89.5 250.5t238.5 95.5q150 0 239 -95t89 -251zM205 339q0 -95 44 -150.5t119 -55.5t119 55.5t44 150.5t-44 150.5t-119 55.5t-119 -55.5t-44 -150.5zM545 760h-356v99h356v-99z" />
    <glyph glyph-name="omacron" unicode="&#x14d;" horiz-adv-x="567" 
d="M532 256q0 -115 -65.5 -189.5t-182.5 -74.5q-119 0 -184 71.5t-65 183.5q0 117 68 192.5t181 75.5q118 0 183 -73t65 -186zM187 253q0 -65 24.5 -106.5t73.5 -41.5q48 0 71.5 40.5t23.5 105.5q0 149 -97 149q-48 0 -72 -41t-24 -106zM462 593h-356v99h356v-99z" />
    <glyph glyph-name="Ohungarumlaut" unicode="&#x150;" horiz-adv-x="736" 
d="M696 339q0 -155 -89.5 -250.5t-238.5 -95.5q-150 0 -239 95t-89 251q0 155 89.5 250.5t238.5 95.5q150 0 239 -95t89 -251zM205 339q0 -95 44 -150.5t119 -55.5t119 55.5t44 150.5t-44 150.5t-119 55.5t-119 -55.5t-44 -150.5zM523 721h-108l94 177h145zM336 721h-108
l86 177h133z" />
    <glyph glyph-name="ohungarumlaut" unicode="&#x151;" horiz-adv-x="567" 
d="M532 256q0 -115 -65.5 -189.5t-182.5 -74.5q-119 0 -184 71.5t-65 183.5q0 117 68 192.5t181 75.5q118 0 183 -73t65 -186zM187 253q0 -65 24.5 -106.5t73.5 -41.5q48 0 71.5 40.5t23.5 105.5q0 149 -97 149q-48 0 -72 -41t-24 -106zM446 554h-108l94 177h145zM259 554
h-108l86 177h133z" />
    <glyph glyph-name="OE" unicode="&#x152;" horiz-adv-x="1000" 
d="M205 339q0 -95 42 -150.5t116 -55.5t116 55.5t42 150.5t-42 150.5t-116 55.5t-116 -55.5t-42 -150.5zM940 0h-419v44q-70 -51 -158 -51q-149 0 -236 94.5t-87 251.5q0 156 87 251t236 95q88 0 158 -50v39h415v-123h-270v-153h242v-122h-242v-153h274v-123z" />
    <glyph glyph-name="oe" unicode="&#x153;" horiz-adv-x="879" 
d="M187 253q0 -65 24.5 -106.5t73.5 -41.5t75.5 41t26.5 105q0 65 -26 107t-78 42q-48 0 -72 -41t-24 -106zM627 401q-35 0 -62 -25.5t-36 -75.5h176l-1 21q-9 80 -77 80zM810 29q-52 -34 -159 -34q-117 0 -191 74q-67 -77 -176 -77q-119 0 -184 71.5t-65 183.5
q0 117 68 192.5t181 75.5q108 0 174 -72q69 69 163 69q102 0 161 -59.5t59 -177.5q0 -23 -8 -79h-298q15 -42 52 -65t89 -23q77 0 134 43v-122z" />
    <glyph glyph-name="Racute" unicode="&#x154;" horiz-adv-x="614" 
d="M295 549h-76v-190h73q100 0 100 98q0 43 -26 67.5t-71 24.5zM219 0h-154v674h233q113 0 181.5 -60t68.5 -156q0 -144 -123 -199l171 -259h-184l-146 234h-47v-234zM355 721h-121l86 177h146z" />
    <glyph glyph-name="racute" unicode="&#x155;" horiz-adv-x="370" 
d="M205 0h-146l1 507h145v-94q14 44 46.5 70.5t75.5 26.5q24 0 38 -4v-138q-24 11 -55 11q-47 0 -76 -34.5t-29 -91.5v-253zM280 554h-121l86 177h146z" />
    <glyph glyph-name="uni0156" unicode="&#x156;" horiz-adv-x="614" 
d="M295 549h-76v-190h73q100 0 100 98q0 43 -26 67.5t-71 24.5zM271 -262h-106l71 211h151zM219 0h-154v674h233q113 0 181.5 -60t68.5 -156q0 -144 -123 -199l171 -259h-184l-146 234h-47v-234z" />
    <glyph glyph-name="uni0157" unicode="&#x157;" horiz-adv-x="370" 
d="M86 -262h-106l71 211h151zM205 0h-146l1 507h145v-94q14 44 46.5 70.5t75.5 26.5q24 0 38 -4v-138q-24 11 -55 11q-47 0 -76 -34.5t-29 -91.5v-253z" />
    <glyph glyph-name="Rcaron" unicode="&#x158;" horiz-adv-x="614" 
d="M295 549h-76v-190h73q100 0 100 98q0 43 -26 67.5t-71 24.5zM219 0h-154v674h233q113 0 181.5 -60t68.5 -156q0 -144 -123 -199l171 -259h-184l-146 234h-47v-234zM378 721h-124l-156 177h139l79 -96l79 96h139z" />
    <glyph glyph-name="rcaron" unicode="&#x159;" horiz-adv-x="370" 
d="M205 0h-146l1 507h145v-94q14 44 46.5 70.5t75.5 26.5q24 0 38 -4v-138q-24 11 -55 11q-47 0 -76 -34.5t-29 -91.5v-253zM274 554h-124l-156 177h139l79 -96l79 96h139z" />
    <glyph glyph-name="Sacute" unicode="&#x15a;" horiz-adv-x="514" 
d="M484 196q0 -91 -67 -147.5t-178 -56.5q-119 0 -194 42v155q91 -66 194 -66q35 0 58 18.5t23 48.5q0 10 -3 19t-11 17t-15.5 13.5t-22 13t-24.5 12.5t-29.5 14t-31.5 14q-65 30 -104.5 74t-39.5 117q0 87 64 140.5t177 53.5q101 0 174 -34v-144q-81 47 -168 47
q-39 0 -59.5 -16t-20.5 -41t25 -44.5t75 -41.5q31 -14 51.5 -24.5t47 -29t42 -39t26.5 -50.5t11 -65zM323 721h-121l86 177h146z" />
    <glyph glyph-name="sacute" unicode="&#x15b;" horiz-adv-x="436" 
d="M406 153q0 -75 -54 -116t-143 -41q-92 0 -154 31v130q69 -48 146 -48q55 0 55 35q0 9 -5 17t-17 15t-22 11.5t-29 12.5t-29 13q-101 48 -101 144q0 74 56.5 115t140.5 41q78 0 130 -21v-125q-53 31 -124 31q-26 0 -40 -10.5t-14 -26.5q0 -9 5 -17t16.5 -15t22 -12.5
t29 -13.5t29.5 -14q46 -24 74 -55.5t28 -80.5zM302 554h-121l86 177h146z" />
    <glyph glyph-name="uni015E" unicode="&#x15e;" horiz-adv-x="514" 
d="M484 196q0 -91 -67 -147.5t-178 -56.5q-119 0 -194 42v155q91 -66 194 -66q35 0 58 18.5t23 48.5q0 10 -3 19t-11 17t-15.5 13.5t-22 13t-24.5 12.5t-29.5 14t-31.5 14q-65 30 -104.5 74t-39.5 117q0 87 64 140.5t177 53.5q101 0 174 -34v-144q-81 47 -168 47
q-39 0 -59.5 -16t-20.5 -41t25 -44.5t75 -41.5q31 -14 51.5 -24.5t47 -29t42 -39t26.5 -50.5t11 -65zM339 -125q0 -63 -45.5 -103t-133.5 -40v91q36 0 55.5 17t19.5 47q0 28 -26 62h113q17 -27 17 -74z" />
    <glyph glyph-name="uni015F" unicode="&#x15f;" horiz-adv-x="436" 
d="M406 153q0 -75 -54 -116t-143 -41q-92 0 -154 31v130q69 -48 146 -48q55 0 55 35q0 9 -5 17t-17 15t-22 11.5t-29 12.5t-29 13q-101 48 -101 144q0 74 56.5 115t140.5 41q78 0 130 -21v-125q-53 31 -124 31q-26 0 -40 -10.5t-14 -26.5q0 -9 5 -17t16.5 -15t22 -12.5
t29 -13.5t29.5 -14q46 -24 74 -55.5t28 -80.5zM299 -125q0 -63 -45.5 -103t-133.5 -40v91q36 0 55.5 17t19.5 47q0 28 -26 62h113q17 -27 17 -74z" />
    <glyph glyph-name="Scaron" unicode="&#x160;" horiz-adv-x="514" 
d="M484 196q0 -91 -67 -147.5t-178 -56.5q-119 0 -194 42v155q91 -66 194 -66q35 0 58 18.5t23 48.5q0 10 -3 19t-11 17t-15.5 13.5t-22 13t-24.5 12.5t-29.5 14t-31.5 14q-65 30 -104.5 74t-39.5 117q0 87 64 140.5t177 53.5q101 0 174 -34v-144q-81 47 -168 47
q-39 0 -59.5 -16t-20.5 -41t25 -44.5t75 -41.5q31 -14 51.5 -24.5t47 -29t42 -39t26.5 -50.5t11 -65zM328 721h-124l-156 177h139l79 -96l79 96h139z" />
    <glyph glyph-name="scaron" unicode="&#x161;" horiz-adv-x="436" 
d="M406 153q0 -75 -54 -116t-143 -41q-92 0 -154 31v130q69 -48 146 -48q55 0 55 35q0 9 -5 17t-17 15t-22 11.5t-29 12.5t-29 13q-101 48 -101 144q0 74 56.5 115t140.5 41q78 0 130 -21v-125q-53 31 -124 31q-26 0 -40 -10.5t-14 -26.5q0 -9 5 -17t16.5 -15t22 -12.5
t29 -13.5t29.5 -14q46 -24 74 -55.5t28 -80.5zM301 553h-124l-156 177h139l79 -96l79 96h139z" />
    <glyph glyph-name="uni0162" unicode="&#x162;" horiz-adv-x="544" 
d="M514 550h-164v-550h-155v550h-165v124h484v-124zM349 -125q0 -63 -45.5 -103t-133.5 -40v91q36 0 55.5 17t19.5 47q0 28 -26 62h113q17 -27 17 -74z" />
    <glyph glyph-name="uni0163" unicode="&#x163;" horiz-adv-x="386" 
d="M356 11q-37 -16 -100 -16q-173 0 -173 173v232h-73v107h73v120h146v-120h118v-107h-118v-233q0 -27 15.5 -41t40.5 -14q40 0 71 20v-121zM289 -125q0 -63 -45.5 -103t-133.5 -40v91q36 0 55.5 17t19.5 47q0 28 -26 62h113q17 -27 17 -74z" />
    <glyph glyph-name="Tcaron" unicode="&#x164;" horiz-adv-x="544" 
d="M514 550h-164v-550h-155v550h-165v124h484v-124zM334 721h-124l-156 177h139l79 -96l79 96h139z" />
    <glyph glyph-name="tcaron" unicode="&#x165;" horiz-adv-x="386" 
d="M356 11q-37 -16 -100 -16q-173 0 -173 173v232h-73v107h73v120h146v-120h118v-107h-118v-233q0 -27 15.5 -41t40.5 -14q40 0 71 20v-121zM386 588h-106l71 211h151z" />
    <glyph glyph-name="Umacron" unicode="&#x16a;" horiz-adv-x="668" 
d="M608 261q0 -132 -74 -201.5t-200 -69.5q-124 0 -199 69t-75 195v420h154v-419q0 -125 120 -125t120 130v414h154v-413zM520 760h-356v99h356v-99z" />
    <glyph glyph-name="umacron" unicode="&#x16b;" horiz-adv-x="580" 
d="M520 0h-146v81q-40 -85 -154 -85q-78 0 -121.5 43.5t-43.5 128.5v339h146v-306q0 -89 78 -89q95 0 95 127v268h146v-507zM464 593h-356v99h356v-99z" />
    <glyph glyph-name="Uring" unicode="&#x16e;" horiz-adv-x="668" 
d="M608 261q0 -132 -74 -201.5t-200 -69.5q-124 0 -199 69t-75 195v420h154v-419q0 -125 120 -125t120 130v414h154v-413zM472 846q0 -56 -40 -96t-96 -40t-96 40t-40 96t40 96t96 40t96 -40t40 -96zM283 849q0 -23 15 -39.5t38 -16.5t38 16.5t15 39.5t-15 39.5t-38 16.5
t-38 -16.5t-15 -39.5z" />
    <glyph glyph-name="uring" unicode="&#x16f;" horiz-adv-x="580" 
d="M520 0h-146v81q-40 -85 -154 -85q-78 0 -121.5 43.5t-43.5 128.5v339h146v-306q0 -89 78 -89q95 0 95 127v268h146v-507zM427 679q0 -56 -40 -96t-96 -40t-96 40t-40 96t40 96t96 40t96 -40t40 -96zM238 682q0 -23 15 -39.5t38 -16.5t38 16.5t15 39.5t-15 39.5t-38 16.5
t-38 -16.5t-15 -39.5z" />
    <glyph glyph-name="Uhungarumlaut" unicode="&#x170;" horiz-adv-x="668" 
d="M608 261q0 -132 -74 -201.5t-200 -69.5q-124 0 -199 69t-75 195v420h154v-419q0 -125 120 -125t120 130v414h154v-413zM485 721h-108l94 177h145zM298 721h-108l86 177h133z" />
    <glyph glyph-name="uhungarumlaut" unicode="&#x171;" horiz-adv-x="580" 
d="M520 0h-146v81q-40 -85 -154 -85q-78 0 -121.5 43.5t-43.5 128.5v339h146v-306q0 -89 78 -89q95 0 95 127v268h146v-507zM445 554h-108l94 177h145zM258 554h-108l86 177h133z" />
    <glyph glyph-name="Uogonek" unicode="&#x172;" horiz-adv-x="668" 
d="M608 261q0 -98 -42.5 -162.5t-117.5 -90.5q-118 -73 -118 -130q0 -34 43 -34q44 0 87 30v-101q-48 -25 -109 -25q-70 0 -103.5 33t-33.5 84q0 68 63 129q-100 15 -158.5 82t-58.5 178v420h154v-419q0 -125 120 -125t120 130v414h154v-413z" />
    <glyph glyph-name="uogonek" unicode="&#x173;" horiz-adv-x="580" 
d="M532 -235q-48 -25 -109 -25q-70 0 -103.5 33t-33.5 84q0 81 88 150v74q-40 -85 -154 -85q-78 0 -121.5 43.5t-43.5 128.5v339h146v-306q0 -89 78 -89q95 0 95 127v268h146v-507q-118 -73 -118 -130q0 -34 43 -34q44 0 87 30v-101z" />
    <glyph glyph-name="Ydieresis" unicode="&#x178;" horiz-adv-x="643" 
d="M397 0h-154v247l-230 427h180l41 -98q32 -76 53 -130t27 -70l5 -16q10 45 88 216l44 98h179l-233 -426v-248zM546 809q0 -35 -24 -58.5t-59 -23.5q-36 0 -59.5 23.5t-23.5 58.5q0 34 23.5 57.5t59.5 23.5q35 0 59 -23.5t24 -57.5zM277 809q0 -35 -23.5 -58.5t-58.5 -23.5
q-36 0 -59.5 23.5t-23.5 58.5q0 34 23.5 57.5t59.5 23.5q35 0 58.5 -23.5t23.5 -57.5z" />
    <glyph glyph-name="Zacute" unicode="&#x179;" horiz-adv-x="621" 
d="M561 0h-501v113l302 437h-296v124h483v-109l-304 -441h316v-124zM393 721h-121l86 177h146z" />
    <glyph glyph-name="zacute" unicode="&#x17a;" horiz-adv-x="479" 
d="M439 0h-399v105l222 290h-213v112h378v-101l-222 -293h234v-113zM321 553h-121l86 177h146z" />
    <glyph glyph-name="Zdotaccent" unicode="&#x17b;" horiz-adv-x="621" 
d="M561 0h-501v113l302 437h-296v124h483v-109l-304 -441h316v-124zM411 810q0 -35 -23.5 -58.5t-58.5 -23.5q-36 0 -59.5 23.5t-23.5 58.5q0 34 23.5 57.5t59.5 23.5q35 0 58.5 -23.5t23.5 -57.5z" />
    <glyph glyph-name="zdotaccent" unicode="&#x17c;" horiz-adv-x="479" 
d="M439 0h-399v105l222 290h-213v112h378v-101l-222 -293h234v-113zM334 642q0 -35 -23.5 -58.5t-58.5 -23.5q-36 0 -59.5 23.5t-23.5 58.5q0 34 23.5 57.5t59.5 23.5q35 0 58.5 -23.5t23.5 -57.5z" />
    <glyph glyph-name="Zcaron" unicode="&#x17d;" horiz-adv-x="621" 
d="M561 0h-501v113l302 437h-296v124h483v-109l-304 -441h316v-124zM382 721h-124l-156 177h139l79 -96l79 96h139z" />
    <glyph glyph-name="zcaron" unicode="&#x17e;" horiz-adv-x="479" 
d="M439 0h-399v105l222 290h-213v112h378v-101l-222 -293h234v-113zM321 554h-124l-156 177h139l79 -96l79 96h139z" />
    <glyph glyph-name="florin" unicode="&#x192;" horiz-adv-x="522" 
d="M270 -42q-15 -98 -66 -156t-138 -58q-61 0 -96 15v118q32 -16 72 -16q38 0 56.5 26.5t26.5 80.5l48 311h-87v107h104l12 79q15 98 66 156t138 58q57 0 86 -10v-118q-28 11 -57 11q-72 0 -88 -107l-11 -69h96v-107h-112z" />
    <glyph glyph-name="uni0218" unicode="&#x218;" horiz-adv-x="514" 
d="M484 196q0 -91 -67 -147.5t-178 -56.5q-119 0 -194 42v155q91 -66 194 -66q35 0 58 18.5t23 48.5q0 10 -3 19t-11 17t-15.5 13.5t-22 13t-24.5 12.5t-29.5 14t-31.5 14q-65 30 -104.5 74t-39.5 117q0 87 64 140.5t177 53.5q101 0 174 -34v-144q-81 47 -168 47
q-39 0 -59.5 -16t-20.5 -41t25 -44.5t75 -41.5q31 -14 51.5 -24.5t47 -29t42 -39t26.5 -50.5t11 -65zM225 -262h-106l71 211h151z" />
    <glyph glyph-name="uni0219" unicode="&#x219;" horiz-adv-x="436" 
d="M406 153q0 -75 -54 -116t-143 -41q-92 0 -154 31v130q69 -48 146 -48q55 0 55 35q0 9 -5 17t-17 15t-22 11.5t-29 12.5t-29 13q-101 48 -101 144q0 74 56.5 115t140.5 41q78 0 130 -21v-125q-53 31 -124 31q-26 0 -40 -10.5t-14 -26.5q0 -9 5 -17t16.5 -15t22 -12.5
t29 -13.5t29.5 -14q46 -24 74 -55.5t28 -80.5zM185 -262h-106l71 211h151z" />
    <glyph glyph-name="uni021A" unicode="&#x21a;" horiz-adv-x="544" 
d="M231 -262h-106l71 211h151zM514 550h-164v-550h-155v550h-165v124h484v-124z" />
    <glyph glyph-name="uni021B" unicode="&#x21b;" horiz-adv-x="386" 
d="M356 11q-37 -16 -100 -16q-173 0 -173 173v232h-73v107h73v120h146v-120h118v-107h-118v-233q0 -27 15.5 -41t40.5 -14q40 0 71 20v-121zM214 -262h-106l71 211h151z" />
    <glyph glyph-name="circumflex" unicode="&#x2c6;" horiz-adv-x="500" 
d="M171 621h-139l156 177h124l156 -177h-139l-79 96z" />
    <glyph glyph-name="caron" unicode="&#x2c7;" horiz-adv-x="500" 
d="M312 621h-124l-156 177h139l79 -96l79 96h139z" />
    <glyph glyph-name="uni02C9" unicode="&#x2c9;" horiz-adv-x="500" 
d="M428 651h-356v99h356v-99z" />
    <glyph glyph-name="breve" unicode="&#x2d8;" horiz-adv-x="500" 
d="M448 798q0 -93 -54.5 -137t-143.5 -44t-143.5 44t-54.5 137h112q0 -42 23.5 -65.5t62.5 -23.5t62.5 23.5t23.5 65.5h112z" />
    <glyph glyph-name="dotaccent" unicode="&#x2d9;" horiz-adv-x="500" 
d="M332 711q0 -35 -23.5 -58.5t-58.5 -23.5q-36 0 -59.5 23.5t-23.5 58.5q0 34 23.5 57.5t59.5 23.5q35 0 58.5 -23.5t23.5 -57.5z" />
    <glyph glyph-name="ring" unicode="&#x2da;" horiz-adv-x="500" 
d="M386 710q0 -56 -40 -96t-96 -40t-96 40t-40 96t40 96t96 40t96 -40t40 -96zM197 713q0 -23 15 -39.5t38 -16.5t38 16.5t15 39.5t-15 39.5t-38 16.5t-38 -16.5t-15 -39.5z" />
    <glyph glyph-name="ogonek" unicode="&#x2db;" horiz-adv-x="500" 
d="M373 -221q-48 -25 -109 -25q-70 0 -103.5 33t-33.5 84q0 39 20 75t52 62t59 42t54 28l49 -64q-118 -73 -118 -130q0 -34 43 -34q44 0 87 30v-101z" />
    <glyph glyph-name="tilde" unicode="&#x2dc;" horiz-adv-x="500" 
d="M192 656q-25 0 -39 -8.5t-36 -34.5l-65 64q16 34 47.5 58t68.5 24q36 0 76.5 -17.5t59.5 -17.5q48 0 70 43l74 -61q-42 -85 -136 -85q-33 0 -69 17.5t-51 17.5z" />
    <glyph glyph-name="hungarumlaut" unicode="&#x2dd;" horiz-adv-x="500" 
d="M332 621h-108l94 177h145zM145 621h-108l86 177h133z" />
    <glyph glyph-name="pi" unicode="&#x3c0;" horiz-adv-x="606" 
d="M596 400h-80v-400h-146v400h-124v-184q0 -121 -48.5 -168.5t-158.5 -47.5v119q34 0 47.5 16.5t13.5 65.5v199h-80v107h576v-107z" />
    <glyph glyph-name="danda" unicode="&#x964;" horiz-adv-x="311" 
d="M246 0h-135v671h135v-671z" />
    <glyph glyph-name="doubledanda" unicode="&#x965;" horiz-adv-x="576" 
d="M511 0h-135v671h135v-671zM246 0h-135v671h135v-671z" />
    <glyph glyph-name="bnAnji" unicode="&#x980;" horiz-adv-x="600" 
d="M284 337v-127q-22 -2 -35 -2q-104 0 -159 58t-55 153q0 103 71.5 182.5t183.5 79.5q79 0 130.5 -46.5t51.5 -126.5v-310q0 -78 66 -78q28 0 37 1v-124q-41 -7 -74 -7q-75 0 -122 47.5t-47 134.5v336q0 53 -44 53q-47 0 -80 -41.5t-33 -100.5q0 -83 87 -83q15 0 22 1z" />
    <glyph glyph-name="bnCandrabindu" unicode="&#x981;" 
d="M79 899q0 -73 -51.5 -125t-151.5 -52q-99 0 -151.5 52t-52.5 125h107q0 -36 23 -61.5t74 -25.5q97 0 97 87h106zM-61 922q0 -26 -18 -43.5t-45 -17.5q-26 0 -43.5 17.5t-17.5 43.5t17.5 44t43.5 18q27 1 45.5 -17t17.5 -45z" />
    <glyph glyph-name="bnAnusvara" unicode="&#x982;" horiz-adv-x="452" 
d="M37 516q0 73 50 119t129 46t128.5 -46t49.5 -119t-49.5 -119.5t-128.5 -46.5t-129 46.5t-50 119.5zM274 516q0 29 -15 47.5t-43 18.5t-43.5 -18.5t-15.5 -47.5t15.5 -47t43.5 -18t43 18t15 47zM52 197v137l370 -202v-134z" />
    <glyph glyph-name="bnVisarga" unicode="&#x983;" horiz-adv-x="427" 
d="M40 521q0 71 48.5 115.5t125.5 44.5t125 -44.5t48 -115.5t-48 -116t-125 -45t-125.5 45t-48.5 116zM272 521q0 29 -15 47.5t-43 18.5t-43.5 -18.5t-15.5 -47.5t15.5 -47t43.5 -18t43 18t15 47zM40 151q0 71 48.5 115.5t125.5 44.5t125 -44.5t48 -115.5t-48 -116t-125 -45
t-125.5 45t-48.5 116zM272 151q0 29 -15 47.5t-43 18.5t-43.5 -18.5t-15.5 -47.5t15.5 -47t43.5 -18t43 18t15 47z" />
    <glyph glyph-name="bnA" unicode="&#x985;" horiz-adv-x="910" 
d="M845 0h-140q0 127 -122 127h-42q-79 -71 -197 -71q-136 0 -221.5 80t-85.5 240q0 42 6 88h135q-7 -46 -7 -90q0 -99 46.5 -148.5t122.5 -49.5q71 0 107.5 41.5t36.5 103.5q0 38 -14 62t-42 24q-24 0 -37.5 -17.5t-13.5 -45.5q0 -27 11 -58h-120q-16 34 -16 77
q0 72 46.5 114t123.5 42q91 0 146.5 -57t55.5 -144q0 -43 -12 -79q63 -4 93 -48v368h-725v112h950v-112h-85v-559z" />
    <glyph glyph-name="bnAA" unicode="&#x986;" horiz-adv-x="1180" 
d="M624 318q0 -43 -12 -79q63 -4 93 -48v368h-725v112h960q33 0 50 -34q-10 54 -10 96v18h135v-80h85v-112h-85v-559h-140v497q0 39 -10.5 50.5t-42.5 11.5h-77v-559h-140q0 127 -122 127h-42q-79 -71 -197 -71q-136 0 -221.5 80t-85.5 240q0 42 6 88h135q-7 -46 -7 -90
q0 -99 46.5 -148.5t122.5 -49.5q71 0 107.5 41.5t36.5 103.5q0 38 -14 62t-42 24q-24 0 -37.5 -17.5t-13.5 -45.5q0 -27 11 -58h-120q-16 34 -16 77q0 72 46.5 114t123.5 42q91 0 146.5 -57t55.5 -144z" />
    <glyph glyph-name="bnI" unicode="&#x987;" horiz-adv-x="460" 
d="M419 -9h-183l-183 125v110h100q68 0 103 29.5t35 80.5q0 33 -17.5 52t-46.5 19q-28 0 -45 -17.5t-17 -44.5q0 -26 5 -44h-127q-9 29 -9 61q0 70 51.5 113.5t136.5 43.5q92 0 148 -53t56 -130q0 -84 -54.5 -134.5t-144.5 -64.5l192 -131v-15zM480 559h-500v112h309
q0 5 0.5 15t0.5 12q0 31 -10.5 46t-41.5 15q-17 0 -62 -9.5t-72 -9.5q-50 0 -87 22v107q31 -17 74 -17q26 0 76.5 12t86.5 12q79 0 121 -41.5t42 -116.5q0 -24 -4 -47h67v-112z" />
    <glyph glyph-name="bnII" unicode="&#x988;" horiz-adv-x="670" 
d="M29 362q0 70 47.5 113.5t129.5 43.5q69 0 115 -37t63 -96q89 83 96 89h122q-25 -91 -25 -223t28 -252h-140q-13 75 -13 166q0 70 13 142q-47 -42 -87 -79q-22 -74 -77 -119t-139 -45q-62 0 -120 12v115q51 -7 102 -7q61 0 92 35.5t31 101.5q0 85 -56 85q-25 0 -38 -17
t-13 -45q0 -29 8 -53h-127q-12 36 -12 70zM-20 671h495q2 20 2 32q0 56 -65 56q-27 0 -100.5 -9.5t-110.5 -9.5q-80 0 -119 22v107q42 -17 107 -17q26 0 116 12t126 12q81 0 127 -40t46 -113q0 -20 -4 -52h90v-112h-710v112z" />
    <glyph glyph-name="bnU" unicode="&#x989;" horiz-adv-x="678" 
d="M648 292q0 -124 -77 -208t-214 -84q-145 0 -236 94.5t-91 266.5q0 49 4 85h138q-4 -36 -4 -79q0 -121 52 -184t137 -63q79 0 120 45.5t41 121.5q-53 -25 -107 -25q-81 0 -123.5 44t-42.5 127v126h-265v112h495q2 20 2 32q0 56 -65 56q-27 0 -100.5 -9.5t-110.5 -9.5
q-80 0 -119 22v107q42 -17 107 -17q26 0 116 12t126 12q81 0 127 -40t46 -113q0 -20 -4 -52h98v-112h-313v-124q0 -53 54 -53q56 0 180 62q29 -71 29 -152z" />
    <glyph glyph-name="bnUU" unicode="&#x98a;" horiz-adv-x="793" 
d="M-20 671h608q2 20 2 32q0 56 -65 56q-49 0 -147 -11.5t-143 -11.5q-75 0 -120 26v107q53 -21 118 -21q33 0 143 14t168 14q81 0 127 -40t46 -113q0 -20 -4 -52h100v-112h-313v-124q0 -53 54 -53q56 0 180 62q29 -71 29 -152q0 -124 -83.5 -208t-235.5 -84
q-187 0 -300.5 96.5t-113.5 264.5q0 49 4 85h98q-4 -36 -4 -79q0 -107 44 -169t113 -82q-95 79 -95 245q0 49 4 85h98q-4 -36 -4 -79q0 -122 48 -184.5t132 -62.5q80 0 122.5 45.5t42.5 121.5q-53 -25 -107 -25q-81 0 -123.5 44t-42.5 127v126h-380v112z" />
    <glyph glyph-name="bnvR" unicode="&#x98b;" horiz-adv-x="873" 
d="M543 0h-140l-348 162l1 1v132l243 124l-33 67q-40 -54 -111 -54q-72 0 -111 42t-39 113q0 50 16 84h115q-10 -30 -10 -65q0 -28 13 -46t33 -18q33 0 41.5 21.5t8.5 70.5q0 24 -1 37h100l78 -201l9 4v197h135v-342h18q75 0 107 -48v470h140v-80h85v-112h-85v-469h-140
q0 127 -122 127h-3v-217zM403 136v197l-197 -101z" />
    <glyph glyph-name="bnvL" unicode="&#x98c;" horiz-adv-x="635" 
d="M605 288q0 -139 -95 -219t-252 -80q-28 0 -58 3l1 116q36 13 60 51t24 88q0 32 -16.5 52t-45.5 20q-58 0 -58 -71q0 -37 15 -91h-125q-20 57 -20 112q0 73 50.5 119t130.5 46q89 0 140.5 -50t51.5 -134q0 -68 -41 -129q107 41 107 167q0 50 -20 87.5t-51.5 60.5
t-69.5 42.5t-76.5 38.5t-70 42t-51.5 60t-20 86q0 26 5 46h128q-1 -4 -1 -15q0 -34 19.5 -59.5t51.5 -44t70 -36.5t76 -43t70 -57t51.5 -85.5t19.5 -122.5z" />
    <glyph glyph-name="bnE" unicode="&#x98f;" horiz-adv-x="640" 
d="M122 428q0 103 74 177.5t192 74.5q90 0 138.5 -47t48.5 -130v-503h-140q0 36 -36 36q-21 0 -85 -18t-104 -18q-76 0 -131.5 43.5t-55.5 130.5q0 36 8 68l136 1q-4 -22 -4 -49q0 -68 69 -68q26 0 79.5 14.5t74.5 14.5q31 0 49 -17v365q0 31 -11 44t-36 13q-48 0 -87 -40.5
t-39 -91.5q0 -61 71 -61q22 0 42 4v-122q-31 -7 -63 -7q-93 0 -141.5 47.5t-48.5 138.5z" />
    <glyph glyph-name="bnAI" unicode="&#x990;" horiz-adv-x="864" 
d="M141 799v121q96 -35 215 -50l113 -14q361 -45 361 -325q0 -123 -59 -200.5t-178 -77.5h-18v-253h-140q0 36 -36 36q-21 0 -85 -18t-104 -18q-76 0 -131.5 43.5t-55.5 130.5q0 36 8 68l136 1q-4 -22 -4 -49q0 -68 69 -68q26 0 79.5 14.5t74.5 14.5q31 0 49 -17v365
q0 31 -11 44t-36 13q-48 0 -87 -40.5t-39 -91.5q0 -61 71 -61q22 0 42 4v-122q-31 -7 -63 -7q-93 0 -141.5 47.5t-48.5 138.5q0 103 74 177.5t192 74.5q90 0 138.5 -47t48.5 -130v-133h7q65 0 93 40t28 121q0 96 -63.5 141t-185.5 61l-112 14q-124 15 -201 52z" />
    <glyph glyph-name="bnO" unicode="&#x993;" horiz-adv-x="645" 
d="M607 189q0 -87 -67.5 -133t-170.5 -46q-65 0 -121.5 20.5t-102.5 62t-72 112t-26 161.5q0 16 2 52h132q-1 -15 -1 -43q0 -247 189 -247q98 0 98 74t-132 74h-33v118h23q50 0 80 25.5t30 75.5q0 34 -15.5 54t-44.5 20q-27 0 -41.5 -17t-14.5 -45q0 -29 8 -53h-127
q-12 36 -12 70q0 70 49 113.5t133 43.5q93 0 151 -51t58 -133q0 -64 -35.5 -105t-95.5 -52q75 -7 117 -47t42 -104z" />
    <glyph glyph-name="bnAU" unicode="&#x994;" horiz-adv-x="857" 
d="M806 541q0 -111 -58 -187.5t-153 -103.5q12 -27 12 -61q0 -87 -67.5 -133t-170.5 -46q-65 0 -121.5 20.5t-102.5 62t-72 112t-26 161.5q0 16 2 52h132q-1 -15 -1 -43q0 -247 189 -247q98 0 98 74t-132 74h-33v118h23q50 0 80 25.5t30 75.5q0 34 -15.5 54t-44.5 20
q-27 0 -41.5 -17t-14.5 -45q0 -29 8 -53h-127q-12 36 -12 70q0 70 49 113.5t133 43.5q96 0 152.5 -53t56.5 -131q0 -64 -35.5 -105t-95.5 -52h1q20 -2 29 -2q97 0 149 52.5t52 150.5q0 97 -64 141t-185 54l-112 14q-124 15 -201 52v121q96 -35 215 -50l113 -14
q173 -14 267 -93t94 -225z" />
    <glyph glyph-name="bnKA" unicode="&#x995;" horiz-adv-x="780" 
d="M746 267q0 -94 -50.5 -147t-139.5 -53q-14 0 -21 1v126h10q66 0 66 73q0 49 -35.5 81t-100.5 36v-384h-135v1l-1 -1l-302 209v134q82 66 151 106.5t152 56.5v53h-360v112h820v-112h-325v-53q107 -3 189 -67.5t82 -171.5zM340 146v234q-87 -29 -179 -105z" />
    <glyph glyph-name="bnKHA" unicode="&#x996;" horiz-adv-x="679" 
d="M614 0h-135v1l-1 -1l-451 232v112h95q80 0 121 39.5t41 112.5v3q-40 -69 -124 -69q-77 0 -118.5 43t-41.5 114q0 50 16 84h135q-10 -30 -10 -65q0 -29 14.5 -46.5t41.5 -17.5q34 0 47 23.5t13 68.5q0 24 -1 37h132q31 -95 31 -175q0 -99 -50.5 -158t-136.5 -79l247 -130
v622h135v-80h85v-112h-85v-559z" />
    <glyph glyph-name="bnGA" unicode="&#x997;" horiz-adv-x="621" 
d="M556 0h-140v409q0 75 -28.5 113.5t-93.5 38.5q-97 0 -113 -85q80 -4 129.5 -46.5t50.5 -122.5q-1 -91 -64.5 -137.5t-170.5 -46.5q-42 0 -86 9v115q36 -4 86 -4q95 0 95 63t-95 63h-83v68q0 104 61.5 174t166.5 70q102 0 145 -65v135h140v-80h85v-112h-85v-559z" />
    <glyph glyph-name="bnGHA" unicode="&#x998;" horiz-adv-x="610" 
d="M335 291l-123 -76l193 -81v425h-131q-45 0 -69.5 -21t-24.5 -58q0 -36 25 -53t63 -17q33 0 67 8v-127zM630 559h-85v-559h-140l-348 142l1 1v122q67 43 128 77q-151 22 -151 124q0 59 54 93h-109v112h650v-112z" />
    <glyph glyph-name="bnNGA" unicode="&#x999;" horiz-adv-x="698" 
d="M410 475q70 0 70 52q0 20 -16.5 33.5t-41.5 13.5q-46 0 -46 -55v-42q22 -2 34 -2zM663 246q0 -114 -79 -184.5t-207 -70.5q-146 0 -243.5 96t-97.5 260q0 29 3 47h137q-2 -22 -2 -47q0 -119 59.5 -177.5t144.5 -58.5q72 0 113.5 34.5t44.5 85.5q-55 -35 -123 -35
q-77 0 -122.5 45t-45.5 126v45q-106 52 -151 147h-114v112h195q19 -78 77 -133q6 63 47.5 103t120.5 40q80 0 129.5 -46t49.5 -113q0 -70 -52 -108.5t-136 -38.5q-11 0 -35 2v-7q0 -54 53 -54q78 0 197 81q37 -74 37 -151z" />
    <glyph glyph-name="bnCA" unicode="&#x99a;" horiz-adv-x="535" 
d="M502 262q0 -102 -74.5 -187t-180.5 -85q-79 0 -130.5 46.5t-51.5 126.5v396h-85v112h575v-112h-350v-59l93 -27q109 -32 156.5 -77.5t47.5 -133.5zM249 110q45 0 79 49t34 103q0 33 -19 50.5t-68 32.5l-70 22v-204q0 -53 44 -53z" />
    <glyph glyph-name="bnCHA" unicode="&#x99b;" horiz-adv-x="642" 
d="M562 -50h-194l-264 136v95q42 -2 64 -2q59 0 109 7t92 22.5t66 44t24 67.5q0 28 -18.5 43t-56.5 24q1 -4 1 -13q0 -57 -51 -103.5t-118 -46.5q-68 0 -105.5 34.5t-37.5 98.5v202h-93v112h682v-112h-470v-33l42 -8q2 0 3 -1l153 -29q100 -20 147.5 -60t47.5 -110
q0 -94 -79 -152.5t-205 -76.5q80 -34 106 -47l155 -79v-13zM217 318q22 0 39 21t17 45q0 17 -9 24t-32 12l-40 8v-81q0 -29 25 -29z" />
    <glyph glyph-name="bnJA" unicode="&#x99c;" horiz-adv-x="887" 
d="M613 249q0 -110 -70 -184.5t-193 -74.5q-140 0 -225 96.5t-85 264.5q0 28 1 44h138q-1 -14 -1 -38q0 -118 45.5 -182.5t126.5 -64.5q59 0 93.5 30t39.5 86q-27 -6 -55 -6q-83 0 -134 48.5t-51 129.5q0 96 62 161h-325v112h927v-112h-319q65 -88 255 -139
q-51 -125 -51 -273q0 -73 19 -147h-135q-18 72 -18 145q0 118 33 206q-182 66 -236 186q-67 -57 -67 -128q0 -75 88 -75q60 0 119 27q18 -52 18 -112z" />
    <glyph glyph-name="bnJHA" unicode="&#x99d;" horiz-adv-x="815" 
d="M480 0h-140v1l-1 -1l-302 209v134q145 118 303 161v55h-360v112h500v-342h18q76 0 107 -48v480h140v-90h85v-112h-85v-469h-140q0 127 -122 127h-3v-217zM340 146v225q-103 -41 -177 -97z" />
    <glyph glyph-name="bnNYA" unicode="&#x99e;" horiz-adv-x="948" 
d="M122 428q0 103 74 177.5t192 74.5q71 0 116.5 -29.5t61.5 -84.5q55 62 148 62q87 0 138 -49.5t51 -114.5q0 -48 -26 -81t-65 -48q39 -15 65 -48t26 -81q0 -65 -51 -114.5t-138 -49.5q-86 0 -139 53v-95h-140q0 36 -36 36q-21 0 -85 -18t-104 -18q-76 0 -131.5 43.5
t-55.5 130.5q0 36 8 68l136 1q-4 -22 -4 -49q0 -68 69 -68q26 0 79.5 14.5t74.5 14.5q31 0 49 -17v365q0 31 -11 44t-36 13q-48 0 -87 -40.5t-39 -91.5q0 -61 71 -61q22 0 42 4v-122q-31 -7 -63 -7q-93 0 -141.5 47.5t-48.5 138.5zM695 158q35 0 56.5 15t21.5 43
q0 60 -77 60h-39v118h39q77 0 77 60q0 28 -21.5 43t-56.5 15q-54 0 -87 -36t-33 -97v-88q0 -61 33 -97t87 -36z" />
    <glyph glyph-name="bnTTA" unicode="&#x99f;" horiz-adv-x="565" 
d="M532 262q0 -106 -74.5 -189t-195.5 -83q-81 0 -139 47t-58 126v396h-85v112h399q0 5 0.5 15t0.5 12q0 31 -10.5 46t-41.5 15q-22 0 -87 -9.5t-97 -9.5q-67 0 -104 22v107q31 -17 91 -17q31 0 101.5 12t111.5 12q79 0 121 -41.5t42 -116.5q0 -24 -4 -47h82v-112h-380v-396
q0 -25 16 -39t41 -14q59 0 94.5 47.5t35.5 104.5q0 81 -85 81q-22 0 -42 -4v122q31 7 63 7q97 0 150.5 -56t53.5 -150z" />
    <glyph glyph-name="bnTTHA" unicode="&#x9a0;" horiz-adv-x="609" 
d="M557 271q0 -116 -67 -188t-185 -72q-122 0 -189.5 77.5t-67.5 211.5q0 43 4 82h96q106 0 106 103v74h-274v112h245q-19 41 -19 81q0 64 43.5 103.5t126.5 39.5q14 0 50 -4v-121q-16 2 -22 2q-65 0 -65 -50q0 -21 17 -51h273v-112h-189l15 -19q102 -131 102 -269zM305 131
q58 0 87.5 40.5t29.5 99.5q0 110 -56 208v-26q0 -81 -48 -129.5t-129 -48.5h-4v-1q0 -65 31.5 -104t88.5 -39z" />
    <glyph glyph-name="bnDDA" unicode="&#x9a1;" horiz-adv-x="678" 
d="M648 292q0 -124 -77 -208t-214 -84q-145 0 -236 94.5t-91 266.5q0 49 4 85h138q-4 -36 -4 -79q0 -121 52 -184t137 -63q79 0 120 45.5t41 121.5q-53 -25 -107 -25q-81 0 -123.5 44t-42.5 127v126h-265v112h718v-112h-313v-124q0 -53 54 -53q56 0 180 62q29 -71 29 -152z
" />
    <glyph glyph-name="bnDDHA" unicode="&#x9a2;" horiz-adv-x="565" 
d="M532 262q0 -106 -74.5 -189t-195.5 -83q-81 0 -139 47t-58 126v396h-85v112h605v-112h-380v-396q0 -25 16 -39t41 -14q59 0 94.5 47.5t35.5 104.5q0 81 -85 81q-22 0 -42 -4v122q31 7 63 7q97 0 150.5 -56t53.5 -150z" />
    <glyph glyph-name="bnNNA" unicode="&#x9a3;" horiz-adv-x="608" 
d="M628 559h-85v-559h-140v409q0 68 -33.5 110t-97.5 42q-43 0 -67.5 -24t-24.5 -63q0 -40 23.5 -59.5t61.5 -19.5q25 0 49 4v-122q-35 -7 -66 -7q-96 0 -152 53t-56 151q0 92 56.5 149.5t144.5 57.5q111 0 162 -79v149h140v-80h85v-112z" />
    <glyph glyph-name="bnTA" unicode="&#x9a4;" horiz-adv-x="665" 
d="M633 310q0 -128 -82 -205.5t-212 -77.5q-140 0 -227.5 86.5t-87.5 262.5q0 40 4 75h133q-3 -34 -3 -74q0 -105 47 -167.5t134 -62.5q74 0 114 45t40 118q0 44 -14.5 70.5t-42.5 26.5q-24 0 -37.5 -18t-13.5 -49q0 -35 10 -68h-130q-15 35 -15 78q0 74 49 121.5t131 47.5
q92 0 147.5 -60.5t55.5 -148.5zM685 559h-705v112h705v-112z" />
    <glyph glyph-name="bnTHA" unicode="&#x9a5;" horiz-adv-x="676" 
d="M611 0h-135v1l-1 -1l-431 232v112h95q68 0 105 37t37 109q0 35 -15 57.5t-45 22.5q-27 0 -41.5 -18t-14.5 -46q0 -29 12 -65h-127q-16 34 -16 84q0 70 49 113.5t133 43.5q92 0 146 -56.5t54 -135.5q0 -97 -46.5 -154.5t-125.5 -76.5l232 -128v620h135v-80h85v-112h-85
v-559z" />
    <glyph glyph-name="bnDA" unicode="&#x9a6;" horiz-adv-x="540" 
d="M182 128h-135v431h-67v112h580v-112h-378v-249q93 101 168 138h135v-448h-135v303q-103 -84 -168 -175z" />
    <glyph glyph-name="bnDHA" unicode="&#x9a7;" horiz-adv-x="597" 
d="M617 559h-85v-559h-140l-338 157l1 1v122q54 35 123 71q-60 12 -99 50.5t-39 100.5q0 80 55 129.5t150 49.5q33 0 58 -4v-112q-10 1 -36 1q-36 0 -59 -19t-23 -53t23 -52.5t62 -18.5q43 0 75 15q17 9 47 24v209h225v-112zM392 128v202l-194 -107z" />
    <glyph glyph-name="bnNA" unicode="&#x9a8;" horiz-adv-x="589" 
d="M533 0h-140q-6 42 -17 85t-29.5 90t-47.5 76.5t-64 29.5q-34 0 -51 -22t-17 -58q0 -28 5 -55h-136q-9 37 -9 69q0 79 49 134t136 55q122 0 181 -119v274h-413v112h629v-112h-76v-559z" />
    <glyph glyph-name="bnPA" unicode="&#x9aa;" horiz-adv-x="628" 
d="M67 270l79 44q-40 65 -101 84v54q0 88 58.5 158.5t166.5 70.5q107 0 153 -76v146h140v-80h85v-112h-85v-559h-140v332l-356 -206v144zM180 451q46 -22 76 -76l160 90q-24 96 -121 96q-50 0 -82.5 -31.5t-32.5 -78.5z" />
    <glyph glyph-name="bnPHA" unicode="&#x9ab;" horiz-adv-x="828" 
d="M794 287q0 -94 -50.5 -147t-139.5 -53q-14 0 -21 1v126h10q66 0 66 73q0 91 -136 91v-378h-140l-348 142l1 1v132l144 97l-141 83v104h-59v112h868v-112h-730l195 -128v-119l-131 -91l201 -87v365h140q112 0 191.5 -54.5t79.5 -157.5z" />
    <glyph glyph-name="bnBA" unicode="&#x9ac;" horiz-adv-x="540" 
d="M560 559h-85v-559h-135v1l-1 -1l-302 209v134q145 118 303 161v55h-360v112h580v-112zM340 146v225q-103 -41 -177 -97z" />
    <glyph glyph-name="bnBHA" unicode="&#x9ad;" horiz-adv-x="688" 
d="M646 239q0 -112 -75.5 -180.5t-200.5 -68.5q-144 0 -236 95.5t-92 250.5q0 37 2 60h134q-2 -22 -2 -57q0 -110 51.5 -171t142.5 -61q129 0 149 100q-42 -13 -91 -13q-77 0 -127.5 43.5t-50.5 118.5t50 119.5t135 44.5q40 0 92 -10v-111q-32 4 -62 4q-75 0 -75 -47
q0 -50 73 -50q35 0 82.5 14.5t83.5 36.5q17 -55 17 -118zM708 559h-728v112h728v-112z" />
    <glyph glyph-name="bnMA" unicode="&#x9ae;" horiz-adv-x="640" 
d="M680 559h-115v-559h-140v85q0 73 -37.5 117t-104.5 44q-42 0 -65.5 -17.5t-23.5 -48.5t21.5 -46t54.5 -15q18 0 38 2v-115q-28 -6 -67 -6q-83 0 -136.5 47t-53.5 134q0 66 34.5 110.5t93.5 63.5q-11 53 -44.5 76t-93.5 23v105h-61v112h700v-112zM425 289v270h-257
q60 -27 96.5 -78t46.5 -117q78 -13 114 -75z" />
    <glyph glyph-name="bnYA" unicode="&#x9af;" horiz-adv-x="588" 
d="M313 431v-119l-131 -91l201 -87v425h-265zM608 559h-85v-559h-140l-348 142l1 1v132l144 97l-141 83v104h-59v112h628v-112z" />
    <glyph glyph-name="bnRA" unicode="&#x9b0;" horiz-adv-x="540" 
d="M560 559h-85v-559h-135v1l-1 -1l-302 209v134q145 118 303 161v55h-360v112h580v-112zM168 20q0 -32 -22 -54t-54 -22t-54 22t-22 54t22 54t54 22t54 -22t22 -54zM340 146v225q-103 -41 -177 -97z" />
    <glyph glyph-name="bnLA" unicode="&#x9b2;" horiz-adv-x="760" 
d="M695 0h-140v289q0 74 -55 74q-57 0 -57 -87v-24h-143v31q0 80 -60 80q-30 0 -45.5 -21.5t-15.5 -54.5q0 -79 76 -79q17 0 40 3v-117q-27 -4 -56 -4q-92 0 -146 54t-54 145q0 85 49.5 138t138.5 53q60 0 97.5 -25.5t46.5 -63.5q10 38 38 64t74 26t72 -29v107h-575v112h800
v-112h-85v-559z" />
    <glyph glyph-name="bnSHA" unicode="&#x9b6;" horiz-adv-x="677" 
d="M612 0h-140v445q0 116 -94 116q-39 0 -61 -25t-22 -66q0 -44 23.5 -65t61.5 -21q23 0 32 1v-122q-21 -4 -49 -4q-95 0 -139 57q-47 -57 -133 -57q-31 0 -66 7v122q24 -4 49 -4q85 0 85 86q0 41 -24.5 65t-67.5 24h-87v112h108q86 0 135 -61q47 71 135 71q76 0 114 -46
v116h140v-80h85v-112h-85v-559z" />
    <glyph glyph-name="bnSSA" unicode="&#x9b7;" horiz-adv-x="588" 
d="M313 441l70 -42v160h-270zM608 559h-85v-559h-140l-348 142l1 1v132l144 103l-141 77v104h-59v112h628v-112zM383 134v134l-83 45l-121 -91z" />
    <glyph glyph-name="bnSA" unicode="&#x9b8;" horiz-adv-x="615" 
d="M550 0h-140v169q0 98 -61 98q-20 0 -37.5 -17t-33 -41.5t-35 -49.5t-53.5 -42t-80 -17q-41 0 -78 12v115q27 -8 58 -8q19 0 36.5 10.5t26 20.5t25.5 35.5t23 33.5q-12 67 -54.5 101t-108.5 34v105h-58v112h656v-112h-86v-559zM318 385q64 0 92 -39v213h-243
q116 -50 147 -174h4z" />
    <glyph glyph-name="bnHA" unicode="&#x9b9;" horiz-adv-x="460" 
d="M419 -9h-183l-183 125v110h100q68 0 103 29.5t35 80.5q0 33 -17.5 52t-46.5 19q-28 0 -45 -17.5t-17 -44.5q0 -26 5 -44h-127q-9 29 -9 61q0 70 51.5 113.5t136.5 43.5q92 0 148 -53t56 -130q0 -84 -54.5 -134.5t-144.5 -64.5l192 -131v-15zM480 559h-500v112h500v-112z
" />
    <glyph glyph-name="bnNukta" unicode="&#x9bc;" 
d="M-209 -132q0 -32 -22.5 -54t-53.5 -22t-53.5 22t-22.5 54t22.5 54t53.5 22t53.5 -22t22.5 -54z" />
    <glyph glyph-name="bnAvagraha" unicode="&#x9bd;" horiz-adv-x="460" 
d="M419 -9l-183 -2l-183 127v110h100q68 0 103 29.5t35 80.5q0 33 -17.5 52t-46.5 19q-28 0 -45 -17.5t-17 -44.5q0 -26 5 -44h-127q-9 29 -9 61q0 49 27 86.5t75 55.5q-36 55 -105 55h-51v112h74q76 0 125.5 -38t87.5 -118q73 -13 116 -62.5t43 -116.5q0 -84 -54.5 -134.5
t-144.5 -64.5l192 -131v-15z" />
    <glyph glyph-name="bnmAA" unicode="&#x9be;" horiz-adv-x="270" 
d="M290 559h-85v-559h-140v497q0 39 -10.5 50.5t-42.5 11.5h-32v112h50q33 0 50 -34q-10 54 -10 96v18h135v-80h85v-112z" />
    <glyph glyph-name="bnmI" unicode="&#x9bf;" horiz-adv-x="270" 
d="M290 559h-85v-559h-140v559h-85v112h85v42q0 106 68.5 158t187.5 52q71 0 147.5 -16.5t117.5 -34.5v-106q-44 16 -117.5 30.5t-136.5 14.5q-126 0 -126 -97v-43h84v-112z" />
    <glyph glyph-name="bnmII" unicode="&#x9c0;" horiz-adv-x="270" 
d="M290 559h-85v-559h-140v559h-84v112h84v27q0 86 -64 137.5t-180 51.5q-100 0 -100 -43q0 -25 30 -34t89 -9q48 0 95 7v-87q-42 -13 -127 -13q-217 0 -217 136q0 67 64 107t166 40q169 0 276.5 -87.5t107.5 -206.5v-26h85v-112z" />
    <glyph glyph-name="bnmU" unicode="&#x9c1;" 
d="M-153 -172q49 0 56 75q-32 10 -54 10q-23 0 -36 -11.5t-13 -30.5q0 -20 13 -31.5t34 -11.5zM112 -248q-58 61 -121 105q-28 -122 -146 -122q-69 0 -114 37t-45 98q0 64 43.5 103.5t117.5 39.5q76 0 145.5 -39t119.5 -92v-130z" />
    <glyph glyph-name="bnmUU" unicode="&#x9c2;" 
d="M-303 -133q0 66 42.5 105.5t112.5 39.5q41 0 82 -11v-93q-37 11 -63 11q-70 0 -70 -52q0 -22 17.5 -35t47.5 -13q64 0 116 84l120 -72v-104l-104 61q-56 -56 -137 -56q-71 0 -117.5 36t-46.5 99z" />
    <glyph glyph-name="bnmvR" unicode="&#x9c3;" 
d="M3 -167v-113l-296 106v83l97 112l131 -21l-89 -109z" />
    <glyph glyph-name="bnmvRR" unicode="&#x9c4;" 
d="M-25 -359v-112l-256 94v83l75 89l-87 31v83l97 112l131 -21l-89 -109l157 -58v-113l-101 36l-54 -68z" />
    <glyph glyph-name="bnmE" unicode="&#x9c7;" horiz-adv-x="309" 
d="M294 -7q-16 -3 -38 -3q-55 0 -96 23.5t-65.5 64.5t-36.5 91t-13 108q0 209 60 282h-125v112h349v-112h-33q-37 0 -61.5 -22t-35.5 -65t-15 -87t-4 -108q0 -164 91 -164q16 0 23 1v-121z" />
    <glyph glyph-name="bnmAI" unicode="&#x9c8;" horiz-adv-x="309" 
d="M294 -7q-16 -3 -38 -3q-55 0 -96 23.5t-65.5 64.5t-36.5 91t-13 108q0 209 60 282h-125v112h201q0 7 0.5 21t0.5 16q0 51 -52 51q-12 0 -52 -9.5t-62 -9.5q-39 0 -71 14v108q24 -10 58 -10q21 0 66.5 12t76.5 12q79 0 121 -41.5t42 -116.5q0 -24 -4 -47h24v-112h-33
q-37 0 -61.5 -22t-35.5 -65t-15 -87t-4 -108q0 -164 91 -164q16 0 23 1v-121z" />
    <glyph glyph-name="bnmO" unicode="&#x9cb;" horiz-adv-x="1200" 
d="M567 90q0 -20 -12.5 -33t-31.5 -13t-32 13t-13 33q0 18 13 31t32 13t31.5 -13t12.5 -31zM465 165q0 -19 -12.5 -31.5t-31.5 -12.5t-31.5 12.5t-12.5 31.5t12.5 31.5t31.5 12.5t31.5 -12.5t12.5 -31.5zM413 281q0 -19 -12.5 -31t-31.5 -12t-31.5 12t-12.5 31t12.5 32
t31.5 13t31.5 -12.5t12.5 -32.5zM694 74q0 -19 -12.5 -31.5t-32.5 -12.5q-19 0 -31.5 12t-12.5 32t12.5 32t31.5 12q20 0 32.5 -12.5t12.5 -31.5zM428 407q0 -19 -13 -31.5t-31 -12.5q-20 0 -33 12.5t-13 31.5t13 31.5t33 12.5q18 0 31 -12.5t13 -31.5zM815 127
q0 -19 -13 -31.5t-32 -12.5t-31.5 12.5t-12.5 31.5t12.5 31.5t31.5 12.5t32 -12.5t13 -31.5zM508 517q0 -20 -12.5 -32.5t-31.5 -12.5t-31.5 12.5t-12.5 32.5q0 19 12.5 31.5t31.5 12.5t31.5 -12.5t12.5 -31.5zM887 225q0 -19 -12.5 -31.5t-30.5 -12.5q-19 0 -32 12.5
t-13 31.5t12.5 32t32.5 13q18 0 30.5 -13t12.5 -32zM626 560q0 -20 -12 -32t-32 -12t-32 12t-12 32t12 32t32 12t32 -12t12 -32zM897 359q0 -19 -12.5 -31.5t-31.5 -12.5t-31.5 12.5t-12.5 31.5t12.5 31.5t31.5 12.5t31.5 -12.5t12.5 -31.5zM752 545q0 -18 -12.5 -31
t-30.5 -13q-19 0 -32 13t-13 31q0 19 13 32t32 13t31 -12.5t12 -32.5zM847 477q0 -19 -12.5 -31.5t-31.5 -12.5t-31.5 12.5t-12.5 31.5t12.5 32t31.5 13t31.5 -12.5t12.5 -32.5zM294 -7q-16 -3 -38 -3q-55 0 -96 23.5t-65.5 64.5t-36.5 91t-13 108q0 209 60 282h-125v112
h349v-112h-33q-37 0 -61.5 -22t-35.5 -65t-15 -87t-4 -108q0 -164 91 -164q16 0 23 1v-121zM1220 559h-85v-559h-140v497q0 39 -10.5 50.5t-42.5 11.5h-32v112h50q33 0 50 -34q-10 54 -10 96v18h135v-80h85v-112z" />
    <glyph glyph-name="bnmAU" unicode="&#x9cc;" horiz-adv-x="1200" 
d="M567 90q0 -20 -12.5 -33t-31.5 -13t-32 13t-13 33q0 18 13 31t32 13t31.5 -13t12.5 -31zM465 165q0 -19 -12.5 -31.5t-31.5 -12.5t-31.5 12.5t-12.5 31.5t12.5 31.5t31.5 12.5t31.5 -12.5t12.5 -31.5zM413 281q0 -19 -12.5 -31t-31.5 -12t-31.5 12t-12.5 31t12.5 32
t31.5 13t31.5 -12.5t12.5 -32.5zM694 74q0 -19 -12.5 -31.5t-32.5 -12.5q-19 0 -31.5 12t-12.5 32t12.5 32t31.5 12q20 0 32.5 -12.5t12.5 -31.5zM428 407q0 -19 -13 -31.5t-31 -12.5q-20 0 -33 12.5t-13 31.5t13 31.5t33 12.5q18 0 31 -12.5t13 -31.5zM815 127
q0 -19 -13 -31.5t-32 -12.5t-31.5 12.5t-12.5 31.5t12.5 31.5t31.5 12.5t32 -12.5t13 -31.5zM508 517q0 -20 -12.5 -32.5t-31.5 -12.5t-31.5 12.5t-12.5 32.5q0 19 12.5 31.5t31.5 12.5t31.5 -12.5t12.5 -31.5zM887 225q0 -19 -12.5 -31.5t-30.5 -12.5q-19 0 -32 12.5
t-13 31.5t12.5 32t32.5 13q18 0 30.5 -13t12.5 -32zM626 560q0 -20 -12 -32t-32 -12t-32 12t-12 32t12 32t32 12t32 -12t12 -32zM897 359q0 -19 -12.5 -31.5t-31.5 -12.5t-31.5 12.5t-12.5 31.5t12.5 31.5t31.5 12.5t31.5 -12.5t12.5 -31.5zM752 545q0 -18 -12.5 -31
t-30.5 -13q-19 0 -32 13t-13 31q0 19 13 32t32 13t31 -12.5t12 -32.5zM847 477q0 -19 -12.5 -31.5t-31.5 -12.5t-31.5 12.5t-12.5 31.5t12.5 32t31.5 13t31.5 -12.5t12.5 -32.5zM294 -7q-16 -3 -38 -3q-55 0 -96 23.5t-65.5 64.5t-36.5 91t-13 108q0 209 60 282h-125v112
h349v-112h-33q-37 0 -61.5 -22t-35.5 -65t-15 -87t-4 -108q0 -164 91 -164q16 0 23 1v-121zM910 671h101q0 5 0.5 15t0.5 12q0 31 -10.5 46t-41.5 15q-17 0 -62 -9.5t-72 -9.5q-50 0 -87 22v107q31 -17 74 -17q26 0 76.5 12t86.5 12q79 0 121 -41.5t42 -116.5q0 -24 -4 -47
h85v-112h-85v-559h-140v559h-85v112z" />
    <glyph glyph-name="bnVirama" unicode="&#x9cd;" 
d="M-203 -51h138l151 -149v-4h-137l-152 149v4z" />
    <glyph glyph-name="bnTAkhanda" unicode="&#x9ce;" horiz-adv-x="600" 
d="M556 0h-150v53q0 42 -19.5 73.5t-50.5 51t-68.5 36.5t-75 37.5t-68.5 47.5t-50.5 71.5t-19.5 104.5q0 92 62.5 145t163.5 53q107 0 165 -56t58 -139q0 -47 -13 -77h-143q16 46 16 77q0 38 -19.5 60.5t-58.5 22.5q-41 0 -61 -23.5t-20 -62.5q0 -40 19.5 -70.5t50.5 -50
t68.5 -37.5t75 -39.5t68.5 -48.5t50.5 -72.5t19.5 -104.5v-52z" />
    <glyph glyph-name="bnAUlengthmark" unicode="&#x9d7;" horiz-adv-x="270" 
d="M-20 671h101q0 5 0.5 15t0.5 12q0 31 -10.5 46t-41.5 15q-17 0 -62 -9.5t-72 -9.5q-50 0 -87 22v107q31 -17 74 -17q26 0 76.5 12t86.5 12q79 0 121 -41.5t42 -116.5q0 -24 -4 -47h85v-112h-85v-559h-140v559h-85v112z" />
    <glyph glyph-name="bnDDxA" unicode="&#x9dc;" horiz-adv-x="678" 
d="M648 292q0 -124 -77 -208t-214 -84q-145 0 -236 94.5t-91 266.5q0 49 4 85h138q-4 -36 -4 -79q0 -121 52 -184t137 -63q79 0 120 45.5t41 121.5q-53 -25 -107 -25q-81 0 -123.5 44t-42.5 127v126h-265v112h718v-112h-313v-124q0 -53 54 -53q56 0 180 62q29 -71 29 -152z
M418 -122q0 -32 -22 -54t-54 -22t-54 22t-22 54t22 54t54 22t54 -22t22 -54z" />
    <glyph glyph-name="bnDDHxA" unicode="&#x9dd;" horiz-adv-x="565" 
d="M532 262q0 -106 -74.5 -189t-195.5 -83q-81 0 -139 47t-58 126v396h-85v112h605v-112h-380v-396q0 -25 16 -39t41 -14q59 0 94.5 47.5t35.5 104.5q0 81 -85 81q-22 0 -42 -4v122q31 7 63 7q97 0 150.5 -56t53.5 -150zM356 -132q0 -32 -22 -54t-54 -22t-54 22t-22 54
t22 54t54 22t54 -22t22 -54z" />
    <glyph glyph-name="bnYxA" unicode="&#x9df;" horiz-adv-x="588" 
d="M313 431v-119l-131 -91l201 -87v425h-265zM608 559h-85v-559h-140l-348 142l1 1v132l144 97l-141 83v104h-59v112h628v-112zM225 -61q0 -31 -22.5 -53.5t-53.5 -22.5t-53.5 22.5t-22.5 53.5t22.5 53.5t53.5 22.5t53.5 -22.5t22.5 -53.5z" />
    <glyph glyph-name="bnvRR" unicode="&#x9e0;" horiz-adv-x="878" 
d="M418 -73v-123l-318 114v93l89 89l-134 62l1 1v132l243 124l-33 67q-40 -54 -111 -54q-72 0 -111 42t-39 113q0 50 16 84h115q-10 -30 -10 -65q0 -28 13 -46t33 -18q33 0 41.5 21.5t8.5 70.5q0 24 -1 37h100l78 -201l9 4v197h135v-342h18q75 0 107 -48v470h140v-80h85
v-112h-85v-469h-140q0 127 -122 127h-3v-217h-140l-109 51l-55 -58zM403 136v197l-197 -101z" />
    <glyph glyph-name="bnvLL" unicode="&#x9e1;" horiz-adv-x="705" 
d="M705 -127q0 -80 -61 -126t-153 -46q-10 0 -32 2l1 74q20 8 33.5 29t13.5 49q0 18 -9.5 29t-25.5 11q-32 0 -32 -40q0 -24 8 -50h-72q-11 35 -11 62q0 42 27.5 70.5t75.5 28.5q49 0 78 -30t29 -78q0 -37 -22 -74q59 21 59 89q0 40 -25.5 66.5t-72 51.5t-63.5 40
q-81 -42 -193 -42q-28 0 -58 3l1 116q36 13 60 51t24 88q0 32 -16.5 52t-45.5 20q-58 0 -58 -71q0 -37 15 -91h-125q-20 57 -20 112q0 73 50.5 119t130.5 46q89 0 140.5 -50t51.5 -134q0 -68 -41 -129q107 41 107 167q0 50 -20 87.5t-51.5 60.5t-69.5 42.5t-76.5 38.5
t-70 42t-51.5 60t-20 86q0 26 5 46h128q-1 -4 -1 -15q0 -34 19.5 -59.5t51.5 -44t70 -36.5t76 -43t70 -57t51.5 -85.5t19.5 -122.5q0 -122 -76 -201q13 -13 48 -35.5t60.5 -41t46.5 -55t21 -82.5z" />
    <glyph glyph-name="bnmvL" unicode="&#x9e2;" 
d="M167 -157q0 -69 -50 -115.5t-136 -46.5q-19 0 -27 1v75q17 5 28.5 24t11.5 43q0 15 -8 24.5t-22 9.5q-27 0 -27 -34q0 -16 7 -44h-69q-10 29 -10 53q0 37 25.5 63t68.5 26q41 0 67 -28t26 -69q0 -31 -16 -60q48 19 48 78q0 32 -17.5 54t-43 34.5t-50.5 24.5t-42.5 33
t-17.5 53q0 15 3 21h81q-1 -1 -1 -6q0 -22 17.5 -37.5t43 -27t50.5 -27t42.5 -46.5t17.5 -76z" />
    <glyph glyph-name="bnmvLL" unicode="&#x9e3;" 
d="M167 -157q0 -51 -28 -91q4 -2 21.5 -11t24 -13.5t20 -16t19.5 -22t11.5 -28t5.5 -38.5q0 -54 -36.5 -85t-97.5 -31q-16 0 -22 1v45q14 4 23.5 19t9.5 36q0 11 -7 19t-18 8q-10 0 -16.5 -7.5t-6.5 -19.5q0 -11 6 -35h-48q-7 22 -7 41q0 29 19.5 47t50.5 18q34 0 54 -19
t20 -51q0 -27 -17 -51q43 14 43 65q0 16 -4.5 28.5t-16.5 22.5t-19 14.5t-26.5 14t-24.5 11.5q-47 -33 -119 -33q-19 0 -27 1v75q17 5 28.5 24t11.5 43q0 15 -8 24.5t-22 9.5q-27 0 -27 -34q0 -16 7 -44h-69q-10 29 -10 53q0 37 25.5 63t68.5 26q41 0 67 -28t26 -69
q0 -31 -16 -60q48 19 48 78q0 32 -17.5 54t-43 34.5t-50.5 24.5t-42.5 33t-17.5 53q0 15 3 21h81q-1 -1 -1 -6q0 -22 17.5 -37.5t43 -27t50.5 -27t42.5 -46.5t17.5 -76z" />
    <glyph glyph-name="bnZero" unicode="&#x9e6;" horiz-adv-x="604" 
d="M302 92q-114 0 -185.5 66.5t-71.5 179.5t71.5 179.5t185.5 66.5t185.5 -66.5t71.5 -179.5t-71.5 -179.5t-185.5 -66.5zM302 464q-57 0 -89.5 -34t-32.5 -92t32.5 -92t89.5 -34t89.5 34t32.5 92t-32.5 92t-89.5 34z" />
    <glyph glyph-name="bnOne" unicode="&#x9e7;" horiz-adv-x="527" 
d="M222 229v111q-86 0 -139 -44.5t-53 -123.5q0 -84 57 -133t161 -49q112 0 175.5 60t63.5 160q0 58 -25 112t-60 93.5t-70.5 74.5t-60.5 70.5t-25 66.5q0 22 7 44h-134q-8 -31 -8 -61q0 -45 24.5 -86.5t59.5 -75.5l70 -68t59.5 -77.5t24.5 -91.5t-27.5 -75.5t-74.5 -27.5
q-36 0 -59 17t-23 48q0 27 15 41.5t42 14.5z" />
    <glyph glyph-name="bnTwo" unicode="&#x9e8;" horiz-adv-x="474" 
d="M434 -75l-395 265v155q83 -75 178 -75q39 0 60 21t21 57q0 28 -22 52t-53 43.5t-62 41.5t-53 56t-22 77q0 29 12 53h127q-10 -20 -10 -41q0 -23 22.5 -46t54.5 -45t64 -47.5t54.5 -65.5t22.5 -89q0 -66 -44 -112t-118 -52q57 -28 104 -60l59 -40v-148z" />
    <glyph glyph-name="bnThree" unicode="&#x9e9;" horiz-adv-x="707" 
d="M667 351q0 -153 -84 -242t-219 -89q-152 0 -238 96t-86 283q0 76 23 166h137q-22 -86 -22 -165q0 -257 186 -257q77 0 118 55.5t41 152.5q0 54 -15 87t-44 33q-26 0 -39.5 -22.5t-13.5 -60.5q0 -41 14 -90h-134q-18 44 -18 94q0 87 47.5 143t137.5 56q101 0 155 -67
t54 -173z" />
    <glyph glyph-name="bnFour" unicode="&#x9ea;" horiz-adv-x="535" 
d="M484 512q0 -93 -95 -159q106 -70 106 -173q0 -89 -62.5 -139.5t-161.5 -50.5q-100 0 -165.5 48.5t-65.5 136.5q0 103 100 168q-86 56 -86 159q0 84 62 131.5t157 47.5t153 -48.5t58 -120.5zM191 495q0 -57 57 -96q50 24 75.5 47t25.5 57q0 30 -21 45.5t-57 15.5
q-40 0 -60 -18.5t-20 -50.5zM268 107q38 0 63.5 21t25.5 60q0 53 -77 103q-51 -28 -77 -52.5t-26 -58.5q0 -36 25.5 -54.5t65.5 -18.5z" />
    <glyph glyph-name="bnFive" unicode="&#x9eb;" horiz-adv-x="589" 
d="M171 322q0 -181 205 -207q-51 44 -51 130q0 48 23 88.5t69 60.5q-49 15 -81 51.5t-36 81.5q-129 -60 -129 -205zM559 452v-113q-56 0 -80.5 -37t-24.5 -86q0 -55 26.5 -87t77.5 -32v-98q-52 -7 -117 -7q-199 0 -302.5 93t-103.5 238q0 146 99.5 243t257.5 115l39 -80
q-5 -11 -5 -31q0 -50 39 -81.5t94 -36.5z" />
    <glyph glyph-name="bnSix" unicode="&#x9ec;" horiz-adv-x="678" 
d="M227 681q75 0 121.5 -47.5t46.5 -134.5v-70q0 -47 47 -47q53 0 177 62q29 -71 29 -152q0 -124 -77 -208t-214 -84q-145 0 -236 94.5t-91 266.5q0 49 4 85h138q-4 -36 -4 -79q0 -121 52 -184t137 -63q77 0 118 44t43 121q-49 -23 -102 -23q-160 0 -160 171v40q0 78 -66 78
q-28 0 -37 -1v124q41 7 74 7z" />
    <glyph glyph-name="bnSeven" unicode="&#x9ed;" horiz-adv-x="600" 
d="M472 508v-310q0 -78 66 -78q28 0 37 1v-124q-41 -7 -74 -7q-75 0 -122 47.5t-47 134.5v45q-42 -9 -83 -9q-104 0 -159 58t-55 153q0 103 71.5 182.5t183.5 79.5q79 0 130.5 -46.5t51.5 -126.5zM262 336q12 0 70 5v167q0 53 -44 53q-47 0 -80 -41.5t-33 -100.5
q0 -83 87 -83z" />
    <glyph glyph-name="bnEight" unicode="&#x9ee;" horiz-adv-x="744" 
d="M128 163v310q0 78 -66 78q-28 0 -37 -1v124q41 7 74 7q75 0 122 -47.5t47 -134.5v-45q42 9 83 9q66 0 114 -25q30 25 80 25q55 0 55 67q0 17 -1 27h128q7 -30 7 -60q0 -79 -43.5 -119t-113.5 -40q-11 0 -25 -2q13 -38 13 -84q0 -103 -71.5 -182.5t-183.5 -79.5
q-79 0 -130.5 46.5t-51.5 126.5zM312 110q47 0 80 41.5t33 100.5q0 83 -87 83q-12 0 -70 -5v-167q0 -53 44 -53z" />
    <glyph glyph-name="bnNine" unicode="&#x9ef;" horiz-adv-x="649" 
d="M214 351q93 0 144.5 -50t51.5 -125q0 -34 -13 -66q42 8 62.5 41t20.5 80t-23 82.5t-59.5 58.5t-80.5 42.5t-88 40t-80.5 45t-59.5 63t-23 88.5q0 13 1 20h136q-1 -3 -1 -11q0 -27 22.5 -50t59 -42t80.5 -39t88 -47t80.5 -59.5t59 -82t22.5 -109.5q0 -108 -63.5 -169.5
t-184.5 -61.5h-103v96q24 30 24 70q0 29 -19.5 48.5t-53.5 19.5q-31 0 -49.5 -19t-18.5 -50q0 -23 13 -40t36 -21v-105q-81 0 -130.5 42.5t-49.5 123.5q0 82 52.5 134t146.5 52z" />
    <glyph glyph-name="asRA" unicode="&#x9f0;" horiz-adv-x="540" 
d="M27 209v134q139 113 318 161v55h-365v112h580v-112h-85v-559h-130zM345 274v110q-57 -21 -96 -40zM345 135v63l-160 111q-32 -20 -47 -32z" />
    <glyph glyph-name="asWA" unicode="&#x9f1;" horiz-adv-x="540" 
d="M237 10v-103l-162 104v110zM560 559h-85v-559h-135v1l-1 -1l-302 209v134q145 118 303 161v55h-360v112h580v-112zM340 146v225q-103 -41 -177 -97z" />
    <glyph glyph-name="bnBangladeshitaka" unicode="&#x9f3;" horiz-adv-x="613" 
d="M84 681q75 0 121.5 -47.5t46.5 -134.5v-37h35v-120h-35l1 -169q0 -31 20.5 -47t52.5 -16q60 0 92 42.5t32 105.5q0 85 -75 85q-22 0 -42 -4v122q31 7 63 7q96 0 145 -57.5t49 -152.5q0 -112 -71 -190t-193 -78q-89 0 -151 48.5t-62 134.5v169h-79v120h79v11q0 78 -66 78
q-28 0 -37 -1v124q41 7 74 7z" />
    <glyph glyph-name="bnNumeratorone" unicode="&#x9f4;" horiz-adv-x="539" 
d="M479 559q0 -228 -113.5 -355.5t-345.5 -127.5v120q321 0 321 363h138z" />
    <glyph glyph-name="bnNumeratortwo" unicode="&#x9f5;" horiz-adv-x="716" 
d="M544 558h139q-10 -104 -44 -198t-90.5 -169.5t-142.5 -120t-189 -44.5v120q24 8 41.5 38t17.5 71q0 62 -57 62q-53 0 -53 -64q0 -24 9 -51h-128q-12 34 -12 70q0 68 45.5 114t131.5 46q81 0 132.5 -43.5t51.5 -120.5q0 -34 -18 -68q71 53 113 149.5t53 208.5z" />
    <glyph glyph-name="bnNumeratorthree" unicode="&#x9f6;" horiz-adv-x="689" 
d="M176 318h-131q-5 20 -5 39q0 60 41.5 103.5t127.5 43.5q79 0 123 -42.5t44 -106.5q0 -38 -18.5 -67t-45 -46t-53 -30.5t-45 -27.5t-18.5 -29q0 -22 19.5 -33t45.5 -11q71 0 125.5 48t86.5 129t47.5 178t15.5 205h136q0 -61 -4 -120t-16 -128.5t-31 -129t-51 -117
t-73.5 -97.5t-101 -64.5t-131.5 -24.5q-91 0 -149.5 46.5t-58.5 119.5q0 44 30 76t66 47t66 35t30 42q0 40 -37 40q-40 0 -40 -49q0 -12 5 -29z" />
    <glyph glyph-name="bnNumeratorfour" unicode="&#x9f7;" horiz-adv-x="295" 
d="M215 0h-135v671h135v-671z" />
    <glyph glyph-name="bnNumeratoroneless" unicode="&#x9f8;" horiz-adv-x="540" 
d="M485 0h-135v353q-103 -84 -168 -175h-135v336q0 91 -30 157h135q30 -66 30 -157v-154q93 101 168 138h135v-498z" />
    <glyph glyph-name="bnDenominatorsixteen" unicode="&#x9f9;" horiz-adv-x="537" 
d="M35 338q0 96 65.5 155.5t168.5 59.5t168 -59.5t65 -155.5t-65 -156t-168 -60t-168.5 60t-65.5 156zM364 338q0 42 -26.5 69.5t-68.5 27.5t-69 -27.5t-27 -69.5q0 -41 27 -68.5t69 -27.5t68.5 27t26.5 69z" />
    <glyph glyph-name="bnIsshar" unicode="&#x9fa;" horiz-adv-x="596" 
d="M561 447q0 -151 -81.5 -254.5t-225.5 -103.5q-104 0 -169 57t-65 145h137q0 -36 24 -61.5t76 -25.5q48 0 82.5 22t53 58.5t26.5 77t8 85.5h134zM337 324q0 -31 -20.5 -50.5t-52.5 -19.5q-30 0 -50.5 20t-20.5 50t20.5 51t50.5 21q32 1 53 -20t20 -52z" />
    <glyph glyph-name="bnGanda" unicode="&#x9fb;" horiz-adv-x="521" 
d="M521 23v-137l-273 158q-42 24 -62 36.5t-50.5 36t-44.5 43.5t-25 49.5t-11 64.5q0 83 45.5 124t126.5 41q23 0 55 -5v-123q-18 3 -37 3q-52 0 -52 -44q0 -8 1 -15.5t5 -14t6.5 -11.5t9.5 -11.5t10 -10t12.5 -10t13 -8.5t15 -9t14.5 -9z" />
    <glyph glyph-name="uni200C" unicode="&#x200c;" 
d="M24 -230h-47v1041h47v-1041z" />
    <glyph glyph-name="uni200D" unicode="&#x200d;" 
d="M24 -230h-47v865l-69 -73l-33 33l93 93l-95 95l33 33l95 -95l96 95l32 -32l-96 -96l96 -95l-33 -33l-72 75v-865z" />
    <glyph glyph-name="endash" unicode="&#x2013;" horiz-adv-x="555" 
d="M510 215h-465v107h465v-107z" />
    <glyph glyph-name="emdash" unicode="&#x2014;" horiz-adv-x="836" 
d="M791 218h-746v107h746v-107z" />
    <glyph glyph-name="quoteleft" unicode="&#x2018;" horiz-adv-x="267" 
d="M188 433h-161l136 261h126z" />
    <glyph glyph-name="quoteright" unicode="&#x2019;" horiz-adv-x="267" 
d="M154 433h-126l101 261h161z" />
    <glyph glyph-name="quotesinglbase" unicode="&#x201a;" horiz-adv-x="267" 
d="M119 -127h-126l101 261h161z" />
    <glyph glyph-name="quotedblleft" unicode="&#x201c;" horiz-adv-x="452" 
d="M185 433h-158l141 261h121zM378 433h-146l121 261h121z" />
    <glyph glyph-name="quotedblright" unicode="&#x201d;" horiz-adv-x="452" 
d="M149 433h-121l96 261h146zM334 433h-121l104 261h158z" />
    <glyph glyph-name="quotedblbase" unicode="&#x201e;" horiz-adv-x="452" 
d="M119 -127h-121l96 261h146zM304 -127h-121l104 261h158z" />
    <glyph glyph-name="dagger" unicode="&#x2020;" horiz-adv-x="559" 
d="M529 405h-185v-405h-130v405h-184v118h184v151h130v-151h185v-118z" />
    <glyph glyph-name="daggerdbl" unicode="&#x2021;" horiz-adv-x="589" 
d="M544 151h-185v-151h-130v151h-184v118h184v136h-184v118h184v151h130v-151h185v-118h-185v-136h185v-118z" />
    <glyph glyph-name="bullet" unicode="&#x2022;" horiz-adv-x="425" 
d="M345 356q0 -56 -38 -94.5t-94 -38.5q-57 0 -95 38t-38 95t37.5 95t94.5 38q56 0 94.5 -38.5t38.5 -94.5z" />
    <glyph glyph-name="ellipsis" unicode="&#x2026;" horiz-adv-x="938" 
d="M238 81q0 -37 -26 -63t-63 -26t-63 26t-26 63t26 63t63 26t63 -26t26 -63zM558 81q0 -37 -26 -63t-63 -26t-63 26t-26 63t26 63t63 26t63 -26t26 -63zM878 81q0 -37 -26 -63t-63 -26t-63 26t-26 63t26 63t63 26t63 -26t26 -63z" />
    <glyph glyph-name="perthousand" unicode="&#x2030;" horiz-adv-x="1412" 
d="M358 -1h-131l379 708h132zM425 532q0 -79 -55.5 -134.5t-134.5 -55.5t-134.5 55.5t-55.5 134.5t55.5 134.5t134.5 55.5t134.5 -55.5t55.5 -134.5zM162 532q0 -30 21.5 -51.5t51.5 -21.5t51.5 21.5t21.5 51.5t-21.5 51.5t-51.5 21.5t-51.5 -21.5t-21.5 -51.5zM928 182
q0 -79 -55.5 -134.5t-134.5 -55.5t-134.5 55.5t-55.5 134.5t55.5 134.5t134.5 55.5t134.5 -55.5t55.5 -134.5zM665 182q0 -30 21.5 -51.5t51.5 -21.5t51.5 21.5t21.5 51.5t-21.5 51.5t-51.5 21.5t-51.5 -21.5t-21.5 -51.5zM1368 182q0 -79 -55.5 -134.5t-134.5 -55.5
t-134.5 55.5t-55.5 134.5t55.5 134.5t134.5 55.5t134.5 -55.5t55.5 -134.5zM1105 182q0 -30 21.5 -51.5t51.5 -21.5t51.5 21.5t21.5 51.5t-21.5 51.5t-51.5 21.5t-51.5 -21.5t-21.5 -51.5z" />
    <glyph glyph-name="guilsinglleft" unicode="&#x2039;" horiz-adv-x="371" 
d="M184 253l146 -162h-152l-152 162l152 162h152z" />
    <glyph glyph-name="guilsinglright" unicode="&#x203a;" horiz-adv-x="371" 
d="M345 253l-152 -162h-152l146 162l-146 162h152z" />
    <glyph glyph-name="fraction" unicode="&#x2044;" horiz-adv-x="264" 
d="M-68 0h-109l429 711h108z" />
    <glyph glyph-name="Euro" unicode="&#x20ac;" horiz-adv-x="622" 
d="M582 27q-64 -35 -156 -35q-107 0 -184.5 56.5t-108.5 152.5h-93v90h76q-1 10 -1 29q0 24 1 35h-76v90h92q31 104 110 161t179 57q98 0 161 -38v-147q-59 48 -137 48q-98 0 -146 -81h178v-90h-206q-2 -22 -2 -36q0 -19 1 -28h207v-90h-179q45 -75 142 -75q82 0 142 49
v-148z" />
    <glyph glyph-name="indianrupee" unicode="&#x20b9;" horiz-adv-x="559" 
d="M518 395h-108q-11 -71 -56.5 -115t-123.5 -57l191 -223h-184l-177 219v115h87q93 0 113 61h-200v109h194q-30 61 -110 61h-84v109h458v-109h-155q25 -28 37 -61h118v-109z" />
    <glyph glyph-name="uni20BA" unicode="&#x20ba;" horiz-adv-x="588" 
d="M224 0h-99v208l-71 -36v111l71 36v89l-71 -36v111l71 36v136h146v-63l89 45v-111l-89 -45v-89l89 45v-111l-89 -45v-154q77 23 122.5 89t45.5 147h142q0 -68 -23.5 -132t-66.5 -116t-112.5 -83.5t-154.5 -31.5z" />
    <glyph glyph-name="uni20BD" unicode="&#x20bd;" horiz-adv-x="545" 
d="M267 537h-48v-197h39q122 0 122 104q0 93 -113 93zM416 77h-197v-77h-154v77h-77v102h77v59h-77v102h77v315h220q120 0 180.5 -58t60.5 -149q0 -101 -65.5 -155.5t-175.5 -54.5h-66v-59h197v-102z" />
    <glyph glyph-name="uni2113" unicode="&#x2113;" horiz-adv-x="519" 
d="M280 459v-108q81 57 81 146q0 52 -38 52q-43 0 -43 -90zM476 27q-56 -32 -141 -32q-92 0 -144 49t-55 141q-12 -1 -38 -1q-41 0 -68 7v118q32 -8 68 -8q14 0 38 2v162q0 97 40.5 155.5t131.5 58.5q86 0 129.5 -46.5t43.5 -123.5q0 -91 -52.5 -170.5t-148.5 -120.5v-11
q0 -48 24.5 -71.5t67.5 -23.5q55 0 104 33v-118z" />
    <glyph glyph-name="trademark" unicode="&#x2122;" horiz-adv-x="753" 
d="M396 331h-91l29 343h99l36 -93q18 -47 29.5 -81.5t13.5 -45.5l3 -12q9 33 49 139l36 93h99l35 -343h-91l-10 112q-3 32 -3 63.5t2 47.5l1 16q-10 -56 -38 -128l-40 -107h-78l-39 107q-11 29 -20 61t-12 49l-4 18q1 -7 2 -18t3 -46.5t-2 -63.5zM188 331h-94v261h-84v82
h261v-82h-83v-261z" />
    <glyph glyph-name="uni2126" unicode="&#x2126;" horiz-adv-x="790" 
d="M350 0h-305v124h129q-95 79 -95 220q0 156 84.5 248.5t233.5 92.5t233.5 -92t84.5 -249q0 -141 -97 -220h127v-124h-305v124q55 15 82.5 74.5t27.5 145.5q0 95 -39.5 148t-113.5 53t-113.5 -53t-39.5 -148q0 -85 26 -144.5t80 -75.5v-124z" />
    <glyph glyph-name="partialdiff" unicode="&#x2202;" horiz-adv-x="552" 
d="M502 284q0 -140 -62 -217t-172 -77q-112 0 -172.5 64t-60.5 166q0 94 59.5 153.5t144.5 59.5q63 0 109 -31q-57 154 -247 272h201q91 -70 145.5 -180t54.5 -210zM267 120q97 0 102 154q-38 35 -98 35q-38 0 -62.5 -26.5t-24.5 -69.5t21.5 -68t61.5 -25z" />
    <glyph glyph-name="uni2206" unicode="&#x2206;" horiz-adv-x="681" 
d="M35 0v101l210 573h194l207 -573v-101h-611zM245 268l-47 -144h284l-47 144l-95 294q-24 -74 -95 -294z" />
    <glyph glyph-name="product" unicode="&#x220f;" horiz-adv-x="647" 
d="M240 43q0 -229 -182 -229q-36 0 -73 13v133q24 -13 47 -13q30 0 42 22.5t12 72.5v632h496v-854h-155v723h-187v-500z" />
    <glyph glyph-name="summation" unicode="&#x2211;" horiz-adv-x="484" 
d="M191 -76h303v-124h-464v124l146 320l-146 306v124h464v-124h-302l142 -306z" />
    <glyph glyph-name="minus" unicode="&#x2212;" horiz-adv-x="589" 
d="M544 275h-499v129h499v-129z" />
    <glyph glyph-name="uni2215" unicode="&#x2215;" horiz-adv-x="488" 
d="M88 0h-109l429 711h108z" />
    <glyph glyph-name="uni2219" unicode="&#x2219;" horiz-adv-x="316" 
d="M247 337q0 -37 -26 -63t-63 -26t-63 26t-26 63t26 63t63 26t63 -26t26 -63z" />
    <glyph glyph-name="radical" unicode="&#x221a;" horiz-adv-x="825" 
d="M522 -190h-170l-194 538h-131l30 113h226l82 -246q52 -155 74 -265q31 156 65 265l213 692h154z" />
    <glyph glyph-name="infinity" unicode="&#x221e;" horiz-adv-x="830" 
d="M415 259q-25 -28 -42.5 -43.5t-56.5 -33t-85 -17.5q-90 0 -138 44.5t-48 127.5q0 81 52 129.5t138 48.5q98 0 179 -90q81 93 186 93q88 0 136.5 -45.5t48.5 -126.5q0 -80 -52 -129t-137 -49q-103 0 -181 91zM172 339q0 -30 18 -46.5t50 -16.5q52 0 99 68q-59 59 -99 59
q-32 0 -50 -17t-18 -47zM491 339q20 -19 31 -29t30.5 -20t37.5 -10q67 0 67 64q0 27 -17 45t-47 18q-25 0 -47 -13.5t-31 -24t-24 -30.5z" />
    <glyph glyph-name="integral" unicode="&#x222b;" horiz-adv-x="326" 
d="M241 -4q0 -92 -51.5 -143t-142.5 -51q-47 0 -76 10v118q28 -11 52 -11q37 0 55 17t18 60v517q0 92 51.5 143t142.5 51q47 0 76 -10v-118q-28 11 -52 11q-37 0 -55 -17t-18 -60v-517z" />
    <glyph glyph-name="approxequal" unicode="&#x2248;" horiz-adv-x="589" 
d="M207 405q-30 0 -50.5 -13t-43.5 -40l-92 73q71 99 157 99q60 0 119.5 -22.5t81.5 -22.5q30 0 50 13t44 41l92 -74q-69 -99 -158 -99q-52 0 -110.5 22.5t-89.5 22.5zM207 201q-30 0 -50.5 -13t-43.5 -40l-92 73q71 99 157 99q60 0 119.5 -22.5t81.5 -22.5q30 0 50 13
t44 41l92 -74q-69 -99 -158 -99q-52 0 -110.5 22.5t-89.5 22.5z" />
    <glyph glyph-name="notequal" unicode="&#x2260;" horiz-adv-x="589" 
d="M544 166h-294l-37 -80h-75l37 80h-130v116h185l54 116h-239v116h294l37 80h75l-37 -80h130v-116h-185l-54 -116h239v-116z" />
    <glyph glyph-name="lessequal" unicode="&#x2264;" horiz-adv-x="584" 
d="M539 469l-396 -50l396 -50v-126l-499 86v180l499 86v-126zM539 83h-499v116h499v-116z" />
    <glyph glyph-name="greaterequal" unicode="&#x2265;" horiz-adv-x="584" 
d="M544 509v-180l-499 -86v126l396 50l-396 50v126zM544 83h-499v116h499v-116z" />
    <glyph glyph-name="lozenge" unicode="&#x25ca;" horiz-adv-x="604" 
d="M177 337l25 -42q32 -54 57 -99.5t34 -63.5l9 -19q27 61 102 182l26 42l-26 42q-33 54 -58.5 99.5t-34.5 63.5l-9 19q-28 -61 -100 -182zM376 0h-150l-197 337l197 337h150l199 -337z" />
    <glyph glyph-name="uni25CC" unicode="&#x25cc;" horiz-adv-x="660" 
d="M286 90q0 -20 -12.5 -33t-31.5 -13t-32 13t-13 33q0 18 13 31t32 13t31.5 -13t12.5 -31zM184 165q0 -19 -12.5 -31.5t-31.5 -12.5q-20 0 -32 12.5t-12 31.5t12.5 31.5t31.5 12.5t31.5 -12.5t12.5 -31.5zM132 281q0 -19 -12.5 -31t-31.5 -12t-31.5 12t-12.5 31t12.5 32
t31.5 13t31.5 -12.5t12.5 -32.5zM413 74q0 -19 -12.5 -31.5t-32.5 -12.5t-32 12t-12 32t12 32t32 12t32.5 -12.5t12.5 -31.5zM147 407q0 -19 -13 -31.5t-31 -12.5q-20 0 -33 12.5t-13 31.5t13 31.5t33 12.5q18 0 31 -12.5t13 -31.5zM534 127q0 -19 -13 -31.5t-32 -12.5
t-31.5 12.5t-12.5 31.5t12.5 31.5t31.5 12.5t32 -12.5t13 -31.5zM227 517q0 -20 -12.5 -32.5t-31.5 -12.5t-31.5 12.5t-12.5 32.5q0 19 12.5 31.5t31.5 12.5t31.5 -12.5t12.5 -31.5zM606 225q0 -19 -12.5 -31.5t-30.5 -12.5q-19 0 -32 12.5t-13 31.5t13 32t32 13
q18 0 30.5 -13t12.5 -32zM345 560q0 -20 -12.5 -32t-31.5 -12t-31.5 12t-12.5 32t12.5 32t31.5 12t31.5 -12t12.5 -32zM616 359q0 -19 -12.5 -31.5t-31.5 -12.5q-20 0 -32 12.5t-12 31.5t12 31.5t32 12.5q19 0 31.5 -12.5t12.5 -31.5zM471 545q0 -18 -12.5 -31t-30.5 -13
q-19 0 -32 13t-13 31q0 19 12.5 32t32.5 13q19 0 31 -12.5t12 -32.5zM566 477q0 -19 -12.5 -31.5t-31.5 -12.5t-31.5 12.5t-12.5 31.5t12.5 32t31.5 13t31.5 -12.5t12.5 -32.5z" />
    <glyph glyph-name="fi" unicode="&#xfb01;" horiz-adv-x="575" 
d="M241 0h-145v400h-66v107h66v19q0 92 51.5 143t142.5 51q98 0 189 -42v-118q-95 43 -165 43q-37 0 -55 -17t-18 -60v-19h291v-507h-146v400h-145v-400z" />
    <glyph glyph-name="fl" unicode="&#xfb02;" horiz-adv-x="593" 
d="M336 400h-95v-400h-145v400h-66v107h66v19q0 92 51.5 143t142.5 51q110 0 243 -63v-657h-146v593q-40 10 -68 10q-40 0 -59 -16t-19 -61v-19h95v-107z" />
    <glyph glyph-name="bnK_SSA" horiz-adv-x="1081" 
d="M588 408q20 0 42 3v148h-100v-97q0 -54 58 -54zM1041 248q0 -88 -48.5 -139.5t-135.5 -51.5q-20 0 -27 1v126h10q32 0 49 16.5t17 47.5q0 40 -26 56t-75 16q-11 0 -35 -2v-318h-140q-59 41 -153 71.5t-170 30.5q-45 0 -70.5 -20t-25.5 -58q0 -13 1 -20h-137q-5 30 -5 52
q0 56 35 97t99 57q13 24 13 52q0 60 -135 60h-41v118h31q110 0 110 78q0 19 -9 41h-193v112h1122v-112h-332v-126q26 2 37 2q103 0 168.5 -49t65.5 -138zM356 259q0 -24 -7 -42q164 -16 281 -82v162q-21 -4 -44 -4q-90 0 -143 43t-53 125v98h-78q9 -23 9 -49
q0 -103 -122 -118q157 -17 157 -133z" />
    <glyph glyph-name="bnJ_NYA" horiz-adv-x="997" 
d="M475 324q44 0 86 12q-101 49 -106 209q-77 -58 -77 -136q0 -42 25.5 -63.5t71.5 -21.5zM677 268q0 -39 -7 -71q12 -30 39.5 -50.5t60.5 -20.5q55 0 55 45q0 23 -15 32.5t-48 9.5h-27v108h27q63 0 63 44q0 41 -60 41q-32 0 -57.5 -19t-37.5 -48q7 -32 7 -71zM952 160
q0 -60 -46 -97t-122 -37q-99 0 -156 74q-76 -110 -238 -110q-151 0 -250.5 98t-99.5 263q0 28 1 44h138q-1 -14 -1 -38q0 -114 61.5 -180.5t150.5 -66.5q65 0 102.5 31t46.5 85q-45 -16 -107 -16q-89 0 -144 53t-55 135q0 96 62 161h-315v112h1037v-112h-458q4 -103 53 -150
q24 44 71 71.5t104 27.5q74 0 119.5 -39.5t45.5 -95.5q0 -75 -75 -107q32 -12 53.5 -39t21.5 -67z" />
    <glyph glyph-name="bnNull" 
 />
    <glyph glyph-name="bnReph" 
d="M-191 715l171 168h137v-4l-170 -168h-138v4z" />
    <glyph glyph-name="bnRAc2" 
d="M-249 -6q-29 0 -96 -22.5t-129 -22.5q-88 0 -143 44.5t-55 127.5q0 22 5 52h137q-2 -20 -2 -30q0 -34 19.5 -54t54.5 -20q41 0 100 22t93 22q41 0 59 -17v137h140v-292h-140v17q0 36 -43 36z" />
    <glyph glyph-name="bnYAc2" horiz-adv-x="281" 
d="M185 0h-148q63 91 63 163q0 37 -32 124t-32 130q0 44 22 81.5t55 60.5h147q-35 -17 -60 -53t-25 -86q0 -42 32 -130.5t32 -126.5q0 -83 -54 -163zM301 559h-321v112h321v-112z" />
    <glyph glyph-name="bnBAc2" 
d="M-66 -250h-130l-260 106v128q120 97 260 124v70h130v-428zM-196 -133v124q-81 -22 -140 -63z" />
    <glyph glyph-name="bnK" horiz-adv-x="780" 
d="M626 -193h-137l-152 149v4h138l151 -149v-4zM746 267q0 -94 -50.5 -147t-139.5 -53q-14 0 -21 1v126h10q66 0 66 73q0 49 -35.5 81t-100.5 36v-384h-135v1l-1 -1l-302 209v134q82 66 151 106.5t152 56.5v53h-360v112h820v-112h-325v-53q107 -3 189 -67.5t82 -171.5z
M340 146v234q-87 -29 -179 -105z" />
    <glyph glyph-name="bnKH" horiz-adv-x="679" 
d="M766 -193h-137l-152 149v4h138l151 -149v-4zM614 0h-135v1l-1 -1l-451 232v112h95q80 0 121 39.5t41 112.5v3q-40 -69 -124 -69q-77 0 -118.5 43t-41.5 114q0 50 16 84h135q-10 -30 -10 -65q0 -29 14.5 -46.5t41.5 -17.5q34 0 47 23.5t13 68.5q0 24 -1 37h132
q31 -95 31 -175q0 -99 -50.5 -158t-136.5 -79l247 -130v622h135v-80h85v-112h-85v-559z" />
    <glyph glyph-name="bnG" horiz-adv-x="621" 
d="M707 -193h-137l-152 149v4h138l151 -149v-4zM556 0h-140v409q0 75 -28.5 113.5t-93.5 38.5q-97 0 -113 -85q80 -4 129.5 -46.5t50.5 -122.5q-1 -91 -64.5 -137.5t-170.5 -46.5q-42 0 -86 9v115q36 -4 86 -4q95 0 95 63t-95 63h-83v68q0 104 61.5 174t166.5 70
q102 0 145 -65v135h140v-80h85v-112h-85v-559z" />
    <glyph glyph-name="bnGH" horiz-adv-x="610" 
d="M696 -193h-137l-152 149v4h138l151 -149v-4zM335 291l-123 -76l193 -81v425h-131q-45 0 -69.5 -21t-24.5 -58q0 -36 25 -53t63 -17q33 0 67 8v-127zM630 559h-85v-559h-140l-348 142l1 1v122q67 43 128 77q-151 22 -151 124q0 59 54 93h-109v112h650v-112z" />
    <glyph glyph-name="bnNG" horiz-adv-x="698" 
d="M596 -193h-137l-152 149v4h138l151 -149v-4zM410 475q70 0 70 52q0 20 -16.5 33.5t-41.5 13.5q-46 0 -46 -55v-42q22 -2 34 -2zM663 246q0 -114 -79 -184.5t-207 -70.5q-146 0 -243.5 96t-97.5 260q0 29 3 47h137q-2 -22 -2 -47q0 -119 59.5 -177.5t144.5 -58.5
q72 0 113.5 34.5t44.5 85.5q-55 -35 -123 -35q-77 0 -122.5 45t-45.5 126v45q-106 52 -151 147h-114v112h195q19 -78 77 -133q6 63 47.5 103t120.5 40q80 0 129.5 -46t49.5 -113q0 -70 -52 -108.5t-136 -38.5q-11 0 -35 2v-7q0 -54 53 -54q78 0 197 81q37 -74 37 -151z" />
    <glyph glyph-name="bnC" horiz-adv-x="535" 
d="M466 -193h-137l-152 149v4h138l151 -149v-4zM502 262q0 -102 -74.5 -187t-180.5 -85q-79 0 -130.5 46.5t-51.5 126.5v396h-85v112h575v-112h-350v-59l93 -27q109 -32 156.5 -77.5t47.5 -133.5zM249 110q45 0 79 49t34 103q0 33 -19 50.5t-68 32.5l-70 22v-204
q0 -53 44 -53z" />
    <glyph glyph-name="bnCH" horiz-adv-x="642" 
d="M396 -193h-137l-152 149v4h138l151 -149v-4zM562 -50h-194l-264 136v95q42 -2 64 -2q59 0 109 7t92 22.5t66 44t24 67.5q0 28 -18.5 43t-56.5 24q1 -4 1 -13q0 -57 -51 -103.5t-118 -46.5q-68 0 -105.5 34.5t-37.5 98.5v202h-93v112h682v-112h-470v-33l42 -8q2 0 3 -1
l153 -29q100 -20 147.5 -60t47.5 -110q0 -94 -79 -152.5t-205 -76.5q80 -34 106 -47l155 -79v-13zM217 318q22 0 39 21t17 45q0 17 -9 24t-32 12l-40 8v-81q0 -29 25 -29z" />
    <glyph glyph-name="bnJ" horiz-adv-x="887" 
d="M966 -193h-137l-152 149v4h138l151 -149v-4zM613 249q0 -110 -70 -184.5t-193 -74.5q-140 0 -225 96.5t-85 264.5q0 28 1 44h138q-1 -14 -1 -38q0 -118 45.5 -182.5t126.5 -64.5q59 0 93.5 30t39.5 86q-27 -6 -55 -6q-83 0 -134 48.5t-51 129.5q0 96 62 161h-325v112h927
v-112h-319q65 -88 255 -139q-51 -125 -51 -273q0 -73 19 -147h-135q-18 72 -18 145q0 118 33 206q-182 66 -236 186q-67 -57 -67 -128q0 -75 88 -75q60 0 119 27q18 -52 18 -112z" />
    <glyph glyph-name="bnJH" horiz-adv-x="815" 
d="M636 -193h-137l-152 149v4h138l151 -149v-4zM480 0h-140v1l-1 -1l-302 209v134q145 118 303 161v55h-360v112h500v-342h18q76 0 107 -48v480h140v-90h85v-112h-85v-469h-140q0 127 -122 127h-3v-217zM340 146v225q-103 -41 -177 -97z" />
    <glyph glyph-name="bnNY" horiz-adv-x="948" 
d="M726 -193h-137l-152 149v4h138l151 -149v-4zM122 428q0 103 74 177.5t192 74.5q71 0 116.5 -29.5t61.5 -84.5q55 62 148 62q87 0 138 -49.5t51 -114.5q0 -48 -26 -81t-65 -48q39 -15 65 -48t26 -81q0 -65 -51 -114.5t-138 -49.5q-86 0 -139 53v-95h-140q0 36 -36 36
q-21 0 -85 -18t-104 -18q-76 0 -131.5 43.5t-55.5 130.5q0 36 8 68l136 1q-4 -22 -4 -49q0 -68 69 -68q26 0 79.5 14.5t74.5 14.5q31 0 49 -17v365q0 31 -11 44t-36 13q-48 0 -87 -40.5t-39 -91.5q0 -61 71 -61q22 0 42 4v-122q-31 -7 -63 -7q-93 0 -141.5 47.5t-48.5 138.5
zM695 158q35 0 56.5 15t21.5 43q0 60 -77 60h-39v118h39q77 0 77 60q0 28 -21.5 43t-56.5 15q-54 0 -87 -36t-33 -97v-88q0 -61 33 -97t87 -36z" />
    <glyph glyph-name="bnTT" horiz-adv-x="565" 
d="M476 -193h-137l-152 149v4h138l151 -149v-4zM532 262q0 -106 -74.5 -189t-195.5 -83q-81 0 -139 47t-58 126v396h-85v112h399q0 5 0.5 15t0.5 12q0 31 -10.5 46t-41.5 15q-22 0 -87 -9.5t-97 -9.5q-67 0 -104 22v107q31 -17 91 -17q31 0 101.5 12t111.5 12
q79 0 121 -41.5t42 -116.5q0 -24 -4 -47h82v-112h-380v-396q0 -25 16 -39t41 -14q59 0 94.5 47.5t35.5 104.5q0 81 -85 81q-22 0 -42 -4v122q31 7 63 7q97 0 150.5 -56t53.5 -150z" />
    <glyph glyph-name="bnTTH" horiz-adv-x="609" 
d="M516 -193h-137l-152 149v4h138l151 -149v-4zM557 271q0 -116 -67 -188t-185 -72q-122 0 -189.5 77.5t-67.5 211.5q0 43 4 82h96q106 0 106 103v74h-274v112h245q-19 41 -19 81q0 64 43.5 103.5t126.5 39.5q14 0 50 -4v-121q-16 2 -22 2q-65 0 -65 -50q0 -21 17 -51h273
v-112h-189l15 -19q102 -131 102 -269zM305 131q58 0 87.5 40.5t29.5 99.5q0 110 -56 208v-26q0 -81 -48 -129.5t-129 -48.5h-4v-1q0 -65 31.5 -104t88.5 -39z" />
    <glyph glyph-name="bnDD" horiz-adv-x="678" 
d="M566 -193h-137l-152 149v4h138l151 -149v-4zM648 292q0 -124 -77 -208t-214 -84q-145 0 -236 94.5t-91 266.5q0 49 4 85h138q-4 -36 -4 -79q0 -121 52 -184t137 -63q79 0 120 45.5t41 121.5q-53 -25 -107 -25q-81 0 -123.5 44t-42.5 127v126h-265v112h718v-112h-313v-124
q0 -53 54 -53q56 0 180 62q29 -71 29 -152z" />
    <glyph glyph-name="bnDDH" horiz-adv-x="565" 
d="M496 -203h-137l-152 149v4h138l151 -149v-4zM532 262q0 -106 -74.5 -189t-195.5 -83q-81 0 -139 47t-58 126v396h-85v112h605v-112h-380v-396q0 -25 16 -39t41 -14q59 0 94.5 47.5t35.5 104.5q0 81 -85 81q-22 0 -42 -4v122q31 7 63 7q97 0 150.5 -56t53.5 -150z" />
    <glyph glyph-name="bnNN" horiz-adv-x="608" 
d="M697 -193h-137l-152 149v4h138l151 -149v-4zM628 559h-85v-559h-140v409q0 68 -33.5 110t-97.5 42q-43 0 -67.5 -24t-24.5 -63q0 -40 23.5 -59.5t61.5 -19.5q25 0 49 4v-122q-35 -7 -66 -7q-96 0 -152 53t-56 151q0 92 56.5 149.5t144.5 57.5q111 0 162 -79v149h140v-80
h85v-112z" />
    <glyph glyph-name="bnT" horiz-adv-x="665" 
d="M556 -173h-137l-152 149v4h138l151 -149v-4zM633 310q0 -128 -82 -205.5t-212 -77.5q-140 0 -227.5 86.5t-87.5 262.5q0 40 4 75h133q-3 -34 -3 -74q0 -105 47 -167.5t134 -62.5q74 0 114 45t40 118q0 44 -14.5 70.5t-42.5 26.5q-24 0 -37.5 -18t-13.5 -49q0 -35 10 -68
h-130q-15 35 -15 78q0 74 49 121.5t131 47.5q92 0 147.5 -60.5t55.5 -148.5zM685 559h-705v112h705v-112z" />
    <glyph glyph-name="bnTH" horiz-adv-x="676" 
d="M766 -193h-137l-152 149v4h138l151 -149v-4zM611 0h-135v1l-1 -1l-431 232v112h95q68 0 105 37t37 109q0 35 -15 57.5t-45 22.5q-27 0 -41.5 -18t-14.5 -46q0 -29 12 -65h-127q-16 34 -16 84q0 70 49 113.5t133 43.5q92 0 146 -56.5t54 -135.5q0 -97 -46.5 -154.5
t-125.5 -76.5l232 -128v620h135v-80h85v-112h-85v-559z" />
    <glyph glyph-name="bnD" horiz-adv-x="540" 
d="M635 -193h-137l-152 149v4h138l151 -149v-4zM182 128h-135v431h-67v112h580v-112h-378v-249q93 101 168 138h135v-448h-135v303q-103 -84 -168 -175z" />
    <glyph glyph-name="bnDH" horiz-adv-x="597" 
d="M686 -193h-137l-152 149v4h138l151 -149v-4zM617 559h-85v-559h-140l-338 157l1 1v122q54 35 123 71q-60 12 -99 50.5t-39 100.5q0 80 55 129.5t150 49.5q33 0 58 -4v-112q-10 1 -36 1q-36 0 -59 -19t-23 -53t23 -52.5t62 -18.5q43 0 75 15q17 9 47 24v209h225v-112z
M392 128v202l-194 -107z" />
    <glyph glyph-name="bnN" horiz-adv-x="589" 
d="M681 -193h-137l-152 149v4h138l151 -149v-4zM533 0h-140q-6 42 -17 85t-29.5 90t-47.5 76.5t-64 29.5q-34 0 -51 -22t-17 -58q0 -28 5 -55h-136q-9 37 -9 69q0 79 49 134t136 55q122 0 181 -119v274h-413v112h629v-112h-76v-559z" />
    <glyph glyph-name="bnP" horiz-adv-x="628" 
d="M716 -193h-137l-152 149v4h138l151 -149v-4zM67 270l79 44q-40 65 -101 84v54q0 88 58.5 158.5t166.5 70.5q107 0 153 -76v146h140v-80h85v-112h-85v-559h-140v332l-356 -206v144zM180 451q46 -22 76 -76l160 90q-24 96 -121 96q-50 0 -82.5 -31.5t-32.5 -78.5z" />
    <glyph glyph-name="bnPH" horiz-adv-x="828" 
d="M676 -193h-137l-152 149v4h138l151 -149v-4zM794 287q0 -94 -50.5 -147t-139.5 -53q-14 0 -21 1v126h10q66 0 66 73q0 91 -136 91v-378h-140l-348 142l1 1v132l144 97l-141 83v104h-59v112h868v-112h-730l195 -128v-119l-131 -91l201 -87v365h140q112 0 191.5 -54.5
t79.5 -157.5z" />
    <glyph glyph-name="bnB" horiz-adv-x="540" 
d="M626 -193h-137l-152 149v4h138l151 -149v-4zM560 559h-85v-559h-135v1l-1 -1l-302 209v134q145 118 303 161v55h-360v112h580v-112zM340 146v225q-103 -41 -177 -97z" />
    <glyph glyph-name="bnBH" horiz-adv-x="678" 
d="M576 -213h-137l-152 149v4h138l151 -149v-4zM646 239q0 -112 -75.5 -180.5t-200.5 -68.5q-144 0 -236 95.5t-92 250.5q0 37 2 60h134q-2 -22 -2 -57q0 -110 51.5 -171t142.5 -61q129 0 149 100q-42 -13 -91 -13q-77 0 -127.5 43.5t-50.5 118.5t50 119.5t135 44.5
q40 0 92 -10v-111q-32 4 -62 4q-75 0 -75 -47q0 -50 73 -50q35 0 82.5 14.5t83.5 36.5q17 -55 17 -118zM708 559h-728v112h728v-112z" />
    <glyph glyph-name="bnM" horiz-adv-x="640" 
d="M716 -193h-137l-152 149v4h138l151 -149v-4zM680 559h-115v-559h-140v85q0 73 -37.5 117t-104.5 44q-42 0 -65.5 -17.5t-23.5 -48.5t21.5 -46t54.5 -15q18 0 38 2v-115q-28 -6 -67 -6q-83 0 -136.5 47t-53.5 134q0 66 34.5 110.5t93.5 63.5q-11 53 -44.5 76t-93.5 23v105
h-61v112h700v-112zM425 289v270h-257q60 -27 96.5 -78t46.5 -117q78 -13 114 -75z" />
    <glyph glyph-name="bnY" horiz-adv-x="588" 
d="M676 -193h-137l-152 149v4h138l151 -149v-4zM313 431v-119l-131 -91l201 -87v425h-265zM608 559h-85v-559h-140l-348 142l1 1v132l144 97l-141 83v104h-59v112h628v-112z" />
    <glyph glyph-name="bnR" horiz-adv-x="540" 
d="M626 -193h-137l-152 149v4h138l151 -149v-4zM560 559h-85v-559h-135v1l-1 -1l-302 209v134q145 118 303 161v55h-360v112h580v-112zM168 20q0 -32 -22 -54t-54 -22t-54 22t-22 54t22 54t54 22t54 -22t22 -54zM340 146v225q-103 -41 -177 -97z" />
    <glyph glyph-name="bnL" horiz-adv-x="760" 
d="M847 -193h-137l-152 149v4h138l151 -149v-4zM695 0h-140v289q0 74 -55 74q-57 0 -57 -87v-24h-143v31q0 80 -60 80q-30 0 -45.5 -21.5t-15.5 -54.5q0 -79 76 -79q17 0 40 3v-117q-27 -4 -56 -4q-92 0 -146 54t-54 145q0 85 49.5 138t138.5 53q60 0 97.5 -25.5t46.5 -63.5
q10 38 38 64t74 26t72 -29v107h-575v112h800v-112h-85v-559z" />
    <glyph glyph-name="bnSH" horiz-adv-x="677" 
d="M766 -193h-137l-152 149v4h138l151 -149v-4zM612 0h-140v445q0 116 -94 116q-39 0 -61 -25t-22 -66q0 -44 23.5 -65t61.5 -21q23 0 32 1v-122q-21 -4 -49 -4q-95 0 -139 57q-47 -57 -133 -57q-31 0 -66 7v122q24 -4 49 -4q85 0 85 86q0 41 -24.5 65t-67.5 24h-87v112h108
q86 0 135 -61q47 71 135 71q76 0 114 -46v116h140v-80h85v-112h-85v-559z" />
    <glyph glyph-name="bnSS" horiz-adv-x="588" 
d="M676 -193h-137l-152 149v4h138l151 -149v-4zM313 441l70 -42v160h-270zM608 559h-85v-559h-140l-348 142l1 1v132l144 103l-141 77v104h-59v112h628v-112zM383 134v134l-83 45l-121 -91z" />
    <glyph glyph-name="bnS" horiz-adv-x="615" 
d="M696 -193h-137l-152 149v4h138l151 -149v-4zM550 0h-140v169q0 98 -61 98q-20 0 -37.5 -17t-33 -41.5t-35 -49.5t-53.5 -42t-80 -17q-41 0 -78 12v115q27 -8 58 -8q19 0 36.5 10.5t26 20.5t25.5 35.5t23 33.5q-12 67 -54.5 101t-108.5 34v105h-58v112h656v-112h-86v-559z
M318 385q64 0 92 -39v213h-243q116 -50 147 -174h4z" />
    <glyph glyph-name="bnH" horiz-adv-x="450" 
d="M426 -193h-137l-152 149v4h138l151 -149v-4zM419 -9h-183l-183 125v110h100q68 0 103 29.5t35 80.5q0 33 -17.5 52t-46.5 19q-28 0 -45 -17.5t-17 -44.5q0 -26 5 -44h-127q-9 29 -9 61q0 70 51.5 113.5t136.5 43.5q92 0 148 -53t56 -130q0 -84 -54.5 -134.5t-144.5 -64.5
l192 -131v-15zM480 559h-500v112h500v-112z" />
    <glyph glyph-name="bnK_SS" horiz-adv-x="1081" 
d="M588 408q20 0 42 3v148h-100v-97q0 -54 58 -54zM1041 248q0 -88 -48.5 -139.5t-135.5 -51.5q-20 0 -27 1v126h10q32 0 49 16.5t17 47.5q0 40 -26 56t-75 16q-11 0 -35 -2v-318h-140q-59 41 -153 71.5t-170 30.5q-45 0 -70.5 -20t-25.5 -58q0 -13 1 -20h-137q-5 30 -5 52
q0 56 35 97t99 57q13 24 13 52q0 60 -135 60h-41v118h31q110 0 110 78q0 19 -9 41h-193v112h1122v-112h-332v-126q26 2 37 2q103 0 168.5 -49t65.5 -138zM356 259q0 -24 -7 -42q164 -16 281 -82v162q-21 -4 -44 -4q-90 0 -143 43t-53 125v98h-78q9 -23 9 -49
q0 -103 -122 -118q157 -17 157 -133zM626 -51h138l151 -149v-4h-137l-152 149v4z" />
    <glyph glyph-name="bnJ_NY" horiz-adv-x="997" 
d="M475 324q44 0 86 12q-101 49 -106 209q-77 -58 -77 -136q0 -42 25.5 -63.5t71.5 -21.5zM677 268q0 -39 -7 -71q12 -30 39.5 -50.5t60.5 -20.5q55 0 55 45q0 23 -15 32.5t-48 9.5h-27v108h27q63 0 63 44q0 41 -60 41q-32 0 -57.5 -19t-37.5 -48q7 -32 7 -71zM952 160
q0 -60 -46 -97t-122 -37q-99 0 -156 74q-76 -110 -238 -110q-151 0 -250.5 98t-99.5 263q0 28 1 44h138q-1 -14 -1 -38q0 -114 61.5 -180.5t150.5 -66.5q65 0 102.5 31t46.5 85q-45 -16 -107 -16q-89 0 -144 53t-55 135q0 96 62 161h-315v112h1037v-112h-458q4 -103 53 -150
q24 44 71 71.5t104 27.5q74 0 119.5 -39.5t45.5 -95.5q0 -75 -75 -107q32 -12 53.5 -39t21.5 -67zM318 -51h138l151 -149v-4h-137l-152 149v4z" />
    <glyph glyph-name="asR" horiz-adv-x="540" 
d="M626 -193h-137l-152 149v4h138l151 -149v-4zM27 209v134q139 113 318 161v55h-365v112h580v-112h-85v-559h-130zM345 274v110q-57 -21 -96 -40zM345 135v63l-160 111q-32 -20 -47 -32z" />
    <glyph glyph-name="asW" horiz-adv-x="540" 
d="M626 -203h-137l-152 149v4h138l151 -149v-4zM237 10v-103l-162 104v110zM560 559h-85v-559h-135v1l-1 -1l-302 209v134q145 118 303 161v55h-360v112h580v-112zM340 146v225q-103 -41 -177 -97z" />
    <glyph glyph-name="bnDDx" horiz-adv-x="678" 
d="M576 -403h-137l-152 149v4h138l151 -149v-4zM648 292q0 -124 -77 -208t-214 -84q-145 0 -236 94.5t-91 266.5q0 49 4 85h138q-4 -36 -4 -79q0 -121 52 -184t137 -63q79 0 120 45.5t41 121.5q-53 -25 -107 -25q-81 0 -123.5 44t-42.5 127v126h-265v112h718v-112h-313v-124
q0 -53 54 -53q56 0 180 62q29 -71 29 -152zM418 -122q0 -32 -22 -54t-54 -22t-54 22t-22 54t22 54t54 22t54 -22t22 -54z" />
    <glyph glyph-name="bnDDHx" horiz-adv-x="565" 
d="M506 -403h-137l-152 149v4h138l151 -149v-4zM532 262q0 -106 -74.5 -189t-195.5 -83q-81 0 -139 47t-58 126v396h-85v112h605v-112h-380v-396q0 -25 16 -39t41 -14q59 0 94.5 47.5t35.5 104.5q0 81 -85 81q-22 0 -42 -4v122q31 7 63 7q97 0 150.5 -56t53.5 -150z
M356 -132q0 -32 -22 -54t-54 -22t-54 22t-22 54t22 54t54 22t54 -22t22 -54z" />
    <glyph glyph-name="bnYx" horiz-adv-x="588" 
d="M668 -203h-137l-152 149v4h138l151 -149v-4zM313 431v-119l-131 -91l201 -87v425h-265zM608 559h-85v-559h-140l-348 142l1 1v132l144 97l-141 83v104h-59v112h628v-112zM225 -61q0 -31 -22.5 -53.5t-53.5 -22.5t-53.5 22.5t-22.5 53.5t22.5 53.5t53.5 22.5t53.5 -22.5
t22.5 -53.5z" />
    <glyph glyph-name="bnK_KA" horiz-adv-x="780" 
d="M475 -149h-135l-290 122v128q50 41 107 68l-120 60v134q136 110 303 143v53h-360v112h820v-112h-325v-50q69 -2 129 -28t101 -80.5t41 -126.5q0 -56 -13 -88l-126 51q4 18 4 37q0 48 -35 78.5t-101 34.5v-152q106 -6 175 -61.5t69 -137.5q0 -78 -46.5 -117.5
t-123.5 -39.5q-13 0 -20 1v108h10q56 0 56 52q0 37 -33 58.5t-87 24.5v-272zM313 224q20 4 27 5v152q-94 -24 -172 -81zM340 -32v146q-99 -25 -169 -70z" />
    <glyph glyph-name="bnNG_KA" horiz-adv-x="775" 
d="M440 -81h-135l-268 117v128q134 108 268 145q-1 44 -20.5 71t-55.5 27q-28 0 -43.5 -18t-15.5 -48q0 -28 8 -50h-121q-12 30 -12 68q0 73 49 116.5t131 43.5q92 0 151 -58.5t64 -142.5q103 -2 179 -56.5t76 -138.5q0 -86 -50 -128.5t-131 -42.5q-13 0 -20 1v120h10
q56 0 56 52q0 36 -32.5 56.5t-87.5 22.5v-285zM739 513q0 -69 -41 -111t-112 -42q-82 0 -129.5 57.5t-49.5 141.5h-427v112h815v-112h-61q5 -25 5 -46zM585 469q44 0 44 52q0 23 -5 38h-99q4 -90 60 -90zM305 43v143q-73 -28 -140 -79z" />
    <glyph glyph-name="bnL_KA" horiz-adv-x="971" 
d="M278 123q-23 -3 -48 -3q-89 0 -142 50.5t-53 140.5q0 78 49 133.5t134 55.5q60 0 97.5 -25.5t46.5 -63.5q10 38 37.5 63t74.5 25t72 -28v88h-566v112h1002v-112h-310v-319q106 -5 175.5 -60.5t69.5 -137.5q0 -78 -46.5 -117.5t-123.5 -39.5q-13 0 -20 1v108h10
q56 0 56 52q0 36 -33 57t-88 24v-260h-126l-259 112v128q129 105 259 128v74q0 74 -57 74q-58 0 -58 -87v-9h-137v16q0 80 -61 80q-30 0 -46.5 -21t-16.5 -53q0 -34 21.5 -52.5t53.5 -18.5q15 0 33 2v-117zM546 -14v133q-79 -23 -140 -68z" />
    <glyph glyph-name="bnSS_KA" horiz-adv-x="735" 
d="M581 452q0 -75 -39 -123q65 -24 103.5 -70.5t38.5 -106.5q0 -78 -46.5 -117.5t-123.5 -39.5q-13 0 -20 1v108h10q56 0 56 52q0 35 -31 55.5t-84 24.5v-259h-130l-260 112v128q60 49 113 77q-77 51 -77 158q0 62 31 107h-142v112h775v-112h-205q31 -45 31 -107zM336 559
q-38 0 -64 -16l170 -123q4 12 4 32q0 51 -30 79t-80 28zM226 452q0 -52 30 -80t80 -28q41 0 68 18l-175 121q-3 -13 -3 -31zM315 96v133q-75 -22 -140 -68z" />
    <glyph glyph-name="bnS_KA" horiz-adv-x="745" 
d="M412 446q54 0 54 67q0 21 -5 46h-120q2 -113 71 -113zM70 102v128q65 53 125 83.5t132 44.5q-43 21 -61 60q-31 -77 -131 -77q-52 0 -102 25v116q53 -21 95 -21q79 0 79 98h-227v112h785v-112h-171q7 -27 7 -65q0 -46 -24 -83t-69 -55q85 -17 138 -68.5t53 -122.5
q0 -78 -46.5 -117.5t-123.5 -39.5q-13 0 -20 1v108h10q56 0 56 52q0 35 -31 55.5t-84 24.5v-259h-130zM330 109v133q-75 -22 -140 -68z" />
    <glyph glyph-name="bnNG_KHA" horiz-adv-x="733" 
d="M303 536q43 0 43 37q0 15 -9 24t-25 9q-30 0 -30 -40v-29q7 -1 21 -1zM668 -227h-124v1l-1 -1l-367 71v87h74q112 0 120 94q-32 -47 -102 -47q-63 0 -95.5 36.5t-32.5 93.5q0 24 3 40l122 -1q-3 -14 -3 -29q0 -45 39 -45q42 0 42 47q0 37 -11 69q-30 -5 -58 -5
q-115 0 -181.5 67.5t-66.5 186.5q0 14 2 34h103q-1 -9 -1 -34q0 -80 41.5 -117.5t103.5 -37.5q44 0 71.5 16t32.5 45q-34 -18 -75 -18q-61 0 -95.5 33.5t-34.5 92.5v29q-57 28 -91 78h-103v112h161q12 -57 40 -89q6 45 39 75.5t89 30.5q62 0 97.5 -35t35.5 -84
q0 -52 -39.5 -83.5t-99.5 -31.5q-14 0 -21 1v-1q0 -20 7 -29t27 -9q58 0 139 57q28 -52 28 -107q0 -85 -52 -132q52 -98 52 -186q0 -111 -82 -149l143 -28v880h124v-80h85v-112h-85v-786z" />
    <glyph glyph-name="bnS_KHA" horiz-adv-x="861" 
d="M455 559h-119q0 -112 72 -112q28 0 40.5 18t12.5 45q0 28 -6 49zM438 272q0 18 -6 56q-6 -1 -20 -1q-56 0 -94.5 25.5t-56.5 65.5q-31 -77 -131 -77q-52 0 -102 25v116q53 -21 95 -21t60.5 24t18.5 74h-222v112h591q28 -96 28 -162q0 -88 -49 -136q47 -112 47 -210
q0 -160 -124 -204l188 -52v844h135v-80h85v-112h-85v-759h-135v1l-1 -1l-451 122v108h95q78 0 120 28.5t42 97.5v3q-40 -69 -124 -69q-77 0 -118.5 43t-41.5 114q0 32 9 66h137q-5 -20 -5 -47q0 -29 15.5 -46.5t42.5 -17.5q57 0 57 70z" />
    <glyph glyph-name="bnG_GA" horiz-adv-x="612" 
d="M532 -201h-125v145q0 62 -26.5 109t-83.5 47q-62 0 -79 -35q129 -10 130 -121q-1 -72 -53.5 -107.5t-143.5 -35.5q-28 0 -72 7v102q48 -3 72 -3q67 0 67 39q0 40 -65 40h-71v31q0 86 50.5 139t140.5 53t134 -61v261q0 75 -27 113.5t-88 38.5q-64 0 -86 -51
q149 -10 150 -139q-1 -78 -58 -116.5t-155 -38.5q-35 0 -78 8v105q34 -4 78 -4q42 0 61 11t19 37q0 25 -15.5 34t-50.5 9h-102v21q0 107 52 175.5t155 68.5q102 0 145 -65v135h125v-80h85v-112h-85v-760z" />
    <glyph glyph-name="bnNG_GA" horiz-adv-x="690" 
d="M640 -52h-138q-13 67 -13 136q0 64 11 119q-80 -44 -146 -88q-61 -105 -192 -105q-62 0 -120 12v115q51 -7 102 -7q123 0 123 143q0 89 -56 89q-25 0 -38 -17t-13 -45q0 -29 8 -53h-127q-12 36 -12 70q0 70 47.5 113.5t129.5 43.5q87 0 136 -57t51 -137q79 43 124 63h122
q-25 -91 -25 -190q0 -106 26 -205zM666 525q0 -69 -41 -111t-112 -42q-79 0 -125.5 53.5t-52.5 133.5h-355v112h730v-112h-47q3 -18 3 -34zM512 481q44 0 44 52q0 10 -2 26h-101q6 -78 59 -78z" />
    <glyph glyph-name="bnDD_GA" horiz-adv-x="1168" 
d="M439 412q53 0 152 53q5 51 26 94h-232v-94q0 -53 54 -53zM1103 0h-140v409q0 78 -26 115t-96 37q-97 0 -113 -85q80 -4 129.5 -46.5t50.5 -122.5q-1 -91 -64.5 -137.5t-170.5 -46.5q-17 0 -26 1v120q11 -1 26 -1q95 0 95 63t-95 63h-44q3 -24 3 -47q0 -116 -75.5 -189.5
t-203.5 -73.5q-144 0 -230.5 86t-86.5 246q0 49 4 85h138q-4 -36 -4 -79q0 -110 47.5 -164t131.5 -54q70 0 108 35.5t41 96.5q-41 -19 -89 -19q-82 0 -125 44t-43 127v96h-265v112h767q31 10 71 10q102 0 145 -65v135h140v-80h85v-112h-85v-559z" />
    <glyph glyph-name="bnD_GA" horiz-adv-x="1060" 
d="M1080 559h-85v-559h-140v409q0 78 -26 115t-96 37q-97 0 -113 -85q80 -4 129.5 -46.5t50.5 -122.5q-1 -91 -64.5 -137.5t-170.5 -46.5q-17 0 -26 1v120q11 -1 26 -1q95 0 95 63t-95 63h-80v-309h-135v266q-96 -70 -168 -158h-135v391h-67v112h659q31 10 71 10
q102 0 145 -65v135h140v-80h85v-112zM350 468h134q5 52 25 91h-327v-220q82 86 168 129z" />
    <glyph glyph-name="bnDDx_GA" horiz-adv-x="1168" 
d="M439 412q53 0 152 53q5 51 26 94h-232v-94q0 -53 54 -53zM1103 0h-140v409q0 78 -26 115t-96 37q-97 0 -113 -85q80 -4 129.5 -46.5t50.5 -122.5q-1 -91 -64.5 -137.5t-170.5 -46.5q-17 0 -26 1v120q11 -1 26 -1q95 0 95 63t-95 63h-44q3 -24 3 -47q0 -116 -75.5 -189.5
t-203.5 -73.5q-144 0 -230.5 86t-86.5 246q0 49 4 85h138q-4 -36 -4 -79q0 -110 47.5 -164t131.5 -54q70 0 108 35.5t41 96.5q-41 -19 -89 -19q-82 0 -125 44t-43 127v96h-265v112h767q31 10 71 10q102 0 145 -65v135h140v-80h85v-112h-85v-559zM422 -82q0 -32 -22 -54
t-54 -22t-54 22t-22 54t22 54t54 22t54 -22t22 -54z" />
    <glyph glyph-name="bnL_GA" horiz-adv-x="738" 
d="M402 252q91 0 131 -59v116q0 74 -53 74q-55 0 -55 -87v-8h-137v15q0 80 -59 80q-29 0 -44 -23t-15 -56q0 -77 91 -77q19 0 38 3q46 22 103 22zM673 -201h-140v227q-10 117 -115 117q-68 0 -90 -43q154 -7 155 -132q-1 -76 -58.5 -115.5t-154.5 -39.5q-35 0 -78 8v105
q34 -4 78 -4q87 0 87 46q0 45 -87 45h-75v34q0 35 9 67q-78 11 -123.5 62t-45.5 130q0 80 46.5 137t130.5 57q59 0 95.5 -25.5t48.5 -63.5q10 37 38.5 62.5t70.5 25.5q45 0 68 -25v85h-553v112h778v-112h-85v-760z" />
    <glyph glyph-name="bnNG_GHA" horiz-adv-x="1165" 
d="M391 495q61 0 61 49q0 20 -13 32.5t-37 12.5q-43 0 -43 -52v-40q20 -2 32 -2zM620 282v-11q69 42 123 72q-132 22 -132 123q0 59 52 93h-99q1 -6 1 -20q0 -66 -46 -99t-127 -33q-22 0 -33 1v-8q0 -52 50 -52q43 0 81.5 18.5t88.5 55.5q41 -75 41 -140zM890 291l-123 -76
l193 -81v425h-121q-44 0 -66 -20.5t-22 -55.5q0 -36 24 -53.5t61 -17.5q30 0 54 6v-127zM1100 0h-140l-380 155q-70 -93 -218 -93q-141 0 -229 80.5t-88 230.5q0 33 2 44h126q-2 -20 -2 -44q0 -107 53.5 -152t137.5 -45q63 0 100.5 27t37.5 70q-46 -33 -106 -33
q-73 0 -116.5 44.5t-43.5 122.5v26q-102 38 -149 126h-105v112h187q19 -74 73 -122q4 60 43.5 96t116.5 36q34 0 69 -10h716v-112h-85v-559z" />
    <glyph glyph-name="bnD_GHA" horiz-adv-x="1077" 
d="M802 298l-151 -84l221 -86v431h-121q-44 0 -66 -20.5t-22 -55.5q0 -36 24 -53.5t61 -17.5q30 0 54 6v-120zM1097 559h-85v-559h-140l-387 148v-88h-135v265q-93 -71 -168 -157h-135v391h-67v112h1117v-112zM485 468v-209q75 44 156 86q-118 25 -118 121q0 59 52 93h-393
v-220q75 78 168 129h135z" />
    <glyph glyph-name="bnL_GHA" horiz-adv-x="1100" 
d="M825 271l-119 -74l189 -68v430h-121q-44 0 -69 -24t-25 -62q0 -39 24.5 -60t64.5 -21q31 0 56 6v-127zM1035 0h-140l-348 122l1 1v122q77 49 130 78q-64 11 -100 42q-27 20 -56 20q-59 0 -59 -89v-14h-143v21q0 80 -60 80q-30 0 -45.5 -21.5t-15.5 -54.5q0 -79 76 -79
q17 0 40 3v-117q-27 -4 -56 -4q-92 0 -146 54t-54 145q0 85 49.5 138t138.5 53q60 0 97.5 -25.5t46.5 -63.5q5 32 32 60t70 28q27 0 46 -11q13 44 59 71h-618v112h1140v-112h-85v-559z" />
    <glyph glyph-name="bnC_CA" horiz-adv-x="915" 
d="M246 222q35 0 54 25t19 60q0 22 -10.5 35.5t-23 19t-43.5 16.5l-40 14v-123q0 -47 44 -47zM882 262q0 -102 -74.5 -187t-180.5 -85q-79 0 -130.5 46.5t-51.5 126.5v84q-19 -63 -73.5 -102.5t-129.5 -39.5q-80 0 -127.5 42t-47.5 122v290h-87v112h955v-112h-350v-59
l93 -27q109 -32 156.5 -77.5t47.5 -133.5zM629 110q45 0 79 49t34 103q0 33 -19 50.5t-68 32.5l-70 22v-204q0 -53 44 -53zM265 501q81 -24 123 -51t57 -76v185h-243v-39z" />
    <glyph glyph-name="bnNY_CA" horiz-adv-x="857" 
d="M618 168q32 0 50.5 15.5t18.5 41.5q0 54 -72 54h-39v118h39q72 0 72 59q0 24 -18 39t-49 15q-50 0 -80.5 -43t-30.5 -100v-58q0 -64 28.5 -102.5t80.5 -38.5zM817 209q0 -65 -48.5 -111t-135.5 -46q-76 0 -124 50v-102h-140l-302 130v128q59 46 136.5 85t145.5 58
q-34 100 -105 100q-64 0 -64 -80q0 -11 2 -33h-138q-4 20 -4 47q0 79 47.5 134t131.5 55q101 0 150 -81v128h140v-96q49 51 124 51q87 0 135.5 -47t48.5 -112q0 -48 -26 -81t-65 -48q39 -15 65 -48t26 -81zM369 260v23q-80 -25 -169 -83l169 -74v134z" />
    <glyph glyph-name="bnSH_CA" horiz-adv-x="942" 
d="M909 262q0 -102 -74.5 -187t-180.5 -85q-79 0 -130.5 46.5t-51.5 126.5v282q0 116 -94 116q-39 0 -61 -25t-22 -66q0 -44 23.5 -65t61.5 -21q23 0 32 1v-122q-21 -4 -49 -4q-95 0 -139 57q-47 -57 -133 -57q-31 0 -66 7v122q24 -4 49 -4q85 0 85 86q0 41 -24.5 65
t-67.5 24h-87v112h108q86 0 135 -61q47 71 135 71q76 0 114 -46v36h490v-112h-350v-59l93 -27q109 -32 156.5 -77.5t47.5 -133.5zM656 110q45 0 79 49t34 103q0 33 -19 50.5t-68 32.5l-70 22v-204q0 -53 44 -53z" />
    <glyph glyph-name="bnC_CHA" horiz-adv-x="1010" 
d="M246 222q35 0 54 25t19 60q0 22 -10.5 35.5t-23 19t-43.5 16.5l-40 14v-123q0 -47 44 -47zM953 318q0 -94 -79 -152.5t-205 -76.5q80 -34 106 -47l155 -79v-13h-194l-264 136v95q42 -2 64 -2q59 0 109 7t92 22.5t66 44t24 67.5q0 28 -18.5 43t-56.5 24q1 -4 1 -13
q0 -57 -51 -103.5t-118 -46.5q-99 0 -130 69q-5 -79 -63.5 -133.5t-148.5 -54.5q-80 0 -127.5 42t-47.5 122v290h-87v112h1050v-112h-470v-33l42 -8q2 0 3 -1l153 -29q100 -20 147.5 -60t47.5 -110zM585 318q22 0 39 21t17 45q0 17 -9 24t-32 12l-40 8v-81q0 -29 25 -29z
M265 501q77 -24 118 -48.5t58 -67.5v174h-239v-39z" />
    <glyph glyph-name="bnNY_CHA" horiz-adv-x="708" 
d="M223 132q24 0 49 11q-63 59 -92 144q-39 -34 -39 -78q0 -38 23 -57.5t59 -19.5zM622 -101v-108l-542 81v119q68 -13 140 -13q126 0 126 71q0 9 -3 16q-49 -34 -119 -34q-84 0 -140.5 47.5t-56.5 130.5q0 62 29.5 108t71 71.5t83 45t71 41.5t29.5 49q0 19 -15 32t-38 13
q-31 0 -49 -18t-18 -48q0 -15 4 -37h-121q-8 27 -8 55q0 73 49 116.5t131 43.5q89 0 138 -49q45 47 122 47q71 0 113.5 -41t42.5 -94q0 -76 -75 -106q32 -13 53.5 -40t21.5 -66q0 -53 -43.5 -94t-114.5 -41q-75 0 -125.5 49.5t-64.5 120.5q-7 -4 -46 -25q12 -40 38.5 -74.5
t54.5 -57.5t55 -46.5t44 -53t17 -64.5q0 -41 -28 -72t-77 -46q114 -9 179 -19zM490 306q50 0 50 42q0 41 -59 41h-14v97h14q31 0 45 10.5t14 34.5q0 18 -13.5 29t-36.5 11q-40 0 -65 -34q1 -6 1 -18q0 -44 -24 -79q8 -134 88 -134z" />
    <glyph glyph-name="bnSH_CHA" horiz-adv-x="1041" 
d="M961 -50h-194l-264 136v95q42 -2 64 -2q59 0 109 7t92 22.5t66 44t24 67.5q0 28 -18.5 43t-56.5 24q1 -4 1 -13q0 -57 -51 -103.5t-118 -46.5q-68 0 -105.5 34.5t-37.5 98.5v88q0 116 -94 116q-39 0 -61 -25t-22 -66q0 -44 23.5 -65t61.5 -21q23 0 32 1v-122
q-21 -4 -49 -4q-95 0 -139 57q-47 -57 -133 -57q-31 0 -66 7v122q24 -4 49 -4q85 0 85 86q0 41 -24.5 65t-67.5 24h-87v112h108q86 0 135 -61q47 71 135 71q76 0 114 -46v36h589v-112h-470v-33l42 -8q2 0 3 -1l153 -29q100 -20 147.5 -60t47.5 -110q0 -94 -79 -152.5
t-205 -76.5q80 -34 106 -47l155 -79v-13zM616 318q22 0 39 21t17 45q0 17 -9 24t-32 12l-40 8v-81q0 -29 25 -29z" />
    <glyph glyph-name="bnNY_JA" horiz-adv-x="834" 
d="M782 -150h-135q-18 79 -18 169q0 111 36 205q-36 -14 -78 -14q-69 0 -119.5 32.5t-71.5 85.5q-33 -40 -33 -81q0 -37 23.5 -57.5t65.5 -20.5q63 0 118 25q18 -51 18 -97q0 -110 -62.5 -177.5t-185.5 -67.5q-138 0 -219 95.5t-81 253.5q0 28 1 44h131q-1 -14 -1 -38
q0 -112 44.5 -175.5t124.5 -63.5q109 0 123 100q-19 -4 -46 -4q-77 0 -129.5 49t-52.5 134q0 43 18.5 82.5t40 63t40 52.5t18.5 54q0 33 -23 51.5t-56 18.5q-40 0 -60 -21t-20 -56q0 -25 8 -52h-126q-9 33 -9 64q0 75 53.5 126t150.5 51q106 0 164 -64q54 64 150 64
q77 0 124 -39t47 -91q0 -77 -72 -106q31 -12 51.5 -40t20.5 -68q0 -43 -34 -77h73q-31 -123 -31 -241q0 -86 19 -169zM581 321q52 0 52 36q0 19 -15 26t-49 7h-22v103h22q33 0 48 8.5t15 30.5q0 37 -55 37q-34 0 -61 -17t-38 -46v-7q0 -27 -7 -55q5 -59 36 -91t74 -32z" />
    <glyph glyph-name="bnJ_JA" horiz-adv-x="1263" 
d="M601 282q0 -47 -15 -86q8 -88 52.5 -137.5t114.5 -49.5q54 0 86 24.5t38 66.5q-25 -6 -52 -6q-79 0 -128 46.5t-49 123.5q0 64 33 119q-182 48 -232 160q-62 -48 -62 -114q0 -71 83 -71q59 0 114 26q17 -50 17 -102zM1192 -117h-128q-17 65 -17 138q0 113 26 196
q-68 24 -134.5 66t-109.5 94q-42 -49 -42 -103q0 -71 83 -71q59 0 114 26q17 -50 17 -102q0 -102 -66 -167t-180 -65q-99 0 -169.5 48t-100.5 137q-58 -30 -134 -30q-134 0 -213 86t-79 238q0 27 1 42h132q-1 -13 -1 -36q0 -102 42 -159t118 -57q115 0 126 91q-25 -6 -52 -6
q-79 0 -128 46.5t-49 123.5q0 85 52 140h-320v112h1303v-112h-704q36 -44 112.5 -69.5t167.5 -25.5h53q38 -55 129 -108t182 -69q-49 -119 -49 -264q0 -66 18 -140z" />
    <glyph glyph-name="bnN_JA" horiz-adv-x="958" 
d="M882 -50h-135q-18 72 -18 185q0 115 29 200q-174 22 -299 90v-46q0 -85 88 -85q60 0 119 27q18 -52 18 -112q0 -109 -72.5 -184t-196.5 -75q-126 0 -211 76.5t-89 207.5h138q4 -78 48.5 -121t113.5 -43q60 0 96.5 30.5t42.5 85.5q-27 -6 -55 -6q-111 0 -157 83
q-27 52 -54.5 80.5t-62.5 28.5q-57 0 -57 -70q0 -16 1 -24h-138q-3 18 -3 38q0 79 42.5 129t123.5 50q82 0 137 -72q-8 53 -8 126v10h-343v112h998v-112h-519v-12q154 -100 455 -127q-51 -125 -51 -283q0 -42 6 -101t13 -86z" />
    <glyph glyph-name="bnB_JA" horiz-adv-x="958" 
d="M882 -103h-135q-18 72 -18 192q0 112 28 199q-174 21 -298 84v-46q0 -85 88 -85q60 0 119 27q18 -52 18 -112q0 -110 -70 -184.5t-193 -74.5q-127 0 -214.5 77t-91.5 207h138q4 -78 51.5 -121t116.5 -43q59 0 93.5 30t39.5 86q-27 -6 -55 -6q-82 0 -129 50l-294 97v128
q103 84 252 127v30h-348v112h998v-112h-519v-65q141 -92 455 -120q-51 -125 -51 -283q0 -42 6 -105t13 -89zM327 361v50q-67 -23 -122 -62l129 -51q-7 32 -7 63z" />
    <glyph glyph-name="bnNY_JHA" horiz-adv-x="852" 
d="M525 -183h-122l-255 107v116q102 69 255 114v6q0 33 -32 33q-20 0 -78 -16.5t-94 -16.5q-78 0 -123.5 39.5t-45.5 125.5q0 22 3 43h125q-1 -8 -1 -25q0 -61 62 -61q24 0 72.5 13t67.5 13q28 0 44 -16v226q0 23 -14 35.5t-37 12.5q-33 0 -58.5 -23.5t-25.5 -53.5
q0 -40 46 -40q6 0 28 2v-102q-21 -4 -47 -4q-72 0 -114.5 33t-42.5 104q0 85 65 141.5t159 56.5q104 0 143 -71q47 60 136 60q74 0 120 -39t46 -96q0 -76 -75 -106q32 -13 53.5 -40t21.5 -66q0 -62 -52 -100v-333h-128q0 116 -102 126v-198zM628 296q57 0 57 42q0 41 -59 41
h-24v97h24q59 0 59 45q0 18 -15.5 29t-40.5 11q-48 0 -76 -32.5t-28 -94.5v-5q0 -58 25 -95.5t78 -37.5zM627 80v107q-60 4 -102 42v-101q69 -1 102 -48zM403 -76v119q-86 -31 -135 -59z" />
    <glyph glyph-name="bnJ_JHA" horiz-adv-x="1070" 
d="M566 298q0 -94 -65 -152.5t-169 -58.5q-128 0 -205 79.5t-77 219.5q0 26 1 40h126q-1 -12 -1 -34q0 -92 41.5 -142t114.5 -50q49 0 80.5 20t35.5 58q-24 -6 -50 -6q-77 0 -120.5 39.5t-43.5 115.5q0 78 49 132h-303v112h1110v-112h-85v-650h-128q0 127 -117 127v-236
h-134l-255 107v116q136 92 255 125v25q0 116 31 201q-184 51 -241 168q-54 -44 -54 -104q0 -67 79 -67q58 0 109 24q16 -48 16 -97zM811 448q-51 -125 -51 -273v-27h10q76 0 107 -48v459h-321q34 -43 98 -68t157 -43zM626 -93v129q-69 -27 -135 -69z" />
    <glyph glyph-name="bnC_NYA" horiz-adv-x="988" 
d="M559 62v237q0 48 -44 48q-33 0 -58.5 -23.5t-25.5 -53.5q0 -40 46 -40q6 0 28 2v-112q-21 -4 -47 -4q-66 0 -103 28q-18 -14 -42 -24v-7q0 -61 62 -61q24 0 72.5 13t67.5 13q28 0 44 -16zM681 -77h-122v12q0 33 -32 33q-20 0 -78 -16.5t-94 -16.5q-169 0 -169 160v14
q-61 11 -96 51.5t-35 108.5v290h-75v112h1028v-112h-818v-39l67 -22q97 -32 136 -78q60 41 132 41q97 0 133 -63q54 52 139 52q71 0 113.5 -41t42.5 -94q0 -76 -75 -106q32 -13 53.5 -40t21.5 -66q0 -53 -43.5 -94t-114.5 -41q-66 0 -114 40v-85zM234 222q35 0 54 25t19 60
q0 22 -10.5 35.5t-23 19t-43.5 16.5l-40 14v-123q0 -47 44 -47zM781 77q50 0 50 42q0 41 -59 41h-14v97h14q31 0 45 10.5t14 34.5q0 18 -13.5 29t-36.5 11q-46 0 -73 -34t-27 -85v-21q0 -55 26.5 -90t73.5 -35z" />
    <glyph glyph-name="bnK_TTA" horiz-adv-x="708" 
d="M586 -15q0 -73 -59 -115t-155 -42q-125 0 -193.5 54.5t-68.5 152.5q0 105 66 160l-139 60v128q129 105 259 128v48h-316v112h479q0 5 0.5 15t0.5 12q0 31 -10.5 46t-41.5 15q-22 0 -87 -9.5t-97 -9.5q-67 0 -104 22v107q31 -17 91 -17q31 0 101.5 12t111.5 12
q79 0 121 -41.5t42 -116.5q0 -24 -4 -47h145v-112h-306v-43q106 -5 175.5 -60.5t69.5 -137.5q0 -78 -46.5 -117.5t-123.5 -39.5q-13 0 -20 1v108h10q56 0 56 52q0 36 -33 57t-88 24v-213q-87 -20 -131.5 -57t-44.5 -98q0 -97 127 -97q88 0 88 47q0 38 -69 38q-18 0 -38 -2
v109q22 3 50 3q82 0 132 -40t50 -108zM296 262v133q-79 -23 -140 -68z" />
    <glyph glyph-name="bnTT_TTA" horiz-adv-x="600" 
d="M513 315q0 -27 -8 -54q69 -50 69 -147q0 -106 -82 -163.5t-208 -57.5q-142 0 -255 66v131q49 -32 117.5 -54.5t137.5 -22.5q76 0 117.5 27t41.5 78q0 22 -10 39q-68 -52 -157 -52q-86 0 -143.5 45.5t-57.5 124.5v284h-95v112h389q0 5 0.5 15t0.5 12q0 31 -10.5 46
t-41.5 15q-22 0 -77 -9.5t-87 -9.5q-67 0 -104 22v107q31 -17 91 -17q32 0 95.5 12t97.5 12q79 0 121 -41.5t42 -116.5q0 -24 -4 -47h127v-112h-405v-284q0 -27 17 -41t44 -14q46 0 71 27.5t25 67.5q0 58 -55 58q-22 0 -42 -4v122q31 7 63 7q78 0 126.5 -49.5t48.5 -133.5z
" />
    <glyph glyph-name="bnNN_TTA" horiz-adv-x="903" 
d="M870 262q0 -106 -74.5 -189t-195.5 -83q-81 0 -139 47t-58 126v246q0 68 -33.5 110t-97.5 42q-43 0 -67.5 -24t-24.5 -63q0 -40 23.5 -59.5t61.5 -19.5q25 0 49 4v-122q-35 -7 -66 -7q-96 0 -152 53t-56 151q0 92 56.5 149.5t144.5 57.5q111 0 162 -79v69h314q0 5 0.5 15
t0.5 12q0 31 -10.5 46t-41.5 15q-22 0 -87 -9.5t-97 -9.5q-67 0 -104 22v107q31 -17 91 -17q31 0 101.5 12t111.5 12q79 0 121 -41.5t42 -116.5q0 -24 -4 -47h82v-112h-380v-396q0 -25 16 -39t41 -14q59 0 94.5 47.5t35.5 104.5q0 81 -85 81q-22 0 -42 -4v122q31 7 63 7
q97 0 150.5 -56t53.5 -150z" />
    <glyph glyph-name="bnN_TTA" horiz-adv-x="887" 
d="M212 484q116 0 175 -91v166h-407v112h721q0 5 0.5 15t0.5 12q0 31 -10.5 46t-41.5 15q-22 0 -87 -9.5t-97 -9.5q-67 0 -104 22v107q31 -17 91 -17q31 0 101.5 12t111.5 12q79 0 121 -41.5t42 -116.5q0 -24 -4 -47h82v-112h-380v-396q0 -25 16 -39t41 -14q59 0 94.5 47.5
t35.5 104.5q0 81 -85 81q-22 0 -42 -4v122q31 7 63 7q97 0 150.5 -56t53.5 -150q0 -106 -74.5 -189t-195.5 -83q-81 0 -139 47t-58 126v7q0 74 -37.5 132.5t-109.5 58.5q-37 0 -55 -22t-18 -58q0 -28 5 -55h-136q-9 38 -9 69q0 79 49 134t136 55z" />
    <glyph glyph-name="bnL_TTA" horiz-adv-x="1055" 
d="M295 94q-27 -4 -56 -4q-92 0 -146 54t-54 145q0 85 49.5 138t138.5 53q60 0 97.5 -25.5t46.5 -63.5q10 38 37.5 63t74.5 25t72 -28v108h-575v112h889q0 5 0.5 15t0.5 12q0 31 -10.5 46t-41.5 15q-22 0 -87 -9.5t-97 -9.5q-67 0 -104 22v107q31 -17 91 -17q31 0 101.5 12
t111.5 12q79 0 121 -41.5t42 -116.5q0 -24 -4 -47h82v-112h-380v-396q0 -25 16 -39t41 -14q59 0 94.5 47.5t35.5 104.5q0 81 -85 81q-22 0 -42 -4v122q31 7 63 7q97 0 150.5 -56t53.5 -150q0 -106 -74.5 -189t-195.5 -83q-81 0 -139 47t-58 126v126q0 74 -55 74
q-57 0 -57 -87v-14h-143v21q0 80 -60 80q-30 0 -45.5 -21.5t-15.5 -54.5q0 -79 76 -79q17 0 40 3v-117z" />
    <glyph glyph-name="bnSS_TTA" horiz-adv-x="590" 
d="M51 452q0 62 31 107h-102v112h419q0 5 0.5 15t0.5 12q0 31 -10.5 46t-41.5 15q-22 0 -87 -9.5t-97 -9.5q-67 0 -104 22v107q31 -17 91 -17q31 0 101.5 12t111.5 12q79 0 121 -41.5t42 -116.5q0 -24 -4 -47h88v-112h-101q31 -45 31 -107q0 -71 -34.5 -120t-94.5 -72
q-21 -9 -61 -21.5t-63.5 -22t-50 -25.5t-39 -40.5t-12.5 -57.5q0 -97 127 -97q88 0 88 47q0 38 -69 38q-18 0 -38 -2v109q22 3 50 3q82 0 132 -40t50 -108q0 -73 -59 -115t-155 -42q-125 0 -193.5 54.5t-68.5 152.5q0 119 111 175q-110 54 -110 184zM406 452q0 51 -30 78
t-80 27q-38 0 -63 -15l169 -122q4 12 4 32zM296 344q41 0 68 18l-175 121q-3 -13 -3 -31q0 -52 30 -80t80 -28z" />
    <glyph glyph-name="bnP_TTA" horiz-adv-x="923" 
d="M890 262q0 -106 -74.5 -189t-195.5 -83q-81 0 -139 47t-58 126v169l-372 -215v144l95 53q-40 65 -101 84v54q0 88 58.5 158.5t166.5 70.5q107 0 153 -76v66h314q0 5 0.5 15t0.5 12q0 31 -10.5 46t-41.5 15q-22 0 -87 -9.5t-97 -9.5q-67 0 -104 22v107q31 -17 91 -17
q31 0 101.5 12t111.5 12q79 0 121 -41.5t42 -116.5q0 -24 -4 -47h82v-112h-380v-396q0 -25 16 -39t41 -14q59 0 94.5 47.5t35.5 104.5q0 81 -85 81q-22 0 -42 -4v122q31 7 63 7q97 0 150.5 -56t53.5 -150zM180 451q46 -22 76 -76l160 90q-24 96 -121 96q-50 0 -82.5 -31.5
t-32.5 -78.5z" />
    <glyph glyph-name="bnPH_TTA" horiz-adv-x="800" 
d="M769 -11q0 -87 -63.5 -138t-158.5 -51q-81 0 -135.5 44.5t-54.5 123.5v92l-314 114l1 1v126l124 89l-121 72v97h-67v112h606q0 5 0.5 15t0.5 12q0 31 -10.5 46t-41.5 15q-22 0 -87 -9.5t-97 -9.5q-67 0 -104 22v107q31 -17 91 -17q31 0 101.5 12t111.5 12q79 0 121 -41.5
t42 -116.5q0 -24 -4 -47h110v-112h-695l165 -111v-114l-109 -82l176 -71v323h133q64 0 120 -17t95 -57t39 -97q0 -71 -46 -109t-125 -38q-19 0 -26 1v106h13q59 0 59 40q0 21 -21.5 34.5t-48.5 18t-59 4.5v-422q0 -25 15 -39t42 -14q41 0 68 19.5t27 51.5q0 45 -54 45
q-21 0 -41 -4v112q31 7 66 7q69 0 112.5 -42t43.5 -115z" />
    <glyph glyph-name="bnS_TTA" horiz-adv-x="645" 
d="M127 157q0 74 46.5 128t119.5 86q-26 21 -38 49q-15 -28 -48 -48.5t-82 -20.5q-52 0 -102 25v116q53 -21 95 -21q43 0 61 20.5t18 67.5h-217v112h479q0 5 0.5 15t0.5 12q0 31 -10.5 46t-41.5 15q-22 0 -87 -9.5t-97 -9.5q-67 0 -104 22v107q31 -17 91 -17q31 0 101.5 12
t111.5 12q79 0 121 -41.5t42 -116.5q0 -24 -4 -47h82v-112h-81q7 -28 7 -69q0 -93 -80 -133q-23 -13 -78 -38.5t-85.5 -42.5t-57.5 -49t-27 -70q0 -82 116 -82q99 0 99 42q0 38 -69 38q-18 0 -38 -2v109q23 3 50 3q82 0 132 -40t50 -108q0 -72 -64 -114.5t-161 -42.5
q-115 0 -183 51t-68 146zM402 452q54 0 54 61q0 27 -4 46h-121q2 -107 71 -107z" />
    <glyph glyph-name="bnNN_TTHA" horiz-adv-x="920" 
d="M868 271q0 -116 -67 -188t-185 -72q-122 0 -189.5 77.5t-67.5 211.5q0 43 4 82q3 27 3 50q0 129 -106 129q-43 0 -66.5 -23.5t-23.5 -63.5q0 -38 24 -58.5t61 -20.5q22 0 40 3v-123q-32 -5 -57 -5q-96 0 -152 53t-56 151q0 95 61.5 153.5t169.5 58.5q112 0 176 -68
t64 -196q0 -5 -0.5 -17t-0.5 -18q65 19 65 98v137q-48 68 -48 130q0 64 43.5 103.5t126.5 39.5q14 0 50 -4v-121q-16 2 -22 2q-65 0 -65 -50q0 -21 17 -51h273v-112h-189l15 -19q102 -131 102 -269zM616 131q58 0 87.5 40.5t29.5 99.5q0 110 -56 208v-26q0 -81 -48 -129.5
t-129 -48.5h-4v-1q0 -65 31.5 -104t88.5 -39z" />
    <glyph glyph-name="bnN_TTHA" horiz-adv-x="807" 
d="M757 242q0 -119 -67.5 -190t-186.5 -71q-114 0 -184.5 67t-70.5 179q0 36 4 75h89q-42 77 -103 77q-68 0 -68 -74q0 -16 2 -40h-138q-4 21 -4 48q0 79 51.5 134t138.5 55q160 0 226 -145q8 22 8 48v154h-474v112h445q-19 41 -19 81q0 64 43.5 103.5t126.5 39.5
q14 0 50 -4v-121q-16 2 -22 2q-65 0 -65 -50q0 -17 21 -51h267v-112h-200l28 -49q37 -63 52 -91t32.5 -79.5t17.5 -97.5zM503 101q60 0 89.5 39t29.5 102q0 112 -59 212q3 -42 3 -81q0 -81 -48 -129.5t-129 -48.5h-2q13 -94 116 -94z" />
    <glyph glyph-name="bnSS_TTHA" horiz-adv-x="707" 
d="M652 257q0 -115 -68.5 -185.5t-183.5 -70.5q-116 0 -186.5 66.5t-70.5 183.5q0 17 1 23q-99 55 -99 178q0 62 31 107h-96v112h320q-19 41 -19 81q0 64 43.5 103.5t126.5 39.5q14 0 50 -4v-121q-16 2 -22 2q-65 0 -65 -50q0 -21 17 -51h296v-112h-212l15 -19
q122 -157 122 -283zM400 121q59 0 88 37.5t29 98.5q0 59 -26 124q-33 -141 -201 -141h-7q2 -59 33.5 -89t83.5 -30zM290 559q-38 0 -64 -16l170 -123q4 12 4 32q0 51 -30 79t-80 28zM180 452q0 -52 30 -80t80 -28q41 0 68 18l-175 121q-3 -13 -3 -31z" />
    <glyph glyph-name="bnDD_DDA" horiz-adv-x="1142" 
d="M1092 252q0 -116 -75.5 -189.5t-203.5 -73.5q-93 0 -167 36.5t-115 106.5q-70 -53 -178 -53q-144 0 -230.5 86t-86.5 246q0 49 4 85h138q-4 -36 -4 -79q0 -110 47.5 -164t131.5 -54q70 0 108 35.5t41 96.5q-41 -19 -89 -19q-82 0 -125 44t-43 127v76h-265v112h1182v-112
h-317v-164q0 -53 54 -53q56 0 164 59q29 -71 29 -149zM632 342q0 -41 -11 -82q20 -70 72 -110.5t120 -40.5q70 0 108 35.5t41 96.5q-41 -19 -89 -19q-82 0 -125 44t-43 127v166h-320v-74q0 -53 54 -53q56 0 164 59q29 -71 29 -149z" />
    <glyph glyph-name="bnNN_DDA" horiz-adv-x="724" 
d="M674 172q0 -89 -77 -140.5t-204 -51.5q-70 0 -128.5 15t-107.5 47.5t-77 90t-28 134.5h140q0 -167 201 -167q69 0 105 23.5t36 61.5q0 71 -97 71h-45v118h23q52 0 81 26t29 77q0 50 -42 73l-52 -81h-99q-2 97 -78 97q-31 0 -49 -18.5t-18 -49.5q0 -34 19 -51t50 -17
q25 0 49 4v-115q-35 -7 -66 -7q-85 0 -138.5 50t-53.5 136q0 79 52.5 131t131.5 52q113 0 155 -73l44 71q103 0 169 -60.5t66 -143.5q0 -60 -34 -101t-93 -54q65 -8 100.5 -46t35.5 -102z" />
    <glyph glyph-name="bnN_DDA" horiz-adv-x="754" 
d="M724 252q0 -121 -79 -199t-214 -78q-141 0 -223 71.5t-82 189.5h141q0 -67 47 -104t117 -37q78 0 120.5 39.5t42.5 112.5q-57 -25 -114 -25q-96 0 -136 70q-50 82 -118 82q-63 0 -63 -63q0 -19 3 -37h-139q-4 21 -4 48q0 78 47.5 126.5t135.5 48.5q67 0 115 -40v102h-341
v112h794v-112h-313v-164q0 -53 54 -53q56 0 180 62q29 -71 29 -152z" />
    <glyph glyph-name="bnB_DDA" horiz-adv-x="754" 
d="M714 179q0 -119 -80 -192t-217 -73q-141 0 -221 71t-80 190h141q0 -68 44.5 -104.5t115.5 -36.5q159 0 167 130q-42 -21 -101 -21q-60 0 -97 25l-318 106v128q103 84 252 127v30h-340v112h794v-112h-323v-243q0 -53 54 -53q56 0 180 62q29 -71 29 -146zM319 364v50
q-65 -24 -128 -65l136 -50q-8 30 -8 65z" />
    <glyph glyph-name="bnL_DDA" horiz-adv-x="987" 
d="M957 232q0 -121 -79 -199t-214 -78q-141 0 -223 71.5t-82 189.5h141q0 -67 47 -104t117 -37q78 0 120.5 39.5t42.5 112.5q-57 -25 -114 -25q-119 0 -150 103q-18 68 -63 68q-57 0 -57 -87v-14h-143v21q0 80 -60 80q-30 0 -45.5 -21.5t-15.5 -54.5q0 -79 76 -79q17 0 40 3
v-117q-27 -4 -56 -4q-92 0 -146 54t-54 145q0 85 49.5 138t138.5 53q60 0 97.5 -25.5t46.5 -63.5q10 38 37.5 63t74.5 25q46 0 71 -27v97h-574v112h1027v-112h-313v-184q0 -53 54 -53q56 0 180 62q29 -71 29 -152z" />
    <glyph glyph-name="bnNN_DDHA" horiz-adv-x="903" 
d="M870 262q0 -106 -74.5 -189t-195.5 -83q-81 0 -139 47t-58 126v246q0 68 -33.5 110t-97.5 42q-43 0 -67.5 -24t-24.5 -63q0 -40 23.5 -59.5t61.5 -19.5q25 0 49 4v-122q-35 -7 -66 -7q-96 0 -152 53t-56 151q0 92 56.5 149.5t144.5 57.5q111 0 162 -79v69h520v-112h-380
v-396q0 -25 16 -39t41 -14q59 0 94.5 47.5t35.5 104.5q0 81 -85 81q-22 0 -42 -4v122q31 7 63 7q97 0 150.5 -56t53.5 -150z" />
    <glyph glyph-name="bnN_DDHA" horiz-adv-x="887" 
d="M27 295q0 79 49 134t136 55q116 0 175 -91v166h-407v112h927v-112h-380v-396q0 -25 16 -39t41 -14q59 0 94.5 47.5t35.5 104.5q0 81 -85 81q-22 0 -42 -4v122q31 7 63 7q97 0 150.5 -56t53.5 -150q0 -106 -74.5 -189t-195.5 -83q-81 0 -139 47t-58 126v7
q0 74 -37.5 132.5t-109.5 58.5q-37 0 -55 -22t-18 -58q0 -28 5 -55h-136q-9 38 -9 69z" />
    <glyph glyph-name="bnB_DDHA" horiz-adv-x="805" 
d="M772 262q0 -106 -74.5 -189t-195.5 -83q-67 0 -120 33.5t-70 91.5l-272 125v135q124 101 265 137v47h-325v112h845v-112h-380v-396q0 -25 16 -39t41 -14q59 0 94.5 47.5t35.5 104.5q0 81 -85 81q-22 0 -42 -4v122q31 7 63 7q97 0 150.5 -56t53.5 -150zM305 245v148
q-81 -27 -149 -77z" />
    <glyph glyph-name="bnNN_NNA" horiz-adv-x="574" 
d="M509 -82h-140v130q0 62 -30 98t-83 36q-35 0 -55.5 -18t-20.5 -50q0 -62 74 -62q15 0 37 2v-118q-24 -4 -53 -4q-86 0 -139.5 47t-53.5 135q0 79 50 131t131 52q98 0 143 -64v199q0 62 -30 98t-83 36q-35 0 -55.5 -18t-20.5 -50q0 -62 74 -62q15 0 37 2v-118
q-24 -4 -53 -4q-86 0 -139.5 47t-53.5 135q0 79 50 131t131 52q98 0 143 -64v134h140v-80h85v-112h-85v-641z" />
    <glyph glyph-name="bnH_NNA" horiz-adv-x="480" 
d="M223 -198q-14 -2 -39 -2q-68 0 -111 37.5t-43 104.5q0 63 42.5 103t109.5 40q65 0 99 -36v54l-202 63v105h95q54 0 87 22t33 66q0 55 -53 55q-50 0 -50 -53q0 -21 3 -33h-126q-6 24 -6 49q0 62 48.5 102t126.5 40q85 0 137 -44.5t52 -113.5q0 -115 -126 -151l158 -49
v-114l-50 16v-272h-127v110q0 40 -21 61t-59 21q-54 0 -54 -42q0 -20 15 -30t38 -10q15 0 23 1v-100zM500 559h-520v112h520v-112z" />
    <glyph glyph-name="bnSS_NNA" horiz-adv-x="897" 
d="M643 168q35 0 56.5 15t21.5 43q0 60 -77 60h-39v118h39q77 0 77 60q0 28 -21.5 43t-56.5 15q-54 0 -87 -36t-33 -97v-88q0 -61 33 -97t87 -36zM851 216q0 -65 -51 -114.5t-138 -49.5q-86 0 -139 53v-105h-140l-348 142l1 1v132l144 103l-141 77v104h-59v112h543v-86
q53 53 139 53q87 0 138 -49.5t51 -114.5q0 -48 -26 -81t-65 -48q39 -15 65 -48t26 -81zM313 441l70 -42v160h-270zM383 134v134l-83 45l-121 -91z" />
    <glyph glyph-name="bnK_SS_NNA" horiz-adv-x="1017" 
d="M546 434q19 0 40 3v122h-95v-74q0 -51 55 -51zM528 -198q-14 -2 -39 -2q-80 0 -122 40.5t-42 110.5q0 60 41 101t108 40q73 0 112 -45v62q-146 63 -308 63q-42 0 -66.5 -19.5t-24.5 -55.5q0 -13 1 -19h-131q-5 28 -5 47q0 55 35.5 94.5t98.5 54.5q6 9 6 27q0 57 -128 57
h-19v112h28q86 0 86 57q0 17 -6 32h-173v112h1057v-112h-318v-101q24 2 35 2q98 0 160.5 -46.5t62.5 -131.5q0 -84 -46 -133t-129 -49q-19 0 -26 1v120h10q63 0 63 61q0 38 -25 53t-72 15q-11 0 -33 -2v-547h-133v103q0 42 -20 67t-58 25q-26 0 -41.5 -13.5t-15.5 -37.5
q0 -46 54 -46q15 0 23 1v-98zM325 318q0 -21 -6 -39q167 -10 267 -58v106q-22 -3 -42 -3q-86 0 -136.5 41t-50.5 119v75h-71q5 -18 5 -34q0 -46 -29.5 -70.5t-76.5 -29.5q65 -4 102.5 -32.5t37.5 -74.5z" />
    <glyph glyph-name="bnK_TA" horiz-adv-x="877" 
d="M570 90q0 -77 -61 -118.5t-154 -41.5q-135 0 -221 79t-86 234q0 6 0.5 18t0.5 17h135v-27q0 -114 42.5 -160t125.5 -46q39 0 63 15t24 45q0 57 -106 57h-39v107h21q43 0 71.5 24t28.5 62q0 56 -54 56q-24 0 -37.5 -15t-13.5 -37q0 -24 8 -46h-126q-11 29 -11 64
q0 62 49 102t126 40q116 0 168 -77q46 39 116 39q87 0 144.5 -55.5t57.5 -137.5q0 -90 -50 -141t-143 -51q-25 0 -46 3v117q8 -1 32 -1q34 0 53 19.5t19 56.5q0 32 -20.5 51t-55.5 19t-57 -18t-40 -55q-30 -56 -99 -68q135 -14 135 -130zM897 559h-917v112h917v-112z" />
    <glyph glyph-name="bnT_TA" horiz-adv-x="612" 
d="M570 90q0 -77 -61 -118.5t-154 -41.5q-135 0 -221 79t-86 234q0 6 0.5 18t0.5 17h135v-27q0 -114 42.5 -160t125.5 -46q39 0 63 15t24 45q0 57 -106 57h-39v107h21q43 0 71.5 24t28.5 62q0 56 -54 56q-24 0 -37.5 -15t-13.5 -37q0 -24 8 -46h-126q-11 29 -11 64
q0 62 49 102t126 40q88 0 141 -47t53 -117q0 -52 -31 -89t-84 -46q135 -14 135 -130zM632 559h-652v112h652v-112z" />
    <glyph glyph-name="bnN_TA" horiz-adv-x="635" 
d="M592 169q0 -107 -72.5 -166.5t-190.5 -59.5q-130 0 -206.5 78.5t-76.5 217.5l132 1q0 -188 151 -188q63 0 96.5 32t33.5 88q0 67 -52 67q-46 0 -46 -54q0 -23 10 -55h-114q-15 33 -15 73q0 57 31 92.5t85 46.5q-31 8 -79.5 34t-71.5 26q-36 0 -36 -44q0 -17 4 -32h-127
q-8 27 -8 62q0 55 33.5 93t98.5 38q47 0 112.5 -33.5t89.5 -33.5q54 0 54 61q0 27 -4 46h-444v112h675v-112h-99q7 -28 7 -69q0 -54 -29 -94.5t-81 -53.5q66 -13 102.5 -58.5t36.5 -114.5z" />
    <glyph glyph-name="bnP_TA" horiz-adv-x="667" 
d="M623 133q0 -106 -72 -166t-190 -60q-125 0 -203.5 63.5t-78.5 186.5h132q0 -74 36.5 -107.5t112.5 -33.5q63 0 96.5 32t33.5 88q0 67 -52 67q-46 0 -46 -54q0 -23 10 -55h-114q-15 33 -15 73q0 63 37.5 100t101.5 42v65l-372 -179v136l92 43q-33 53 -92 71v17
q0 88 55.5 153.5t163.5 65.5q106 0 153 -77v147h140v-80h135v-112h-135v-280q71 -48 71 -146zM172 494q44 -21 72 -69l154 71q-30 75 -115 75q-41 0 -71.5 -21t-39.5 -56z" />
    <glyph glyph-name="bnM_TA" horiz-adv-x="645" 
d="M591 166q0 -106 -72 -166t-190 -60q-136 0 -209 78t-73 210h132q0 -179 149 -179q63 0 96.5 32t33.5 88q0 67 -52 67q-46 0 -46 -54q0 -23 10 -55h-114q-15 33 -15 73q0 58 32 94t88 45q-31 4 -82 18t-74 14q-38 0 -38 -45q0 -7 2 -17h-139q-4 26 -4 38q0 91 77 124
q-14 60 -54 88h-69v112h685v-112h-81q7 -28 7 -69q0 -59 -35 -100.5t-104 -50.5q66 -13 102.5 -58.5t36.5 -114.5zM402 452q54 0 54 61q0 27 -4 46h-246q17 -31 23 -76q26 -4 86 -17.5t87 -13.5z" />
    <glyph glyph-name="bnL_TA" horiz-adv-x="812" 
d="M773 83q0 -106 -72 -166t-190 -60q-125 0 -203.5 63.5t-78.5 186.5h132q0 -74 36.5 -107.5t112.5 -33.5q63 0 96.5 32t33.5 88q0 67 -52 67q-46 0 -46 -54q0 -23 10 -55h-114q-15 33 -15 73q0 59 32.5 95t90.5 45v52q0 74 -57 74q-58 0 -58 -87v-9h-137v16q0 80 -59 80
q-29 0 -44.5 -19.5t-15.5 -49.5q0 -66 70 -66q15 0 33 2v-112q-23 -3 -48 -3q-89 0 -139.5 46t-50.5 135q0 76 47 130t131 54q60 0 96.5 -25.5t47.5 -63.5q10 38 37.5 63t74.5 25t72 -28v88h-566v112h852v-112h-160v-315q49 -19 75 -61t26 -100z" />
    <glyph glyph-name="bnSH_TA" horiz-adv-x="752" 
d="M712 115q0 -107 -72.5 -166.5t-190.5 -59.5q-131 0 -207 76.5t-76 214.5q0 28 2 42h132q-2 -28 -2 -41q0 -183 151 -183q63 0 96.5 32t33.5 88q0 67 -52 67q-46 0 -46 -54q0 -23 10 -55h-114q-15 33 -15 73q0 55 29 90.5t81 47.5v158q0 116 -94 116q-37 0 -60 -20
t-23 -59q0 -78 85 -78q23 0 32 1v-122q-21 -4 -49 -4q-94 0 -139 57q-47 -57 -133 -57q-31 0 -66 7v122q24 -4 49 -4q85 0 85 78q0 39 -25 58t-67 19h-87v112h108q85 0 135 -58q49 68 135 68q76 0 114 -46v116h140v-80h160v-112h-160v-283q100 -41 100 -161z" />
    <glyph glyph-name="bnS_TA" horiz-adv-x="645" 
d="M412 446q54 0 54 67q0 21 -5 46h-120q2 -113 71 -113zM-20 671h685v-112h-71q7 -27 7 -65q0 -54 -33 -94.5t-94 -53.5q61 -15 94.5 -60.5t33.5 -111.5q0 -104 -70.5 -164.5t-186.5 -60.5q-131 0 -212 82t-81 226q0 21 1 32h138q-1 -13 -1 -37q0 -194 155 -194q63 0 95 32
t32 88q0 67 -52 67q-46 0 -46 -54q0 -23 10 -55h-114q-15 33 -15 73q0 55 28.5 90t78.5 47q-69 16 -96 72q-31 -77 -131 -77q-52 0 -102 25v116q53 -21 95 -21q79 0 79 98h-227v112z" />
    <glyph glyph-name="bnT_THA" horiz-adv-x="818" 
d="M753 0h-135v1l-1 -1l-551 192v112h95q274 0 274 186q0 80 -38 80q-37 0 -37 -70v-45h-118v46q0 65 -36 65q-41 0 -41 -71q0 -43 16 -98h-127q-19 54 -19 105q0 76 39.5 127.5t115.5 51.5q71 0 106 -52q36 53 103 53q80 0 120.5 -56t40.5 -136q0 -107 -67 -174t-179 -92
l304 -109v636h135v-80h85v-112h-85v-559z" />
    <glyph glyph-name="bnN_THA" horiz-adv-x="597" 
d="M165 326h-127q-8 27 -8 62q0 55 33.5 93t98.5 38q47 0 112.5 -33.5t89.5 -33.5q54 0 54 61q0 27 -4 46h-434v112h637v-112h-71q7 -28 7 -69q0 -60 -35 -102.5t-97 -49.5q45 -19 70 -56.5t25 -86.5q0 -110 -115 -140l115 -38v-113l-329 107v104h85q122 0 122 80
q0 26 -14 41t-41 15q-24 0 -37 -15.5t-13 -40.5q0 -21 3 -33h-116q-6 24 -6 49q0 59 38.5 97.5t106.5 43.5q-16 7 -41 21t-43 21.5t-34 7.5q-36 0 -36 -44q0 -17 4 -32z" />
    <glyph glyph-name="bnM_THA" horiz-adv-x="615" 
d="M372 452q54 0 54 61q0 27 -4 46h-216q17 -31 23 -77q24 -3 70.5 -16.5t72.5 -13.5zM536 17v-113l-329 107v104h85q122 0 122 80q0 26 -14 41t-41 15q-24 0 -37 -15.5t-13 -40.5q0 -21 3 -33h-116q-6 24 -6 49q0 51 29 87t81 49q-12 3 -31.5 10t-34 10.5t-29.5 3.5
q-38 0 -38 -45q0 -7 2 -17h-139q-4 26 -4 38q0 91 77 124q-14 60 -54 88h-69v112h655v-112h-81q7 -28 7 -69q0 -57 -32.5 -97.5t-95.5 -52.5q49 -17 76 -55.5t27 -89.5q0 -110 -115 -140z" />
    <glyph glyph-name="bnS_THA" horiz-adv-x="645" 
d="M412 446q54 0 54 67q0 21 -5 46h-120q2 -113 71 -113zM210 211q0 56 35.5 94t97.5 46q-55 19 -77 67q-31 -77 -131 -77q-52 0 -102 25v116q53 -21 95 -21q79 0 79 98h-227v112h685v-112h-71q7 -27 7 -65q0 -60 -39.5 -102t-112.5 -50q51 -17 79 -56t28 -91
q0 -110 -115 -140l115 -38v-113l-329 107v104h85q122 0 122 80q0 26 -14 41t-41 15q-24 0 -37 -15.5t-13 -40.5q0 -21 3 -33h-116q-6 24 -6 49z" />
    <glyph glyph-name="bnG_DA" horiz-adv-x="903" 
d="M838 0h-135v295q-87 -82 -151 -167h-135v281q0 75 -28.5 113.5t-93.5 38.5q-97 0 -113 -85q80 -4 129.5 -46.5t50.5 -122.5q-1 -91 -64.5 -137.5t-170.5 -46.5q-43 0 -86 9v115q36 -4 86 -4q95 0 95 63t-95 63h-83v68q0 104 61.5 174t166.5 70q102 0 145 -65v55h506v-112
h-371v-247q73 83 151 136h135v-448z" />
    <glyph glyph-name="bnD_DA" horiz-adv-x="823" 
d="M843 559h-641v-206q75 85 148 135h135v-217q76 87 148 137h135v-408h-135v254q-88 -82 -148 -166l-1 1h-134v247q-78 -73 -148 -168h-135v391h-67v112h843v-112z" />
    <glyph glyph-name="bnN_DA" horiz-adv-x="763" 
d="M708 0h-135v235q-91 -86 -148 -164l-1 1h-134v278q-13 6 -48.5 29t-53.5 23q-36 0 -36 -44q0 -17 4 -32h-118q-8 27 -8 62q0 55 33.5 93t98.5 38q29 0 54.5 -10.5t41.5 -23t35 -23t36 -10.5q49 0 49 61q0 27 -4 46h-394v112h803v-112h-277q7 -28 7 -69q0 -48 -23 -85.5
t-65 -55.5v-95q50 56 148 137h135v-391z" />
    <glyph glyph-name="bnB_DA" horiz-adv-x="773" 
d="M793 559h-358v-247q73 83 151 136h135v-448h-135v295q-90 -83 -151 -167h-135l-260 126v128q119 96 260 133v44h-320v112h813v-112zM300 250v148q-79 -29 -142 -74z" />
    <glyph glyph-name="bnM_DA" horiz-adv-x="803" 
d="M169 309h-133q-4 20 -4 38q0 91 71 124q-12 59 -54 88h-69v112h843v-112h-289q7 -28 7 -69q0 -106 -96 -141v-96q93 101 168 138h135v-391h-135v246q-103 -84 -168 -175l-1 1h-134v270q-11 3 -46.5 16t-58.5 13q-38 0 -38 -45q0 -7 2 -17zM352 452q54 0 54 61q0 27 -4 46
h-196q19 -37 23 -79q8 -2 52.5 -15t70.5 -13z" />
    <glyph glyph-name="bnL_DA" horiz-adv-x="1039" 
d="M984 0h-135v303q-103 -84 -168 -175h-135v181q0 74 -57 74q-58 0 -58 -87v-9h-137v16q0 80 -61 80q-30 0 -46.5 -21t-16.5 -53q0 -77 82 -77q15 0 33 2v-117q-23 -3 -48 -3q-92 0 -147 52t-55 143q0 79 49 135t134 56q60 0 97.5 -25.5t46.5 -63.5q10 38 37.5 63t74.5 25
t72 -28v88h-566v112h1079v-112h-378v-249q93 101 168 138h135v-448z" />
    <glyph glyph-name="bnG_DHA" horiz-adv-x="806" 
d="M144 -30v128q122 67 260 121v190q0 75 -28.5 113.5t-93.5 38.5q-80 0 -100 -63q76 -6 121 -42t46 -106q-1 -84 -62.5 -126.5t-168.5 -42.5q-38 0 -75 6v112q33 -3 71 -3q95 0 95 53t-95 53h-74v35q0 105 57.5 174.5t161.5 69.5q102 0 145 -65v135h140v-80h282v-112h-282
v-291q38 12 90 25h126v-357h-126v233q-30 -9 -90 -29v-277h-140zM404 -22v112q-78 -32 -126 -55z" />
    <glyph glyph-name="bnN_DHA" horiz-adv-x="769" 
d="M202 501q109 0 165 -83v141h-387v112h804v-112h-287v-202q28 9 90 26h126v-357h-126v233q-10 -3 -28.5 -9t-33.5 -11t-28 -10v-276h-130l-259 107l-1 -1v128q128 68 235 112q-43 79 -110 79q-34 0 -49.5 -24t-15.5 -56q0 -11 2 -35h-137q-5 27 -5 49q0 81 44.5 135
t130.5 54zM367 68v112q-70 -28 -126 -55z" />
    <glyph glyph-name="bnD_DHA" horiz-adv-x="731" 
d="M182 228h-135v331h-67v112h771v-112h-569v-172q68 70 149 101h135v-186q71 22 97 28h126v-357h-126v233q-43 -13 -97 -32v-274h-135l-260 107v128q129 65 260 117v102q-81 -45 -149 -126zM331 17v106l-123 -51z" />
    <glyph glyph-name="bnB_DHA" horiz-adv-x="719" 
d="M445 -72h-135l-260 107v118q54 30 124 62l-128 59v128q122 77 264 123v34h-330v112h759v-112h-294v-238q56 17 97 27h126v-357h-126v240q-54 -15 -97 -30v-273zM310 273v134q-76 -30 -139 -66l138 -68h1zM310 45v108q-70 -27 -126 -52z" />
    <glyph glyph-name="bnL_DHA" horiz-adv-x="945" 
d="M289 131q-23 -3 -48 -3q-89 0 -142 48t-53 137q0 76 46.5 131.5t129.5 55.5q60 0 95.5 -25.5t44.5 -63.5q10 36 42.5 62t80.5 26q34 0 51 -14v74h-556v112h985v-112h-294v-296q56 17 97 27h126v-357h-126v233q-75 -23 -97 -31v-275h-135l-260 107v128q111 61 260 120v94
q0 74 -52 74q-29 0 -41 -18.5t-12 -61.5v-14h-137v14q0 80 -58 80q-27 0 -41 -19t-14 -51q0 -33 19.5 -50t49.5 -17q21 0 39 2v-117zM536 -23v109q-56 -21 -126 -53z" />
    <glyph glyph-name="bnK_NA" horiz-adv-x="780" 
d="M475 -108h-135q-14 40 -49 73.5t-83 33.5q-52 0 -52 -68q0 -17 1 -23h-138q-2 26 -2 40q0 73 43 120.5t122 47.5q97 0 158 -61v74l-283 120v134q71 57 133 88t150 48v40h-360v112h820v-112h-325v-40q68 -2 127.5 -24t99 -68t39.5 -107q0 -81 -49 -125.5t-136 -44.5
q-14 0 -21 1v116h10q61 0 61 53q0 71 -131 78v-506zM340 255v140q-82 -22 -150 -73z" />
    <glyph glyph-name="bnG_NA" horiz-adv-x="609" 
d="M544 -68h-140q-14 40 -49 73.5t-83 33.5q-52 0 -52 -68q0 -17 1 -23h-138q-2 26 -2 40q0 73 43 120.5t122 47.5q97 0 158 -61v314q0 75 -28.5 113.5t-93.5 38.5q-80 0 -100 -63q76 -6 121 -42t46 -106q-1 -84 -62.5 -126.5t-168.5 -42.5q-38 0 -75 6v112q33 -3 71 -3
q95 0 95 53t-95 53h-74v35q0 105 57.5 174.5t161.5 69.5q102 0 145 -65v135h140v-80h85v-112h-85v-627z" />
    <glyph glyph-name="bnGH_NA" horiz-adv-x="598" 
d="M329 345l-102 -50l172 -46v310h-131q-84 0 -84 -58q0 -51 78 -51q33 0 67 8v-113zM533 -115h-134q-14 40 -49 73.5t-83 33.5q-52 0 -52 -68q0 -17 1 -23h-138q-2 26 -2 40q0 73 43 120.5t122 47.5q97 0 158 -61v82l-348 91l1 1v110q86 42 106 52q-123 18 -123 102
q0 45 40 73h-95v112h638v-112h-85v-674z" />
    <glyph glyph-name="bnC_NA" horiz-adv-x="535" 
d="M276 232q33 0 53 24.5t20 56.5q0 29 -18 42t-59 23l-40 10v-109q0 -47 44 -47zM457 -148h-134q-39 107 -112 107q-52 0 -52 -68q0 -17 1 -23h-138q-2 26 -2 40q0 73 43 120.5t122 47.5q84 0 138 -54v99q-24 -6 -51 -6q-80 0 -127.5 42t-47.5 122v280h-117v112h575v-112
h-323v-44l63 -14q99 -23 146.5 -64.5t47.5 -123.5q0 -54 -32 -102v-359z" />
    <glyph glyph-name="bnD_NA" horiz-adv-x="555" 
d="M490 -65h-135q-14 40 -49 73.5t-83 33.5q-52 0 -52 -68q0 -17 1 -23h-138q-2 26 -2 40q0 73 43 120.5t122 47.5q97 0 158 -61v249q-96 -67 -168 -149h-135v361h-72v112h595v-112h-388v-191q77 76 168 120h135v-553z" />
    <glyph glyph-name="bnDH_NA" horiz-adv-x="600" 
d="M533 -115h-134q-14 40 -49 73.5t-83 33.5q-52 0 -52 -68q0 -17 1 -23h-138q-2 26 -2 40q0 73 43 120.5t122 47.5q97 0 158 -61v82l-348 91l1 1v110q95 50 107 56q-58 15 -91 49.5t-33 87.5q0 75 55.5 115.5t147.5 40.5q40 0 65 -4v-112q-20 2 -35 2q-84 0 -84 -60
q0 -52 78 -52q34 0 70 16q3 1 29 12t38 16v172h219v-112h-85v-674zM399 249v131l-172 -85z" />
    <glyph glyph-name="bnT_NA" horiz-adv-x="645" 
d="M526 -155h-134q-14 40 -49 73.5t-83 33.5q-52 0 -52 -68q0 -17 1 -23h-138q-2 26 -2 40q0 73 43 120.5t122 47.5q97 0 158 -61v104q-30 -6 -63 -6q-133 0 -210 67t-77 203q0 42 6 88h135q-7 -46 -7 -90q0 -148 149 -148q63 0 99 31.5t36 85.5q0 64 -50 64
q-22 0 -34 -16.5t-12 -42.5q0 -31 8 -53h-121q-12 30 -12 68q0 73 44 114.5t121 41.5q88 0 139.5 -49.5t51.5 -129.5q0 -100 -69 -164v-331zM665 559h-685v112h685v-112z" />
    <glyph glyph-name="bnN_NA" horiz-adv-x="598" 
d="M533 -56h-140v1l-1 -1q-14 40 -49 73.5t-83 33.5q-52 0 -52 -68q0 -17 1 -23h-138q-2 26 -2 40q0 73 43 120.5t122 47.5q99 0 159 -62v34q0 76 -46.5 138.5t-111.5 62.5q-34 0 -51 -22t-17 -58q0 -28 5 -55h-136q-9 38 -9 69q0 79 49 134t136 55q120 0 181 -82v177h-413
v112h638v-112h-85v-615z" />
    <glyph glyph-name="bnP_NA" horiz-adv-x="617" 
d="M172 494q44 -21 72 -69l154 71q-30 75 -115 75q-41 0 -71.5 -21t-39.5 -56zM552 751v-80h85v-112h-85v-559h-140q-14 40 -49 73.5t-83 33.5q-52 0 -52 -68q0 -17 1 -23h-138q-2 26 -2 40q0 73 43 120.5t122 47.5q97 0 158 -61v211l-372 -179v136l92 43q-33 53 -92 71v17
q0 88 55.5 153.5t163.5 65.5q106 0 153 -77v147h140z" />
    <glyph glyph-name="bnM_NA" horiz-adv-x="615" 
d="M393 442q59 0 59 67q0 21 -9 50h-237q17 -33 23 -78q18 -3 72.5 -21t91.5 -18zM507 0h-134q-17 47 -48.5 82t-73.5 35q-52 0 -52 -68q0 -17 1 -23h-138q-2 26 -2 40q0 73 43 120.5t122 47.5q88 0 148 -65v160q-32 5 -86 23.5t-78 18.5q-42 0 -42 -45q0 -7 2 -17h-139
q-4 26 -4 38q0 91 77 124q-14 60 -54 88h-69v112h655v-112h-61q11 -33 11 -69q0 -104 -78 -144v-346z" />
    <glyph glyph-name="bnSH_NA" horiz-adv-x="677" 
d="M612 0h-140q-17 47 -48.5 82t-73.5 35q-52 0 -52 -68q0 -17 1 -23h-138q-2 26 -2 40q0 73 43 120.5t122 47.5q88 0 148 -65v276q0 116 -94 116q-39 0 -61 -25t-22 -66q0 -44 23.5 -65t61.5 -21q23 0 32 1v-122q-21 -4 -49 -4q-95 0 -139 57q-47 -57 -133 -57q-31 0 -66 7
v122q24 -4 49 -4q85 0 85 86q0 41 -24.5 65t-67.5 24h-87v112h108q86 0 135 -61q47 71 135 71q76 0 114 -46v116h140v-80h85v-112h-85v-559z" />
    <glyph glyph-name="bnS_NA" horiz-adv-x="635" 
d="M412 446q54 0 54 67q0 21 -5 46h-120q2 -113 71 -113zM60 66q0 73 43 120.5t122 47.5q88 0 148 -65v170q-77 16 -107 79q-31 -77 -131 -77q-52 0 -102 25v116q53 -21 95 -21q79 0 79 98h-227v112h675v-112h-61q7 -27 7 -65q0 -48 -24 -86.5t-70 -57.5v-350h-134
q-17 47 -48.5 82t-73.5 35q-52 0 -52 -68q0 -17 1 -23h-138q-2 26 -2 40z" />
    <glyph glyph-name="bnH_NA" horiz-adv-x="701" 
d="M395 -9h-176l-166 135v110h100q128 0 128 100q0 33 -15.5 52t-44.5 19q-27 0 -41.5 -17t-14.5 -45q0 -26 5 -44h-127q-9 29 -9 61q0 70 49 113.5t133 43.5q62 0 108 -25.5t70 -68.5q37 49 102 49q77 0 121.5 -49.5t44.5 -120.5q0 -77 -42 -122.5t-123 -45.5q-32 0 -50 5
v106q16 -3 39 -3q54 0 54 57q0 25 -13.5 40.5t-39.5 15.5q-28 0 -47 -24t-37 -70v1q-40 -102 -193 -119l185 -150v-4zM721 559h-741v112h741v-112z" />
    <glyph glyph-name="bnK_SS_NA" horiz-adv-x="1017" 
d="M546 434q19 0 40 3v122h-95v-74q0 -51 55 -51zM325 318q0 -21 -6 -39q167 -10 267 -58v106q-22 -3 -42 -3q-86 0 -136.5 41t-50.5 119v75h-71q5 -18 5 -34q0 -46 -29.5 -70.5t-76.5 -29.5q65 -4 102.5 -32.5t37.5 -74.5zM719 -119h-133v2q-17 32 -54.5 61t-76.5 29
q-27 0 -39.5 -18t-12.5 -45q0 -17 1 -23h-138q-2 26 -2 40q0 73 42.5 118t122.5 45q93 0 157 -60v79q-146 63 -308 63q-42 0 -66.5 -19.5t-24.5 -55.5q0 -13 1 -19h-131q-5 28 -5 47q0 55 35.5 94.5t98.5 54.5q6 9 6 27q0 57 -128 57h-19v112h28q86 0 86 57q0 17 -6 32h-173
v112h1057v-112h-318v-101q24 2 35 2q98 0 160.5 -46.5t62.5 -131.5q0 -84 -46 -133t-129 -49q-19 0 -26 1v120h10q63 0 63 61q0 38 -25 53t-72 15q-11 0 -33 -2v-467z" />
    <glyph glyph-name="bnM_PA" horiz-adv-x="1037" 
d="M169 309h-139q-4 26 -4 38q0 91 77 124q-14 60 -54 88h-69v112h543q12 -22 18 -34q57 44 138 44q107 0 153 -76v146h140v-80h85v-112h-85v-559h-140v332l-356 -206v144l79 44q-18 30 -41 50q-37 -28 -101 -28q-54 0 -120 17.5t-88 17.5q-38 0 -38 -45q0 -7 2 -17z
M402 452q54 0 54 61q0 27 -4 46h-246q17 -31 23 -76q26 -4 86 -17.5t87 -13.5zM589 451q46 -22 76 -76l160 90q-24 96 -121 96q-50 0 -82.5 -31.5t-32.5 -78.5z" />
    <glyph glyph-name="bnL_PA" horiz-adv-x="733" 
d="M384 252q103 0 149 -73v130q0 74 -52 74q-27 0 -41.5 -21.5t-14.5 -59.5v-8h-137v9q0 80 -59 80q-29 0 -44 -23t-15 -56q0 -77 91 -77q8 0 26 2q44 23 97 23zM308 65q42 -20 68 -63l146 59q-30 81 -118 81q-76 0 -96 -77zM668 -200h-135v145l-357 -149v126l85 34
q-34 44 -85 60v17q0 43 15 83q-72 15 -114 64.5t-42 125.5q0 80 46.5 137t130.5 57q59 0 95.5 -25.5t48.5 -63.5q10 37 38.5 62.5t70.5 25.5q45 0 68 -25v85h-553v112h773v-112h-85v-759z" />
    <glyph glyph-name="bnSS_PA" horiz-adv-x="970" 
d="M275 559q-36 0 -65 -15l170 -123q5 18 5 37q0 50 -31 75.5t-79 25.5zM165 458q0 -51 31 -76.5t79 -25.5q33 0 59 12l-166 116q-3 -12 -3 -26zM522 451q62 -30 89 -107l152 100q-8 54 -39.5 85.5t-86.5 31.5q-50 0 -82.5 -31.5t-32.5 -78.5zM990 559h-85v-559h-140v300
l-342 -233v154l85 56q-10 29 -30 55q-68 -88 -203 -88q-107 0 -176 57.5t-69 156.5q0 55 27 101h-77v112h294h1q103 0 172 -58q63 68 165 68q107 0 153 -76v146h140v-80h85v-112z" />
    <glyph glyph-name="bnS_PA" horiz-adv-x="1046" 
d="M455 559h-119q0 -112 72 -112q28 0 40.5 18t12.5 45q0 28 -6 49zM469 261l95 53q-15 26 -38 47q-44 -34 -114 -34q-56 0 -94.5 25.5t-56.5 65.5q-31 -77 -131 -77q-52 0 -102 25v116q53 -21 95 -21t60.5 24t18.5 74h-222v112h551q12 -22 18 -34q57 44 139 44
q107 0 153 -76v146h140v-80h85v-112h-85v-559h-140v332l-372 -215v144zM598 451q46 -22 76 -76l160 90q-24 96 -121 96q-50 0 -82.5 -31.5t-32.5 -78.5z" />
    <glyph glyph-name="bnP_PA" horiz-adv-x="617" 
d="M40 341l87 40q-31 46 -87 64v17q0 88 55.5 153.5t163.5 65.5q106 0 153 -77v147h140v-80h85v-112h-85v-742h-140v145l-346 -148v123l87 36q-34 46 -87 63v26q0 83 57.5 141.5t148.5 58.5q94 0 140 -72v197l-372 -172v126zM203 85q43 -20 66 -64l132 55q-31 69 -108 69
q-35 0 -59.5 -18t-30.5 -42zM172 494q40 -19 67 -61l156 71q-33 67 -112 67q-41 0 -71.5 -21t-39.5 -56z" />
    <glyph glyph-name="bnM_PHA" horiz-adv-x="1088" 
d="M380 447q25 0 38.5 15.5t13.5 38.5q0 29 -9 58h-217q17 -31 23 -77q24 -4 74 -19.5t77 -15.5zM169 309h-139q-4 26 -4 38q0 91 77 124q-14 60 -54 88h-69v112h1128v-112h-554q11 -33 11 -69q0 -55 -32 -96l54 -36v-114l-109 -82l176 -71v368h133q112 0 191.5 -61
t79.5 -171q0 -94 -50.5 -147t-139.5 -53q-14 0 -21 1v126h10q66 0 66 73q0 48 -35 77t-101 33v-367h-133l-314 114l1 1v126l124 89l-53 31h-10q-48 0 -109 20t-84 20q-42 0 -42 -45q0 -7 2 -17z" />
    <glyph glyph-name="bnS_PHA" horiz-adv-x="1158" 
d="M-20 671h1198v-112h-584q7 -27 7 -65q0 -37 -16 -68l72 -48v-114l-109 -82l176 -71v348h133q112 0 191.5 -61t79.5 -171q0 -94 -50.5 -147t-139.5 -53q-14 0 -21 1v126h10q66 0 66 73q0 48 -35 77t-101 33v-347h-133l-314 114l1 1v126l124 89l-42 25q-37 -13 -77 -13
q-111 0 -150 86q-31 -77 -131 -77q-52 0 -102 25v116q53 -21 95 -21q79 0 79 98h-227v112zM412 446q54 0 54 67q0 21 -5 46h-120q2 -113 71 -113z" />
    <glyph glyph-name="bnL_PHA" horiz-adv-x="1284" 
d="M278 120q-23 -3 -48 -3q-89 0 -142 48t-53 137q0 75 49.5 131t132.5 56q60 0 98 -25.5t47 -63.5q10 38 37.5 63t74.5 25t72 -28v99h-566v112h1324v-112h-623v-203l102 -68v-114l-109 -82l176 -71v438h133q112 0 191.5 -61t79.5 -171q0 -94 -50.5 -147t-139.5 -53
q-14 0 -21 1v126h10q66 0 66 73q0 48 -35 77t-101 33v-437h-133l-314 114l1 1v126l124 89l-115 68q0 74 -57 74q-58 0 -58 -80v-14h-137v14q0 80 -63 80q-28 0 -44.5 -19.5t-16.5 -50.5q0 -33 19.5 -50t49.5 -17q21 0 39 2v-117z" />
    <glyph glyph-name="bnSS_PHA" horiz-adv-x="1097" 
d="M30 452q0 62 31 107h-81v112h1137v-112h-628q31 -45 31 -107q0 -41 -13 -78l89 -66v-114l-109 -82l176 -71v348h133q112 0 191.5 -61t79.5 -171q0 -94 -50.5 -147t-139.5 -53q-14 0 -21 1v126h10q66 0 66 73q0 48 -35 77t-101 33v-347h-133l-314 114l1 1v126l126 91
l-48 32q-62 -34 -153 -34q-110 0 -177.5 50.5t-67.5 151.5zM385 452q0 51 -30 79t-80 28q-41 0 -69 -19l176 -119q3 15 3 31zM275 344q40 0 70 19l-178 115q-2 -16 -2 -26q0 -52 30 -80t80 -28z" />
    <glyph glyph-name="bnD_BHA" horiz-adv-x="641" 
d="M195 208h-135v351h-80v112h681v-112h-466v-180q69 67 156 109h135v-336q-22 2 -40 2q-63 0 -63 -37q0 -35 62 -35q64 0 132 30q14 -45 14 -91q0 -98 -69 -154.5t-184 -56.5q-122 0 -205 76t-83 225q0 11 2 39h134q-2 -34 -2 -46q0 -92 44 -136t117 -44q95 0 118 63
q-26 -8 -56 -8q-75 0 -116 36t-41 100q0 52 27 90t74 52v90q-84 -58 -156 -139z" />
    <glyph glyph-name="bnM_BHA" horiz-adv-x="633" 
d="M578 112q0 -98 -69 -154.5t-184 -56.5q-122 0 -205 76t-83 225q0 11 2 39h134q-2 -34 -2 -46q0 -92 44 -136t117 -44q95 0 118 63q-26 -8 -56 -8q-75 0 -116 36t-41 100q0 47 22.5 83t61.5 53q-11 3 -47 16t-59 13q-38 0 -38 -45q0 -7 2 -17h-133q-4 20 -4 38
q0 91 71 124q-12 59 -54 88h-79v112h673v-112h-109q7 -28 7 -69q0 -99 -85 -137l15 -2.5t12 -1.5v-108q-26 4 -60 4q-63 0 -63 -37q0 -35 62 -35q64 0 132 30q14 -45 14 -91zM362 452q54 0 54 61q0 27 -4 46h-196q19 -37 23 -79q8 -2 52.5 -15t70.5 -13z" />
    <glyph glyph-name="bnB_BHA" horiz-adv-x="595" 
d="M565 21q0 -98 -69 -154.5t-184 -56.5q-122 0 -205 76t-83 225q0 11 2 39h134q-2 -34 -2 -46q0 -92 44 -136t117 -44q95 0 118 63q-26 -8 -56 -8q-75 0 -116 36t-41 100q0 36 14 66l-203 83v128q120 97 260 124v43h-315v112h635v-112h-190v-294q38 -3 55 -7v-108
q-26 4 -60 4q-63 0 -63 -37q0 -35 62 -35q64 0 132 30q14 -45 14 -91zM295 275v124q-81 -22 -140 -63z" />
    <glyph glyph-name="bnL_BHA" horiz-adv-x="822" 
d="M209 89h134q9 -137 156 -137q96 0 120 63q-26 -8 -56 -8q-75 0 -116 36t-41 100q0 60 35.5 100.5t94.5 48.5v17q0 74 -52 74q-29 0 -41 -18.5t-12 -61.5v-14h-137v14q0 80 -58 80q-27 0 -41 -19t-14 -51q0 -33 19.5 -50t49.5 -17q21 0 39 2v-117q-23 -3 -48 -3
q-89 0 -142 48t-53 137q0 76 46.5 131.5t129.5 55.5q60 0 95.5 -25.5t44.5 -63.5q10 36 42.5 62t80.5 26q34 0 51 -14v74h-556v112h862v-112h-180v-381q-26 4 -60 4q-63 0 -63 -37q0 -35 62 -35q64 0 132 30q14 -45 14 -91q0 -97 -69.5 -154t-185.5 -57q-122 0 -200 66
t-83 185z" />
    <glyph glyph-name="bnK_MA" horiz-adv-x="1022" 
d="M741 320q0 -81 -49 -125.5t-136 -44.5q-14 0 -21 1v116h10q61 0 61 53q0 71 -131 78v-273q87 -8 183 -36t164 -63v533h-347v-40q68 -2 127.5 -24t99 -68t39.5 -107zM1042 559h-85v-660h-135q-75 42 -187.5 74.5t-193.5 32.5q-82 0 -82 -68q0 -17 1 -23h-138q-2 26 -2 40
q0 54 28 95.5t82 61.5l-273 137v134q71 57 133 88t150 48v40h-360v112h1062v-112zM340 238v157q-86 -23 -153 -76z" />
    <glyph glyph-name="bnG_MA" horiz-adv-x="875" 
d="M810 0h-140q-33 41 -85.5 74t-102.5 33q-33 0 -49.5 -19t-16.5 -49q0 -17 1 -23h-138q-2 26 -2 40q0 59 32 103t90 59v191q0 75 -28.5 113.5t-93.5 38.5q-80 0 -100 -63q76 -6 121 -42t46 -106q-1 -84 -62.5 -126.5t-168.5 -42.5q-37 0 -75 6v112q33 -3 71 -3q95 0 95 53
t-95 53h-74v35q0 105 57.5 174.5t161.5 69.5q102 0 145 -65v135h140v-80h356v-112h-85v-559zM670 137v422h-131v-346q76 -21 131 -76z" />
    <glyph glyph-name="bnNG_MA" horiz-adv-x="907" 
d="M396 485q61 0 61 49q0 20 -13 32.5t-37 12.5q-43 0 -43 -52v-40q20 -2 32 -2zM625 267q0 -100 -60 -162q80 -26 142 -59v513h-140q3 -15 3 -30q0 -66 -47 -103t-126 -37q-22 0 -33 1v-5q0 -52 50 -52q30 0 62.5 12t53.5 25t60 40q35 -69 35 -143zM842 -81h-135
q-75 43 -170 74t-173 31q-82 0 -82 -68q0 -17 1 -23h-138q-2 26 -2 40q0 64 39 109q-64 41 -100.5 112.5t-36.5 168.5q0 33 2 44h126q-2 -20 -2 -44q0 -113 55.5 -164.5t138.5 -51.5q67 0 102 29.5t38 74.5q-47 -32 -106 -32q-73 0 -116.5 43t-43.5 120v38q-109 46 -149 139
h-110v112h192q20 -77 74 -127q5 60 44.5 98.5t114.5 38.5q32 0 64 -10h458v-112h-85v-640z" />
    <glyph glyph-name="bnTT_MA" horiz-adv-x="792" 
d="M513 315q0 -74 -52 -128q69 -23 131 -59v431h-377v-284q0 -27 17 -41t44 -14q46 0 71 27.5t25 67.5q0 58 -55 58q-22 0 -42 -4v122q31 7 63 7q78 0 126.5 -49.5t48.5 -133.5zM73 53q0 68 47 113q-45 42 -45 109v284h-95v112h389q0 5 0.5 15t0.5 12q0 31 -10.5 46
t-41.5 15q-22 0 -77 -9.5t-87 -9.5q-67 0 -104 22v107q31 -17 91 -17q32 0 95.5 12t97.5 12q79 0 121 -41.5t42 -116.5q0 -24 -4 -47h319v-112h-85v-559h-135q-58 33 -95 51.5t-94 35.5t-109 17q-82 0 -82 -68q0 -17 1 -23h-138q-2 26 -2 40z" />
    <glyph glyph-name="bnDD_MA" horiz-adv-x="912" 
d="M632 335q0 -106 -69 -175q91 -27 149 -59v458h-327v-89q0 -53 54 -53q56 0 164 59q29 -71 29 -141zM847 -26h-135q-184 104 -368 104q-82 0 -82 -68q0 -17 1 -23h-138q-2 26 -2 40q0 62 39 104q-125 84 -125 276q0 30 4 58h136q-3 -29 -3 -56q0 -91 44.5 -150.5
t134.5 -59.5q65 0 103 32t45 84q-43 -18 -88 -18q-82 0 -125 44t-43 127v91h-265v112h952v-112h-85v-585z" />
    <glyph glyph-name="bnNN_MA" horiz-adv-x="878" 
d="M898 559h-85v-559h-140q-33 41 -85.5 74t-102.5 33q-33 0 -49.5 -19t-16.5 -49q0 -17 1 -23h-138q-2 26 -2 40q0 59 32.5 103t90.5 59v191q0 68 -33.5 110t-97.5 42q-43 0 -67.5 -24t-24.5 -63q0 -40 23.5 -59.5t61.5 -19.5q25 0 49 4v-122q-35 -7 -66 -7q-96 0 -152 53
t-56 151q0 92 56.5 149.5t144.5 57.5q111 0 162 -79v149h140v-80h355v-112zM673 137v422h-130v-347q74 -19 130 -75z" />
    <glyph glyph-name="bnT_MA" horiz-adv-x="884" 
d="M819 0h-135q-74 42 -174.5 73t-185.5 31q-82 0 -82 -68q0 -17 1 -23h-138q-2 26 -2 40q0 60 38 103q-99 69 -99 220q0 42 6 88h135q-7 -46 -7 -90q0 -148 149 -148q63 0 99 31.5t36 85.5q0 64 -50 64q-22 0 -34 -16.5t-12 -42.5q0 -31 8 -53h-121q-12 30 -12 68
q0 73 44 114.5t121 41.5q88 0 139.5 -49.5t51.5 -129.5q0 -93 -60 -156q84 -24 149 -59v434h-704v112h924v-112h-85v-559z" />
    <glyph glyph-name="bnD_MA" horiz-adv-x="828" 
d="M848 559h-85v-559h-140q-33 41 -85.5 74t-102.5 33q-33 0 -49.5 -19t-16.5 -49q0 -17 1 -23h-138q-2 26 -2 40q0 60 34 105t94 58v127q-99 -72 -168 -158h-135v371h-75v112h868v-112zM493 488v-276q74 -19 130 -75v422h-433v-201q84 88 168 130h135z" />
    <glyph glyph-name="bnDH_MA" horiz-adv-x="868" 
d="M888 559h-85v-559h-140q-20 40 -65.5 73.5t-92.5 33.5q-33 0 -49.5 -19t-16.5 -49q0 -17 1 -23h-138q-2 26 -2 40q0 53 26 93l-275 72l1 1v110q95 50 107 56q-58 15 -91 49.5t-33 87.5q0 75 55.5 115.5t147.5 40.5q40 0 65 -4v-112q-20 2 -35 2q-84 0 -84 -60
q0 -52 78 -52q34 0 70 16q3 1 29 12t38 16v172h489v-112zM663 149v410h-130v-341q74 -15 130 -69zM399 249v131l-172 -85z" />
    <glyph glyph-name="bnN_MA" horiz-adv-x="837" 
d="M772 0h-140q-33 41 -85.5 74t-102.5 33q-33 0 -49.5 -19t-16.5 -49q0 -17 1 -23h-138q-2 26 -2 40q0 57 30.5 100.5t84.5 59.5q-17 50 -50 84.5t-72 34.5q-65 0 -65 -71q0 -23 3 -44h-138q-5 27 -5 49q0 81 44.5 135t130.5 54q109 0 165 -83v184h-387v112h877v-112h-85
v-559zM632 137v422h-130v-347q74 -19 130 -75z" />
    <glyph glyph-name="bnP_MA" horiz-adv-x="898" 
d="M180 451q46 -22 76 -76l160 90q-24 96 -121 96q-50 0 -82.5 -31.5t-32.5 -78.5zM918 559h-85v-559h-140q-33 41 -85.5 74t-102.5 33q-33 0 -49.5 -19t-16.5 -49q0 -17 1 -23h-138q-2 26 -2 40q0 59 32.5 103t90.5 59v114l-372 -215v144l95 53q-40 65 -101 84v54
q0 88 58.5 158.5t166.5 70.5q107 0 153 -76v146h140v-80h355v-112zM693 137v422h-130v-347q74 -19 130 -75z" />
    <glyph glyph-name="bnM_MA" horiz-adv-x="821" 
d="M352 442q54 0 54 61q0 33 -6 56h-200q24 -37 29 -89q8 -2 52.5 -15t70.5 -13zM841 559h-85v-559h-140q-33 41 -85.5 74t-102.5 33q-33 0 -49.5 -19t-16.5 -49q0 -17 1 -23h-138q-2 26 -2 40q0 54 27.5 95.5t76.5 60.5v117q-22 3 -60 17.5t-62 14.5q-38 0 -38 -45
q0 -7 2 -17h-133q-4 20 -4 38q0 90 70 123q-15 65 -57 99h-65v112h861v-112zM541 480q0 -92 -74 -131v-132q87 -18 149 -80v422h-85q10 -33 10 -79z" />
    <glyph glyph-name="bnL_MA" horiz-adv-x="1030" 
d="M965 0h-140q-33 41 -85.5 74t-102.5 33q-33 0 -49.5 -19t-16.5 -49q0 -17 1 -23h-138q-2 26 -2 40q0 59 32.5 103t90.5 59v71q0 74 -55 74q-57 0 -57 -87v-14h-143v21q0 80 -60 80q-30 0 -45.5 -21.5t-15.5 -54.5q0 -79 76 -79q17 0 40 3v-117q-27 -4 -56 -4
q-92 0 -146 54t-54 145q0 85 49.5 138t138.5 53q60 0 97.5 -25.5t46.5 -63.5q10 38 37.5 63t74.5 25t72 -28v108h-575v112h1070v-112h-85v-559zM825 137v422h-130v-347q74 -19 130 -75z" />
    <glyph glyph-name="bnSH_MA" horiz-adv-x="947" 
d="M882 0h-140q-33 41 -85.5 74t-102.5 33q-33 0 -49.5 -19t-16.5 -49q0 -17 1 -23h-138q-2 26 -2 40q0 59 32.5 103t90.5 59v227q0 116 -94 116q-39 0 -61 -25t-22 -66q0 -44 23.5 -65t61.5 -21q23 0 32 1v-122q-21 -4 -49 -4q-95 0 -139 57q-47 -57 -133 -57q-31 0 -66 7
v122q24 -4 49 -4q85 0 85 86q0 41 -24.5 65t-67.5 24h-87v112h108q86 0 135 -61q47 71 135 71q76 0 114 -46v116h140v-80h355v-112h-85v-559zM742 137v422h-130v-347q74 -19 130 -75z" />
    <glyph glyph-name="bnS_MA" horiz-adv-x="881" 
d="M412 426q54 0 54 67q0 21 -10 66h-115v-17q0 -116 71 -116zM283 56q0 56 29.5 99t82.5 60v106q-96 7 -129 77q-31 -77 -131 -77q-52 0 -102 25v116q53 -21 95 -21t60.5 25t18.5 76v17h-227v112h921v-112h-85v-559h-140q-33 41 -85.5 74t-102.5 33q-33 0 -49.5 -19
t-16.5 -49q0 -17 1 -23h-138q-2 26 -2 40zM601 474q0 -82 -66 -124v-135q83 -20 141 -78v422h-86q11 -46 11 -85z" />
    <glyph glyph-name="bnSS_MA" horiz-adv-x="831" 
d="M541 452q0 -66 -30.5 -115t-83.5 -75v-52q116 -17 199 -86v435h-116q31 -45 31 -107zM296 559q-38 0 -64 -16l170 -123q4 12 4 32q0 51 -30 79t-80 28zM186 452q0 -52 30 -80t80 -28q41 0 68 18l-175 121q-3 -13 -3 -31zM851 559h-85v-569h-140q-28 37 -93 72t-121 35
q-40 0 -59.5 -19t-19.5 -49q0 -17 1 -23h-138q-2 26 -2 40q0 51 24.5 91t68.5 60v37q-104 2 -170 60t-66 158q0 62 31 107h-102v112h871v-112z" />
    <glyph glyph-name="bnH_MA" horiz-adv-x="1012" 
d="M356 259q0 -19 -7 -43q117 -12 211 -76v199q-145 23 -259 102q-31 -40 -102 -49q157 -17 157 -133zM700 0h-140q-49 34 -77.5 51.5t-77.5 34t-98 16.5q-45 0 -70.5 -20t-25.5 -58q0 -13 1 -20h-137q-5 30 -5 52q0 56 35 97t99 57q13 24 13 52q0 60 -135 60h-41v118h31
q110 0 110 78q0 19 -9 41h-193v112h1052v-112h-332v-118q66 7 116 27h135v-351h-135v241q-55 -22 -116 -26v-332zM560 449v110h-248q39 -36 105.5 -66t142.5 -44z" />
    <glyph glyph-name="bnK_SS_MA" horiz-adv-x="1262" 
d="M558 438q8 0 28 2v119h-86v-67q0 -54 58 -54zM1005 317q0 -68 -45.5 -107t-132.5 -39q-20 0 -27 1v106h10q60 0 60 45q0 46 -69 46q-31 0 -82 -11v-237q94 -7 186 -32.5t157 -58.5v529h-343v-90q55 12 89 12q86 0 141.5 -43.5t55.5 -120.5zM325 318q0 -21 -6 -39
q167 -10 267 -58v105q-16 -3 -30 -3q-90 0 -143 43t-53 125v68h-74q5 -18 5 -34q0 -46 -29.5 -70.5t-76.5 -29.5q65 -4 102.5 -32.5t37.5 -74.5zM1282 559h-85v-655h-135q-73 41 -183.5 72.5t-204.5 31.5q-82 0 -82 -68q0 -17 1 -23h-138q-2 26 -2 40q0 55 32.5 96.5
t90.5 59.5q-139 59 -298 59q-42 0 -66.5 -19.5t-24.5 -55.5q0 -13 1 -19h-131q-5 28 -5 47q0 55 35.5 94.5t98.5 54.5q6 9 6 27q0 57 -128 57h-19v112h28q86 0 86 57q0 17 -6 32h-173v112h1302v-112z" />
    <glyph glyph-name="bnK_LA" horiz-adv-x="840" 
d="M535 -178h-135v150q0 61 -37 61q-17 0 -27.5 -17.5t-10.5 -48.5v-12h-112v12q0 66 -40 66q-19 0 -30.5 -14.5t-11.5 -39.5q0 -28 15 -43.5t41 -15.5q17 0 33 2v-97q-26 -2 -40 -2q-73 0 -116.5 41t-43.5 115q0 61 38.5 105.5t100.5 44.5q48 0 75.5 -20.5t34.5 -52.5
q5 31 26 52t54 20q33 0 51 -18v46l-273 106v134q68 55 125 81.5t148 44.5v37h-420v112h880v-112h-325v-37q68 -2 127.5 -24t99 -68t39.5 -107q0 -81 -49 -125.5t-136 -44.5q-14 0 -21 1v116h10q61 0 61 53q0 71 -131 78v-579zM400 277v125q-83 -19 -143 -64z" />
    <glyph glyph-name="bnG_LA" horiz-adv-x="627" 
d="M562 -159h-140v161q0 61 -40 61q-41 0 -41 -66v-12h-112v12q0 66 -43 66q-20 0 -32.5 -15t-12.5 -39q0 -59 62 -59q9 0 27 2v-96q-17 -3 -40 -3q-73 0 -116.5 41t-43.5 115q0 61 40 105.5t102 44.5q48 0 77 -21t36 -52q5 31 26.5 52t56.5 20q36 0 54 -20v271
q0 159 -122 159q-74 0 -97 -60q74 -6 118.5 -42.5t45.5 -105.5q-1 -83 -62 -123.5t-169 -40.5q-38 0 -75 6v107q33 -3 71 -3q95 0 95 53t-95 53h-74v25q0 105 57.5 174.5t161.5 69.5q102 0 145 -65v135h140v-80h85v-112h-85v-718z" />
    <glyph glyph-name="bnT_LA" horiz-adv-x="645" 
d="M220 -224q-16 -3 -40 -3q-73 0 -116.5 41t-43.5 115q0 61 40 105.5t102 44.5q48 0 77 -21t36 -52q5 31 26.5 52t56.5 20q36 0 54 -20v54q-30 -6 -63 -6q-133 0 -210 67t-77 203q0 42 6 88h135q-7 -46 -7 -90q0 -148 149 -148q63 0 99 31.5t36 85.5q0 64 -50 64
q-22 0 -34 -16.5t-12 -42.5q0 -31 8 -53h-121q-12 30 -12 68q0 73 44 114.5t121 41.5q88 0 139.5 -49.5t51.5 -129.5q0 -100 -69 -164v-402h-134v148q0 61 -40 61q-41 0 -41 -66v-12h-112v12q0 66 -43 66q-20 0 -32.5 -15t-12.5 -39q0 -59 62 -59q9 0 27 2v-96zM665 559
h-685v112h685v-112z" />
    <glyph glyph-name="bnP_LA" horiz-adv-x="617" 
d="M220 -86q-16 -3 -40 -3q-73 0 -116.5 41t-43.5 115q0 61 40 105.5t102 44.5q48 0 77 -21t36 -52q5 31 26.5 52t56.5 20q36 0 54 -20v188l-372 -179v136l87 40q-31 46 -87 64v17q0 88 55.5 153.5t163.5 65.5q106 0 153 -77v147h140v-80h85v-112h-85v-647h-140v148
q0 61 -40 61q-19 0 -30 -17.5t-11 -48.5v-12h-112v12q0 66 -43 66q-20 0 -32.5 -15t-12.5 -39q0 -59 62 -59q9 0 27 2v-96zM172 494q40 -19 67 -61l156 71q-33 67 -112 67q-41 0 -71.5 -21t-39.5 -56z" />
    <glyph glyph-name="bnPH_LA" horiz-adv-x="825" 
d="M242 -200q-20 -3 -38 -3q-70 0 -115.5 37.5t-45.5 110.5q0 64 40 107t101 43q44 0 70.5 -22.5t33.5 -53.5q5 31 25.5 54t51.5 22q30 0 47 -17v42l-314 94l1 1v123l127 79l-124 74v68h-122v112h865v-112h-636l136 -91v-114l-101 -63l168 -55v264h123q116 0 185.5 -49.5
t69.5 -137.5q0 -75 -45 -119.5t-126 -44.5q-19 0 -26 1v106h13q27 0 43 14.5t16 42.5q0 73 -130 73v-586h-123v157q-4 34 -34 34q-36 0 -36 -54v-6h-107v6q0 53 -38 53q-17 0 -28.5 -12.5t-11.5 -32.5q0 -25 15 -37t38 -12q16 0 32 2v-98z" />
    <glyph glyph-name="bnB_LA" horiz-adv-x="600" 
d="M528 -163h-128v148q0 49 -35 49q-36 0 -36 -54v-6h-107v6q0 53 -38 53q-17 0 -28.5 -12.5t-11.5 -32.5q0 -25 15 -37t38 -12q16 0 32 2v-98q-20 -3 -38 -3q-70 0 -115.5 37.5t-45.5 110.5q0 64 40 107t101 43q44 0 70.5 -22.5t33.5 -53.5q5 31 25.5 54t51.5 22
q30 0 48 -18v43l-293 88v134q139 102 293 137v37h-420v112h633v-112h-85v-722zM400 282v122q-82 -24 -152 -72z" />
    <glyph glyph-name="bnBH_LA" horiz-adv-x="638" 
d="M243 -230q-20 -3 -38 -3q-69 0 -111 35t-42 103q0 59 37 102t96 43q45 0 71 -20.5t33 -50.5q5 29 25 49.5t52 19.5q30 0 48 -16v57q-40 -8 -80 -8q-124 0 -206 73t-82 221q0 11 2 39h134q-2 -34 -2 -46q0 -86 44.5 -129t116.5 -43q96 0 117 55q-24 -8 -55 -8
q-75 0 -116 36t-41 100q0 66 43.5 104t114.5 38q56 0 98 -8v-99q-26 4 -60 4q-63 0 -63 -37q0 -35 62 -35q64 0 132 30q14 -45 14 -91q0 -81 -50 -134v-381h-123v132q0 49 -35 49q-36 0 -36 -54v-6h-107v6q0 53 -38 53q-17 0 -28.5 -12.5t-11.5 -32.5q0 -25 15 -37t38 -12
q16 0 32 2v-88zM658 559h-678v112h678v-112z" />
    <glyph glyph-name="bnM_LA" horiz-adv-x="630" 
d="M382 442q54 0 54 61q0 33 -6 56h-200q24 -37 29 -89q8 -2 52.5 -15t70.5 -13zM538 -48h-120v150q0 61 -37 61q-17 0 -27.5 -17.5t-10.5 -48.5v-12h-112v12q0 66 -40 66q-19 0 -30.5 -14.5t-11.5 -39.5q0 -28 15 -43.5t41 -15.5q17 0 33 2v-97q-26 -2 -40 -2
q-73 0 -116.5 41t-43.5 115q0 61 38.5 105.5t100.5 44.5q48 0 75.5 -20.5t34.5 -52.5q5 31 26 52t54 20q33 0 51 -18v87q-8 -1 -25 -1q-41 0 -87.5 17.5t-70.5 17.5q-38 0 -38 -45q0 -7 2 -17h-133q-4 20 -4 38q0 90 70 123q-15 65 -57 99h-95v112h670v-112h-89
q10 -33 10 -79q0 -59 -33 -98v-430z" />
    <glyph glyph-name="bnL_LA" horiz-adv-x="697" 
d="M632 -196h-126v169q0 61 -48 61q-52 0 -52 -63v-22h-116v22q0 28 -14 45.5t-43 17.5q-26 0 -40.5 -16t-14.5 -42q0 -62 67 -62q20 0 44 6v-105q-32 -8 -62 -8q-72 0 -121 41t-49 128q0 72 47.5 118t117.5 46q49 0 82.5 -24t42.5 -59q5 33 30.5 60t62.5 26q43 0 66 -35
v217q0 61 -48 61q-52 0 -52 -63v-22h-116v22q0 28 -14 45.5t-43 17.5q-26 0 -40.5 -16t-14.5 -42q0 -62 67 -62q20 0 44 6v-105q-32 -8 -62 -8q-72 0 -121 41t-49 128q0 72 47.5 118t117.5 46q49 0 82.5 -24t42.5 -59q5 33 30.5 60t62.5 26q43 0 66 -35v99h-526v112h737
v-112h-85v-755z" />
    <glyph glyph-name="bnSH_LA" horiz-adv-x="677" 
d="M255 -73q-32 -8 -62 -8q-72 0 -121 41t-49 128q0 72 47.5 118t117.5 46q49 0 82.5 -24t42.5 -59q5 33 30.5 60t62.5 26q43 0 66 -35v225q0 116 -94 116q-38 0 -60.5 -21t-22.5 -61q0 -78 85 -78q23 0 32 1v-110q-21 -4 -49 -4q-90 0 -136 56q-46 -56 -136 -56
q-25 0 -57 5v111q18 -3 40 -3q85 0 85 78q0 40 -24.5 60t-67.5 20h-87v112h108q86 0 135 -56q47 66 135 66q76 0 114 -46v116h140v-80h85v-112h-85v-639h-140v165q0 61 -48 61q-52 0 -52 -63v-22h-116v22q0 28 -14 45.5t-43 17.5q-26 0 -40.5 -16t-14.5 -42q0 -62 67 -62
q20 0 44 6v-105z" />
    </font>
</defs>
</svg>
