<svg xmlns="http://www.w3.org/2000/svg" width="685.108" height="547.589" viewBox="0 0 685.108 547.589"><defs><style>.a,.b{fill:#5bc0be;}.a,.e{opacity:0.1;}.c{fill:#46455b;}.d{fill:#3f3d56;}.f{fill:#323444;}.g{fill:#fbb3b2;}.h{fill:#5b5583;}.i{fill:#3c354c;}.j{fill:#cbceda;}.k{fill:#a8a8a8;}.l{opacity:0.2;}</style></defs><g transform="translate(0)"><rect class="a" width="62.128" height="18.783" rx="7.43" transform="translate(140.054 93.914)"/><rect class="a" width="62.128" height="18.783" rx="7.43" transform="translate(205.071 112.696)"/><rect class="a" width="62.128" height="18.783" rx="7.43" transform="translate(270.089 131.479)"/><rect class="a" width="62.128" height="18.783" rx="7.43" transform="translate(140.054 65.74)"/><rect class="a" width="62.128" height="18.783" rx="7.43" transform="translate(205.071 84.522)"/><rect class="a" width="62.128" height="18.783" rx="7.43" transform="translate(270.089 103.305)"/><rect class="a" width="62.128" height="18.783" rx="7.43" transform="translate(342.33 93.914)"/><rect class="a" width="62.128" height="18.783" rx="7.43" transform="translate(407.347 112.696)"/><rect class="a" width="62.128" height="18.783" rx="7.43" transform="translate(472.364 131.479)"/><rect class="a" width="62.128" height="18.783" rx="7.43" transform="translate(342.33 65.74)"/><rect class="a" width="62.128" height="18.783" rx="7.43" transform="translate(407.347 84.522)"/><rect class="a" width="62.128" height="18.783" rx="7.43" transform="translate(472.364 103.305)"/><rect class="a" width="62.128" height="18.783" rx="7.43" transform="translate(140.054 28.174)"/><rect class="a" width="62.128" height="18.783" rx="7.43" transform="translate(205.071 46.957)"/><rect class="a" width="62.128" height="18.783" rx="7.43" transform="translate(270.089 65.74)"/><rect class="a" width="62.128" height="18.783" rx="7.43" transform="translate(140.054)"/><rect class="a" width="62.128" height="18.783" rx="7.43" transform="translate(205.071 18.783)"/><rect class="a" width="62.128" height="18.783" rx="7.43" transform="translate(270.089 37.565)"/><rect class="a" width="62.128" height="18.783" rx="7.43" transform="translate(342.33 28.174)"/><rect class="a" width="62.128" height="18.783" rx="7.43" transform="translate(407.347 46.957)"/><rect class="a" width="62.128" height="18.783" rx="7.43" transform="translate(472.364 65.74)"/><rect class="a" width="62.128" height="18.783" rx="7.43" transform="translate(342.33)"/><rect class="a" width="62.128" height="18.783" rx="7.43" transform="translate(407.347 18.783)"/><rect class="a" width="62.128" height="18.783" rx="7.43" transform="translate(472.364 37.565)"/><rect class="a" width="62.128" height="18.783" rx="7.43" transform="translate(140.054 428.391)"/><rect class="a" width="62.128" height="18.783" rx="7.43" transform="translate(205.071 447.174)"/><rect class="a" width="62.128" height="18.783" rx="7.43" transform="translate(270.089 465.956)"/><rect class="a" width="62.128" height="18.783" rx="7.43" transform="translate(140.054 400.217)"/><rect class="a" width="62.128" height="18.783" rx="7.43" transform="translate(205.071 419)"/><rect class="a" width="62.128" height="18.783" rx="7.43" transform="translate(270.089 437.782)"/><rect class="a" width="62.128" height="18.783" rx="7.43" transform="translate(342.33 428.391)"/><rect class="a" width="62.128" height="18.783" rx="7.43" transform="translate(407.347 447.174)"/><rect class="a" width="62.128" height="18.783" rx="7.43" transform="translate(472.364 465.956)"/><rect class="a" width="62.128" height="18.783" rx="7.43" transform="translate(342.33 400.217)"/><rect class="a" width="62.128" height="18.783" rx="7.43" transform="translate(407.347 419)"/><rect class="a" width="62.128" height="18.783" rx="7.43" transform="translate(472.364 437.782)"/><rect class="a" width="62.128" height="18.783" rx="7.43" transform="translate(140.054 362.651)"/><rect class="a" width="62.128" height="18.783" rx="7.43" transform="translate(205.071 381.434)"/><rect class="a" width="62.128" height="18.783" rx="7.43" transform="translate(270.089 400.217)"/><rect class="a" width="62.128" height="18.783" rx="7.43" transform="translate(140.054 334.477)"/><rect class="a" width="62.128" height="18.783" rx="7.43" transform="translate(205.071 353.26)"/><rect class="a" width="62.128" height="18.783" rx="7.43" transform="translate(270.089 372.043)"/><rect class="a" width="62.128" height="18.783" rx="7.43" transform="translate(342.33 362.651)"/><rect class="a" width="62.128" height="18.783" rx="7.43" transform="translate(407.347 381.434)"/><rect class="a" width="62.128" height="18.783" rx="7.43" transform="translate(472.364 400.217)"/><rect class="a" width="62.128" height="18.783" rx="7.43" transform="translate(342.33 334.477)"/><rect class="a" width="62.128" height="18.783" rx="7.43" transform="translate(407.347 353.26)"/><rect class="a" width="62.128" height="18.783" rx="7.43" transform="translate(472.364 372.043)"/><ellipse class="a" cx="316.778" cy="26.007" rx="316.778" ry="26.007" transform="translate(31.692 495.575)"/><path class="b" d="M186.972,254.554c29.872,12.946,47.036,39.733,47.036,39.733s-31.273,5.779-61.152-7.159-47.036-39.733-47.036-39.733S157.093,241.608,186.972,254.554Z" transform="translate(-125.82 -119.607)"/><path class="b" d="M334.1,180.395C343.34,165.224,359.074,158,359.074,158s.722,17.295-8.488,32.422S325.6,212.766,325.6,212.766,324.853,195.479,334.1,180.395Z" transform="translate(-181.273 -95.15)"/><path class="c" d="M242.3,193.666c6.61,23.594,24.829,39.126,24.829,39.126s7.506-22.734.9-46.336-24.837-39.126-24.837-39.126S235.685,170.064,242.3,193.666Z" transform="translate(-157.397 -92.188)"/><rect class="d" width="526.639" height="263.681" rx="7.21" transform="translate(85.873 100.415)"/><path class="e" d="M118.87,482H645.509v10.684a5.209,5.209,0,0,1-5.209,5.209H124.079a5.209,5.209,0,0,1-5.209-5.209Z" transform="translate(-32.997 -133.797)"/><rect class="b" width="39.01" height="19.505" rx="2.5" transform="translate(137.165 328.698)"/><rect class="b" width="26.729" height="2.89" rx="1.445" transform="translate(187.011 345.313)"/><path class="b" d="M335.385,276.615c19.064,3.518,38.512,0,57.5-2.384l57.7-7.224c2.333-.3,5.729-1.69,7.1,1.163.773,1.6.253,5.057.311,6.892.152,5.057.137,10.114,0,15.171-.26,9.666-.968,19.31-1.871,28.933-1.755,18.833-4.241,37.565-5.483,56.471-.636,9.623-.954,19.274-.672,28.9.065,2.3.159,4.595.3,6.885.152,2.565,1.3,6.372-1.5,8.084-1.6.982-4.739.932-6.567,1.221-2.89.455-5.779.816-8.727,1.113-19.426,1.943-39.1,1.134-58.6,1.019l-58.877-.3-14.362-.079c-1.3,0-5.989.78-6.791-.766-.34-.657.563-3.735.722-4.558q.332-2.037.722-4.067c1.676-9.5,3.655-18.942,5.649-28.376,4.284-20.228,8.669-40.556,10.432-61.217.874-10.367.3-20.827,1.365-31.172.5-4.8,1.091-15.525,7.484-15.951,5.418-.361,11,0,16.428,0a1.084,1.084,0,0,0,0-2.167c-5.129,0-10.266-.137-15.395-.036-3.41.065-5.779.874-7.4,4.009-4.154,8.048-3.728,18.783-3.858,27.567-.311,21.029-3.54,41.611-7.744,62.178-2.117,10.352-4.4,20.668-6.5,31.028-.99,4.949-1.936,9.911-2.8,14.889-.4,2.37-2.449,7.593-.65,9.767s7.332,1,9.81,1.019l17.237.1,33.029.188c21.34.123,42.752.722,64.085.094,10.186-.3,20.95-.722,30.869-3.157,2.955-.722,4.378-2.081,4.493-5.23.173-4.884-.621-9.919-.722-14.824-.722-41.972,9.139-83.359,8.127-125.346-.065-2.854,1.011-10.049-2.109-11.775-1.4-.78-3.222-.354-4.7-.181-2.817.325-5.628.722-8.445,1.055l-36.59,4.566c-11.7,1.445-23.384,3.005-35.1,4.334-12.4,1.445-24.93,2.3-37.291,0-1.365-.253-1.951,1.835-.578,2.088Z" transform="translate(-172.105 -124.633)"/><path class="b" d="M319.6,313.176l144.353-7.08c1.394-.072,1.4-2.239,0-2.167L319.6,311.009C318.212,311.074,318.2,313.241,319.6,313.176Z" transform="translate(-179.321 -135.658)"/><path class="b" d="M381.182,289.317a3.612,3.612,0,0,0,1.279,5.83c1.943.889,4.226.145,6.155-.34,2.89-.722,5.779-1.365,8.748-1.893a119.306,119.306,0,0,1,19.57-1.82c2.991-.036,5.96.1,8.951.231,2.167.087,4.5.26,6.336-1.084,2.1-1.532,2.774-4.522.722-6.386-2.89-2.637-9.117-1.105-12.454-.831a279.3,279.3,0,0,0-36.02,5.375c-1.358.289-.787,2.384.578,2.088q11.754-2.536,23.688-4.074,5.866-.722,11.754-1.221c1.849-.152,3.7-.289,5.548-.4.722-.043,1.488-.123,2.225-.1,2.29.051,2.557-.361,1.185,2.406-1.221,2.449-.831,2.167-2.947,2.088-.9,0-1.792-.1-2.687-.144q-2.752-.116-5.5-.123-5.859,0-11.689.564c-3.294.318-6.581.766-9.839,1.344-2.037.361-4.06.78-6.075,1.243-.889.21-1.784.426-2.673.65-.426.116-.86.217-1.286.325q-2.37.824-4.038-2.167c.968-1-.556-2.543-1.531-1.532Z" transform="translate(-196.432 -129.663)"/><path class="b" d="M404.547,334.039c-10.453-.4-21.745,2.42-28.629,10.836-5.389,6.581-8.459,17.872-2.752,25.284,6.133,7.947,19.585,6.545,27.7,3.157,8.582-3.612,17.974-11.06,20.553-20.379,3.215-11.638-7.224-20.437-18.1-20.567a1.084,1.084,0,0,0,0,2.167c6.2.072,12.281,2.731,15.171,8.5,3.027,6.083.419,12.469-3.612,17.338-6.458,7.751-16.558,13.6-26.845,13.43-6.177-.094-13-2.211-14.918-8.727-1.575-5.281-.376-11.053,2.37-15.734,5.938-10.114,18.024-13.538,29.106-13.1,1.394.051,1.394-2.117,0-2.167Z" transform="translate(-193.631 -143.553)"/><path class="b" d="M401.951,354.119a2.817,2.817,0,0,0-3.785,2.89c.217,2.817,3.323,3.612,5.656,3.446,2.016-.173,4.371-.917,3.663-3.439a3.237,3.237,0,0,0-1.763-2.037,4.081,4.081,0,0,0-2.037-.253c-.267,0-2.716.9-1.676-.181l-1.7-.224a1.777,1.777,0,0,1,.52,1.445,1.091,1.091,0,0,0,1.625.932,1.445,1.445,0,0,1,1.958,1.69,1.091,1.091,0,0,0,1.979.838c.722-1.3,1.6-3.887.513-5.245-.722-.917-2.117-.643-2.984-.108a10.452,10.452,0,0,0-1.488,1.279c-.874.773-1.445,1.134-1.12-.347.542-2.695,3.114-4.84,5.461-5.917l-1.589-1.221a22.842,22.842,0,0,1-4.371,8.561l1.849.766a4.826,4.826,0,0,1,2.947-4.7h-1.062l.563.925c-.21,1.365,1.878,1.951,2.088.571.275-1.784-.852-4.1-2.94-3.229-2.492,1.04-3.785,3.894-3.735,6.437,0,.867,1.228,1.539,1.857.773a25.472,25.472,0,0,0,4.92-9.529,1.1,1.1,0,0,0-1.6-1.221,12.114,12.114,0,0,0-5.259,4.58c-.881,1.445-1.987,3.7-1.091,5.36a2.3,2.3,0,0,0,3.142.889,8.453,8.453,0,0,0,1.813-1.445c.267-.238.563-.65.917-.722.318-.217.3-.094-.051.383a3.937,3.937,0,0,1-.629,2.109l1.979.831a3.612,3.612,0,0,0-5.136-4.139l1.633.939a3.937,3.937,0,0,0-.816-2.55,1.1,1.1,0,0,0-1.7-.224,2.834,2.834,0,0,0,.072,4.2c1.033.787,1.539,0,2.673-.181,3.85-.5,1.6,1.235.246,1.293a5.122,5.122,0,0,1-1.813-.13q-2.261-.766-.282-1.972c1.293.527,1.849-1.568.578-2.088Z" transform="translate(-201.417 -147.581)"/><path class="b" d="M396.86,361.868c.889,2.89-2.781,3.843-4.522,4.84a10.07,10.07,0,0,0-3.128,2.738c-1.82,2.442-2.5,5.548-3.1,8.474-.275,1.365,1.813,1.943,2.1.578a24.563,24.563,0,0,1,1.828-6.234c1.3-2.586,3.164-3.453,5.591-4.782s4.183-3.388,3.323-6.191c-.4-1.329-2.5-.759-2.088.578Z" transform="translate(-198.066 -151.371)"/><path class="b" d="M401.561,360.37a2.1,2.1,0,0,0-1.806,2.167c0,.86.571,1.409.961,2.1a16.544,16.544,0,0,1,2.1,4.558c.347,1.553.686,4.334-.123,5.779-1.5,2.68-4.2,2.167-6.5,2.167-2.167,0-3.843.722-3.771-2.3.043-1.7,1.228-3.417,2.167-4.754l-1.979-.26a37.76,37.76,0,0,1,.657,6.69c0,1,1.539,1.56,2.016.542a41.849,41.849,0,0,0,2.752-7.614l-2.131-.289.376,5.49a1.091,1.091,0,0,0,2.016.549,2.457,2.457,0,0,0,.542-.975c.072-.34-.592-2.63-.86-1.813l2.124.289.152-5.216-2.167.289a10.793,10.793,0,0,1,.4,4.551c-.137,1.206,1.893,1.481,2.167.289l1.358-7.007-1.979.253a4.789,4.789,0,0,1,.368,3.121c-.159,1.387,2.008,1.373,2.167,0a7.614,7.614,0,0,0-.665-4.212,1.091,1.091,0,0,0-1.979.26l-1.365,7.007,2.131.289a11.818,11.818,0,0,0-.484-5.122,1.084,1.084,0,0,0-2.124.282l-.152,5.216a1.089,1.089,0,0,0,2.131.289l.116-.354a1.1,1.1,0,0,0-.275-1.055c-2.247-2.442-2.7,1.445-3.482,2.521l2.023.549-.376-5.49a1.09,1.09,0,0,0-2.131-.289,38.84,38.84,0,0,1-2.528,7.1l2.023.549a40.845,40.845,0,0,0-.722-7.268c-.188-1-1.5-.954-1.979-.26-1.445,2.081-3.944,6.625-2.016,9.117,1.683,2.167,6.978,1.329,9.24,1.192,3.569-.2,4.862-2.463,5.252-5.83a14.274,14.274,0,0,0-.267-4.826c-.2-.852-2.167-6.256-2.76-6.148,1.373-.253.787-2.348-.578-2.1Z" transform="translate(-199.155 -151.325)"/><path class="b" d="M397.744,365.963l-5.917,7.809,1.871,1.091,4.335-6.271-1.979-.838L393.893,376a1.091,1.091,0,0,0,1.979.838,38.075,38.075,0,0,1,3.3-4.645l-1.806-1.055a11.8,11.8,0,0,1-2.723,5.006l1.813,1.055a9.68,9.68,0,0,1,.787-2.89c.556-1.25-1.206-2.355-1.871-1.1a25.44,25.44,0,0,1-2.088,3.28l1.979.26.441-2.059-1.979-.26.318,1.806a1.091,1.091,0,0,0,1.813.477,21.572,21.572,0,0,0,4.334-6.538h-1.864a9.731,9.731,0,0,1,1.019,2.89c.26,1.3,1.987.816,2.124-.289a58.74,58.74,0,0,0,.477-7.3h-2.167v4.544c0,1.178,1.929,1.524,2.131.289a8.279,8.279,0,0,1,1.062-3.106h-1.9a4.818,4.818,0,0,1,.722,2.456,1.084,1.084,0,1,0,2.167,0l.275-1.445H402.15c.21,1.279,1,8.481-1.82,7.636-.477-.116-.614-.087-.412.079l.643-1.373,1.51-3.2-2.023-.549c.13,1.488.267,3.612-.628,4.884a3.742,3.742,0,0,1-4.082.838,7.224,7.224,0,0,1-1.885-1.979L391.972,376c1.2.874,3.143,3.02,4.688,3.143,1.178.094,2.167-.881,2.94-1.662a12.591,12.591,0,0,0,3.533-9.269,1.084,1.084,0,1,0-2.167,0v2.471a1.084,1.084,0,0,0,2.167,0V364.62a1.084,1.084,0,1,0-2.167,0,26.011,26.011,0,0,1-.376,4.335l2.131.289a49.9,49.9,0,0,1-.238-5.194,1.084,1.084,0,0,0-2.124-.289c-.325,1.38-.722,2.738-1.105,4.089l1.979-.26-.152-.578c-.1-1.38-2.268-1.387-2.167,0a3.966,3.966,0,0,0,.448,1.676,1.1,1.1,0,0,0,1.979-.26c.412-1.358.78-2.716,1.105-4.089l-2.131-.289a49.905,49.905,0,0,0,.238,5.194c.108,1.113,1.9,1.589,2.124.289a29.85,29.85,0,0,0,.455-4.941h-2.167v6.061h2.167v-2.471h-2.167a10.417,10.417,0,0,1-2.637,7.426,8.866,8.866,0,0,1-.91.9c-.513.491-.982.419-1.394-.224a18.049,18.049,0,0,1-2.984-2.167c-.9-.643-2.124.629-1.488,1.481,1.662,2.211,4.139,4.674,7.224,3.612,3.244-1.149,3.684-5.541,3.439-8.431-.079-.961-1.517-1.611-2.016-.542-.722,1.524-1.445,3.041-2.167,4.573a4.04,4.04,0,0,0-.65,1.907c.238,1.625,2.211,1.358,3.424,1.264,4.7-.354,3.959-7.022,3.417-10.374-.181-1.113-1.8-.939-2.088,0a6.378,6.378,0,0,0-.354,2.052h2.167a8.59,8.59,0,0,0-1.019-3.547,1.091,1.091,0,0,0-1.871,0,10.533,10.533,0,0,0-1.286,3.612l2.167.289v-4.544a1.084,1.084,0,1,0-2.167,0,58.747,58.747,0,0,1-.477,7.3l2.131-.289a12.4,12.4,0,0,0-1.235-3.381,1.091,1.091,0,0,0-1.871,0,19.764,19.764,0,0,1-3.995,6.1l1.813.477-.318-1.806c-.166-.961-1.524-.99-1.979-.26a4.754,4.754,0,0,0-.657,3.728c.181,1.026,1.481.917,1.979.26a25.351,25.351,0,0,0,2.088-3.272l-1.871-1.1a12.325,12.325,0,0,0-1.011,3.4c-.13.954,1,1.951,1.813,1.055a14.448,14.448,0,0,0,3.28-5.967c.267-.983-1.091-1.914-1.813-1.055a41.384,41.384,0,0,0-3.612,5.057l1.979.838,2.2-8.214a1.091,1.091,0,0,0-1.979-.838l-4.335,6.278c-.809,1.163,1.048,2.167,1.871,1.091l5.895-7.8c.838-1.113-1.04-2.167-1.871-1.1Z" transform="translate(-199.535 -152.05)"/><path class="b" d="M527.142,373.9c8.669-5.3,15.561-13.213,23.218-19.83,8.308-7.174,17.027-13.856,26.007-20.184,17.439-12.281,35.752-23.269,54.051-34.228a1.084,1.084,0,0,0-1.091-1.871c-18.3,10.959-36.619,21.925-54.058,34.228-8.228,5.779-16.262,11.905-23.963,18.407-8.38,7.08-15.842,15.893-25.284,21.607-1.192.722-.1,2.6,1.091,1.871Z" transform="translate(-236.768 -133.918)"/><path class="b" d="M698.312,253.848c-9.391.954-19.505,3.345-25.284,11.559-4.992,7.065-4.883,19.39-.2,26.643,5.324,8.243,16.2,8.539,24.656,5.873s17.2-7.34,17.121-17.439c-.043-5.418-2-11.06-4.161-15.973-1.864-4.241-5.165-7.947-10.164-7.477-1.38.13-1.394,2.3,0,2.167,6.7-.621,8.85,7.333,10.439,12.353,1.445,4.688,2.781,10.237.513,14.9s-7.737,7.036-12.411,8.741c-5.057,1.835-10.612,2.955-15.893,1.445-10.461-2.926-13.35-16.182-10.338-25.588,3.468-10.836,15.749-14.022,25.754-15.033,1.373-.137,1.387-2.3,0-2.167Z" transform="translate(-276.683 -121.754)"/><path class="b" d="M718.312,369.848c-9.391.954-19.505,3.345-25.284,11.559-4.992,7.065-4.883,19.39-.2,26.643,5.324,8.243,16.2,8.539,24.656,5.873s17.2-7.34,17.121-17.439c-.043-5.418-2-11.06-4.161-15.973-1.864-4.241-5.165-7.947-10.164-7.477-1.38.13-1.394,2.3,0,2.167,6.7-.621,8.85,7.332,10.439,12.353,1.445,4.688,2.781,10.237.513,14.9s-7.737,7.036-12.411,8.741c-5.057,1.835-10.612,2.955-15.893,1.445-10.461-2.926-13.35-16.182-10.338-25.588,3.468-10.836,15.749-14.022,25.754-15.033,1.373-.137,1.387-2.3,0-2.167Z" transform="translate(-282.235 -153.954)"/><path class="b" d="M689.749,268.862l6.841,7.8a1.091,1.091,0,0,0,1.806-.484c1.445-3.8,1.17-7.737,1.51-11.732a38.626,38.626,0,0,1,3.07-11.97,40.4,40.4,0,0,1,16.168-18.53c1.192-.722.1-2.6-1.091-1.871a42.42,42.42,0,0,0-16.348,17.959,41.517,41.517,0,0,0-3.612,11.465c-.722,4.688-.065,9.6-1.8,14.1l1.813-.484L691.3,267.33c-.925-1.048-2.449.491-1.531,1.532Z" transform="translate(-282.287 -115.667)"/><path class="b" d="M532.2,413.639q55.893-1.7,111.815-.722a1.084,1.084,0,0,0,0-2.167q-55.908-1-111.815.722C530.8,411.515,530.8,413.682,532.2,413.639Z" transform="translate(-238.334 -165.208)"/><path class="b" d="M697.894,384.477a223.89,223.89,0,0,1,36.6,18.393c1.185.722,2.276-1.134,1.091-1.871A226.279,226.279,0,0,0,698.5,382.389c-1.293-.513-1.857,1.582-.571,2.088Z" transform="translate(-284.428 -157.415)"/><path class="b" d="M722.016,371.583a88.5,88.5,0,0,0-21.246,53.841c-.058,1.394,2.109,1.394,2.167,0a86.069,86.069,0,0,1,20.611-52.31C724.45,372.059,722.926,370.521,722.016,371.583Z" transform="translate(-285.418 -154.338)"/><path class="b" d="M329.817,402.664l80.744-1.055,9.283-.123c1.669,0,3.338-.058,5.006-.065a3.982,3.982,0,0,1,3.887,4.334c-.108,5.057-3.287,4.876-7.448,5.057l-10.034.455-40.86,1.8c-7.318.325-14.643.722-21.961.975-6.6.2-19.158-1.951-16.225-11.559.4-1.336-1.683-1.907-2.1-.578-1.445,4.725,1.113,9.521,5.23,12,5.844,3.511,13.545,2.319,20,2.03l50.164-2.276,12.18-.542c3.121-.144,7.462.491,10.33-.961,3.366-1.7,3.959-8.438,1.835-11.277-1.091-1.445-2.622-1.575-4.334-1.64-4.493-.173-9.066.123-13.567.181l-25.01.332-57.15.722a1.084,1.084,0,0,0,0,2.167Z" transform="translate(-182.149 -162.1)"/><g transform="translate(463.747 162.269)"><path class="f" d="M777.91,765.62c-1.82,1.141-3.9,1.784-5.779,2.789s-3.706,2.514-4.241,4.594a2.89,2.89,0,0,0,.094,1.965,3.815,3.815,0,0,0,2.023,1.6,30.7,30.7,0,0,0,24.28.274,31.981,31.981,0,0,1,4.19-1.661,27.219,27.219,0,0,1,5.367-.549,41.26,41.26,0,0,0,5.642-.722,4.963,4.963,0,0,0,2.557-1.062,4.747,4.747,0,0,0,1.149-2.76,22.72,22.72,0,0,0-3.612-16.1,5.44,5.44,0,0,0-1.575-1.669,6.076,6.076,0,0,0-2.507-.672c-3.612-.441-7.4-1.25-11.046-1.336-2.615-.058-3.93,1.185-5.779,2.984C784.853,757.124,782.621,762.68,777.91,765.62Z" transform="translate(-767.762 -421.839)"/><path class="f" d="M855.336,764.953c0,3.54.426,7.289,2.572,10.114a13.359,13.359,0,0,0,3.511,3.07c4.537,2.89,10.547,3.952,15.33,1.5a4.552,4.552,0,0,0,1.907-1.6c.722-1.257.34-2.825-.065-4.212L871.67,749.84c-4.472.686-11.046,1.17-15.019,3.439C853.769,754.919,855.336,761.789,855.336,764.953Z" transform="translate(-791.953 -421.706)"/><path class="g" d="M774.83,563.825c-.419,1.322-1.936,1.936-2.767,3.048-.975,1.308-.874,3.121-.52,4.71a12.454,12.454,0,0,0,3.171,6.249,7.492,7.492,0,0,0,6.5,2.211,5.418,5.418,0,0,0,4.414-4.862,9.2,9.2,0,0,0-.679-3.128l-4.927-14.246a.539.539,0,0,0-.889-.39c-1.163.549-3.5,1.127-4.176,2.333S775.322,562.518,774.83,563.825Z" transform="translate(-768.742 -368.262)"/><path class="f" d="M773,560.806c1.8-.282,3.374-1.336,5.057-2.03s3.793-.961,5.209.2c.4.332.795.787,1.322.78a51.716,51.716,0,0,0-3.236-10.287.8.8,0,0,0-.282-.4.816.816,0,0,0-.614,0l-4.862,1.271c-1.8.47-2.008.325-1.871,2.095C773.759,553.221,774.163,560.806,773,560.806Z" transform="translate(-769.216 -365.958)"/><path class="h" d="M771.143,422.83a6.848,6.848,0,0,0-.722,3.807,129.444,129.444,0,0,0,1.011,19.151c.224,1.517.506,3.034.65,4.566a52.645,52.645,0,0,1,.1,6.408l-.722,27.813c-.087,3.4-.26,7.058-2.362,9.731a4.653,4.653,0,0,0-.845,3.085c.549,6.979,1.7,13.9,2.853,20.8a12.852,12.852,0,0,1,11.66.556,128.343,128.343,0,0,0,5.989-35.4c.166-5.917-.087-11.869.824-17.714,1.524-9.839.9-19.931-.217-29.828-.354-3.135-1.105-6.364-3.114-8.792a13.328,13.328,0,0,0-7.224-4.161C776.352,422.151,773.961,422.874,771.143,422.83Z" transform="translate(-767.894 -330.853)"/><path class="e" d="M771.143,422.83a6.848,6.848,0,0,0-.722,3.807,129.444,129.444,0,0,0,1.011,19.151c.224,1.517.506,3.034.65,4.566a52.645,52.645,0,0,1,.1,6.408l-.722,27.813c-.087,3.4-.26,7.058-2.362,9.731a4.653,4.653,0,0,0-.845,3.085c.549,6.979,1.7,13.9,2.853,20.8a12.852,12.852,0,0,1,11.66.556,128.343,128.343,0,0,0,5.989-35.4c.166-5.917-.087-11.869.824-17.714,1.524-9.839.9-19.931-.217-29.828-.354-3.135-1.105-6.364-3.114-8.792a13.328,13.328,0,0,0-7.224-4.161C776.352,422.151,773.961,422.874,771.143,422.83Z" transform="translate(-767.894 -330.853)"/><path class="i" d="M783.572,530.851a127.585,127.585,0,0,0,7.6,73.86,20.032,20.032,0,0,1,1.763,5.461c.4,3.54-1.235,6.942-2.167,10.367-2.167,7.788-.917,16.081.47,24.049q.867,4.985,1.784,9.962c.6,3.236,1.178,6.755-.325,9.688,1.293,5.389,2.059,10.728,3.352,16.117a3.063,3.063,0,0,1,.123,1.322,3.894,3.894,0,0,1-1.322,1.77,7.9,7.9,0,0,0-2.016,7.564c3.3-2.37,7.9-1.539,11.674,0s7.484,3.612,11.559,3.612c-.592-4.782-1.163-9.8.6-14.289,1.026-2.6,2.832-5.057,2.781-7.838-.051-2.492-1.575-4.717-1.943-7.181a18.176,18.176,0,0,1,.173-4.595c.968-8.842-.13-17.771-1.228-26.6a15.9,15.9,0,0,0-1.214-5.057c-.513-1.04-1.279-2.037-1.264-3.2,0-1.351,1.091-2.449,1.5-3.735.722-2.37-.607-5.591,1.394-7.058,5.274-3.872,3.251-13.119,3.135-19.657q-.137-8.46-.722-16.9a72,72,0,0,1,3.988,29.142c-.231,3.236-.657,6.639.607,9.63.968,2.3,2.89,4.19,3.41,6.625a27.733,27.733,0,0,1,.166,4.587,4.726,4.726,0,0,0,1.914,3.973c.1,6.964.722,14.412.831,21.376a52.734,52.734,0,0,0,.867,10.619,13.533,13.533,0,0,1,.535,3.424,14.312,14.312,0,0,1-1.141,4.212,24.151,24.151,0,0,0,3.612,22.286c1.7-3.027,5.259-4.631,8.727-4.883s6.892.621,10.251,1.5a20.076,20.076,0,0,1,2.4-12.209,10,10,0,0,0,1.264-2.716c.39-1.835-.52-3.663-1.011-5.476-.8-2.89-.52-6-.332-9.023a142.781,142.781,0,0,0-1.336-30.284,25.65,25.65,0,0,0-1.38-5.779c-.26-.665-.578-1.3-.795-1.972a15.54,15.54,0,0,1-.578-3.7l-.831-11.559c-.585-8.1,2.073-16.1,3.93-24,.831-3.54,1.734-7.072,2.29-10.67.758-4.9.881-9.9,1.994-14.737,1-4.334,2.8-8.56,3.172-13,.578-6.885-2.283-13.538-5.057-19.852-1.156-2.6-5.527-2.341-8.337-2.8-19.931-3.273-40.925-3.294-59.722,4.082a14.862,14.862,0,0,0-5.136,3.547Z" transform="translate(-771.495 -358.217)"/><path class="g" d="M803.24,354.81l2.211,8.6a22.97,22.97,0,0,1,.99,6.076,4.486,4.486,0,0,1-.484,2.167,5.164,5.164,0,0,1-1.372,1.4c-1.51,1.149-2.557,3.829-4.284,4.623.889,1.546,2.117.542,3.72,1.315,2.825,1.373,5.411,3.345,8.474,4.024,2.89.636,5.924.036,8.792-.722a30.359,30.359,0,0,0,11.385-5.3c3.273-2.666,5.136-5.021,5.122-9.232-3.612.426-6.827-3.222-8.423-6.5a17.659,17.659,0,0,1-1.214-3.894l-1.936-8.517c-2.109.462-3.829,1.972-5.844,2.76a21.217,21.217,0,0,1-6.639.961,71.515,71.515,0,0,0-11.819,1.532c-.535.108-1.206.448-1.076.968" transform="translate(-776.794 -310.397)"/><path class="e" d="M803.24,354.81l2.211,8.6a22.97,22.97,0,0,1,.99,6.076,4.486,4.486,0,0,1-.484,2.167,5.164,5.164,0,0,1-1.372,1.4c-1.51,1.149-2.557,3.829-4.284,4.623.889,1.546,2.117.542,3.72,1.315,2.825,1.373,5.411,3.345,8.474,4.024,2.89.636,5.924.036,8.792-.722a30.359,30.359,0,0,0,11.385-5.3c3.273-2.666,5.136-5.021,5.122-9.232-3.612.426-6.827-3.222-8.423-6.5a17.659,17.659,0,0,1-1.214-3.894l-1.936-8.517c-2.109.462-3.829,1.972-5.844,2.76a21.217,21.217,0,0,1-6.639.961,71.515,71.515,0,0,0-11.819,1.532c-.535.108-1.206.448-1.076.968" transform="translate(-776.794 -310.397)"/><circle class="g" cx="19.129" cy="19.129" r="19.129" transform="translate(16.809 10.893)"/><path class="f" d="M816.264,375.611a17.338,17.338,0,0,1,4.334-5.779c2.694-2.362,6.379-4.277,7.015-7.8l5.837,6.8a3.142,3.142,0,0,1,.722,1.113,2.8,2.8,0,0,1-.549,2.247c-1.445,2.3-3.72,3.952-5.873,5.62A178.386,178.386,0,0,0,813.6,390.291a1.446,1.446,0,0,1-.759.462,1.366,1.366,0,0,1-.787-.224,32.862,32.862,0,0,1-10.092-8.207c-.209-.253-.47-.542-.809-.52a1.041,1.041,0,0,0-.542.282c-1.943,1.589-4.067,3.489-6.559,3.244,3.229-2.319,5.057-6.191,5.736-10.114a19.107,19.107,0,0,1,.823-3.952,4.125,4.125,0,0,1,2.818-2.673c-1.575,2.406-.5,5.815,1.618,7.759a15.951,15.951,0,0,0,7.166,3.475C814.668,380.285,815.39,377.5,816.264,375.611Z" transform="translate(-775.059 -314.055)"/><path class="f" d="M786.894,531.95c2.723.672,5.3,1.813,7.947,2.658a37.978,37.978,0,0,0,14.918,1.568,8.055,8.055,0,0,0,4.334-1.38c.339-.275.65-.6,1.011-.852a7.075,7.075,0,0,1,1.943-.8c6.625-2.073,12.173-6.545,17.555-10.923.173-.144.368-.325.354-.556a.723.723,0,0,0-.217-.412L831.908,518c-7.427,1.264-15.033.787-22.568.6a32.768,32.768,0,0,0-4.638.123c-1.488.173-2.955.549-4.421.867-5.57,1.214-11.262,1.676-16.9,2.471a2.608,2.608,0,0,0-1.12.347,2.523,2.523,0,0,0-.6.665l-1.979,2.781a8.751,8.751,0,0,0-1.662,3.186c-.462,2.167.506,2.89,2.348,2.608A17.151,17.151,0,0,1,786.894,531.95Z" transform="translate(-770.576 -357.351)"/><path class="h" d="M807.067,389.618a35.188,35.188,0,0,0-7.448-5.815,10.554,10.554,0,0,0-3.612-1.445,4.508,4.508,0,0,0-3.7.91c-.643.571-1.047,1.365-1.669,1.965a8.3,8.3,0,0,1-2.644,1.5,46.9,46.9,0,0,0-9.29,5.3,21.307,21.307,0,0,0-4.212,3.887c-3.273,4.19-3.764,9.89-3.677,15.207.065,3.7,3.612,6.444,6.054,9.211a67.878,67.878,0,0,1,6.2,8.669c1.315,2.081,2.687,4.335,2.521,6.812-.137,2.03-1.322,3.937-1.134,5.96.065.722.3,1.387.361,2.088.13,1.445-.441,2.89-.585,4.334-.2,2.044.47,4.074.506,6.133a19.505,19.505,0,0,1-.535,4.183c-1.387,6.6-3.128,13.242-2.774,19.982l-4,.722a3.381,3.381,0,0,1-.773,5.4c6.249,2.088,13,1.033,19.628,1.026,5.483,0,10.945.722,16.42.621s11.125-1.091,15.64-4.19c1.228-.838,2.355-1.82,3.648-2.55a18,18,0,0,1,5.526-1.806,54.834,54.834,0,0,1,10.836-.968c1.777,0,3.713.072,5.129-1,1.56-1.185,1.958-3.33,2.167-5.274.209-2.052.339-4.111.376-6.169a26.6,26.6,0,0,0-.253-4.8,31.41,31.41,0,0,0-.845-3.439l-2.723-9.594c-1.127-3.959.441-8.3.773-12.4a3.111,3.111,0,0,0-.65-2.716c-.267-.224-.636-.376-.722-.722a1.235,1.235,0,0,1,.173-.968,53.474,53.474,0,0,1,5.591-8.048,164.478,164.478,0,0,0,9.247-14.21,45.721,45.721,0,0,0-12.238-27.365,13.24,13.24,0,0,0-5.122-3.778,15.17,15.17,0,0,0-4.074-.657c-5.664-.383-11.559-.722-16.493-3.569a3.136,3.136,0,0,0-1.177-.5c-1.091-.123-1.885.954-2.594,1.806-1.82,2.167-4.5,3.41-6.856,5.006C813.67,381.332,810.239,385.435,807.067,389.618Z" transform="translate(-768.607 -316.692)"/><path class="h" d="M893.284,422.116c1.127,3.569,1.019,7.383,1.387,11.1a43.216,43.216,0,0,0,1.178,6.653,10.621,10.621,0,0,0,1.372,3.388,14.915,14.915,0,0,1,1.994,2.8,6.769,6.769,0,0,1,.3,2.254l.087,4.985a17.924,17.924,0,0,1-1.178,7.759l-3.114,9.471c-1.683,5.129-3.41,10.338-6.444,14.8a4.269,4.269,0,0,1-1.857,1.741,9.019,9.019,0,0,1-1.871.289,4.811,4.811,0,0,0-3.966,4.674,10.975,10.975,0,0,0-2.666-2.724l-6.336-5.057a27.081,27.081,0,0,0-7.058-4.573A19.136,19.136,0,0,0,878.417,463.6a7.225,7.225,0,0,1,.723-3.164c.527-.853,1.5-1.5,1.575-2.507.087-1.264-1.344-2.218-1.344-3.482,0-.838.621-1.532.9-2.319a5.822,5.822,0,0,0,0-2.969l-.874-4.855a3.706,3.706,0,0,0-.433-1.387,8.981,8.981,0,0,0-1.084-1.141c-1.5-1.683-.838-4.334,0-6.408a61.248,61.248,0,0,1,7.383-12.953,44.3,44.3,0,0,0,2.94-4.2c.766-1.329.939-3.171,1.748-4.334C890.987,416.611,892.4,419.305,893.284,422.116Z" transform="translate(-794.784 -328.448)"/><path class="f" d="M863.226,505.126a3.478,3.478,0,0,0-.824.867,7.3,7.3,0,0,1-3.273,2.333c.722.52,1.38,1.033,2.059,1.56a90.22,90.22,0,0,1,13.726,13.126c.455-1.625,3.179-1.51,3.843-3.063a3,3,0,0,0,.144-1.387,42.306,42.306,0,0,0-1.04-7.224,8.178,8.178,0,0,0-1.445-3.381,8.669,8.669,0,0,0-4.089-2.312C870.053,504.851,865.538,503.731,863.226,505.126Z" transform="translate(-793.124 -353.593)"/><path class="g" d="M847.811,512.352c-2.167,1.6-4.067,3.612-6.5,4.71-1.719.78-3.677,1.12-5.18,2.283A5.147,5.147,0,0,0,841.042,522a11.674,11.674,0,0,0,5.5-2.016c1.293-.795,2.81-1.719,4.219-1.163.217,1.1-.722,2.131-.722,3.244a3.27,3.27,0,0,0,1.835,2.507c4.334,2.8,9.911,2.565,15.077,2.239a1.359,1.359,0,0,0,.831-.246,1.308,1.308,0,0,0,.311-.954c.065-1.141.094-2.276.1-3.417a4.9,4.9,0,0,0-2.1-4.826,58.959,58.959,0,0,0-9.03-6.393C853.887,509.137,850.665,510.228,847.811,512.352Z" transform="translate(-786.74 -355.141)"/><path class="i" d="M824.794,326.091c-3.208.383-5.541,2.89-5.216,5.613s3.186,4.6,6.393,4.212,5.541-2.89,5.216-5.606S828,325.708,824.794,326.091Zm1.091,9.074c-2.716.325-5.136-1.271-5.418-3.569s1.7-4.421,4.414-4.746,5.136,1.271,5.418,3.569-1.705,4.421-4.414,4.746Z" transform="translate(-782.137 -304.065)"/><path class="i" d="M803.154,328.691c-3.208.383-5.541,2.89-5.216,5.606s3.186,4.6,6.393,4.219,5.541-2.89,5.216-5.613S806.362,328.308,803.154,328.691Zm1.091,9.066c-2.716.325-5.136-1.271-5.411-3.562s1.7-4.421,4.414-4.753,5.136,1.271,5.411,3.569S806.954,337.432,804.245,337.757Z" transform="translate(-776.13 -304.787)"/><path class="i" d="M663.169,259.64l6.971,1.488-.686,1.835-6.574-1.929Z" transform="translate(-647.754 -234.342)"/><path class="i" d="M714.6,253.18l-6.43,3.1,1.105,1.618,5.931-3.431Z" transform="translate(-660.326 -232.549)"/><path class="i" d="M687.31,260.835l4.891-.585-.253,1.214-4.2.282Z" transform="translate(-654.535 -234.511)"/><path class="j" d="M795.437,320.305a7.759,7.759,0,0,0,.722-3.157,6.748,6.748,0,0,1,.332-1.922,5.375,5.375,0,0,1,1.575-2.016,14.57,14.57,0,0,1,8.669-3.027,20.04,20.04,0,0,1,10.027,2.167,7.8,7.8,0,0,1,2.492,1.849c1.011,1.235,1.228,2.832,2.247,4.053a5.9,5.9,0,0,0,5.534,1.734c.354-1.257-.108-2.586.072-3.872a18.731,18.731,0,0,1,1.149-3.207c1.12-3.3-.513-7.13-3.879-9.1-1.178-.722-2.572-1.192-3.453-2.167a16.341,16.341,0,0,1-1.7-2.962c-1.611-2.579-5.779-3.785-8.951-2.593-1,.376-1.878.946-2.89,1.351a23.82,23.82,0,0,1-6.083,1.17,18.63,18.63,0,0,0-5.895,1.546,6.6,6.6,0,0,0-3.692,3.988c-.2.78-.152,1.589-.347,2.362-1,3.923-7.434,5.83-7.795,9.832a5.739,5.739,0,0,0,1.64,4.009c.679.8,2.3,2.947,3.453,3.258s2.023-.78,3.121-1.156C793.522,321.9,794.57,321.786,795.437,320.305Z" transform="translate(-772.147 -295.621)"/></g><path class="c" d="M912.81,682c0,36.294,22.771,65.667,50.909,65.667" transform="translate(-344.278 -240.606)"/><path class="b" d="M983.28,747.394c0-36.706,25.415-66.4,56.818-66.4" transform="translate(-363.84 -240.325)"/><path class="b" d="M938.35,686.56c0,34.481,14.521,62.38,32.458,62.38" transform="translate(-351.368 -241.871)"/><path class="c" d="M983.28,740.3c0-46.9,29.373-84.855,65.667-84.855" transform="translate(-363.84 -233.236)"/><ellipse class="a" cx="12.657" cy="2.138" rx="12.657" ry="2.138" transform="translate(604.58 515.333)"/><path class="k" d="M968.46,772.051s7.224-.224,9.391-1.77,11.1-3.4,11.645-.917,10.836,12.36,2.694,12.425-18.942-1.271-21.109-2.594S968.46,772.051,968.46,772.051Z" transform="translate(-359.726 -264.52)"/><path class="l" d="M992.343,782.419c-8.149.065-18.934-1.272-21.109-2.594-1.654-1-2.312-4.623-2.536-6.285h-.238s.455,5.823,2.63,7.145,12.96,2.658,21.109,2.593c2.355,0,3.164-.86,3.121-2.1C994.994,781.934,994.135,782.4,992.343,782.419Z" transform="translate(-359.726 -266.016)"/><path class="c" d="M148.31,711.36c0,28.9,18.111,52.245,40.5,52.245" transform="translate(-132.063 -248.756)"/><path class="b" d="M204.37,763.38c0-29.2,20.228-52.83,45.2-52.83" transform="translate(-147.624 -248.531)"/><path class="b" d="M168.62,715c0,27.452,11.559,49.63,25.826,49.63" transform="translate(-137.701 -249.766)"/><path class="c" d="M204.37,757.74c0-37.313,23.37-67.51,52.245-67.51" transform="translate(-147.624 -242.89)"/><ellipse class="a" cx="10.07" cy="1.705" rx="10.07" ry="1.705" transform="translate(44.92 521.423)"/><path class="k" d="M192.58,782.981s5.743-.181,7.47-1.445,8.842-2.709,9.269-.722,8.633,9.832,2.167,9.883-15.07-1.011-16.8-2.059S192.58,782.981,192.58,782.981Z" transform="translate(-144.352 -267.763)"/><path class="l" d="M211.579,791.285c-6.5.051-15.07-1.011-16.8-2.066-1.315-.795-1.835-3.677-2.016-5h-.188s.361,4.631,2.088,5.685,10.316,2.109,16.8,2.059c1.871,0,2.521-.679,2.485-1.669C213.689,790.873,212.974,791.242,211.579,791.285Z" transform="translate(-144.352 -268.98)"/></g></svg>