<svg id="Person" xmlns="http://www.w3.org/2000/svg" width="27.101" height="27.58" viewBox="0 0 27.101 27.58">
  <defs>
    <style>
      .cls-1 {
        fill: #0b132b;
      }

      .cls-2 {
        fill: #fff;
      }

      .cls-3 {
        fill: #5bc0be;
        opacity: 0;
      }
    </style>
  </defs>
  <path id="Pfad_71" data-name="Pfad 71" class="cls-1" d="M19.887,19.906a7.123,7.123,0,1,0-7.123-7.123A7.123,7.123,0,0,0,19.887,19.906Zm0-12.4A5.291,5.291,0,1,1,14.6,12.783a5.291,5.291,0,0,1,5.291-5.277Zm3.5,13.778H16.374A10.058,10.058,0,0,0,6.33,31.328v.978a.923.923,0,0,0,.923.923H19.5a.882.882,0,0,0,.276,0,.95.95,0,0,0,.276,0h12.4a.923.923,0,0,0,.978-.923v-.978A10.058,10.058,0,0,0,23.387,21.284ZM20.37,23.117l1.13,5.7-1.722,2.108-1.722-2.094,1.116-5.7ZM8.176,31.383a8.267,8.267,0,0,1,8.2-8.267H17.3l-1.13,5.773a.882.882,0,0,0,.193.758l1.378,1.736H8.176Zm23.422,0H21.761l1.378-1.736a.923.923,0,0,0,.193-.758l-1.144-5.773h1.144A8.267,8.267,0,0,1,31.6,31.383Z" transform="translate(-6.33 -5.66)"/>
  <rect id="Rechteck_56" data-name="Rechteck 56" class="cls-2" width="7.679" height="8.311" transform="translate(9.485 17.435)"/>
  <rect id="Rechteck_57" data-name="Rechteck 57" class="cls-3" width="7.679" height="8.311" transform="translate(9.485 17.435)"/>
</svg>
