<svg xmlns="http://www.w3.org/2000/svg" width="571.019" height="567.64" viewBox="0 0 571.019 567.64">
  <g id="Group_152" data-name="Group 152" transform="translate(-1233.605 -256.28)">
    <g id="Group_151" data-name="Group 151">
      <path id="Path_234" data-name="Path 234" d="M1597.937,430.334s6.309,5.889,7.595,9.782.863,31-.056,44.986c-.868,13.2-2.239,25.162,1.53,29.011,3.813,3.893,9.967,8.992,13.018,14.666a11.883,11.883,0,0,1,1.13,7.618c-.4,1.409-1.713.645-2.49-1.175s-1.8,2.679-4.456.247-3.413,4.435-6.136.847-7.884-11.7-7.884-11.7,4.365,6.836.372,8.329l-4.614-5.157a7.749,7.749,0,0,1-2.11-7.784c1.31-4.9,1.207-20.449-.809-28.418s-5.776-33.423-5.776-33.423l-2.887-16.53" fill="#fbb3b2"/>
      <path id="Path_235" data-name="Path 235" d="M1542.382,359.975l-10.3-4.114-1.031-22.334-24.738,7.731-2.577,18.717-7.891,3.938s2.568,16.686,23.268,16.171S1542.382,359.975,1542.382,359.975Z" fill="#fbb3b2"/>
      <path id="Path_236" data-name="Path 236" d="M1422.178,746.824l-7.494,24.825,7.322,3.751,12.574-21.982" fill="#fbb3b2"/>
      <path id="Path_237" data-name="Path 237" d="M1415.67,690.142l-5.746,25.287-8.228-3.314-.067-22.366" fill="#fbb3b2"/>
      <path id="Path_238" data-name="Path 238" d="M1408.561,819.284s3.444,6.28,7.792,3.9,10.737-6.2,11.322-10.293-5.7-10.387-5.7-10.387l-3.335-16.394s11.82-3.654,10.558-7.674-14.679-6.717-14.679-6.717-25.565,11.82-25.6,14.04S1406,816.194,1408.561,819.284Z" fill="#5bc0be"/>
      <path id="Path_239" data-name="Path 239" d="M1380.638,753.384s-6.869,2.03-8.274-2.725-3.249-11.967-.782-15.281,11.36-3.357,11.36-3.357l13.917-9.284s-5.812-10.922-2.084-12.885,15.149,5.577,15.149,5.577,9.813,26.4,8.276,28S1384.633,753,1380.638,753.384Z" fill="#5bc0be"/>
      <path id="Path_240" data-name="Path 240" d="M1563.429,523.6,1443.191,753.834s-10.094,3.9-26.874-12.005l95.045-221.319-81.578,71.551-9.8,99.468s-16.428.823-27.47-5.129c0,0-1.422-109.533,10.308-121.564s70.49-73.063,70.49-73.063Z" fill="#3c354c"/>
      <path id="Path_241" data-name="Path 241" d="M1401.658,699.34l10.719,5.3,2.476-10.9-13.214-.93Z" opacity="0.1" style="isolation: isolate"/>
      <path id="Path_242" data-name="Path 242" d="M1372.154,748.792c2.333,7.674,9.168,5.533,9.168,5.533,3.988-.451,35.886-8.928,37.4-10.556l-1.6-7.033Z" fill="#fff" stroke="#5bc0be" stroke-linecap="round" stroke-linejoin="round" stroke-width="2"/>
      <path id="Path_243" data-name="Path 243" d="M1419.509,755.953l10.771,5.155,3.985-7.139-12.2-6.1Z" opacity="0.1" style="isolation: isolate"/>
      <path id="Path_244" data-name="Path 244" d="M1416.317,741.829l8.07-18.79s16.464,12.607,27.987,13.211l-9.183,17.584S1432.489,757.622,1416.317,741.829Z" fill="#fff" stroke="#3c354c" stroke-linecap="round" stroke-linejoin="round" stroke-width="2"/>
      <path id="Path_245" data-name="Path 245" d="M1391.438,688.462l.995-20.425s19.832,6.059,30.839,2.6l-2.459,19.685S1412.108,697.608,1391.438,688.462Z" fill="#fff" stroke="#3c354c" stroke-linecap="round" stroke-linejoin="round" stroke-width="2"/>
      <path id="Path_246" data-name="Path 246" d="M1495.846,363.7s1.79,12.171,20.046,13.244,26.49-17.182,26.49-17.182,22.194,1.79,28.637,6.086,37.228,56.2,37.228,56.2-12.171,19.33-32.933,25.773l-11.454-19.688v100.23s-10.739,5.728-32.575-3.579-66.582-44.03-75.531-36.871l1.9-5.114s18.063-47.876,20.29-62.9c.735-4.953.254-6.93.254-6.93l-36.341,7c-6.085-3.222-6.954-41.74-6.954-41.74Z" fill="#addfde"/>
      <path id="Path_247" data-name="Path 247" d="M1431.413,382.169s-16.5-21.218-21.884-27.43-9.463-20.342-11.8-24.847c-2.485-4.785-4.685-7.838-8.283-8.778S1372.009,319,1372.009,319a4.36,4.36,0,0,0,1.645,3.288c1.644,1.175,11.018,3.289,11.018,3.289s-4.228,3.054-3.289,5.637-1.26,8.938,8.061,11.516c5.193,1.436,8.283,11.181,12.217,23.812s18.635,37.064,21.534,39.962,9.939,3.106,9.939,3.106" fill="#fbb3b2"/>
      <path id="Path_248" data-name="Path 248" d="M1455.754,487.913c-1.432,1.006,5,7.311,10.792,10.885l6.765-7.025S1460.313,484.714,1455.754,487.913Z" fill="#5bc0be"/>
      <path id="Path_249" data-name="Path 249" d="M1527.6,336.922l-22.3,11.688-1.565,11.365S1521.483,357.737,1527.6,336.922Z" opacity="0.1" style="isolation: isolate"/>
      <path id="Path_250" data-name="Path 250" d="M1536.448,326.447s-10.2,20.467-27.261,22.452c-4.447.518-10.906-2.16-12.181-6.452-.1-.325-1.708-4.538-1.8-4.884-1.285-4.861-3.486-12.7-3.5-21.173-.017-12.9.421-26.266,18.021-31.235s36.637,10.767,36.223,23.812" fill="#fbb3b2"/>
      <path id="Path_251" data-name="Path 251" d="M1523.837,305.443l-29.6-8.709-2.006,8.428S1506.237,313.049,1523.837,305.443Z" opacity="0.1" style="isolation: isolate"/>
      <path id="Path_252" data-name="Path 252" d="M1533.408,305.564s-32.965.985-41.7-8.371c-11.762-12.6-11.674-40.913,9.169-40.913,12.078,0,10.78,14.667,18.878,17.532,29.4,10.4,36.874,13.915,31.769,27.076C1547.976,310.038,1533.408,305.564,1533.408,305.564Z" fill="#5bc0be"/>
      <path id="Path_253" data-name="Path 253" d="M1549.156,303.841s.29,23.647-12.436,28.456c-8.629,3.261-1.739-20.039-3.312-26.733C1531.686,298.235,1546,298.865,1549.156,303.841Z" fill="#5bc0be"/>
      <path id="Path_254" data-name="Path 254" d="M1531.811,319.773s6.719-2.253,7.342,2.395c.989,7.375-4.828,8.851-7.881,6.509" fill="#fbb3b2"/>
      <path id="Path_255" data-name="Path 255" d="M1610.99,422.613l-4.321-5.992a105.072,105.072,0,0,1-35.132,26.881l3.85,5.565S1596.562,444.934,1610.99,422.613Z" fill="#fff" stroke="#addfde" stroke-linecap="round" stroke-linejoin="round" stroke-width="2"/>
      <path id="Path_256" data-name="Path 256" d="M1436.773,421.106l7.357-.674a105.057,105.057,0,0,1-5.281-43.92L1432.1,377S1424.889,397.332,1436.773,421.106Z" fill="#fff" stroke="#addfde" stroke-linecap="round" stroke-linejoin="round" stroke-width="2"/>
      <path id="Path_257" data-name="Path 257" d="M1478.2,412.97l-1.983-11.372L1455.6,417.323Z" fill="#5bc0be"/>
      <path id="Path_258" data-name="Path 258" d="M1563.86,428.133l-10.394-18.523,10.394,64.413Z" fill="#5bc0be"/>
      <path id="Path_259" data-name="Path 259" d="M1418.966,821.611c-7,3.915-10.444-2.365-10.444-2.365-2.563-3.089-19.682-31.308-19.643-33.528l6.029-3.96Z" fill="#fff" stroke="#5bc0be" stroke-linecap="round" stroke-linejoin="round" stroke-width="2"/>
      <path id="Path_260" data-name="Path 260" d="M1486.128,259.574s-9.5,9.29-5.139,22.386" fill="none" stroke="#5bc0be" stroke-linecap="round" stroke-linejoin="round" stroke-width="1"/>
    </g>
    <path id="Path_261" data-name="Path 261" d="M1804.624,442.36c-7.028,25.358-130.938,13.152-276.761-27.263s-258.338-93.734-251.31-119.092l-42.636,146.546c-7.028,25.358,105.487,78.678,251.309,119.092s269.733,52.621,276.761,27.263Z" fill="#5bc0be" opacity="0.3"/>
  </g>
</svg>
