<svg xmlns="http://www.w3.org/2000/svg" width="572.88" height="359.669" viewBox="0 0 572.88 359.669"><defs><style>.a{fill:#f2f2f2;}.b{fill:#3f3d56;}.c,.f{opacity:0.2;}.d{fill:#cbceda;}.e,.f{fill:#5bc0be;}.g{fill:#a0616a;}.h{opacity:0.1;}.i{fill:#3c354c;}.j{fill:#ffc1c7;}.k{fill:none;stroke:#3f3d56;stroke-miterlimit:10;stroke-width:4px;}.l{fill:#656380;}</style></defs><g transform="translate(0.023 -0.05)"><path class="a" d="M116.025,395.692l-3.043-1.892c-.29-.179-.576-.373-.866-.556a28.959,28.959,0,0,0,2.927-56.419l.15,11.93-6.555-12.98h-.082A28.964,28.964,0,0,0,78.28,363.352c-.029.556,0,1.1,0,1.645a34.636,34.636,0,0,1-5.723-8.452c-2.772-6.188-2.825-13.2-2.608-21.722.435-16.884,1.166-33.9,2.114-50.865a28.954,28.954,0,0,0,25.718-27.4c.039-.885.024-1.756,0-2.627a4.159,4.159,0,0,0-.034-.648c-.058-.842-.135-1.674-.266-2.5a2.2,2.2,0,0,0-.073-.4c-.116-.7-.261-1.384-.426-2.061-.063-.256-.126-.508-.194-.76-.2-.74-.426-1.451-.687-2.187-.087-.237-.184-.484-.281-.706-.2-.527-.426-1.05-.663-1.563-.126-.271-.247-.542-.377-.808-.039-.068-.063-.14-.1-.208h0a28.95,28.95,0,0,0-34-14.688l.194,15.529-6.483-12.83a28.819,28.819,0,0,0-13.812,31.209h-.058c.044.208.106.406.155.61.092.382.189.76.3,1.137q.21.726.45,1.451c.121.358.237.711.373,1.064.2.513.421,1.011.643,1.509.131.29.247.59.387.876q.552,1.122,1.2,2.192c.15.252.319.484.484.73.31.484.619.968.968,1.417.208.285.431.561.648.837.319.4.643.8.968,1.18.237.276.484.542.731.8.358.377.721.74,1.1,1.093.252.237.484.484.76.706.426.382.871.74,1.321,1.093.227.179.45.363.682.537q1.03.726,2.124,1.451c.135.082.285.15.421.232.614.358,1.234.7,1.872,1.011.276.135.556.256.837.382.522.232,1.05.46,1.592.668l.968.339c.532.179,1.074.348,1.621.484.319.087.643.179.968.256.59.14,1.195.256,1.8.363l.116.024q-.6,10.735-1.064,21.475a28.945,28.945,0,0,0-40.188-12.578l5.118,14.03L17.338,296.58a28.863,28.863,0,0,0-9.376,20,28.3,28.3,0,0,0,.735,7.978,28.95,28.95,0,0,0,53.245,7.886c0,.726-.048,1.451-.068,2.182-.194,7.518-.435,16.874,3.314,25.229,2.54,5.66,6.623,10.261,10.643,14.383,2.627,2.68,5.351,5.278,8.142,7.789a29.07,29.07,0,0,0,10.459,8.708c4.586,3.532,9.337,6.855,14.247,9.922l3.067,1.906c2.758,1.708,5.583,3.464,8.35,5.288-.484-.048-.968-.1-1.451-.126A28.974,28.974,0,0,0,90.133,426.6l18.093,14.722-19.9-4.615a28.974,28.974,0,0,0,41.552,26.047l-1.345,1.669q-1.335,1.659-2.637,3.3c-11.775,14.915-15.05,29.071-9.221,39.864l7.092-3.827c-5.675-10.508,2.859-23.957,8.452-31.04q1.277-1.611,2.593-3.241c7.523-9.347,16.047-19.942,15.839-32.936C150.32,416.95,131.327,405.165,116.025,395.692Z" transform="translate(-7.95 -154.612)"/><path class="a" d="M867.212,289.694,871,287.333c.363-.227.716-.484,1.079-.7a36.121,36.121,0,0,1-3.653-70.386l-.189,14.886,8.181-16.192h.1A36.139,36.139,0,0,1,914.3,249.356c.034.692,0,1.369,0,2.051a43.027,43.027,0,0,0,7.141-10.542c3.464-7.741,3.532-16.449,3.256-27.092-.542-21.069-1.451-42.3-2.637-63.458a36.119,36.119,0,0,1-32.085-34.189c-.048-1.1-.034-2.192,0-3.275a7.633,7.633,0,0,1,.044-.813c.068-1.05.169-2.09.324-3.111.024-.169.068-.334.092-.484q.222-1.306.537-2.574c.077-.314.155-.634.237-.968.256-.919.532-1.834.856-2.724.106-.3.232-.585.348-.88.261-.663.537-1.311.832-1.935.155-.334.3-.672.484-1.006.039-.082.077-.174.121-.256h0A36.09,36.09,0,0,1,936.267,79.78l-.242,19.351,8.089-16a35.931,35.931,0,0,1,17.228,38.935h.043c-.058.256-.14.484-.2.76-.116.484-.237.968-.368,1.417-.169.6-.363,1.195-.561,1.785-.15.445-.3.89-.484,1.33-.247.639-.522,1.263-.8,1.882-.165.363-.31.735-.484,1.093-.46.934-.968,1.848-1.495,2.733-.184.314-.4.61-.595.914-.387.6-.779,1.19-1.2,1.766-.261.358-.537.7-.808,1.045-.4.484-.8,1-1.224,1.476q-.44.484-.914,1c-.44.484-.9.919-1.364,1.359-.315.3-.624.6-.968.885-.537.484-1.089.919-1.655,1.359-.281.223-.556.46-.847.672-.856.629-1.737,1.229-2.651,1.785-.169.1-.353.189-.527.29q-1.142.677-2.332,1.263c-.344.169-.7.314-1.045.484-.653.3-1.311.576-1.984.832-.4.15-.793.29-1.19.426-.668.227-1.34.431-2.022.619-.4.111-.8.223-1.214.324-.74.174-1.49.319-2.25.45l-.15.029q.755,13.4,1.33,26.8a36.1,36.1,0,0,1,50.139-15.675l-6.381,17.494,13.135-12.612a35.993,35.993,0,0,1,11.761,24.925,35.29,35.29,0,0,1-.914,9.951,36.119,36.119,0,0,1-66.433,9.84c0,.9.063,1.819.087,2.724.242,9.381.542,21.054-4.131,31.475-3.169,7.068-8.268,12.8-13.309,17.944q-4.92,5.022-10.159,9.719a36.255,36.255,0,0,1-13.062,10.851c-5.723,4.407-11.65,8.553-17.774,12.385l-3.827,2.375c-3.44,2.129-6.962,4.32-10.421,6.594.61-.058,1.209-.126,1.829-.155A36.148,36.148,0,0,1,899.475,328.2L876.9,346.582l24.833-5.752a36.153,36.153,0,0,1-51.8,32.539c.561.7,1.117,1.393,1.679,2.085,1.108,1.379,2.216,2.753,3.295,4.117,14.688,18.6,18.776,36.284,11.5,49.733l-8.844-4.775c7.078-13.111-3.57-29.888-10.551-38.7-1.059-1.34-2.143-2.69-3.232-4.044-9.385-11.659-20.024-24.876-19.763-41.088C824.421,316.21,848.146,301.508,867.212,289.694Z" transform="translate(-429.226 -78.25)"/><ellipse class="b" cx="248.665" cy="13.304" rx="248.665" ry="13.304" transform="translate(33.998 333.11)"/><ellipse class="c" cx="222.54" cy="10.643" rx="222.54" ry="10.643" transform="translate(59.638 331.659)"/><path class="b" d="M578.066,247.738v255.7a3.488,3.488,0,0,1-3.488,3.488H158.723a3.483,3.483,0,0,1-3.483-3.488v-255.7a3.483,3.483,0,0,1,3.483-3.488H574.564a3.488,3.488,0,0,1,3.5,3.488Z" transform="translate(-83.996 -163.916)"/><path class="d" d="M578.066,246.577v7.832H155.24v-7.832a2.327,2.327,0,0,1,2.327-2.327H575.739a2.327,2.327,0,0,1,2.327,2.327Z" transform="translate(-83.996 -163.916)"/><circle class="e" cx="2.419" cy="2.419" r="2.419" transform="translate(76.566 82.753)"/><circle class="e" cx="2.419" cy="2.419" r="2.419" transform="translate(83.339 82.753)"/><circle class="e" cx="2.419" cy="2.419" r="2.419" transform="translate(90.112 82.753)"/><rect class="f" width="128.686" height="6.773" transform="translate(218.319 115.892)"/><rect class="f" width="99.176" height="116.108" transform="translate(111.403 184.589)"/><rect class="f" width="99.176" height="116.108" transform="translate(232.833 184.589)"/><rect class="f" width="99.176" height="116.108" transform="translate(453.438 300.697) rotate(180)"/><path class="g" d="M322.014,572.569c-.3,1.746-2.022,2.845-3.653,3.527s-3.454,1.248-4.5,2.675c-1.408,1.935-.818,4.707.484,6.715a23.155,23.155,0,0,0,5.9,5.646,10.642,10.642,0,0,0,3.193,1.863,9.492,9.492,0,0,0,2.719.29,49.583,49.583,0,0,0,8.79-.789c3.72-.677,7.7-2.032,9.676-5.264,1.606-2.646,1.5-5.951,1.35-9.047a11.294,11.294,0,0,1-4.809-2.027c-1.761-1.093-3.662-2.366-4.233-4.354-.6-2.085.358-4.659-1.069-6.289-.968-1.1-2.608-1.234-4.069-1.272q-2.975-.077-5.946-.082c-1.364,0-4.412-.571-5.534.339C318.246,566.15,322.387,570.354,322.014,572.569Z" transform="translate(-165.46 -328.969)"/><path class="h" d="M322.014,572.569c-.3,1.746-2.022,2.845-3.653,3.527s-3.454,1.248-4.5,2.675c-1.408,1.935-.818,4.707.484,6.715a23.155,23.155,0,0,0,5.9,5.646,10.642,10.642,0,0,0,3.193,1.863,9.492,9.492,0,0,0,2.719.29,49.583,49.583,0,0,0,8.79-.789c3.72-.677,7.7-2.032,9.676-5.264,1.606-2.646,1.5-5.951,1.35-9.047a11.294,11.294,0,0,1-4.809-2.027c-1.761-1.093-3.662-2.366-4.233-4.354-.6-2.085.358-4.659-1.069-6.289-.968-1.1-2.608-1.234-4.069-1.272q-2.975-.077-5.946-.082c-1.364,0-4.412-.571-5.534.339C318.246,566.15,322.387,570.354,322.014,572.569Z" transform="translate(-165.46 -328.969)"/><circle class="g" cx="14.189" cy="14.189" r="14.189" transform="translate(149.124 214.225)"/><path class="a" d="M342.073,603.938a6.116,6.116,0,0,1-.8,2.419,4.134,4.134,0,0,1-.435.561,12.611,12.611,0,0,1-2.966,2.066c-2.9,1.766-6.159,4.064-6.7,7.426a25.442,25.442,0,0,1-.731,3.1c-.677,2.3-1.563,4.567-2.08,6.87a15.616,15.616,0,0,0-.431,4.078,12.374,12.374,0,0,0,.116,1.282c.46,3.261,2.133,6.188,4.1,8.969.213.3.426.6.643.895l.14.189H286.617c.077-.3.155-.585.227-.88a1.382,1.382,0,0,1,.034-.135c.46-1.843.861-3.7,1.142-5.563a35.414,35.414,0,0,0,.431-5.012c0-1.451.319-3.057,1.534-3.87.082-.3.16-.6.237-.89a27.648,27.648,0,0,0-.068-13.367c-.068-.271-.145-.542-.218-.813-.034-.121-.073-.242-.106-.363a39.629,39.629,0,0,1-1.026-3.923c-.285-1.582-.348-3.266-1.19-4.63s-2.308-2.163-3.609-3.087A8.273,8.273,0,0,1,282.3,597.7h0a3.813,3.813,0,0,1-.919-2.225,3.289,3.289,0,0,1,.053-.726,5.568,5.568,0,0,1,1.476-2.637c2.941-3.237,7.436-4.6,11.853-4.654h0c.682,0,1.359,0,2.032.058a5.722,5.722,0,0,1,2.279.513,3.459,3.459,0,0,1,1.137.939,5.631,5.631,0,0,1,.968,1.829,10.16,10.16,0,0,1,.387,1.635c.271,1.727.329,3.565,1.238,5.056,1.65,2.7,5.409,3.193,8.515,2.608a19.206,19.206,0,0,0,13.173-9.676,17.782,17.782,0,0,1,.968-1.756,4.388,4.388,0,0,1,.658-.779,27,27,0,0,1,11.79,5.322,12.878,12.878,0,0,1,2.8,2.9A11.465,11.465,0,0,1,342.073,603.938Z" transform="translate(-149.109 -341.087)"/><path class="g" d="M348.846,640.656a13.623,13.623,0,0,1-1.775,3.8,9.155,9.155,0,0,1-2.051,2.622c-1.717,1.35-4.093,1.321-6.289,1.195h-.174l-1.089-.063-6.246-.372a35.2,35.2,0,0,1-4.935-.527c-.435-.087-.866-.194-1.3-.31-2.419-.648-4.785-1.616-7.286-1.756-.726-.044-1.451,0-2.192,0h-.2a10.9,10.9,0,0,1-1.453-.1c-.791-.116-1.57-.367-2.378-.406-2.071-.106-3.9,1.137-5.665,2.269l-.484.3a21.77,21.77,0,0,1-4.006,1.993h-8.389a2.77,2.77,0,0,1-.392-.363,3.014,3.014,0,0,1-.377-.518c-.024-.044-.048-.087-.068-.131a4.412,4.412,0,0,1,0-3.73,7.3,7.3,0,0,1,1.224-1.838,16.934,16.934,0,0,1,1.771-1.664,25.258,25.258,0,0,1,11.18-5.805c.29-.053.585-.1.876-.14a38.833,38.833,0,0,1,6.289-.208l1.969.039,8.249.169h.227c3.314.063,6.8.087,9.792-1.234a11.5,11.5,0,0,0,1.113-.571,2.1,2.1,0,0,0,.769-.668,2.308,2.308,0,0,0,.227-1.258l-.029-4.354-.058-8.394h0q0-3.091-.039-6.178a4.243,4.243,0,0,1,1.185-3.517c1.2-1.514,4.141-6.86,6.221-6.947a1.675,1.675,0,0,1,1.04.29h0c1.771,1.18,1.78,5.655,1.824,7.165q.073,2.5.218,5a169.748,169.748,0,0,0,2.419,20.319A14.247,14.247,0,0,1,348.846,640.656Z" transform="translate(-154.431 -348.59)"/><path class="h" d="M348.846,640.656a13.623,13.623,0,0,1-1.775,3.8,9.155,9.155,0,0,1-2.051,2.622c-1.717,1.35-4.093,1.321-6.289,1.195h-.174l-1.089-.063-6.246-.372a35.2,35.2,0,0,1-4.935-.527c-.435-.087-.866-.194-1.3-.31-2.419-.648-4.785-1.616-7.286-1.756-.726-.044-1.451,0-2.192,0h-.2a10.9,10.9,0,0,1-1.453-.1c-.791-.116-1.57-.367-2.378-.406-2.071-.106-3.9,1.137-5.665,2.269l-.484.3a21.77,21.77,0,0,1-4.006,1.993h-8.389a2.77,2.77,0,0,1-.392-.363,3.014,3.014,0,0,1-.377-.518c-.024-.044-.048-.087-.068-.131a4.412,4.412,0,0,1,0-3.73,7.3,7.3,0,0,1,1.224-1.838,16.934,16.934,0,0,1,1.771-1.664,25.258,25.258,0,0,1,11.18-5.805c.29-.053.585-.1.876-.14a38.833,38.833,0,0,1,6.289-.208l1.969.039,8.249.169h.227c3.314.063,6.8.087,9.792-1.234a11.5,11.5,0,0,0,1.113-.571,2.1,2.1,0,0,0,.769-.668,2.308,2.308,0,0,0,.227-1.258l-.029-4.354-.058-8.394h0q0-3.091-.039-6.178a4.243,4.243,0,0,1,1.185-3.517c1.2-1.514,4.141-6.86,6.221-6.947a1.675,1.675,0,0,1,1.04.29h0c1.771,1.18,1.78,5.655,1.824,7.165q.073,2.5.218,5a169.748,169.748,0,0,0,2.419,20.319A14.247,14.247,0,0,1,348.846,640.656Z" transform="translate(-154.431 -348.59)"/><path class="i" d="M313.328,502.945c-1.229.184-2.588.513-3.256,1.558a7.574,7.574,0,0,0-.663,2.791,6.193,6.193,0,0,1-2.38,3.807c-1.016.75-2.245,1.171-3.295,1.872a3.564,3.564,0,0,0-1.838,3.106c.121,1.1,1,1.935,1.408,2.97.76,1.887-.135,3.991-.968,5.849s-1.616,4.044-.663,5.839c1.011,1.892,3.619,2.608,4.354,4.615.914,2.419-1.451,5-1.147,7.576.261,2.119,2.351,3.633,4.465,3.943a3.617,3.617,0,0,0,2.9-.629,3.8,3.8,0,0,0,1.045-2.791c.131-3.938-2.109-7.552-2.762-11.441a6.139,6.139,0,0,1,.353-3.812c.377-.731.968-1.33,1.3-2.09.653-1.582-.087-3.493.614-5.056a13.232,13.232,0,0,1,1.369-1.935,2.285,2.285,0,0,0,.4-2.23,7.814,7.814,0,0,1,2.878,3.27c.914-.184.89-2.148,1.785-1.867.252.082.4.348.561.556a2.52,2.52,0,0,0,2.68.706,5.268,5.268,0,0,0,2.361-1.7l1.529,1.9a1.746,1.746,0,0,1,1.679-1.064,4.035,4.035,0,0,1,1.984.682c2.9,1.737,5.08,5.293,3.967,8.486a35.281,35.281,0,0,1-2.1,3.778c-.648,1.3-.813,3.038.223,4.044a8.048,8.048,0,0,1,.668.61c.76.895.281,2.259.508,3.387.4,2.075,2.849,2.9,4.91,3.386,1.451.329,3.178.576,4.194-.484,1.113-1.161.614-3.062-.058-4.523s-1.451-3.149-.731-4.581,2.835-1.935,3.595-3.43c.968-1.9-.74-3.986-1.422-6.009-.934-2.767.106-5.873-.658-8.708a12.152,12.152,0,0,0-2.138-3.928,25.446,25.446,0,0,0-8.326-7.591,16.144,16.144,0,0,0-9.869-1.514C319.642,502.689,316.478,502.476,313.328,502.945Z" transform="translate(-159.362 -297.031)"/><path class="a" d="M379.149,618.121a1.171,1.171,0,0,1-.556-.769q-1.611-4.528-3.019-9.119a3.546,3.546,0,0,1-.227-1.7,3.3,3.3,0,0,1,1.3-1.766,19.35,19.35,0,0,1,5.3-3.106c1.393-.547,3.449-1.519,4.838-.634,1.722,1.1-.116,3.87-.745,5.322a55.2,55.2,0,0,1-2.9,5.805C382.8,612.736,379.59,618.3,379.149,618.121Z" transform="translate(-197.607 -347.907)"/><path class="g" d="M328.115,648.238a2.9,2.9,0,0,1-.455.648,1.481,1.481,0,0,1-.174.174,2.026,2.026,0,0,1-.218.189h-8.413a21.77,21.77,0,0,1-4.006-1.993l-.484-.3c-1.766-1.132-3.595-2.375-5.665-2.269-.808.039-1.587.29-2.38.406a10.889,10.889,0,0,1-1.451.1h-.2c-.731,0-1.451-.034-2.192,0-2.5.14-4.862,1.108-7.286,1.756-.431.116-.861.223-1.3.31a35.21,35.21,0,0,1-4.935.527l-7.334.435h-.174c-2.192.126-4.567.155-6.289-1.195a9.153,9.153,0,0,1-2.051-2.622,13.622,13.622,0,0,1-1.775-3.8,14.162,14.162,0,0,1,.276-5.917,170.414,170.414,0,0,0,2.627-25.321c.044-1.514.053-6,1.834-7.17a1.543,1.543,0,0,1,.672-.261h0a1.728,1.728,0,0,1,.358,0c2.08.087,5.017,5.433,6.221,6.947a4.243,4.243,0,0,1,1.185,3.517q0,2.98-.039,5.97v.271q-.034,6.357-.082,12.709a2.308,2.308,0,0,0,.227,1.258,1.382,1.382,0,0,0,.252.3,3.207,3.207,0,0,0,.518.363c3.217,1.9,7.17,1.877,10.9,1.8h.227l8.248-.169,1.969-.039a38.825,38.825,0,0,1,6.289.208c.29.039.585.087.876.14a22.777,22.777,0,0,1,8.853,4q1.21.856,2.351,1.809a10.075,10.075,0,0,1,2.995,3.5A4.412,4.412,0,0,1,328.115,648.238Z" transform="translate(-143.81 -348.552)"/><path class="a" d="M290.373,618.121a1.186,1.186,0,0,0,.556-.769q1.611-4.528,3.019-9.119a3.6,3.6,0,0,0,.223-1.7,3.3,3.3,0,0,0-1.3-1.766,19.226,19.226,0,0,0-5.293-3.106c-1.393-.547-3.445-1.519-4.838-.634-1.722,1.1.111,3.87.745,5.322a54.238,54.238,0,0,0,2.9,5.805C286.72,612.736,289.932,618.3,290.373,618.121Z" transform="translate(-149.444 -347.907)"/><path class="i" d="M827.747,508.017c2.878-.7,5.114,4.064,8.011,3.5,1.592-.31,2.82-2.2,4.431-2.056,1.833.16,2.617,2.666,3.556,4.5a8.315,8.315,0,0,0,8.1,4.712c1-1.316.808-3.338.3-4.983s-1.282-3.241-1.3-4.993c-.024-2.317,1.248-4.881.1-6.773-.885-1.451-2.695-1.567-4.025-2.462a16.675,16.675,0,0,1-2.641-2.816,8.733,8.733,0,0,0-5.385-2.83,15.929,15.929,0,0,0-5.128.542l-7.915,1.713a2.2,2.2,0,0,0-1.234.566,4.264,4.264,0,0,0-.639,1.621c-.75,2.458-3.1,3.609-5.022,4.973s-3.744,4.064-2.685,6.362c.6,1.3,2.013,2.1,2.162,3.565.131,1.306-.813,2.375-1.582,3.343-3.266,4.093,4.054,6.221,5.805,3.445C824.6,516.885,823.63,509.023,827.747,508.017Z" transform="translate(-425.068 -292.717)"/><path class="g" d="M828.745,566.054a23.434,23.434,0,0,0-2.133,2.627,6.042,6.042,0,0,0-.319,4.533,17.125,17.125,0,0,0,2.066,4.161,24.189,24.189,0,0,0,3.628,4.838,8.829,8.829,0,0,0,5.322,2.641,12.534,12.534,0,0,0,6.183-1.664,6.773,6.773,0,0,0,2.23-1.451,6.912,6.912,0,0,0,1.084-1.969l1.679-4.02a11.074,11.074,0,0,0,.968-3.086,11.4,11.4,0,0,0-.968-4.9l-3.072-8.452a2.854,2.854,0,0,0-.735-1.282,2.773,2.773,0,0,0-1.132-.484,32.854,32.854,0,0,0-5.936-.968c-1.49-.1-4.872-.629-6.173.213-1.195.779-.7,2.762-.837,4.044a10.242,10.242,0,0,1-1.853,5.22Z" transform="translate(-430.25 -325.012)"/><path class="h" d="M828.745,566.054a23.434,23.434,0,0,0-2.133,2.627,6.042,6.042,0,0,0-.319,4.533,17.125,17.125,0,0,0,2.066,4.161,24.189,24.189,0,0,0,3.628,4.838,8.829,8.829,0,0,0,5.322,2.641,12.534,12.534,0,0,0,6.183-1.664,6.773,6.773,0,0,0,2.23-1.451,6.912,6.912,0,0,0,1.084-1.969l1.679-4.02a11.074,11.074,0,0,0,.968-3.086,11.4,11.4,0,0,0-.968-4.9l-3.072-8.452a2.854,2.854,0,0,0-.735-1.282,2.773,2.773,0,0,0-1.132-.484,32.854,32.854,0,0,0-5.936-.968c-1.49-.1-4.872-.629-6.173.213-1.195.779-.7,2.762-.837,4.044a10.242,10.242,0,0,1-1.853,5.22Z" transform="translate(-430.25 -325.012)"/><circle class="g" cx="13.401" cy="13.401" r="13.401" transform="translate(395.147 212.252)"/><path class="i" d="M841.1,596.419c.029,3.7-1.388,7.257-2.854,10.643s-3.328,6.729-4.76,10.208c-.116.281-.227.566-.339.851q-3.7,9.55-6.541,19.395l-.14.484H784.913c1.9-7.257,3.522-14.513-1.026-19.521-.14-.155-.281-.315-.416-.484-2.975-3.585-4.311-8.476-7.847-11.524a8.7,8.7,0,0,1-2.259-2.274,4.131,4.131,0,0,1-.426-1.887,12.8,12.8,0,0,1,.106-1.722c.348-3.145.8-6.444,2.695-8.979a13.264,13.264,0,0,1,3.072-2.854,24.514,24.514,0,0,1,8.568-3.827c3.464-.793,7.286-.91,10.111-3.072a11.957,11.957,0,0,1,1.935-1.451l.194-.082a2.012,2.012,0,0,1,2.085.223,2.868,2.868,0,0,1,.7,1.451q.769,2.816,1.543,5.631a5.752,5.752,0,0,0,1.166,2.535c1.369,1.422,3.986,1.253,5.051,2.9.639,1,2.317-.164,3.048-1.093a41.031,41.031,0,0,0,4.572-7.228,11.611,11.611,0,0,1,1.693-2.82,3.831,3.831,0,0,1,1.867-1.132,2.516,2.516,0,0,1,1.074-.029,5.054,5.054,0,0,1,2.521,1.867,56.6,56.6,0,0,0,14.872,11.828,2.463,2.463,0,0,1,1.089.9,1.863,1.863,0,0,1,.184.779A1.462,1.462,0,0,1,841.1,596.419Z" transform="translate(-402.862 -337.304)"/><path class="i" d="M833.537,511.616c2.24-.484,3.977,2.733,6.231,2.351,1.238-.2,2.2-1.451,3.445-1.379,1.427.106,2.037,1.79,2.767,3.019a6.691,6.691,0,0,0,6.289,3.169,3.391,3.391,0,0,0,.232-3.348,10.724,10.724,0,0,1-1.016-3.353c0-1.563.968-3.285.077-4.557-.687-.968-2.095-1.055-3.13-1.655a13.105,13.105,0,0,1-2.056-1.892,7.155,7.155,0,0,0-4.185-1.9,14.235,14.235,0,0,0-3.986.363l-6.154,1.151a1.819,1.819,0,0,0-.968.377,2.666,2.666,0,0,0-.484,1.089c-.585,1.655-2.419,2.419-3.9,3.343s-2.9,2.733-2.09,4.277c.484.876,1.563,1.413,1.679,2.419.106.876-.629,1.6-1.229,2.245-2.535,2.748,3.154,4.18,4.523,2.313C831.094,517.576,830.335,512.293,833.537,511.616Z" transform="translate(-429.411 -296.999)"/><path class="i" d="M910.137,650.725H898.821c.184-4.635-1.7-9.342-1.935-14.068a34.813,34.813,0,0,0-.3-5.322,11.663,11.663,0,0,0-.363-1.34c-.286-.895-.634-1.775-.9-2.675a30.937,30.937,0,0,1-.822-9.332q.077-5.191.165-10.372c0-.9-.266-2.225.552-2.6,1.843-.851,3.759.837,5.452,1.935,1.016.677,2.177,1.209,3.164,1.935a5.912,5.912,0,0,1,1.5,1.5,8.409,8.409,0,0,1,1,2.608q2.056,7.852,3.58,15.834a51.384,51.384,0,0,1,.968,7.015C911.182,640.793,910.152,645.791,910.137,650.725Z" transform="translate(-465.606 -350.029)"/><path class="i" d="M768.524,654.038a8.713,8.713,0,0,0-.934,3.706,5.765,5.765,0,0,0,.387,1.684H757.726a37.819,37.819,0,0,1-1.161-5.322,39.973,39.973,0,0,1,.237-10.58,38.62,38.62,0,0,1,1.776-8.016c1.19-3.333,3.072-6.352,4.673-9.487.377-.73.721-1.553,1.122-2.279.861-1.592,1.974-2.762,4.19-1.693,5.51,2.656,7.876,11.959,6.342,17.377a.139.139,0,0,1,0,.044,26.819,26.819,0,0,1-1.635,4Q770.774,648.707,768.524,654.038Z" transform="translate(-394.277 -358.731)"/><path class="b" d="M588.5,508.243a4.9,4.9,0,0,1,2.588,2.2,20.6,20.6,0,0,1,.726,2.956c.634,2.046,2.54,3.386,3.725,5.177,1.606,2.419,1.795,5.5,1.684,8.4s-.484,5.863.242,8.684c.343,1.374.929,2.68,1.166,4.078.285,1.693.048,3.464.484,5.128a13.317,13.317,0,0,0,2.158,4.127l3.764,5.5A43.451,43.451,0,0,1,600.068,553a8.912,8.912,0,0,0,2.685,4.059l-2.719-3.29a7.8,7.8,0,0,0-2.027-1.935,11.022,11.022,0,0,0-3.3-.885,7.675,7.675,0,0,1-5.365-3.478c-1.408-2.583-.484-5.83-1.292-8.665-.576-2.071-2-3.778-2.975-5.684-2.221-4.32-2.085-9.414-2.782-14.223a43.821,43.821,0,0,1-.764-6.134c0-1.524.15-4.417,1.746-5.2C584.66,506.913,587.214,507.7,588.5,508.243Z" transform="translate(-304.054 -299.716)"/><path class="j" d="M575.118,571.248c.227,2.525.755,5.505,3.057,6.565,1.3.6,2.816.377,4.228.61a8.857,8.857,0,0,1,6.1,4.886,21.375,21.375,0,0,1,1.935,7.823c.363,3.362.484,7.015-1.369,9.85a11.37,11.37,0,0,1-6.725,4.407,18.766,18.766,0,0,1-15.66-2.9,34.864,34.864,0,0,1-5.762-5.694c-3.836-4.465-7.7-9.361-8.486-15.2a1.882,1.882,0,0,1,.484-1.858,2.027,2.027,0,0,1,1.234-.247l3.677.068a3.391,3.391,0,0,0,2.622-.7,3.192,3.192,0,0,0,.571-2.419q-.14-5.322-.281-10.667a1.534,1.534,0,0,1,.242-1.079,1.422,1.422,0,0,1,.847-.363c2.027-.344,4.146,0,6.13-.552,1.887-.518,4.838-2.685,6.236-.46C575.365,565.181,574.939,569.1,575.118,571.248Z" transform="translate(-289.011 -328.116)"/><path class="h" d="M575.118,571.248c.227,2.525.755,5.505,3.057,6.565,1.3.6,2.816.377,4.228.61a8.857,8.857,0,0,1,6.1,4.886,21.375,21.375,0,0,1,1.935,7.823c.363,3.362.484,7.015-1.369,9.85a11.37,11.37,0,0,1-6.725,4.407,18.766,18.766,0,0,1-15.66-2.9,34.864,34.864,0,0,1-5.762-5.694c-3.836-4.465-7.7-9.361-8.486-15.2a1.882,1.882,0,0,1,.484-1.858,2.027,2.027,0,0,1,1.234-.247l3.677.068a3.391,3.391,0,0,0,2.622-.7,3.192,3.192,0,0,0,.571-2.419q-.14-5.322-.281-10.667a1.534,1.534,0,0,1,.242-1.079,1.422,1.422,0,0,1,.847-.363c2.027-.344,4.146,0,6.13-.552,1.887-.518,4.838-2.685,6.236-.46C575.365,565.181,574.939,569.1,575.118,571.248Z" transform="translate(-289.011 -328.116)"/><circle class="j" cx="14.054" cy="14.054" r="14.054" transform="translate(262.793 214.332)"/><path class="e" d="M591.371,631a13.1,13.1,0,0,1-.4,1.7,39.889,39.889,0,0,1-1.548,3.817c-.223.518-.431,1.035-.61,1.567-.14.416-.261.842-.368,1.268s-.232,1-.319,1.509c-.131.75-.227,1.509-.3,2.269H551.145a22.861,22.861,0,0,0-.208-5.563,36.6,36.6,0,0,0-2.264-7.378c-2.337-5.989-4.949-12.095-6.386-18.34v-.024a36.451,36.451,0,0,1-.89-12.4c.029-.242.063-.484.1-.735a18.938,18.938,0,0,1,.353-1.867,10.289,10.289,0,0,1,2.337-4.731c1.645-1.771,4.427-2.646,6.56-1.514a6.645,6.645,0,0,1,2.724,3.232c.406.851.75,1.751,1.108,2.608a26.608,26.608,0,0,0,5.554,8.3,18.408,18.408,0,0,0,1.413,1.34c.489.426.914.784,1.393,1.151,1.553,1.195,3.425,2.709,5.452,2.762,1.176.034,2.375,0,3.59,0,1.064,0,2.138-.044,3.2,0,2.269.044,4.838-.6,5.936-2.588a7.936,7.936,0,0,0,.484-4.567q-.167-1.814-.339-3.633v-.189c-.077-.876-.16-1.742-.242-2.617h0c-.039-.421-.077-.847-.121-1.268h0l-.087-.939q.6-.068,1.219-.116a9.114,9.114,0,0,1,5.283.784,7.024,7.024,0,0,1,3.009,3.953,15.878,15.878,0,0,1,.755,3.628c.542,5.491-.334,11.03-.034,16.536C591.231,622.929,592.073,627.065,591.371,631Z" transform="translate(-283.243 -342.43)"/><path class="j" d="M650.026,685.43H638.933c-.092-1.258-.164-2.516-.208-3.778-.039-.871-.068-1.746-.082-2.617q-.073-3.522.058-7.025a15.844,15.844,0,0,0,7.136,2.037,13.667,13.667,0,0,1,2.419,3.836,18.621,18.621,0,0,1,.827,2.375.069.069,0,0,1,0,.034A31.752,31.752,0,0,1,650.026,685.43Z" transform="translate(-333.523 -384.733)"/><path class="e" d="M646.59,644.747a51.62,51.62,0,0,0-12.433,1.645,26.923,26.923,0,0,1,0-8.079l1.795-18.485c.131-1.369-.121-13.938,2.53-11.717.968.818,2.206,8.166,2.511,9.347.46,1.785.822,3.59,1.146,5.4.663,3.715,1.113,7.46,1.756,11.18C644.079,635.11,645.632,644.757,646.59,644.747Z" transform="translate(-331.059 -351.612)"/><path class="b" d="M555.144,508.009a2.418,2.418,0,0,0-.29-1.263,2.1,2.1,0,0,0-1.5-.793c-2.027-.314-4.252.484-6.086-.426-.968-.484-1.7-1.451-2.666-1.988-2.283-1.292-5.167,0-7.189,1.674a20.986,20.986,0,0,0-6.739,10.266c-.9,3.106-1.263,6.739-3.836,8.708-1.064.813-2.419,1.263-3.217,2.346a6,6,0,0,0-.852,2.9,19.086,19.086,0,0,0,.131,7.073c.484,1.708,1.379,3.256,1.935,4.935a13.1,13.1,0,0,1-3.57,13.633,4.247,4.247,0,0,0,3.145.547,2.7,2.7,0,0,1-.455,1.388c3.29-.106,6.149-3.309,9.366-2.608,2.458.532,3.827,3.067,5.66,4.789a8.5,8.5,0,0,0,8.994,1.833c2.966-1.316,4.765-5.06,3.507-8.05-1.451-3.386-5.849-4.746-7.383-8.108-1.185-2.608-.3-5.646-.561-8.5-.218-2.448-1.272-4.727-1.935-7.092s-.871-5.07.484-7.131c1.422-2.187,4.146-3.038,6.623-3.87C554.283,516.48,555.357,513.65,555.144,508.009Z" transform="translate(-272.941 -297.494)"/><path class="j" d="M570.622,594.035c.4-1.935.8-4.049.092-5.922-1.316-3.493-5.617-4.581-8.592-6.831a11.611,11.611,0,0,1-3.822-5.094c-.542-1.417-.614-3.386.716-4.1a3.227,3.227,0,0,1,1.659-.29c4.635.106,8.882,2.627,12.438,5.607a16.981,16.981,0,0,1,5.06,6.217,20.3,20.3,0,0,1,1.176,5.588l.726,6.289a98.6,98.6,0,0,1,.837,10.871,47.956,47.956,0,0,1-.392,6.236,9.339,9.339,0,0,1-1.321,4.185c-1.606,2.24-4.693,2.743-7.45,2.82a12.869,12.869,0,0,1-3.111-.2c-4.581-1-8.055-7.412-4.591-11.374,1.451-1.684,3.686-1.727,4.523-4.035C569.693,600.944,569.964,597.243,570.622,594.035Z" transform="translate(-291.873 -332.994)"/><path class="e" d="M557.485,609.547l3.614,5.907a2.7,2.7,0,0,1,.44,1.021c.1.769-.484,1.451-.929,2.075-3.116,4.257-2.322,10.111-1.384,15.3a27.774,27.774,0,0,1-19.09-22.481c-.455-3.091-1.19-8.181,1.553-10.193C548.3,596.33,554.384,604.486,557.485,609.547Z" transform="translate(-282.457 -347.403)"/><path class="b" d="M606.609,582.4c-1.413-.232-2.9,0-4.228-.61-2.3-1.06-2.83-4.04-3.057-6.565,0-.232-.034-.484-.044-.76a21.019,21.019,0,0,1,2.675-2.327,13.155,13.155,0,0,1,2.733-1.2l2.554-.9a14.636,14.636,0,0,1,.552,2.08c.285,1.693.048,3.464.484,5.128a13.317,13.317,0,0,0,2.158,4.127l3.764,5.5c-.682-.16-1.359-.343-2.032-.537A8.538,8.538,0,0,0,606.609,582.4Z" transform="translate(-313.216 -332.09)"/><path class="k" d="M108.232,732.287c1.451-2.666-.194-5.936-2.075-8.311s-4.165-4.838-4.117-7.881c.073-4.354,4.693-6.923,8.384-9.235a40.638,40.638,0,0,0,7.528-6.052,11.03,11.03,0,0,0,2.312-3.1,12.555,12.555,0,0,0,.7-5.5q-.247-9.318-.924-18.621" transform="translate(-56.532 -385.549)"/><path class="e" d="M139.308,665.981a6.773,6.773,0,0,0-3.386-5.563l-1.519,3.009.048-3.643a6.878,6.878,0,0,0-2.24-.271,6.773,6.773,0,1,0,7.1,6.468Z" transform="translate(-68.784 -378.279)"/><path class="e" d="M115.07,757.339a6.773,6.773,0,1,1,.329-5.467l-4.243,3.449,4.669-1.079A6.773,6.773,0,0,1,115.07,757.339Z" transform="translate(-56.656 -423.682)"/><path class="e" d="M114.053,726.146a6.773,6.773,0,0,1-2.153-13.319l-.039,2.8,1.538-3.043h0a6.773,6.773,0,0,1,7.116,6.488,6.7,6.7,0,0,1-.29,2.317,6.773,6.773,0,0,1-6.173,4.76Z" transform="translate(-58.991 -405.672)"/><path class="e" d="M148.367,703.551a6.773,6.773,0,1,1,3-12.709l-1.2,3.29,2.467-2.371a6.773,6.773,0,0,1,2.192,4.688,6.671,6.671,0,0,1-.169,1.872A6.773,6.773,0,0,1,148.367,703.551Z" transform="translate(-76.823 -394.025)"/><path class="h" d="M138.428,671.757c-1.567.169-3.091.658-4.664.755a5.072,5.072,0,0,1-4.3-1.5,21.008,21.008,0,0,1-1.253-2.211,4.838,4.838,0,0,0-1.713-1.611A6.773,6.773,0,1,0,139.2,671.7Q138.81,671.713,138.428,671.757Z" transform="translate(-68.818 -382.245)"/><path class="h" d="M148.267,707.676A6.773,6.773,0,0,1,141.808,698a5.017,5.017,0,0,1,1.364,1.364,22.2,22.2,0,0,0,1.345,2.245,5.562,5.562,0,0,0,4.5,1.577c1.64-.073,3.222-.542,4.838-.692.227,0,.455-.034.687-.039A6.773,6.773,0,0,1,148.267,707.676Z" transform="translate(-76.722 -398.15)"/><path class="h" d="M114.2,730.43a6.773,6.773,0,0,1-6.512-9.56,5.555,5.555,0,0,1,1.451,1.379c.527.745.856,1.606,1.451,2.293a6.3,6.3,0,0,0,4.8,1.684c1.732-.039,3.3-.45,4.973-.581a6.773,6.773,0,0,1-6.168,4.785Z" transform="translate(-59.136 -409.956)"/><path class="h" d="M114.877,761.969a6.781,6.781,0,0,1-12.38-5.539,6.7,6.7,0,0,1,1.49,1.33,29.522,29.522,0,0,0,1.819,2.419,8.457,8.457,0,0,0,5.626,1.979,29.022,29.022,0,0,0,3.445-.189Z" transform="translate(-56.463 -428.312)"/><path class="l" d="M93.67,785.481s5.36-.164,6.976-1.316,8.224-2.521,8.64-.677,8.055,9.192,2.008,9.221-14.059-.939-15.675-1.935S93.67,785.481,93.67,785.481Z" transform="translate(-52.212 -441.814)"/><path class="c" d="M111.4,795.144c-6.052.048-14.059-.968-15.67-1.935-1.229-.75-1.717-3.43-1.882-4.669H93.67s.339,4.325,1.935,5.322,9.622,1.969,15.675,1.935c1.746,0,2.346-.634,2.312-1.553C113.365,794.786,112.7,795.129,111.4,795.144Z" transform="translate(-52.212 -444.888)"/><path class="k" d="M1028.839,669.875c2.559-4.741-.343-10.551-3.686-14.784s-7.412-8.631-7.324-14.03c.126-7.741,8.345-12.322,14.91-16.424a72.511,72.511,0,0,0,13.391-10.769,19.311,19.311,0,0,0,4.117-5.505c1.359-3.029,1.321-6.473,1.234-9.792q-.43-16.574-1.64-33.12" transform="translate(-529.278 -329.725)"/><path class="e" d="M1084.014,551.934a12.061,12.061,0,0,0-6.028-9.9l-2.7,5.351.082-6.478a12.095,12.095,0,1,0,8.65,11.025Z" transform="translate(-550.964 -316.8)"/><path class="e" d="M1040.9,714.412a12.095,12.095,0,1,1,.581-9.724l-7.542,6.139,8.3-1.935a11.98,11.98,0,0,1-1.335,5.52Z" transform="translate(-529.391 -397.527)"/><path class="e" d="M1039.584,658.909a12.095,12.095,0,0,1-3.832-23.705l-.063,4.978,2.733-5.414h.034a12.095,12.095,0,1,1,1.127,24.131Z" transform="translate(-534.018 -365.478)"/><path class="e" d="M1099.984,618.607a12.095,12.095,0,1,1,5.322-22.6l-2.133,5.849,4.393-4.214a12.018,12.018,0,0,1,3.9,8.336,11.853,11.853,0,0,1-.31,3.328A12.094,12.094,0,0,1,1099.984,618.607Z" transform="translate(-565.115 -344.688)"/><path class="h" d="M1082.365,562.218c-2.787.3-5.5,1.171-8.3,1.345s-5.868-.484-7.639-2.671a31.783,31.783,0,0,1-2.235-3.933,8.561,8.561,0,0,0-3.038-2.859,12.095,12.095,0,1,0,22.578,8.016C1083.275,562.136,1082.82,562.17,1082.365,562.218Z" transform="translate(-550.942 -323.866)"/><path class="h" d="M1100.084,626.018a12.095,12.095,0,0,1-11.49-17.228,8.925,8.925,0,0,1,2.419,2.419,34.489,34.489,0,0,0,2.419,3.991c1.877,2.216,5.094,2.937,8.007,2.806s5.728-.968,8.635-1.229c.4-.034.808-.063,1.214-.073A12.1,12.1,0,0,1,1100.084,626.018Z" transform="translate(-565.215 -352.098)"/><path class="h" d="M1039.493,666.585a12.095,12.095,0,0,1-11.611-17.005,9.79,9.79,0,0,1,2.55,2.458,40.739,40.739,0,0,0,2.622,4.069c2.042,2.269,5.467,3.072,8.553,3,2.99-.068,5.868-.8,8.844-1.03A12.1,12.1,0,0,1,1039.493,666.585Z" transform="translate(-533.927 -373.155)"/><path class="h" d="M1041.013,722.695a12.095,12.095,0,0,1-22.022-9.855,12.1,12.1,0,0,1,2.651,2.361c1.146,1.4,1.906,2.99,3.232,4.3,2.472,2.419,6.458,3.42,10,3.512a52.58,52.58,0,0,0,6.134-.315Z" transform="translate(-529.502 -405.81)"/><path class="l" d="M1002.94,764.5s9.531-.3,12.4-2.341,14.663-4.49,15.38-1.209,14.325,16.323,3.561,16.405-25.007-1.674-27.876-3.42S1002.94,764.5,1002.94,764.5Z" transform="translate(-521.593 -429.818)"/><path class="c" d="M1034.478,781.717c-10.764.087-25.007-1.674-27.876-3.42-2.182-1.33-3.053-6.105-3.348-8.307h-.315s.6,7.687,3.469,9.434,17.116,3.507,27.876,3.42c3.111-.024,4.18-1.127,4.122-2.767C1037.976,781.083,1036.79,781.7,1034.478,781.717Z" transform="translate(-521.593 -435.312)"/></g></svg>